

Changing to track 0


0 
WTF is that class javax.sound.midi.MetaMessage
0 
WTF is that class javax.sound.midi.MetaMessage
0 
WTF is that class javax.sound.midi.MetaMessage
960 
WTF is that class javax.sound.midi.MetaMessage
31680 
WTF is that class javax.sound.midi.MetaMessage
39360 
WTF is that class javax.sound.midi.MetaMessage
54720 
WTF is that class javax.sound.midi.MetaMessage
58560 
WTF is that class javax.sound.midi.MetaMessage
66240 
WTF is that class javax.sound.midi.MetaMessage
73920 
WTF is that class javax.sound.midi.MetaMessage
89280 
WTF is that class javax.sound.midi.MetaMessage
96960 
WTF is that class javax.sound.midi.MetaMessage
118320 
WTF is that class javax.sound.midi.MetaMessage
118560 
WTF is that class javax.sound.midi.MetaMessage
118800 
WTF is that class javax.sound.midi.MetaMessage
119040 
WTF is that class javax.sound.midi.MetaMessage
119280 
WTF is that class javax.sound.midi.MetaMessage
119520 
WTF is that class javax.sound.midi.MetaMessage
119760 
WTF is that class javax.sound.midi.MetaMessage
120000 
WTF is that class javax.sound.midi.MetaMessage
120000 
WTF is that class javax.sound.midi.MetaMessage
120960 
WTF is that class javax.sound.midi.MetaMessage
120960 
WTF is that class javax.sound.midi.Track$ImmutableEndOfTrack


Changing to track 1


0 
WTF is that class javax.sound.midi.MetaMessage
0 
WTF is that class javax.sound.midi.MetaMessage
0 
0 
0 
0 
903 
904 
960 
Channel: 10 Note ON:  C#2 key: 37 velocity: 127
960 
Channel: 10 Note ON:  C#4 key: 61 velocity: 127
960 
Channel: 10 Note ON:  F4 key: 65 velocity: 127
1001 
1002 
1056 
Channel: 10 Note ON:  F4 key: 65 velocity: 0
1080 
Channel: 10 Note ON:  G#3 key: 56 velocity: 127
1087 
Channel: 10 Note ON:  C#4 key: 61 velocity: 0
1192 
Channel: 10 Note ON:  G#3 key: 56 velocity: 0
1200 
Channel: 10 Note ON:  F4 key: 65 velocity: 127
1200 
Channel: 10 Note ON:  C#4 key: 61 velocity: 127
1284 
Channel: 10 Note ON:  F4 key: 65 velocity: 0
1320 
Channel: 10 Note ON:  G#3 key: 56 velocity: 127
1329 
Channel: 10 Note ON:  C#4 key: 61 velocity: 0
1422 
Channel: 10 Note ON:  G#3 key: 56 velocity: 0
1440 
Channel: 10 Note ON:  F4 key: 65 velocity: 127
1440 
Channel: 10 Note ON:  C#4 key: 61 velocity: 127
1537 
Channel: 10 Note ON:  F4 key: 65 velocity: 0
1560 
Channel: 10 Note ON:  D#2 key: 39 velocity: 127
1560 
Channel: 10 Note ON:  G#3 key: 56 velocity: 127
1568 
Channel: 10 Note ON:  C#4 key: 61 velocity: 0
1589 
Channel: 10 Note ON:  C#2 key: 37 velocity: 0
1678 
1679 
1680 
Channel: 10 Note ON:  C#4 key: 61 velocity: 127
1680 
Channel: 10 Note ON:  F4 key: 65 velocity: 127
1680 
Channel: 10 Note ON:  F2 key: 41 velocity: 127
1688 
Channel: 10 Note ON:  D#2 key: 39 velocity: 0
1690 
Channel: 10 Note ON:  G#3 key: 56 velocity: 0
1790 
Channel: 10 Note ON:  F4 key: 65 velocity: 0
1792 
Channel: 10 Note ON:  F2 key: 41 velocity: 0
1793 
Channel: 10 Note ON:  C#4 key: 61 velocity: 0
1800 
Channel: 10 Note ON:  G#3 key: 56 velocity: 127
1800 
Channel: 10 Note ON:  G#2 key: 44 velocity: 127
1920 
Channel: 10 Note ON:  D#4 key: 63 velocity: 127
1920 
Channel: 10 Note ON:  C4 key: 60 velocity: 127
1938 
Channel: 10 Note ON:  G#3 key: 56 velocity: 0
2028 
Channel: 10 Note ON:  D#4 key: 63 velocity: 0
2040 
Channel: 10 Note ON:  G#3 key: 56 velocity: 127
2052 
Channel: 10 Note ON:  C4 key: 60 velocity: 0
2160 
Channel: 10 Note ON:  D#4 key: 63 velocity: 127
2160 
Channel: 10 Note ON:  C4 key: 60 velocity: 127
2160 
2161 
2168 
Channel: 10 Note ON:  G#3 key: 56 velocity: 0
2272 
Channel: 10 Note ON:  D#4 key: 63 velocity: 0
2280 
Channel: 10 Note ON:  C4 key: 60 velocity: 0
2280 
Channel: 10 Note ON:  G#3 key: 56 velocity: 127
2386 
Channel: 10 Note ON:  G#3 key: 56 velocity: 0
2400 
Channel: 10 Note ON:  D#4 key: 63 velocity: 127
2400 
Channel: 10 Note ON:  C4 key: 60 velocity: 127
2499 
Channel: 10 Note ON:  D#4 key: 63 velocity: 0
2520 
Channel: 10 Note ON:  G#3 key: 56 velocity: 127
2520 
Channel: 10 Note ON:  A#2 key: 46 velocity: 127
2522 
Channel: 10 Note ON:  C4 key: 60 velocity: 0
2533 
Channel: 10 Note ON:  G#2 key: 44 velocity: 0
2534 
2535 
2626 
Channel: 10 Note ON:  G#3 key: 56 velocity: 0
2640 
Channel: 10 Note ON:  C3 key: 48 velocity: 127
2640 
Channel: 10 Note ON:  D#4 key: 63 velocity: 127
2640 
Channel: 10 Note ON:  C4 key: 60 velocity: 127
2644 
Channel: 10 Note ON:  A#2 key: 46 velocity: 0
2659 
2660 
2732 
Channel: 10 Note ON:  D#4 key: 63 velocity: 0
2748 
Channel: 10 Note ON:  C3 key: 48 velocity: 0
2753 
Channel: 10 Note ON:  C4 key: 60 velocity: 0
2760 
Channel: 10 Note ON:  A#2 key: 46 velocity: 127
2760 
Channel: 10 Note ON:  G#3 key: 56 velocity: 127
2773 
2773 
2831 
Channel: 10 Note ON:  G#3 key: 56 velocity: 0
2880 
Channel: 10 Note ON:  C#4 key: 61 velocity: 127
2880 
Channel: 10 Note ON:  A#3 key: 58 velocity: 127
2924 
2925 
2966 
Channel: 10 Note ON:  C#4 key: 61 velocity: 0
3000 
Channel: 10 Note ON:  A#3 key: 58 velocity: 0
3000 
Channel: 10 Note ON:  F3 key: 53 velocity: 127
3085 
Channel: 10 Note ON:  F3 key: 53 velocity: 0
3120 
Channel: 10 Note ON:  C#4 key: 61 velocity: 127
3120 
Channel: 10 Note ON:  A#3 key: 58 velocity: 127
3208 
Channel: 10 Note ON:  C#4 key: 61 velocity: 0
3236 
Channel: 10 Note ON:  A#3 key: 58 velocity: 0
3240 
Channel: 10 Note ON:  F3 key: 53 velocity: 127
3329 
Channel: 10 Note ON:  F3 key: 53 velocity: 0
3360 
Channel: 10 Note ON:  C#4 key: 61 velocity: 127
3360 
Channel: 10 Note ON:  A#3 key: 58 velocity: 127
3442 
Channel: 10 Note ON:  C#4 key: 61 velocity: 0
3475 
Channel: 10 Note ON:  A#3 key: 58 velocity: 0
3480 
Channel: 10 Note ON:  C3 key: 48 velocity: 127
3480 
Channel: 10 Note ON:  F3 key: 53 velocity: 127
3557 
Channel: 10 Note ON:  F3 key: 53 velocity: 0
3574 
Channel: 10 Note ON:  A#2 key: 46 velocity: 0
3586 
Channel: 10 Note ON:  C3 key: 48 velocity: 0
3600 
Channel: 10 Note ON:  A#3 key: 58 velocity: 127
3600 
Channel: 10 Note ON:  C#4 key: 61 velocity: 127
3600 
Channel: 10 Note ON:  C#3 key: 49 velocity: 127
3602 
3602 
3681 
Channel: 10 Note ON:  C#4 key: 61 velocity: 0
3702 
Channel: 10 Note ON:  A#3 key: 58 velocity: 0
3720 
Channel: 10 Note ON:  F#3 key: 54 velocity: 127
3720 
Channel: 10 Note ON:  F#2 key: 42 velocity: 127
3731 
Channel: 10 Note ON:  C#3 key: 49 velocity: 0
3830 
Channel: 10 Note ON:  F#3 key: 54 velocity: 0
3840 
Channel: 10 Note ON:  A#3 key: 58 velocity: 127
3840 
Channel: 10 Note ON:  C#4 key: 61 velocity: 127
3851 
3852 
3938 
Channel: 10 Note ON:  C#4 key: 61 velocity: 0
3960 
Channel: 10 Note ON:  F#3 key: 54 velocity: 127
3962 
Channel: 10 Note ON:  A#3 key: 58 velocity: 0
4061 
Channel: 10 Note ON:  F#3 key: 54 velocity: 0
4080 
Channel: 10 Note ON:  C#4 key: 61 velocity: 127
4080 
Channel: 10 Note ON:  A#3 key: 58 velocity: 127
4174 
Channel: 10 Note ON:  C#4 key: 61 velocity: 0
4200 
Channel: 10 Note ON:  A#3 key: 58 velocity: 0
4200 
Channel: 10 Note ON:  F#3 key: 54 velocity: 127
4320 
Channel: 10 Note ON:  C#4 key: 61 velocity: 127
4320 
Channel: 10 Note ON:  A#3 key: 58 velocity: 127
4323 
Channel: 10 Note ON:  F#3 key: 54 velocity: 0
4429 
Channel: 10 Note ON:  C#4 key: 61 velocity: 0
4440 
Channel: 10 Note ON:  C3 key: 48 velocity: 127
4440 
Channel: 10 Note ON:  F#3 key: 54 velocity: 127
4466 
Channel: 10 Note ON:  A#3 key: 58 velocity: 0
4537 
Channel: 10 Note ON:  F#3 key: 54 velocity: 0
4560 
Channel: 10 Note ON:  C#3 key: 49 velocity: 127
4560 
Channel: 10 Note ON:  A#3 key: 58 velocity: 127
4560 
Channel: 10 Note ON:  C#4 key: 61 velocity: 127
4561 
Channel: 10 Note ON:  C3 key: 48 velocity: 0
4580 
Channel: 10 Note ON:  F#2 key: 42 velocity: 0
4630 
Channel: 10 Note ON:  A#3 key: 58 velocity: 0
4658 
Channel: 10 Note ON:  C#4 key: 61 velocity: 0
4680 
Channel: 10 Note ON:  F#3 key: 54 velocity: 127
4767 
4767 
4790 
Channel: 10 Note ON:  F#3 key: 54 velocity: 0
4800 
Channel: 10 Note ON:  C#2 key: 37 velocity: 127
4800 
Channel: 10 Note ON:  F4 key: 65 velocity: 127
4800 
Channel: 10 Note ON:  C#4 key: 61 velocity: 127
4803 
Channel: 10 Note ON:  C#3 key: 49 velocity: 0
4913 
4913 
4920 
Channel: 10 Note ON:  G#3 key: 56 velocity: 127
4927 
Channel: 10 Note ON:  F4 key: 65 velocity: 0
4942 
Channel: 10 Note ON:  C#4 key: 61 velocity: 0
5040 
Channel: 10 Note ON:  F4 key: 65 velocity: 127
5040 
Channel: 10 Note ON:  C#4 key: 61 velocity: 127
5042 
Channel: 10 Note ON:  G#3 key: 56 velocity: 0
5120 
Channel: 10 Note ON:  F4 key: 65 velocity: 0
5160 
Channel: 10 Note ON:  G#3 key: 56 velocity: 127
5168 
Channel: 10 Note ON:  C#4 key: 61 velocity: 0
5256 
Channel: 10 Note ON:  C#2 key: 37 velocity: 0
5272 
Channel: 10 Note ON:  G#3 key: 56 velocity: 0
5280 
Channel: 10 Note ON:  F4 key: 65 velocity: 127
5280 
Channel: 10 Note ON:  C#4 key: 61 velocity: 127
5280 
Channel: 10 Note ON:  C#2 key: 37 velocity: 127
5349 
Channel: 10 Note ON:  F4 key: 65 velocity: 0
5398 
Channel: 10 Note ON:  C#4 key: 61 velocity: 0
5400 
Channel: 10 Note ON:  D#2 key: 39 velocity: 127
5400 
Channel: 10 Note ON:  G#3 key: 56 velocity: 127
5409 
Channel: 10 Note ON:  C#2 key: 37 velocity: 0
5488 
5488 
5503 
Channel: 10 Note ON:  D#2 key: 39 velocity: 0
5516 
Channel: 10 Note ON:  G#3 key: 56 velocity: 0
5520 
Channel: 10 Note ON:  C#4 key: 61 velocity: 127
5520 
Channel: 10 Note ON:  F4 key: 65 velocity: 127
5520 
Channel: 10 Note ON:  F2 key: 41 velocity: 127
5632 
Channel: 10 Note ON:  F4 key: 65 velocity: 0
5640 
Channel: 10 Note ON:  G#3 key: 56 velocity: 127
5640 
Channel: 10 Note ON:  G#2 key: 44 velocity: 127
5645 
Channel: 10 Note ON:  C#4 key: 61 velocity: 0
5647 
Channel: 10 Note ON:  F2 key: 41 velocity: 0
5760 
Channel: 10 Note ON:  D#4 key: 63 velocity: 127
5760 
Channel: 10 Note ON:  C4 key: 60 velocity: 127
5772 
Channel: 10 Note ON:  G#3 key: 56 velocity: 0
5865 
Channel: 10 Note ON:  D#4 key: 63 velocity: 0
5867 
5867 
5880 
Channel: 10 Note ON:  G#3 key: 56 velocity: 127
5887 
Channel: 10 Note ON:  C4 key: 60 velocity: 0
5992 
Channel: 10 Note ON:  G#3 key: 56 velocity: 0
6000 
Channel: 10 Note ON:  D#4 key: 63 velocity: 127
6000 
Channel: 10 Note ON:  C4 key: 60 velocity: 127
6104 
Channel: 10 Note ON:  D#4 key: 63 velocity: 0
6113 
Channel: 10 Note ON:  C4 key: 60 velocity: 0
6120 
Channel: 10 Note ON:  G#3 key: 56 velocity: 127
6240 
Channel: 10 Note ON:  D#4 key: 63 velocity: 127
6240 
Channel: 10 Note ON:  C4 key: 60 velocity: 127
6249 
Channel: 10 Note ON:  G#3 key: 56 velocity: 0
6347 
Channel: 10 Note ON:  D#4 key: 63 velocity: 0
6360 
Channel: 10 Note ON:  C4 key: 60 velocity: 0
6360 
Channel: 10 Note ON:  G#3 key: 56 velocity: 127
6360 
Channel: 10 Note ON:  A#2 key: 46 velocity: 127
6380 
Channel: 10 Note ON:  G#2 key: 44 velocity: 0
6387 
6387 
6476 
Channel: 10 Note ON:  A#2 key: 46 velocity: 0
6478 
Channel: 10 Note ON:  G#3 key: 56 velocity: 0
6480 
Channel: 10 Note ON:  D#4 key: 63 velocity: 127
6480 
Channel: 10 Note ON:  C4 key: 60 velocity: 127
6480 
Channel: 10 Note ON:  C3 key: 48 velocity: 127
6484 
6485 
6593 
Channel: 10 Note ON:  D#4 key: 63 velocity: 0
6594 
Channel: 10 Note ON:  C4 key: 60 velocity: 0
6600 
Channel: 10 Note ON:  C3 key: 48 velocity: 0
6600 
Channel: 10 Note ON:  F2 key: 41 velocity: 127
6600 
Channel: 10 Note ON:  G#3 key: 56 velocity: 127
6609 
6609 
6676 
Channel: 10 Note ON:  G#3 key: 56 velocity: 0
6712 
6713 
6720 
Channel: 10 Note ON:  C4 key: 60 velocity: 127
6720 
Channel: 10 Note ON:  G#3 key: 56 velocity: 127
6816 
Channel: 10 Note ON:  C4 key: 60 velocity: 0
6827 
Channel: 10 Note ON:  G#3 key: 56 velocity: 0
6840 
Channel: 10 Note ON:  F3 key: 53 velocity: 127
6930 
Channel: 10 Note ON:  F3 key: 53 velocity: 0
6960 
Channel: 10 Note ON:  C4 key: 60 velocity: 127
6960 
Channel: 10 Note ON:  G#3 key: 56 velocity: 127
7068 
Channel: 10 Note ON:  C4 key: 60 velocity: 0
7080 
Channel: 10 Note ON:  F3 key: 53 velocity: 127
7092 
Channel: 10 Note ON:  G#3 key: 56 velocity: 0
7155 
Channel: 10 Note ON:  F2 key: 41 velocity: 0
7176 
Channel: 10 Note ON:  F3 key: 53 velocity: 0
7200 
Channel: 10 Note ON:  C4 key: 60 velocity: 127
7200 
Channel: 10 Note ON:  F2 key: 41 velocity: 127
7200 
Channel: 10 Note ON:  G#3 key: 56 velocity: 127
7285 
Channel: 10 Note ON:  C4 key: 60 velocity: 0
7308 
Channel: 10 Note ON:  F2 key: 41 velocity: 0
7320 
Channel: 10 Note ON:  C#3 key: 49 velocity: 127
7320 
Channel: 10 Note ON:  F3 key: 53 velocity: 127
7348 
Channel: 10 Note ON:  G#3 key: 56 velocity: 0
7407 
Channel: 10 Note ON:  F3 key: 53 velocity: 0
7433 
Channel: 10 Note ON:  C#3 key: 49 velocity: 0
7440 
Channel: 10 Note ON:  G#3 key: 56 velocity: 127
7440 
Channel: 10 Note ON:  C4 key: 60 velocity: 127
7440 
Channel: 10 Note ON:  F2 key: 41 velocity: 127
7465 
7465 
7550 
Channel: 10 Note ON:  C4 key: 60 velocity: 0
7550 
Channel: 10 Note ON:  G#3 key: 56 velocity: 0
7560 
Channel: 10 Note ON:  F#2 key: 42 velocity: 127
7560 
Channel: 10 Note ON:  F3 key: 53 velocity: 127
7583 
Channel: 10 Note ON:  F2 key: 41 velocity: 0
7667 
Channel: 10 Note ON:  F3 key: 53 velocity: 0
7680 
Channel: 10 Note ON:  A#3 key: 58 velocity: 127
7680 
Channel: 10 Note ON:  C#4 key: 61 velocity: 127
7698 
7699 
7785 
Channel: 10 Note ON:  C#4 key: 61 velocity: 0
7800 
Channel: 10 Note ON:  F#3 key: 54 velocity: 127
7807 
Channel: 10 Note ON:  A#3 key: 58 velocity: 0
7901 
Channel: 10 Note ON:  F#3 key: 54 velocity: 0
7920 
Channel: 10 Note ON:  A#3 key: 58 velocity: 127
7920 
Channel: 10 Note ON:  C#4 key: 61 velocity: 127
8021 
Channel: 10 Note ON:  C#4 key: 61 velocity: 0
8040 
Channel: 10 Note ON:  A#3 key: 58 velocity: 0
8040 
Channel: 10 Note ON:  F#3 key: 54 velocity: 127
8149 
Channel: 10 Note ON:  F#3 key: 54 velocity: 0
8160 
Channel: 10 Note ON:  C#4 key: 61 velocity: 127
8160 
Channel: 10 Note ON:  A#3 key: 58 velocity: 127
8248 
Channel: 10 Note ON:  C#4 key: 61 velocity: 0
8280 
Channel: 10 Note ON:  F#3 key: 54 velocity: 127
8280 
Channel: 10 Note ON:  C3 key: 48 velocity: 127
8281 
Channel: 10 Note ON:  A#3 key: 58 velocity: 0
8310 
Channel: 10 Note ON:  F#2 key: 42 velocity: 0
8338 
8338 
8400 
Channel: 10 Note ON:  A#3 key: 58 velocity: 127
8400 
Channel: 10 Note ON:  C#4 key: 61 velocity: 127
8400 
Channel: 10 Note ON:  C#3 key: 49 velocity: 127
8407 
Channel: 10 Note ON:  C3 key: 48 velocity: 0
8415 
Channel: 10 Note ON:  F#3 key: 54 velocity: 0
8424 
8425 
8519 
Channel: 10 Note ON:  C#4 key: 61 velocity: 0
8520 
Channel: 10 Note ON:  F#3 key: 54 velocity: 127
8522 
8522 
8532 
Channel: 10 Note ON:  A#3 key: 58 velocity: 0
8598 
Channel: 10 Note ON:  C#3 key: 49 velocity: 0
8613 
Channel: 10 Note ON:  F#3 key: 54 velocity: 0
8640 
Channel: 10 Note ON:  C#2 key: 37 velocity: 127
8640 
Channel: 10 Note ON:  C#4 key: 61 velocity: 127
8640 
Channel: 10 Note ON:  F4 key: 65 velocity: 127
8681 
8682 
8736 
Channel: 10 Note ON:  F4 key: 65 velocity: 0
8760 
Channel: 10 Note ON:  G#3 key: 56 velocity: 127
8767 
Channel: 10 Note ON:  C#4 key: 61 velocity: 0
8872 
Channel: 10 Note ON:  G#3 key: 56 velocity: 0
8880 
Channel: 10 Note ON:  F4 key: 65 velocity: 127
8880 
Channel: 10 Note ON:  C#4 key: 61 velocity: 127
8964 
Channel: 10 Note ON:  F4 key: 65 velocity: 0
9000 
Channel: 10 Note ON:  G#3 key: 56 velocity: 127
9009 
Channel: 10 Note ON:  C#4 key: 61 velocity: 0
9102 
Channel: 10 Note ON:  G#3 key: 56 velocity: 0
9120 
Channel: 10 Note ON:  F4 key: 65 velocity: 127
9120 
Channel: 10 Note ON:  C#4 key: 61 velocity: 127
9217 
Channel: 10 Note ON:  F4 key: 65 velocity: 0
9240 
Channel: 10 Note ON:  D#2 key: 39 velocity: 127
9240 
Channel: 10 Note ON:  G#3 key: 56 velocity: 127
9248 
Channel: 10 Note ON:  C#4 key: 61 velocity: 0
9269 
Channel: 10 Note ON:  C#2 key: 37 velocity: 0
9358 
9359 
9360 
Channel: 10 Note ON:  C#4 key: 61 velocity: 127
9360 
Channel: 10 Note ON:  F4 key: 65 velocity: 127
9360 
Channel: 10 Note ON:  F2 key: 41 velocity: 127
9368 
Channel: 10 Note ON:  D#2 key: 39 velocity: 0
9370 
Channel: 10 Note ON:  G#3 key: 56 velocity: 0
9470 
Channel: 10 Note ON:  F4 key: 65 velocity: 0
9472 
Channel: 10 Note ON:  F2 key: 41 velocity: 0
9473 
Channel: 10 Note ON:  C#4 key: 61 velocity: 0
9480 
Channel: 10 Note ON:  G#3 key: 56 velocity: 127
9480 
Channel: 10 Note ON:  G#2 key: 44 velocity: 127
9600 
Channel: 10 Note ON:  D#4 key: 63 velocity: 127
9600 
Channel: 10 Note ON:  C4 key: 60 velocity: 127
9618 
Channel: 10 Note ON:  G#3 key: 56 velocity: 0
9708 
Channel: 10 Note ON:  D#4 key: 63 velocity: 0
9720 
Channel: 10 Note ON:  G#3 key: 56 velocity: 127
9732 
Channel: 10 Note ON:  C4 key: 60 velocity: 0
9840 
Channel: 10 Note ON:  D#4 key: 63 velocity: 127
9840 
Channel: 10 Note ON:  C4 key: 60 velocity: 127
9840 
9841 
9848 
Channel: 10 Note ON:  G#3 key: 56 velocity: 0
9952 
Channel: 10 Note ON:  D#4 key: 63 velocity: 0
9960 
Channel: 10 Note ON:  C4 key: 60 velocity: 0
9960 
Channel: 10 Note ON:  G#3 key: 56 velocity: 127
10066 
Channel: 10 Note ON:  G#3 key: 56 velocity: 0
10080 
Channel: 10 Note ON:  D#4 key: 63 velocity: 127
10080 
Channel: 10 Note ON:  C4 key: 60 velocity: 127
10179 
Channel: 10 Note ON:  D#4 key: 63 velocity: 0
10200 
Channel: 10 Note ON:  G#3 key: 56 velocity: 127
10200 
Channel: 10 Note ON:  A#2 key: 46 velocity: 127
10202 
Channel: 10 Note ON:  C4 key: 60 velocity: 0
10213 
Channel: 10 Note ON:  G#2 key: 44 velocity: 0
10214 
10215 
10306 
Channel: 10 Note ON:  G#3 key: 56 velocity: 0
10320 
Channel: 10 Note ON:  C3 key: 48 velocity: 127
10320 
Channel: 10 Note ON:  D#4 key: 63 velocity: 127
10320 
Channel: 10 Note ON:  C4 key: 60 velocity: 127
10324 
Channel: 10 Note ON:  A#2 key: 46 velocity: 0
10339 
10340 
10412 
Channel: 10 Note ON:  D#4 key: 63 velocity: 0
10428 
Channel: 10 Note ON:  C3 key: 48 velocity: 0
10433 
Channel: 10 Note ON:  C4 key: 60 velocity: 0
10440 
Channel: 10 Note ON:  A#2 key: 46 velocity: 127
10440 
Channel: 10 Note ON:  G#3 key: 56 velocity: 127
10453 
10453 
10511 
Channel: 10 Note ON:  G#3 key: 56 velocity: 0
10560 
Channel: 10 Note ON:  C#4 key: 61 velocity: 127
10560 
Channel: 10 Note ON:  A#3 key: 58 velocity: 127
10604 
10605 
10646 
Channel: 10 Note ON:  C#4 key: 61 velocity: 0
10680 
Channel: 10 Note ON:  A#3 key: 58 velocity: 0
10680 
Channel: 10 Note ON:  F3 key: 53 velocity: 127
10765 
Channel: 10 Note ON:  F3 key: 53 velocity: 0
10800 
Channel: 10 Note ON:  C#4 key: 61 velocity: 127
10800 
Channel: 10 Note ON:  A#3 key: 58 velocity: 127
10888 
Channel: 10 Note ON:  C#4 key: 61 velocity: 0
10916 
Channel: 10 Note ON:  A#3 key: 58 velocity: 0
10920 
Channel: 10 Note ON:  F3 key: 53 velocity: 127
11009 
Channel: 10 Note ON:  F3 key: 53 velocity: 0
11040 
Channel: 10 Note ON:  C#4 key: 61 velocity: 127
11040 
Channel: 10 Note ON:  A#3 key: 58 velocity: 127
11122 
Channel: 10 Note ON:  C#4 key: 61 velocity: 0
11155 
Channel: 10 Note ON:  A#3 key: 58 velocity: 0
11160 
Channel: 10 Note ON:  C3 key: 48 velocity: 127
11160 
Channel: 10 Note ON:  F3 key: 53 velocity: 127
11237 
Channel: 10 Note ON:  F3 key: 53 velocity: 0
11254 
Channel: 10 Note ON:  A#2 key: 46 velocity: 0
11266 
Channel: 10 Note ON:  C3 key: 48 velocity: 0
11280 
Channel: 10 Note ON:  A#3 key: 58 velocity: 127
11280 
Channel: 10 Note ON:  C#4 key: 61 velocity: 127
11280 
Channel: 10 Note ON:  C#3 key: 49 velocity: 127
11282 
11282 
11361 
Channel: 10 Note ON:  C#4 key: 61 velocity: 0
11382 
Channel: 10 Note ON:  A#3 key: 58 velocity: 0
11400 
Channel: 10 Note ON:  F#3 key: 54 velocity: 127
11400 
Channel: 10 Note ON:  F#2 key: 42 velocity: 127
11411 
Channel: 10 Note ON:  C#3 key: 49 velocity: 0
11510 
Channel: 10 Note ON:  F#3 key: 54 velocity: 0
11520 
Channel: 10 Note ON:  A#3 key: 58 velocity: 127
11520 
Channel: 10 Note ON:  C#4 key: 61 velocity: 127
11531 
11532 
11618 
Channel: 10 Note ON:  C#4 key: 61 velocity: 0
11640 
Channel: 10 Note ON:  F#3 key: 54 velocity: 127
11642 
Channel: 10 Note ON:  A#3 key: 58 velocity: 0
11741 
Channel: 10 Note ON:  F#3 key: 54 velocity: 0
11760 
Channel: 10 Note ON:  C#4 key: 61 velocity: 127
11760 
Channel: 10 Note ON:  A#3 key: 58 velocity: 127
11854 
Channel: 10 Note ON:  C#4 key: 61 velocity: 0
11880 
Channel: 10 Note ON:  A#3 key: 58 velocity: 0
11880 
Channel: 10 Note ON:  F#3 key: 54 velocity: 127
12000 
Channel: 10 Note ON:  C#4 key: 61 velocity: 127
12000 
Channel: 10 Note ON:  A#3 key: 58 velocity: 127
12003 
Channel: 10 Note ON:  F#3 key: 54 velocity: 0
12109 
Channel: 10 Note ON:  C#4 key: 61 velocity: 0
12120 
Channel: 10 Note ON:  C3 key: 48 velocity: 127
12120 
Channel: 10 Note ON:  F#3 key: 54 velocity: 127
12146 
Channel: 10 Note ON:  A#3 key: 58 velocity: 0
12217 
Channel: 10 Note ON:  F#3 key: 54 velocity: 0
12240 
Channel: 10 Note ON:  C#3 key: 49 velocity: 127
12240 
Channel: 10 Note ON:  A#3 key: 58 velocity: 127
12240 
Channel: 10 Note ON:  C#4 key: 61 velocity: 127
12241 
Channel: 10 Note ON:  C3 key: 48 velocity: 0
12260 
Channel: 10 Note ON:  F#2 key: 42 velocity: 0
12310 
Channel: 10 Note ON:  A#3 key: 58 velocity: 0
12338 
Channel: 10 Note ON:  C#4 key: 61 velocity: 0
12360 
Channel: 10 Note ON:  F#3 key: 54 velocity: 127
12447 
12447 
12470 
Channel: 10 Note ON:  F#3 key: 54 velocity: 0
12480 
Channel: 10 Note ON:  C#2 key: 37 velocity: 127
12480 
Channel: 10 Note ON:  F4 key: 65 velocity: 127
12480 
Channel: 10 Note ON:  C#4 key: 61 velocity: 127
12483 
Channel: 10 Note ON:  C#3 key: 49 velocity: 0
12593 
12593 
12600 
Channel: 10 Note ON:  G#3 key: 56 velocity: 127
12607 
Channel: 10 Note ON:  F4 key: 65 velocity: 0
12622 
Channel: 10 Note ON:  C#4 key: 61 velocity: 0
12720 
Channel: 10 Note ON:  F4 key: 65 velocity: 127
12720 
Channel: 10 Note ON:  C#4 key: 61 velocity: 127
12722 
Channel: 10 Note ON:  G#3 key: 56 velocity: 0
12800 
Channel: 10 Note ON:  F4 key: 65 velocity: 0
12840 
Channel: 10 Note ON:  G#3 key: 56 velocity: 127
12848 
Channel: 10 Note ON:  C#4 key: 61 velocity: 0
12936 
Channel: 10 Note ON:  C#2 key: 37 velocity: 0
12952 
Channel: 10 Note ON:  G#3 key: 56 velocity: 0
12960 
Channel: 10 Note ON:  F4 key: 65 velocity: 127
12960 
Channel: 10 Note ON:  C#4 key: 61 velocity: 127
12960 
Channel: 10 Note ON:  C#2 key: 37 velocity: 127
13029 
Channel: 10 Note ON:  F4 key: 65 velocity: 0
13078 
Channel: 10 Note ON:  C#4 key: 61 velocity: 0
13080 
Channel: 10 Note ON:  D#2 key: 39 velocity: 127
13080 
Channel: 10 Note ON:  G#3 key: 56 velocity: 127
13089 
Channel: 10 Note ON:  C#2 key: 37 velocity: 0
13168 
13168 
13183 
Channel: 10 Note ON:  D#2 key: 39 velocity: 0
13196 
Channel: 10 Note ON:  G#3 key: 56 velocity: 0
13200 
Channel: 10 Note ON:  C#4 key: 61 velocity: 127
13200 
Channel: 10 Note ON:  F4 key: 65 velocity: 127
13200 
Channel: 10 Note ON:  F2 key: 41 velocity: 127
13312 
Channel: 10 Note ON:  F4 key: 65 velocity: 0
13320 
Channel: 10 Note ON:  G#3 key: 56 velocity: 127
13320 
Channel: 10 Note ON:  G#2 key: 44 velocity: 127
13325 
Channel: 10 Note ON:  C#4 key: 61 velocity: 0
13327 
Channel: 10 Note ON:  F2 key: 41 velocity: 0
13440 
Channel: 10 Note ON:  D#4 key: 63 velocity: 127
13440 
Channel: 10 Note ON:  C4 key: 60 velocity: 127
13452 
Channel: 10 Note ON:  G#3 key: 56 velocity: 0
13545 
Channel: 10 Note ON:  D#4 key: 63 velocity: 0
13547 
13547 
13560 
Channel: 10 Note ON:  G#3 key: 56 velocity: 127
13567 
Channel: 10 Note ON:  C4 key: 60 velocity: 0
13672 
Channel: 10 Note ON:  G#3 key: 56 velocity: 0
13680 
Channel: 10 Note ON:  D#4 key: 63 velocity: 127
13680 
Channel: 10 Note ON:  C4 key: 60 velocity: 127
13784 
Channel: 10 Note ON:  D#4 key: 63 velocity: 0
13793 
Channel: 10 Note ON:  C4 key: 60 velocity: 0
13800 
Channel: 10 Note ON:  G#3 key: 56 velocity: 127
13920 
Channel: 10 Note ON:  D#4 key: 63 velocity: 127
13920 
Channel: 10 Note ON:  C4 key: 60 velocity: 127
13929 
Channel: 10 Note ON:  G#3 key: 56 velocity: 0
14027 
Channel: 10 Note ON:  D#4 key: 63 velocity: 0
14040 
Channel: 10 Note ON:  C4 key: 60 velocity: 0
14040 
Channel: 10 Note ON:  G#3 key: 56 velocity: 127
14040 
Channel: 10 Note ON:  A#2 key: 46 velocity: 127
14060 
Channel: 10 Note ON:  G#2 key: 44 velocity: 0
14067 
14067 
14156 
Channel: 10 Note ON:  A#2 key: 46 velocity: 0
14158 
Channel: 10 Note ON:  G#3 key: 56 velocity: 0
14160 
Channel: 10 Note ON:  D#4 key: 63 velocity: 127
14160 
Channel: 10 Note ON:  C4 key: 60 velocity: 127
14160 
Channel: 10 Note ON:  C3 key: 48 velocity: 127
14164 
14165 
14273 
Channel: 10 Note ON:  D#4 key: 63 velocity: 0
14274 
Channel: 10 Note ON:  C4 key: 60 velocity: 0
14280 
Channel: 10 Note ON:  C3 key: 48 velocity: 0
14280 
Channel: 10 Note ON:  F2 key: 41 velocity: 127
14280 
Channel: 10 Note ON:  G#3 key: 56 velocity: 127
14289 
14289 
14356 
Channel: 10 Note ON:  G#3 key: 56 velocity: 0
14392 
14393 
14400 
Channel: 10 Note ON:  C4 key: 60 velocity: 127
14400 
Channel: 10 Note ON:  G#3 key: 56 velocity: 127
14496 
Channel: 10 Note ON:  C4 key: 60 velocity: 0
14507 
Channel: 10 Note ON:  G#3 key: 56 velocity: 0
14520 
Channel: 10 Note ON:  F3 key: 53 velocity: 127
14610 
Channel: 10 Note ON:  F3 key: 53 velocity: 0
14640 
Channel: 10 Note ON:  C4 key: 60 velocity: 127
14640 
Channel: 10 Note ON:  G#3 key: 56 velocity: 127
14748 
Channel: 10 Note ON:  C4 key: 60 velocity: 0
14760 
Channel: 10 Note ON:  F3 key: 53 velocity: 127
14772 
Channel: 10 Note ON:  G#3 key: 56 velocity: 0
14835 
Channel: 10 Note ON:  F2 key: 41 velocity: 0
14856 
Channel: 10 Note ON:  F3 key: 53 velocity: 0
14880 
Channel: 10 Note ON:  C4 key: 60 velocity: 127
14880 
Channel: 10 Note ON:  F2 key: 41 velocity: 127
14880 
Channel: 10 Note ON:  G#3 key: 56 velocity: 127
14965 
Channel: 10 Note ON:  C4 key: 60 velocity: 0
14988 
Channel: 10 Note ON:  F2 key: 41 velocity: 0
15000 
Channel: 10 Note ON:  C#3 key: 49 velocity: 127
15000 
Channel: 10 Note ON:  F3 key: 53 velocity: 127
15028 
Channel: 10 Note ON:  G#3 key: 56 velocity: 0
15087 
Channel: 10 Note ON:  F3 key: 53 velocity: 0
15113 
Channel: 10 Note ON:  C#3 key: 49 velocity: 0
15120 
Channel: 10 Note ON:  G#3 key: 56 velocity: 127
15120 
Channel: 10 Note ON:  C4 key: 60 velocity: 127
15120 
Channel: 10 Note ON:  F2 key: 41 velocity: 127
15145 
15145 
15230 
Channel: 10 Note ON:  C4 key: 60 velocity: 0
15230 
Channel: 10 Note ON:  G#3 key: 56 velocity: 0
15240 
Channel: 10 Note ON:  F#2 key: 42 velocity: 127
15240 
Channel: 10 Note ON:  F3 key: 53 velocity: 127
15263 
Channel: 10 Note ON:  F2 key: 41 velocity: 0
15347 
Channel: 10 Note ON:  F3 key: 53 velocity: 0
15360 
Channel: 10 Note ON:  A#3 key: 58 velocity: 127
15360 
Channel: 10 Note ON:  C#4 key: 61 velocity: 127
15378 
15379 
15465 
Channel: 10 Note ON:  C#4 key: 61 velocity: 0
15480 
Channel: 10 Note ON:  F#3 key: 54 velocity: 127
15487 
Channel: 10 Note ON:  A#3 key: 58 velocity: 0
15581 
Channel: 10 Note ON:  F#3 key: 54 velocity: 0
15600 
Channel: 10 Note ON:  A#3 key: 58 velocity: 127
15600 
Channel: 10 Note ON:  C#4 key: 61 velocity: 127
15701 
Channel: 10 Note ON:  C#4 key: 61 velocity: 0
15720 
Channel: 10 Note ON:  A#3 key: 58 velocity: 0
15720 
Channel: 10 Note ON:  F#3 key: 54 velocity: 127
15829 
Channel: 10 Note ON:  F#3 key: 54 velocity: 0
15840 
Channel: 10 Note ON:  C#4 key: 61 velocity: 127
15840 
Channel: 10 Note ON:  A#3 key: 58 velocity: 127
15928 
Channel: 10 Note ON:  C#4 key: 61 velocity: 0
15960 
Channel: 10 Note ON:  F#3 key: 54 velocity: 127
15960 
Channel: 10 Note ON:  C3 key: 48 velocity: 127
15961 
Channel: 10 Note ON:  A#3 key: 58 velocity: 0
15990 
Channel: 10 Note ON:  F#2 key: 42 velocity: 0
16018 
16018 
16080 
Channel: 10 Note ON:  A#3 key: 58 velocity: 127
16080 
Channel: 10 Note ON:  C#4 key: 61 velocity: 127
16080 
Channel: 10 Note ON:  C#3 key: 49 velocity: 127
16087 
Channel: 10 Note ON:  C3 key: 48 velocity: 0
16095 
Channel: 10 Note ON:  F#3 key: 54 velocity: 0
16104 
16105 
16199 
Channel: 10 Note ON:  C#4 key: 61 velocity: 0
16200 
Channel: 10 Note ON:  F#3 key: 54 velocity: 127
16202 
16202 
16212 
Channel: 10 Note ON:  A#3 key: 58 velocity: 0
16278 
Channel: 10 Note ON:  C#3 key: 49 velocity: 0
16293 
Channel: 10 Note ON:  F#3 key: 54 velocity: 0
16320 
Channel: 10 Note ON:  C#2 key: 37 velocity: 127
16320 
Channel: 10 Note ON:  C#4 key: 61 velocity: 127
16320 
Channel: 10 Note ON:  F4 key: 65 velocity: 127
16361 
16362 
16416 
Channel: 10 Note ON:  F4 key: 65 velocity: 0
16440 
Channel: 10 Note ON:  G#3 key: 56 velocity: 127
16447 
Channel: 10 Note ON:  C#4 key: 61 velocity: 0
16552 
Channel: 10 Note ON:  G#3 key: 56 velocity: 0
16560 
Channel: 10 Note ON:  F4 key: 65 velocity: 127
16560 
Channel: 10 Note ON:  C#4 key: 61 velocity: 127
16644 
Channel: 10 Note ON:  F4 key: 65 velocity: 0
16680 
Channel: 10 Note ON:  G#3 key: 56 velocity: 127
16689 
Channel: 10 Note ON:  C#4 key: 61 velocity: 0
16782 
Channel: 10 Note ON:  G#3 key: 56 velocity: 0
16800 
Channel: 10 Note ON:  F4 key: 65 velocity: 127
16800 
Channel: 10 Note ON:  C#4 key: 61 velocity: 127
16897 
Channel: 10 Note ON:  F4 key: 65 velocity: 0
16920 
Channel: 10 Note ON:  D#2 key: 39 velocity: 127
16920 
Channel: 10 Note ON:  G#3 key: 56 velocity: 127
16928 
Channel: 10 Note ON:  C#4 key: 61 velocity: 0
16949 
Channel: 10 Note ON:  C#2 key: 37 velocity: 0
17038 
17039 
17040 
Channel: 10 Note ON:  C#4 key: 61 velocity: 127
17040 
Channel: 10 Note ON:  F4 key: 65 velocity: 127
17040 
Channel: 10 Note ON:  F2 key: 41 velocity: 127
17048 
Channel: 10 Note ON:  D#2 key: 39 velocity: 0
17050 
Channel: 10 Note ON:  G#3 key: 56 velocity: 0
17150 
Channel: 10 Note ON:  F4 key: 65 velocity: 0
17152 
Channel: 10 Note ON:  F2 key: 41 velocity: 0
17153 
Channel: 10 Note ON:  C#4 key: 61 velocity: 0
17160 
Channel: 10 Note ON:  G#3 key: 56 velocity: 127
17160 
Channel: 10 Note ON:  G#2 key: 44 velocity: 127
17280 
Channel: 10 Note ON:  D#4 key: 63 velocity: 127
17280 
Channel: 10 Note ON:  C4 key: 60 velocity: 127
17298 
Channel: 10 Note ON:  G#3 key: 56 velocity: 0
17388 
Channel: 10 Note ON:  D#4 key: 63 velocity: 0
17400 
Channel: 10 Note ON:  G#3 key: 56 velocity: 127
17412 
Channel: 10 Note ON:  C4 key: 60 velocity: 0
17520 
Channel: 10 Note ON:  D#4 key: 63 velocity: 127
17520 
Channel: 10 Note ON:  C4 key: 60 velocity: 127
17520 
17521 
17528 
Channel: 10 Note ON:  G#3 key: 56 velocity: 0
17632 
Channel: 10 Note ON:  D#4 key: 63 velocity: 0
17640 
Channel: 10 Note ON:  C4 key: 60 velocity: 0
17640 
Channel: 10 Note ON:  G#3 key: 56 velocity: 127
17746 
Channel: 10 Note ON:  G#3 key: 56 velocity: 0
17760 
Channel: 10 Note ON:  D#4 key: 63 velocity: 127
17760 
Channel: 10 Note ON:  C4 key: 60 velocity: 127
17859 
Channel: 10 Note ON:  D#4 key: 63 velocity: 0
17880 
Channel: 10 Note ON:  G#3 key: 56 velocity: 127
17880 
Channel: 10 Note ON:  A#2 key: 46 velocity: 127
17882 
Channel: 10 Note ON:  C4 key: 60 velocity: 0
17893 
Channel: 10 Note ON:  G#2 key: 44 velocity: 0
17894 
17895 
17986 
Channel: 10 Note ON:  G#3 key: 56 velocity: 0
18000 
Channel: 10 Note ON:  C3 key: 48 velocity: 127
18000 
Channel: 10 Note ON:  D#4 key: 63 velocity: 127
18000 
Channel: 10 Note ON:  C4 key: 60 velocity: 127
18004 
Channel: 10 Note ON:  A#2 key: 46 velocity: 0
18019 
18020 
18092 
Channel: 10 Note ON:  D#4 key: 63 velocity: 0
18108 
Channel: 10 Note ON:  C3 key: 48 velocity: 0
18113 
Channel: 10 Note ON:  C4 key: 60 velocity: 0
18120 
Channel: 10 Note ON:  A#2 key: 46 velocity: 127
18120 
Channel: 10 Note ON:  G#3 key: 56 velocity: 127
18133 
18133 
18191 
Channel: 10 Note ON:  G#3 key: 56 velocity: 0
18240 
Channel: 10 Note ON:  C#4 key: 61 velocity: 127
18240 
Channel: 10 Note ON:  A#3 key: 58 velocity: 127
18284 
18285 
18326 
Channel: 10 Note ON:  C#4 key: 61 velocity: 0
18360 
Channel: 10 Note ON:  A#3 key: 58 velocity: 0
18360 
Channel: 10 Note ON:  F3 key: 53 velocity: 127
18445 
Channel: 10 Note ON:  F3 key: 53 velocity: 0
18480 
Channel: 10 Note ON:  C#4 key: 61 velocity: 127
18480 
Channel: 10 Note ON:  A#3 key: 58 velocity: 127
18568 
Channel: 10 Note ON:  C#4 key: 61 velocity: 0
18596 
Channel: 10 Note ON:  A#3 key: 58 velocity: 0
18600 
Channel: 10 Note ON:  F3 key: 53 velocity: 127
18689 
Channel: 10 Note ON:  F3 key: 53 velocity: 0
18720 
Channel: 10 Note ON:  C#4 key: 61 velocity: 127
18720 
Channel: 10 Note ON:  A#3 key: 58 velocity: 127
18802 
Channel: 10 Note ON:  C#4 key: 61 velocity: 0
18835 
Channel: 10 Note ON:  A#3 key: 58 velocity: 0
18840 
Channel: 10 Note ON:  C3 key: 48 velocity: 127
18840 
Channel: 10 Note ON:  F3 key: 53 velocity: 127
18917 
Channel: 10 Note ON:  F3 key: 53 velocity: 0
18934 
Channel: 10 Note ON:  A#2 key: 46 velocity: 0
18946 
Channel: 10 Note ON:  C3 key: 48 velocity: 0
18960 
Channel: 10 Note ON:  A#3 key: 58 velocity: 127
18960 
Channel: 10 Note ON:  C#4 key: 61 velocity: 127
18960 
Channel: 10 Note ON:  C#3 key: 49 velocity: 127
18962 
18962 
19041 
Channel: 10 Note ON:  C#4 key: 61 velocity: 0
19062 
Channel: 10 Note ON:  A#3 key: 58 velocity: 0
19080 
Channel: 10 Note ON:  F#3 key: 54 velocity: 127
19080 
Channel: 10 Note ON:  F#2 key: 42 velocity: 127
19091 
Channel: 10 Note ON:  C#3 key: 49 velocity: 0
19190 
Channel: 10 Note ON:  F#3 key: 54 velocity: 0
19200 
Channel: 10 Note ON:  A#3 key: 58 velocity: 127
19200 
Channel: 10 Note ON:  C#4 key: 61 velocity: 127
19211 
19212 
19298 
Channel: 10 Note ON:  C#4 key: 61 velocity: 0
19320 
Channel: 10 Note ON:  F#3 key: 54 velocity: 127
19322 
Channel: 10 Note ON:  A#3 key: 58 velocity: 0
19421 
Channel: 10 Note ON:  F#3 key: 54 velocity: 0
19440 
Channel: 10 Note ON:  C#4 key: 61 velocity: 127
19440 
Channel: 10 Note ON:  A#3 key: 58 velocity: 127
19534 
Channel: 10 Note ON:  C#4 key: 61 velocity: 0
19560 
Channel: 10 Note ON:  A#3 key: 58 velocity: 0
19560 
Channel: 10 Note ON:  F#3 key: 54 velocity: 127
19680 
Channel: 10 Note ON:  C#4 key: 61 velocity: 127
19680 
Channel: 10 Note ON:  A#3 key: 58 velocity: 127
19683 
Channel: 10 Note ON:  F#3 key: 54 velocity: 0
19789 
Channel: 10 Note ON:  C#4 key: 61 velocity: 0
19800 
Channel: 10 Note ON:  C3 key: 48 velocity: 127
19800 
Channel: 10 Note ON:  F#3 key: 54 velocity: 127
19826 
Channel: 10 Note ON:  A#3 key: 58 velocity: 0
19897 
Channel: 10 Note ON:  F#3 key: 54 velocity: 0
19920 
Channel: 10 Note ON:  C#3 key: 49 velocity: 127
19920 
Channel: 10 Note ON:  A#3 key: 58 velocity: 127
19920 
Channel: 10 Note ON:  C#4 key: 61 velocity: 127
19921 
Channel: 10 Note ON:  C3 key: 48 velocity: 0
19940 
Channel: 10 Note ON:  F#2 key: 42 velocity: 0
19990 
Channel: 10 Note ON:  A#3 key: 58 velocity: 0
20018 
Channel: 10 Note ON:  C#4 key: 61 velocity: 0
20040 
Channel: 10 Note ON:  F#3 key: 54 velocity: 127
20127 
20127 
20150 
Channel: 10 Note ON:  F#3 key: 54 velocity: 0
20160 
Channel: 10 Note ON:  C#2 key: 37 velocity: 127
20160 
Channel: 10 Note ON:  F4 key: 65 velocity: 127
20160 
Channel: 10 Note ON:  C#4 key: 61 velocity: 127
20163 
Channel: 10 Note ON:  C#3 key: 49 velocity: 0
20273 
20273 
20280 
Channel: 10 Note ON:  G#3 key: 56 velocity: 127
20287 
Channel: 10 Note ON:  F4 key: 65 velocity: 0
20302 
Channel: 10 Note ON:  C#4 key: 61 velocity: 0
20400 
Channel: 10 Note ON:  F4 key: 65 velocity: 127
20400 
Channel: 10 Note ON:  C#4 key: 61 velocity: 127
20402 
Channel: 10 Note ON:  G#3 key: 56 velocity: 0
20480 
Channel: 10 Note ON:  F4 key: 65 velocity: 0
20520 
Channel: 10 Note ON:  G#3 key: 56 velocity: 127
20528 
Channel: 10 Note ON:  C#4 key: 61 velocity: 0
20616 
Channel: 10 Note ON:  C#2 key: 37 velocity: 0
20632 
Channel: 10 Note ON:  G#3 key: 56 velocity: 0
20640 
Channel: 10 Note ON:  F4 key: 65 velocity: 127
20640 
Channel: 10 Note ON:  C#4 key: 61 velocity: 127
20640 
Channel: 10 Note ON:  C#2 key: 37 velocity: 127
20709 
Channel: 10 Note ON:  F4 key: 65 velocity: 0
20758 
Channel: 10 Note ON:  C#4 key: 61 velocity: 0
20760 
Channel: 10 Note ON:  D#2 key: 39 velocity: 127
20760 
Channel: 10 Note ON:  G#3 key: 56 velocity: 127
20769 
Channel: 10 Note ON:  C#2 key: 37 velocity: 0
20848 
20848 
20863 
Channel: 10 Note ON:  D#2 key: 39 velocity: 0
20876 
Channel: 10 Note ON:  G#3 key: 56 velocity: 0
20880 
Channel: 10 Note ON:  C#4 key: 61 velocity: 127
20880 
Channel: 10 Note ON:  F4 key: 65 velocity: 127
20880 
Channel: 10 Note ON:  F2 key: 41 velocity: 127
20992 
Channel: 10 Note ON:  F4 key: 65 velocity: 0
21000 
Channel: 10 Note ON:  G#3 key: 56 velocity: 127
21000 
Channel: 10 Note ON:  G#2 key: 44 velocity: 127
21005 
Channel: 10 Note ON:  C#4 key: 61 velocity: 0
21007 
Channel: 10 Note ON:  F2 key: 41 velocity: 0
21120 
Channel: 10 Note ON:  D#4 key: 63 velocity: 127
21120 
Channel: 10 Note ON:  C4 key: 60 velocity: 127
21132 
Channel: 10 Note ON:  G#3 key: 56 velocity: 0
21225 
Channel: 10 Note ON:  D#4 key: 63 velocity: 0
21227 
21227 
21240 
Channel: 10 Note ON:  G#3 key: 56 velocity: 127
21247 
Channel: 10 Note ON:  C4 key: 60 velocity: 0
21352 
Channel: 10 Note ON:  G#3 key: 56 velocity: 0
21360 
Channel: 10 Note ON:  D#4 key: 63 velocity: 127
21360 
Channel: 10 Note ON:  C4 key: 60 velocity: 127
21464 
Channel: 10 Note ON:  D#4 key: 63 velocity: 0
21473 
Channel: 10 Note ON:  C4 key: 60 velocity: 0
21480 
Channel: 10 Note ON:  G#3 key: 56 velocity: 127
21600 
Channel: 10 Note ON:  D#4 key: 63 velocity: 127
21600 
Channel: 10 Note ON:  C4 key: 60 velocity: 127
21609 
Channel: 10 Note ON:  G#3 key: 56 velocity: 0
21707 
Channel: 10 Note ON:  D#4 key: 63 velocity: 0
21720 
Channel: 10 Note ON:  C4 key: 60 velocity: 0
21720 
Channel: 10 Note ON:  G#3 key: 56 velocity: 127
21720 
Channel: 10 Note ON:  A#2 key: 46 velocity: 127
21740 
Channel: 10 Note ON:  G#2 key: 44 velocity: 0
21747 
21747 
21836 
Channel: 10 Note ON:  A#2 key: 46 velocity: 0
21838 
Channel: 10 Note ON:  G#3 key: 56 velocity: 0
21840 
Channel: 10 Note ON:  D#4 key: 63 velocity: 127
21840 
Channel: 10 Note ON:  C4 key: 60 velocity: 127
21840 
Channel: 10 Note ON:  C3 key: 48 velocity: 127
21844 
21845 
21953 
Channel: 10 Note ON:  D#4 key: 63 velocity: 0
21954 
Channel: 10 Note ON:  C4 key: 60 velocity: 0
21960 
Channel: 10 Note ON:  C3 key: 48 velocity: 0
21960 
Channel: 10 Note ON:  F2 key: 41 velocity: 127
21960 
Channel: 10 Note ON:  G#3 key: 56 velocity: 127
21969 
21969 
22036 
Channel: 10 Note ON:  G#3 key: 56 velocity: 0
22072 
22073 
22080 
Channel: 10 Note ON:  C4 key: 60 velocity: 127
22080 
Channel: 10 Note ON:  G#3 key: 56 velocity: 127
22176 
Channel: 10 Note ON:  C4 key: 60 velocity: 0
22187 
Channel: 10 Note ON:  G#3 key: 56 velocity: 0
22200 
Channel: 10 Note ON:  F3 key: 53 velocity: 127
22290 
Channel: 10 Note ON:  F3 key: 53 velocity: 0
22320 
Channel: 10 Note ON:  C4 key: 60 velocity: 127
22320 
Channel: 10 Note ON:  G#3 key: 56 velocity: 127
22428 
Channel: 10 Note ON:  C4 key: 60 velocity: 0
22440 
Channel: 10 Note ON:  F3 key: 53 velocity: 127
22452 
Channel: 10 Note ON:  G#3 key: 56 velocity: 0
22515 
Channel: 10 Note ON:  F2 key: 41 velocity: 0
22536 
Channel: 10 Note ON:  F3 key: 53 velocity: 0
22560 
Channel: 10 Note ON:  C4 key: 60 velocity: 127
22560 
Channel: 10 Note ON:  F2 key: 41 velocity: 127
22560 
Channel: 10 Note ON:  G#3 key: 56 velocity: 127
22645 
Channel: 10 Note ON:  C4 key: 60 velocity: 0
22668 
Channel: 10 Note ON:  F2 key: 41 velocity: 0
22680 
Channel: 10 Note ON:  C#3 key: 49 velocity: 127
22680 
Channel: 10 Note ON:  F3 key: 53 velocity: 127
22708 
Channel: 10 Note ON:  G#3 key: 56 velocity: 0
22767 
Channel: 10 Note ON:  F3 key: 53 velocity: 0
22793 
Channel: 10 Note ON:  C#3 key: 49 velocity: 0
22800 
Channel: 10 Note ON:  G#3 key: 56 velocity: 127
22800 
Channel: 10 Note ON:  C4 key: 60 velocity: 127
22800 
Channel: 10 Note ON:  F2 key: 41 velocity: 127
22825 
22825 
22910 
Channel: 10 Note ON:  C4 key: 60 velocity: 0
22910 
Channel: 10 Note ON:  G#3 key: 56 velocity: 0
22920 
Channel: 10 Note ON:  F#2 key: 42 velocity: 127
22920 
Channel: 10 Note ON:  F3 key: 53 velocity: 127
22943 
Channel: 10 Note ON:  F2 key: 41 velocity: 0
23027 
Channel: 10 Note ON:  F3 key: 53 velocity: 0
23040 
Channel: 10 Note ON:  A#3 key: 58 velocity: 127
23040 
Channel: 10 Note ON:  C#4 key: 61 velocity: 127
23058 
23059 
23145 
Channel: 10 Note ON:  C#4 key: 61 velocity: 0
23160 
Channel: 10 Note ON:  F#3 key: 54 velocity: 127
23167 
Channel: 10 Note ON:  A#3 key: 58 velocity: 0
23261 
Channel: 10 Note ON:  F#3 key: 54 velocity: 0
23280 
Channel: 10 Note ON:  A#3 key: 58 velocity: 127
23280 
Channel: 10 Note ON:  C#4 key: 61 velocity: 127
23381 
Channel: 10 Note ON:  C#4 key: 61 velocity: 0
23400 
Channel: 10 Note ON:  A#3 key: 58 velocity: 0
23400 
Channel: 10 Note ON:  F#3 key: 54 velocity: 127
23509 
Channel: 10 Note ON:  F#3 key: 54 velocity: 0
23520 
Channel: 10 Note ON:  C#4 key: 61 velocity: 127
23520 
Channel: 10 Note ON:  A#3 key: 58 velocity: 127
23608 
Channel: 10 Note ON:  C#4 key: 61 velocity: 0
23640 
Channel: 10 Note ON:  F#3 key: 54 velocity: 127
23640 
Channel: 10 Note ON:  C3 key: 48 velocity: 127
23641 
Channel: 10 Note ON:  A#3 key: 58 velocity: 0
23670 
Channel: 10 Note ON:  F#2 key: 42 velocity: 0
23698 
23698 
23760 
Channel: 10 Note ON:  A#3 key: 58 velocity: 127
23760 
Channel: 10 Note ON:  C#4 key: 61 velocity: 127
23760 
Channel: 10 Note ON:  C#3 key: 49 velocity: 127
23767 
Channel: 10 Note ON:  C3 key: 48 velocity: 0
23775 
Channel: 10 Note ON:  F#3 key: 54 velocity: 0
23784 
23785 
23879 
Channel: 10 Note ON:  C#4 key: 61 velocity: 0
23880 
Channel: 10 Note ON:  F#3 key: 54 velocity: 127
23882 
23882 
23892 
Channel: 10 Note ON:  A#3 key: 58 velocity: 0
23958 
Channel: 10 Note ON:  C#3 key: 49 velocity: 0
23973 
Channel: 10 Note ON:  F#3 key: 54 velocity: 0
24000 
Channel: 10 Note ON:  C#2 key: 37 velocity: 127
24000 
Channel: 10 Note ON:  C#4 key: 61 velocity: 127
24000 
Channel: 10 Note ON:  F4 key: 65 velocity: 127
24041 
24042 
24096 
Channel: 10 Note ON:  F4 key: 65 velocity: 0
24120 
Channel: 10 Note ON:  G#3 key: 56 velocity: 127
24127 
Channel: 10 Note ON:  C#4 key: 61 velocity: 0
24232 
Channel: 10 Note ON:  G#3 key: 56 velocity: 0
24240 
Channel: 10 Note ON:  F4 key: 65 velocity: 127
24240 
Channel: 10 Note ON:  C#4 key: 61 velocity: 127
24324 
Channel: 10 Note ON:  F4 key: 65 velocity: 0
24360 
Channel: 10 Note ON:  G#3 key: 56 velocity: 127
24369 
Channel: 10 Note ON:  C#4 key: 61 velocity: 0
24462 
Channel: 10 Note ON:  G#3 key: 56 velocity: 0
24480 
Channel: 10 Note ON:  F4 key: 65 velocity: 127
24480 
Channel: 10 Note ON:  C#4 key: 61 velocity: 127
24577 
Channel: 10 Note ON:  F4 key: 65 velocity: 0
24600 
Channel: 10 Note ON:  D#2 key: 39 velocity: 127
24600 
Channel: 10 Note ON:  G#3 key: 56 velocity: 127
24608 
Channel: 10 Note ON:  C#4 key: 61 velocity: 0
24629 
Channel: 10 Note ON:  C#2 key: 37 velocity: 0
24718 
24719 
24720 
Channel: 10 Note ON:  C#4 key: 61 velocity: 127
24720 
Channel: 10 Note ON:  F4 key: 65 velocity: 127
24720 
Channel: 10 Note ON:  F2 key: 41 velocity: 127
24728 
Channel: 10 Note ON:  D#2 key: 39 velocity: 0
24730 
Channel: 10 Note ON:  G#3 key: 56 velocity: 0
24830 
Channel: 10 Note ON:  F4 key: 65 velocity: 0
24832 
Channel: 10 Note ON:  F2 key: 41 velocity: 0
24833 
Channel: 10 Note ON:  C#4 key: 61 velocity: 0
24840 
Channel: 10 Note ON:  G#3 key: 56 velocity: 127
24840 
Channel: 10 Note ON:  G#2 key: 44 velocity: 127
24960 
Channel: 10 Note ON:  D#4 key: 63 velocity: 127
24960 
Channel: 10 Note ON:  C4 key: 60 velocity: 127
24978 
Channel: 10 Note ON:  G#3 key: 56 velocity: 0
25068 
Channel: 10 Note ON:  D#4 key: 63 velocity: 0
25080 
Channel: 10 Note ON:  G#3 key: 56 velocity: 127
25092 
Channel: 10 Note ON:  C4 key: 60 velocity: 0
25200 
Channel: 10 Note ON:  D#4 key: 63 velocity: 127
25200 
Channel: 10 Note ON:  C4 key: 60 velocity: 127
25200 
25201 
25208 
Channel: 10 Note ON:  G#3 key: 56 velocity: 0
25312 
Channel: 10 Note ON:  D#4 key: 63 velocity: 0
25320 
Channel: 10 Note ON:  C4 key: 60 velocity: 0
25320 
Channel: 10 Note ON:  G#3 key: 56 velocity: 127
25426 
Channel: 10 Note ON:  G#3 key: 56 velocity: 0
25440 
Channel: 10 Note ON:  D#4 key: 63 velocity: 127
25440 
Channel: 10 Note ON:  C4 key: 60 velocity: 127
25539 
Channel: 10 Note ON:  D#4 key: 63 velocity: 0
25560 
Channel: 10 Note ON:  G#3 key: 56 velocity: 127
25560 
Channel: 10 Note ON:  A#2 key: 46 velocity: 127
25562 
Channel: 10 Note ON:  C4 key: 60 velocity: 0
25573 
Channel: 10 Note ON:  G#2 key: 44 velocity: 0
25574 
25575 
25666 
Channel: 10 Note ON:  G#3 key: 56 velocity: 0
25680 
Channel: 10 Note ON:  C3 key: 48 velocity: 127
25680 
Channel: 10 Note ON:  D#4 key: 63 velocity: 127
25680 
Channel: 10 Note ON:  C4 key: 60 velocity: 127
25684 
Channel: 10 Note ON:  A#2 key: 46 velocity: 0
25699 
25700 
25772 
Channel: 10 Note ON:  D#4 key: 63 velocity: 0
25788 
Channel: 10 Note ON:  C3 key: 48 velocity: 0
25793 
Channel: 10 Note ON:  C4 key: 60 velocity: 0
25800 
Channel: 10 Note ON:  A#2 key: 46 velocity: 127
25800 
Channel: 10 Note ON:  G#3 key: 56 velocity: 127
25813 
25813 
25871 
Channel: 10 Note ON:  G#3 key: 56 velocity: 0
25920 
Channel: 10 Note ON:  C#4 key: 61 velocity: 127
25920 
Channel: 10 Note ON:  A#3 key: 58 velocity: 127
25964 
25965 
26006 
Channel: 10 Note ON:  C#4 key: 61 velocity: 0
26040 
Channel: 10 Note ON:  A#3 key: 58 velocity: 0
26040 
Channel: 10 Note ON:  F3 key: 53 velocity: 127
26125 
Channel: 10 Note ON:  F3 key: 53 velocity: 0
26160 
Channel: 10 Note ON:  C#4 key: 61 velocity: 127
26160 
Channel: 10 Note ON:  A#3 key: 58 velocity: 127
26248 
Channel: 10 Note ON:  C#4 key: 61 velocity: 0
26276 
Channel: 10 Note ON:  A#3 key: 58 velocity: 0
26280 
Channel: 10 Note ON:  F3 key: 53 velocity: 127
26369 
Channel: 10 Note ON:  F3 key: 53 velocity: 0
26400 
Channel: 10 Note ON:  C#4 key: 61 velocity: 127
26400 
Channel: 10 Note ON:  A#3 key: 58 velocity: 127
26482 
Channel: 10 Note ON:  C#4 key: 61 velocity: 0
26515 
Channel: 10 Note ON:  A#3 key: 58 velocity: 0
26520 
Channel: 10 Note ON:  C3 key: 48 velocity: 127
26520 
Channel: 10 Note ON:  F3 key: 53 velocity: 127
26597 
Channel: 10 Note ON:  F3 key: 53 velocity: 0
26614 
Channel: 10 Note ON:  A#2 key: 46 velocity: 0
26626 
Channel: 10 Note ON:  C3 key: 48 velocity: 0
26640 
Channel: 10 Note ON:  A#3 key: 58 velocity: 127
26640 
Channel: 10 Note ON:  C#4 key: 61 velocity: 127
26640 
Channel: 10 Note ON:  C#3 key: 49 velocity: 127
26642 
26642 
26721 
Channel: 10 Note ON:  C#4 key: 61 velocity: 0
26742 
Channel: 10 Note ON:  A#3 key: 58 velocity: 0
26760 
Channel: 10 Note ON:  F#3 key: 54 velocity: 127
26760 
Channel: 10 Note ON:  F#2 key: 42 velocity: 127
26771 
Channel: 10 Note ON:  C#3 key: 49 velocity: 0
26870 
Channel: 10 Note ON:  F#3 key: 54 velocity: 0
26880 
Channel: 10 Note ON:  A#3 key: 58 velocity: 127
26880 
Channel: 10 Note ON:  C#4 key: 61 velocity: 127
26891 
26892 
26978 
Channel: 10 Note ON:  C#4 key: 61 velocity: 0
27000 
Channel: 10 Note ON:  F#3 key: 54 velocity: 127
27002 
Channel: 10 Note ON:  A#3 key: 58 velocity: 0
27101 
Channel: 10 Note ON:  F#3 key: 54 velocity: 0
27120 
Channel: 10 Note ON:  C#4 key: 61 velocity: 127
27120 
Channel: 10 Note ON:  A#3 key: 58 velocity: 127
27214 
Channel: 10 Note ON:  C#4 key: 61 velocity: 0
27240 
Channel: 10 Note ON:  A#3 key: 58 velocity: 0
27240 
Channel: 10 Note ON:  F#3 key: 54 velocity: 127
27360 
Channel: 10 Note ON:  C#4 key: 61 velocity: 127
27360 
Channel: 10 Note ON:  A#3 key: 58 velocity: 127
27363 
Channel: 10 Note ON:  F#3 key: 54 velocity: 0
27469 
Channel: 10 Note ON:  C#4 key: 61 velocity: 0
27480 
Channel: 10 Note ON:  C3 key: 48 velocity: 127
27480 
Channel: 10 Note ON:  F#3 key: 54 velocity: 127
27506 
Channel: 10 Note ON:  A#3 key: 58 velocity: 0
27577 
Channel: 10 Note ON:  F#3 key: 54 velocity: 0
27600 
Channel: 10 Note ON:  C#3 key: 49 velocity: 127
27600 
Channel: 10 Note ON:  A#3 key: 58 velocity: 127
27600 
Channel: 10 Note ON:  C#4 key: 61 velocity: 127
27601 
Channel: 10 Note ON:  C3 key: 48 velocity: 0
27620 
Channel: 10 Note ON:  F#2 key: 42 velocity: 0
27670 
Channel: 10 Note ON:  A#3 key: 58 velocity: 0
27698 
Channel: 10 Note ON:  C#4 key: 61 velocity: 0
27720 
Channel: 10 Note ON:  F#3 key: 54 velocity: 127
27807 
27807 
27830 
Channel: 10 Note ON:  F#3 key: 54 velocity: 0
27840 
Channel: 10 Note ON:  C#2 key: 37 velocity: 127
27840 
Channel: 10 Note ON:  F4 key: 65 velocity: 127
27840 
Channel: 10 Note ON:  C#4 key: 61 velocity: 127
27843 
Channel: 10 Note ON:  C#3 key: 49 velocity: 0
27953 
27953 
27960 
Channel: 10 Note ON:  G#3 key: 56 velocity: 127
27967 
Channel: 10 Note ON:  F4 key: 65 velocity: 0
27982 
Channel: 10 Note ON:  C#4 key: 61 velocity: 0
28080 
Channel: 10 Note ON:  F4 key: 65 velocity: 127
28080 
Channel: 10 Note ON:  C#4 key: 61 velocity: 127
28082 
Channel: 10 Note ON:  G#3 key: 56 velocity: 0
28160 
Channel: 10 Note ON:  F4 key: 65 velocity: 0
28200 
Channel: 10 Note ON:  G#3 key: 56 velocity: 127
28208 
Channel: 10 Note ON:  C#4 key: 61 velocity: 0
28296 
Channel: 10 Note ON:  C#2 key: 37 velocity: 0
28312 
Channel: 10 Note ON:  G#3 key: 56 velocity: 0
28320 
Channel: 10 Note ON:  F4 key: 65 velocity: 127
28320 
Channel: 10 Note ON:  C#4 key: 61 velocity: 127
28320 
Channel: 10 Note ON:  C#2 key: 37 velocity: 127
28389 
Channel: 10 Note ON:  F4 key: 65 velocity: 0
28438 
Channel: 10 Note ON:  C#4 key: 61 velocity: 0
28440 
Channel: 10 Note ON:  D#2 key: 39 velocity: 127
28440 
Channel: 10 Note ON:  G#3 key: 56 velocity: 127
28449 
Channel: 10 Note ON:  C#2 key: 37 velocity: 0
28528 
28528 
28543 
Channel: 10 Note ON:  D#2 key: 39 velocity: 0
28556 
Channel: 10 Note ON:  G#3 key: 56 velocity: 0
28560 
Channel: 10 Note ON:  C#4 key: 61 velocity: 127
28560 
Channel: 10 Note ON:  F4 key: 65 velocity: 127
28560 
Channel: 10 Note ON:  F2 key: 41 velocity: 127
28672 
Channel: 10 Note ON:  F4 key: 65 velocity: 0
28680 
Channel: 10 Note ON:  G#3 key: 56 velocity: 127
28680 
Channel: 10 Note ON:  G#2 key: 44 velocity: 127
28685 
Channel: 10 Note ON:  C#4 key: 61 velocity: 0
28687 
Channel: 10 Note ON:  F2 key: 41 velocity: 0
28800 
Channel: 10 Note ON:  D#4 key: 63 velocity: 127
28800 
Channel: 10 Note ON:  C4 key: 60 velocity: 127
28812 
Channel: 10 Note ON:  G#3 key: 56 velocity: 0
28905 
Channel: 10 Note ON:  D#4 key: 63 velocity: 0
28907 
28907 
28920 
Channel: 10 Note ON:  G#3 key: 56 velocity: 127
28927 
Channel: 10 Note ON:  C4 key: 60 velocity: 0
29032 
Channel: 10 Note ON:  G#3 key: 56 velocity: 0
29040 
Channel: 10 Note ON:  D#4 key: 63 velocity: 127
29040 
Channel: 10 Note ON:  C4 key: 60 velocity: 127
29144 
Channel: 10 Note ON:  D#4 key: 63 velocity: 0
29153 
Channel: 10 Note ON:  C4 key: 60 velocity: 0
29160 
Channel: 10 Note ON:  G#3 key: 56 velocity: 127
29280 
Channel: 10 Note ON:  D#4 key: 63 velocity: 127
29280 
Channel: 10 Note ON:  C4 key: 60 velocity: 127
29289 
Channel: 10 Note ON:  G#3 key: 56 velocity: 0
29387 
Channel: 10 Note ON:  D#4 key: 63 velocity: 0
29400 
Channel: 10 Note ON:  C4 key: 60 velocity: 0
29400 
Channel: 10 Note ON:  G#3 key: 56 velocity: 127
29400 
Channel: 10 Note ON:  A#2 key: 46 velocity: 127
29420 
Channel: 10 Note ON:  G#2 key: 44 velocity: 0
29427 
29427 
29516 
Channel: 10 Note ON:  A#2 key: 46 velocity: 0
29518 
Channel: 10 Note ON:  G#3 key: 56 velocity: 0
29520 
Channel: 10 Note ON:  D#4 key: 63 velocity: 127
29520 
Channel: 10 Note ON:  C4 key: 60 velocity: 127
29520 
Channel: 10 Note ON:  C3 key: 48 velocity: 127
29524 
29525 
29633 
Channel: 10 Note ON:  D#4 key: 63 velocity: 0
29634 
Channel: 10 Note ON:  C4 key: 60 velocity: 0
29640 
Channel: 10 Note ON:  C3 key: 48 velocity: 0
29640 
Channel: 10 Note ON:  F2 key: 41 velocity: 127
29640 
Channel: 10 Note ON:  G#3 key: 56 velocity: 127
29649 
29649 
29716 
Channel: 10 Note ON:  G#3 key: 56 velocity: 0
29752 
29753 
29760 
Channel: 10 Note ON:  C4 key: 60 velocity: 127
29760 
Channel: 10 Note ON:  G#3 key: 56 velocity: 127
29856 
Channel: 10 Note ON:  C4 key: 60 velocity: 0
29867 
Channel: 10 Note ON:  G#3 key: 56 velocity: 0
29880 
Channel: 10 Note ON:  F3 key: 53 velocity: 127
29970 
Channel: 10 Note ON:  F3 key: 53 velocity: 0
30000 
Channel: 10 Note ON:  C4 key: 60 velocity: 127
30000 
Channel: 10 Note ON:  G#3 key: 56 velocity: 127
30108 
Channel: 10 Note ON:  C4 key: 60 velocity: 0
30120 
Channel: 10 Note ON:  F3 key: 53 velocity: 127
30132 
Channel: 10 Note ON:  G#3 key: 56 velocity: 0
30195 
Channel: 10 Note ON:  F2 key: 41 velocity: 0
30216 
Channel: 10 Note ON:  F3 key: 53 velocity: 0
30240 
Channel: 10 Note ON:  C4 key: 60 velocity: 127
30240 
Channel: 10 Note ON:  F2 key: 41 velocity: 127
30240 
Channel: 10 Note ON:  G#3 key: 56 velocity: 127
30325 
Channel: 10 Note ON:  C4 key: 60 velocity: 0
30348 
Channel: 10 Note ON:  F2 key: 41 velocity: 0
30360 
Channel: 10 Note ON:  C#3 key: 49 velocity: 127
30360 
Channel: 10 Note ON:  F3 key: 53 velocity: 127
30388 
Channel: 10 Note ON:  G#3 key: 56 velocity: 0
30447 
Channel: 10 Note ON:  F3 key: 53 velocity: 0
30473 
Channel: 10 Note ON:  C#3 key: 49 velocity: 0
30480 
Channel: 10 Note ON:  G#3 key: 56 velocity: 127
30480 
Channel: 10 Note ON:  C4 key: 60 velocity: 127
30480 
Channel: 10 Note ON:  F2 key: 41 velocity: 127
30505 
30505 
30590 
Channel: 10 Note ON:  C4 key: 60 velocity: 0
30590 
Channel: 10 Note ON:  G#3 key: 56 velocity: 0
30600 
Channel: 10 Note ON:  F#2 key: 42 velocity: 127
30600 
Channel: 10 Note ON:  F3 key: 53 velocity: 127
30623 
Channel: 10 Note ON:  F2 key: 41 velocity: 0
30707 
Channel: 10 Note ON:  F3 key: 53 velocity: 0
30720 
Channel: 10 Note ON:  A#3 key: 58 velocity: 127
30720 
Channel: 10 Note ON:  C#4 key: 61 velocity: 127
30738 
30739 
30825 
Channel: 10 Note ON:  C#4 key: 61 velocity: 0
30840 
Channel: 10 Note ON:  F#3 key: 54 velocity: 127
30847 
Channel: 10 Note ON:  A#3 key: 58 velocity: 0
30941 
Channel: 10 Note ON:  F#3 key: 54 velocity: 0
30960 
Channel: 10 Note ON:  A#3 key: 58 velocity: 127
30960 
Channel: 10 Note ON:  C#4 key: 61 velocity: 127
31061 
Channel: 10 Note ON:  C#4 key: 61 velocity: 0
31080 
Channel: 10 Note ON:  A#3 key: 58 velocity: 0
31080 
Channel: 10 Note ON:  F#3 key: 54 velocity: 127
31189 
Channel: 10 Note ON:  F#3 key: 54 velocity: 0
31200 
Channel: 10 Note ON:  C#4 key: 61 velocity: 127
31200 
Channel: 10 Note ON:  A#3 key: 58 velocity: 127
31288 
Channel: 10 Note ON:  C#4 key: 61 velocity: 0
31320 
Channel: 10 Note ON:  F#3 key: 54 velocity: 127
31320 
Channel: 10 Note ON:  C3 key: 48 velocity: 127
31321 
Channel: 10 Note ON:  A#3 key: 58 velocity: 0
31350 
Channel: 10 Note ON:  F#2 key: 42 velocity: 0
31378 
31378 
31440 
Channel: 10 Note ON:  A#3 key: 58 velocity: 127
31440 
Channel: 10 Note ON:  C#4 key: 61 velocity: 127
31440 
Channel: 10 Note ON:  C#3 key: 49 velocity: 127
31447 
Channel: 10 Note ON:  C3 key: 48 velocity: 0
31455 
Channel: 10 Note ON:  F#3 key: 54 velocity: 0
31464 
31465 
31559 
Channel: 10 Note ON:  C#4 key: 61 velocity: 0
31560 
Channel: 10 Note ON:  F#3 key: 54 velocity: 127
31562 
31562 
31572 
Channel: 10 Note ON:  A#3 key: 58 velocity: 0
31638 
Channel: 10 Note ON:  C#3 key: 49 velocity: 0
31653 
Channel: 10 Note ON:  F#3 key: 54 velocity: 0
31680 
Channel: 10 Note ON:  C#2 key: 37 velocity: 127
31680 
Channel: 10 Note ON:  C#4 key: 61 velocity: 127
31680 
Channel: 10 Note ON:  F4 key: 65 velocity: 127
31721 
31722 
31776 
Channel: 10 Note ON:  F4 key: 65 velocity: 0
31800 
Channel: 10 Note ON:  G#3 key: 56 velocity: 127
31807 
Channel: 10 Note ON:  C#4 key: 61 velocity: 0
31912 
Channel: 10 Note ON:  G#3 key: 56 velocity: 0
31920 
Channel: 10 Note ON:  F4 key: 65 velocity: 127
31920 
Channel: 10 Note ON:  C#4 key: 61 velocity: 127
32004 
Channel: 10 Note ON:  F4 key: 65 velocity: 0
32040 
Channel: 10 Note ON:  G#3 key: 56 velocity: 127
32049 
Channel: 10 Note ON:  C#4 key: 61 velocity: 0
32142 
Channel: 10 Note ON:  G#3 key: 56 velocity: 0
32160 
Channel: 10 Note ON:  F4 key: 65 velocity: 127
32160 
Channel: 10 Note ON:  C#4 key: 61 velocity: 127
32257 
Channel: 10 Note ON:  F4 key: 65 velocity: 0
32280 
Channel: 10 Note ON:  D#2 key: 39 velocity: 127
32280 
Channel: 10 Note ON:  G#3 key: 56 velocity: 127
32288 
Channel: 10 Note ON:  C#4 key: 61 velocity: 0
32309 
Channel: 10 Note ON:  C#2 key: 37 velocity: 0
32398 
32399 
32400 
Channel: 10 Note ON:  C#4 key: 61 velocity: 127
32400 
Channel: 10 Note ON:  F4 key: 65 velocity: 127
32400 
Channel: 10 Note ON:  F2 key: 41 velocity: 127
32408 
Channel: 10 Note ON:  D#2 key: 39 velocity: 0
32410 
Channel: 10 Note ON:  G#3 key: 56 velocity: 0
32510 
Channel: 10 Note ON:  F4 key: 65 velocity: 0
32512 
Channel: 10 Note ON:  F2 key: 41 velocity: 0
32513 
Channel: 10 Note ON:  C#4 key: 61 velocity: 0
32520 
Channel: 10 Note ON:  G#3 key: 56 velocity: 127
32520 
Channel: 10 Note ON:  G#2 key: 44 velocity: 127
32640 
Channel: 10 Note ON:  D#4 key: 63 velocity: 127
32640 
Channel: 10 Note ON:  C4 key: 60 velocity: 127
32658 
Channel: 10 Note ON:  G#3 key: 56 velocity: 0
32748 
Channel: 10 Note ON:  D#4 key: 63 velocity: 0
32760 
Channel: 10 Note ON:  G#3 key: 56 velocity: 127
32772 
Channel: 10 Note ON:  C4 key: 60 velocity: 0
32880 
Channel: 10 Note ON:  D#4 key: 63 velocity: 127
32880 
Channel: 10 Note ON:  C4 key: 60 velocity: 127
32880 
32881 
32888 
Channel: 10 Note ON:  G#3 key: 56 velocity: 0
32992 
Channel: 10 Note ON:  D#4 key: 63 velocity: 0
33000 
Channel: 10 Note ON:  C4 key: 60 velocity: 0
33000 
Channel: 10 Note ON:  G#3 key: 56 velocity: 127
33106 
Channel: 10 Note ON:  G#3 key: 56 velocity: 0
33120 
Channel: 10 Note ON:  D#4 key: 63 velocity: 127
33120 
Channel: 10 Note ON:  C4 key: 60 velocity: 127
33219 
Channel: 10 Note ON:  D#4 key: 63 velocity: 0
33240 
Channel: 10 Note ON:  G#3 key: 56 velocity: 127
33240 
Channel: 10 Note ON:  A#2 key: 46 velocity: 127
33242 
Channel: 10 Note ON:  C4 key: 60 velocity: 0
33253 
Channel: 10 Note ON:  G#2 key: 44 velocity: 0
33254 
33255 
33346 
Channel: 10 Note ON:  G#3 key: 56 velocity: 0
33360 
Channel: 10 Note ON:  C3 key: 48 velocity: 127
33360 
Channel: 10 Note ON:  D#4 key: 63 velocity: 127
33360 
Channel: 10 Note ON:  C4 key: 60 velocity: 127
33364 
Channel: 10 Note ON:  A#2 key: 46 velocity: 0
33379 
33380 
33452 
Channel: 10 Note ON:  D#4 key: 63 velocity: 0
33468 
Channel: 10 Note ON:  C3 key: 48 velocity: 0
33473 
Channel: 10 Note ON:  C4 key: 60 velocity: 0
33480 
Channel: 10 Note ON:  A#2 key: 46 velocity: 127
33480 
Channel: 10 Note ON:  G#3 key: 56 velocity: 127
33493 
33493 
33551 
Channel: 10 Note ON:  G#3 key: 56 velocity: 0
33600 
Channel: 10 Note ON:  C#4 key: 61 velocity: 127
33600 
Channel: 10 Note ON:  A#3 key: 58 velocity: 127
33644 
33645 
33686 
Channel: 10 Note ON:  C#4 key: 61 velocity: 0
33720 
Channel: 10 Note ON:  A#3 key: 58 velocity: 0
33720 
Channel: 10 Note ON:  F3 key: 53 velocity: 127
33805 
Channel: 10 Note ON:  F3 key: 53 velocity: 0
33840 
Channel: 10 Note ON:  C#4 key: 61 velocity: 127
33840 
Channel: 10 Note ON:  A#3 key: 58 velocity: 127
33928 
Channel: 10 Note ON:  C#4 key: 61 velocity: 0
33956 
Channel: 10 Note ON:  A#3 key: 58 velocity: 0
33960 
Channel: 10 Note ON:  F3 key: 53 velocity: 127
34049 
Channel: 10 Note ON:  F3 key: 53 velocity: 0
34080 
Channel: 10 Note ON:  C#4 key: 61 velocity: 127
34080 
Channel: 10 Note ON:  A#3 key: 58 velocity: 127
34162 
Channel: 10 Note ON:  C#4 key: 61 velocity: 0
34195 
Channel: 10 Note ON:  A#3 key: 58 velocity: 0
34200 
Channel: 10 Note ON:  C3 key: 48 velocity: 127
34200 
Channel: 10 Note ON:  F3 key: 53 velocity: 127
34277 
Channel: 10 Note ON:  F3 key: 53 velocity: 0
34294 
Channel: 10 Note ON:  A#2 key: 46 velocity: 0
34306 
Channel: 10 Note ON:  C3 key: 48 velocity: 0
34320 
Channel: 10 Note ON:  A#3 key: 58 velocity: 127
34320 
Channel: 10 Note ON:  C#4 key: 61 velocity: 127
34320 
Channel: 10 Note ON:  C#3 key: 49 velocity: 127
34322 
34322 
34401 
Channel: 10 Note ON:  C#4 key: 61 velocity: 0
34422 
Channel: 10 Note ON:  A#3 key: 58 velocity: 0
34440 
Channel: 10 Note ON:  F#3 key: 54 velocity: 127
34440 
Channel: 10 Note ON:  F#2 key: 42 velocity: 127
34451 
Channel: 10 Note ON:  C#3 key: 49 velocity: 0
34550 
Channel: 10 Note ON:  F#3 key: 54 velocity: 0
34560 
Channel: 10 Note ON:  A#3 key: 58 velocity: 127
34560 
Channel: 10 Note ON:  C#4 key: 61 velocity: 127
34571 
34572 
34658 
Channel: 10 Note ON:  C#4 key: 61 velocity: 0
34680 
Channel: 10 Note ON:  F#3 key: 54 velocity: 127
34682 
Channel: 10 Note ON:  A#3 key: 58 velocity: 0
34781 
Channel: 10 Note ON:  F#3 key: 54 velocity: 0
34800 
Channel: 10 Note ON:  C#4 key: 61 velocity: 127
34800 
Channel: 10 Note ON:  A#3 key: 58 velocity: 127
34894 
Channel: 10 Note ON:  C#4 key: 61 velocity: 0
34920 
Channel: 10 Note ON:  A#3 key: 58 velocity: 0
34920 
Channel: 10 Note ON:  F#3 key: 54 velocity: 127
35040 
Channel: 10 Note ON:  C#4 key: 61 velocity: 127
35040 
Channel: 10 Note ON:  A#3 key: 58 velocity: 127
35043 
Channel: 10 Note ON:  F#3 key: 54 velocity: 0
35149 
Channel: 10 Note ON:  C#4 key: 61 velocity: 0
35160 
Channel: 10 Note ON:  C3 key: 48 velocity: 127
35160 
Channel: 10 Note ON:  F#3 key: 54 velocity: 127
35186 
Channel: 10 Note ON:  A#3 key: 58 velocity: 0
35257 
Channel: 10 Note ON:  F#3 key: 54 velocity: 0
35280 
Channel: 10 Note ON:  C#3 key: 49 velocity: 127
35280 
Channel: 10 Note ON:  A#3 key: 58 velocity: 127
35280 
Channel: 10 Note ON:  C#4 key: 61 velocity: 127
35281 
Channel: 10 Note ON:  C3 key: 48 velocity: 0
35300 
Channel: 10 Note ON:  F#2 key: 42 velocity: 0
35350 
Channel: 10 Note ON:  A#3 key: 58 velocity: 0
35378 
Channel: 10 Note ON:  C#4 key: 61 velocity: 0
35400 
Channel: 10 Note ON:  F#3 key: 54 velocity: 127
35487 
35487 
35510 
Channel: 10 Note ON:  F#3 key: 54 velocity: 0
35520 
Channel: 10 Note ON:  C#2 key: 37 velocity: 127
35520 
Channel: 10 Note ON:  F4 key: 65 velocity: 127
35520 
Channel: 10 Note ON:  C#4 key: 61 velocity: 127
35523 
Channel: 10 Note ON:  C#3 key: 49 velocity: 0
35633 
35633 
35640 
Channel: 10 Note ON:  G#3 key: 56 velocity: 127
35647 
Channel: 10 Note ON:  F4 key: 65 velocity: 0
35662 
Channel: 10 Note ON:  C#4 key: 61 velocity: 0
35760 
Channel: 10 Note ON:  F4 key: 65 velocity: 127
35760 
Channel: 10 Note ON:  C#4 key: 61 velocity: 127
35762 
Channel: 10 Note ON:  G#3 key: 56 velocity: 0
35840 
Channel: 10 Note ON:  F4 key: 65 velocity: 0
35880 
Channel: 10 Note ON:  G#3 key: 56 velocity: 127
35888 
Channel: 10 Note ON:  C#4 key: 61 velocity: 0
35976 
Channel: 10 Note ON:  C#2 key: 37 velocity: 0
35992 
Channel: 10 Note ON:  G#3 key: 56 velocity: 0
36000 
Channel: 10 Note ON:  F4 key: 65 velocity: 127
36000 
Channel: 10 Note ON:  C#4 key: 61 velocity: 127
36000 
Channel: 10 Note ON:  C#2 key: 37 velocity: 127
36069 
Channel: 10 Note ON:  F4 key: 65 velocity: 0
36118 
Channel: 10 Note ON:  C#4 key: 61 velocity: 0
36120 
Channel: 10 Note ON:  D#2 key: 39 velocity: 127
36120 
Channel: 10 Note ON:  G#3 key: 56 velocity: 127
36129 
Channel: 10 Note ON:  C#2 key: 37 velocity: 0
36208 
36208 
36223 
Channel: 10 Note ON:  D#2 key: 39 velocity: 0
36236 
Channel: 10 Note ON:  G#3 key: 56 velocity: 0
36240 
Channel: 10 Note ON:  C#4 key: 61 velocity: 127
36240 
Channel: 10 Note ON:  F4 key: 65 velocity: 127
36240 
Channel: 10 Note ON:  F2 key: 41 velocity: 127
36352 
Channel: 10 Note ON:  F4 key: 65 velocity: 0
36360 
Channel: 10 Note ON:  G#3 key: 56 velocity: 127
36360 
Channel: 10 Note ON:  G#2 key: 44 velocity: 127
36365 
Channel: 10 Note ON:  C#4 key: 61 velocity: 0
36367 
Channel: 10 Note ON:  F2 key: 41 velocity: 0
36480 
Channel: 10 Note ON:  D#4 key: 63 velocity: 127
36480 
Channel: 10 Note ON:  C4 key: 60 velocity: 127
36492 
Channel: 10 Note ON:  G#3 key: 56 velocity: 0
36585 
Channel: 10 Note ON:  D#4 key: 63 velocity: 0
36587 
36587 
36600 
Channel: 10 Note ON:  G#3 key: 56 velocity: 127
36607 
Channel: 10 Note ON:  C4 key: 60 velocity: 0
36712 
Channel: 10 Note ON:  G#3 key: 56 velocity: 0
36720 
Channel: 10 Note ON:  D#4 key: 63 velocity: 127
36720 
Channel: 10 Note ON:  C4 key: 60 velocity: 127
36824 
Channel: 10 Note ON:  D#4 key: 63 velocity: 0
36833 
Channel: 10 Note ON:  C4 key: 60 velocity: 0
36840 
Channel: 10 Note ON:  G#3 key: 56 velocity: 127
36960 
Channel: 10 Note ON:  D#4 key: 63 velocity: 127
36960 
Channel: 10 Note ON:  C4 key: 60 velocity: 127
36969 
Channel: 10 Note ON:  G#3 key: 56 velocity: 0
37067 
Channel: 10 Note ON:  D#4 key: 63 velocity: 0
37080 
Channel: 10 Note ON:  C4 key: 60 velocity: 0
37080 
Channel: 10 Note ON:  G#3 key: 56 velocity: 127
37080 
Channel: 10 Note ON:  A#2 key: 46 velocity: 127
37100 
Channel: 10 Note ON:  G#2 key: 44 velocity: 0
37107 
37107 
37196 
Channel: 10 Note ON:  A#2 key: 46 velocity: 0
37198 
Channel: 10 Note ON:  G#3 key: 56 velocity: 0
37200 
Channel: 10 Note ON:  D#4 key: 63 velocity: 127
37200 
Channel: 10 Note ON:  C4 key: 60 velocity: 127
37200 
Channel: 10 Note ON:  C3 key: 48 velocity: 127
37204 
37205 
37313 
Channel: 10 Note ON:  D#4 key: 63 velocity: 0
37314 
Channel: 10 Note ON:  C4 key: 60 velocity: 0
37320 
Channel: 10 Note ON:  C3 key: 48 velocity: 0
37320 
Channel: 10 Note ON:  F2 key: 41 velocity: 127
37320 
Channel: 10 Note ON:  G#3 key: 56 velocity: 127
37329 
37329 
37396 
Channel: 10 Note ON:  G#3 key: 56 velocity: 0
37432 
37433 
37440 
Channel: 10 Note ON:  C4 key: 60 velocity: 127
37440 
Channel: 10 Note ON:  G#3 key: 56 velocity: 127
37536 
Channel: 10 Note ON:  C4 key: 60 velocity: 0
37547 
Channel: 10 Note ON:  G#3 key: 56 velocity: 0
37560 
Channel: 10 Note ON:  F3 key: 53 velocity: 127
37650 
Channel: 10 Note ON:  F3 key: 53 velocity: 0
37680 
Channel: 10 Note ON:  C4 key: 60 velocity: 127
37680 
Channel: 10 Note ON:  G#3 key: 56 velocity: 127
37788 
Channel: 10 Note ON:  C4 key: 60 velocity: 0
37800 
Channel: 10 Note ON:  F3 key: 53 velocity: 127
37812 
Channel: 10 Note ON:  G#3 key: 56 velocity: 0
37875 
Channel: 10 Note ON:  F2 key: 41 velocity: 0
37896 
Channel: 10 Note ON:  F3 key: 53 velocity: 0
37920 
Channel: 10 Note ON:  C4 key: 60 velocity: 127
37920 
Channel: 10 Note ON:  F2 key: 41 velocity: 127
37920 
Channel: 10 Note ON:  G#3 key: 56 velocity: 127
38005 
Channel: 10 Note ON:  C4 key: 60 velocity: 0
38028 
Channel: 10 Note ON:  F2 key: 41 velocity: 0
38040 
Channel: 10 Note ON:  C#3 key: 49 velocity: 127
38040 
Channel: 10 Note ON:  F3 key: 53 velocity: 127
38068 
Channel: 10 Note ON:  G#3 key: 56 velocity: 0
38127 
Channel: 10 Note ON:  F3 key: 53 velocity: 0
38153 
Channel: 10 Note ON:  C#3 key: 49 velocity: 0
38160 
Channel: 10 Note ON:  G#3 key: 56 velocity: 127
38160 
Channel: 10 Note ON:  C4 key: 60 velocity: 127
38160 
Channel: 10 Note ON:  F2 key: 41 velocity: 127
38185 
38185 
38270 
Channel: 10 Note ON:  C4 key: 60 velocity: 0
38270 
Channel: 10 Note ON:  G#3 key: 56 velocity: 0
38280 
Channel: 10 Note ON:  F#2 key: 42 velocity: 127
38280 
Channel: 10 Note ON:  F3 key: 53 velocity: 127
38303 
Channel: 10 Note ON:  F2 key: 41 velocity: 0
38387 
Channel: 10 Note ON:  F3 key: 53 velocity: 0
38400 
Channel: 10 Note ON:  A#3 key: 58 velocity: 127
38400 
Channel: 10 Note ON:  C#4 key: 61 velocity: 127
38418 
38419 
38505 
Channel: 10 Note ON:  C#4 key: 61 velocity: 0
38520 
Channel: 10 Note ON:  F#3 key: 54 velocity: 127
38527 
Channel: 10 Note ON:  A#3 key: 58 velocity: 0
38621 
Channel: 10 Note ON:  F#3 key: 54 velocity: 0
38640 
Channel: 10 Note ON:  A#3 key: 58 velocity: 127
38640 
Channel: 10 Note ON:  C#4 key: 61 velocity: 127
38741 
Channel: 10 Note ON:  C#4 key: 61 velocity: 0
38760 
Channel: 10 Note ON:  A#3 key: 58 velocity: 0
38760 
Channel: 10 Note ON:  F#3 key: 54 velocity: 127
38869 
Channel: 10 Note ON:  F#3 key: 54 velocity: 0
38880 
Channel: 10 Note ON:  C#4 key: 61 velocity: 127
38880 
Channel: 10 Note ON:  A#3 key: 58 velocity: 127
38968 
Channel: 10 Note ON:  C#4 key: 61 velocity: 0
39000 
Channel: 10 Note ON:  F#3 key: 54 velocity: 127
39000 
Channel: 10 Note ON:  C3 key: 48 velocity: 127
39001 
Channel: 10 Note ON:  A#3 key: 58 velocity: 0
39030 
Channel: 10 Note ON:  F#2 key: 42 velocity: 0
39058 
39058 
39120 
Channel: 10 Note ON:  A#3 key: 58 velocity: 127
39120 
Channel: 10 Note ON:  C#4 key: 61 velocity: 127
39120 
Channel: 10 Note ON:  C#3 key: 49 velocity: 127
39127 
Channel: 10 Note ON:  C3 key: 48 velocity: 0
39135 
Channel: 10 Note ON:  F#3 key: 54 velocity: 0
39144 
39145 
39239 
Channel: 10 Note ON:  C#4 key: 61 velocity: 0
39240 
Channel: 10 Note ON:  F#3 key: 54 velocity: 127
39242 
39242 
39252 
Channel: 10 Note ON:  A#3 key: 58 velocity: 0
39318 
Channel: 10 Note ON:  C#3 key: 49 velocity: 0
39333 
Channel: 10 Note ON:  F#3 key: 54 velocity: 0
39360 
Channel: 10 Note ON:  F#3 key: 54 velocity: 127
39360 
Channel: 10 Note ON:  F#2 key: 42 velocity: 127
39360 
Channel: 10 Note ON:  D#4 key: 63 velocity: 127
39360 
Channel: 10 Note ON:  A#3 key: 58 velocity: 127
39360 
39360 
39572 
Channel: 10 Note ON:  F#2 key: 42 velocity: 0
39579 
Channel: 10 Note ON:  D#4 key: 63 velocity: 0
39595 
Channel: 10 Note ON:  A#3 key: 58 velocity: 0
39605 
Channel: 10 Note ON:  F#3 key: 54 velocity: 0
39720 
Channel: 10 Note ON:  F#3 key: 54 velocity: 127
39720 
Channel: 10 Note ON:  F#2 key: 42 velocity: 127
39720 
Channel: 10 Note ON:  C#4 key: 61 velocity: 127
39720 
Channel: 10 Note ON:  A#3 key: 58 velocity: 127
39757 
39758 
39855 
39855 
40137 
Channel: 10 Note ON:  A#3 key: 58 velocity: 0
40139 
Channel: 10 Note ON:  C#4 key: 61 velocity: 0
40149 
Channel: 10 Note ON:  F#3 key: 54 velocity: 0
40214 
Channel: 10 Note ON:  F#2 key: 42 velocity: 0
40310 
40311 
40320 
Channel: 10 Note ON:  F#3 key: 54 velocity: 127
40320 
Channel: 10 Note ON:  F#2 key: 42 velocity: 127
40320 
Channel: 10 Note ON:  D#4 key: 63 velocity: 127
40320 
Channel: 10 Note ON:  A#3 key: 58 velocity: 127
40359 
40359 
40432 
Channel: 10 Note ON:  F#3 key: 54 velocity: 0
40450 
Channel: 10 Note ON:  A#3 key: 58 velocity: 0
40464 
Channel: 10 Note ON:  D#4 key: 63 velocity: 0
40496 
Channel: 10 Note ON:  F#2 key: 42 velocity: 0
40680 
Channel: 10 Note ON:  F#2 key: 42 velocity: 127
40680 
Channel: 10 Note ON:  A#3 key: 58 velocity: 127
40680 
Channel: 10 Note ON:  C#4 key: 61 velocity: 127
40680 
Channel: 10 Note ON:  F4 key: 65 velocity: 127
40684 
40684 
40738 
40739 
40801 
Channel: 10 Note ON:  C#4 key: 61 velocity: 0
40807 
Channel: 10 Note ON:  F4 key: 65 velocity: 0
40832 
Channel: 10 Note ON:  A#3 key: 58 velocity: 0
40872 
Channel: 10 Note ON:  F#2 key: 42 velocity: 0
41237 
41237 
41280 
Channel: 10 Note ON:  D#3 key: 51 velocity: 127
41280 
Channel: 10 Note ON:  C4 key: 60 velocity: 127
41280 
Channel: 10 Note ON:  C#2 key: 37 velocity: 127
41280 
Channel: 10 Note ON:  G#3 key: 56 velocity: 127
41291 
41291 
41357 
Channel: 10 Note ON:  G#3 key: 56 velocity: 0
41358 
Channel: 10 Note ON:  C#2 key: 37 velocity: 0
41358 
Channel: 10 Note ON:  D#3 key: 51 velocity: 0
41361 
Channel: 10 Note ON:  C4 key: 60 velocity: 0
41400 
Channel: 10 Note ON:  C4 key: 60 velocity: 127
41400 
Channel: 10 Note ON:  D#3 key: 51 velocity: 127
41400 
Channel: 10 Note ON:  G#3 key: 56 velocity: 127
41400 
Channel: 10 Note ON:  C#2 key: 37 velocity: 127
41479 
Channel: 10 Note ON:  D#3 key: 51 velocity: 0
41496 
Channel: 10 Note ON:  C4 key: 60 velocity: 0
41497 
Channel: 10 Note ON:  G#3 key: 56 velocity: 0
41502 
Channel: 10 Note ON:  C#2 key: 37 velocity: 0
41640 
Channel: 10 Note ON:  F3 key: 53 velocity: 127
41640 
Channel: 10 Note ON:  C#4 key: 61 velocity: 127
41640 
Channel: 10 Note ON:  G#3 key: 56 velocity: 127
41640 
Channel: 10 Note ON:  C#2 key: 37 velocity: 127
41675 
41676 
41762 
41763 
41958 
Channel: 10 Note ON:  G#3 key: 56 velocity: 0
41975 
Channel: 10 Note ON:  F3 key: 53 velocity: 0
41978 
Channel: 10 Note ON:  C#2 key: 37 velocity: 0
41982 
Channel: 10 Note ON:  C#4 key: 61 velocity: 0
42196 
42196 
42240 
Channel: 10 Note ON:  C4 key: 60 velocity: 127
42240 
Channel: 10 Note ON:  C#2 key: 37 velocity: 127
42240 
Channel: 10 Note ON:  D#3 key: 51 velocity: 127
42240 
Channel: 10 Note ON:  G#3 key: 56 velocity: 127
42250 
42250 
42314 
Channel: 10 Note ON:  D#3 key: 51 velocity: 0
42317 
Channel: 10 Note ON:  C#2 key: 37 velocity: 0
42319 
Channel: 10 Note ON:  C4 key: 60 velocity: 0
42323 
Channel: 10 Note ON:  G#3 key: 56 velocity: 0
42360 
Channel: 10 Note ON:  D#3 key: 51 velocity: 127
42360 
Channel: 10 Note ON:  C4 key: 60 velocity: 127
42360 
Channel: 10 Note ON:  C#2 key: 37 velocity: 127
42360 
Channel: 10 Note ON:  G#3 key: 56 velocity: 127
42419 
Channel: 10 Note ON:  D#3 key: 51 velocity: 0
42430 
Channel: 10 Note ON:  C#2 key: 37 velocity: 0
42435 
Channel: 10 Note ON:  C4 key: 60 velocity: 0
42439 
Channel: 10 Note ON:  G#3 key: 56 velocity: 0
42586 
42586 
42600 
Channel: 10 Note ON:  C#2 key: 37 velocity: 127
42600 
Channel: 10 Note ON:  C#4 key: 61 velocity: 127
42600 
Channel: 10 Note ON:  F3 key: 53 velocity: 127
42600 
Channel: 10 Note ON:  G#3 key: 56 velocity: 127
42705 
42705 
42850 
Channel: 10 Note ON:  F3 key: 53 velocity: 0
42854 
Channel: 10 Note ON:  G#3 key: 56 velocity: 0
42862 
Channel: 10 Note ON:  C#4 key: 61 velocity: 0
43176 
43177 
43200 
Channel: 10 Note ON:  F#2 key: 42 velocity: 127
43200 
Channel: 10 Note ON:  F#3 key: 54 velocity: 127
43200 
Channel: 10 Note ON:  D#4 key: 63 velocity: 127
43200 
Channel: 10 Note ON:  A#3 key: 58 velocity: 127
43207 
Channel: 10 Note ON:  C#2 key: 37 velocity: 0
43231 
43231 
43423 
Channel: 10 Note ON:  D#4 key: 63 velocity: 0
43456 
Channel: 10 Note ON:  A#3 key: 58 velocity: 0
43461 
Channel: 10 Note ON:  F#2 key: 42 velocity: 0
43463 
Channel: 10 Note ON:  F#3 key: 54 velocity: 0
43560 
Channel: 10 Note ON:  F#2 key: 42 velocity: 127
43560 
Channel: 10 Note ON:  C#4 key: 61 velocity: 127
43560 
Channel: 10 Note ON:  F#3 key: 54 velocity: 127
43560 
Channel: 10 Note ON:  A#3 key: 58 velocity: 127
43588 
43589 
43659 
43659 
43942 
Channel: 10 Note ON:  C#4 key: 61 velocity: 0
43947 
Channel: 10 Note ON:  A#3 key: 58 velocity: 0
43960 
Channel: 10 Note ON:  F#3 key: 54 velocity: 0
44009 
Channel: 10 Note ON:  F#2 key: 42 velocity: 0
44060 
44060 
44092 
44092 
44160 
Channel: 10 Note ON:  F#2 key: 42 velocity: 127
44160 
Channel: 10 Note ON:  D#4 key: 63 velocity: 127
44160 
Channel: 10 Note ON:  F#3 key: 54 velocity: 127
44160 
Channel: 10 Note ON:  A#3 key: 58 velocity: 127
44179 
44179 
44244 
44244 
44279 
Channel: 10 Note ON:  F#3 key: 54 velocity: 0
44298 
Channel: 10 Note ON:  A#3 key: 58 velocity: 0
44317 
Channel: 10 Note ON:  D#4 key: 63 velocity: 0
44324 
Channel: 10 Note ON:  F#2 key: 42 velocity: 0
44520 
Channel: 10 Note ON:  F#2 key: 42 velocity: 127
44520 
Channel: 10 Note ON:  A#3 key: 58 velocity: 127
44520 
Channel: 10 Note ON:  C#4 key: 61 velocity: 127
44520 
Channel: 10 Note ON:  F4 key: 65 velocity: 127
44542 
44542 
44596 
44596 
44633 
Channel: 10 Note ON:  C#4 key: 61 velocity: 0
44642 
Channel: 10 Note ON:  F4 key: 65 velocity: 0
44665 
Channel: 10 Note ON:  A#3 key: 58 velocity: 0
44846 
Channel: 10 Note ON:  F#2 key: 42 velocity: 0
45078 
45079 
45120 
Channel: 10 Note ON:  G#3 key: 56 velocity: 127
45120 
Channel: 10 Note ON:  C4 key: 60 velocity: 127
45120 
Channel: 10 Note ON:  C#2 key: 37 velocity: 127
45120 
Channel: 10 Note ON:  D#3 key: 51 velocity: 127
45127 
45128 
45202 
Channel: 10 Note ON:  C#2 key: 37 velocity: 0
45206 
Channel: 10 Note ON:  D#3 key: 51 velocity: 0
45206 
Channel: 10 Note ON:  C4 key: 60 velocity: 0
45209 
Channel: 10 Note ON:  G#3 key: 56 velocity: 0
45240 
Channel: 10 Note ON:  C4 key: 60 velocity: 127
45240 
Channel: 10 Note ON:  D#3 key: 51 velocity: 127
45240 
Channel: 10 Note ON:  G#3 key: 56 velocity: 127
45240 
Channel: 10 Note ON:  C#2 key: 37 velocity: 127
45323 
Channel: 10 Note ON:  D#3 key: 51 velocity: 0
45325 
Channel: 10 Note ON:  C#2 key: 37 velocity: 0
45336 
Channel: 10 Note ON:  C4 key: 60 velocity: 0
45341 
Channel: 10 Note ON:  G#3 key: 56 velocity: 0
45480 
Channel: 10 Note ON:  C#4 key: 61 velocity: 127
45480 
Channel: 10 Note ON:  C#2 key: 37 velocity: 127
45480 
Channel: 10 Note ON:  F3 key: 53 velocity: 127
45480 
Channel: 10 Note ON:  G#3 key: 56 velocity: 127
45501 
45501 
45582 
45583 
45844 
Channel: 10 Note ON:  G#3 key: 56 velocity: 0
45856 
Channel: 10 Note ON:  C#2 key: 37 velocity: 0
45863 
Channel: 10 Note ON:  F3 key: 53 velocity: 0
45864 
Channel: 10 Note ON:  C#4 key: 61 velocity: 0
46037 
46037 
46080 
Channel: 10 Note ON:  C4 key: 60 velocity: 127
46080 
Channel: 10 Note ON:  D#3 key: 51 velocity: 127
46080 
Channel: 10 Note ON:  C#2 key: 37 velocity: 127
46080 
Channel: 10 Note ON:  G#3 key: 56 velocity: 127
46086 
46087 
46234 
Channel: 10 Note ON:  D#3 key: 51 velocity: 0
46253 
Channel: 10 Note ON:  G#3 key: 56 velocity: 0
46254 
Channel: 10 Note ON:  C4 key: 60 velocity: 0
46275 
Channel: 10 Note ON:  C#2 key: 37 velocity: 0
46440 
Channel: 10 Note ON:  C#4 key: 61 velocity: 127
46440 
Channel: 10 Note ON:  F3 key: 53 velocity: 127
46440 
Channel: 10 Note ON:  C#2 key: 37 velocity: 127
46440 
Channel: 10 Note ON:  G#3 key: 56 velocity: 127
46455 
46455 
46536 
46536 
46581 
Channel: 10 Note ON:  F3 key: 53 velocity: 0
46598 
Channel: 10 Note ON:  G#3 key: 56 velocity: 0
46612 
Channel: 10 Note ON:  C#4 key: 61 velocity: 0
46997 
46997 
47024 
Channel: 10 Note ON:  C#2 key: 37 velocity: 0
47040 
Channel: 10 Note ON:  F#3 key: 54 velocity: 127
47040 
Channel: 10 Note ON:  F#2 key: 42 velocity: 127
47040 
Channel: 10 Note ON:  A#3 key: 58 velocity: 127
47040 
Channel: 10 Note ON:  D#4 key: 63 velocity: 127
47045 
47045 
47215 
Channel: 10 Note ON:  D#4 key: 63 velocity: 0
47216 
Channel: 10 Note ON:  F#2 key: 42 velocity: 0
47233 
Channel: 10 Note ON:  F#3 key: 54 velocity: 0
47235 
47235 
47244 
Channel: 10 Note ON:  A#3 key: 58 velocity: 0
47267 
47268 
47400 
Channel: 10 Note ON:  F#3 key: 54 velocity: 127
47400 
Channel: 10 Note ON:  C#4 key: 61 velocity: 127
47400 
Channel: 10 Note ON:  F#2 key: 42 velocity: 127
47400 
Channel: 10 Note ON:  A#3 key: 58 velocity: 127
47435 
47436 
47489 
47490 
47704 
Channel: 10 Note ON:  C#4 key: 61 velocity: 0
47722 
Channel: 10 Note ON:  A#3 key: 58 velocity: 0
47729 
Channel: 10 Note ON:  F#3 key: 54 velocity: 0
47778 
Channel: 10 Note ON:  F#2 key: 42 velocity: 0
47961 
47961 
48000 
Channel: 10 Note ON:  F#2 key: 42 velocity: 127
48000 
Channel: 10 Note ON:  F#3 key: 54 velocity: 127
48000 
Channel: 10 Note ON:  A#3 key: 58 velocity: 127
48000 
Channel: 10 Note ON:  D#4 key: 63 velocity: 127
48015 
48015 
48110 
Channel: 10 Note ON:  F#3 key: 54 velocity: 0
48111 
Channel: 10 Note ON:  A#3 key: 58 velocity: 0
48140 
Channel: 10 Note ON:  D#4 key: 63 velocity: 0
48145 
Channel: 10 Note ON:  F#2 key: 42 velocity: 0
48177 
48178 
48221 
48221 
48360 
Channel: 10 Note ON:  A#3 key: 58 velocity: 127
48360 
Channel: 10 Note ON:  F#2 key: 42 velocity: 127
48360 
Channel: 10 Note ON:  C#4 key: 61 velocity: 127
48360 
Channel: 10 Note ON:  F4 key: 65 velocity: 127
48378 
48378 
48421 
48422 
48604 
Channel: 10 Note ON:  C#4 key: 61 velocity: 0
48606 
Channel: 10 Note ON:  F4 key: 65 velocity: 0
48638 
Channel: 10 Note ON:  A#3 key: 58 velocity: 0
48720 
Channel: 10 Note ON:  F#2 key: 42 velocity: 0
48903 
48904 
48960 
Channel: 10 Note ON:  C4 key: 60 velocity: 127
48960 
Channel: 10 Note ON:  D#3 key: 51 velocity: 127
48960 
Channel: 10 Note ON:  G#3 key: 56 velocity: 127
48960 
Channel: 10 Note ON:  C#2 key: 37 velocity: 127
48963 
48964 
49027 
Channel: 10 Note ON:  C4 key: 60 velocity: 0
49034 
Channel: 10 Note ON:  D#3 key: 51 velocity: 0
49036 
Channel: 10 Note ON:  C#2 key: 37 velocity: 0
49051 
Channel: 10 Note ON:  G#3 key: 56 velocity: 0
49080 
Channel: 10 Note ON:  C4 key: 60 velocity: 127
49080 
Channel: 10 Note ON:  C#2 key: 37 velocity: 127
49080 
Channel: 10 Note ON:  G#3 key: 56 velocity: 127
49080 
Channel: 10 Note ON:  D#3 key: 51 velocity: 127
49158 
Channel: 10 Note ON:  D#3 key: 51 velocity: 0
49171 
Channel: 10 Note ON:  C#2 key: 37 velocity: 0
49175 
Channel: 10 Note ON:  G#3 key: 56 velocity: 0
49178 
Channel: 10 Note ON:  C4 key: 60 velocity: 0
49320 
Channel: 10 Note ON:  C#2 key: 37 velocity: 127
49320 
Channel: 10 Note ON:  G#3 key: 56 velocity: 127
49320 
Channel: 10 Note ON:  C#4 key: 61 velocity: 127
49320 
Channel: 10 Note ON:  F3 key: 53 velocity: 127
49332 
49332 
49418 
49419 
49730 
Channel: 10 Note ON:  C#2 key: 37 velocity: 0
49733 
Channel: 10 Note ON:  G#3 key: 56 velocity: 0
49739 
Channel: 10 Note ON:  C#4 key: 61 velocity: 0
49740 
Channel: 10 Note ON:  F3 key: 53 velocity: 0
49890 
49890 
49920 
Channel: 10 Note ON:  C4 key: 60 velocity: 127
49920 
Channel: 10 Note ON:  D#3 key: 51 velocity: 127
49920 
Channel: 10 Note ON:  G#3 key: 56 velocity: 127
49920 
Channel: 10 Note ON:  C#2 key: 37 velocity: 127
49933 
49933 
49991 
Channel: 10 Note ON:  C4 key: 60 velocity: 0
49997 
Channel: 10 Note ON:  D#3 key: 51 velocity: 0
50001 
Channel: 10 Note ON:  G#3 key: 56 velocity: 0
50003 
Channel: 10 Note ON:  C#2 key: 37 velocity: 0
50040 
Channel: 10 Note ON:  C4 key: 60 velocity: 127
50040 
Channel: 10 Note ON:  C#2 key: 37 velocity: 127
50040 
Channel: 10 Note ON:  D#3 key: 51 velocity: 127
50040 
Channel: 10 Note ON:  G#3 key: 56 velocity: 127
50102 
Channel: 10 Note ON:  D#3 key: 51 velocity: 0
50109 
Channel: 10 Note ON:  C4 key: 60 velocity: 0
50115 
Channel: 10 Note ON:  G#3 key: 56 velocity: 0
50121 
Channel: 10 Note ON:  C#2 key: 37 velocity: 0
50280 
Channel: 10 Note ON:  C#4 key: 61 velocity: 127
50280 
Channel: 10 Note ON:  F3 key: 53 velocity: 127
50280 
Channel: 10 Note ON:  C#2 key: 37 velocity: 127
50280 
Channel: 10 Note ON:  G#3 key: 56 velocity: 127
50291 
50291 
50372 
50372 
50493 
Channel: 10 Note ON:  C#4 key: 61 velocity: 0
50520 
Channel: 10 Note ON:  C#4 key: 61 velocity: 127
50656 
Channel: 10 Note ON:  G#3 key: 56 velocity: 0
50682 
Channel: 10 Note ON:  F3 key: 53 velocity: 0
50695 
Channel: 10 Note ON:  C#4 key: 61 velocity: 0
50865 
50865 
50880 
Channel: 10 Note ON:  F#3 key: 54 velocity: 127
50880 
Channel: 10 Note ON:  D#4 key: 63 velocity: 127
50880 
Channel: 10 Note ON:  F#2 key: 42 velocity: 127
50880 
Channel: 10 Note ON:  A#3 key: 58 velocity: 127
50904 
Channel: 10 Note ON:  C#2 key: 37 velocity: 0
50936 
50936 
51091 
Channel: 10 Note ON:  D#4 key: 63 velocity: 0
51131 
Channel: 10 Note ON:  F#3 key: 54 velocity: 0
51150 
Channel: 10 Note ON:  A#3 key: 58 velocity: 0
51158 
Channel: 10 Note ON:  F#2 key: 42 velocity: 0
51240 
Channel: 10 Note ON:  F#2 key: 42 velocity: 127
51240 
Channel: 10 Note ON:  F#3 key: 54 velocity: 127
51240 
Channel: 10 Note ON:  C#4 key: 61 velocity: 127
51240 
Channel: 10 Note ON:  A#3 key: 58 velocity: 127
51255 
51256 
51331 
51331 
51516 
Channel: 10 Note ON:  A#3 key: 58 velocity: 0
51543 
Channel: 10 Note ON:  C#4 key: 61 velocity: 0
51569 
Channel: 10 Note ON:  F#3 key: 54 velocity: 0
51595 
Channel: 10 Note ON:  F#2 key: 42 velocity: 0
51824 
51825 
51840 
Channel: 10 Note ON:  F#3 key: 54 velocity: 127
51840 
Channel: 10 Note ON:  F#2 key: 42 velocity: 127
51840 
Channel: 10 Note ON:  D#4 key: 63 velocity: 127
51840 
Channel: 10 Note ON:  A#3 key: 58 velocity: 127
51862 
51863 
51925 
Channel: 10 Note ON:  F#3 key: 54 velocity: 0
51937 
Channel: 10 Note ON:  A#3 key: 58 velocity: 0
51953 
Channel: 10 Note ON:  D#4 key: 63 velocity: 0
51964 
Channel: 10 Note ON:  F#2 key: 42 velocity: 0
52198 
52198 
52200 
Channel: 10 Note ON:  F#2 key: 42 velocity: 127
52200 
Channel: 10 Note ON:  C#4 key: 61 velocity: 127
52200 
Channel: 10 Note ON:  A#3 key: 58 velocity: 127
52200 
Channel: 10 Note ON:  F4 key: 65 velocity: 127
52258 
52258 
52373 
Channel: 10 Note ON:  C#4 key: 61 velocity: 0
52389 
Channel: 10 Note ON:  A#3 key: 58 velocity: 0
52398 
Channel: 10 Note ON:  F4 key: 65 velocity: 0
52561 
Channel: 10 Note ON:  F#2 key: 42 velocity: 0
52740 
52740 
52794 
52794 
52800 
Channel: 10 Note ON:  G#2 key: 44 velocity: 127
52800 
Channel: 10 Note ON:  G#4 key: 68 velocity: 127
52800 
Channel: 10 Note ON:  D#4 key: 63 velocity: 127
52800 
Channel: 10 Note ON:  C4 key: 60 velocity: 127
52912 
Channel: 10 Note ON:  C4 key: 60 velocity: 0
52982 
Channel: 10 Note ON:  G#4 key: 68 velocity: 0
53012 
Channel: 10 Note ON:  G#2 key: 44 velocity: 0
53040 
Channel: 10 Note ON:  G#2 key: 44 velocity: 127
53042 
Channel: 10 Note ON:  D#4 key: 63 velocity: 0
53146 
Channel: 10 Note ON:  G#2 key: 44 velocity: 0
53157 
53157 
53160 
Channel: 10 Note ON:  C#4 key: 61 velocity: 127
53160 
Channel: 10 Note ON:  F4 key: 65 velocity: 127
53160 
Channel: 10 Note ON:  G#4 key: 68 velocity: 127
53160 
Channel: 10 Note ON:  C#2 key: 37 velocity: 127
53314 
53315 
53433 
Channel: 10 Note ON:  G#4 key: 68 velocity: 0
53463 
Channel: 10 Note ON:  C#4 key: 61 velocity: 0
53508 
Channel: 10 Note ON:  F4 key: 65 velocity: 0
53605 
Channel: 10 Note ON:  C#2 key: 37 velocity: 0
53760 
Channel: 10 Note ON:  G#2 key: 44 velocity: 127
53760 
Channel: 10 Note ON:  G#4 key: 68 velocity: 127
53760 
Channel: 10 Note ON:  D#4 key: 63 velocity: 127
53760 
Channel: 10 Note ON:  C4 key: 60 velocity: 127
53837 
Channel: 10 Note ON:  C4 key: 60 velocity: 0
53860 
Channel: 10 Note ON:  G#4 key: 68 velocity: 0
53871 
Channel: 10 Note ON:  D#4 key: 63 velocity: 0
53908 
Channel: 10 Note ON:  G#2 key: 44 velocity: 0
54000 
Channel: 10 Note ON:  C#4 key: 61 velocity: 127
54000 
Channel: 10 Note ON:  C#2 key: 37 velocity: 127
54016 
Channel: 10 Note ON:  C#4 key: 61 velocity: 0
54080 
Channel: 10 Note ON:  C#2 key: 37 velocity: 0
54120 
Channel: 10 Note ON:  A#3 key: 58 velocity: 127
54120 
Channel: 10 Note ON:  F#4 key: 66 velocity: 127
54120 
Channel: 10 Note ON:  F#2 key: 42 velocity: 127
54120 
Channel: 10 Note ON:  C#4 key: 61 velocity: 127
54127 
54127 
54425 
54425 
54636 
54637 
54678 
Channel: 10 Note ON:  A#3 key: 58 velocity: 0
54681 
Channel: 10 Note ON:  C#4 key: 61 velocity: 0
54688 
Channel: 10 Note ON:  F#4 key: 66 velocity: 0
54701 
Channel: 10 Note ON:  F#2 key: 42 velocity: 0
54720 
Channel: 10 Note ON:  C#2 key: 37 velocity: 127
54720 
Channel: 10 Note ON:  C#4 key: 61 velocity: 127
54720 
Channel: 10 Note ON:  F4 key: 65 velocity: 127
54761 
54762 
54816 
Channel: 10 Note ON:  F4 key: 65 velocity: 0
54840 
Channel: 10 Note ON:  G#3 key: 56 velocity: 127
54847 
Channel: 10 Note ON:  C#4 key: 61 velocity: 0
54952 
Channel: 10 Note ON:  G#3 key: 56 velocity: 0
54960 
Channel: 10 Note ON:  F4 key: 65 velocity: 127
54960 
Channel: 10 Note ON:  C#4 key: 61 velocity: 127
55044 
Channel: 10 Note ON:  F4 key: 65 velocity: 0
55080 
Channel: 10 Note ON:  G#3 key: 56 velocity: 127
55089 
Channel: 10 Note ON:  C#4 key: 61 velocity: 0
55182 
Channel: 10 Note ON:  G#3 key: 56 velocity: 0
55200 
Channel: 10 Note ON:  F4 key: 65 velocity: 127
55200 
Channel: 10 Note ON:  C#4 key: 61 velocity: 127
55297 
Channel: 10 Note ON:  F4 key: 65 velocity: 0
55320 
Channel: 10 Note ON:  D#2 key: 39 velocity: 127
55320 
Channel: 10 Note ON:  G#3 key: 56 velocity: 127
55328 
Channel: 10 Note ON:  C#4 key: 61 velocity: 0
55349 
Channel: 10 Note ON:  C#2 key: 37 velocity: 0
55438 
55439 
55440 
Channel: 10 Note ON:  C#4 key: 61 velocity: 127
55440 
Channel: 10 Note ON:  F4 key: 65 velocity: 127
55440 
Channel: 10 Note ON:  F2 key: 41 velocity: 127
55448 
Channel: 10 Note ON:  D#2 key: 39 velocity: 0
55450 
Channel: 10 Note ON:  G#3 key: 56 velocity: 0
55550 
Channel: 10 Note ON:  F4 key: 65 velocity: 0
55552 
Channel: 10 Note ON:  F2 key: 41 velocity: 0
55553 
Channel: 10 Note ON:  C#4 key: 61 velocity: 0
55560 
Channel: 10 Note ON:  G#3 key: 56 velocity: 127
55560 
Channel: 10 Note ON:  G#2 key: 44 velocity: 127
55680 
Channel: 10 Note ON:  D#4 key: 63 velocity: 127
55680 
Channel: 10 Note ON:  C4 key: 60 velocity: 127
55698 
Channel: 10 Note ON:  G#3 key: 56 velocity: 0
55788 
Channel: 10 Note ON:  D#4 key: 63 velocity: 0
55800 
Channel: 10 Note ON:  G#3 key: 56 velocity: 127
55812 
Channel: 10 Note ON:  C4 key: 60 velocity: 0
55920 
Channel: 10 Note ON:  D#4 key: 63 velocity: 127
55920 
Channel: 10 Note ON:  C4 key: 60 velocity: 127
55920 
55921 
55928 
Channel: 10 Note ON:  G#3 key: 56 velocity: 0
56032 
Channel: 10 Note ON:  D#4 key: 63 velocity: 0
56040 
Channel: 10 Note ON:  C4 key: 60 velocity: 0
56040 
Channel: 10 Note ON:  G#3 key: 56 velocity: 127
56146 
Channel: 10 Note ON:  G#3 key: 56 velocity: 0
56160 
Channel: 10 Note ON:  D#4 key: 63 velocity: 127
56160 
Channel: 10 Note ON:  C4 key: 60 velocity: 127
56259 
Channel: 10 Note ON:  D#4 key: 63 velocity: 0
56280 
Channel: 10 Note ON:  G#3 key: 56 velocity: 127
56280 
Channel: 10 Note ON:  A#2 key: 46 velocity: 127
56282 
Channel: 10 Note ON:  C4 key: 60 velocity: 0
56293 
Channel: 10 Note ON:  G#2 key: 44 velocity: 0
56294 
56295 
56386 
Channel: 10 Note ON:  G#3 key: 56 velocity: 0
56400 
Channel: 10 Note ON:  C3 key: 48 velocity: 127
56400 
Channel: 10 Note ON:  D#4 key: 63 velocity: 127
56400 
Channel: 10 Note ON:  C4 key: 60 velocity: 127
56404 
Channel: 10 Note ON:  A#2 key: 46 velocity: 0
56419 
56420 
56492 
Channel: 10 Note ON:  D#4 key: 63 velocity: 0
56508 
Channel: 10 Note ON:  C3 key: 48 velocity: 0
56513 
Channel: 10 Note ON:  C4 key: 60 velocity: 0
56520 
Channel: 10 Note ON:  A#2 key: 46 velocity: 127
56520 
Channel: 10 Note ON:  G#3 key: 56 velocity: 127
56533 
56533 
56591 
Channel: 10 Note ON:  G#3 key: 56 velocity: 0
56640 
Channel: 10 Note ON:  C#4 key: 61 velocity: 127
56640 
Channel: 10 Note ON:  A#3 key: 58 velocity: 127
56684 
56685 
56726 
Channel: 10 Note ON:  C#4 key: 61 velocity: 0
56760 
Channel: 10 Note ON:  A#3 key: 58 velocity: 0
56760 
Channel: 10 Note ON:  F3 key: 53 velocity: 127
56845 
Channel: 10 Note ON:  F3 key: 53 velocity: 0
56880 
Channel: 10 Note ON:  C#4 key: 61 velocity: 127
56880 
Channel: 10 Note ON:  A#3 key: 58 velocity: 127
56968 
Channel: 10 Note ON:  C#4 key: 61 velocity: 0
56996 
Channel: 10 Note ON:  A#3 key: 58 velocity: 0
57000 
Channel: 10 Note ON:  F3 key: 53 velocity: 127
57089 
Channel: 10 Note ON:  F3 key: 53 velocity: 0
57120 
Channel: 10 Note ON:  C#4 key: 61 velocity: 127
57120 
Channel: 10 Note ON:  A#3 key: 58 velocity: 127
57202 
Channel: 10 Note ON:  C#4 key: 61 velocity: 0
57235 
Channel: 10 Note ON:  A#3 key: 58 velocity: 0
57240 
Channel: 10 Note ON:  C3 key: 48 velocity: 127
57240 
Channel: 10 Note ON:  F3 key: 53 velocity: 127
57317 
Channel: 10 Note ON:  F3 key: 53 velocity: 0
57334 
Channel: 10 Note ON:  A#2 key: 46 velocity: 0
57346 
Channel: 10 Note ON:  C3 key: 48 velocity: 0
57360 
Channel: 10 Note ON:  A#3 key: 58 velocity: 127
57360 
Channel: 10 Note ON:  C#4 key: 61 velocity: 127
57360 
Channel: 10 Note ON:  C#3 key: 49 velocity: 127
57362 
57362 
57441 
Channel: 10 Note ON:  C#4 key: 61 velocity: 0
57462 
Channel: 10 Note ON:  A#3 key: 58 velocity: 0
57480 
Channel: 10 Note ON:  F#3 key: 54 velocity: 127
57480 
Channel: 10 Note ON:  F#2 key: 42 velocity: 127
57491 
Channel: 10 Note ON:  C#3 key: 49 velocity: 0
57590 
Channel: 10 Note ON:  F#3 key: 54 velocity: 0
57600 
Channel: 10 Note ON:  A#3 key: 58 velocity: 127
57600 
Channel: 10 Note ON:  C#4 key: 61 velocity: 127
57611 
57612 
57698 
Channel: 10 Note ON:  C#4 key: 61 velocity: 0
57720 
Channel: 10 Note ON:  F#3 key: 54 velocity: 127
57722 
Channel: 10 Note ON:  A#3 key: 58 velocity: 0
57821 
Channel: 10 Note ON:  F#3 key: 54 velocity: 0
57840 
Channel: 10 Note ON:  C#4 key: 61 velocity: 127
57840 
Channel: 10 Note ON:  A#3 key: 58 velocity: 127
57934 
Channel: 10 Note ON:  C#4 key: 61 velocity: 0
57960 
Channel: 10 Note ON:  A#3 key: 58 velocity: 0
57960 
Channel: 10 Note ON:  F#3 key: 54 velocity: 127
58080 
Channel: 10 Note ON:  C#4 key: 61 velocity: 127
58080 
Channel: 10 Note ON:  A#3 key: 58 velocity: 127
58083 
Channel: 10 Note ON:  F#3 key: 54 velocity: 0
58189 
Channel: 10 Note ON:  C#4 key: 61 velocity: 0
58200 
Channel: 10 Note ON:  C3 key: 48 velocity: 127
58200 
Channel: 10 Note ON:  F#3 key: 54 velocity: 127
58226 
Channel: 10 Note ON:  A#3 key: 58 velocity: 0
58297 
Channel: 10 Note ON:  F#3 key: 54 velocity: 0
58320 
Channel: 10 Note ON:  C#3 key: 49 velocity: 127
58320 
Channel: 10 Note ON:  A#3 key: 58 velocity: 127
58320 
Channel: 10 Note ON:  C#4 key: 61 velocity: 127
58321 
Channel: 10 Note ON:  C3 key: 48 velocity: 0
58340 
Channel: 10 Note ON:  F#2 key: 42 velocity: 0
58390 
Channel: 10 Note ON:  A#3 key: 58 velocity: 0
58418 
Channel: 10 Note ON:  C#4 key: 61 velocity: 0
58440 
Channel: 10 Note ON:  F#3 key: 54 velocity: 127
58527 
58527 
58550 
Channel: 10 Note ON:  F#3 key: 54 velocity: 0
58560 
Channel: 10 Note ON:  C#2 key: 37 velocity: 127
58560 
Channel: 10 Note ON:  C#4 key: 61 velocity: 127
58560 
Channel: 10 Note ON:  F4 key: 65 velocity: 127
58601 
58602 
58656 
Channel: 10 Note ON:  F4 key: 65 velocity: 0
58680 
Channel: 10 Note ON:  G#3 key: 56 velocity: 127
58687 
Channel: 10 Note ON:  C#4 key: 61 velocity: 0
58792 
Channel: 10 Note ON:  G#3 key: 56 velocity: 0
58800 
Channel: 10 Note ON:  F4 key: 65 velocity: 127
58800 
Channel: 10 Note ON:  C#4 key: 61 velocity: 127
58884 
Channel: 10 Note ON:  F4 key: 65 velocity: 0
58920 
Channel: 10 Note ON:  G#3 key: 56 velocity: 127
58929 
Channel: 10 Note ON:  C#4 key: 61 velocity: 0
59022 
Channel: 10 Note ON:  G#3 key: 56 velocity: 0
59040 
Channel: 10 Note ON:  F4 key: 65 velocity: 127
59040 
Channel: 10 Note ON:  C#4 key: 61 velocity: 127
59137 
Channel: 10 Note ON:  F4 key: 65 velocity: 0
59160 
Channel: 10 Note ON:  D#2 key: 39 velocity: 127
59160 
Channel: 10 Note ON:  G#3 key: 56 velocity: 127
59168 
Channel: 10 Note ON:  C#4 key: 61 velocity: 0
59189 
Channel: 10 Note ON:  C#2 key: 37 velocity: 0
59278 
59279 
59280 
Channel: 10 Note ON:  C#4 key: 61 velocity: 127
59280 
Channel: 10 Note ON:  F4 key: 65 velocity: 127
59280 
Channel: 10 Note ON:  F2 key: 41 velocity: 127
59288 
Channel: 10 Note ON:  D#2 key: 39 velocity: 0
59290 
Channel: 10 Note ON:  G#3 key: 56 velocity: 0
59390 
Channel: 10 Note ON:  F4 key: 65 velocity: 0
59392 
Channel: 10 Note ON:  F2 key: 41 velocity: 0
59393 
Channel: 10 Note ON:  C#4 key: 61 velocity: 0
59400 
Channel: 10 Note ON:  G#3 key: 56 velocity: 127
59400 
Channel: 10 Note ON:  G#2 key: 44 velocity: 127
59520 
Channel: 10 Note ON:  D#4 key: 63 velocity: 127
59520 
Channel: 10 Note ON:  C4 key: 60 velocity: 127
59538 
Channel: 10 Note ON:  G#3 key: 56 velocity: 0
59628 
Channel: 10 Note ON:  D#4 key: 63 velocity: 0
59640 
Channel: 10 Note ON:  G#3 key: 56 velocity: 127
59652 
Channel: 10 Note ON:  C4 key: 60 velocity: 0
59760 
Channel: 10 Note ON:  D#4 key: 63 velocity: 127
59760 
Channel: 10 Note ON:  C4 key: 60 velocity: 127
59760 
59761 
59768 
Channel: 10 Note ON:  G#3 key: 56 velocity: 0
59872 
Channel: 10 Note ON:  D#4 key: 63 velocity: 0
59880 
Channel: 10 Note ON:  C4 key: 60 velocity: 0
59880 
Channel: 10 Note ON:  G#3 key: 56 velocity: 127
59986 
Channel: 10 Note ON:  G#3 key: 56 velocity: 0
60000 
Channel: 10 Note ON:  D#4 key: 63 velocity: 127
60000 
Channel: 10 Note ON:  C4 key: 60 velocity: 127
60099 
Channel: 10 Note ON:  D#4 key: 63 velocity: 0
60120 
Channel: 10 Note ON:  G#3 key: 56 velocity: 127
60120 
Channel: 10 Note ON:  A#2 key: 46 velocity: 127
60122 
Channel: 10 Note ON:  C4 key: 60 velocity: 0
60133 
Channel: 10 Note ON:  G#2 key: 44 velocity: 0
60134 
60135 
60226 
Channel: 10 Note ON:  G#3 key: 56 velocity: 0
60240 
Channel: 10 Note ON:  C3 key: 48 velocity: 127
60240 
Channel: 10 Note ON:  D#4 key: 63 velocity: 127
60240 
Channel: 10 Note ON:  C4 key: 60 velocity: 127
60244 
Channel: 10 Note ON:  A#2 key: 46 velocity: 0
60259 
60260 
60332 
Channel: 10 Note ON:  D#4 key: 63 velocity: 0
60348 
Channel: 10 Note ON:  C3 key: 48 velocity: 0
60353 
Channel: 10 Note ON:  C4 key: 60 velocity: 0
60360 
Channel: 10 Note ON:  A#2 key: 46 velocity: 127
60360 
Channel: 10 Note ON:  G#3 key: 56 velocity: 127
60373 
60373 
60431 
Channel: 10 Note ON:  G#3 key: 56 velocity: 0
60480 
Channel: 10 Note ON:  C#4 key: 61 velocity: 127
60480 
Channel: 10 Note ON:  A#3 key: 58 velocity: 127
60524 
60525 
60566 
Channel: 10 Note ON:  C#4 key: 61 velocity: 0
60600 
Channel: 10 Note ON:  A#3 key: 58 velocity: 0
60600 
Channel: 10 Note ON:  F3 key: 53 velocity: 127
60685 
Channel: 10 Note ON:  F3 key: 53 velocity: 0
60720 
Channel: 10 Note ON:  C#4 key: 61 velocity: 127
60720 
Channel: 10 Note ON:  A#3 key: 58 velocity: 127
60808 
Channel: 10 Note ON:  C#4 key: 61 velocity: 0
60836 
Channel: 10 Note ON:  A#3 key: 58 velocity: 0
60840 
Channel: 10 Note ON:  F3 key: 53 velocity: 127
60929 
Channel: 10 Note ON:  F3 key: 53 velocity: 0
60960 
Channel: 10 Note ON:  C#4 key: 61 velocity: 127
60960 
Channel: 10 Note ON:  A#3 key: 58 velocity: 127
61042 
Channel: 10 Note ON:  C#4 key: 61 velocity: 0
61075 
Channel: 10 Note ON:  A#3 key: 58 velocity: 0
61080 
Channel: 10 Note ON:  C3 key: 48 velocity: 127
61080 
Channel: 10 Note ON:  F3 key: 53 velocity: 127
61157 
Channel: 10 Note ON:  F3 key: 53 velocity: 0
61174 
Channel: 10 Note ON:  A#2 key: 46 velocity: 0
61186 
Channel: 10 Note ON:  C3 key: 48 velocity: 0
61200 
Channel: 10 Note ON:  A#3 key: 58 velocity: 127
61200 
Channel: 10 Note ON:  C#4 key: 61 velocity: 127
61200 
Channel: 10 Note ON:  C#3 key: 49 velocity: 127
61202 
61202 
61281 
Channel: 10 Note ON:  C#4 key: 61 velocity: 0
61302 
Channel: 10 Note ON:  A#3 key: 58 velocity: 0
61320 
Channel: 10 Note ON:  F#3 key: 54 velocity: 127
61320 
Channel: 10 Note ON:  F#2 key: 42 velocity: 127
61331 
Channel: 10 Note ON:  C#3 key: 49 velocity: 0
61430 
Channel: 10 Note ON:  F#3 key: 54 velocity: 0
61440 
Channel: 10 Note ON:  A#3 key: 58 velocity: 127
61440 
Channel: 10 Note ON:  C#4 key: 61 velocity: 127
61451 
61452 
61538 
Channel: 10 Note ON:  C#4 key: 61 velocity: 0
61560 
Channel: 10 Note ON:  F#3 key: 54 velocity: 127
61562 
Channel: 10 Note ON:  A#3 key: 58 velocity: 0
61661 
Channel: 10 Note ON:  F#3 key: 54 velocity: 0
61680 
Channel: 10 Note ON:  C#4 key: 61 velocity: 127
61680 
Channel: 10 Note ON:  A#3 key: 58 velocity: 127
61774 
Channel: 10 Note ON:  C#4 key: 61 velocity: 0
61800 
Channel: 10 Note ON:  A#3 key: 58 velocity: 0
61800 
Channel: 10 Note ON:  F#3 key: 54 velocity: 127
61920 
Channel: 10 Note ON:  C#4 key: 61 velocity: 127
61920 
Channel: 10 Note ON:  A#3 key: 58 velocity: 127
61923 
Channel: 10 Note ON:  F#3 key: 54 velocity: 0
62029 
Channel: 10 Note ON:  C#4 key: 61 velocity: 0
62040 
Channel: 10 Note ON:  C3 key: 48 velocity: 127
62040 
Channel: 10 Note ON:  F#3 key: 54 velocity: 127
62066 
Channel: 10 Note ON:  A#3 key: 58 velocity: 0
62137 
Channel: 10 Note ON:  F#3 key: 54 velocity: 0
62160 
Channel: 10 Note ON:  C#3 key: 49 velocity: 127
62160 
Channel: 10 Note ON:  A#3 key: 58 velocity: 127
62160 
Channel: 10 Note ON:  C#4 key: 61 velocity: 127
62161 
Channel: 10 Note ON:  C3 key: 48 velocity: 0
62180 
Channel: 10 Note ON:  F#2 key: 42 velocity: 0
62230 
Channel: 10 Note ON:  A#3 key: 58 velocity: 0
62258 
Channel: 10 Note ON:  C#4 key: 61 velocity: 0
62280 
Channel: 10 Note ON:  F#3 key: 54 velocity: 127
62367 
62367 
62390 
Channel: 10 Note ON:  F#3 key: 54 velocity: 0
62400 
Channel: 10 Note ON:  C#2 key: 37 velocity: 127
62400 
Channel: 10 Note ON:  F4 key: 65 velocity: 127
62400 
Channel: 10 Note ON:  C#4 key: 61 velocity: 127
62403 
Channel: 10 Note ON:  C#3 key: 49 velocity: 0
62513 
62513 
62520 
Channel: 10 Note ON:  G#3 key: 56 velocity: 127
62527 
Channel: 10 Note ON:  F4 key: 65 velocity: 0
62542 
Channel: 10 Note ON:  C#4 key: 61 velocity: 0
62640 
Channel: 10 Note ON:  F4 key: 65 velocity: 127
62640 
Channel: 10 Note ON:  C#4 key: 61 velocity: 127
62642 
Channel: 10 Note ON:  G#3 key: 56 velocity: 0
62720 
Channel: 10 Note ON:  F4 key: 65 velocity: 0
62760 
Channel: 10 Note ON:  G#3 key: 56 velocity: 127
62768 
Channel: 10 Note ON:  C#4 key: 61 velocity: 0
62856 
Channel: 10 Note ON:  C#2 key: 37 velocity: 0
62872 
Channel: 10 Note ON:  G#3 key: 56 velocity: 0
62880 
Channel: 10 Note ON:  F4 key: 65 velocity: 127
62880 
Channel: 10 Note ON:  C#4 key: 61 velocity: 127
62880 
Channel: 10 Note ON:  C#2 key: 37 velocity: 127
62949 
Channel: 10 Note ON:  F4 key: 65 velocity: 0
62998 
Channel: 10 Note ON:  C#4 key: 61 velocity: 0
63000 
Channel: 10 Note ON:  D#2 key: 39 velocity: 127
63000 
Channel: 10 Note ON:  G#3 key: 56 velocity: 127
63009 
Channel: 10 Note ON:  C#2 key: 37 velocity: 0
63088 
63088 
63103 
Channel: 10 Note ON:  D#2 key: 39 velocity: 0
63116 
Channel: 10 Note ON:  G#3 key: 56 velocity: 0
63120 
Channel: 10 Note ON:  C#4 key: 61 velocity: 127
63120 
Channel: 10 Note ON:  F4 key: 65 velocity: 127
63120 
Channel: 10 Note ON:  F2 key: 41 velocity: 127
63232 
Channel: 10 Note ON:  F4 key: 65 velocity: 0
63240 
Channel: 10 Note ON:  G#3 key: 56 velocity: 127
63240 
Channel: 10 Note ON:  G#2 key: 44 velocity: 127
63245 
Channel: 10 Note ON:  C#4 key: 61 velocity: 0
63247 
Channel: 10 Note ON:  F2 key: 41 velocity: 0
63360 
Channel: 10 Note ON:  D#4 key: 63 velocity: 127
63360 
Channel: 10 Note ON:  C4 key: 60 velocity: 127
63372 
Channel: 10 Note ON:  G#3 key: 56 velocity: 0
63465 
Channel: 10 Note ON:  D#4 key: 63 velocity: 0
63467 
63467 
63480 
Channel: 10 Note ON:  G#3 key: 56 velocity: 127
63487 
Channel: 10 Note ON:  C4 key: 60 velocity: 0
63592 
Channel: 10 Note ON:  G#3 key: 56 velocity: 0
63600 
Channel: 10 Note ON:  D#4 key: 63 velocity: 127
63600 
Channel: 10 Note ON:  C4 key: 60 velocity: 127
63704 
Channel: 10 Note ON:  D#4 key: 63 velocity: 0
63713 
Channel: 10 Note ON:  C4 key: 60 velocity: 0
63720 
Channel: 10 Note ON:  G#3 key: 56 velocity: 127
63840 
Channel: 10 Note ON:  D#4 key: 63 velocity: 127
63840 
Channel: 10 Note ON:  C4 key: 60 velocity: 127
63849 
Channel: 10 Note ON:  G#3 key: 56 velocity: 0
63947 
Channel: 10 Note ON:  D#4 key: 63 velocity: 0
63960 
Channel: 10 Note ON:  C4 key: 60 velocity: 0
63960 
Channel: 10 Note ON:  G#3 key: 56 velocity: 127
63960 
Channel: 10 Note ON:  A#2 key: 46 velocity: 127
63980 
Channel: 10 Note ON:  G#2 key: 44 velocity: 0
63987 
63987 
64076 
Channel: 10 Note ON:  A#2 key: 46 velocity: 0
64078 
Channel: 10 Note ON:  G#3 key: 56 velocity: 0
64080 
Channel: 10 Note ON:  D#4 key: 63 velocity: 127
64080 
Channel: 10 Note ON:  C4 key: 60 velocity: 127
64080 
Channel: 10 Note ON:  C3 key: 48 velocity: 127
64084 
64085 
64193 
Channel: 10 Note ON:  D#4 key: 63 velocity: 0
64194 
Channel: 10 Note ON:  C4 key: 60 velocity: 0
64200 
Channel: 10 Note ON:  C3 key: 48 velocity: 0
64200 
Channel: 10 Note ON:  F2 key: 41 velocity: 127
64200 
Channel: 10 Note ON:  G#3 key: 56 velocity: 127
64209 
64209 
64276 
Channel: 10 Note ON:  G#3 key: 56 velocity: 0
64312 
64313 
64320 
Channel: 10 Note ON:  C4 key: 60 velocity: 127
64320 
Channel: 10 Note ON:  G#3 key: 56 velocity: 127
64416 
Channel: 10 Note ON:  C4 key: 60 velocity: 0
64427 
Channel: 10 Note ON:  G#3 key: 56 velocity: 0
64440 
Channel: 10 Note ON:  F3 key: 53 velocity: 127
64530 
Channel: 10 Note ON:  F3 key: 53 velocity: 0
64560 
Channel: 10 Note ON:  C4 key: 60 velocity: 127
64560 
Channel: 10 Note ON:  G#3 key: 56 velocity: 127
64668 
Channel: 10 Note ON:  C4 key: 60 velocity: 0
64680 
Channel: 10 Note ON:  F3 key: 53 velocity: 127
64692 
Channel: 10 Note ON:  G#3 key: 56 velocity: 0
64755 
Channel: 10 Note ON:  F2 key: 41 velocity: 0
64776 
Channel: 10 Note ON:  F3 key: 53 velocity: 0
64800 
Channel: 10 Note ON:  C4 key: 60 velocity: 127
64800 
Channel: 10 Note ON:  F2 key: 41 velocity: 127
64800 
Channel: 10 Note ON:  G#3 key: 56 velocity: 127
64885 
Channel: 10 Note ON:  C4 key: 60 velocity: 0
64908 
Channel: 10 Note ON:  F2 key: 41 velocity: 0
64920 
Channel: 10 Note ON:  C#3 key: 49 velocity: 127
64920 
Channel: 10 Note ON:  F3 key: 53 velocity: 127
64948 
Channel: 10 Note ON:  G#3 key: 56 velocity: 0
65007 
Channel: 10 Note ON:  F3 key: 53 velocity: 0
65033 
Channel: 10 Note ON:  C#3 key: 49 velocity: 0
65040 
Channel: 10 Note ON:  G#3 key: 56 velocity: 127
65040 
Channel: 10 Note ON:  C4 key: 60 velocity: 127
65040 
Channel: 10 Note ON:  F2 key: 41 velocity: 127
65065 
65065 
65150 
Channel: 10 Note ON:  C4 key: 60 velocity: 0
65150 
Channel: 10 Note ON:  G#3 key: 56 velocity: 0
65160 
Channel: 10 Note ON:  F#2 key: 42 velocity: 127
65160 
Channel: 10 Note ON:  F3 key: 53 velocity: 127
65183 
Channel: 10 Note ON:  F2 key: 41 velocity: 0
65267 
Channel: 10 Note ON:  F3 key: 53 velocity: 0
65280 
Channel: 10 Note ON:  A#3 key: 58 velocity: 127
65280 
Channel: 10 Note ON:  C#4 key: 61 velocity: 127
65298 
65299 
65385 
Channel: 10 Note ON:  C#4 key: 61 velocity: 0
65400 
Channel: 10 Note ON:  F#3 key: 54 velocity: 127
65407 
Channel: 10 Note ON:  A#3 key: 58 velocity: 0
65501 
Channel: 10 Note ON:  F#3 key: 54 velocity: 0
65520 
Channel: 10 Note ON:  A#3 key: 58 velocity: 127
65520 
Channel: 10 Note ON:  C#4 key: 61 velocity: 127
65621 
Channel: 10 Note ON:  C#4 key: 61 velocity: 0
65640 
Channel: 10 Note ON:  A#3 key: 58 velocity: 0
65640 
Channel: 10 Note ON:  F#3 key: 54 velocity: 127
65749 
Channel: 10 Note ON:  F#3 key: 54 velocity: 0
65760 
Channel: 10 Note ON:  C#4 key: 61 velocity: 127
65760 
Channel: 10 Note ON:  A#3 key: 58 velocity: 127
65848 
Channel: 10 Note ON:  C#4 key: 61 velocity: 0
65880 
Channel: 10 Note ON:  F#3 key: 54 velocity: 127
65880 
Channel: 10 Note ON:  C3 key: 48 velocity: 127
65881 
Channel: 10 Note ON:  A#3 key: 58 velocity: 0
65910 
Channel: 10 Note ON:  F#2 key: 42 velocity: 0
65938 
65938 
66000 
Channel: 10 Note ON:  A#3 key: 58 velocity: 127
66000 
Channel: 10 Note ON:  C#4 key: 61 velocity: 127
66000 
Channel: 10 Note ON:  C#3 key: 49 velocity: 127
66007 
Channel: 10 Note ON:  C3 key: 48 velocity: 0
66015 
Channel: 10 Note ON:  F#3 key: 54 velocity: 0
66024 
66025 
66119 
Channel: 10 Note ON:  C#4 key: 61 velocity: 0
66120 
Channel: 10 Note ON:  F#3 key: 54 velocity: 127
66122 
66122 
66132 
Channel: 10 Note ON:  A#3 key: 58 velocity: 0
66198 
Channel: 10 Note ON:  C#3 key: 49 velocity: 0
66213 
Channel: 10 Note ON:  F#3 key: 54 velocity: 0
66240 
Channel: 10 Note ON:  C#2 key: 37 velocity: 127
66240 
Channel: 10 Note ON:  C#4 key: 61 velocity: 127
66240 
Channel: 10 Note ON:  F4 key: 65 velocity: 127
66281 
66282 
66336 
Channel: 10 Note ON:  F4 key: 65 velocity: 0
66360 
Channel: 10 Note ON:  G#3 key: 56 velocity: 127
66367 
Channel: 10 Note ON:  C#4 key: 61 velocity: 0
66472 
Channel: 10 Note ON:  G#3 key: 56 velocity: 0
66480 
Channel: 10 Note ON:  F4 key: 65 velocity: 127
66480 
Channel: 10 Note ON:  C#4 key: 61 velocity: 127
66564 
Channel: 10 Note ON:  F4 key: 65 velocity: 0
66600 
Channel: 10 Note ON:  G#3 key: 56 velocity: 127
66609 
Channel: 10 Note ON:  C#4 key: 61 velocity: 0
66702 
Channel: 10 Note ON:  G#3 key: 56 velocity: 0
66720 
Channel: 10 Note ON:  F4 key: 65 velocity: 127
66720 
Channel: 10 Note ON:  C#4 key: 61 velocity: 127
66817 
Channel: 10 Note ON:  F4 key: 65 velocity: 0
66840 
Channel: 10 Note ON:  D#2 key: 39 velocity: 127
66840 
Channel: 10 Note ON:  G#3 key: 56 velocity: 127
66848 
Channel: 10 Note ON:  C#4 key: 61 velocity: 0
66869 
Channel: 10 Note ON:  C#2 key: 37 velocity: 0
66958 
66959 
66960 
Channel: 10 Note ON:  C#4 key: 61 velocity: 127
66960 
Channel: 10 Note ON:  F4 key: 65 velocity: 127
66960 
Channel: 10 Note ON:  F2 key: 41 velocity: 127
66968 
Channel: 10 Note ON:  D#2 key: 39 velocity: 0
66970 
Channel: 10 Note ON:  G#3 key: 56 velocity: 0
67070 
Channel: 10 Note ON:  F4 key: 65 velocity: 0
67072 
Channel: 10 Note ON:  F2 key: 41 velocity: 0
67073 
Channel: 10 Note ON:  C#4 key: 61 velocity: 0
67080 
Channel: 10 Note ON:  G#3 key: 56 velocity: 127
67080 
Channel: 10 Note ON:  G#2 key: 44 velocity: 127
67200 
Channel: 10 Note ON:  D#4 key: 63 velocity: 127
67200 
Channel: 10 Note ON:  C4 key: 60 velocity: 127
67218 
Channel: 10 Note ON:  G#3 key: 56 velocity: 0
67308 
Channel: 10 Note ON:  D#4 key: 63 velocity: 0
67320 
Channel: 10 Note ON:  G#3 key: 56 velocity: 127
67332 
Channel: 10 Note ON:  C4 key: 60 velocity: 0
67440 
Channel: 10 Note ON:  D#4 key: 63 velocity: 127
67440 
Channel: 10 Note ON:  C4 key: 60 velocity: 127
67440 
67441 
67448 
Channel: 10 Note ON:  G#3 key: 56 velocity: 0
67552 
Channel: 10 Note ON:  D#4 key: 63 velocity: 0
67560 
Channel: 10 Note ON:  C4 key: 60 velocity: 0
67560 
Channel: 10 Note ON:  G#3 key: 56 velocity: 127
67666 
Channel: 10 Note ON:  G#3 key: 56 velocity: 0
67680 
Channel: 10 Note ON:  D#4 key: 63 velocity: 127
67680 
Channel: 10 Note ON:  C4 key: 60 velocity: 127
67779 
Channel: 10 Note ON:  D#4 key: 63 velocity: 0
67800 
Channel: 10 Note ON:  G#3 key: 56 velocity: 127
67800 
Channel: 10 Note ON:  A#2 key: 46 velocity: 127
67802 
Channel: 10 Note ON:  C4 key: 60 velocity: 0
67813 
Channel: 10 Note ON:  G#2 key: 44 velocity: 0
67814 
67815 
67906 
Channel: 10 Note ON:  G#3 key: 56 velocity: 0
67920 
Channel: 10 Note ON:  C3 key: 48 velocity: 127
67920 
Channel: 10 Note ON:  D#4 key: 63 velocity: 127
67920 
Channel: 10 Note ON:  C4 key: 60 velocity: 127
67924 
Channel: 10 Note ON:  A#2 key: 46 velocity: 0
67939 
67940 
68012 
Channel: 10 Note ON:  D#4 key: 63 velocity: 0
68028 
Channel: 10 Note ON:  C3 key: 48 velocity: 0
68033 
Channel: 10 Note ON:  C4 key: 60 velocity: 0
68040 
Channel: 10 Note ON:  A#2 key: 46 velocity: 127
68040 
Channel: 10 Note ON:  G#3 key: 56 velocity: 127
68053 
68053 
68111 
Channel: 10 Note ON:  G#3 key: 56 velocity: 0
68160 
Channel: 10 Note ON:  C#4 key: 61 velocity: 127
68160 
Channel: 10 Note ON:  A#3 key: 58 velocity: 127
68204 
68205 
68246 
Channel: 10 Note ON:  C#4 key: 61 velocity: 0
68280 
Channel: 10 Note ON:  A#3 key: 58 velocity: 0
68280 
Channel: 10 Note ON:  F3 key: 53 velocity: 127
68365 
Channel: 10 Note ON:  F3 key: 53 velocity: 0
68400 
Channel: 10 Note ON:  C#4 key: 61 velocity: 127
68400 
Channel: 10 Note ON:  A#3 key: 58 velocity: 127
68488 
Channel: 10 Note ON:  C#4 key: 61 velocity: 0
68516 
Channel: 10 Note ON:  A#3 key: 58 velocity: 0
68520 
Channel: 10 Note ON:  F3 key: 53 velocity: 127
68609 
Channel: 10 Note ON:  F3 key: 53 velocity: 0
68640 
Channel: 10 Note ON:  C#4 key: 61 velocity: 127
68640 
Channel: 10 Note ON:  A#3 key: 58 velocity: 127
68722 
Channel: 10 Note ON:  C#4 key: 61 velocity: 0
68755 
Channel: 10 Note ON:  A#3 key: 58 velocity: 0
68760 
Channel: 10 Note ON:  C3 key: 48 velocity: 127
68760 
Channel: 10 Note ON:  F3 key: 53 velocity: 127
68837 
Channel: 10 Note ON:  F3 key: 53 velocity: 0
68854 
Channel: 10 Note ON:  A#2 key: 46 velocity: 0
68866 
Channel: 10 Note ON:  C3 key: 48 velocity: 0
68880 
Channel: 10 Note ON:  A#3 key: 58 velocity: 127
68880 
Channel: 10 Note ON:  C#4 key: 61 velocity: 127
68880 
Channel: 10 Note ON:  C#3 key: 49 velocity: 127
68882 
68882 
68961 
Channel: 10 Note ON:  C#4 key: 61 velocity: 0
68982 
Channel: 10 Note ON:  A#3 key: 58 velocity: 0
69000 
Channel: 10 Note ON:  F#3 key: 54 velocity: 127
69000 
Channel: 10 Note ON:  F#2 key: 42 velocity: 127
69011 
Channel: 10 Note ON:  C#3 key: 49 velocity: 0
69110 
Channel: 10 Note ON:  F#3 key: 54 velocity: 0
69120 
Channel: 10 Note ON:  A#3 key: 58 velocity: 127
69120 
Channel: 10 Note ON:  C#4 key: 61 velocity: 127
69131 
69132 
69218 
Channel: 10 Note ON:  C#4 key: 61 velocity: 0
69240 
Channel: 10 Note ON:  F#3 key: 54 velocity: 127
69242 
Channel: 10 Note ON:  A#3 key: 58 velocity: 0
69341 
Channel: 10 Note ON:  F#3 key: 54 velocity: 0
69360 
Channel: 10 Note ON:  C#4 key: 61 velocity: 127
69360 
Channel: 10 Note ON:  A#3 key: 58 velocity: 127
69454 
Channel: 10 Note ON:  C#4 key: 61 velocity: 0
69480 
Channel: 10 Note ON:  A#3 key: 58 velocity: 0
69480 
Channel: 10 Note ON:  F#3 key: 54 velocity: 127
69600 
Channel: 10 Note ON:  C#4 key: 61 velocity: 127
69600 
Channel: 10 Note ON:  A#3 key: 58 velocity: 127
69603 
Channel: 10 Note ON:  F#3 key: 54 velocity: 0
69709 
Channel: 10 Note ON:  C#4 key: 61 velocity: 0
69720 
Channel: 10 Note ON:  C3 key: 48 velocity: 127
69720 
Channel: 10 Note ON:  F#3 key: 54 velocity: 127
69746 
Channel: 10 Note ON:  A#3 key: 58 velocity: 0
69817 
Channel: 10 Note ON:  F#3 key: 54 velocity: 0
69840 
Channel: 10 Note ON:  C#3 key: 49 velocity: 127
69840 
Channel: 10 Note ON:  A#3 key: 58 velocity: 127
69840 
Channel: 10 Note ON:  C#4 key: 61 velocity: 127
69841 
Channel: 10 Note ON:  C3 key: 48 velocity: 0
69860 
Channel: 10 Note ON:  F#2 key: 42 velocity: 0
69910 
Channel: 10 Note ON:  A#3 key: 58 velocity: 0
69938 
Channel: 10 Note ON:  C#4 key: 61 velocity: 0
69960 
Channel: 10 Note ON:  F#3 key: 54 velocity: 127
70047 
70047 
70070 
Channel: 10 Note ON:  F#3 key: 54 velocity: 0
70080 
Channel: 10 Note ON:  C#2 key: 37 velocity: 127
70080 
Channel: 10 Note ON:  F4 key: 65 velocity: 127
70080 
Channel: 10 Note ON:  C#4 key: 61 velocity: 127
70083 
Channel: 10 Note ON:  C#3 key: 49 velocity: 0
70193 
70193 
70200 
Channel: 10 Note ON:  G#3 key: 56 velocity: 127
70207 
Channel: 10 Note ON:  F4 key: 65 velocity: 0
70222 
Channel: 10 Note ON:  C#4 key: 61 velocity: 0
70320 
Channel: 10 Note ON:  F4 key: 65 velocity: 127
70320 
Channel: 10 Note ON:  C#4 key: 61 velocity: 127
70322 
Channel: 10 Note ON:  G#3 key: 56 velocity: 0
70400 
Channel: 10 Note ON:  F4 key: 65 velocity: 0
70440 
Channel: 10 Note ON:  G#3 key: 56 velocity: 127
70448 
Channel: 10 Note ON:  C#4 key: 61 velocity: 0
70536 
Channel: 10 Note ON:  C#2 key: 37 velocity: 0
70552 
Channel: 10 Note ON:  G#3 key: 56 velocity: 0
70560 
Channel: 10 Note ON:  F4 key: 65 velocity: 127
70560 
Channel: 10 Note ON:  C#4 key: 61 velocity: 127
70560 
Channel: 10 Note ON:  C#2 key: 37 velocity: 127
70629 
Channel: 10 Note ON:  F4 key: 65 velocity: 0
70678 
Channel: 10 Note ON:  C#4 key: 61 velocity: 0
70680 
Channel: 10 Note ON:  D#2 key: 39 velocity: 127
70680 
Channel: 10 Note ON:  G#3 key: 56 velocity: 127
70689 
Channel: 10 Note ON:  C#2 key: 37 velocity: 0
70768 
70768 
70783 
Channel: 10 Note ON:  D#2 key: 39 velocity: 0
70796 
Channel: 10 Note ON:  G#3 key: 56 velocity: 0
70800 
Channel: 10 Note ON:  C#4 key: 61 velocity: 127
70800 
Channel: 10 Note ON:  F4 key: 65 velocity: 127
70800 
Channel: 10 Note ON:  F2 key: 41 velocity: 127
70912 
Channel: 10 Note ON:  F4 key: 65 velocity: 0
70920 
Channel: 10 Note ON:  G#3 key: 56 velocity: 127
70920 
Channel: 10 Note ON:  G#2 key: 44 velocity: 127
70925 
Channel: 10 Note ON:  C#4 key: 61 velocity: 0
70927 
Channel: 10 Note ON:  F2 key: 41 velocity: 0
71040 
Channel: 10 Note ON:  D#4 key: 63 velocity: 127
71040 
Channel: 10 Note ON:  C4 key: 60 velocity: 127
71052 
Channel: 10 Note ON:  G#3 key: 56 velocity: 0
71145 
Channel: 10 Note ON:  D#4 key: 63 velocity: 0
71147 
71147 
71160 
Channel: 10 Note ON:  G#3 key: 56 velocity: 127
71167 
Channel: 10 Note ON:  C4 key: 60 velocity: 0
71272 
Channel: 10 Note ON:  G#3 key: 56 velocity: 0
71280 
Channel: 10 Note ON:  D#4 key: 63 velocity: 127
71280 
Channel: 10 Note ON:  C4 key: 60 velocity: 127
71384 
Channel: 10 Note ON:  D#4 key: 63 velocity: 0
71393 
Channel: 10 Note ON:  C4 key: 60 velocity: 0
71400 
Channel: 10 Note ON:  G#3 key: 56 velocity: 127
71520 
Channel: 10 Note ON:  D#4 key: 63 velocity: 127
71520 
Channel: 10 Note ON:  C4 key: 60 velocity: 127
71529 
Channel: 10 Note ON:  G#3 key: 56 velocity: 0
71627 
Channel: 10 Note ON:  D#4 key: 63 velocity: 0
71640 
Channel: 10 Note ON:  C4 key: 60 velocity: 0
71640 
Channel: 10 Note ON:  G#3 key: 56 velocity: 127
71640 
Channel: 10 Note ON:  A#2 key: 46 velocity: 127
71660 
Channel: 10 Note ON:  G#2 key: 44 velocity: 0
71667 
71667 
71756 
Channel: 10 Note ON:  A#2 key: 46 velocity: 0
71758 
Channel: 10 Note ON:  G#3 key: 56 velocity: 0
71760 
Channel: 10 Note ON:  D#4 key: 63 velocity: 127
71760 
Channel: 10 Note ON:  C4 key: 60 velocity: 127
71760 
Channel: 10 Note ON:  C3 key: 48 velocity: 127
71764 
71765 
71873 
Channel: 10 Note ON:  D#4 key: 63 velocity: 0
71874 
Channel: 10 Note ON:  C4 key: 60 velocity: 0
71880 
Channel: 10 Note ON:  C3 key: 48 velocity: 0
71880 
Channel: 10 Note ON:  F2 key: 41 velocity: 127
71880 
Channel: 10 Note ON:  G#3 key: 56 velocity: 127
71889 
71889 
71956 
Channel: 10 Note ON:  G#3 key: 56 velocity: 0
71992 
71993 
72000 
Channel: 10 Note ON:  C4 key: 60 velocity: 127
72000 
Channel: 10 Note ON:  G#3 key: 56 velocity: 127
72096 
Channel: 10 Note ON:  C4 key: 60 velocity: 0
72107 
Channel: 10 Note ON:  G#3 key: 56 velocity: 0
72120 
Channel: 10 Note ON:  F3 key: 53 velocity: 127
72210 
Channel: 10 Note ON:  F3 key: 53 velocity: 0
72240 
Channel: 10 Note ON:  C4 key: 60 velocity: 127
72240 
Channel: 10 Note ON:  G#3 key: 56 velocity: 127
72348 
Channel: 10 Note ON:  C4 key: 60 velocity: 0
72360 
Channel: 10 Note ON:  F3 key: 53 velocity: 127
72372 
Channel: 10 Note ON:  G#3 key: 56 velocity: 0
72435 
Channel: 10 Note ON:  F2 key: 41 velocity: 0
72456 
Channel: 10 Note ON:  F3 key: 53 velocity: 0
72480 
Channel: 10 Note ON:  C4 key: 60 velocity: 127
72480 
Channel: 10 Note ON:  F2 key: 41 velocity: 127
72480 
Channel: 10 Note ON:  G#3 key: 56 velocity: 127
72565 
Channel: 10 Note ON:  C4 key: 60 velocity: 0
72588 
Channel: 10 Note ON:  F2 key: 41 velocity: 0
72600 
Channel: 10 Note ON:  C#3 key: 49 velocity: 127
72600 
Channel: 10 Note ON:  F3 key: 53 velocity: 127
72628 
Channel: 10 Note ON:  G#3 key: 56 velocity: 0
72687 
Channel: 10 Note ON:  F3 key: 53 velocity: 0
72713 
Channel: 10 Note ON:  C#3 key: 49 velocity: 0
72720 
Channel: 10 Note ON:  G#3 key: 56 velocity: 127
72720 
Channel: 10 Note ON:  C4 key: 60 velocity: 127
72720 
Channel: 10 Note ON:  F2 key: 41 velocity: 127
72745 
72745 
72830 
Channel: 10 Note ON:  C4 key: 60 velocity: 0
72830 
Channel: 10 Note ON:  G#3 key: 56 velocity: 0
72840 
Channel: 10 Note ON:  F#2 key: 42 velocity: 127
72840 
Channel: 10 Note ON:  F3 key: 53 velocity: 127
72863 
Channel: 10 Note ON:  F2 key: 41 velocity: 0
72947 
Channel: 10 Note ON:  F3 key: 53 velocity: 0
72960 
Channel: 10 Note ON:  A#3 key: 58 velocity: 127
72960 
Channel: 10 Note ON:  C#4 key: 61 velocity: 127
72978 
72979 
73065 
Channel: 10 Note ON:  C#4 key: 61 velocity: 0
73080 
Channel: 10 Note ON:  F#3 key: 54 velocity: 127
73087 
Channel: 10 Note ON:  A#3 key: 58 velocity: 0
73181 
Channel: 10 Note ON:  F#3 key: 54 velocity: 0
73200 
Channel: 10 Note ON:  A#3 key: 58 velocity: 127
73200 
Channel: 10 Note ON:  C#4 key: 61 velocity: 127
73301 
Channel: 10 Note ON:  C#4 key: 61 velocity: 0
73320 
Channel: 10 Note ON:  A#3 key: 58 velocity: 0
73320 
Channel: 10 Note ON:  F#3 key: 54 velocity: 127
73429 
Channel: 10 Note ON:  F#3 key: 54 velocity: 0
73440 
Channel: 10 Note ON:  C#4 key: 61 velocity: 127
73440 
Channel: 10 Note ON:  A#3 key: 58 velocity: 127
73528 
Channel: 10 Note ON:  C#4 key: 61 velocity: 0
73560 
Channel: 10 Note ON:  F#3 key: 54 velocity: 127
73560 
Channel: 10 Note ON:  C3 key: 48 velocity: 127
73561 
Channel: 10 Note ON:  A#3 key: 58 velocity: 0
73590 
Channel: 10 Note ON:  F#2 key: 42 velocity: 0
73618 
73618 
73680 
Channel: 10 Note ON:  A#3 key: 58 velocity: 127
73680 
Channel: 10 Note ON:  C#4 key: 61 velocity: 127
73680 
Channel: 10 Note ON:  C#3 key: 49 velocity: 127
73687 
Channel: 10 Note ON:  C3 key: 48 velocity: 0
73695 
Channel: 10 Note ON:  F#3 key: 54 velocity: 0
73704 
73705 
73799 
Channel: 10 Note ON:  C#4 key: 61 velocity: 0
73800 
Channel: 10 Note ON:  F#3 key: 54 velocity: 127
73802 
73802 
73812 
Channel: 10 Note ON:  A#3 key: 58 velocity: 0
73878 
Channel: 10 Note ON:  C#3 key: 49 velocity: 0
73893 
Channel: 10 Note ON:  F#3 key: 54 velocity: 0
73920 
Channel: 10 Note ON:  F#3 key: 54 velocity: 127
73920 
Channel: 10 Note ON:  F#2 key: 42 velocity: 127
73920 
Channel: 10 Note ON:  D#4 key: 63 velocity: 127
73920 
Channel: 10 Note ON:  A#3 key: 58 velocity: 127
73920 
73920 
74132 
Channel: 10 Note ON:  F#2 key: 42 velocity: 0
74139 
Channel: 10 Note ON:  D#4 key: 63 velocity: 0
74155 
Channel: 10 Note ON:  A#3 key: 58 velocity: 0
74165 
Channel: 10 Note ON:  F#3 key: 54 velocity: 0
74280 
Channel: 10 Note ON:  F#3 key: 54 velocity: 127
74280 
Channel: 10 Note ON:  F#2 key: 42 velocity: 127
74280 
Channel: 10 Note ON:  C#4 key: 61 velocity: 127
74280 
Channel: 10 Note ON:  A#3 key: 58 velocity: 127
74317 
74318 
74415 
74415 
74697 
Channel: 10 Note ON:  A#3 key: 58 velocity: 0
74699 
Channel: 10 Note ON:  C#4 key: 61 velocity: 0
74709 
Channel: 10 Note ON:  F#3 key: 54 velocity: 0
74774 
Channel: 10 Note ON:  F#2 key: 42 velocity: 0
74870 
74871 
74880 
Channel: 10 Note ON:  F#3 key: 54 velocity: 127
74880 
Channel: 10 Note ON:  F#2 key: 42 velocity: 127
74880 
Channel: 10 Note ON:  D#4 key: 63 velocity: 127
74880 
Channel: 10 Note ON:  A#3 key: 58 velocity: 127
74919 
74919 
74992 
Channel: 10 Note ON:  F#3 key: 54 velocity: 0
75010 
Channel: 10 Note ON:  A#3 key: 58 velocity: 0
75024 
Channel: 10 Note ON:  D#4 key: 63 velocity: 0
75056 
Channel: 10 Note ON:  F#2 key: 42 velocity: 0
75240 
Channel: 10 Note ON:  F#2 key: 42 velocity: 127
75240 
Channel: 10 Note ON:  A#3 key: 58 velocity: 127
75240 
Channel: 10 Note ON:  C#4 key: 61 velocity: 127
75240 
Channel: 10 Note ON:  F4 key: 65 velocity: 127
75244 
75244 
75298 
75299 
75361 
Channel: 10 Note ON:  C#4 key: 61 velocity: 0
75367 
Channel: 10 Note ON:  F4 key: 65 velocity: 0
75392 
Channel: 10 Note ON:  A#3 key: 58 velocity: 0
75432 
Channel: 10 Note ON:  F#2 key: 42 velocity: 0
75797 
75797 
75840 
Channel: 10 Note ON:  D#3 key: 51 velocity: 127
75840 
Channel: 10 Note ON:  C4 key: 60 velocity: 127
75840 
Channel: 10 Note ON:  C#2 key: 37 velocity: 127
75840 
Channel: 10 Note ON:  G#3 key: 56 velocity: 127
75851 
75851 
75917 
Channel: 10 Note ON:  G#3 key: 56 velocity: 0
75918 
Channel: 10 Note ON:  D#3 key: 51 velocity: 0
75918 
Channel: 10 Note ON:  C#2 key: 37 velocity: 0
75921 
Channel: 10 Note ON:  C4 key: 60 velocity: 0
75960 
Channel: 10 Note ON:  C4 key: 60 velocity: 127
75960 
Channel: 10 Note ON:  D#3 key: 51 velocity: 127
75960 
Channel: 10 Note ON:  G#3 key: 56 velocity: 127
75960 
Channel: 10 Note ON:  C#2 key: 37 velocity: 127
76039 
Channel: 10 Note ON:  D#3 key: 51 velocity: 0
76056 
Channel: 10 Note ON:  C4 key: 60 velocity: 0
76057 
Channel: 10 Note ON:  G#3 key: 56 velocity: 0
76062 
Channel: 10 Note ON:  C#2 key: 37 velocity: 0
76200 
Channel: 10 Note ON:  F3 key: 53 velocity: 127
76200 
Channel: 10 Note ON:  C#4 key: 61 velocity: 127
76200 
Channel: 10 Note ON:  G#3 key: 56 velocity: 127
76200 
Channel: 10 Note ON:  C#2 key: 37 velocity: 127
76235 
76236 
76322 
76323 
76518 
Channel: 10 Note ON:  G#3 key: 56 velocity: 0
76535 
Channel: 10 Note ON:  F3 key: 53 velocity: 0
76538 
Channel: 10 Note ON:  C#2 key: 37 velocity: 0
76542 
Channel: 10 Note ON:  C#4 key: 61 velocity: 0
76756 
76756 
76800 
Channel: 10 Note ON:  C4 key: 60 velocity: 127
76800 
Channel: 10 Note ON:  C#2 key: 37 velocity: 127
76800 
Channel: 10 Note ON:  D#3 key: 51 velocity: 127
76800 
Channel: 10 Note ON:  G#3 key: 56 velocity: 127
76810 
76810 
76874 
Channel: 10 Note ON:  D#3 key: 51 velocity: 0
76877 
Channel: 10 Note ON:  C#2 key: 37 velocity: 0
76879 
Channel: 10 Note ON:  C4 key: 60 velocity: 0
76883 
Channel: 10 Note ON:  G#3 key: 56 velocity: 0
76920 
Channel: 10 Note ON:  D#3 key: 51 velocity: 127
76920 
Channel: 10 Note ON:  C4 key: 60 velocity: 127
76920 
Channel: 10 Note ON:  C#2 key: 37 velocity: 127
76920 
Channel: 10 Note ON:  G#3 key: 56 velocity: 127
76979 
Channel: 10 Note ON:  D#3 key: 51 velocity: 0
76990 
Channel: 10 Note ON:  C#2 key: 37 velocity: 0
76995 
Channel: 10 Note ON:  C4 key: 60 velocity: 0
76999 
Channel: 10 Note ON:  G#3 key: 56 velocity: 0
77146 
77146 
77160 
Channel: 10 Note ON:  C#2 key: 37 velocity: 127
77160 
Channel: 10 Note ON:  C#4 key: 61 velocity: 127
77160 
Channel: 10 Note ON:  F3 key: 53 velocity: 127
77160 
Channel: 10 Note ON:  G#3 key: 56 velocity: 127
77265 
77265 
77410 
Channel: 10 Note ON:  F3 key: 53 velocity: 0
77414 
Channel: 10 Note ON:  G#3 key: 56 velocity: 0
77422 
Channel: 10 Note ON:  C#4 key: 61 velocity: 0
77736 
77737 
77760 
Channel: 10 Note ON:  F#2 key: 42 velocity: 127
77760 
Channel: 10 Note ON:  F#3 key: 54 velocity: 127
77760 
Channel: 10 Note ON:  D#4 key: 63 velocity: 127
77760 
Channel: 10 Note ON:  A#3 key: 58 velocity: 127
77767 
Channel: 10 Note ON:  C#2 key: 37 velocity: 0
77791 
77791 
77983 
Channel: 10 Note ON:  D#4 key: 63 velocity: 0
78016 
Channel: 10 Note ON:  A#3 key: 58 velocity: 0
78021 
Channel: 10 Note ON:  F#2 key: 42 velocity: 0
78023 
Channel: 10 Note ON:  F#3 key: 54 velocity: 0
78120 
Channel: 10 Note ON:  F#2 key: 42 velocity: 127
78120 
Channel: 10 Note ON:  C#4 key: 61 velocity: 127
78120 
Channel: 10 Note ON:  F#3 key: 54 velocity: 127
78120 
Channel: 10 Note ON:  A#3 key: 58 velocity: 127
78148 
78149 
78219 
78219 
78502 
Channel: 10 Note ON:  C#4 key: 61 velocity: 0
78507 
Channel: 10 Note ON:  A#3 key: 58 velocity: 0
78520 
Channel: 10 Note ON:  F#3 key: 54 velocity: 0
78569 
Channel: 10 Note ON:  F#2 key: 42 velocity: 0
78620 
78620 
78652 
78652 
78720 
Channel: 10 Note ON:  F#2 key: 42 velocity: 127
78720 
Channel: 10 Note ON:  D#4 key: 63 velocity: 127
78720 
Channel: 10 Note ON:  F#3 key: 54 velocity: 127
78720 
Channel: 10 Note ON:  A#3 key: 58 velocity: 127
78739 
78739 
78804 
78804 
78839 
Channel: 10 Note ON:  F#3 key: 54 velocity: 0
78858 
Channel: 10 Note ON:  A#3 key: 58 velocity: 0
78877 
Channel: 10 Note ON:  D#4 key: 63 velocity: 0
78884 
Channel: 10 Note ON:  F#2 key: 42 velocity: 0
79080 
Channel: 10 Note ON:  F#2 key: 42 velocity: 127
79080 
Channel: 10 Note ON:  A#3 key: 58 velocity: 127
79080 
Channel: 10 Note ON:  C#4 key: 61 velocity: 127
79080 
Channel: 10 Note ON:  F4 key: 65 velocity: 127
79102 
79102 
79156 
79156 
79193 
Channel: 10 Note ON:  C#4 key: 61 velocity: 0
79202 
Channel: 10 Note ON:  F4 key: 65 velocity: 0
79225 
Channel: 10 Note ON:  A#3 key: 58 velocity: 0
79406 
Channel: 10 Note ON:  F#2 key: 42 velocity: 0
79638 
79639 
79680 
Channel: 10 Note ON:  G#3 key: 56 velocity: 127
79680 
Channel: 10 Note ON:  C4 key: 60 velocity: 127
79680 
Channel: 10 Note ON:  C#2 key: 37 velocity: 127
79680 
Channel: 10 Note ON:  D#3 key: 51 velocity: 127
79687 
79688 
79762 
Channel: 10 Note ON:  C#2 key: 37 velocity: 0
79766 
Channel: 10 Note ON:  C4 key: 60 velocity: 0
79766 
Channel: 10 Note ON:  D#3 key: 51 velocity: 0
79769 
Channel: 10 Note ON:  G#3 key: 56 velocity: 0
79800 
Channel: 10 Note ON:  C4 key: 60 velocity: 127
79800 
Channel: 10 Note ON:  D#3 key: 51 velocity: 127
79800 
Channel: 10 Note ON:  G#3 key: 56 velocity: 127
79800 
Channel: 10 Note ON:  C#2 key: 37 velocity: 127
79883 
Channel: 10 Note ON:  D#3 key: 51 velocity: 0
79885 
Channel: 10 Note ON:  C#2 key: 37 velocity: 0
79896 
Channel: 10 Note ON:  C4 key: 60 velocity: 0
79901 
Channel: 10 Note ON:  G#3 key: 56 velocity: 0
80040 
Channel: 10 Note ON:  C#4 key: 61 velocity: 127
80040 
Channel: 10 Note ON:  C#2 key: 37 velocity: 127
80040 
Channel: 10 Note ON:  F3 key: 53 velocity: 127
80040 
Channel: 10 Note ON:  G#3 key: 56 velocity: 127
80061 
80061 
80142 
80143 
80404 
Channel: 10 Note ON:  G#3 key: 56 velocity: 0
80416 
Channel: 10 Note ON:  C#2 key: 37 velocity: 0
80423 
Channel: 10 Note ON:  F3 key: 53 velocity: 0
80424 
Channel: 10 Note ON:  C#4 key: 61 velocity: 0
80597 
80597 
80640 
Channel: 10 Note ON:  C4 key: 60 velocity: 127
80640 
Channel: 10 Note ON:  D#3 key: 51 velocity: 127
80640 
Channel: 10 Note ON:  C#2 key: 37 velocity: 127
80640 
Channel: 10 Note ON:  G#3 key: 56 velocity: 127
80646 
80647 
80794 
Channel: 10 Note ON:  D#3 key: 51 velocity: 0
80813 
Channel: 10 Note ON:  G#3 key: 56 velocity: 0
80814 
Channel: 10 Note ON:  C4 key: 60 velocity: 0
80835 
Channel: 10 Note ON:  C#2 key: 37 velocity: 0
81000 
Channel: 10 Note ON:  C#4 key: 61 velocity: 127
81000 
Channel: 10 Note ON:  F3 key: 53 velocity: 127
81000 
Channel: 10 Note ON:  C#2 key: 37 velocity: 127
81000 
Channel: 10 Note ON:  G#3 key: 56 velocity: 127
81015 
81015 
81096 
81096 
81141 
Channel: 10 Note ON:  F3 key: 53 velocity: 0
81158 
Channel: 10 Note ON:  G#3 key: 56 velocity: 0
81172 
Channel: 10 Note ON:  C#4 key: 61 velocity: 0
81557 
81557 
81584 
Channel: 10 Note ON:  C#2 key: 37 velocity: 0
81600 
Channel: 10 Note ON:  F#3 key: 54 velocity: 127
81600 
Channel: 10 Note ON:  F#2 key: 42 velocity: 127
81600 
Channel: 10 Note ON:  A#3 key: 58 velocity: 127
81600 
Channel: 10 Note ON:  D#4 key: 63 velocity: 127
81605 
81605 
81775 
Channel: 10 Note ON:  D#4 key: 63 velocity: 0
81776 
Channel: 10 Note ON:  F#2 key: 42 velocity: 0
81793 
Channel: 10 Note ON:  F#3 key: 54 velocity: 0
81795 
81795 
81804 
Channel: 10 Note ON:  A#3 key: 58 velocity: 0
81827 
81828 
81960 
Channel: 10 Note ON:  F#3 key: 54 velocity: 127
81960 
Channel: 10 Note ON:  C#4 key: 61 velocity: 127
81960 
Channel: 10 Note ON:  F#2 key: 42 velocity: 127
81960 
Channel: 10 Note ON:  A#3 key: 58 velocity: 127
81995 
81996 
82049 
82050 
82264 
Channel: 10 Note ON:  C#4 key: 61 velocity: 0
82282 
Channel: 10 Note ON:  A#3 key: 58 velocity: 0
82289 
Channel: 10 Note ON:  F#3 key: 54 velocity: 0
82338 
Channel: 10 Note ON:  F#2 key: 42 velocity: 0
82521 
82521 
82560 
Channel: 10 Note ON:  F#2 key: 42 velocity: 127
82560 
Channel: 10 Note ON:  F#3 key: 54 velocity: 127
82560 
Channel: 10 Note ON:  A#3 key: 58 velocity: 127
82560 
Channel: 10 Note ON:  D#4 key: 63 velocity: 127
82575 
82575 
82670 
Channel: 10 Note ON:  F#3 key: 54 velocity: 0
82671 
Channel: 10 Note ON:  A#3 key: 58 velocity: 0
82700 
Channel: 10 Note ON:  D#4 key: 63 velocity: 0
82705 
Channel: 10 Note ON:  F#2 key: 42 velocity: 0
82737 
82738 
82781 
82781 
82920 
Channel: 10 Note ON:  A#3 key: 58 velocity: 127
82920 
Channel: 10 Note ON:  F#2 key: 42 velocity: 127
82920 
Channel: 10 Note ON:  C#4 key: 61 velocity: 127
82920 
Channel: 10 Note ON:  F4 key: 65 velocity: 127
82938 
82938 
82981 
82982 
83164 
Channel: 10 Note ON:  C#4 key: 61 velocity: 0
83166 
Channel: 10 Note ON:  F4 key: 65 velocity: 0
83198 
Channel: 10 Note ON:  A#3 key: 58 velocity: 0
83280 
Channel: 10 Note ON:  F#2 key: 42 velocity: 0
83463 
83464 
83520 
Channel: 10 Note ON:  C4 key: 60 velocity: 127
83520 
Channel: 10 Note ON:  D#3 key: 51 velocity: 127
83520 
Channel: 10 Note ON:  G#3 key: 56 velocity: 127
83520 
Channel: 10 Note ON:  C#2 key: 37 velocity: 127
83523 
83524 
83587 
Channel: 10 Note ON:  C4 key: 60 velocity: 0
83594 
Channel: 10 Note ON:  D#3 key: 51 velocity: 0
83596 
Channel: 10 Note ON:  C#2 key: 37 velocity: 0
83611 
Channel: 10 Note ON:  G#3 key: 56 velocity: 0
83640 
Channel: 10 Note ON:  C4 key: 60 velocity: 127
83640 
Channel: 10 Note ON:  C#2 key: 37 velocity: 127
83640 
Channel: 10 Note ON:  G#3 key: 56 velocity: 127
83640 
Channel: 10 Note ON:  D#3 key: 51 velocity: 127
83718 
Channel: 10 Note ON:  D#3 key: 51 velocity: 0
83731 
Channel: 10 Note ON:  C#2 key: 37 velocity: 0
83735 
Channel: 10 Note ON:  G#3 key: 56 velocity: 0
83738 
Channel: 10 Note ON:  C4 key: 60 velocity: 0
83880 
Channel: 10 Note ON:  C#2 key: 37 velocity: 127
83880 
Channel: 10 Note ON:  G#3 key: 56 velocity: 127
83880 
Channel: 10 Note ON:  C#4 key: 61 velocity: 127
83880 
Channel: 10 Note ON:  F3 key: 53 velocity: 127
83892 
83892 
83978 
83979 
84290 
Channel: 10 Note ON:  C#2 key: 37 velocity: 0
84293 
Channel: 10 Note ON:  G#3 key: 56 velocity: 0
84299 
Channel: 10 Note ON:  C#4 key: 61 velocity: 0
84300 
Channel: 10 Note ON:  F3 key: 53 velocity: 0
84450 
84450 
84480 
Channel: 10 Note ON:  C4 key: 60 velocity: 127
84480 
Channel: 10 Note ON:  D#3 key: 51 velocity: 127
84480 
Channel: 10 Note ON:  G#3 key: 56 velocity: 127
84480 
Channel: 10 Note ON:  C#2 key: 37 velocity: 127
84493 
84493 
84551 
Channel: 10 Note ON:  C4 key: 60 velocity: 0
84557 
Channel: 10 Note ON:  D#3 key: 51 velocity: 0
84561 
Channel: 10 Note ON:  G#3 key: 56 velocity: 0
84563 
Channel: 10 Note ON:  C#2 key: 37 velocity: 0
84600 
Channel: 10 Note ON:  C4 key: 60 velocity: 127
84600 
Channel: 10 Note ON:  C#2 key: 37 velocity: 127
84600 
Channel: 10 Note ON:  D#3 key: 51 velocity: 127
84600 
Channel: 10 Note ON:  G#3 key: 56 velocity: 127
84662 
Channel: 10 Note ON:  D#3 key: 51 velocity: 0
84669 
Channel: 10 Note ON:  C4 key: 60 velocity: 0
84675 
Channel: 10 Note ON:  G#3 key: 56 velocity: 0
84681 
Channel: 10 Note ON:  C#2 key: 37 velocity: 0
84840 
Channel: 10 Note ON:  C#4 key: 61 velocity: 127
84840 
Channel: 10 Note ON:  F3 key: 53 velocity: 127
84840 
Channel: 10 Note ON:  C#2 key: 37 velocity: 127
84840 
Channel: 10 Note ON:  G#3 key: 56 velocity: 127
84851 
84851 
84932 
84932 
85053 
Channel: 10 Note ON:  C#4 key: 61 velocity: 0
85080 
Channel: 10 Note ON:  C#4 key: 61 velocity: 127
85216 
Channel: 10 Note ON:  G#3 key: 56 velocity: 0
85242 
Channel: 10 Note ON:  F3 key: 53 velocity: 0
85255 
Channel: 10 Note ON:  C#4 key: 61 velocity: 0
85425 
85425 
85440 
Channel: 10 Note ON:  F#3 key: 54 velocity: 127
85440 
Channel: 10 Note ON:  D#4 key: 63 velocity: 127
85440 
Channel: 10 Note ON:  F#2 key: 42 velocity: 127
85440 
Channel: 10 Note ON:  A#3 key: 58 velocity: 127
85464 
Channel: 10 Note ON:  C#2 key: 37 velocity: 0
85496 
85496 
85651 
Channel: 10 Note ON:  D#4 key: 63 velocity: 0
85691 
Channel: 10 Note ON:  F#3 key: 54 velocity: 0
85710 
Channel: 10 Note ON:  A#3 key: 58 velocity: 0
85718 
Channel: 10 Note ON:  F#2 key: 42 velocity: 0
85800 
Channel: 10 Note ON:  F#2 key: 42 velocity: 127
85800 
Channel: 10 Note ON:  F#3 key: 54 velocity: 127
85800 
Channel: 10 Note ON:  C#4 key: 61 velocity: 127
85800 
Channel: 10 Note ON:  A#3 key: 58 velocity: 127
85815 
85816 
85891 
85891 
86076 
Channel: 10 Note ON:  A#3 key: 58 velocity: 0
86103 
Channel: 10 Note ON:  C#4 key: 61 velocity: 0
86129 
Channel: 10 Note ON:  F#3 key: 54 velocity: 0
86155 
Channel: 10 Note ON:  F#2 key: 42 velocity: 0
86384 
86385 
86400 
Channel: 10 Note ON:  F#3 key: 54 velocity: 127
86400 
Channel: 10 Note ON:  F#2 key: 42 velocity: 127
86400 
Channel: 10 Note ON:  D#4 key: 63 velocity: 127
86400 
Channel: 10 Note ON:  A#3 key: 58 velocity: 127
86422 
86423 
86485 
Channel: 10 Note ON:  F#3 key: 54 velocity: 0
86497 
Channel: 10 Note ON:  A#3 key: 58 velocity: 0
86513 
Channel: 10 Note ON:  D#4 key: 63 velocity: 0
86524 
Channel: 10 Note ON:  F#2 key: 42 velocity: 0
86758 
86758 
86760 
Channel: 10 Note ON:  F#2 key: 42 velocity: 127
86760 
Channel: 10 Note ON:  C#4 key: 61 velocity: 127
86760 
Channel: 10 Note ON:  A#3 key: 58 velocity: 127
86760 
Channel: 10 Note ON:  F4 key: 65 velocity: 127
86818 
86818 
86933 
Channel: 10 Note ON:  C#4 key: 61 velocity: 0
86949 
Channel: 10 Note ON:  A#3 key: 58 velocity: 0
86958 
Channel: 10 Note ON:  F4 key: 65 velocity: 0
87121 
Channel: 10 Note ON:  F#2 key: 42 velocity: 0
87300 
87300 
87354 
87354 
87360 
Channel: 10 Note ON:  G#2 key: 44 velocity: 127
87360 
Channel: 10 Note ON:  C4 key: 60 velocity: 127
87360 
Channel: 10 Note ON:  D#4 key: 63 velocity: 127
87360 
Channel: 10 Note ON:  G#4 key: 68 velocity: 127
87472 
Channel: 10 Note ON:  C4 key: 60 velocity: 0
87542 
Channel: 10 Note ON:  G#4 key: 68 velocity: 0
87572 
Channel: 10 Note ON:  G#2 key: 44 velocity: 0
87600 
Channel: 10 Note ON:  G#2 key: 44 velocity: 127
87602 
Channel: 10 Note ON:  D#4 key: 63 velocity: 0
87706 
Channel: 10 Note ON:  G#2 key: 44 velocity: 0
87717 
87717 
87720 
Channel: 10 Note ON:  C#4 key: 61 velocity: 127
87720 
Channel: 10 Note ON:  F4 key: 65 velocity: 127
87720 
Channel: 10 Note ON:  G#4 key: 68 velocity: 127
87720 
Channel: 10 Note ON:  C#2 key: 37 velocity: 127
87874 
87875 
87993 
Channel: 10 Note ON:  G#4 key: 68 velocity: 0
88023 
Channel: 10 Note ON:  C#4 key: 61 velocity: 0
88068 
Channel: 10 Note ON:  F4 key: 65 velocity: 0
88165 
Channel: 10 Note ON:  C#2 key: 37 velocity: 0
88320 
Channel: 10 Note ON:  G#2 key: 44 velocity: 127
88320 
Channel: 10 Note ON:  G#4 key: 68 velocity: 127
88320 
Channel: 10 Note ON:  D#4 key: 63 velocity: 127
88320 
Channel: 10 Note ON:  C4 key: 60 velocity: 127
88397 
Channel: 10 Note ON:  C4 key: 60 velocity: 0
88420 
Channel: 10 Note ON:  G#4 key: 68 velocity: 0
88431 
Channel: 10 Note ON:  D#4 key: 63 velocity: 0
88468 
Channel: 10 Note ON:  G#2 key: 44 velocity: 0
88560 
Channel: 10 Note ON:  C#4 key: 61 velocity: 127
88560 
Channel: 10 Note ON:  C#2 key: 37 velocity: 127
88576 
Channel: 10 Note ON:  C#4 key: 61 velocity: 0
88640 
Channel: 10 Note ON:  C#2 key: 37 velocity: 0
88680 
Channel: 10 Note ON:  A#3 key: 58 velocity: 127
88680 
Channel: 10 Note ON:  F#4 key: 66 velocity: 127
88680 
Channel: 10 Note ON:  F#2 key: 42 velocity: 127
88680 
Channel: 10 Note ON:  C#4 key: 61 velocity: 127
88687 
88687 
88985 
88985 
89196 
89197 
89238 
Channel: 10 Note ON:  A#3 key: 58 velocity: 0
89241 
Channel: 10 Note ON:  C#4 key: 61 velocity: 0
89248 
Channel: 10 Note ON:  F#4 key: 66 velocity: 0
89261 
Channel: 10 Note ON:  F#2 key: 42 velocity: 0
89280 
Channel: 10 Note ON:  C#2 key: 37 velocity: 127
89280 
Channel: 10 Note ON:  C#4 key: 61 velocity: 127
89280 
Channel: 10 Note ON:  F4 key: 65 velocity: 127
89321 
89322 
89376 
Channel: 10 Note ON:  F4 key: 65 velocity: 0
89400 
Channel: 10 Note ON:  G#3 key: 56 velocity: 127
89407 
Channel: 10 Note ON:  C#4 key: 61 velocity: 0
89512 
Channel: 10 Note ON:  G#3 key: 56 velocity: 0
89520 
Channel: 10 Note ON:  F4 key: 65 velocity: 127
89520 
Channel: 10 Note ON:  C#4 key: 61 velocity: 127
89604 
Channel: 10 Note ON:  F4 key: 65 velocity: 0
89640 
Channel: 10 Note ON:  G#3 key: 56 velocity: 127
89649 
Channel: 10 Note ON:  C#4 key: 61 velocity: 0
89742 
Channel: 10 Note ON:  G#3 key: 56 velocity: 0
89760 
Channel: 10 Note ON:  F4 key: 65 velocity: 127
89760 
Channel: 10 Note ON:  C#4 key: 61 velocity: 127
89857 
Channel: 10 Note ON:  F4 key: 65 velocity: 0
89880 
Channel: 10 Note ON:  D#2 key: 39 velocity: 127
89880 
Channel: 10 Note ON:  G#3 key: 56 velocity: 127
89888 
Channel: 10 Note ON:  C#4 key: 61 velocity: 0
89909 
Channel: 10 Note ON:  C#2 key: 37 velocity: 0
89998 
89999 
90000 
Channel: 10 Note ON:  C#4 key: 61 velocity: 127
90000 
Channel: 10 Note ON:  F4 key: 65 velocity: 127
90000 
Channel: 10 Note ON:  F2 key: 41 velocity: 127
90008 
Channel: 10 Note ON:  D#2 key: 39 velocity: 0
90010 
Channel: 10 Note ON:  G#3 key: 56 velocity: 0
90110 
Channel: 10 Note ON:  F4 key: 65 velocity: 0
90112 
Channel: 10 Note ON:  F2 key: 41 velocity: 0
90113 
Channel: 10 Note ON:  C#4 key: 61 velocity: 0
90120 
Channel: 10 Note ON:  G#3 key: 56 velocity: 127
90120 
Channel: 10 Note ON:  G#2 key: 44 velocity: 127
90240 
Channel: 10 Note ON:  D#4 key: 63 velocity: 127
90240 
Channel: 10 Note ON:  C4 key: 60 velocity: 127
90258 
Channel: 10 Note ON:  G#3 key: 56 velocity: 0
90348 
Channel: 10 Note ON:  D#4 key: 63 velocity: 0
90360 
Channel: 10 Note ON:  G#3 key: 56 velocity: 127
90372 
Channel: 10 Note ON:  C4 key: 60 velocity: 0
90480 
Channel: 10 Note ON:  D#4 key: 63 velocity: 127
90480 
Channel: 10 Note ON:  C4 key: 60 velocity: 127
90480 
90481 
90488 
Channel: 10 Note ON:  G#3 key: 56 velocity: 0
90592 
Channel: 10 Note ON:  D#4 key: 63 velocity: 0
90600 
Channel: 10 Note ON:  C4 key: 60 velocity: 0
90600 
Channel: 10 Note ON:  G#3 key: 56 velocity: 127
90706 
Channel: 10 Note ON:  G#3 key: 56 velocity: 0
90720 
Channel: 10 Note ON:  D#4 key: 63 velocity: 127
90720 
Channel: 10 Note ON:  C4 key: 60 velocity: 127
90819 
Channel: 10 Note ON:  D#4 key: 63 velocity: 0
90840 
Channel: 10 Note ON:  G#3 key: 56 velocity: 127
90840 
Channel: 10 Note ON:  A#2 key: 46 velocity: 127
90842 
Channel: 10 Note ON:  C4 key: 60 velocity: 0
90853 
Channel: 10 Note ON:  G#2 key: 44 velocity: 0
90854 
90855 
90946 
Channel: 10 Note ON:  G#3 key: 56 velocity: 0
90960 
Channel: 10 Note ON:  C3 key: 48 velocity: 127
90960 
Channel: 10 Note ON:  D#4 key: 63 velocity: 127
90960 
Channel: 10 Note ON:  C4 key: 60 velocity: 127
90964 
Channel: 10 Note ON:  A#2 key: 46 velocity: 0
90979 
90980 
91052 
Channel: 10 Note ON:  D#4 key: 63 velocity: 0
91068 
Channel: 10 Note ON:  C3 key: 48 velocity: 0
91073 
Channel: 10 Note ON:  C4 key: 60 velocity: 0
91080 
Channel: 10 Note ON:  A#2 key: 46 velocity: 127
91080 
Channel: 10 Note ON:  G#3 key: 56 velocity: 127
91093 
91093 
91151 
Channel: 10 Note ON:  G#3 key: 56 velocity: 0
91200 
Channel: 10 Note ON:  C#4 key: 61 velocity: 127
91200 
Channel: 10 Note ON:  A#3 key: 58 velocity: 127
91244 
91245 
91286 
Channel: 10 Note ON:  C#4 key: 61 velocity: 0
91320 
Channel: 10 Note ON:  A#3 key: 58 velocity: 0
91320 
Channel: 10 Note ON:  F3 key: 53 velocity: 127
91405 
Channel: 10 Note ON:  F3 key: 53 velocity: 0
91440 
Channel: 10 Note ON:  C#4 key: 61 velocity: 127
91440 
Channel: 10 Note ON:  A#3 key: 58 velocity: 127
91528 
Channel: 10 Note ON:  C#4 key: 61 velocity: 0
91556 
Channel: 10 Note ON:  A#3 key: 58 velocity: 0
91560 
Channel: 10 Note ON:  F3 key: 53 velocity: 127
91649 
Channel: 10 Note ON:  F3 key: 53 velocity: 0
91680 
Channel: 10 Note ON:  C#4 key: 61 velocity: 127
91680 
Channel: 10 Note ON:  A#3 key: 58 velocity: 127
91762 
Channel: 10 Note ON:  C#4 key: 61 velocity: 0
91795 
Channel: 10 Note ON:  A#3 key: 58 velocity: 0
91800 
Channel: 10 Note ON:  C3 key: 48 velocity: 127
91800 
Channel: 10 Note ON:  F3 key: 53 velocity: 127
91877 
Channel: 10 Note ON:  F3 key: 53 velocity: 0
91894 
Channel: 10 Note ON:  A#2 key: 46 velocity: 0
91906 
Channel: 10 Note ON:  C3 key: 48 velocity: 0
91920 
Channel: 10 Note ON:  A#3 key: 58 velocity: 127
91920 
Channel: 10 Note ON:  C#4 key: 61 velocity: 127
91920 
Channel: 10 Note ON:  C#3 key: 49 velocity: 127
91922 
91922 
92001 
Channel: 10 Note ON:  C#4 key: 61 velocity: 0
92022 
Channel: 10 Note ON:  A#3 key: 58 velocity: 0
92040 
Channel: 10 Note ON:  F#3 key: 54 velocity: 127
92040 
Channel: 10 Note ON:  F#2 key: 42 velocity: 127
92051 
Channel: 10 Note ON:  C#3 key: 49 velocity: 0
92150 
Channel: 10 Note ON:  F#3 key: 54 velocity: 0
92160 
Channel: 10 Note ON:  A#3 key: 58 velocity: 127
92160 
Channel: 10 Note ON:  C#4 key: 61 velocity: 127
92171 
92172 
92258 
Channel: 10 Note ON:  C#4 key: 61 velocity: 0
92280 
Channel: 10 Note ON:  F#3 key: 54 velocity: 127
92282 
Channel: 10 Note ON:  A#3 key: 58 velocity: 0
92381 
Channel: 10 Note ON:  F#3 key: 54 velocity: 0
92400 
Channel: 10 Note ON:  C#4 key: 61 velocity: 127
92400 
Channel: 10 Note ON:  A#3 key: 58 velocity: 127
92494 
Channel: 10 Note ON:  C#4 key: 61 velocity: 0
92520 
Channel: 10 Note ON:  A#3 key: 58 velocity: 0
92520 
Channel: 10 Note ON:  F#3 key: 54 velocity: 127
92640 
Channel: 10 Note ON:  C#4 key: 61 velocity: 127
92640 
Channel: 10 Note ON:  A#3 key: 58 velocity: 127
92643 
Channel: 10 Note ON:  F#3 key: 54 velocity: 0
92749 
Channel: 10 Note ON:  C#4 key: 61 velocity: 0
92760 
Channel: 10 Note ON:  C3 key: 48 velocity: 127
92760 
Channel: 10 Note ON:  F#3 key: 54 velocity: 127
92786 
Channel: 10 Note ON:  A#3 key: 58 velocity: 0
92857 
Channel: 10 Note ON:  F#3 key: 54 velocity: 0
92880 
Channel: 10 Note ON:  C#3 key: 49 velocity: 127
92880 
Channel: 10 Note ON:  A#3 key: 58 velocity: 127
92880 
Channel: 10 Note ON:  C#4 key: 61 velocity: 127
92881 
Channel: 10 Note ON:  C3 key: 48 velocity: 0
92900 
Channel: 10 Note ON:  F#2 key: 42 velocity: 0
92950 
Channel: 10 Note ON:  A#3 key: 58 velocity: 0
92978 
Channel: 10 Note ON:  C#4 key: 61 velocity: 0
93000 
Channel: 10 Note ON:  F#3 key: 54 velocity: 127
93087 
93087 
93110 
Channel: 10 Note ON:  F#3 key: 54 velocity: 0
93120 
Channel: 10 Note ON:  C#2 key: 37 velocity: 127
93120 
Channel: 10 Note ON:  F4 key: 65 velocity: 127
93120 
Channel: 10 Note ON:  C#4 key: 61 velocity: 127
93123 
Channel: 10 Note ON:  C#3 key: 49 velocity: 0
93233 
93233 
93240 
Channel: 10 Note ON:  G#3 key: 56 velocity: 127
93247 
Channel: 10 Note ON:  F4 key: 65 velocity: 0
93262 
Channel: 10 Note ON:  C#4 key: 61 velocity: 0
93360 
Channel: 10 Note ON:  F4 key: 65 velocity: 127
93360 
Channel: 10 Note ON:  C#4 key: 61 velocity: 127
93362 
Channel: 10 Note ON:  G#3 key: 56 velocity: 0
93440 
Channel: 10 Note ON:  F4 key: 65 velocity: 0
93480 
Channel: 10 Note ON:  G#3 key: 56 velocity: 127
93488 
Channel: 10 Note ON:  C#4 key: 61 velocity: 0
93576 
Channel: 10 Note ON:  C#2 key: 37 velocity: 0
93592 
Channel: 10 Note ON:  G#3 key: 56 velocity: 0
93600 
Channel: 10 Note ON:  F4 key: 65 velocity: 127
93600 
Channel: 10 Note ON:  C#4 key: 61 velocity: 127
93600 
Channel: 10 Note ON:  C#2 key: 37 velocity: 127
93669 
Channel: 10 Note ON:  F4 key: 65 velocity: 0
93718 
Channel: 10 Note ON:  C#4 key: 61 velocity: 0
93720 
Channel: 10 Note ON:  D#2 key: 39 velocity: 127
93720 
Channel: 10 Note ON:  G#3 key: 56 velocity: 127
93729 
Channel: 10 Note ON:  C#2 key: 37 velocity: 0
93808 
93808 
93823 
Channel: 10 Note ON:  D#2 key: 39 velocity: 0
93836 
Channel: 10 Note ON:  G#3 key: 56 velocity: 0
93840 
Channel: 10 Note ON:  C#4 key: 61 velocity: 127
93840 
Channel: 10 Note ON:  F4 key: 65 velocity: 127
93840 
Channel: 10 Note ON:  F2 key: 41 velocity: 127
93952 
Channel: 10 Note ON:  F4 key: 65 velocity: 0
93960 
Channel: 10 Note ON:  G#3 key: 56 velocity: 127
93960 
Channel: 10 Note ON:  G#2 key: 44 velocity: 127
93965 
Channel: 10 Note ON:  C#4 key: 61 velocity: 0
93967 
Channel: 10 Note ON:  F2 key: 41 velocity: 0
94080 
Channel: 10 Note ON:  D#4 key: 63 velocity: 127
94080 
Channel: 10 Note ON:  C4 key: 60 velocity: 127
94092 
Channel: 10 Note ON:  G#3 key: 56 velocity: 0
94185 
Channel: 10 Note ON:  D#4 key: 63 velocity: 0
94187 
94187 
94200 
Channel: 10 Note ON:  G#3 key: 56 velocity: 127
94207 
Channel: 10 Note ON:  C4 key: 60 velocity: 0
94312 
Channel: 10 Note ON:  G#3 key: 56 velocity: 0
94320 
Channel: 10 Note ON:  D#4 key: 63 velocity: 127
94320 
Channel: 10 Note ON:  C4 key: 60 velocity: 127
94424 
Channel: 10 Note ON:  D#4 key: 63 velocity: 0
94433 
Channel: 10 Note ON:  C4 key: 60 velocity: 0
94440 
Channel: 10 Note ON:  G#3 key: 56 velocity: 127
94560 
Channel: 10 Note ON:  D#4 key: 63 velocity: 127
94560 
Channel: 10 Note ON:  C4 key: 60 velocity: 127
94569 
Channel: 10 Note ON:  G#3 key: 56 velocity: 0
94667 
Channel: 10 Note ON:  D#4 key: 63 velocity: 0
94680 
Channel: 10 Note ON:  C4 key: 60 velocity: 0
94680 
Channel: 10 Note ON:  G#3 key: 56 velocity: 127
94680 
Channel: 10 Note ON:  A#2 key: 46 velocity: 127
94700 
Channel: 10 Note ON:  G#2 key: 44 velocity: 0
94707 
94707 
94796 
Channel: 10 Note ON:  A#2 key: 46 velocity: 0
94798 
Channel: 10 Note ON:  G#3 key: 56 velocity: 0
94800 
Channel: 10 Note ON:  D#4 key: 63 velocity: 127
94800 
Channel: 10 Note ON:  C4 key: 60 velocity: 127
94800 
Channel: 10 Note ON:  C3 key: 48 velocity: 127
94804 
94805 
94913 
Channel: 10 Note ON:  D#4 key: 63 velocity: 0
94914 
Channel: 10 Note ON:  C4 key: 60 velocity: 0
94920 
Channel: 10 Note ON:  C3 key: 48 velocity: 0
94920 
Channel: 10 Note ON:  F2 key: 41 velocity: 127
94920 
Channel: 10 Note ON:  G#3 key: 56 velocity: 127
94929 
94929 
94996 
Channel: 10 Note ON:  G#3 key: 56 velocity: 0
95032 
95033 
95040 
Channel: 10 Note ON:  C4 key: 60 velocity: 127
95040 
Channel: 10 Note ON:  G#3 key: 56 velocity: 127
95136 
Channel: 10 Note ON:  C4 key: 60 velocity: 0
95147 
Channel: 10 Note ON:  G#3 key: 56 velocity: 0
95160 
Channel: 10 Note ON:  F3 key: 53 velocity: 127
95250 
Channel: 10 Note ON:  F3 key: 53 velocity: 0
95280 
Channel: 10 Note ON:  C4 key: 60 velocity: 127
95280 
Channel: 10 Note ON:  G#3 key: 56 velocity: 127
95388 
Channel: 10 Note ON:  C4 key: 60 velocity: 0
95400 
Channel: 10 Note ON:  F3 key: 53 velocity: 127
95412 
Channel: 10 Note ON:  G#3 key: 56 velocity: 0
95475 
Channel: 10 Note ON:  F2 key: 41 velocity: 0
95496 
Channel: 10 Note ON:  F3 key: 53 velocity: 0
95520 
Channel: 10 Note ON:  C4 key: 60 velocity: 127
95520 
Channel: 10 Note ON:  F2 key: 41 velocity: 127
95520 
Channel: 10 Note ON:  G#3 key: 56 velocity: 127
95605 
Channel: 10 Note ON:  C4 key: 60 velocity: 0
95628 
Channel: 10 Note ON:  F2 key: 41 velocity: 0
95640 
Channel: 10 Note ON:  C#3 key: 49 velocity: 127
95640 
Channel: 10 Note ON:  F3 key: 53 velocity: 127
95668 
Channel: 10 Note ON:  G#3 key: 56 velocity: 0
95727 
Channel: 10 Note ON:  F3 key: 53 velocity: 0
95753 
Channel: 10 Note ON:  C#3 key: 49 velocity: 0
95760 
Channel: 10 Note ON:  G#3 key: 56 velocity: 127
95760 
Channel: 10 Note ON:  C4 key: 60 velocity: 127
95760 
Channel: 10 Note ON:  F2 key: 41 velocity: 127
95785 
95785 
95870 
Channel: 10 Note ON:  C4 key: 60 velocity: 0
95870 
Channel: 10 Note ON:  G#3 key: 56 velocity: 0
95880 
Channel: 10 Note ON:  F#2 key: 42 velocity: 127
95880 
Channel: 10 Note ON:  F3 key: 53 velocity: 127
95903 
Channel: 10 Note ON:  F2 key: 41 velocity: 0
95987 
Channel: 10 Note ON:  F3 key: 53 velocity: 0
96000 
Channel: 10 Note ON:  A#3 key: 58 velocity: 127
96000 
Channel: 10 Note ON:  C#4 key: 61 velocity: 127
96018 
96019 
96105 
Channel: 10 Note ON:  C#4 key: 61 velocity: 0
96120 
Channel: 10 Note ON:  F#3 key: 54 velocity: 127
96127 
Channel: 10 Note ON:  A#3 key: 58 velocity: 0
96221 
Channel: 10 Note ON:  F#3 key: 54 velocity: 0
96240 
Channel: 10 Note ON:  A#3 key: 58 velocity: 127
96240 
Channel: 10 Note ON:  C#4 key: 61 velocity: 127
96341 
Channel: 10 Note ON:  C#4 key: 61 velocity: 0
96360 
Channel: 10 Note ON:  A#3 key: 58 velocity: 0
96360 
Channel: 10 Note ON:  F#3 key: 54 velocity: 127
96469 
Channel: 10 Note ON:  F#3 key: 54 velocity: 0
96480 
Channel: 10 Note ON:  C#4 key: 61 velocity: 127
96480 
Channel: 10 Note ON:  A#3 key: 58 velocity: 127
96568 
Channel: 10 Note ON:  C#4 key: 61 velocity: 0
96600 
Channel: 10 Note ON:  F#3 key: 54 velocity: 127
96600 
Channel: 10 Note ON:  C3 key: 48 velocity: 127
96601 
Channel: 10 Note ON:  A#3 key: 58 velocity: 0
96630 
Channel: 10 Note ON:  F#2 key: 42 velocity: 0
96658 
96658 
96720 
Channel: 10 Note ON:  A#3 key: 58 velocity: 127
96720 
Channel: 10 Note ON:  C#4 key: 61 velocity: 127
96720 
Channel: 10 Note ON:  C#3 key: 49 velocity: 127
96727 
Channel: 10 Note ON:  C3 key: 48 velocity: 0
96735 
Channel: 10 Note ON:  F#3 key: 54 velocity: 0
96744 
96745 
96839 
Channel: 10 Note ON:  C#4 key: 61 velocity: 0
96840 
Channel: 10 Note ON:  F#3 key: 54 velocity: 127
96842 
96842 
96852 
Channel: 10 Note ON:  A#3 key: 58 velocity: 0
96918 
Channel: 10 Note ON:  C#3 key: 49 velocity: 0
96933 
Channel: 10 Note ON:  F#3 key: 54 velocity: 0
96960 
Channel: 10 Note ON:  C#2 key: 37 velocity: 127
96960 
Channel: 10 Note ON:  C#4 key: 61 velocity: 127
96960 
Channel: 10 Note ON:  F4 key: 65 velocity: 127
97001 
97002 
97056 
Channel: 10 Note ON:  F4 key: 65 velocity: 0
97080 
Channel: 10 Note ON:  G#3 key: 56 velocity: 127
97087 
Channel: 10 Note ON:  C#4 key: 61 velocity: 0
97192 
Channel: 10 Note ON:  G#3 key: 56 velocity: 0
97200 
Channel: 10 Note ON:  F4 key: 65 velocity: 127
97200 
Channel: 10 Note ON:  C#4 key: 61 velocity: 127
97284 
Channel: 10 Note ON:  F4 key: 65 velocity: 0
97320 
Channel: 10 Note ON:  G#3 key: 56 velocity: 127
97329 
Channel: 10 Note ON:  C#4 key: 61 velocity: 0
97422 
Channel: 10 Note ON:  G#3 key: 56 velocity: 0
97440 
Channel: 10 Note ON:  F4 key: 65 velocity: 127
97440 
Channel: 10 Note ON:  C#4 key: 61 velocity: 127
97537 
Channel: 10 Note ON:  F4 key: 65 velocity: 0
97560 
Channel: 10 Note ON:  D#2 key: 39 velocity: 127
97560 
Channel: 10 Note ON:  G#3 key: 56 velocity: 127
97568 
Channel: 10 Note ON:  C#4 key: 61 velocity: 0
97589 
Channel: 10 Note ON:  C#2 key: 37 velocity: 0
97678 
97679 
97680 
Channel: 10 Note ON:  C#4 key: 61 velocity: 127
97680 
Channel: 10 Note ON:  F4 key: 65 velocity: 127
97680 
Channel: 10 Note ON:  F2 key: 41 velocity: 127
97688 
Channel: 10 Note ON:  D#2 key: 39 velocity: 0
97690 
Channel: 10 Note ON:  G#3 key: 56 velocity: 0
97790 
Channel: 10 Note ON:  F4 key: 65 velocity: 0
97792 
Channel: 10 Note ON:  F2 key: 41 velocity: 0
97793 
Channel: 10 Note ON:  C#4 key: 61 velocity: 0
97800 
Channel: 10 Note ON:  G#3 key: 56 velocity: 127
97800 
Channel: 10 Note ON:  G#2 key: 44 velocity: 127
97920 
Channel: 10 Note ON:  D#4 key: 63 velocity: 127
97920 
Channel: 10 Note ON:  C4 key: 60 velocity: 127
97938 
Channel: 10 Note ON:  G#3 key: 56 velocity: 0
98028 
Channel: 10 Note ON:  D#4 key: 63 velocity: 0
98040 
Channel: 10 Note ON:  G#3 key: 56 velocity: 127
98052 
Channel: 10 Note ON:  C4 key: 60 velocity: 0
98160 
Channel: 10 Note ON:  D#4 key: 63 velocity: 127
98160 
Channel: 10 Note ON:  C4 key: 60 velocity: 127
98160 
98161 
98168 
Channel: 10 Note ON:  G#3 key: 56 velocity: 0
98272 
Channel: 10 Note ON:  D#4 key: 63 velocity: 0
98280 
Channel: 10 Note ON:  C4 key: 60 velocity: 0
98280 
Channel: 10 Note ON:  G#3 key: 56 velocity: 127
98386 
Channel: 10 Note ON:  G#3 key: 56 velocity: 0
98400 
Channel: 10 Note ON:  D#4 key: 63 velocity: 127
98400 
Channel: 10 Note ON:  C4 key: 60 velocity: 127
98499 
Channel: 10 Note ON:  D#4 key: 63 velocity: 0
98520 
Channel: 10 Note ON:  G#3 key: 56 velocity: 127
98520 
Channel: 10 Note ON:  A#2 key: 46 velocity: 127
98522 
Channel: 10 Note ON:  C4 key: 60 velocity: 0
98533 
Channel: 10 Note ON:  G#2 key: 44 velocity: 0
98534 
98535 
98626 
Channel: 10 Note ON:  G#3 key: 56 velocity: 0
98640 
Channel: 10 Note ON:  C3 key: 48 velocity: 127
98640 
Channel: 10 Note ON:  D#4 key: 63 velocity: 127
98640 
Channel: 10 Note ON:  C4 key: 60 velocity: 127
98644 
Channel: 10 Note ON:  A#2 key: 46 velocity: 0
98659 
98660 
98732 
Channel: 10 Note ON:  D#4 key: 63 velocity: 0
98748 
Channel: 10 Note ON:  C3 key: 48 velocity: 0
98753 
Channel: 10 Note ON:  C4 key: 60 velocity: 0
98760 
Channel: 10 Note ON:  A#2 key: 46 velocity: 127
98760 
Channel: 10 Note ON:  G#3 key: 56 velocity: 127
98773 
98773 
98831 
Channel: 10 Note ON:  G#3 key: 56 velocity: 0
98880 
Channel: 10 Note ON:  C#4 key: 61 velocity: 127
98880 
Channel: 10 Note ON:  A#3 key: 58 velocity: 127
98924 
98925 
98966 
Channel: 10 Note ON:  C#4 key: 61 velocity: 0
99000 
Channel: 10 Note ON:  A#3 key: 58 velocity: 0
99000 
Channel: 10 Note ON:  F3 key: 53 velocity: 127
99085 
Channel: 10 Note ON:  F3 key: 53 velocity: 0
99120 
Channel: 10 Note ON:  C#4 key: 61 velocity: 127
99120 
Channel: 10 Note ON:  A#3 key: 58 velocity: 127
99208 
Channel: 10 Note ON:  C#4 key: 61 velocity: 0
99236 
Channel: 10 Note ON:  A#3 key: 58 velocity: 0
99240 
Channel: 10 Note ON:  F3 key: 53 velocity: 127
99329 
Channel: 10 Note ON:  F3 key: 53 velocity: 0
99360 
Channel: 10 Note ON:  C#4 key: 61 velocity: 127
99360 
Channel: 10 Note ON:  A#3 key: 58 velocity: 127
99442 
Channel: 10 Note ON:  C#4 key: 61 velocity: 0
99475 
Channel: 10 Note ON:  A#3 key: 58 velocity: 0
99480 
Channel: 10 Note ON:  C3 key: 48 velocity: 127
99480 
Channel: 10 Note ON:  F3 key: 53 velocity: 127
99557 
Channel: 10 Note ON:  F3 key: 53 velocity: 0
99574 
Channel: 10 Note ON:  A#2 key: 46 velocity: 0
99586 
Channel: 10 Note ON:  C3 key: 48 velocity: 0
99600 
Channel: 10 Note ON:  A#3 key: 58 velocity: 127
99600 
Channel: 10 Note ON:  C#4 key: 61 velocity: 127
99600 
Channel: 10 Note ON:  C#3 key: 49 velocity: 127
99602 
99602 
99681 
Channel: 10 Note ON:  C#4 key: 61 velocity: 0
99702 
Channel: 10 Note ON:  A#3 key: 58 velocity: 0
99720 
Channel: 10 Note ON:  F#3 key: 54 velocity: 127
99720 
Channel: 10 Note ON:  F#2 key: 42 velocity: 127
99731 
Channel: 10 Note ON:  C#3 key: 49 velocity: 0
99830 
Channel: 10 Note ON:  F#3 key: 54 velocity: 0
99840 
Channel: 10 Note ON:  A#3 key: 58 velocity: 127
99840 
Channel: 10 Note ON:  C#4 key: 61 velocity: 127
99851 
99852 
99938 
Channel: 10 Note ON:  C#4 key: 61 velocity: 0
99960 
Channel: 10 Note ON:  F#3 key: 54 velocity: 127
99962 
Channel: 10 Note ON:  A#3 key: 58 velocity: 0
100061 
Channel: 10 Note ON:  F#3 key: 54 velocity: 0
100080 
Channel: 10 Note ON:  C#4 key: 61 velocity: 127
100080 
Channel: 10 Note ON:  A#3 key: 58 velocity: 127
100174 
Channel: 10 Note ON:  C#4 key: 61 velocity: 0
100200 
Channel: 10 Note ON:  A#3 key: 58 velocity: 0
100200 
Channel: 10 Note ON:  F#3 key: 54 velocity: 127
100320 
Channel: 10 Note ON:  C#4 key: 61 velocity: 127
100320 
Channel: 10 Note ON:  A#3 key: 58 velocity: 127
100323 
Channel: 10 Note ON:  F#3 key: 54 velocity: 0
100429 
Channel: 10 Note ON:  C#4 key: 61 velocity: 0
100440 
Channel: 10 Note ON:  C3 key: 48 velocity: 127
100440 
Channel: 10 Note ON:  F#3 key: 54 velocity: 127
100466 
Channel: 10 Note ON:  A#3 key: 58 velocity: 0
100537 
Channel: 10 Note ON:  F#3 key: 54 velocity: 0
100560 
Channel: 10 Note ON:  C#3 key: 49 velocity: 127
100560 
Channel: 10 Note ON:  A#3 key: 58 velocity: 127
100560 
Channel: 10 Note ON:  C#4 key: 61 velocity: 127
100561 
Channel: 10 Note ON:  C3 key: 48 velocity: 0
100580 
Channel: 10 Note ON:  F#2 key: 42 velocity: 0
100630 
Channel: 10 Note ON:  A#3 key: 58 velocity: 0
100658 
Channel: 10 Note ON:  C#4 key: 61 velocity: 0
100680 
Channel: 10 Note ON:  F#3 key: 54 velocity: 127
100767 
100767 
100790 
Channel: 10 Note ON:  F#3 key: 54 velocity: 0
100800 
Channel: 10 Note ON:  C#2 key: 37 velocity: 127
100800 
Channel: 10 Note ON:  F4 key: 65 velocity: 127
100800 
Channel: 10 Note ON:  C#4 key: 61 velocity: 127
100803 
Channel: 10 Note ON:  C#3 key: 49 velocity: 0
100913 
100913 
100920 
Channel: 10 Note ON:  G#3 key: 56 velocity: 127
100927 
Channel: 10 Note ON:  F4 key: 65 velocity: 0
100942 
Channel: 10 Note ON:  C#4 key: 61 velocity: 0
101040 
Channel: 10 Note ON:  F4 key: 65 velocity: 127
101040 
Channel: 10 Note ON:  C#4 key: 61 velocity: 127
101042 
Channel: 10 Note ON:  G#3 key: 56 velocity: 0
101120 
Channel: 10 Note ON:  F4 key: 65 velocity: 0
101160 
Channel: 10 Note ON:  G#3 key: 56 velocity: 127
101168 
Channel: 10 Note ON:  C#4 key: 61 velocity: 0
101256 
Channel: 10 Note ON:  C#2 key: 37 velocity: 0
101272 
Channel: 10 Note ON:  G#3 key: 56 velocity: 0
101280 
Channel: 10 Note ON:  F4 key: 65 velocity: 127
101280 
Channel: 10 Note ON:  C#4 key: 61 velocity: 127
101280 
Channel: 10 Note ON:  C#2 key: 37 velocity: 127
101349 
Channel: 10 Note ON:  F4 key: 65 velocity: 0
101398 
Channel: 10 Note ON:  C#4 key: 61 velocity: 0
101400 
Channel: 10 Note ON:  D#2 key: 39 velocity: 127
101400 
Channel: 10 Note ON:  G#3 key: 56 velocity: 127
101409 
Channel: 10 Note ON:  C#2 key: 37 velocity: 0
101488 
101488 
101503 
Channel: 10 Note ON:  D#2 key: 39 velocity: 0
101516 
Channel: 10 Note ON:  G#3 key: 56 velocity: 0
101520 
Channel: 10 Note ON:  C#4 key: 61 velocity: 127
101520 
Channel: 10 Note ON:  F4 key: 65 velocity: 127
101520 
Channel: 10 Note ON:  F2 key: 41 velocity: 127
101632 
Channel: 10 Note ON:  F4 key: 65 velocity: 0
101640 
Channel: 10 Note ON:  G#3 key: 56 velocity: 127
101640 
Channel: 10 Note ON:  G#2 key: 44 velocity: 127
101645 
Channel: 10 Note ON:  C#4 key: 61 velocity: 0
101647 
Channel: 10 Note ON:  F2 key: 41 velocity: 0
101760 
Channel: 10 Note ON:  D#4 key: 63 velocity: 127
101760 
Channel: 10 Note ON:  C4 key: 60 velocity: 127
101772 
Channel: 10 Note ON:  G#3 key: 56 velocity: 0
101865 
Channel: 10 Note ON:  D#4 key: 63 velocity: 0
101867 
101867 
101880 
Channel: 10 Note ON:  G#3 key: 56 velocity: 127
101887 
Channel: 10 Note ON:  C4 key: 60 velocity: 0
101992 
Channel: 10 Note ON:  G#3 key: 56 velocity: 0
102000 
Channel: 10 Note ON:  D#4 key: 63 velocity: 127
102000 
Channel: 10 Note ON:  C4 key: 60 velocity: 127
102104 
Channel: 10 Note ON:  D#4 key: 63 velocity: 0
102113 
Channel: 10 Note ON:  C4 key: 60 velocity: 0
102120 
Channel: 10 Note ON:  G#3 key: 56 velocity: 127
102240 
Channel: 10 Note ON:  D#4 key: 63 velocity: 127
102240 
Channel: 10 Note ON:  C4 key: 60 velocity: 127
102249 
Channel: 10 Note ON:  G#3 key: 56 velocity: 0
102347 
Channel: 10 Note ON:  D#4 key: 63 velocity: 0
102360 
Channel: 10 Note ON:  C4 key: 60 velocity: 0
102360 
Channel: 10 Note ON:  G#3 key: 56 velocity: 127
102360 
Channel: 10 Note ON:  A#2 key: 46 velocity: 127
102380 
Channel: 10 Note ON:  G#2 key: 44 velocity: 0
102387 
102387 
102476 
Channel: 10 Note ON:  A#2 key: 46 velocity: 0
102478 
Channel: 10 Note ON:  G#3 key: 56 velocity: 0
102480 
Channel: 10 Note ON:  D#4 key: 63 velocity: 127
102480 
Channel: 10 Note ON:  C4 key: 60 velocity: 127
102480 
Channel: 10 Note ON:  C3 key: 48 velocity: 127
102484 
102485 
102593 
Channel: 10 Note ON:  D#4 key: 63 velocity: 0
102594 
Channel: 10 Note ON:  C4 key: 60 velocity: 0
102600 
Channel: 10 Note ON:  C3 key: 48 velocity: 0
102600 
Channel: 10 Note ON:  F2 key: 41 velocity: 127
102600 
Channel: 10 Note ON:  G#3 key: 56 velocity: 127
102609 
102609 
102676 
Channel: 10 Note ON:  G#3 key: 56 velocity: 0
102712 
102713 
102720 
Channel: 10 Note ON:  C4 key: 60 velocity: 127
102720 
Channel: 10 Note ON:  G#3 key: 56 velocity: 127
102816 
Channel: 10 Note ON:  C4 key: 60 velocity: 0
102827 
Channel: 10 Note ON:  G#3 key: 56 velocity: 0
102840 
Channel: 10 Note ON:  F3 key: 53 velocity: 127
102930 
Channel: 10 Note ON:  F3 key: 53 velocity: 0
102960 
Channel: 10 Note ON:  C4 key: 60 velocity: 127
102960 
Channel: 10 Note ON:  G#3 key: 56 velocity: 127
103068 
Channel: 10 Note ON:  C4 key: 60 velocity: 0
103080 
Channel: 10 Note ON:  F3 key: 53 velocity: 127
103092 
Channel: 10 Note ON:  G#3 key: 56 velocity: 0
103155 
Channel: 10 Note ON:  F2 key: 41 velocity: 0
103176 
Channel: 10 Note ON:  F3 key: 53 velocity: 0
103200 
Channel: 10 Note ON:  C4 key: 60 velocity: 127
103200 
Channel: 10 Note ON:  F2 key: 41 velocity: 127
103200 
Channel: 10 Note ON:  G#3 key: 56 velocity: 127
103285 
Channel: 10 Note ON:  C4 key: 60 velocity: 0
103308 
Channel: 10 Note ON:  F2 key: 41 velocity: 0
103320 
Channel: 10 Note ON:  C#3 key: 49 velocity: 127
103320 
Channel: 10 Note ON:  F3 key: 53 velocity: 127
103348 
Channel: 10 Note ON:  G#3 key: 56 velocity: 0
103407 
Channel: 10 Note ON:  F3 key: 53 velocity: 0
103433 
Channel: 10 Note ON:  C#3 key: 49 velocity: 0
103440 
Channel: 10 Note ON:  G#3 key: 56 velocity: 127
103440 
Channel: 10 Note ON:  C4 key: 60 velocity: 127
103440 
Channel: 10 Note ON:  F2 key: 41 velocity: 127
103465 
103465 
103550 
Channel: 10 Note ON:  C4 key: 60 velocity: 0
103550 
Channel: 10 Note ON:  G#3 key: 56 velocity: 0
103560 
Channel: 10 Note ON:  F#2 key: 42 velocity: 127
103560 
Channel: 10 Note ON:  F3 key: 53 velocity: 127
103583 
Channel: 10 Note ON:  F2 key: 41 velocity: 0
103667 
Channel: 10 Note ON:  F3 key: 53 velocity: 0
103680 
Channel: 10 Note ON:  A#3 key: 58 velocity: 127
103680 
Channel: 10 Note ON:  C#4 key: 61 velocity: 127
103698 
103699 
103785 
Channel: 10 Note ON:  C#4 key: 61 velocity: 0
103800 
Channel: 10 Note ON:  F#3 key: 54 velocity: 127
103807 
Channel: 10 Note ON:  A#3 key: 58 velocity: 0
103901 
Channel: 10 Note ON:  F#3 key: 54 velocity: 0
103920 
Channel: 10 Note ON:  A#3 key: 58 velocity: 127
103920 
Channel: 10 Note ON:  C#4 key: 61 velocity: 127
104021 
Channel: 10 Note ON:  C#4 key: 61 velocity: 0
104040 
Channel: 10 Note ON:  A#3 key: 58 velocity: 0
104040 
Channel: 10 Note ON:  F#3 key: 54 velocity: 127
104149 
Channel: 10 Note ON:  F#3 key: 54 velocity: 0
104160 
Channel: 10 Note ON:  C#4 key: 61 velocity: 127
104160 
Channel: 10 Note ON:  A#3 key: 58 velocity: 127
104248 
Channel: 10 Note ON:  C#4 key: 61 velocity: 0
104280 
Channel: 10 Note ON:  F#3 key: 54 velocity: 127
104280 
Channel: 10 Note ON:  C3 key: 48 velocity: 127
104281 
Channel: 10 Note ON:  A#3 key: 58 velocity: 0
104310 
Channel: 10 Note ON:  F#2 key: 42 velocity: 0
104338 
104338 
104400 
Channel: 10 Note ON:  A#3 key: 58 velocity: 127
104400 
Channel: 10 Note ON:  C#4 key: 61 velocity: 127
104400 
Channel: 10 Note ON:  C#3 key: 49 velocity: 127
104407 
Channel: 10 Note ON:  C3 key: 48 velocity: 0
104415 
Channel: 10 Note ON:  F#3 key: 54 velocity: 0
104424 
104425 
104519 
Channel: 10 Note ON:  C#4 key: 61 velocity: 0
104520 
Channel: 10 Note ON:  F#3 key: 54 velocity: 127
104522 
104522 
104532 
Channel: 10 Note ON:  A#3 key: 58 velocity: 0
104598 
Channel: 10 Note ON:  C#3 key: 49 velocity: 0
104613 
Channel: 10 Note ON:  F#3 key: 54 velocity: 0
104640 
Channel: 10 Note ON:  C#2 key: 37 velocity: 127
104640 
Channel: 10 Note ON:  C#4 key: 61 velocity: 127
104640 
Channel: 10 Note ON:  F4 key: 65 velocity: 127
104681 
104682 
104736 
Channel: 10 Note ON:  F4 key: 65 velocity: 0
104760 
Channel: 10 Note ON:  G#3 key: 56 velocity: 127
104767 
Channel: 10 Note ON:  C#4 key: 61 velocity: 0
104872 
Channel: 10 Note ON:  G#3 key: 56 velocity: 0
104880 
Channel: 10 Note ON:  F4 key: 65 velocity: 127
104880 
Channel: 10 Note ON:  C#4 key: 61 velocity: 127
104964 
Channel: 10 Note ON:  F4 key: 65 velocity: 0
105000 
Channel: 10 Note ON:  G#3 key: 56 velocity: 127
105009 
Channel: 10 Note ON:  C#4 key: 61 velocity: 0
105102 
Channel: 10 Note ON:  G#3 key: 56 velocity: 0
105120 
Channel: 10 Note ON:  F4 key: 65 velocity: 127
105120 
Channel: 10 Note ON:  C#4 key: 61 velocity: 127
105217 
Channel: 10 Note ON:  F4 key: 65 velocity: 0
105240 
Channel: 10 Note ON:  D#2 key: 39 velocity: 127
105240 
Channel: 10 Note ON:  G#3 key: 56 velocity: 127
105248 
Channel: 10 Note ON:  C#4 key: 61 velocity: 0
105269 
Channel: 10 Note ON:  C#2 key: 37 velocity: 0
105358 
105359 
105360 
Channel: 10 Note ON:  C#4 key: 61 velocity: 127
105360 
Channel: 10 Note ON:  F4 key: 65 velocity: 127
105360 
Channel: 10 Note ON:  F2 key: 41 velocity: 127
105368 
Channel: 10 Note ON:  D#2 key: 39 velocity: 0
105370 
Channel: 10 Note ON:  G#3 key: 56 velocity: 0
105470 
Channel: 10 Note ON:  F4 key: 65 velocity: 0
105472 
Channel: 10 Note ON:  F2 key: 41 velocity: 0
105473 
Channel: 10 Note ON:  C#4 key: 61 velocity: 0
105480 
Channel: 10 Note ON:  G#3 key: 56 velocity: 127
105480 
Channel: 10 Note ON:  G#2 key: 44 velocity: 127
105600 
Channel: 10 Note ON:  D#4 key: 63 velocity: 127
105600 
Channel: 10 Note ON:  C4 key: 60 velocity: 127
105618 
Channel: 10 Note ON:  G#3 key: 56 velocity: 0
105708 
Channel: 10 Note ON:  D#4 key: 63 velocity: 0
105720 
Channel: 10 Note ON:  G#3 key: 56 velocity: 127
105732 
Channel: 10 Note ON:  C4 key: 60 velocity: 0
105840 
Channel: 10 Note ON:  D#4 key: 63 velocity: 127
105840 
Channel: 10 Note ON:  C4 key: 60 velocity: 127
105840 
105841 
105848 
Channel: 10 Note ON:  G#3 key: 56 velocity: 0
105952 
Channel: 10 Note ON:  D#4 key: 63 velocity: 0
105960 
Channel: 10 Note ON:  C4 key: 60 velocity: 0
105960 
Channel: 10 Note ON:  G#3 key: 56 velocity: 127
106066 
Channel: 10 Note ON:  G#3 key: 56 velocity: 0
106080 
Channel: 10 Note ON:  D#4 key: 63 velocity: 127
106080 
Channel: 10 Note ON:  C4 key: 60 velocity: 127
106179 
Channel: 10 Note ON:  D#4 key: 63 velocity: 0
106200 
Channel: 10 Note ON:  G#3 key: 56 velocity: 127
106200 
Channel: 10 Note ON:  A#2 key: 46 velocity: 127
106202 
Channel: 10 Note ON:  C4 key: 60 velocity: 0
106213 
Channel: 10 Note ON:  G#2 key: 44 velocity: 0
106214 
106215 
106306 
Channel: 10 Note ON:  G#3 key: 56 velocity: 0
106320 
Channel: 10 Note ON:  C3 key: 48 velocity: 127
106320 
Channel: 10 Note ON:  D#4 key: 63 velocity: 127
106320 
Channel: 10 Note ON:  C4 key: 60 velocity: 127
106324 
Channel: 10 Note ON:  A#2 key: 46 velocity: 0
106339 
106340 
106412 
Channel: 10 Note ON:  D#4 key: 63 velocity: 0
106428 
Channel: 10 Note ON:  C3 key: 48 velocity: 0
106433 
Channel: 10 Note ON:  C4 key: 60 velocity: 0
106440 
Channel: 10 Note ON:  A#2 key: 46 velocity: 127
106440 
Channel: 10 Note ON:  G#3 key: 56 velocity: 127
106453 
106453 
106511 
Channel: 10 Note ON:  G#3 key: 56 velocity: 0
106560 
Channel: 10 Note ON:  C#4 key: 61 velocity: 127
106560 
Channel: 10 Note ON:  A#3 key: 58 velocity: 127
106604 
106605 
106646 
Channel: 10 Note ON:  C#4 key: 61 velocity: 0
106680 
Channel: 10 Note ON:  A#3 key: 58 velocity: 0
106680 
Channel: 10 Note ON:  F3 key: 53 velocity: 127
106765 
Channel: 10 Note ON:  F3 key: 53 velocity: 0
106800 
Channel: 10 Note ON:  C#4 key: 61 velocity: 127
106800 
Channel: 10 Note ON:  A#3 key: 58 velocity: 127
106888 
Channel: 10 Note ON:  C#4 key: 61 velocity: 0
106916 
Channel: 10 Note ON:  A#3 key: 58 velocity: 0
106920 
Channel: 10 Note ON:  F3 key: 53 velocity: 127
107009 
Channel: 10 Note ON:  F3 key: 53 velocity: 0
107040 
Channel: 10 Note ON:  C#4 key: 61 velocity: 127
107040 
Channel: 10 Note ON:  A#3 key: 58 velocity: 127
107122 
Channel: 10 Note ON:  C#4 key: 61 velocity: 0
107155 
Channel: 10 Note ON:  A#3 key: 58 velocity: 0
107160 
Channel: 10 Note ON:  C3 key: 48 velocity: 127
107160 
Channel: 10 Note ON:  F3 key: 53 velocity: 127
107237 
Channel: 10 Note ON:  F3 key: 53 velocity: 0
107254 
Channel: 10 Note ON:  A#2 key: 46 velocity: 0
107266 
Channel: 10 Note ON:  C3 key: 48 velocity: 0
107280 
Channel: 10 Note ON:  A#3 key: 58 velocity: 127
107280 
Channel: 10 Note ON:  C#4 key: 61 velocity: 127
107280 
Channel: 10 Note ON:  C#3 key: 49 velocity: 127
107282 
107282 
107361 
Channel: 10 Note ON:  C#4 key: 61 velocity: 0
107382 
Channel: 10 Note ON:  A#3 key: 58 velocity: 0
107400 
Channel: 10 Note ON:  F#3 key: 54 velocity: 127
107400 
Channel: 10 Note ON:  F#2 key: 42 velocity: 127
107411 
Channel: 10 Note ON:  C#3 key: 49 velocity: 0
107510 
Channel: 10 Note ON:  F#3 key: 54 velocity: 0
107520 
Channel: 10 Note ON:  A#3 key: 58 velocity: 127
107520 
Channel: 10 Note ON:  C#4 key: 61 velocity: 127
107531 
107532 
107618 
Channel: 10 Note ON:  C#4 key: 61 velocity: 0
107640 
Channel: 10 Note ON:  F#3 key: 54 velocity: 127
107642 
Channel: 10 Note ON:  A#3 key: 58 velocity: 0
107741 
Channel: 10 Note ON:  F#3 key: 54 velocity: 0
107760 
Channel: 10 Note ON:  C#4 key: 61 velocity: 127
107760 
Channel: 10 Note ON:  A#3 key: 58 velocity: 127
107854 
Channel: 10 Note ON:  C#4 key: 61 velocity: 0
107880 
Channel: 10 Note ON:  A#3 key: 58 velocity: 0
107880 
Channel: 10 Note ON:  F#3 key: 54 velocity: 127
108000 
Channel: 10 Note ON:  C#4 key: 61 velocity: 127
108000 
Channel: 10 Note ON:  A#3 key: 58 velocity: 127
108003 
Channel: 10 Note ON:  F#3 key: 54 velocity: 0
108109 
Channel: 10 Note ON:  C#4 key: 61 velocity: 0
108120 
Channel: 10 Note ON:  C3 key: 48 velocity: 127
108120 
Channel: 10 Note ON:  F#3 key: 54 velocity: 127
108146 
Channel: 10 Note ON:  A#3 key: 58 velocity: 0
108217 
Channel: 10 Note ON:  F#3 key: 54 velocity: 0
108240 
Channel: 10 Note ON:  C#3 key: 49 velocity: 127
108240 
Channel: 10 Note ON:  A#3 key: 58 velocity: 127
108240 
Channel: 10 Note ON:  C#4 key: 61 velocity: 127
108241 
Channel: 10 Note ON:  C3 key: 48 velocity: 0
108260 
Channel: 10 Note ON:  F#2 key: 42 velocity: 0
108310 
Channel: 10 Note ON:  A#3 key: 58 velocity: 0
108338 
Channel: 10 Note ON:  C#4 key: 61 velocity: 0
108360 
Channel: 10 Note ON:  F#3 key: 54 velocity: 127
108447 
108447 
108470 
Channel: 10 Note ON:  F#3 key: 54 velocity: 0
108480 
Channel: 10 Note ON:  C#2 key: 37 velocity: 127
108480 
Channel: 10 Note ON:  F4 key: 65 velocity: 127
108480 
Channel: 10 Note ON:  C#4 key: 61 velocity: 127
108483 
Channel: 10 Note ON:  C#3 key: 49 velocity: 0
108593 
108593 
108600 
Channel: 10 Note ON:  G#3 key: 56 velocity: 127
108607 
Channel: 10 Note ON:  F4 key: 65 velocity: 0
108622 
Channel: 10 Note ON:  C#4 key: 61 velocity: 0
108720 
Channel: 10 Note ON:  F4 key: 65 velocity: 127
108720 
Channel: 10 Note ON:  C#4 key: 61 velocity: 127
108722 
Channel: 10 Note ON:  G#3 key: 56 velocity: 0
108800 
Channel: 10 Note ON:  F4 key: 65 velocity: 0
108840 
Channel: 10 Note ON:  G#3 key: 56 velocity: 127
108848 
Channel: 10 Note ON:  C#4 key: 61 velocity: 0
108936 
Channel: 10 Note ON:  C#2 key: 37 velocity: 0
108952 
Channel: 10 Note ON:  G#3 key: 56 velocity: 0
108960 
Channel: 10 Note ON:  F4 key: 65 velocity: 127
108960 
Channel: 10 Note ON:  C#4 key: 61 velocity: 127
108960 
Channel: 10 Note ON:  C#2 key: 37 velocity: 127
109029 
Channel: 10 Note ON:  F4 key: 65 velocity: 0
109078 
Channel: 10 Note ON:  C#4 key: 61 velocity: 0
109080 
Channel: 10 Note ON:  D#2 key: 39 velocity: 127
109080 
Channel: 10 Note ON:  G#3 key: 56 velocity: 127
109089 
Channel: 10 Note ON:  C#2 key: 37 velocity: 0
109168 
109168 
109183 
Channel: 10 Note ON:  D#2 key: 39 velocity: 0
109196 
Channel: 10 Note ON:  G#3 key: 56 velocity: 0
109200 
Channel: 10 Note ON:  C#4 key: 61 velocity: 127
109200 
Channel: 10 Note ON:  F4 key: 65 velocity: 127
109200 
Channel: 10 Note ON:  F2 key: 41 velocity: 127
109312 
Channel: 10 Note ON:  F4 key: 65 velocity: 0
109320 
Channel: 10 Note ON:  G#3 key: 56 velocity: 127
109320 
Channel: 10 Note ON:  G#2 key: 44 velocity: 127
109325 
Channel: 10 Note ON:  C#4 key: 61 velocity: 0
109327 
Channel: 10 Note ON:  F2 key: 41 velocity: 0
109440 
Channel: 10 Note ON:  D#4 key: 63 velocity: 127
109440 
Channel: 10 Note ON:  C4 key: 60 velocity: 127
109452 
Channel: 10 Note ON:  G#3 key: 56 velocity: 0
109545 
Channel: 10 Note ON:  D#4 key: 63 velocity: 0
109547 
109547 
109560 
Channel: 10 Note ON:  G#3 key: 56 velocity: 127
109567 
Channel: 10 Note ON:  C4 key: 60 velocity: 0
109672 
Channel: 10 Note ON:  G#3 key: 56 velocity: 0
109680 
Channel: 10 Note ON:  D#4 key: 63 velocity: 127
109680 
Channel: 10 Note ON:  C4 key: 60 velocity: 127
109784 
Channel: 10 Note ON:  D#4 key: 63 velocity: 0
109793 
Channel: 10 Note ON:  C4 key: 60 velocity: 0
109800 
Channel: 10 Note ON:  G#3 key: 56 velocity: 127
109920 
Channel: 10 Note ON:  D#4 key: 63 velocity: 127
109920 
Channel: 10 Note ON:  C4 key: 60 velocity: 127
109929 
Channel: 10 Note ON:  G#3 key: 56 velocity: 0
110027 
Channel: 10 Note ON:  D#4 key: 63 velocity: 0
110040 
Channel: 10 Note ON:  C4 key: 60 velocity: 0
110040 
Channel: 10 Note ON:  G#3 key: 56 velocity: 127
110040 
Channel: 10 Note ON:  A#2 key: 46 velocity: 127
110060 
Channel: 10 Note ON:  G#2 key: 44 velocity: 0
110067 
110067 
110156 
Channel: 10 Note ON:  A#2 key: 46 velocity: 0
110158 
Channel: 10 Note ON:  G#3 key: 56 velocity: 0
110160 
Channel: 10 Note ON:  D#4 key: 63 velocity: 127
110160 
Channel: 10 Note ON:  C4 key: 60 velocity: 127
110160 
Channel: 10 Note ON:  C3 key: 48 velocity: 127
110164 
110165 
110273 
Channel: 10 Note ON:  D#4 key: 63 velocity: 0
110274 
Channel: 10 Note ON:  C4 key: 60 velocity: 0
110280 
Channel: 10 Note ON:  C3 key: 48 velocity: 0
110280 
Channel: 10 Note ON:  F2 key: 41 velocity: 127
110280 
Channel: 10 Note ON:  G#3 key: 56 velocity: 127
110289 
110289 
110356 
Channel: 10 Note ON:  G#3 key: 56 velocity: 0
110392 
110393 
110400 
Channel: 10 Note ON:  C4 key: 60 velocity: 127
110400 
Channel: 10 Note ON:  G#3 key: 56 velocity: 127
110496 
Channel: 10 Note ON:  C4 key: 60 velocity: 0
110507 
Channel: 10 Note ON:  G#3 key: 56 velocity: 0
110520 
Channel: 10 Note ON:  F3 key: 53 velocity: 127
110610 
Channel: 10 Note ON:  F3 key: 53 velocity: 0
110640 
Channel: 10 Note ON:  C4 key: 60 velocity: 127
110640 
Channel: 10 Note ON:  G#3 key: 56 velocity: 127
110748 
Channel: 10 Note ON:  C4 key: 60 velocity: 0
110760 
Channel: 10 Note ON:  F3 key: 53 velocity: 127
110772 
Channel: 10 Note ON:  G#3 key: 56 velocity: 0
110835 
Channel: 10 Note ON:  F2 key: 41 velocity: 0
110856 
Channel: 10 Note ON:  F3 key: 53 velocity: 0
110880 
Channel: 10 Note ON:  C4 key: 60 velocity: 127
110880 
Channel: 10 Note ON:  F2 key: 41 velocity: 127
110880 
Channel: 10 Note ON:  G#3 key: 56 velocity: 127
110965 
Channel: 10 Note ON:  C4 key: 60 velocity: 0
110988 
Channel: 10 Note ON:  F2 key: 41 velocity: 0
111000 
Channel: 10 Note ON:  C#3 key: 49 velocity: 127
111000 
Channel: 10 Note ON:  F3 key: 53 velocity: 127
111028 
Channel: 10 Note ON:  G#3 key: 56 velocity: 0
111087 
Channel: 10 Note ON:  F3 key: 53 velocity: 0
111113 
Channel: 10 Note ON:  C#3 key: 49 velocity: 0
111120 
Channel: 10 Note ON:  G#3 key: 56 velocity: 127
111120 
Channel: 10 Note ON:  C4 key: 60 velocity: 127
111120 
Channel: 10 Note ON:  F2 key: 41 velocity: 127
111145 
111145 
111230 
Channel: 10 Note ON:  C4 key: 60 velocity: 0
111230 
Channel: 10 Note ON:  G#3 key: 56 velocity: 0
111240 
Channel: 10 Note ON:  F#2 key: 42 velocity: 127
111240 
Channel: 10 Note ON:  F3 key: 53 velocity: 127
111263 
Channel: 10 Note ON:  F2 key: 41 velocity: 0
111347 
Channel: 10 Note ON:  F3 key: 53 velocity: 0
111360 
Channel: 10 Note ON:  A#3 key: 58 velocity: 127
111360 
Channel: 10 Note ON:  C#4 key: 61 velocity: 127
111378 
111379 
111465 
Channel: 10 Note ON:  C#4 key: 61 velocity: 0
111480 
Channel: 10 Note ON:  F#3 key: 54 velocity: 127
111487 
Channel: 10 Note ON:  A#3 key: 58 velocity: 0
111581 
Channel: 10 Note ON:  F#3 key: 54 velocity: 0
111600 
Channel: 10 Note ON:  A#3 key: 58 velocity: 127
111600 
Channel: 10 Note ON:  C#4 key: 61 velocity: 127
111701 
Channel: 10 Note ON:  C#4 key: 61 velocity: 0
111720 
Channel: 10 Note ON:  A#3 key: 58 velocity: 0
111720 
Channel: 10 Note ON:  F#3 key: 54 velocity: 127
111829 
Channel: 10 Note ON:  F#3 key: 54 velocity: 0
111840 
Channel: 10 Note ON:  C#4 key: 61 velocity: 127
111840 
Channel: 10 Note ON:  A#3 key: 58 velocity: 127
111928 
Channel: 10 Note ON:  C#4 key: 61 velocity: 0
111960 
Channel: 10 Note ON:  F#3 key: 54 velocity: 127
111960 
Channel: 10 Note ON:  C3 key: 48 velocity: 127
111961 
Channel: 10 Note ON:  A#3 key: 58 velocity: 0
111990 
Channel: 10 Note ON:  F#2 key: 42 velocity: 0
112018 
112018 
112080 
Channel: 10 Note ON:  A#3 key: 58 velocity: 127
112080 
Channel: 10 Note ON:  C#4 key: 61 velocity: 127
112080 
Channel: 10 Note ON:  C#3 key: 49 velocity: 127
112087 
Channel: 10 Note ON:  C3 key: 48 velocity: 0
112095 
Channel: 10 Note ON:  F#3 key: 54 velocity: 0
112104 
112105 
112199 
Channel: 10 Note ON:  C#4 key: 61 velocity: 0
112200 
Channel: 10 Note ON:  F#3 key: 54 velocity: 127
112202 
112202 
112212 
Channel: 10 Note ON:  A#3 key: 58 velocity: 0
112278 
Channel: 10 Note ON:  C#3 key: 49 velocity: 0
112293 
Channel: 10 Note ON:  F#3 key: 54 velocity: 0
112320 
Channel: 10 Note ON:  C#2 key: 37 velocity: 127
112320 
Channel: 10 Note ON:  C#4 key: 61 velocity: 127
112320 
Channel: 10 Note ON:  F4 key: 65 velocity: 127
112361 
112362 
112416 
Channel: 10 Note ON:  F4 key: 65 velocity: 0
112440 
Channel: 10 Note ON:  G#3 key: 56 velocity: 127
112447 
Channel: 10 Note ON:  C#4 key: 61 velocity: 0
112552 
Channel: 10 Note ON:  G#3 key: 56 velocity: 0
112560 
Channel: 10 Note ON:  F4 key: 65 velocity: 127
112560 
Channel: 10 Note ON:  C#4 key: 61 velocity: 127
112644 
Channel: 10 Note ON:  F4 key: 65 velocity: 0
112680 
Channel: 10 Note ON:  G#3 key: 56 velocity: 127
112689 
Channel: 10 Note ON:  C#4 key: 61 velocity: 0
112782 
Channel: 10 Note ON:  G#3 key: 56 velocity: 0
112800 
Channel: 10 Note ON:  F4 key: 65 velocity: 127
112800 
Channel: 10 Note ON:  C#4 key: 61 velocity: 127
112897 
Channel: 10 Note ON:  F4 key: 65 velocity: 0
112920 
Channel: 10 Note ON:  D#2 key: 39 velocity: 127
112920 
Channel: 10 Note ON:  G#3 key: 56 velocity: 127
112928 
Channel: 10 Note ON:  C#4 key: 61 velocity: 0
112949 
Channel: 10 Note ON:  C#2 key: 37 velocity: 0
113038 
113039 
113040 
Channel: 10 Note ON:  C#4 key: 61 velocity: 127
113040 
Channel: 10 Note ON:  F4 key: 65 velocity: 127
113040 
Channel: 10 Note ON:  F2 key: 41 velocity: 127
113048 
Channel: 10 Note ON:  D#2 key: 39 velocity: 0
113050 
Channel: 10 Note ON:  G#3 key: 56 velocity: 0
113150 
Channel: 10 Note ON:  F4 key: 65 velocity: 0
113152 
Channel: 10 Note ON:  F2 key: 41 velocity: 0
113153 
Channel: 10 Note ON:  C#4 key: 61 velocity: 0
113160 
Channel: 10 Note ON:  G#3 key: 56 velocity: 127
113160 
Channel: 10 Note ON:  G#2 key: 44 velocity: 127
113280 
Channel: 10 Note ON:  D#4 key: 63 velocity: 127
113280 
Channel: 10 Note ON:  C4 key: 60 velocity: 127
113298 
Channel: 10 Note ON:  G#3 key: 56 velocity: 0
113388 
Channel: 10 Note ON:  D#4 key: 63 velocity: 0
113400 
Channel: 10 Note ON:  G#3 key: 56 velocity: 127
113412 
Channel: 10 Note ON:  C4 key: 60 velocity: 0
113520 
Channel: 10 Note ON:  D#4 key: 63 velocity: 127
113520 
Channel: 10 Note ON:  C4 key: 60 velocity: 127
113520 
113521 
113528 
Channel: 10 Note ON:  G#3 key: 56 velocity: 0
113632 
Channel: 10 Note ON:  D#4 key: 63 velocity: 0
113640 
Channel: 10 Note ON:  C4 key: 60 velocity: 0
113640 
Channel: 10 Note ON:  G#3 key: 56 velocity: 127
113746 
Channel: 10 Note ON:  G#3 key: 56 velocity: 0
113760 
Channel: 10 Note ON:  D#4 key: 63 velocity: 127
113760 
Channel: 10 Note ON:  C4 key: 60 velocity: 127
113859 
Channel: 10 Note ON:  D#4 key: 63 velocity: 0
113880 
Channel: 10 Note ON:  G#3 key: 56 velocity: 127
113880 
Channel: 10 Note ON:  A#2 key: 46 velocity: 127
113882 
Channel: 10 Note ON:  C4 key: 60 velocity: 0
113893 
Channel: 10 Note ON:  G#2 key: 44 velocity: 0
113894 
113895 
113986 
Channel: 10 Note ON:  G#3 key: 56 velocity: 0
114000 
Channel: 10 Note ON:  C3 key: 48 velocity: 127
114000 
Channel: 10 Note ON:  D#4 key: 63 velocity: 127
114000 
Channel: 10 Note ON:  C4 key: 60 velocity: 127
114004 
Channel: 10 Note ON:  A#2 key: 46 velocity: 0
114019 
114020 
114092 
Channel: 10 Note ON:  D#4 key: 63 velocity: 0
114108 
Channel: 10 Note ON:  C3 key: 48 velocity: 0
114113 
Channel: 10 Note ON:  C4 key: 60 velocity: 0
114120 
Channel: 10 Note ON:  A#2 key: 46 velocity: 127
114120 
Channel: 10 Note ON:  G#3 key: 56 velocity: 127
114133 
114133 
114191 
Channel: 10 Note ON:  G#3 key: 56 velocity: 0
114240 
Channel: 10 Note ON:  C#4 key: 61 velocity: 127
114240 
Channel: 10 Note ON:  A#3 key: 58 velocity: 127
114284 
114285 
114326 
Channel: 10 Note ON:  C#4 key: 61 velocity: 0
114360 
Channel: 10 Note ON:  A#3 key: 58 velocity: 0
114360 
Channel: 10 Note ON:  F3 key: 53 velocity: 127
114445 
Channel: 10 Note ON:  F3 key: 53 velocity: 0
114480 
Channel: 10 Note ON:  C#4 key: 61 velocity: 127
114480 
Channel: 10 Note ON:  A#3 key: 58 velocity: 127
114568 
Channel: 10 Note ON:  C#4 key: 61 velocity: 0
114596 
Channel: 10 Note ON:  A#3 key: 58 velocity: 0
114600 
Channel: 10 Note ON:  F3 key: 53 velocity: 127
114689 
Channel: 10 Note ON:  F3 key: 53 velocity: 0
114720 
Channel: 10 Note ON:  C#4 key: 61 velocity: 127
114720 
Channel: 10 Note ON:  A#3 key: 58 velocity: 127
114802 
Channel: 10 Note ON:  C#4 key: 61 velocity: 0
114835 
Channel: 10 Note ON:  A#3 key: 58 velocity: 0
114840 
Channel: 10 Note ON:  C3 key: 48 velocity: 127
114840 
Channel: 10 Note ON:  F3 key: 53 velocity: 127
114917 
Channel: 10 Note ON:  F3 key: 53 velocity: 0
114934 
Channel: 10 Note ON:  A#2 key: 46 velocity: 0
114946 
Channel: 10 Note ON:  C3 key: 48 velocity: 0
114960 
Channel: 10 Note ON:  A#3 key: 58 velocity: 127
114960 
Channel: 10 Note ON:  C#4 key: 61 velocity: 127
114960 
Channel: 10 Note ON:  C#3 key: 49 velocity: 127
114962 
114962 
115041 
Channel: 10 Note ON:  C#4 key: 61 velocity: 0
115062 
Channel: 10 Note ON:  A#3 key: 58 velocity: 0
115080 
Channel: 10 Note ON:  F#3 key: 54 velocity: 127
115080 
Channel: 10 Note ON:  F#2 key: 42 velocity: 127
115091 
Channel: 10 Note ON:  C#3 key: 49 velocity: 0
115190 
Channel: 10 Note ON:  F#3 key: 54 velocity: 0
115200 
Channel: 10 Note ON:  A#3 key: 58 velocity: 127
115200 
Channel: 10 Note ON:  C#4 key: 61 velocity: 127
115211 
115212 
115298 
Channel: 10 Note ON:  C#4 key: 61 velocity: 0
115320 
Channel: 10 Note ON:  F#3 key: 54 velocity: 127
115322 
Channel: 10 Note ON:  A#3 key: 58 velocity: 0
115421 
Channel: 10 Note ON:  F#3 key: 54 velocity: 0
115440 
Channel: 10 Note ON:  C#4 key: 61 velocity: 127
115440 
Channel: 10 Note ON:  A#3 key: 58 velocity: 127
115534 
Channel: 10 Note ON:  C#4 key: 61 velocity: 0
115560 
Channel: 10 Note ON:  A#3 key: 58 velocity: 0
115560 
Channel: 10 Note ON:  F#3 key: 54 velocity: 127
115680 
Channel: 10 Note ON:  C#4 key: 61 velocity: 127
115680 
Channel: 10 Note ON:  A#3 key: 58 velocity: 127
115683 
Channel: 10 Note ON:  F#3 key: 54 velocity: 0
115789 
Channel: 10 Note ON:  C#4 key: 61 velocity: 0
115800 
Channel: 10 Note ON:  C3 key: 48 velocity: 127
115800 
Channel: 10 Note ON:  F#3 key: 54 velocity: 127
115826 
Channel: 10 Note ON:  A#3 key: 58 velocity: 0
115897 
Channel: 10 Note ON:  F#3 key: 54 velocity: 0
115920 
Channel: 10 Note ON:  C#3 key: 49 velocity: 127
115920 
Channel: 10 Note ON:  A#3 key: 58 velocity: 127
115920 
Channel: 10 Note ON:  C#4 key: 61 velocity: 127
115921 
Channel: 10 Note ON:  C3 key: 48 velocity: 0
115940 
Channel: 10 Note ON:  F#2 key: 42 velocity: 0
115990 
Channel: 10 Note ON:  A#3 key: 58 velocity: 0
116018 
Channel: 10 Note ON:  C#4 key: 61 velocity: 0
116040 
Channel: 10 Note ON:  F#3 key: 54 velocity: 127
116127 
116127 
116150 
Channel: 10 Note ON:  F#3 key: 54 velocity: 0
116160 
Channel: 10 Note ON:  C#2 key: 37 velocity: 127
116160 
Channel: 10 Note ON:  F4 key: 65 velocity: 127
116160 
Channel: 10 Note ON:  C#4 key: 61 velocity: 127
116163 
Channel: 10 Note ON:  C#3 key: 49 velocity: 0
116273 
116273 
116280 
Channel: 10 Note ON:  G#3 key: 56 velocity: 127
116287 
Channel: 10 Note ON:  F4 key: 65 velocity: 0
116302 
Channel: 10 Note ON:  C#4 key: 61 velocity: 0
116400 
Channel: 10 Note ON:  F4 key: 65 velocity: 127
116400 
Channel: 10 Note ON:  C#4 key: 61 velocity: 127
116402 
Channel: 10 Note ON:  G#3 key: 56 velocity: 0
116480 
Channel: 10 Note ON:  F4 key: 65 velocity: 0
116520 
Channel: 10 Note ON:  G#3 key: 56 velocity: 127
116528 
Channel: 10 Note ON:  C#4 key: 61 velocity: 0
116616 
Channel: 10 Note ON:  C#2 key: 37 velocity: 0
116632 
Channel: 10 Note ON:  G#3 key: 56 velocity: 0
116640 
Channel: 10 Note ON:  F4 key: 65 velocity: 127
116640 
Channel: 10 Note ON:  C#4 key: 61 velocity: 127
116640 
Channel: 10 Note ON:  C#2 key: 37 velocity: 127
116709 
Channel: 10 Note ON:  F4 key: 65 velocity: 0
116758 
Channel: 10 Note ON:  C#4 key: 61 velocity: 0
116760 
Channel: 10 Note ON:  D#2 key: 39 velocity: 127
116760 
Channel: 10 Note ON:  G#3 key: 56 velocity: 127
116769 
Channel: 10 Note ON:  C#2 key: 37 velocity: 0
116848 
116848 
116863 
Channel: 10 Note ON:  D#2 key: 39 velocity: 0
116876 
Channel: 10 Note ON:  G#3 key: 56 velocity: 0
116880 
Channel: 10 Note ON:  C#4 key: 61 velocity: 127
116880 
Channel: 10 Note ON:  F4 key: 65 velocity: 127
116880 
Channel: 10 Note ON:  F2 key: 41 velocity: 127
116992 
Channel: 10 Note ON:  F4 key: 65 velocity: 0
117000 
Channel: 10 Note ON:  G#3 key: 56 velocity: 127
117000 
Channel: 10 Note ON:  G#2 key: 44 velocity: 127
117005 
Channel: 10 Note ON:  C#4 key: 61 velocity: 0
117007 
Channel: 10 Note ON:  F2 key: 41 velocity: 0
117120 
Channel: 10 Note ON:  D#4 key: 63 velocity: 127
117120 
Channel: 10 Note ON:  C4 key: 60 velocity: 127
117132 
Channel: 10 Note ON:  G#3 key: 56 velocity: 0
117225 
Channel: 10 Note ON:  D#4 key: 63 velocity: 0
117227 
117227 
117240 
Channel: 10 Note ON:  G#3 key: 56 velocity: 127
117247 
Channel: 10 Note ON:  C4 key: 60 velocity: 0
117352 
Channel: 10 Note ON:  G#3 key: 56 velocity: 0
117360 
Channel: 10 Note ON:  D#4 key: 63 velocity: 127
117360 
Channel: 10 Note ON:  C4 key: 60 velocity: 127
117464 
Channel: 10 Note ON:  D#4 key: 63 velocity: 0
117473 
Channel: 10 Note ON:  C4 key: 60 velocity: 0
117480 
Channel: 10 Note ON:  G#3 key: 56 velocity: 127
117600 
Channel: 10 Note ON:  D#4 key: 63 velocity: 127
117600 
Channel: 10 Note ON:  C4 key: 60 velocity: 127
117609 
Channel: 10 Note ON:  G#3 key: 56 velocity: 0
117707 
Channel: 10 Note ON:  D#4 key: 63 velocity: 0
117720 
Channel: 10 Note ON:  C4 key: 60 velocity: 0
117720 
Channel: 10 Note ON:  G#3 key: 56 velocity: 127
117720 
Channel: 10 Note ON:  A#2 key: 46 velocity: 127
117740 
Channel: 10 Note ON:  G#2 key: 44 velocity: 0
117747 
117747 
117836 
Channel: 10 Note ON:  A#2 key: 46 velocity: 0
117838 
Channel: 10 Note ON:  G#3 key: 56 velocity: 0
117840 
Channel: 10 Note ON:  D#4 key: 63 velocity: 127
117840 
Channel: 10 Note ON:  C4 key: 60 velocity: 127
117840 
Channel: 10 Note ON:  C3 key: 48 velocity: 127
117844 
117845 
117953 
Channel: 10 Note ON:  D#4 key: 63 velocity: 0
117954 
Channel: 10 Note ON:  C4 key: 60 velocity: 0
117960 
Channel: 10 Note ON:  C3 key: 48 velocity: 0
117960 
Channel: 10 Note ON:  F2 key: 41 velocity: 127
117960 
Channel: 10 Note ON:  G#3 key: 56 velocity: 127
117969 
117969 
118036 
Channel: 10 Note ON:  G#3 key: 56 velocity: 0
118072 
118073 
118080 
Channel: 10 Note ON:  C4 key: 60 velocity: 127
118080 
Channel: 10 Note ON:  G#3 key: 56 velocity: 127
118176 
Channel: 10 Note ON:  C4 key: 60 velocity: 0
118187 
Channel: 10 Note ON:  G#3 key: 56 velocity: 0
118200 
Channel: 10 Note ON:  F3 key: 53 velocity: 127
118290 
Channel: 10 Note ON:  F3 key: 53 velocity: 0
118320 
Channel: 10 Note ON:  C4 key: 60 velocity: 127
118320 
Channel: 10 Note ON:  G#3 key: 56 velocity: 127
118428 
Channel: 10 Note ON:  C4 key: 60 velocity: 0
118440 
Channel: 10 Note ON:  F3 key: 53 velocity: 127
118452 
Channel: 10 Note ON:  G#3 key: 56 velocity: 0
118515 
Channel: 10 Note ON:  F2 key: 41 velocity: 0
118536 
Channel: 10 Note ON:  F3 key: 53 velocity: 0
118560 
Channel: 10 Note ON:  C4 key: 60 velocity: 127
118560 
Channel: 10 Note ON:  F2 key: 41 velocity: 127
118560 
Channel: 10 Note ON:  G#3 key: 56 velocity: 127
118645 
Channel: 10 Note ON:  C4 key: 60 velocity: 0
118668 
Channel: 10 Note ON:  F2 key: 41 velocity: 0
118680 
Channel: 10 Note ON:  C#3 key: 49 velocity: 127
118680 
Channel: 10 Note ON:  F3 key: 53 velocity: 127
118708 
Channel: 10 Note ON:  G#3 key: 56 velocity: 0
118767 
Channel: 10 Note ON:  F3 key: 53 velocity: 0
118793 
Channel: 10 Note ON:  C#3 key: 49 velocity: 0
118800 
Channel: 10 Note ON:  G#3 key: 56 velocity: 127
118800 
Channel: 10 Note ON:  C4 key: 60 velocity: 127
118800 
Channel: 10 Note ON:  F2 key: 41 velocity: 127
118825 
118825 
118910 
Channel: 10 Note ON:  C4 key: 60 velocity: 0
118910 
Channel: 10 Note ON:  G#3 key: 56 velocity: 0
118920 
Channel: 10 Note ON:  F#2 key: 42 velocity: 127
118920 
Channel: 10 Note ON:  F3 key: 53 velocity: 127
118943 
Channel: 10 Note ON:  F2 key: 41 velocity: 0
119027 
Channel: 10 Note ON:  F3 key: 53 velocity: 0
119040 
Channel: 10 Note ON:  A#3 key: 58 velocity: 127
119040 
Channel: 10 Note ON:  C#4 key: 61 velocity: 127
119058 
119059 
119145 
Channel: 10 Note ON:  C#4 key: 61 velocity: 0
119160 
Channel: 10 Note ON:  F#3 key: 54 velocity: 127
119167 
Channel: 10 Note ON:  A#3 key: 58 velocity: 0
119261 
Channel: 10 Note ON:  F#3 key: 54 velocity: 0
119280 
Channel: 10 Note ON:  A#3 key: 58 velocity: 127
119280 
Channel: 10 Note ON:  C#4 key: 61 velocity: 127
119381 
Channel: 10 Note ON:  C#4 key: 61 velocity: 0
119400 
Channel: 10 Note ON:  A#3 key: 58 velocity: 0
119400 
Channel: 10 Note ON:  F#3 key: 54 velocity: 127
119509 
Channel: 10 Note ON:  F#3 key: 54 velocity: 0
119520 
Channel: 10 Note ON:  C#4 key: 61 velocity: 127
119520 
Channel: 10 Note ON:  A#3 key: 58 velocity: 127
119608 
Channel: 10 Note ON:  C#4 key: 61 velocity: 0
119640 
Channel: 10 Note ON:  F#3 key: 54 velocity: 127
119640 
Channel: 10 Note ON:  C3 key: 48 velocity: 127
119641 
Channel: 10 Note ON:  A#3 key: 58 velocity: 0
119670 
Channel: 10 Note ON:  F#2 key: 42 velocity: 0
119698 
119698 
119760 
Channel: 10 Note ON:  A#3 key: 58 velocity: 127
119760 
Channel: 10 Note ON:  C#4 key: 61 velocity: 127
119760 
Channel: 10 Note ON:  C#3 key: 49 velocity: 127
119767 
Channel: 10 Note ON:  C3 key: 48 velocity: 0
119775 
Channel: 10 Note ON:  F#3 key: 54 velocity: 0
119784 
119785 
119879 
Channel: 10 Note ON:  C#4 key: 61 velocity: 0
119880 
Channel: 10 Note ON:  F#3 key: 54 velocity: 127
119882 
119882 
119892 
Channel: 10 Note ON:  A#3 key: 58 velocity: 0
119958 
Channel: 10 Note ON:  C#3 key: 49 velocity: 0
119973 
Channel: 10 Note ON:  F#3 key: 54 velocity: 0
123855 
Channel: 10 Note ON:  C#3 key: 49 velocity: 0
123855 
WTF is that class javax.sound.midi.Track$ImmutableEndOfTrack


Changing to track 2


0 
WTF is that class javax.sound.midi.MetaMessage
0 
WTF is that class javax.sound.midi.MetaMessage
0 
0 
23977 
Channel: 11 Note ON:  F#5 key: 78 velocity: 33
24117 
Channel: 11 Note ON:  F#5 key: 78 velocity: 0
24118 
Channel: 11 Note ON:  F5 key: 77 velocity: 34
24279 
Channel: 11 Note ON:  F5 key: 77 velocity: 0
24280 
Channel: 11 Note ON:  D#5 key: 75 velocity: 35
24417 
Channel: 11 Note ON:  C#5 key: 73 velocity: 36
24430 
Channel: 11 Note ON:  D#5 key: 75 velocity: 0
24560 
Channel: 11 Note ON:  F#5 key: 78 velocity: 36
24566 
Channel: 11 Note ON:  C#5 key: 73 velocity: 0
24698 
Channel: 11 Note ON:  F#5 key: 78 velocity: 0
24698 
Channel: 11 Note ON:  F5 key: 77 velocity: 36
24838 
Channel: 11 Note ON:  F5 key: 77 velocity: 0
24840 
Channel: 11 Note ON:  D#5 key: 75 velocity: 37
24959 
Channel: 11 Note ON:  D#5 key: 75 velocity: 0
24966 
Channel: 11 Note ON:  C#5 key: 73 velocity: 38
25089 
Channel: 11 Note ON:  F#5 key: 78 velocity: 38
25099 
Channel: 11 Note ON:  C#5 key: 73 velocity: 0
25207 
Channel: 11 Note ON:  F5 key: 77 velocity: 39
25211 
Channel: 11 Note ON:  F#5 key: 78 velocity: 0
25329 
Channel: 11 Note ON:  D#5 key: 75 velocity: 39
25343 
Channel: 11 Note ON:  F5 key: 77 velocity: 0
25426 
Channel: 11 Note ON:  D#5 key: 75 velocity: 0
25434 
Channel: 11 Note ON:  C#5 key: 73 velocity: 40
25548 
Channel: 11 Note ON:  F#5 key: 78 velocity: 40
25560 
Channel: 11 Note ON:  C#5 key: 73 velocity: 0
25668 
Channel: 11 Note ON:  F5 key: 77 velocity: 40
25672 
Channel: 11 Note ON:  F#5 key: 78 velocity: 0
25787 
Channel: 11 Note ON:  D#5 key: 75 velocity: 41
25803 
Channel: 11 Note ON:  F5 key: 77 velocity: 0
25889 
Channel: 11 Note ON:  D#5 key: 75 velocity: 0
25891 
Channel: 11 Note ON:  C#5 key: 73 velocity: 41
25992 
Channel: 11 Note ON:  F#5 key: 78 velocity: 42
25997 
Channel: 11 Note ON:  C#5 key: 73 velocity: 0
26098 
Channel: 11 Note ON:  F5 key: 77 velocity: 42
26109 
Channel: 11 Note ON:  F#5 key: 78 velocity: 0
26193 
Channel: 11 Note ON:  D#5 key: 75 velocity: 43
26213 
Channel: 11 Note ON:  F5 key: 77 velocity: 0
26275 
Channel: 11 Note ON:  C#5 key: 73 velocity: 43
26285 
Channel: 11 Note ON:  D#5 key: 75 velocity: 0
26360 
Channel: 11 Note ON:  F#5 key: 78 velocity: 44
26390 
Channel: 11 Note ON:  C#5 key: 73 velocity: 0
26454 
Channel: 11 Note ON:  F5 key: 77 velocity: 44
26472 
Channel: 11 Note ON:  F#5 key: 78 velocity: 0
26537 
Channel: 11 Note ON:  D#5 key: 75 velocity: 48
26557 
Channel: 11 Note ON:  F5 key: 77 velocity: 0
26620 
Channel: 11 Note ON:  C#5 key: 73 velocity: 48
26636 
Channel: 11 Note ON:  D#5 key: 75 velocity: 0
26703 
Channel: 11 Note ON:  F#5 key: 78 velocity: 48
26742 
Channel: 11 Note ON:  C#5 key: 73 velocity: 0
26777 
Channel: 11 Note ON:  F5 key: 77 velocity: 48
26804 
Channel: 11 Note ON:  F#5 key: 78 velocity: 0
26858 
Channel: 11 Note ON:  D#5 key: 75 velocity: 48
26892 
Channel: 11 Note ON:  F5 key: 77 velocity: 0
26925 
Channel: 11 Note ON:  C#5 key: 73 velocity: 49
26944 
Channel: 11 Note ON:  D#5 key: 75 velocity: 0
27000 
Channel: 11 Note ON:  F#5 key: 78 velocity: 50
27037 
Channel: 11 Note ON:  C#5 key: 73 velocity: 0
27071 
Channel: 11 Note ON:  F5 key: 77 velocity: 50
27098 
Channel: 11 Note ON:  F#5 key: 78 velocity: 0
27141 
Channel: 11 Note ON:  D#5 key: 75 velocity: 51
27182 
Channel: 11 Note ON:  F5 key: 77 velocity: 0
27208 
Channel: 11 Note ON:  C#5 key: 73 velocity: 52
27228 
Channel: 11 Note ON:  D#5 key: 75 velocity: 0
27286 
Channel: 11 Note ON:  F#5 key: 78 velocity: 54
27321 
Channel: 11 Note ON:  C#5 key: 73 velocity: 0
27339 
Channel: 11 Note ON:  F5 key: 77 velocity: 54
27366 
Channel: 11 Note ON:  F#5 key: 78 velocity: 0
27414 
Channel: 11 Note ON:  D#5 key: 75 velocity: 56
27450 
Channel: 11 Note ON:  F5 key: 77 velocity: 0
27459 
Channel: 11 Note ON:  C#5 key: 73 velocity: 56
27489 
Channel: 11 Note ON:  D#5 key: 75 velocity: 0
27550 
Channel: 11 Note ON:  F#5 key: 78 velocity: 57
27587 
Channel: 11 Note ON:  C#5 key: 73 velocity: 0
27606 
Channel: 11 Note ON:  F5 key: 77 velocity: 58
27632 
Channel: 11 Note ON:  F#5 key: 78 velocity: 0
27674 
Channel: 11 Note ON:  D#5 key: 75 velocity: 59
27702 
Channel: 11 Note ON:  F5 key: 77 velocity: 0
27712 
Channel: 11 Note ON:  C#5 key: 73 velocity: 59
27737 
Channel: 11 Note ON:  D#5 key: 75 velocity: 0
27789 
Channel: 11 Note ON:  F#5 key: 78 velocity: 60
27821 
Channel: 11 Note ON:  C#5 key: 73 velocity: 0
27840 
Channel: 11 Note ON:  F5 key: 77 velocity: 61
27883 
Channel: 11 Note ON:  F#5 key: 78 velocity: 0
27902 
Channel: 11 Note ON:  D#5 key: 75 velocity: 61
27945 
Channel: 11 Note ON:  F5 key: 77 velocity: 0
27961 
Channel: 11 Note ON:  C#5 key: 73 velocity: 62
27988 
Channel: 11 Note ON:  D#5 key: 75 velocity: 0
28039 
Channel: 11 Note ON:  F#5 key: 78 velocity: 63
28073 
Channel: 11 Note ON:  C#5 key: 73 velocity: 0
28095 
Channel: 11 Note ON:  F5 key: 77 velocity: 63
28125 
Channel: 11 Note ON:  F#5 key: 78 velocity: 0
28140 
Channel: 11 Note ON:  D#5 key: 75 velocity: 64
28176 
Channel: 11 Note ON:  F5 key: 77 velocity: 0
28193 
Channel: 11 Note ON:  C#5 key: 73 velocity: 64
28223 
Channel: 11 Note ON:  D#5 key: 75 velocity: 0
28256 
Channel: 11 Note ON:  F#5 key: 78 velocity: 65
28293 
Channel: 11 Note ON:  C#5 key: 73 velocity: 0
28320 
Channel: 11 Note ON:  F5 key: 77 velocity: 66
28351 
Channel: 11 Note ON:  F#5 key: 78 velocity: 0
28376 
Channel: 11 Note ON:  D#5 key: 75 velocity: 66
28415 
Channel: 11 Note ON:  F5 key: 77 velocity: 0
28419 
Channel: 11 Note ON:  C#5 key: 73 velocity: 67
28451 
Channel: 11 Note ON:  D#5 key: 75 velocity: 0
28486 
Channel: 11 Note ON:  F#5 key: 78 velocity: 68
28512 
Channel: 11 Note ON:  C#5 key: 73 velocity: 0
28536 
Channel: 11 Note ON:  F5 key: 77 velocity: 68
28565 
Channel: 11 Note ON:  F#5 key: 78 velocity: 0
28574 
Channel: 11 Note ON:  D#5 key: 75 velocity: 68
28611 
Channel: 11 Note ON:  F5 key: 77 velocity: 0
28619 
Channel: 11 Note ON:  C#5 key: 73 velocity: 68
28642 
Channel: 11 Note ON:  D#5 key: 75 velocity: 0
28687 
Channel: 11 Note ON:  F#5 key: 78 velocity: 69
28717 
Channel: 11 Note ON:  C#5 key: 73 velocity: 0
28724 
Channel: 11 Note ON:  F5 key: 77 velocity: 69
28749 
Channel: 11 Note ON:  F#5 key: 78 velocity: 0
28756 
Channel: 11 Note ON:  D#5 key: 75 velocity: 69
28794 
Channel: 11 Note ON:  F5 key: 77 velocity: 0
28798 
Channel: 11 Note ON:  C#5 key: 73 velocity: 70
28832 
Channel: 11 Note ON:  D#5 key: 75 velocity: 0
28856 
Channel: 11 Note ON:  F#5 key: 78 velocity: 70
28890 
Channel: 11 Note ON:  C#5 key: 73 velocity: 0
28904 
Channel: 11 Note ON:  F5 key: 77 velocity: 70
28937 
Channel: 11 Note ON:  F#5 key: 78 velocity: 0
28943 
Channel: 11 Note ON:  D#5 key: 75 velocity: 71
28971 
Channel: 11 Note ON:  C#5 key: 73 velocity: 71
28974 
Channel: 11 Note ON:  F5 key: 77 velocity: 0
28993 
Channel: 11 Note ON:  D#5 key: 75 velocity: 0
29026 
Channel: 11 Note ON:  F#5 key: 78 velocity: 71
29059 
Channel: 11 Note ON:  C#5 key: 73 velocity: 0
29071 
Channel: 11 Note ON:  F5 key: 77 velocity: 72
29099 
Channel: 11 Note ON:  D#5 key: 75 velocity: 72
29104 
Channel: 11 Note ON:  F#5 key: 78 velocity: 0
29129 
Channel: 11 Note ON:  F5 key: 77 velocity: 0
29138 
Channel: 11 Note ON:  C#5 key: 73 velocity: 72
29172 
Channel: 11 Note ON:  D#5 key: 75 velocity: 0
29196 
Channel: 11 Note ON:  F#5 key: 78 velocity: 73
29230 
Channel: 11 Note ON:  F5 key: 77 velocity: 73
29231 
Channel: 11 Note ON:  C#5 key: 73 velocity: 0
29262 
Channel: 11 Note ON:  D#5 key: 75 velocity: 73
29264 
Channel: 11 Note ON:  F#5 key: 78 velocity: 0
29287 
Channel: 11 Note ON:  F5 key: 77 velocity: 0
29299 
Channel: 11 Note ON:  C#5 key: 73 velocity: 73
29327 
Channel: 11 Note ON:  D#5 key: 75 velocity: 0
29345 
Channel: 11 Note ON:  F#5 key: 78 velocity: 73
29376 
Channel: 11 Note ON:  C#5 key: 73 velocity: 0
29391 
Channel: 11 Note ON:  F5 key: 77 velocity: 73
29417 
Channel: 11 Note ON:  D#5 key: 75 velocity: 73
29418 
Channel: 11 Note ON:  F#5 key: 78 velocity: 0
29443 
Channel: 11 Note ON:  F5 key: 77 velocity: 0
29455 
Channel: 11 Note ON:  C#5 key: 73 velocity: 74
29475 
Channel: 11 Note ON:  D#5 key: 75 velocity: 0
29506 
Channel: 11 Note ON:  F#5 key: 78 velocity: 74
29541 
Channel: 11 Note ON:  C#5 key: 73 velocity: 0
29544 
Channel: 11 Note ON:  F5 key: 77 velocity: 74
29575 
Channel: 11 Note ON:  F#5 key: 78 velocity: 0
29600 
Channel: 11 Note ON:  D#5 key: 75 velocity: 74
29603 
Channel: 11 Note ON:  F5 key: 77 velocity: 0
29618 
Channel: 11 Note ON:  C#5 key: 73 velocity: 74
29648 
Channel: 11 Note ON:  D#5 key: 75 velocity: 0
29664 
Channel: 11 Note ON:  F#5 key: 78 velocity: 74
29689 
Channel: 11 Note ON:  C#5 key: 73 velocity: 0
29701 
Channel: 11 Note ON:  F5 key: 77 velocity: 74
29727 
Channel: 11 Note ON:  F#5 key: 78 velocity: 0
29728 
Channel: 11 Note ON:  D#5 key: 75 velocity: 74
29750 
Channel: 11 Note ON:  F5 key: 77 velocity: 0
29764 
Channel: 11 Note ON:  C#5 key: 73 velocity: 75
29780 
Channel: 11 Note ON:  D#5 key: 75 velocity: 0
29800 
Channel: 11 Note ON:  F#5 key: 78 velocity: 75
29826 
Channel: 11 Note ON:  C#5 key: 73 velocity: 0
29837 
Channel: 11 Note ON:  F5 key: 77 velocity: 75
29862 
Channel: 11 Note ON:  F#5 key: 78 velocity: 0
29866 
Channel: 11 Note ON:  D#5 key: 75 velocity: 75
29892 
Channel: 11 Note ON:  F5 key: 77 velocity: 0
29905 
Channel: 11 Note ON:  C#5 key: 73 velocity: 75
29965 
Channel: 11 Note ON:  D#5 key: 75 velocity: 0
29975 
Channel: 11 Note ON:  F#5 key: 78 velocity: 75
30000 
Channel: 11 Note ON:  C#5 key: 73 velocity: 0
30021 
Channel: 11 Note ON:  F5 key: 77 velocity: 76
30026 
Channel: 11 Note ON:  F#5 key: 78 velocity: 0
30034 
Channel: 11 Note ON:  D#5 key: 75 velocity: 76
30051 
Channel: 11 Note ON:  F5 key: 77 velocity: 0
30071 
Channel: 11 Note ON:  C#5 key: 73 velocity: 76
30114 
Channel: 11 Note ON:  D#5 key: 75 velocity: 0
30130 
Channel: 11 Note ON:  F#5 key: 78 velocity: 77
30159 
Channel: 11 Note ON:  C#5 key: 73 velocity: 0
30170 
Channel: 11 Note ON:  F5 key: 77 velocity: 78
30197 
Channel: 11 Note ON:  F#5 key: 78 velocity: 0
30199 
Channel: 11 Note ON:  D#5 key: 75 velocity: 78
30231 
Channel: 11 Note ON:  F5 key: 77 velocity: 0
30237 
Channel: 11 Note ON:  C#5 key: 73 velocity: 78
30290 
Channel: 11 Note ON:  D#5 key: 75 velocity: 0
30292 
Channel: 11 Note ON:  F#5 key: 78 velocity: 79
30310 
Channel: 11 Note ON:  C#5 key: 73 velocity: 0
30350 
Channel: 11 Note ON:  F5 key: 77 velocity: 80
30363 
Channel: 11 Note ON:  F#5 key: 78 velocity: 0
30367 
Channel: 11 Note ON:  D#5 key: 75 velocity: 80
30377 
Channel: 11 Note ON:  F5 key: 77 velocity: 0
30380 
Channel: 11 Note ON:  C#5 key: 73 velocity: 80
30450 
Channel: 11 Note ON:  D#5 key: 75 velocity: 0
30456 
Channel: 11 Note ON:  F#5 key: 78 velocity: 81
30474 
Channel: 11 Note ON:  C#5 key: 73 velocity: 0
30525 
Channel: 11 Note ON:  F5 key: 77 velocity: 82
30541 
Channel: 11 Note ON:  D#5 key: 75 velocity: 82
30545 
Channel: 11 Note ON:  C#5 key: 73 velocity: 82
30549 
Channel: 11 Note ON:  F#5 key: 78 velocity: 0
30554 
Channel: 11 Note ON:  F5 key: 77 velocity: 0
30578 
Channel: 11 Note ON:  D#5 key: 75 velocity: 0
30632 
Channel: 11 Note ON:  C#5 key: 73 velocity: 0
30634 
Channel: 11 Note ON:  G#5 key: 80 velocity: 82
30818 
Channel: 11 Note OFF:  G#1 key: 32 velocity: 65
30819 
Channel: 11 Note OFF:  G#1 key: 32 velocity: 65
30822 
Channel: 11 Note OFF:  C#-1 key: 1 velocity: 66
30822 
Channel: 11 Note OFF:  C#-1 key: 1 velocity: 66
30825 
Channel: 11 Note OFF:  F4 key: 65 velocity: 66
30826 
Channel: 11 Note OFF:  F4 key: 65 velocity: 66
30829 
Channel: 11 Note OFF:  C#7 key: 97 velocity: 66
30830 
Channel: 11 Note OFF:  C#7 key: 97 velocity: 66
30833 
Channel: 11 Note OFF:  C#-1 key: 1 velocity: 67
30833 
Channel: 11 Note OFF:  C#-1 key: 1 velocity: 67
30845 
Channel: 11 Note OFF:  A1 key: 33 velocity: 67
30845 
Channel: 11 Note OFF:  A1 key: 33 velocity: 67
30863 
Channel: 11 Note OFF:  F4 key: 65 velocity: 67
30864 
Channel: 11 Note OFF:  F4 key: 65 velocity: 67
30867 
Channel: 11 Note OFF:  D-1 key: 2 velocity: 68
30867 
Channel: 11 Note OFF:  D-1 key: 2 velocity: 68
30871 
Channel: 11 Note OFF:  A#1 key: 34 velocity: 68
30871 
Channel: 11 Note OFF:  A#1 key: 34 velocity: 68
30882 
Channel: 11 Note OFF:  F#4 key: 66 velocity: 68
30883 
Channel: 11 Note OFF:  F#4 key: 66 velocity: 68
30886 
Channel: 11 Note OFF:  D7 key: 98 velocity: 68
30886 
Channel: 11 Note OFF:  D7 key: 98 velocity: 68
30890 
Channel: 11 Note OFF:  A#1 key: 34 velocity: 69
30890 
Channel: 11 Note OFF:  A#1 key: 34 velocity: 69
30894 
Channel: 11 Note OFF:  D#-1 key: 3 velocity: 70
30894 
Channel: 11 Note OFF:  D#-1 key: 3 velocity: 70
30898 
Channel: 11 Note OFF:  G4 key: 67 velocity: 70
30898 
Channel: 11 Note OFF:  G4 key: 67 velocity: 70
30901 
Channel: 11 Note OFF:  D#-1 key: 3 velocity: 71
30902 
Channel: 11 Note OFF:  D#-1 key: 3 velocity: 71
30905 
Channel: 11 Note OFF:  D#7 key: 99 velocity: 71
30906 
Channel: 11 Note OFF:  D#7 key: 99 velocity: 71
30909 
Channel: 11 Note OFF:  E-1 key: 4 velocity: 73
30909 
Channel: 11 Note OFF:  E-1 key: 4 velocity: 73
30913 
Channel: 11 Note OFF:  G#4 key: 68 velocity: 73
30913 
Channel: 11 Note OFF:  G#4 key: 68 velocity: 73
30916 
Channel: 11 Note OFF:  F-1 key: 5 velocity: 74
30917 
Channel: 11 Note OFF:  F-1 key: 5 velocity: 74
30924 
Channel: 11 Note OFF:  A4 key: 69 velocity: 74
30924 
Channel: 11 Note OFF:  A4 key: 69 velocity: 74
30928 
Channel: 11 Note OFF:  F7 key: 101 velocity: 74
30928 
Channel: 11 Note OFF:  F7 key: 101 velocity: 74
30931 
Channel: 11 Note OFF:  F-1 key: 5 velocity: 75
30932 
Channel: 11 Note OFF:  F-1 key: 5 velocity: 75
30943 
Channel: 11 Note OFF:  C#2 key: 37 velocity: 75
30944 
Channel: 11 Note OFF:  C#2 key: 37 velocity: 75
30947 
Channel: 11 Note OFF:  F7 key: 101 velocity: 75
30947 
Channel: 11 Note OFF:  F7 key: 101 velocity: 75
30950 
Channel: 11 Note OFF:  F#-1 key: 6 velocity: 76
30951 
Channel: 11 Note OFF:  F#-1 key: 6 velocity: 76
30958 
Channel: 11 Note OFF:  A#4 key: 70 velocity: 76
30959 
Channel: 11 Note OFF:  A#4 key: 70 velocity: 76
30962 
Channel: 11 Note OFF:  D2 key: 38 velocity: 77
30962 
Channel: 11 Note OFF:  D2 key: 38 velocity: 77
30969 
Channel: 11 Note OFF:  A#4 key: 70 velocity: 77
30970 
Channel: 11 Note OFF:  A#4 key: 70 velocity: 77
30977 
Channel: 11 Note OFF:  F#7 key: 102 velocity: 77
30978 
Channel: 11 Note OFF:  F#7 key: 102 velocity: 77
30981 
Channel: 11 Note OFF:  G-1 key: 7 velocity: 78
30981 
Channel: 11 Note OFF:  G-1 key: 7 velocity: 78
30988 
Channel: 11 Note OFF:  D#2 key: 39 velocity: 78
30989 
Channel: 11 Note OFF:  D#2 key: 39 velocity: 78
31000 
Channel: 11 Note OFF:  G7 key: 103 velocity: 78
31000 
Channel: 11 Note OFF:  G7 key: 103 velocity: 78
31019 
Channel: 11 Note OFF:  G-1 key: 7 velocity: 79
31019 
Channel: 11 Note OFF:  G-1 key: 7 velocity: 79
31026 
Channel: 11 Note OFF:  D#2 key: 39 velocity: 79
31027 
Channel: 11 Note OFF:  D#2 key: 39 velocity: 79
31030 
Channel: 11 Note OFF:  G7 key: 103 velocity: 79
31030 
Channel: 11 Note OFF:  G7 key: 103 velocity: 79
31034 
Channel: 11 Note OFF:  G#-1 key: 8 velocity: 81
31034 
Channel: 11 Note OFF:  G#-1 key: 8 velocity: 81
31038 
Channel: 11 Note OFF:  G#7 key: 104 velocity: 81
31038 
Channel: 11 Note OFF:  G#7 key: 104 velocity: 81
31041 
Channel: 11 Note OFF:  F2 key: 41 velocity: 82
31042 
Channel: 11 Note OFF:  F2 key: 41 velocity: 82
31045 
Channel: 11 Note OFF:  C#5 key: 73 velocity: 82
31046 
Channel: 11 Note OFF:  C#5 key: 73 velocity: 82
31049 
Channel: 11 Note OFF:  A7 key: 105 velocity: 82
31049 
Channel: 11 Note OFF:  A7 key: 105 velocity: 82
31053 
Channel: 11 Note OFF:  F2 key: 41 velocity: 83
31053 
Channel: 11 Note OFF:  F2 key: 41 velocity: 83
31057 
Channel: 11 Note OFF:  A7 key: 105 velocity: 83
31057 
Channel: 11 Note OFF:  A7 key: 105 velocity: 83
31060 
Channel: 11 Note OFF:  A#-1 key: 10 velocity: 85
31061 
Channel: 11 Note OFF:  A#-1 key: 10 velocity: 85
31064 
Channel: 11 Note OFF:  F#2 key: 42 velocity: 85
31065 
Channel: 11 Note OFF:  F#2 key: 42 velocity: 85
31068 
Channel: 11 Note OFF:  A#7 key: 106 velocity: 85
31069 
Channel: 11 Note OFF:  A#7 key: 106 velocity: 85
31072 
Channel: 11 Note OFF:  B-1 key: 11 velocity: 86
31072 
Channel: 11 Note OFF:  B-1 key: 11 velocity: 86
31080 
Channel: 11 Note OFF:  D#5 key: 75 velocity: 86
31080 
Channel: 11 Note OFF:  D#5 key: 75 velocity: 86
31083 
Channel: 11 Note OFF:  B7 key: 107 velocity: 86
31084 
Channel: 11 Note OFF:  B7 key: 107 velocity: 86
31087 
Channel: 11 Note OFF:  G2 key: 43 velocity: 87
31087 
Channel: 11 Note OFF:  G2 key: 43 velocity: 87
31091 
Channel: 11 Note OFF:  B7 key: 107 velocity: 87
31091 
Channel: 11 Note OFF:  B7 key: 107 velocity: 87
31095 
Channel: 11 Note OFF:  E5 key: 76 velocity: 88
31095 
Channel: 11 Note OFF:  E5 key: 76 velocity: 88
31098 
Channel: 11 Note OFF:  C8 key: 108 velocity: 88
31099 
Channel: 11 Note OFF:  C8 key: 108 velocity: 88
31102 
Channel: 11 Note OFF:  G#2 key: 44 velocity: 89
31103 
Channel: 11 Note OFF:  G#2 key: 44 velocity: 89
31106 
Channel: 11 Note OFF:  C8 key: 108 velocity: 89
31106 
Channel: 11 Note OFF:  C8 key: 108 velocity: 89
31114 
Channel: 11 Note OFF:  A2 key: 45 velocity: 90
31114 
Channel: 11 Note OFF:  A2 key: 45 velocity: 90
31117 
Channel: 11 Note OFF:  F5 key: 77 velocity: 90
31118 
Channel: 11 Note OFF:  F5 key: 77 velocity: 90
31125 
Channel: 11 Note OFF:  C#8 key: 109 velocity: 90
31125 
Channel: 11 Note OFF:  C#8 key: 109 velocity: 90
31129 
Channel: 11 Note OFF:  C#0 key: 13 velocity: 91
31129 
Channel: 11 Note OFF:  C#0 key: 13 velocity: 91
31133 
Channel: 11 Note OFF:  A2 key: 45 velocity: 91
31133 
Channel: 11 Note OFF:  A2 key: 45 velocity: 91
31136 
Channel: 11 Note OFF:  F5 key: 77 velocity: 91
31136 
Channel: 11 Note OFF:  F5 key: 77 velocity: 91
31140 
Channel: 11 Note OFF:  C#8 key: 109 velocity: 91
31140 
Channel: 11 Note OFF:  C#8 key: 109 velocity: 91
31144 
Channel: 11 Note OFF:  D0 key: 14 velocity: 92
31144 
Channel: 11 Note OFF:  D0 key: 14 velocity: 92
31151 
Channel: 11 Note OFF:  A#2 key: 46 velocity: 92
31152 
Channel: 11 Note OFF:  A#2 key: 46 velocity: 92
31159 
Channel: 11 Note OFF:  F#5 key: 78 velocity: 92
31159 
Channel: 11 Note OFF:  F#5 key: 78 velocity: 92
31170 
Channel: 11 Note OFF:  D8 key: 110 velocity: 92
31171 
Channel: 11 Note OFF:  D8 key: 110 velocity: 92
31174 
Channel: 11 Note OFF:  D0 key: 14 velocity: 93
31175 
Channel: 11 Note OFF:  D0 key: 14 velocity: 93
31178 
Channel: 11 Note OFF:  A#2 key: 46 velocity: 93
31178 
Channel: 11 Note OFF:  A#2 key: 46 velocity: 93
31182 
Channel: 11 Note OFF:  F#5 key: 78 velocity: 93
31182 
Channel: 11 Note OFF:  F#5 key: 78 velocity: 93
31186 
Channel: 11 Note OFF:  D8 key: 110 velocity: 93
31186 
Channel: 11 Note OFF:  D8 key: 110 velocity: 93
31193 
Channel: 11 Note OFF:  B2 key: 47 velocity: 94
31193 
Channel: 11 Note OFF:  B2 key: 47 velocity: 94
31200 
Channel: 11 Note OFF:  G5 key: 79 velocity: 94
31200 
Channel: 11 Note OFF:  G5 key: 79 velocity: 94
31204 
Channel: 11 Note OFF:  D#0 key: 15 velocity: 95
31205 
Channel: 11 Note OFF:  D#0 key: 15 velocity: 95
31208 
Channel: 11 Note OFF:  B2 key: 47 velocity: 95
31209 
Channel: 11 Note OFF:  B2 key: 47 velocity: 95
31212 
Channel: 11 Note OFF:  D#8 key: 111 velocity: 95
31212 
Channel: 11 Note OFF:  D#8 key: 111 velocity: 95
31216 
Channel: 11 Note OFF:  E0 key: 16 velocity: 96
31216 
Channel: 11 Note OFF:  E0 key: 16 velocity: 96
31220 
Channel: 11 Note OFF:  C3 key: 48 velocity: 96
31220 
Channel: 11 Note OFF:  C3 key: 48 velocity: 96
31223 
Channel: 11 Note OFF:  G#5 key: 80 velocity: 96
31224 
Channel: 11 Note OFF:  G#5 key: 80 velocity: 96
31231 
Channel: 11 Note OFF:  E8 key: 112 velocity: 96
31231 
Channel: 11 Note OFF:  E8 key: 112 velocity: 96
31239 
Channel: 11 Note OFF:  E0 key: 16 velocity: 97
31239 
Channel: 11 Note OFF:  E0 key: 16 velocity: 97
31242 
Channel: 11 Note OFF:  C3 key: 48 velocity: 97
31243 
Channel: 11 Note OFF:  C3 key: 48 velocity: 97
31246 
Channel: 11 Note OFF:  F0 key: 17 velocity: 98
31246 
Channel: 11 Note OFF:  F0 key: 17 velocity: 98
31250 
Channel: 11 Note OFF:  A5 key: 81 velocity: 98
31250 
Channel: 11 Note OFF:  A5 key: 81 velocity: 98
31254 
Channel: 11 Note OFF:  A5 key: 81 velocity: 99
31254 
Channel: 11 Note OFF:  A5 key: 81 velocity: 99
31257 
Channel: 11 Note OFF:  F#8 key: 114 velocity: 100
31258 
Channel: 11 Note OFF:  F#8 key: 114 velocity: 100
31261 
Channel: 11 Note OFF:  F#8 key: 114 velocity: 101
31262 
Channel: 11 Note OFF:  F#8 key: 114 velocity: 101
31265 
Channel: 11 Note OFF:  D#3 key: 51 velocity: 103
31265 
Channel: 11 Note OFF:  D#3 key: 51 velocity: 103
31269 
Channel: 11 Note OFF:  C6 key: 84 velocity: 104
31269 
Channel: 11 Note OFF:  C6 key: 84 velocity: 104
31273 
Channel: 11 Note OFF:  E3 key: 52 velocity: 105
31273 
Channel: 11 Note OFF:  E3 key: 52 velocity: 105
31276 
Channel: 11 Note OFF:  G#8 key: 116 velocity: 105
31277 
Channel: 11 Note OFF:  G#8 key: 116 velocity: 105
31280 
Channel: 11 Note OFF:  C#6 key: 85 velocity: 106
31281 
Channel: 11 Note OFF:  C#6 key: 85 velocity: 106
31284 
Channel: 11 Note OFF:  A#0 key: 22 velocity: 108
31285 
Channel: 11 Note OFF:  A#0 key: 22 velocity: 108
31288 
Channel: 11 Note OFF:  D6 key: 86 velocity: 109
31288 
Channel: 11 Note OFF:  D6 key: 86 velocity: 109
31291 
Channel: 11 Note OFF:  D#6 key: 87 velocity: 110
31292 
Channel: 11 Note OFF:  D#6 key: 87 velocity: 110
31295 
Channel: 11 Note OFF:  B0 key: 23 velocity: 111
31296 
Channel: 11 Note OFF:  B0 key: 23 velocity: 111
31299 
Channel: 11 Note OFF:  D#6 key: 87 velocity: 111
31299 
Channel: 11 Note OFF:  D#6 key: 87 velocity: 111
31303 
Channel: 11 Note OFF:  C1 key: 24 velocity: 112
31303 
Channel: 11 Note OFF:  C1 key: 24 velocity: 112
31307 
Channel: 11 Note OFF:  C1 key: 24 velocity: 113
31307 
Channel: 11 Note OFF:  C1 key: 24 velocity: 113
31310 
Channel: 11 Note OFF:  E6 key: 88 velocity: 113
31311 
Channel: 11 Note OFF:  E6 key: 88 velocity: 113
31314 
Channel: 11 Note OFF:  C#1 key: 25 velocity: 114
31315 
Channel: 11 Note OFF:  C#1 key: 25 velocity: 114
31318 
Channel: 11 Note OFF:  F6 key: 89 velocity: 114
31319 
Channel: 11 Note OFF:  F6 key: 89 velocity: 114
31321 
Channel: 11 Note OFF:  C#1 key: 25 velocity: 114
31322 
Channel: 11 Note OFF:  C#1 key: 25 velocity: 114
31333 
Channel: 11 Note OFF:  F6 key: 89 velocity: 114
31334 
Channel: 11 Note OFF:  F6 key: 89 velocity: 114
31337 
Channel: 11 Note OFF:  C#1 key: 25 velocity: 114
31337 
Channel: 11 Note OFF:  C#1 key: 25 velocity: 114
31344 
Channel: 11 Note OFF:  E6 key: 88 velocity: 113
31345 
Channel: 11 Note OFF:  E6 key: 88 velocity: 113
31348 
Channel: 11 Note OFF:  B0 key: 23 velocity: 111
31349 
Channel: 11 Note OFF:  B0 key: 23 velocity: 111
31352 
Channel: 11 Note OFF:  B0 key: 23 velocity: 110
31353 
Channel: 11 Note OFF:  B0 key: 23 velocity: 110
31356 
Channel: 11 Note OFF:  C#6 key: 85 velocity: 106
31356 
Channel: 11 Note OFF:  C#6 key: 85 velocity: 106
31360 
Channel: 11 Note OFF:  G#0 key: 20 velocity: 105
31360 
Channel: 11 Note OFF:  G#0 key: 20 velocity: 105
31364 
Channel: 11 Note OFF:  G0 key: 19 velocity: 103
31364 
Channel: 11 Note OFF:  G0 key: 19 velocity: 103
31367 
Channel: 11 Note OFF:  D3 key: 50 velocity: 100
31368 
Channel: 11 Note OFF:  D3 key: 50 velocity: 100
31371 
Channel: 11 Note OFF:  E8 key: 112 velocity: 96
31372 
Channel: 11 Note OFF:  E8 key: 112 velocity: 96
31375 
Channel: 11 Note OFF:  D0 key: 14 velocity: 93
31375 
Channel: 11 Note OFF:  D0 key: 14 velocity: 93
31378 
Channel: 11 Note OFF:  E5 key: 76 velocity: 89
31378 
Channel: 11 Note OFF:  E5 key: 76 velocity: 89
31383 
Channel: 11 Note OFF:  G2 key: 43 velocity: 86
31383 
Channel: 11 Note OFF:  G2 key: 43 velocity: 86
31386 
Channel: 11 Note OFF:  A-1 key: 9 velocity: 83
31387 
Channel: 11 Note OFF:  A-1 key: 9 velocity: 83
31390 
Channel: 11 Note OFF:  B4 key: 71 velocity: 79
31391 
Channel: 11 Note OFF:  B4 key: 71 velocity: 79
31394 
Channel: 11 Note OFF:  D2 key: 38 velocity: 76
31394 
Channel: 11 Note OFF:  D2 key: 38 velocity: 76
31398 
Channel: 11 Note OFF:  F-1 key: 5 velocity: 74
31398 
Channel: 11 Note OFF:  F-1 key: 5 velocity: 74
31401 
Channel: 11 Note OFF:  B1 key: 35 velocity: 71
31402 
Channel: 11 Note OFF:  B1 key: 35 velocity: 71
31405 
Channel: 11 Note OFF:  F#4 key: 66 velocity: 69
31406 
Channel: 11 Note OFF:  F#4 key: 66 velocity: 69
31417 
Channel: 11 Note OFF:  D#7 key: 99 velocity: 70
31417 
Channel: 11 Note OFF:  D#7 key: 99 velocity: 70
31421 
Channel: 11 Note OFF:  F7 key: 101 velocity: 75
31421 
Channel: 11 Note OFF:  F7 key: 101 velocity: 75
31424 
Channel: 11 Note OFF:  C#5 key: 73 velocity: 82
31425 
Channel: 11 Note OFF:  C#5 key: 73 velocity: 82
31428 
Channel: 11 Note OFF:  C8 key: 108 velocity: 89
31428 
Channel: 11 Note OFF:  C8 key: 108 velocity: 89
31432 
Channel: 11 Note OFF:  F0 key: 17 velocity: 98
31432 
Channel: 11 Note OFF:  F0 key: 17 velocity: 98
31436 
Channel: 11 Note OFF:  G#8 key: 116 velocity: 104
31436 
Channel: 11 Note OFF:  G#8 key: 116 velocity: 104
31439 
Channel: 11 Note OFF:  E6 key: 88 velocity: 112
31440 
Channel: 11 Note OFF:  E6 key: 88 velocity: 112
31442 
Channel: 11 Note OFF:  E1 key: 28 velocity: 120
31443 
Channel: 11 Note OFF:  E1 key: 28 velocity: 120
31447 
Channel: 11 Note OFF:  A#6 key: 94 velocity: 124
31447 
Channel: 11 Note OFF:  A#6 key: 94 velocity: 124
31451 
Channel: 11 Note OFF:  F#1 key: 30 velocity: 125
31451 
Channel: 11 Note OFF:  F#1 key: 30 velocity: 125
31470 
Channel: 11 Note OFF:  A6 key: 93 velocity: 123
31470 
Channel: 11 Note OFF:  A6 key: 93 velocity: 123
31473 
Channel: 11 Note OFF:  D1 key: 26 velocity: 117
31474 
Channel: 11 Note OFF:  D1 key: 26 velocity: 117
31477 
Channel: 11 Note OFF:  D#6 key: 87 velocity: 110
31478 
Channel: 11 Note OFF:  D#6 key: 87 velocity: 110
31481 
Channel: 11 Note ON:  G#5 key: 80 velocity: 0
31482 
Channel: 11 Note OFF:  G#0 key: 20 velocity: 104
31482 
Channel: 11 Note OFF:  G#0 key: 20 velocity: 104
31485 
Channel: 11 Note OFF:  F0 key: 17 velocity: 99
31485 
Channel: 11 Note OFF:  F0 key: 17 velocity: 99
31489 
Channel: 11 Note OFF:  D#0 key: 15 velocity: 94
31489 
Channel: 11 Note OFF:  D#0 key: 15 velocity: 94
31493 
Channel: 11 Note OFF:  A2 key: 45 velocity: 90
31493 
Channel: 11 Note OFF:  A2 key: 45 velocity: 90
31496 
Channel: 11 Note OFF:  D#5 key: 75 velocity: 87
31496 
Channel: 11 Note OFF:  D#5 key: 75 velocity: 87
31500 
Channel: 11 Note OFF:  B7 key: 107 velocity: 86
31500 
Channel: 11 Note OFF:  B7 key: 107 velocity: 86
31504 
Channel: 11 Note OFF:  D5 key: 74 velocity: 85
31504 
Channel: 11 Note OFF:  D5 key: 74 velocity: 85
31507 
Channel: 11 Note OFF:  G#7 key: 104 velocity: 81
31508 
Channel: 11 Note OFF:  G#7 key: 104 velocity: 81
31512 
Channel: 11 Note OFF:  C-1 key: 0 velocity: 64
31512 
Channel: 11 Note OFF:  C-1 key: 0 velocity: 64
39360 
Channel: 11 Note ON:  F#2 key: 42 velocity: 127
39679 
Channel: 11 Note ON:  F#2 key: 42 velocity: 0
39720 
Channel: 11 Note ON:  F#2 key: 42 velocity: 127
39812 
Channel: 11 Note ON:  F#2 key: 42 velocity: 0
40320 
Channel: 11 Note ON:  F#2 key: 42 velocity: 127
40574 
Channel: 11 Note ON:  F#2 key: 42 velocity: 0
40680 
Channel: 11 Note ON:  F#2 key: 42 velocity: 127
41166 
Channel: 11 Note ON:  F#2 key: 42 velocity: 0
41280 
Channel: 11 Note ON:  C#2 key: 37 velocity: 125
41547 
Channel: 11 Note ON:  C#2 key: 37 velocity: 0
41640 
Channel: 11 Note ON:  C#2 key: 37 velocity: 127
42170 
Channel: 11 Note ON:  C#2 key: 37 velocity: 0
42240 
Channel: 11 Note ON:  C#2 key: 37 velocity: 127
42491 
Channel: 11 Note ON:  C#2 key: 37 velocity: 0
42600 
Channel: 11 Note ON:  C#2 key: 37 velocity: 127
43166 
Channel: 11 Note ON:  C#2 key: 37 velocity: 0
43200 
Channel: 11 Note ON:  F#2 key: 42 velocity: 127
43504 
Channel: 11 Note ON:  F#2 key: 42 velocity: 0
43560 
Channel: 11 Note ON:  F#2 key: 42 velocity: 127
43708 
Channel: 11 Note ON:  F#2 key: 42 velocity: 0
44160 
Channel: 11 Note ON:  F#2 key: 42 velocity: 127
44426 
Channel: 11 Note ON:  F#2 key: 42 velocity: 0
44460 
Channel: 11 Note ON:  F#2 key: 42 velocity: 127
44933 
Channel: 11 Note ON:  F#2 key: 42 velocity: 0
45120 
Channel: 11 Note ON:  C#2 key: 37 velocity: 127
45297 
Channel: 11 Note ON:  C#2 key: 37 velocity: 0
45480 
Channel: 11 Note ON:  C#2 key: 37 velocity: 127
45696 
Channel: 11 Note ON:  C#2 key: 37 velocity: 0
45720 
Channel: 11 Note ON:  C#2 key: 37 velocity: 127
45780 
Channel: 11 Note ON:  C#2 key: 37 velocity: 0
45840 
Channel: 11 Note ON:  C#2 key: 37 velocity: 127
45898 
Channel: 11 Note ON:  C#2 key: 37 velocity: 0
45960 
Channel: 11 Note ON:  C#2 key: 37 velocity: 127
46005 
Channel: 11 Note ON:  C#2 key: 37 velocity: 0
46080 
Channel: 11 Note ON:  C#2 key: 37 velocity: 127
46297 
Channel: 11 Note ON:  C#2 key: 37 velocity: 0
46440 
Channel: 11 Note ON:  C#2 key: 37 velocity: 127
47001 
Channel: 11 Note ON:  C#2 key: 37 velocity: 0
47040 
Channel: 11 Note ON:  F#2 key: 42 velocity: 127
47342 
Channel: 11 Note ON:  F#2 key: 42 velocity: 0
47400 
Channel: 11 Note ON:  F#2 key: 42 velocity: 127
47554 
Channel: 11 Note ON:  F#2 key: 42 velocity: 0
48000 
Channel: 11 Note ON:  F#2 key: 42 velocity: 127
48257 
Channel: 11 Note ON:  F#2 key: 42 velocity: 0
48360 
Channel: 11 Note ON:  F#2 key: 42 velocity: 127
48847 
Channel: 11 Note ON:  F#2 key: 42 velocity: 0
48960 
Channel: 11 Note ON:  C#2 key: 37 velocity: 127
49253 
Channel: 11 Note ON:  C#2 key: 37 velocity: 0
49320 
Channel: 11 Note ON:  C#2 key: 37 velocity: 127
49828 
Channel: 11 Note ON:  C#2 key: 37 velocity: 0
49920 
Channel: 11 Note ON:  C#2 key: 37 velocity: 127
50014 
Channel: 11 Note ON:  C#2 key: 37 velocity: 0
50040 
Channel: 11 Note ON:  C#2 key: 37 velocity: 127
50139 
Channel: 11 Note ON:  C#2 key: 37 velocity: 0
50280 
Channel: 11 Note ON:  C#2 key: 37 velocity: 127
50871 
Channel: 11 Note ON:  C#2 key: 37 velocity: 0
50880 
Channel: 11 Note ON:  F#2 key: 42 velocity: 127
51178 
Channel: 11 Note ON:  F#2 key: 42 velocity: 0
51240 
Channel: 11 Note ON:  F#2 key: 42 velocity: 127
51352 
Channel: 11 Note ON:  F#2 key: 42 velocity: 0
51840 
Channel: 11 Note ON:  F#2 key: 42 velocity: 127
52081 
Channel: 11 Note ON:  F#2 key: 42 velocity: 0
52200 
Channel: 11 Note ON:  F#2 key: 42 velocity: 127
52663 
Channel: 11 Note ON:  F#2 key: 42 velocity: 0
52800 
Channel: 11 Note ON:  G#2 key: 44 velocity: 127
53160 
Channel: 11 Note ON:  C#2 key: 37 velocity: 127
53182 
Channel: 11 Note ON:  G#2 key: 44 velocity: 0
53714 
Channel: 11 Note ON:  C#2 key: 37 velocity: 0
53760 
Channel: 11 Note ON:  G#2 key: 44 velocity: 127
54000 
Channel: 11 Note ON:  C#2 key: 37 velocity: 127
54013 
Channel: 11 Note ON:  G#2 key: 44 velocity: 0
54120 
Channel: 11 Note ON:  F#2 key: 42 velocity: 127
54125 
Channel: 11 Note ON:  C#2 key: 37 velocity: 0
54715 
Channel: 11 Note ON:  F#2 key: 42 velocity: 0
54720 
Channel: 11 Note ON:  C#2 key: 37 velocity: 127
55320 
Channel: 11 Note ON:  D#2 key: 39 velocity: 127
55333 
Channel: 11 Note ON:  C#2 key: 37 velocity: 0
55436 
Channel: 11 Note ON:  D#2 key: 39 velocity: 0
55440 
Channel: 11 Note ON:  F2 key: 41 velocity: 127
55555 
Channel: 11 Note ON:  F2 key: 41 velocity: 0
55560 
Channel: 11 Note ON:  G#2 key: 44 velocity: 127
56280 
Channel: 11 Note ON:  A#2 key: 46 velocity: 127
56307 
Channel: 11 Note ON:  G#2 key: 44 velocity: 0
56390 
Channel: 11 Note ON:  A#2 key: 46 velocity: 0
56400 
Channel: 11 Note ON:  C3 key: 48 velocity: 127
56520 
Channel: 11 Note ON:  A#2 key: 46 velocity: 127
56531 
Channel: 11 Note ON:  C3 key: 48 velocity: 0
57240 
Channel: 11 Note ON:  C3 key: 48 velocity: 127
57250 
Channel: 11 Note ON:  A#2 key: 46 velocity: 0
57360 
Channel: 11 Note ON:  C3 key: 48 velocity: 0
57360 
Channel: 11 Note ON:  C#3 key: 49 velocity: 127
57480 
Channel: 11 Note ON:  F#2 key: 42 velocity: 127
57489 
Channel: 11 Note ON:  C#3 key: 49 velocity: 0
58200 
Channel: 11 Note ON:  C3 key: 48 velocity: 127
58230 
Channel: 11 Note ON:  F#2 key: 42 velocity: 0
58320 
Channel: 11 Note ON:  C#3 key: 49 velocity: 127
58323 
Channel: 11 Note ON:  C3 key: 48 velocity: 0
58440 
Channel: 11 Note ON:  C#2 key: 37 velocity: 127
58455 
Channel: 11 Note ON:  C#3 key: 49 velocity: 0
59160 
Channel: 11 Note ON:  C#2 key: 37 velocity: 0
59160 
Channel: 11 Note ON:  D#2 key: 39 velocity: 127
59265 
Channel: 11 Note ON:  D#2 key: 39 velocity: 0
59280 
Channel: 11 Note ON:  F2 key: 41 velocity: 127
59394 
Channel: 11 Note ON:  F2 key: 41 velocity: 0
59400 
Channel: 11 Note ON:  G#2 key: 44 velocity: 127
60096 
Channel: 11 Note ON:  G#2 key: 44 velocity: 0
60120 
Channel: 11 Note ON:  A#2 key: 46 velocity: 127
60226 
Channel: 11 Note ON:  A#2 key: 46 velocity: 0
60240 
Channel: 11 Note ON:  C3 key: 48 velocity: 127
60345 
Channel: 11 Note ON:  C3 key: 48 velocity: 0
60360 
Channel: 11 Note ON:  A#2 key: 46 velocity: 127
61080 
Channel: 11 Note ON:  A#2 key: 46 velocity: 0
61080 
Channel: 11 Note ON:  C3 key: 48 velocity: 127
61200 
Channel: 11 Note ON:  C3 key: 48 velocity: 0
61200 
Channel: 11 Note ON:  C#3 key: 49 velocity: 127
61320 
Channel: 11 Note ON:  C#3 key: 49 velocity: 0
61320 
Channel: 11 Note ON:  F#2 key: 42 velocity: 127
62040 
Channel: 11 Note ON:  F#2 key: 42 velocity: 0
62040 
Channel: 11 Note ON:  C3 key: 48 velocity: 127
62160 
Channel: 11 Note ON:  C#3 key: 49 velocity: 127
62165 
Channel: 11 Note ON:  C3 key: 48 velocity: 0
62400 
Channel: 11 Note ON:  C#2 key: 37 velocity: 127
62402 
Channel: 11 Note ON:  C#3 key: 49 velocity: 0
62824 
Channel: 11 Note ON:  C#2 key: 37 velocity: 0
62880 
Channel: 11 Note ON:  C#2 key: 37 velocity: 127
63000 
Channel: 11 Note ON:  D#2 key: 39 velocity: 127
63022 
Channel: 11 Note ON:  C#2 key: 37 velocity: 0
63118 
Channel: 11 Note ON:  D#2 key: 39 velocity: 0
63120 
Channel: 11 Note ON:  F2 key: 41 velocity: 127
63226 
Channel: 11 Note ON:  F2 key: 41 velocity: 0
63240 
Channel: 11 Note ON:  G#2 key: 44 velocity: 127
63895 
Channel: 11 Note ON:  G#2 key: 44 velocity: 0
63960 
Channel: 11 Note ON:  A#2 key: 46 velocity: 127
64059 
Channel: 11 Note ON:  A#2 key: 46 velocity: 0
64080 
Channel: 11 Note ON:  C3 key: 48 velocity: 127
64188 
Channel: 11 Note ON:  C3 key: 48 velocity: 0
64200 
Channel: 11 Note ON:  F2 key: 41 velocity: 127
64789 
Channel: 11 Note ON:  F2 key: 41 velocity: 0
64800 
Channel: 11 Note ON:  F2 key: 41 velocity: 127
65109 
Channel: 11 Note ON:  F2 key: 41 velocity: 0
65160 
Channel: 11 Note ON:  F#2 key: 42 velocity: 127
65880 
Channel: 11 Note ON:  C3 key: 48 velocity: 127
65910 
Channel: 11 Note ON:  F#2 key: 42 velocity: 0
66000 
Channel: 11 Note ON:  C#3 key: 49 velocity: 127
66013 
Channel: 11 Note ON:  C3 key: 48 velocity: 0
66240 
Channel: 11 Note ON:  C#3 key: 49 velocity: 0
66240 
Channel: 11 Note ON:  C#2 key: 37 velocity: 127
66240 
Channel: 11 Note ON:  C#3 key: 49 velocity: 127
66243 
Channel: 11 Note ON:  C#3 key: 49 velocity: 0
66683 
Channel: 11 Note ON:  C#2 key: 37 velocity: 0
66720 
Channel: 11 Note ON:  C#2 key: 37 velocity: 127
66836 
Channel: 11 Note ON:  C#2 key: 37 velocity: 0
66840 
Channel: 11 Note ON:  D#2 key: 39 velocity: 127
66942 
Channel: 11 Note ON:  D#2 key: 39 velocity: 0
66960 
Channel: 11 Note ON:  F2 key: 41 velocity: 127
67062 
Channel: 11 Note ON:  F2 key: 41 velocity: 0
67080 
Channel: 11 Note ON:  G#2 key: 44 velocity: 127
67800 
Channel: 11 Note ON:  A#2 key: 46 velocity: 127
67842 
Channel: 11 Note ON:  G#2 key: 44 velocity: 0
67920 
Channel: 11 Note ON:  C3 key: 48 velocity: 127
67923 
Channel: 11 Note ON:  A#2 key: 46 velocity: 0
68027 
Channel: 11 Note ON:  C3 key: 48 velocity: 0
68040 
Channel: 11 Note ON:  A#2 key: 46 velocity: 127
68760 
Channel: 11 Note ON:  C3 key: 48 velocity: 127
68769 
Channel: 11 Note ON:  A#2 key: 46 velocity: 0
68880 
Channel: 11 Note ON:  C3 key: 48 velocity: 0
68880 
Channel: 11 Note ON:  C#3 key: 49 velocity: 127
69000 
Channel: 11 Note ON:  F#2 key: 42 velocity: 127
69006 
Channel: 11 Note ON:  C#3 key: 49 velocity: 0
69720 
Channel: 11 Note ON:  C3 key: 48 velocity: 127
69735 
Channel: 11 Note ON:  F#2 key: 42 velocity: 0
69840 
Channel: 11 Note ON:  C#3 key: 49 velocity: 127
69849 
Channel: 11 Note ON:  C3 key: 48 velocity: 0
70080 
Channel: 11 Note ON:  C#3 key: 49 velocity: 0
70080 
Channel: 11 Note ON:  C#2 key: 37 velocity: 127
70503 
Channel: 11 Note ON:  C#2 key: 37 velocity: 0
70560 
Channel: 11 Note ON:  C#2 key: 37 velocity: 127
70680 
Channel: 11 Note ON:  D#2 key: 39 velocity: 127
70709 
Channel: 11 Note ON:  C#2 key: 37 velocity: 0
70780 
Channel: 11 Note ON:  D#2 key: 39 velocity: 0
70800 
Channel: 11 Note ON:  F2 key: 41 velocity: 127
70912 
Channel: 11 Note ON:  F2 key: 41 velocity: 0
70920 
Channel: 11 Note ON:  G#2 key: 44 velocity: 127
71640 
Channel: 11 Note ON:  A#2 key: 46 velocity: 127
71655 
Channel: 11 Note ON:  G#2 key: 44 velocity: 0
71745 
Channel: 11 Note ON:  A#2 key: 46 velocity: 0
71760 
Channel: 11 Note ON:  C3 key: 48 velocity: 127
71869 
Channel: 11 Note ON:  C3 key: 48 velocity: 0
71880 
Channel: 11 Note ON:  F2 key: 41 velocity: 127
72558 
Channel: 11 Note ON:  F2 key: 41 velocity: 0
72600 
Channel: 11 Note ON:  F2 key: 41 velocity: 127
72817 
Channel: 11 Note ON:  F2 key: 41 velocity: 0
72840 
Channel: 11 Note ON:  F#2 key: 42 velocity: 127
73792 
Channel: 11 Note ON:  F#2 key: 42 velocity: 0
73920 
Channel: 11 Note ON:  F#2 key: 42 velocity: 127
74239 
Channel: 11 Note ON:  F#2 key: 42 velocity: 0
74280 
Channel: 11 Note ON:  F#2 key: 42 velocity: 127
74372 
Channel: 11 Note ON:  F#2 key: 42 velocity: 0
74880 
Channel: 11 Note ON:  F#2 key: 42 velocity: 127
75134 
Channel: 11 Note ON:  F#2 key: 42 velocity: 0
75240 
Channel: 11 Note ON:  F#2 key: 42 velocity: 127
75726 
Channel: 11 Note ON:  F#2 key: 42 velocity: 0
75840 
Channel: 11 Note ON:  C#2 key: 37 velocity: 127
76107 
Channel: 11 Note ON:  C#2 key: 37 velocity: 0
76200 
Channel: 11 Note ON:  C#2 key: 37 velocity: 127
76730 
Channel: 11 Note ON:  C#2 key: 37 velocity: 0
76800 
Channel: 11 Note ON:  C#2 key: 37 velocity: 127
77051 
Channel: 11 Note ON:  C#2 key: 37 velocity: 0
77160 
Channel: 11 Note ON:  C#2 key: 37 velocity: 127
77726 
Channel: 11 Note ON:  C#2 key: 37 velocity: 0
77760 
Channel: 11 Note ON:  F#2 key: 42 velocity: 127
78064 
Channel: 11 Note ON:  F#2 key: 42 velocity: 0
78120 
Channel: 11 Note ON:  F#2 key: 42 velocity: 127
78268 
Channel: 11 Note ON:  F#2 key: 42 velocity: 0
78720 
Channel: 11 Note ON:  F#2 key: 42 velocity: 127
78986 
Channel: 11 Note ON:  F#2 key: 42 velocity: 0
79020 
Channel: 11 Note ON:  F#2 key: 42 velocity: 127
79493 
Channel: 11 Note ON:  F#2 key: 42 velocity: 0
79680 
Channel: 11 Note ON:  C#2 key: 37 velocity: 127
79857 
Channel: 11 Note ON:  C#2 key: 37 velocity: 0
80040 
Channel: 11 Note ON:  C#2 key: 37 velocity: 127
80256 
Channel: 11 Note ON:  C#2 key: 37 velocity: 0
80280 
Channel: 11 Note ON:  C#2 key: 37 velocity: 127
80340 
Channel: 11 Note ON:  C#2 key: 37 velocity: 0
80400 
Channel: 11 Note ON:  C#2 key: 37 velocity: 127
80458 
Channel: 11 Note ON:  C#2 key: 37 velocity: 0
80520 
Channel: 11 Note ON:  C#2 key: 37 velocity: 127
80565 
Channel: 11 Note ON:  C#2 key: 37 velocity: 0
80640 
Channel: 11 Note ON:  C#2 key: 37 velocity: 127
80857 
Channel: 11 Note ON:  C#2 key: 37 velocity: 0
81000 
Channel: 11 Note ON:  C#2 key: 37 velocity: 127
81561 
Channel: 11 Note ON:  C#2 key: 37 velocity: 0
81600 
Channel: 11 Note ON:  F#2 key: 42 velocity: 127
81902 
Channel: 11 Note ON:  F#2 key: 42 velocity: 0
81960 
Channel: 11 Note ON:  F#2 key: 42 velocity: 127
82114 
Channel: 11 Note ON:  F#2 key: 42 velocity: 0
82560 
Channel: 11 Note ON:  F#2 key: 42 velocity: 127
82817 
Channel: 11 Note ON:  F#2 key: 42 velocity: 0
82920 
Channel: 11 Note ON:  F#2 key: 42 velocity: 127
83407 
Channel: 11 Note ON:  F#2 key: 42 velocity: 0
83520 
Channel: 11 Note ON:  C#2 key: 37 velocity: 127
83813 
Channel: 11 Note ON:  C#2 key: 37 velocity: 0
83880 
Channel: 11 Note ON:  C#2 key: 37 velocity: 127
84388 
Channel: 11 Note ON:  C#2 key: 37 velocity: 0
84480 
Channel: 11 Note ON:  C#2 key: 37 velocity: 127
84574 
Channel: 11 Note ON:  C#2 key: 37 velocity: 0
84600 
Channel: 11 Note ON:  C#2 key: 37 velocity: 127
84699 
Channel: 11 Note ON:  C#2 key: 37 velocity: 0
84840 
Channel: 11 Note ON:  C#2 key: 37 velocity: 127
85431 
Channel: 11 Note ON:  C#2 key: 37 velocity: 0
85440 
Channel: 11 Note ON:  F#2 key: 42 velocity: 127
85738 
Channel: 11 Note ON:  F#2 key: 42 velocity: 0
85800 
Channel: 11 Note ON:  F#2 key: 42 velocity: 127
85912 
Channel: 11 Note ON:  F#2 key: 42 velocity: 0
86400 
Channel: 11 Note ON:  F#2 key: 42 velocity: 127
86641 
Channel: 11 Note ON:  F#2 key: 42 velocity: 0
86760 
Channel: 11 Note ON:  F#2 key: 42 velocity: 127
87223 
Channel: 11 Note ON:  F#2 key: 42 velocity: 0
87360 
Channel: 11 Note ON:  G#2 key: 44 velocity: 127
87704 
Channel: 11 Note ON:  G#2 key: 44 velocity: 0
87720 
Channel: 11 Note ON:  C#2 key: 37 velocity: 127
88320 
Channel: 11 Note ON:  G#2 key: 44 velocity: 127
88327 
Channel: 11 Note ON:  C#2 key: 37 velocity: 0
88560 
Channel: 11 Note ON:  C#2 key: 37 velocity: 127
88575 
Channel: 11 Note ON:  G#2 key: 44 velocity: 0
88679 
Channel: 11 Note ON:  C#2 key: 37 velocity: 0
88680 
Channel: 11 Note ON:  F#2 key: 42 velocity: 127
89040 
Channel: 11 Note ON:  G#3 key: 56 velocity: 127
89095 
Channel: 11 Note ON:  F#2 key: 42 velocity: 0
89100 
Channel: 11 Note ON:  G#3 key: 56 velocity: 0
89100 
Channel: 11 Note ON:  C#4 key: 61 velocity: 127
89160 
Channel: 11 Note ON:  C#4 key: 61 velocity: 0
89160 
Channel: 11 Note ON:  D#4 key: 63 velocity: 127
89220 
Channel: 11 Note ON:  D#4 key: 63 velocity: 0
89220 
Channel: 11 Note ON:  F4 key: 65 velocity: 127
89280 
Channel: 11 Note ON:  F4 key: 65 velocity: 0
89280 
Channel: 11 Note ON:  F#4 key: 66 velocity: 127
89640 
Channel: 11 Note ON:  F4 key: 65 velocity: 127
89670 
Channel: 11 Note ON:  F#4 key: 66 velocity: 0
90115 
Channel: 11 Note ON:  F4 key: 65 velocity: 0
90120 
Channel: 11 Note ON:  D#4 key: 63 velocity: 127
90232 
Channel: 11 Note ON:  D#4 key: 63 velocity: 0
90240 
Channel: 11 Note ON:  F#4 key: 66 velocity: 127
90600 
Channel: 11 Note ON:  F4 key: 65 velocity: 127
90630 
Channel: 11 Note ON:  F#4 key: 66 velocity: 0
91471 
Channel: 11 Note ON:  F4 key: 65 velocity: 0
91560 
Channel: 11 Note ON:  F4 key: 65 velocity: 127
91680 
Channel: 11 Note ON:  F#4 key: 66 velocity: 127
91681 
Channel: 11 Note ON:  F4 key: 65 velocity: 0
91800 
Channel: 11 Note ON:  F4 key: 65 velocity: 127
91835 
Channel: 11 Note ON:  F#4 key: 66 velocity: 0
91920 
Channel: 11 Note ON:  D#4 key: 63 velocity: 127
91924 
Channel: 11 Note ON:  F4 key: 65 velocity: 0
92040 
Channel: 11 Note ON:  C#4 key: 61 velocity: 127
92054 
Channel: 11 Note ON:  D#4 key: 63 velocity: 0
92160 
Channel: 11 Note ON:  C4 key: 60 velocity: 127
92166 
Channel: 11 Note ON:  C#4 key: 61 velocity: 0
92374 
Channel: 11 Note ON:  C4 key: 60 velocity: 0
92400 
Channel: 11 Note ON:  C#4 key: 61 velocity: 127
92520 
Channel: 11 Note ON:  A#3 key: 58 velocity: 127
92526 
Channel: 11 Note ON:  C#4 key: 61 velocity: 0
92871 
Channel: 11 Note ON:  A#3 key: 58 velocity: 0
92880 
Channel: 11 Note ON:  G#3 key: 56 velocity: 127
93000 
Channel: 11 Note ON:  G#3 key: 56 velocity: 0
93000 
Channel: 11 Note ON:  F#3 key: 54 velocity: 127
93120 
Channel: 11 Note ON:  F#3 key: 54 velocity: 0
93120 
Channel: 11 Note ON:  F#4 key: 66 velocity: 127
93480 
Channel: 11 Note ON:  F4 key: 65 velocity: 127
93486 
Channel: 11 Note ON:  F#4 key: 66 velocity: 0
93960 
Channel: 11 Note ON:  D#4 key: 63 velocity: 127
93965 
Channel: 11 Note ON:  F4 key: 65 velocity: 0
94072 
Channel: 11 Note ON:  D#4 key: 63 velocity: 0
94080 
Channel: 11 Note ON:  F#4 key: 66 velocity: 127
94440 
Channel: 11 Note ON:  F#4 key: 66 velocity: 0
94440 
Channel: 11 Note ON:  F4 key: 65 velocity: 127
94680 
Channel: 11 Note ON:  D#4 key: 63 velocity: 127
94700 
Channel: 11 Note ON:  F4 key: 65 velocity: 0
94796 
Channel: 11 Note ON:  D#4 key: 63 velocity: 0
94800 
Channel: 11 Note ON:  C#4 key: 61 velocity: 127
94920 
Channel: 11 Note ON:  G#4 key: 68 velocity: 127
94923 
Channel: 11 Note ON:  C#4 key: 61 velocity: 0
95515 
Channel: 11 Note ON:  G#4 key: 68 velocity: 0
95520 
Channel: 11 Note ON:  C5 key: 72 velocity: 127
95880 
Channel: 11 Note ON:  C#5 key: 73 velocity: 121
95890 
Channel: 11 Note ON:  C5 key: 72 velocity: 0
96960 
Channel: 11 Note ON:  C#5 key: 73 velocity: 0
96960 
Channel: 11 Note ON:  C#2 key: 37 velocity: 127
97560 
Channel: 11 Note ON:  D#2 key: 39 velocity: 127
97596 
Channel: 11 Note ON:  C#2 key: 37 velocity: 0
97665 
Channel: 11 Note ON:  D#2 key: 39 velocity: 0
97680 
Channel: 11 Note ON:  F2 key: 41 velocity: 127
97794 
Channel: 11 Note ON:  F2 key: 41 velocity: 0
97800 
Channel: 11 Note ON:  G#2 key: 44 velocity: 127
98496 
Channel: 11 Note ON:  G#2 key: 44 velocity: 0
98520 
Channel: 11 Note ON:  A#2 key: 46 velocity: 127
98626 
Channel: 11 Note ON:  A#2 key: 46 velocity: 0
98640 
Channel: 11 Note ON:  A#2 key: 46 velocity: 127
98640 
Channel: 11 Note ON:  C3 key: 48 velocity: 127
98745 
Channel: 11 Note ON:  C3 key: 48 velocity: 0
99360 
Channel: 11 Note ON:  C3 key: 48 velocity: 127
99417 
Channel: 11 Note ON:  A#2 key: 46 velocity: 0
99556 
Channel: 11 Note ON:  C3 key: 48 velocity: 0
99600 
Channel: 11 Note ON:  C#3 key: 49 velocity: 127
99720 
Channel: 11 Note ON:  F#2 key: 42 velocity: 127
99722 
Channel: 11 Note ON:  C#3 key: 49 velocity: 0
100440 
Channel: 11 Note ON:  C3 key: 48 velocity: 127
100541 
Channel: 11 Note ON:  F#2 key: 42 velocity: 0
100560 
Channel: 11 Note ON:  C#3 key: 49 velocity: 127
100565 
Channel: 11 Note ON:  C3 key: 48 velocity: 0
100800 
Channel: 11 Note ON:  C#2 key: 37 velocity: 127
100802 
Channel: 11 Note ON:  C#3 key: 49 velocity: 0
101224 
Channel: 11 Note ON:  C#2 key: 37 velocity: 0
101280 
Channel: 11 Note ON:  C#2 key: 37 velocity: 127
101400 
Channel: 11 Note ON:  D#2 key: 39 velocity: 127
101422 
Channel: 11 Note ON:  C#2 key: 37 velocity: 0
101518 
Channel: 11 Note ON:  D#2 key: 39 velocity: 0
101520 
Channel: 11 Note ON:  F2 key: 41 velocity: 127
101626 
Channel: 11 Note ON:  F2 key: 41 velocity: 0
101640 
Channel: 11 Note ON:  G#2 key: 44 velocity: 127
102295 
Channel: 11 Note ON:  G#2 key: 44 velocity: 0
102360 
Channel: 11 Note ON:  A#2 key: 46 velocity: 127
102459 
Channel: 11 Note ON:  A#2 key: 46 velocity: 0
102480 
Channel: 11 Note ON:  C3 key: 48 velocity: 127
102588 
Channel: 11 Note ON:  C3 key: 48 velocity: 0
102600 
Channel: 11 Note ON:  F2 key: 41 velocity: 127
103189 
Channel: 11 Note ON:  F2 key: 41 velocity: 0
103200 
Channel: 11 Note ON:  F2 key: 41 velocity: 127
103509 
Channel: 11 Note ON:  F2 key: 41 velocity: 0
103560 
Channel: 11 Note ON:  F#2 key: 42 velocity: 127
104280 
Channel: 11 Note ON:  C3 key: 48 velocity: 127
104310 
Channel: 11 Note ON:  F#2 key: 42 velocity: 0
104400 
Channel: 11 Note ON:  C#3 key: 49 velocity: 127
104413 
Channel: 11 Note ON:  C3 key: 48 velocity: 0
104640 
Channel: 11 Note ON:  C#2 key: 37 velocity: 127
104647 
Channel: 11 Note ON:  C#3 key: 49 velocity: 0
105076 
Channel: 11 Note ON:  C#2 key: 37 velocity: 0
105120 
Channel: 11 Note ON:  C#2 key: 37 velocity: 127
105236 
Channel: 11 Note ON:  C#2 key: 37 velocity: 0
105240 
Channel: 11 Note ON:  D#2 key: 39 velocity: 127
105350 
Channel: 11 Note ON:  D#2 key: 39 velocity: 0
105360 
Channel: 11 Note ON:  F2 key: 41 velocity: 127
105470 
Channel: 11 Note ON:  F2 key: 41 velocity: 0
105480 
Channel: 11 Note ON:  G#2 key: 44 velocity: 127
106196 
Channel: 11 Note ON:  G#2 key: 44 velocity: 0
106200 
Channel: 11 Note ON:  A#2 key: 46 velocity: 127
106317 
Channel: 11 Note ON:  A#2 key: 46 velocity: 0
106320 
Channel: 11 Note ON:  C3 key: 48 velocity: 127
106430 
Channel: 11 Note ON:  C3 key: 48 velocity: 0
106440 
Channel: 11 Note ON:  A#2 key: 46 velocity: 127
107157 
Channel: 11 Note ON:  A#2 key: 46 velocity: 0
107160 
Channel: 11 Note ON:  C3 key: 48 velocity: 127
107280 
Channel: 11 Note ON:  C#3 key: 49 velocity: 127
107286 
Channel: 11 Note ON:  C3 key: 48 velocity: 0
107400 
Channel: 11 Note ON:  F#2 key: 42 velocity: 127
107401 
Channel: 11 Note ON:  C#3 key: 49 velocity: 0
108120 
Channel: 11 Note ON:  C3 key: 48 velocity: 127
108155 
Channel: 11 Note ON:  F#2 key: 42 velocity: 0
108240 
Channel: 11 Note ON:  C3 key: 48 velocity: 0
108240 
Channel: 11 Note ON:  C#3 key: 49 velocity: 127
108360 
Channel: 11 Note ON:  C#2 key: 37 velocity: 127
108369 
Channel: 11 Note ON:  C#3 key: 49 velocity: 0
108901 
Channel: 11 Note ON:  C#2 key: 37 velocity: 0
108960 
Channel: 11 Note ON:  C#2 key: 37 velocity: 127
109080 
Channel: 11 Note ON:  D#2 key: 39 velocity: 127
109096 
Channel: 11 Note ON:  C#2 key: 37 velocity: 0
109195 
Channel: 11 Note ON:  D#2 key: 39 velocity: 0
109200 
Channel: 11 Note ON:  F2 key: 41 velocity: 127
109313 
Channel: 11 Note ON:  F2 key: 41 velocity: 0
109320 
Channel: 11 Note ON:  G#2 key: 44 velocity: 127
110040 
Channel: 11 Note ON:  A#2 key: 46 velocity: 127
110043 
Channel: 11 Note ON:  G#2 key: 44 velocity: 0
110145 
Channel: 11 Note ON:  A#2 key: 46 velocity: 0
110160 
Channel: 11 Note ON:  C3 key: 48 velocity: 127
110258 
Channel: 11 Note ON:  C3 key: 48 velocity: 0
110280 
Channel: 11 Note ON:  F2 key: 41 velocity: 127
110905 
Channel: 11 Note ON:  F2 key: 41 velocity: 0
111000 
Channel: 11 Note ON:  C#3 key: 49 velocity: 127
111113 
Channel: 11 Note ON:  C#3 key: 49 velocity: 0
111120 
Channel: 11 Note ON:  F2 key: 41 velocity: 127
111240 
Channel: 11 Note ON:  F#2 key: 42 velocity: 127
111243 
Channel: 11 Note ON:  F2 key: 41 velocity: 0
111840 
Channel: 11 Note ON:  C3 key: 48 velocity: 127
111971 
Channel: 11 Note ON:  F#2 key: 42 velocity: 0
112029 
Channel: 11 Note ON:  C3 key: 48 velocity: 0
112080 
Channel: 11 Note ON:  C#3 key: 49 velocity: 127
112320 
Channel: 11 Note ON:  C#2 key: 37 velocity: 127
112329 
Channel: 11 Note ON:  C#3 key: 49 velocity: 0
112762 
Channel: 11 Note ON:  C#2 key: 37 velocity: 0
112800 
Channel: 11 Note ON:  C#2 key: 37 velocity: 127
112920 
Channel: 11 Note ON:  D#2 key: 39 velocity: 127
112943 
Channel: 11 Note ON:  C#2 key: 37 velocity: 0
113037 
Channel: 11 Note ON:  D#2 key: 39 velocity: 0
113040 
Channel: 11 Note ON:  F2 key: 41 velocity: 127
113148 
Channel: 11 Note ON:  F2 key: 41 velocity: 0
113160 
Channel: 11 Note ON:  G#2 key: 44 velocity: 127
113880 
Channel: 11 Note ON:  A#2 key: 46 velocity: 127
113881 
Channel: 11 Note ON:  G#2 key: 44 velocity: 0
114000 
Channel: 11 Note ON:  C3 key: 48 velocity: 127
114010 
Channel: 11 Note ON:  A#2 key: 46 velocity: 0
114112 
Channel: 11 Note ON:  C3 key: 48 velocity: 0
114120 
Channel: 11 Note ON:  A#2 key: 46 velocity: 127
114840 
Channel: 11 Note ON:  C3 key: 48 velocity: 127
114842 
Channel: 11 Note ON:  A#2 key: 46 velocity: 0
114960 
Channel: 11 Note ON:  C#3 key: 49 velocity: 127
114961 
Channel: 11 Note ON:  C3 key: 48 velocity: 0
115080 
Channel: 11 Note ON:  F#2 key: 42 velocity: 127
115085 
Channel: 11 Note ON:  C#3 key: 49 velocity: 0
115800 
Channel: 11 Note ON:  C3 key: 48 velocity: 127
115823 
Channel: 11 Note ON:  F#2 key: 42 velocity: 0
115913 
Channel: 11 Note ON:  C3 key: 48 velocity: 0
115920 
Channel: 11 Note ON:  C#3 key: 49 velocity: 127
116033 
Channel: 11 Note ON:  C#3 key: 49 velocity: 0
116040 
Channel: 11 Note ON:  C#2 key: 37 velocity: 127
116562 
Channel: 11 Note ON:  C#2 key: 37 velocity: 0
116640 
Channel: 11 Note ON:  C#2 key: 37 velocity: 127
116760 
Channel: 11 Note ON:  D#2 key: 39 velocity: 127
116786 
Channel: 11 Note ON:  C#2 key: 37 velocity: 0
116880 
Channel: 11 Note ON:  D#2 key: 39 velocity: 0
116880 
Channel: 11 Note ON:  F2 key: 41 velocity: 127
116987 
Channel: 11 Note ON:  F2 key: 41 velocity: 0
117000 
Channel: 11 Note ON:  G#2 key: 44 velocity: 127
117595 
Channel: 11 Note ON:  G#2 key: 44 velocity: 0
117720 
Channel: 11 Note ON:  A#2 key: 46 velocity: 127
117834 
Channel: 11 Note ON:  A#2 key: 46 velocity: 0
117840 
Channel: 11 Note ON:  C3 key: 48 velocity: 127
117947 
Channel: 11 Note ON:  C3 key: 48 velocity: 0
117960 
Channel: 11 Note ON:  F2 key: 41 velocity: 127
118617 
Channel: 11 Note ON:  F2 key: 41 velocity: 0
118680 
Channel: 11 Note ON:  F2 key: 41 velocity: 127
118916 
Channel: 11 Note ON:  F2 key: 41 velocity: 0
118920 
Channel: 11 Note ON:  F#2 key: 42 velocity: 127
119968 
Channel: 11 Note ON:  F#2 key: 42 velocity: 0
119968 
WTF is that class javax.sound.midi.Track$ImmutableEndOfTrack


Changing to track 3


0 
WTF is that class javax.sound.midi.MetaMessage
0 
WTF is that class javax.sound.midi.MetaMessage
0 
0 
39360 
Channel: 12 Note ON:  F#4 key: 66 velocity: 127
39360 
Channel: 12 Note ON:  A#4 key: 70 velocity: 127
39360 
Channel: 12 Note ON:  D#5 key: 75 velocity: 127
39622 
Channel: 12 Note ON:  D#5 key: 75 velocity: 0
39667 
Channel: 12 Note ON:  F#4 key: 66 velocity: 0
39670 
Channel: 12 Note ON:  A#4 key: 70 velocity: 0
39720 
Channel: 12 Note ON:  F#4 key: 66 velocity: 127
39720 
Channel: 12 Note ON:  A#4 key: 70 velocity: 127
39720 
Channel: 12 Note ON:  C#5 key: 73 velocity: 127
39744 
Channel: 12 Note ON:  A#4 key: 70 velocity: 0
39756 
Channel: 12 Note ON:  C#5 key: 73 velocity: 0
39762 
Channel: 12 Note ON:  F#4 key: 66 velocity: 0
40320 
Channel: 12 Note ON:  F#4 key: 66 velocity: 127
40320 
Channel: 12 Note ON:  D#5 key: 75 velocity: 127
40320 
Channel: 12 Note ON:  A#4 key: 70 velocity: 127
40524 
Channel: 12 Note ON:  D#5 key: 75 velocity: 0
40530 
Channel: 12 Note ON:  F#4 key: 66 velocity: 0
40552 
Channel: 12 Note ON:  A#4 key: 70 velocity: 0
40680 
Channel: 12 Note ON:  C#5 key: 73 velocity: 127
40680 
Channel: 12 Note ON:  A#4 key: 70 velocity: 127
40680 
Channel: 12 Note ON:  F5 key: 77 velocity: 127
41036 
Channel: 12 Note ON:  C#5 key: 73 velocity: 0
41043 
Channel: 12 Note ON:  F5 key: 77 velocity: 0
41057 
Channel: 12 Note ON:  A#4 key: 70 velocity: 0
41280 
Channel: 12 Note ON:  C5 key: 72 velocity: 127
41280 
Channel: 12 Note ON:  D#4 key: 63 velocity: 127
41280 
Channel: 12 Note ON:  G#4 key: 68 velocity: 127
41346 
Channel: 12 Note ON:  C5 key: 72 velocity: 0
41355 
Channel: 12 Note ON:  G#4 key: 68 velocity: 0
41367 
Channel: 12 Note ON:  D#4 key: 63 velocity: 0
41400 
Channel: 12 Note ON:  C5 key: 72 velocity: 127
41400 
Channel: 12 Note ON:  G#4 key: 68 velocity: 127
41400 
Channel: 12 Note ON:  D#4 key: 63 velocity: 127
41461 
Channel: 12 Note ON:  D#4 key: 63 velocity: 0
41462 
Channel: 12 Note ON:  G#4 key: 68 velocity: 0
41480 
Channel: 12 Note ON:  C5 key: 72 velocity: 0
41640 
Channel: 12 Note ON:  C#5 key: 73 velocity: 127
41640 
Channel: 12 Note ON:  F4 key: 65 velocity: 127
41640 
Channel: 12 Note ON:  G#4 key: 68 velocity: 127
42136 
Channel: 12 Note ON:  F4 key: 65 velocity: 0
42144 
Channel: 12 Note ON:  C#5 key: 73 velocity: 0
42173 
Channel: 12 Note ON:  G#4 key: 68 velocity: 0
42240 
Channel: 12 Note ON:  C5 key: 72 velocity: 127
42240 
Channel: 12 Note ON:  G#4 key: 68 velocity: 127
42240 
Channel: 12 Note ON:  D#4 key: 63 velocity: 127
42309 
Channel: 12 Note ON:  D#4 key: 63 velocity: 0
42309 
Channel: 12 Note ON:  C5 key: 72 velocity: 0
42314 
Channel: 12 Note ON:  G#4 key: 68 velocity: 0
42360 
Channel: 12 Note ON:  C5 key: 72 velocity: 127
42360 
Channel: 12 Note ON:  D#4 key: 63 velocity: 127
42360 
Channel: 12 Note ON:  G#4 key: 68 velocity: 127
42412 
Channel: 12 Note ON:  D#4 key: 63 velocity: 0
42425 
Channel: 12 Note ON:  G#4 key: 68 velocity: 0
42427 
Channel: 12 Note ON:  C5 key: 72 velocity: 0
42600 
Channel: 12 Note ON:  C#5 key: 73 velocity: 127
42600 
Channel: 12 Note ON:  F4 key: 65 velocity: 127
42600 
Channel: 12 Note ON:  G#4 key: 68 velocity: 127
43014 
Channel: 12 Note ON:  G#4 key: 68 velocity: 0
43017 
Channel: 12 Note ON:  F4 key: 65 velocity: 0
43031 
Channel: 12 Note ON:  C#5 key: 73 velocity: 0
43200 
Channel: 12 Note ON:  F#4 key: 66 velocity: 127
43200 
Channel: 12 Note ON:  D#5 key: 75 velocity: 127
43200 
Channel: 12 Note ON:  A#4 key: 70 velocity: 127
43511 
Channel: 12 Note ON:  D#5 key: 75 velocity: 0
43560 
Channel: 12 Note ON:  C#5 key: 73 velocity: 127
43651 
Channel: 12 Note ON:  C#5 key: 73 velocity: 0
43655 
Channel: 12 Note ON:  A#4 key: 70 velocity: 0
43663 
Channel: 12 Note ON:  F#4 key: 66 velocity: 0
44160 
Channel: 12 Note ON:  F#4 key: 66 velocity: 127
44160 
Channel: 12 Note ON:  A#4 key: 70 velocity: 127
44160 
Channel: 12 Note ON:  D#5 key: 75 velocity: 127
44386 
Channel: 12 Note ON:  F#4 key: 66 velocity: 0
44431 
Channel: 12 Note ON:  D#5 key: 75 velocity: 0
44436 
Channel: 12 Note ON:  A#4 key: 70 velocity: 0
44520 
Channel: 12 Note ON:  A#4 key: 70 velocity: 127
44520 
Channel: 12 Note ON:  F5 key: 77 velocity: 127
44520 
Channel: 12 Note ON:  C#5 key: 73 velocity: 127
44903 
Channel: 12 Note ON:  F5 key: 77 velocity: 0
44922 
Channel: 12 Note ON:  C#5 key: 73 velocity: 0
44942 
Channel: 12 Note ON:  A#4 key: 70 velocity: 0
45120 
Channel: 12 Note ON:  C5 key: 72 velocity: 127
45120 
Channel: 12 Note ON:  D#4 key: 63 velocity: 127
45120 
Channel: 12 Note ON:  G#4 key: 68 velocity: 127
45196 
Channel: 12 Note ON:  C5 key: 72 velocity: 0
45207 
Channel: 12 Note ON:  D#4 key: 63 velocity: 0
45212 
Channel: 12 Note ON:  G#4 key: 68 velocity: 0
45240 
Channel: 12 Note ON:  C5 key: 72 velocity: 127
45240 
Channel: 12 Note ON:  G#4 key: 68 velocity: 127
45240 
Channel: 12 Note ON:  D#4 key: 63 velocity: 127
45309 
Channel: 12 Note ON:  D#4 key: 63 velocity: 0
45323 
Channel: 12 Note ON:  G#4 key: 68 velocity: 0
45330 
Channel: 12 Note ON:  C5 key: 72 velocity: 0
45480 
Channel: 12 Note ON:  F4 key: 65 velocity: 127
45480 
Channel: 12 Note ON:  C#5 key: 73 velocity: 127
45480 
Channel: 12 Note ON:  G#4 key: 68 velocity: 127
45937 
Channel: 12 Note ON:  C#5 key: 73 velocity: 0
45965 
Channel: 12 Note ON:  F4 key: 65 velocity: 0
45989 
Channel: 12 Note ON:  G#4 key: 68 velocity: 0
46080 
Channel: 12 Note ON:  C5 key: 72 velocity: 127
46080 
Channel: 12 Note ON:  G#4 key: 68 velocity: 127
46080 
Channel: 12 Note ON:  D#4 key: 63 velocity: 127
46131 
Channel: 12 Note ON:  C5 key: 72 velocity: 0
46135 
Channel: 12 Note ON:  D#4 key: 63 velocity: 0
46140 
Channel: 12 Note ON:  G#4 key: 68 velocity: 0
46200 
Channel: 12 Note ON:  C5 key: 72 velocity: 127
46200 
Channel: 12 Note ON:  D#4 key: 63 velocity: 127
46200 
Channel: 12 Note ON:  G#4 key: 68 velocity: 127
46243 
Channel: 12 Note ON:  D#4 key: 63 velocity: 0
46253 
Channel: 12 Note ON:  G#4 key: 68 velocity: 0
46260 
Channel: 12 Note ON:  C5 key: 72 velocity: 0
46440 
Channel: 12 Note ON:  F4 key: 65 velocity: 127
46440 
Channel: 12 Note ON:  C#5 key: 73 velocity: 127
46440 
Channel: 12 Note ON:  G#4 key: 68 velocity: 127
46873 
Channel: 12 Note ON:  G#4 key: 68 velocity: 0
46873 
Channel: 12 Note ON:  F4 key: 65 velocity: 0
46884 
Channel: 12 Note ON:  C#5 key: 73 velocity: 0
47040 
Channel: 12 Note ON:  F#4 key: 66 velocity: 127
47040 
Channel: 12 Note ON:  D#5 key: 75 velocity: 127
47040 
Channel: 12 Note ON:  A#4 key: 70 velocity: 127
47322 
Channel: 12 Note ON:  D#5 key: 75 velocity: 0
47373 
Channel: 12 Note ON:  F#4 key: 66 velocity: 0
47400 
Channel: 12 Note ON:  C#5 key: 73 velocity: 127
47400 
Channel: 12 Note ON:  F#4 key: 66 velocity: 127
47453 
Channel: 12 Note ON:  C#5 key: 73 velocity: 0
47463 
Channel: 12 Note ON:  A#4 key: 70 velocity: 0
47492 
Channel: 12 Note ON:  F#4 key: 66 velocity: 0
48000 
Channel: 12 Note ON:  F#4 key: 66 velocity: 127
48000 
Channel: 12 Note ON:  D#5 key: 75 velocity: 127
48000 
Channel: 12 Note ON:  A#4 key: 70 velocity: 127
48244 
Channel: 12 Note ON:  F#4 key: 66 velocity: 0
48279 
Channel: 12 Note ON:  D#5 key: 75 velocity: 0
48299 
Channel: 12 Note ON:  A#4 key: 70 velocity: 0
48360 
Channel: 12 Note ON:  A#4 key: 70 velocity: 127
48360 
Channel: 12 Note ON:  F5 key: 77 velocity: 127
48360 
Channel: 12 Note ON:  C#5 key: 73 velocity: 127
48750 
Channel: 12 Note ON:  F5 key: 77 velocity: 0
48755 
Channel: 12 Note ON:  C#5 key: 73 velocity: 0
48771 
Channel: 12 Note ON:  A#4 key: 70 velocity: 0
48960 
Channel: 12 Note ON:  C5 key: 72 velocity: 127
48960 
Channel: 12 Note ON:  G#4 key: 68 velocity: 127
48960 
Channel: 12 Note ON:  D#4 key: 63 velocity: 127
49031 
Channel: 12 Note ON:  D#4 key: 63 velocity: 0
49032 
Channel: 12 Note ON:  G#4 key: 68 velocity: 0
49034 
Channel: 12 Note ON:  C5 key: 72 velocity: 0
49080 
Channel: 12 Note ON:  C5 key: 72 velocity: 127
49080 
Channel: 12 Note ON:  G#4 key: 68 velocity: 127
49080 
Channel: 12 Note ON:  D#4 key: 63 velocity: 127
49130 
Channel: 12 Note ON:  D#4 key: 63 velocity: 0
49139 
Channel: 12 Note ON:  G#4 key: 68 velocity: 0
49144 
Channel: 12 Note ON:  C5 key: 72 velocity: 0
49320 
Channel: 12 Note ON:  F4 key: 65 velocity: 127
49320 
Channel: 12 Note ON:  C#5 key: 73 velocity: 127
49320 
Channel: 12 Note ON:  G#4 key: 68 velocity: 127
49793 
Channel: 12 Note ON:  F4 key: 65 velocity: 0
49803 
Channel: 12 Note ON:  C#5 key: 73 velocity: 0
49811 
Channel: 12 Note ON:  G#4 key: 68 velocity: 0
49920 
Channel: 12 Note ON:  C5 key: 72 velocity: 127
49920 
Channel: 12 Note ON:  G#4 key: 68 velocity: 127
49920 
Channel: 12 Note ON:  D#4 key: 63 velocity: 127
49959 
Channel: 12 Note ON:  C5 key: 72 velocity: 0
49963 
Channel: 12 Note ON:  G#4 key: 68 velocity: 0
49967 
Channel: 12 Note ON:  D#4 key: 63 velocity: 0
50040 
Channel: 12 Note ON:  C5 key: 72 velocity: 127
50040 
Channel: 12 Note ON:  D#4 key: 63 velocity: 127
50040 
Channel: 12 Note ON:  G#4 key: 68 velocity: 127
50079 
Channel: 12 Note ON:  D#4 key: 63 velocity: 0
50085 
Channel: 12 Note ON:  G#4 key: 68 velocity: 0
50099 
Channel: 12 Note ON:  C5 key: 72 velocity: 0
50280 
Channel: 12 Note ON:  C#5 key: 73 velocity: 127
50280 
Channel: 12 Note ON:  F4 key: 65 velocity: 127
50280 
Channel: 12 Note ON:  G#4 key: 68 velocity: 127
50715 
Channel: 12 Note ON:  G#4 key: 68 velocity: 0
50724 
Channel: 12 Note ON:  F4 key: 65 velocity: 0
50725 
Channel: 12 Note ON:  C#5 key: 73 velocity: 0
50880 
Channel: 12 Note ON:  F#4 key: 66 velocity: 127
50880 
Channel: 12 Note ON:  A#4 key: 70 velocity: 127
50880 
Channel: 12 Note ON:  D#5 key: 75 velocity: 127
51159 
Channel: 12 Note ON:  D#5 key: 75 velocity: 0
51220 
Channel: 12 Note ON:  F#4 key: 66 velocity: 0
51240 
Channel: 12 Note ON:  F#4 key: 66 velocity: 127
51240 
Channel: 12 Note ON:  C#5 key: 73 velocity: 127
51240 
Channel: 12 Note ON:  A#4 key: 70 velocity: 127
51245 
Channel: 12 Note ON:  A#4 key: 70 velocity: 0
51283 
Channel: 12 Note ON:  A#4 key: 70 velocity: 0
51300 
Channel: 12 Note ON:  F#4 key: 66 velocity: 0
51309 
Channel: 12 Note ON:  C#5 key: 73 velocity: 0
51840 
Channel: 12 Note ON:  F#4 key: 66 velocity: 127
51840 
Channel: 12 Note ON:  D#5 key: 75 velocity: 127
51840 
Channel: 12 Note ON:  A#4 key: 70 velocity: 127
51998 
Channel: 12 Note ON:  F#4 key: 66 velocity: 0
52011 
Channel: 12 Note ON:  A#4 key: 70 velocity: 0
52026 
Channel: 12 Note ON:  D#5 key: 75 velocity: 0
52200 
Channel: 12 Note ON:  A#4 key: 70 velocity: 127
52200 
Channel: 12 Note ON:  C#5 key: 73 velocity: 127
52200 
Channel: 12 Note ON:  F5 key: 77 velocity: 127
52634 
Channel: 12 Note ON:  C#5 key: 73 velocity: 0
52642 
Channel: 12 Note ON:  F5 key: 77 velocity: 0
52650 
Channel: 12 Note ON:  A#4 key: 70 velocity: 0
52800 
Channel: 12 Note ON:  G#5 key: 80 velocity: 127
52800 
Channel: 12 Note ON:  C5 key: 72 velocity: 127
52800 
Channel: 12 Note ON:  D#5 key: 75 velocity: 127
53036 
Channel: 12 Note ON:  C5 key: 72 velocity: 0
53077 
Channel: 12 Note ON:  G#5 key: 80 velocity: 0
53081 
Channel: 12 Note ON:  D#5 key: 75 velocity: 0
53160 
Channel: 12 Note ON:  C#5 key: 73 velocity: 127
53160 
Channel: 12 Note ON:  G#5 key: 80 velocity: 127
53160 
Channel: 12 Note ON:  F5 key: 77 velocity: 127
53592 
Channel: 12 Note ON:  C#5 key: 73 velocity: 0
53594 
Channel: 12 Note ON:  G#5 key: 80 velocity: 0
53606 
Channel: 12 Note ON:  F5 key: 77 velocity: 0
53760 
Channel: 12 Note ON:  G#5 key: 80 velocity: 127
53760 
Channel: 12 Note ON:  C5 key: 72 velocity: 127
53760 
Channel: 12 Note ON:  D#5 key: 75 velocity: 127
53878 
Channel: 12 Note ON:  C5 key: 72 velocity: 0
53919 
Channel: 12 Note ON:  G#5 key: 80 velocity: 0
53943 
Channel: 12 Note ON:  D#5 key: 75 velocity: 0
54000 
Channel: 12 Note ON:  C#5 key: 73 velocity: 127
54000 
Channel: 12 Note ON:  G#5 key: 80 velocity: 127
54000 
Channel: 12 Note ON:  F5 key: 77 velocity: 127
54027 
Channel: 12 Note ON:  C#5 key: 73 velocity: 0
54029 
Channel: 12 Note ON:  G#5 key: 80 velocity: 0
54037 
Channel: 12 Note ON:  F5 key: 77 velocity: 0
54120 
Channel: 12 Note ON:  A#4 key: 70 velocity: 127
54120 
Channel: 12 Note ON:  C#5 key: 73 velocity: 127
54120 
Channel: 12 Note ON:  F#5 key: 78 velocity: 127
54698 
Channel: 12 Note ON:  C#5 key: 73 velocity: 0
54698 
Channel: 12 Note ON:  A#4 key: 70 velocity: 0
54713 
Channel: 12 Note ON:  F#5 key: 78 velocity: 0
73920 
Channel: 12 Note ON:  F#4 key: 66 velocity: 127
73920 
Channel: 12 Note ON:  A#4 key: 70 velocity: 127
73920 
Channel: 12 Note ON:  D#5 key: 75 velocity: 127
74182 
Channel: 12 Note ON:  D#5 key: 75 velocity: 0
74227 
Channel: 12 Note ON:  F#4 key: 66 velocity: 0
74230 
Channel: 12 Note ON:  A#4 key: 70 velocity: 0
74280 
Channel: 12 Note ON:  F#4 key: 66 velocity: 127
74280 
Channel: 12 Note ON:  A#4 key: 70 velocity: 127
74280 
Channel: 12 Note ON:  C#5 key: 73 velocity: 127
74304 
Channel: 12 Note ON:  A#4 key: 70 velocity: 0
74316 
Channel: 12 Note ON:  C#5 key: 73 velocity: 0
74322 
Channel: 12 Note ON:  F#4 key: 66 velocity: 0
74880 
Channel: 12 Note ON:  F#4 key: 66 velocity: 127
74880 
Channel: 12 Note ON:  D#5 key: 75 velocity: 127
74880 
Channel: 12 Note ON:  A#4 key: 70 velocity: 127
75084 
Channel: 12 Note ON:  D#5 key: 75 velocity: 0
75090 
Channel: 12 Note ON:  F#4 key: 66 velocity: 0
75112 
Channel: 12 Note ON:  A#4 key: 70 velocity: 0
75240 
Channel: 12 Note ON:  C#5 key: 73 velocity: 127
75240 
Channel: 12 Note ON:  A#4 key: 70 velocity: 127
75240 
Channel: 12 Note ON:  F5 key: 77 velocity: 127
75596 
Channel: 12 Note ON:  C#5 key: 73 velocity: 0
75603 
Channel: 12 Note ON:  F5 key: 77 velocity: 0
75617 
Channel: 12 Note ON:  A#4 key: 70 velocity: 0
75840 
Channel: 12 Note ON:  C5 key: 72 velocity: 127
75840 
Channel: 12 Note ON:  D#4 key: 63 velocity: 127
75840 
Channel: 12 Note ON:  G#4 key: 68 velocity: 127
75906 
Channel: 12 Note ON:  C5 key: 72 velocity: 0
75915 
Channel: 12 Note ON:  G#4 key: 68 velocity: 0
75927 
Channel: 12 Note ON:  D#4 key: 63 velocity: 0
75960 
Channel: 12 Note ON:  C5 key: 72 velocity: 127
75960 
Channel: 12 Note ON:  G#4 key: 68 velocity: 127
75960 
Channel: 12 Note ON:  D#4 key: 63 velocity: 127
76021 
Channel: 12 Note ON:  D#4 key: 63 velocity: 0
76022 
Channel: 12 Note ON:  G#4 key: 68 velocity: 0
76040 
Channel: 12 Note ON:  C5 key: 72 velocity: 0
76200 
Channel: 12 Note ON:  C#5 key: 73 velocity: 127
76200 
Channel: 12 Note ON:  F4 key: 65 velocity: 127
76200 
Channel: 12 Note ON:  G#4 key: 68 velocity: 127
76696 
Channel: 12 Note ON:  F4 key: 65 velocity: 0
76704 
Channel: 12 Note ON:  C#5 key: 73 velocity: 0
76733 
Channel: 12 Note ON:  G#4 key: 68 velocity: 0
76800 
Channel: 12 Note ON:  C5 key: 72 velocity: 127
76800 
Channel: 12 Note ON:  G#4 key: 68 velocity: 127
76800 
Channel: 12 Note ON:  D#4 key: 63 velocity: 127
76869 
Channel: 12 Note ON:  D#4 key: 63 velocity: 0
76869 
Channel: 12 Note ON:  C5 key: 72 velocity: 0
76874 
Channel: 12 Note ON:  G#4 key: 68 velocity: 0
76920 
Channel: 12 Note ON:  C5 key: 72 velocity: 127
76920 
Channel: 12 Note ON:  D#4 key: 63 velocity: 127
76920 
Channel: 12 Note ON:  G#4 key: 68 velocity: 127
76972 
Channel: 12 Note ON:  D#4 key: 63 velocity: 0
76985 
Channel: 12 Note ON:  G#4 key: 68 velocity: 0
76987 
Channel: 12 Note ON:  C5 key: 72 velocity: 0
77160 
Channel: 12 Note ON:  C#5 key: 73 velocity: 127
77160 
Channel: 12 Note ON:  F4 key: 65 velocity: 127
77160 
Channel: 12 Note ON:  G#4 key: 68 velocity: 127
77574 
Channel: 12 Note ON:  G#4 key: 68 velocity: 0
77577 
Channel: 12 Note ON:  F4 key: 65 velocity: 0
77591 
Channel: 12 Note ON:  C#5 key: 73 velocity: 0
77760 
Channel: 12 Note ON:  F#4 key: 66 velocity: 127
77760 
Channel: 12 Note ON:  D#5 key: 75 velocity: 127
77760 
Channel: 12 Note ON:  A#4 key: 70 velocity: 127
78071 
Channel: 12 Note ON:  D#5 key: 75 velocity: 0
78120 
Channel: 12 Note ON:  C#5 key: 73 velocity: 127
78211 
Channel: 12 Note ON:  C#5 key: 73 velocity: 0
78215 
Channel: 12 Note ON:  A#4 key: 70 velocity: 0
78223 
Channel: 12 Note ON:  F#4 key: 66 velocity: 0
78720 
Channel: 12 Note ON:  F#4 key: 66 velocity: 127
78720 
Channel: 12 Note ON:  A#4 key: 70 velocity: 127
78720 
Channel: 12 Note ON:  D#5 key: 75 velocity: 127
78946 
Channel: 12 Note ON:  F#4 key: 66 velocity: 0
78991 
Channel: 12 Note ON:  D#5 key: 75 velocity: 0
78996 
Channel: 12 Note ON:  A#4 key: 70 velocity: 0
79080 
Channel: 12 Note ON:  A#4 key: 70 velocity: 127
79080 
Channel: 12 Note ON:  F5 key: 77 velocity: 127
79080 
Channel: 12 Note ON:  C#5 key: 73 velocity: 127
79463 
Channel: 12 Note ON:  F5 key: 77 velocity: 0
79482 
Channel: 12 Note ON:  C#5 key: 73 velocity: 0
79502 
Channel: 12 Note ON:  A#4 key: 70 velocity: 0
79680 
Channel: 12 Note ON:  C5 key: 72 velocity: 127
79680 
Channel: 12 Note ON:  D#4 key: 63 velocity: 127
79680 
Channel: 12 Note ON:  G#4 key: 68 velocity: 127
79756 
Channel: 12 Note ON:  C5 key: 72 velocity: 0
79767 
Channel: 12 Note ON:  D#4 key: 63 velocity: 0
79772 
Channel: 12 Note ON:  G#4 key: 68 velocity: 0
79800 
Channel: 12 Note ON:  C5 key: 72 velocity: 127
79800 
Channel: 12 Note ON:  G#4 key: 68 velocity: 127
79800 
Channel: 12 Note ON:  D#4 key: 63 velocity: 127
79869 
Channel: 12 Note ON:  D#4 key: 63 velocity: 0
79883 
Channel: 12 Note ON:  G#4 key: 68 velocity: 0
79890 
Channel: 12 Note ON:  C5 key: 72 velocity: 0
80040 
Channel: 12 Note ON:  F4 key: 65 velocity: 127
80040 
Channel: 12 Note ON:  C#5 key: 73 velocity: 127
80040 
Channel: 12 Note ON:  G#4 key: 68 velocity: 127
80497 
Channel: 12 Note ON:  C#5 key: 73 velocity: 0
80525 
Channel: 12 Note ON:  F4 key: 65 velocity: 0
80549 
Channel: 12 Note ON:  G#4 key: 68 velocity: 0
80640 
Channel: 12 Note ON:  C5 key: 72 velocity: 127
80640 
Channel: 12 Note ON:  G#4 key: 68 velocity: 127
80640 
Channel: 12 Note ON:  D#4 key: 63 velocity: 127
80691 
Channel: 12 Note ON:  C5 key: 72 velocity: 0
80695 
Channel: 12 Note ON:  D#4 key: 63 velocity: 0
80700 
Channel: 12 Note ON:  G#4 key: 68 velocity: 0
80760 
Channel: 12 Note ON:  C5 key: 72 velocity: 127
80760 
Channel: 12 Note ON:  D#4 key: 63 velocity: 127
80760 
Channel: 12 Note ON:  G#4 key: 68 velocity: 127
80803 
Channel: 12 Note ON:  D#4 key: 63 velocity: 0
80813 
Channel: 12 Note ON:  G#4 key: 68 velocity: 0
80820 
Channel: 12 Note ON:  C5 key: 72 velocity: 0
81000 
Channel: 12 Note ON:  F4 key: 65 velocity: 127
81000 
Channel: 12 Note ON:  C#5 key: 73 velocity: 127
81000 
Channel: 12 Note ON:  G#4 key: 68 velocity: 127
81433 
Channel: 12 Note ON:  G#4 key: 68 velocity: 0
81433 
Channel: 12 Note ON:  F4 key: 65 velocity: 0
81444 
Channel: 12 Note ON:  C#5 key: 73 velocity: 0
81600 
Channel: 12 Note ON:  F#4 key: 66 velocity: 127
81600 
Channel: 12 Note ON:  D#5 key: 75 velocity: 127
81600 
Channel: 12 Note ON:  A#4 key: 70 velocity: 127
81882 
Channel: 12 Note ON:  D#5 key: 75 velocity: 0
81933 
Channel: 12 Note ON:  F#4 key: 66 velocity: 0
81960 
Channel: 12 Note ON:  C#5 key: 73 velocity: 127
81960 
Channel: 12 Note ON:  F#4 key: 66 velocity: 127
82013 
Channel: 12 Note ON:  C#5 key: 73 velocity: 0
82023 
Channel: 12 Note ON:  A#4 key: 70 velocity: 0
82052 
Channel: 12 Note ON:  F#4 key: 66 velocity: 0
82560 
Channel: 12 Note ON:  F#4 key: 66 velocity: 127
82560 
Channel: 12 Note ON:  D#5 key: 75 velocity: 127
82560 
Channel: 12 Note ON:  A#4 key: 70 velocity: 127
82804 
Channel: 12 Note ON:  F#4 key: 66 velocity: 0
82839 
Channel: 12 Note ON:  D#5 key: 75 velocity: 0
82859 
Channel: 12 Note ON:  A#4 key: 70 velocity: 0
82920 
Channel: 12 Note ON:  A#4 key: 70 velocity: 127
82920 
Channel: 12 Note ON:  F5 key: 77 velocity: 127
82920 
Channel: 12 Note ON:  C#5 key: 73 velocity: 127
83310 
Channel: 12 Note ON:  F5 key: 77 velocity: 0
83315 
Channel: 12 Note ON:  C#5 key: 73 velocity: 0
83331 
Channel: 12 Note ON:  A#4 key: 70 velocity: 0
83520 
Channel: 12 Note ON:  C5 key: 72 velocity: 127
83520 
Channel: 12 Note ON:  G#4 key: 68 velocity: 127
83520 
Channel: 12 Note ON:  D#4 key: 63 velocity: 127
83591 
Channel: 12 Note ON:  D#4 key: 63 velocity: 0
83592 
Channel: 12 Note ON:  G#4 key: 68 velocity: 0
83594 
Channel: 12 Note ON:  C5 key: 72 velocity: 0
83640 
Channel: 12 Note ON:  C5 key: 72 velocity: 127
83640 
Channel: 12 Note ON:  G#4 key: 68 velocity: 127
83640 
Channel: 12 Note ON:  D#4 key: 63 velocity: 127
83690 
Channel: 12 Note ON:  D#4 key: 63 velocity: 0
83699 
Channel: 12 Note ON:  G#4 key: 68 velocity: 0
83704 
Channel: 12 Note ON:  C5 key: 72 velocity: 0
83880 
Channel: 12 Note ON:  F4 key: 65 velocity: 127
83880 
Channel: 12 Note ON:  C#5 key: 73 velocity: 127
83880 
Channel: 12 Note ON:  G#4 key: 68 velocity: 127
84353 
Channel: 12 Note ON:  F4 key: 65 velocity: 0
84363 
Channel: 12 Note ON:  C#5 key: 73 velocity: 0
84371 
Channel: 12 Note ON:  G#4 key: 68 velocity: 0
84480 
Channel: 12 Note ON:  C5 key: 72 velocity: 127
84480 
Channel: 12 Note ON:  G#4 key: 68 velocity: 127
84480 
Channel: 12 Note ON:  D#4 key: 63 velocity: 127
84519 
Channel: 12 Note ON:  C5 key: 72 velocity: 0
84523 
Channel: 12 Note ON:  G#4 key: 68 velocity: 0
84527 
Channel: 12 Note ON:  D#4 key: 63 velocity: 0
84600 
Channel: 12 Note ON:  C5 key: 72 velocity: 127
84600 
Channel: 12 Note ON:  D#4 key: 63 velocity: 127
84600 
Channel: 12 Note ON:  G#4 key: 68 velocity: 127
84639 
Channel: 12 Note ON:  D#4 key: 63 velocity: 0
84645 
Channel: 12 Note ON:  G#4 key: 68 velocity: 0
84659 
Channel: 12 Note ON:  C5 key: 72 velocity: 0
84840 
Channel: 12 Note ON:  C#5 key: 73 velocity: 127
84840 
Channel: 12 Note ON:  F4 key: 65 velocity: 127
84840 
Channel: 12 Note ON:  G#4 key: 68 velocity: 127
85275 
Channel: 12 Note ON:  G#4 key: 68 velocity: 0
85284 
Channel: 12 Note ON:  F4 key: 65 velocity: 0
85285 
Channel: 12 Note ON:  C#5 key: 73 velocity: 0
85440 
Channel: 12 Note ON:  F#4 key: 66 velocity: 127
85440 
Channel: 12 Note ON:  A#4 key: 70 velocity: 127
85440 
Channel: 12 Note ON:  D#5 key: 75 velocity: 127
85719 
Channel: 12 Note ON:  D#5 key: 75 velocity: 0
85780 
Channel: 12 Note ON:  F#4 key: 66 velocity: 0
85800 
Channel: 12 Note ON:  F#4 key: 66 velocity: 127
85800 
Channel: 12 Note ON:  C#5 key: 73 velocity: 127
85800 
Channel: 12 Note ON:  A#4 key: 70 velocity: 127
85805 
Channel: 12 Note ON:  A#4 key: 70 velocity: 0
85843 
Channel: 12 Note ON:  A#4 key: 70 velocity: 0
85860 
Channel: 12 Note ON:  F#4 key: 66 velocity: 0
85869 
Channel: 12 Note ON:  C#5 key: 73 velocity: 0
86400 
Channel: 12 Note ON:  F#4 key: 66 velocity: 127
86400 
Channel: 12 Note ON:  D#5 key: 75 velocity: 127
86400 
Channel: 12 Note ON:  A#4 key: 70 velocity: 127
86558 
Channel: 12 Note ON:  F#4 key: 66 velocity: 0
86571 
Channel: 12 Note ON:  A#4 key: 70 velocity: 0
86586 
Channel: 12 Note ON:  D#5 key: 75 velocity: 0
86760 
Channel: 12 Note ON:  A#4 key: 70 velocity: 127
86760 
Channel: 12 Note ON:  C#5 key: 73 velocity: 127
86760 
Channel: 12 Note ON:  F5 key: 77 velocity: 127
87194 
Channel: 12 Note ON:  C#5 key: 73 velocity: 0
87202 
Channel: 12 Note ON:  F5 key: 77 velocity: 0
87210 
Channel: 12 Note ON:  A#4 key: 70 velocity: 0
87360 
Channel: 12 Note ON:  G#5 key: 80 velocity: 127
87360 
Channel: 12 Note ON:  C5 key: 72 velocity: 127
87360 
Channel: 12 Note ON:  D#5 key: 75 velocity: 127
87596 
Channel: 12 Note ON:  C5 key: 72 velocity: 0
87637 
Channel: 12 Note ON:  G#5 key: 80 velocity: 0
87641 
Channel: 12 Note ON:  D#5 key: 75 velocity: 0
87720 
Channel: 12 Note ON:  C#5 key: 73 velocity: 127
87720 
Channel: 12 Note ON:  G#5 key: 80 velocity: 127
87720 
Channel: 12 Note ON:  F5 key: 77 velocity: 127
88152 
Channel: 12 Note ON:  C#5 key: 73 velocity: 0
88154 
Channel: 12 Note ON:  G#5 key: 80 velocity: 0
88166 
Channel: 12 Note ON:  F5 key: 77 velocity: 0
88320 
Channel: 12 Note ON:  G#5 key: 80 velocity: 127
88320 
Channel: 12 Note ON:  C5 key: 72 velocity: 127
88320 
Channel: 12 Note ON:  D#5 key: 75 velocity: 127
88438 
Channel: 12 Note ON:  C5 key: 72 velocity: 0
88479 
Channel: 12 Note ON:  G#5 key: 80 velocity: 0
88503 
Channel: 12 Note ON:  D#5 key: 75 velocity: 0
88560 
Channel: 12 Note ON:  C#5 key: 73 velocity: 127
88560 
Channel: 12 Note ON:  G#5 key: 80 velocity: 127
88560 
Channel: 12 Note ON:  F5 key: 77 velocity: 127
88587 
Channel: 12 Note ON:  C#5 key: 73 velocity: 0
88589 
Channel: 12 Note ON:  G#5 key: 80 velocity: 0
88597 
Channel: 12 Note ON:  F5 key: 77 velocity: 0
88680 
Channel: 12 Note ON:  A#4 key: 70 velocity: 127
88680 
Channel: 12 Note ON:  C#5 key: 73 velocity: 127
88680 
Channel: 12 Note ON:  F#5 key: 78 velocity: 127
89258 
Channel: 12 Note ON:  C#5 key: 73 velocity: 0
89258 
Channel: 12 Note ON:  A#4 key: 70 velocity: 0
89273 
Channel: 12 Note ON:  F#5 key: 78 velocity: 0
89273 
WTF is that class javax.sound.midi.Track$ImmutableEndOfTrack


Changing to track 4


0 
WTF is that class javax.sound.midi.MetaMessage
0 
WTF is that class javax.sound.midi.MetaMessage
0 
31440 
Channel: 1 Note ON:  C#5 key: 73 velocity: 98
31440 
Channel: 1 Note ON:  C#2 key: 37 velocity: 102
31440 
Channel: 1 Note ON:  C#4 key: 61 velocity: 105
31440 
Channel: 1 Note ON:  C#3 key: 49 velocity: 98
31473 
Channel: 1 Note ON:  C#5 key: 73 velocity: 0
31483 
Channel: 1 Note ON:  C#2 key: 37 velocity: 0
31483 
Channel: 1 Note ON:  C#3 key: 49 velocity: 0
31484 
Channel: 1 Note ON:  C#4 key: 61 velocity: 0
31560 
Channel: 1 Note ON:  C#5 key: 73 velocity: 112
31560 
Channel: 1 Note ON:  C#4 key: 61 velocity: 121
31560 
Channel: 1 Note ON:  C#3 key: 49 velocity: 115
31560 
Channel: 1 Note ON:  C#2 key: 37 velocity: 107
31630 
Channel: 1 Note ON:  C#2 key: 37 velocity: 0
31635 
Channel: 1 Note ON:  C#3 key: 49 velocity: 0
31636 
Channel: 1 Note ON:  C#5 key: 73 velocity: 0
31639 
Channel: 1 Note ON:  C#4 key: 61 velocity: 0
31639 
WTF is that class javax.sound.midi.Track$ImmutableEndOfTrack


Changing to track 5


0 
WTF is that class javax.sound.midi.MetaMessage
0 
WTF is that class javax.sound.midi.MetaMessage
0 
0 
0 
960 
Channel: 14 Note ON:  C#1 key: 25 velocity: 127
1560 
Channel: 14 Note ON:  D#1 key: 27 velocity: 127
1563 
Channel: 14 Note ON:  C#1 key: 25 velocity: 0
1667 
Channel: 14 Note ON:  D#1 key: 27 velocity: 0
1680 
Channel: 14 Note ON:  F1 key: 29 velocity: 127
1800 
Channel: 14 Note ON:  G#1 key: 32 velocity: 127
1811 
Channel: 14 Note ON:  F1 key: 29 velocity: 0
2462 
Channel: 14 Note ON:  G#1 key: 32 velocity: 0
2520 
Channel: 14 Note ON:  A#1 key: 34 velocity: 127
2640 
Channel: 14 Note ON:  C2 key: 36 velocity: 127
2645 
Channel: 14 Note ON:  A#1 key: 34 velocity: 0
2760 
Channel: 14 Note ON:  A#1 key: 34 velocity: 127
2774 
Channel: 14 Note ON:  C2 key: 36 velocity: 0
3480 
Channel: 14 Note ON:  C2 key: 36 velocity: 127
3490 
Channel: 14 Note ON:  A#1 key: 34 velocity: 0
3597 
Channel: 14 Note ON:  C2 key: 36 velocity: 0
3600 
Channel: 14 Note ON:  C#2 key: 37 velocity: 127
3720 
Channel: 14 Note ON:  F#1 key: 30 velocity: 127
3722 
Channel: 14 Note ON:  C#2 key: 37 velocity: 0
4440 
Channel: 14 Note ON:  C2 key: 36 velocity: 127
4560 
Channel: 14 Note ON:  C#2 key: 37 velocity: 127
4566 
Channel: 14 Note ON:  C2 key: 36 velocity: 0
4566 
Channel: 14 Note ON:  F#1 key: 30 velocity: 0
4800 
Channel: 14 Note ON:  C#1 key: 25 velocity: 127
4809 
Channel: 14 Note ON:  C#2 key: 37 velocity: 0
5233 
Channel: 14 Note ON:  C#1 key: 25 velocity: 0
5280 
Channel: 14 Note ON:  C#1 key: 25 velocity: 127
5399 
Channel: 14 Note ON:  C#1 key: 25 velocity: 0
5400 
Channel: 14 Note ON:  D#1 key: 27 velocity: 127
5516 
Channel: 14 Note ON:  D#1 key: 27 velocity: 0
5520 
Channel: 14 Note ON:  F1 key: 29 velocity: 127
5639 
Channel: 14 Note ON:  F1 key: 29 velocity: 0
5640 
Channel: 14 Note ON:  G#1 key: 32 velocity: 127
6253 
Channel: 14 Note ON:  G#1 key: 32 velocity: 0
6360 
Channel: 14 Note ON:  A#1 key: 34 velocity: 127
6471 
Channel: 14 Note ON:  A#1 key: 34 velocity: 0
6480 
Channel: 14 Note ON:  C2 key: 36 velocity: 127
6595 
Channel: 14 Note ON:  C2 key: 36 velocity: 0
6600 
Channel: 14 Note ON:  F1 key: 29 velocity: 127
7138 
Channel: 14 Note ON:  F1 key: 29 velocity: 0
7200 
Channel: 14 Note ON:  F1 key: 29 velocity: 127
7308 
Channel: 14 Note ON:  F1 key: 29 velocity: 0
7320 
Channel: 14 Note ON:  C#2 key: 37 velocity: 127
7440 
Channel: 14 Note ON:  F1 key: 29 velocity: 127
7454 
Channel: 14 Note ON:  C#2 key: 37 velocity: 0
7544 
Channel: 14 Note ON:  F1 key: 29 velocity: 0
7560 
Channel: 14 Note ON:  F#1 key: 30 velocity: 127
8280 
Channel: 14 Note ON:  C2 key: 36 velocity: 127
8321 
Channel: 14 Note ON:  F#1 key: 30 velocity: 0
8400 
Channel: 14 Note ON:  C#2 key: 37 velocity: 127
8404 
Channel: 14 Note ON:  C2 key: 36 velocity: 0
8615 
Channel: 14 Note ON:  C#2 key: 37 velocity: 0
8640 
Channel: 14 Note ON:  C#1 key: 25 velocity: 127
9240 
Channel: 14 Note ON:  D#1 key: 27 velocity: 127
9243 
Channel: 14 Note ON:  C#1 key: 25 velocity: 0
9347 
Channel: 14 Note ON:  D#1 key: 27 velocity: 0
9360 
Channel: 14 Note ON:  F1 key: 29 velocity: 127
9480 
Channel: 14 Note ON:  G#1 key: 32 velocity: 127
9491 
Channel: 14 Note ON:  F1 key: 29 velocity: 0
10142 
Channel: 14 Note ON:  G#1 key: 32 velocity: 0
10200 
Channel: 14 Note ON:  A#1 key: 34 velocity: 127
10320 
Channel: 14 Note ON:  C2 key: 36 velocity: 127
10325 
Channel: 14 Note ON:  A#1 key: 34 velocity: 0
10440 
Channel: 14 Note ON:  A#1 key: 34 velocity: 127
10454 
Channel: 14 Note ON:  C2 key: 36 velocity: 0
11160 
Channel: 14 Note ON:  C2 key: 36 velocity: 127
11170 
Channel: 14 Note ON:  A#1 key: 34 velocity: 0
11277 
Channel: 14 Note ON:  C2 key: 36 velocity: 0
11280 
Channel: 14 Note ON:  C#2 key: 37 velocity: 127
11400 
Channel: 14 Note ON:  F#1 key: 30 velocity: 127
11402 
Channel: 14 Note ON:  C#2 key: 37 velocity: 0
12120 
Channel: 14 Note ON:  C2 key: 36 velocity: 127
12240 
Channel: 14 Note ON:  C#2 key: 37 velocity: 127
12246 
Channel: 14 Note ON:  C2 key: 36 velocity: 0
12246 
Channel: 14 Note ON:  F#1 key: 30 velocity: 0
12480 
Channel: 14 Note ON:  C#1 key: 25 velocity: 127
12489 
Channel: 14 Note ON:  C#2 key: 37 velocity: 0
12913 
Channel: 14 Note ON:  C#1 key: 25 velocity: 0
12960 
Channel: 14 Note ON:  C#1 key: 25 velocity: 127
13079 
Channel: 14 Note ON:  C#1 key: 25 velocity: 0
13080 
Channel: 14 Note ON:  D#1 key: 27 velocity: 127
13196 
Channel: 14 Note ON:  D#1 key: 27 velocity: 0
13200 
Channel: 14 Note ON:  F1 key: 29 velocity: 127
13319 
Channel: 14 Note ON:  F1 key: 29 velocity: 0
13320 
Channel: 14 Note ON:  G#1 key: 32 velocity: 127
13933 
Channel: 14 Note ON:  G#1 key: 32 velocity: 0
14040 
Channel: 14 Note ON:  A#1 key: 34 velocity: 127
14151 
Channel: 14 Note ON:  A#1 key: 34 velocity: 0
14160 
Channel: 14 Note ON:  C2 key: 36 velocity: 127
14275 
Channel: 14 Note ON:  C2 key: 36 velocity: 0
14280 
Channel: 14 Note ON:  F1 key: 29 velocity: 127
14818 
Channel: 14 Note ON:  F1 key: 29 velocity: 0
14880 
Channel: 14 Note ON:  F1 key: 29 velocity: 127
14988 
Channel: 14 Note ON:  F1 key: 29 velocity: 0
15000 
Channel: 14 Note ON:  C#2 key: 37 velocity: 127
15120 
Channel: 14 Note ON:  F1 key: 29 velocity: 127
15134 
Channel: 14 Note ON:  C#2 key: 37 velocity: 0
15224 
Channel: 14 Note ON:  F1 key: 29 velocity: 0
15240 
Channel: 14 Note ON:  F#1 key: 30 velocity: 127
15960 
Channel: 14 Note ON:  C2 key: 36 velocity: 127
16001 
Channel: 14 Note ON:  F#1 key: 30 velocity: 0
16080 
Channel: 14 Note ON:  C#2 key: 37 velocity: 127
16084 
Channel: 14 Note ON:  C2 key: 36 velocity: 0
16295 
Channel: 14 Note ON:  C#2 key: 37 velocity: 0
16320 
Channel: 14 Note ON:  C#1 key: 25 velocity: 127
16920 
Channel: 14 Note ON:  D#1 key: 27 velocity: 127
16923 
Channel: 14 Note ON:  C#1 key: 25 velocity: 0
17027 
Channel: 14 Note ON:  D#1 key: 27 velocity: 0
17040 
Channel: 14 Note ON:  F1 key: 29 velocity: 127
17160 
Channel: 14 Note ON:  G#1 key: 32 velocity: 127
17171 
Channel: 14 Note ON:  F1 key: 29 velocity: 0
17822 
Channel: 14 Note ON:  G#1 key: 32 velocity: 0
17880 
Channel: 14 Note ON:  A#1 key: 34 velocity: 127
18000 
Channel: 14 Note ON:  C2 key: 36 velocity: 127
18005 
Channel: 14 Note ON:  A#1 key: 34 velocity: 0
18120 
Channel: 14 Note ON:  A#1 key: 34 velocity: 127
18134 
Channel: 14 Note ON:  C2 key: 36 velocity: 0
18840 
Channel: 14 Note ON:  C2 key: 36 velocity: 127
18850 
Channel: 14 Note ON:  A#1 key: 34 velocity: 0
18957 
Channel: 14 Note ON:  C2 key: 36 velocity: 0
18960 
Channel: 14 Note ON:  C#2 key: 37 velocity: 127
19080 
Channel: 14 Note ON:  F#1 key: 30 velocity: 127
19082 
Channel: 14 Note ON:  C#2 key: 37 velocity: 0
19800 
Channel: 14 Note ON:  C2 key: 36 velocity: 127
19920 
Channel: 14 Note ON:  C#2 key: 37 velocity: 127
19926 
Channel: 14 Note ON:  C2 key: 36 velocity: 0
19926 
Channel: 14 Note ON:  F#1 key: 30 velocity: 0
20160 
Channel: 14 Note ON:  C#1 key: 25 velocity: 127
20169 
Channel: 14 Note ON:  C#2 key: 37 velocity: 0
20593 
Channel: 14 Note ON:  C#1 key: 25 velocity: 0
20640 
Channel: 14 Note ON:  C#1 key: 25 velocity: 127
20759 
Channel: 14 Note ON:  C#1 key: 25 velocity: 0
20760 
Channel: 14 Note ON:  D#1 key: 27 velocity: 127
20876 
Channel: 14 Note ON:  D#1 key: 27 velocity: 0
20880 
Channel: 14 Note ON:  F1 key: 29 velocity: 127
20999 
Channel: 14 Note ON:  F1 key: 29 velocity: 0
21000 
Channel: 14 Note ON:  G#1 key: 32 velocity: 127
21613 
Channel: 14 Note ON:  G#1 key: 32 velocity: 0
21720 
Channel: 14 Note ON:  A#1 key: 34 velocity: 127
21831 
Channel: 14 Note ON:  A#1 key: 34 velocity: 0
21840 
Channel: 14 Note ON:  C2 key: 36 velocity: 127
21955 
Channel: 14 Note ON:  C2 key: 36 velocity: 0
21960 
Channel: 14 Note ON:  F1 key: 29 velocity: 127
22498 
Channel: 14 Note ON:  F1 key: 29 velocity: 0
22560 
Channel: 14 Note ON:  F1 key: 29 velocity: 127
22668 
Channel: 14 Note ON:  F1 key: 29 velocity: 0
22680 
Channel: 14 Note ON:  C#2 key: 37 velocity: 127
22800 
Channel: 14 Note ON:  F1 key: 29 velocity: 127
22814 
Channel: 14 Note ON:  C#2 key: 37 velocity: 0
22904 
Channel: 14 Note ON:  F1 key: 29 velocity: 0
22920 
Channel: 14 Note ON:  F#1 key: 30 velocity: 127
23640 
Channel: 14 Note ON:  C2 key: 36 velocity: 127
23681 
Channel: 14 Note ON:  F#1 key: 30 velocity: 0
23760 
Channel: 14 Note ON:  C#2 key: 37 velocity: 127
23764 
Channel: 14 Note ON:  C2 key: 36 velocity: 0
23975 
Channel: 14 Note ON:  C#2 key: 37 velocity: 0
24000 
Channel: 14 Note ON:  C#1 key: 25 velocity: 127
24600 
Channel: 14 Note ON:  D#1 key: 27 velocity: 127
24603 
Channel: 14 Note ON:  C#1 key: 25 velocity: 0
24707 
Channel: 14 Note ON:  D#1 key: 27 velocity: 0
24720 
Channel: 14 Note ON:  F1 key: 29 velocity: 127
24840 
Channel: 14 Note ON:  G#1 key: 32 velocity: 127
24851 
Channel: 14 Note ON:  F1 key: 29 velocity: 0
25502 
Channel: 14 Note ON:  G#1 key: 32 velocity: 0
25560 
Channel: 14 Note ON:  A#1 key: 34 velocity: 127
25680 
Channel: 14 Note ON:  C2 key: 36 velocity: 127
25685 
Channel: 14 Note ON:  A#1 key: 34 velocity: 0
25800 
Channel: 14 Note ON:  A#1 key: 34 velocity: 127
25814 
Channel: 14 Note ON:  C2 key: 36 velocity: 0
26520 
Channel: 14 Note ON:  C2 key: 36 velocity: 127
26530 
Channel: 14 Note ON:  A#1 key: 34 velocity: 0
26637 
Channel: 14 Note ON:  C2 key: 36 velocity: 0
26640 
Channel: 14 Note ON:  C#2 key: 37 velocity: 127
26760 
Channel: 14 Note ON:  F#1 key: 30 velocity: 127
26762 
Channel: 14 Note ON:  C#2 key: 37 velocity: 0
27480 
Channel: 14 Note ON:  C2 key: 36 velocity: 127
27600 
Channel: 14 Note ON:  C#2 key: 37 velocity: 127
27606 
Channel: 14 Note ON:  C2 key: 36 velocity: 0
27606 
Channel: 14 Note ON:  F#1 key: 30 velocity: 0
27840 
Channel: 14 Note ON:  C#1 key: 25 velocity: 127
27849 
Channel: 14 Note ON:  C#2 key: 37 velocity: 0
28273 
Channel: 14 Note ON:  C#1 key: 25 velocity: 0
28320 
Channel: 14 Note ON:  C#1 key: 25 velocity: 127
28439 
Channel: 14 Note ON:  C#1 key: 25 velocity: 0
28440 
Channel: 14 Note ON:  D#1 key: 27 velocity: 127
28556 
Channel: 14 Note ON:  D#1 key: 27 velocity: 0
28560 
Channel: 14 Note ON:  F1 key: 29 velocity: 127
28679 
Channel: 14 Note ON:  F1 key: 29 velocity: 0
28680 
Channel: 14 Note ON:  G#1 key: 32 velocity: 127
29293 
Channel: 14 Note ON:  G#1 key: 32 velocity: 0
29400 
Channel: 14 Note ON:  A#1 key: 34 velocity: 127
29511 
Channel: 14 Note ON:  A#1 key: 34 velocity: 0
29520 
Channel: 14 Note ON:  C2 key: 36 velocity: 127
29635 
Channel: 14 Note ON:  C2 key: 36 velocity: 0
29640 
Channel: 14 Note ON:  F1 key: 29 velocity: 127
30178 
Channel: 14 Note ON:  F1 key: 29 velocity: 0
30240 
Channel: 14 Note ON:  F1 key: 29 velocity: 127
30348 
Channel: 14 Note ON:  F1 key: 29 velocity: 0
30360 
Channel: 14 Note ON:  C#2 key: 37 velocity: 127
30480 
Channel: 14 Note ON:  F1 key: 29 velocity: 127
30494 
Channel: 14 Note ON:  C#2 key: 37 velocity: 0
30584 
Channel: 14 Note ON:  F1 key: 29 velocity: 0
30600 
Channel: 14 Note ON:  F#1 key: 30 velocity: 127
31320 
Channel: 14 Note ON:  C2 key: 36 velocity: 127
31361 
Channel: 14 Note ON:  F#1 key: 30 velocity: 0
31440 
Channel: 14 Note ON:  C#2 key: 37 velocity: 127
31444 
Channel: 14 Note ON:  C2 key: 36 velocity: 0
31655 
Channel: 14 Note ON:  C#2 key: 37 velocity: 0
31680 
Channel: 14 Note ON:  C#1 key: 25 velocity: 127
32280 
Channel: 14 Note ON:  D#1 key: 27 velocity: 127
32283 
Channel: 14 Note ON:  C#1 key: 25 velocity: 0
32387 
Channel: 14 Note ON:  D#1 key: 27 velocity: 0
32400 
Channel: 14 Note ON:  F1 key: 29 velocity: 127
32520 
Channel: 14 Note ON:  G#1 key: 32 velocity: 127
32531 
Channel: 14 Note ON:  F1 key: 29 velocity: 0
33182 
Channel: 14 Note ON:  G#1 key: 32 velocity: 0
33240 
Channel: 14 Note ON:  A#1 key: 34 velocity: 127
33360 
Channel: 14 Note ON:  C2 key: 36 velocity: 127
33365 
Channel: 14 Note ON:  A#1 key: 34 velocity: 0
33480 
Channel: 14 Note ON:  A#1 key: 34 velocity: 127
33494 
Channel: 14 Note ON:  C2 key: 36 velocity: 0
34200 
Channel: 14 Note ON:  C2 key: 36 velocity: 127
34210 
Channel: 14 Note ON:  A#1 key: 34 velocity: 0
34317 
Channel: 14 Note ON:  C2 key: 36 velocity: 0
34320 
Channel: 14 Note ON:  C#2 key: 37 velocity: 127
34440 
Channel: 14 Note ON:  F#1 key: 30 velocity: 127
34442 
Channel: 14 Note ON:  C#2 key: 37 velocity: 0
35160 
Channel: 14 Note ON:  C2 key: 36 velocity: 127
35280 
Channel: 14 Note ON:  C#2 key: 37 velocity: 127
35286 
Channel: 14 Note ON:  C2 key: 36 velocity: 0
35286 
Channel: 14 Note ON:  F#1 key: 30 velocity: 0
35520 
Channel: 14 Note ON:  C#1 key: 25 velocity: 127
35529 
Channel: 14 Note ON:  C#2 key: 37 velocity: 0
35953 
Channel: 14 Note ON:  C#1 key: 25 velocity: 0
36000 
Channel: 14 Note ON:  C#1 key: 25 velocity: 127
36119 
Channel: 14 Note ON:  C#1 key: 25 velocity: 0
36120 
Channel: 14 Note ON:  D#1 key: 27 velocity: 127
36236 
Channel: 14 Note ON:  D#1 key: 27 velocity: 0
36240 
Channel: 14 Note ON:  F1 key: 29 velocity: 127
36359 
Channel: 14 Note ON:  F1 key: 29 velocity: 0
36360 
Channel: 14 Note ON:  G#1 key: 32 velocity: 127
36973 
Channel: 14 Note ON:  G#1 key: 32 velocity: 0
37080 
Channel: 14 Note ON:  A#1 key: 34 velocity: 127
37191 
Channel: 14 Note ON:  A#1 key: 34 velocity: 0
37200 
Channel: 14 Note ON:  C2 key: 36 velocity: 127
37315 
Channel: 14 Note ON:  C2 key: 36 velocity: 0
37320 
Channel: 14 Note ON:  F1 key: 29 velocity: 127
37858 
Channel: 14 Note ON:  F1 key: 29 velocity: 0
37920 
Channel: 14 Note ON:  F1 key: 29 velocity: 127
38028 
Channel: 14 Note ON:  F1 key: 29 velocity: 0
38040 
Channel: 14 Note ON:  C#2 key: 37 velocity: 127
38160 
Channel: 14 Note ON:  F1 key: 29 velocity: 127
38174 
Channel: 14 Note ON:  C#2 key: 37 velocity: 0
38264 
Channel: 14 Note ON:  F1 key: 29 velocity: 0
38280 
Channel: 14 Note ON:  F#1 key: 30 velocity: 127
39000 
Channel: 14 Note ON:  C2 key: 36 velocity: 127
39041 
Channel: 14 Note ON:  F#1 key: 30 velocity: 0
39120 
Channel: 14 Note ON:  C#2 key: 37 velocity: 127
39124 
Channel: 14 Note ON:  C2 key: 36 velocity: 0
39335 
Channel: 14 Note ON:  C#2 key: 37 velocity: 0
39360 
Channel: 14 Note ON:  F#1 key: 30 velocity: 127
39437 
Channel: 14 Note ON:  F#1 key: 30 velocity: 0
39480 
Channel: 14 Note ON:  F#1 key: 30 velocity: 127
39540 
Channel: 14 Note ON:  F#1 key: 30 velocity: 0
39600 
Channel: 14 Note ON:  F#1 key: 30 velocity: 127
39684 
Channel: 14 Note ON:  F#1 key: 30 velocity: 0
39720 
Channel: 14 Note ON:  F#1 key: 30 velocity: 127
39778 
Channel: 14 Note ON:  F#1 key: 30 velocity: 0
39840 
Channel: 14 Note ON:  F#1 key: 30 velocity: 127
39900 
Channel: 14 Note ON:  F#1 key: 30 velocity: 0
39960 
Channel: 14 Note ON:  F#1 key: 30 velocity: 127
40007 
Channel: 14 Note ON:  F#1 key: 30 velocity: 0
40080 
Channel: 14 Note ON:  F#1 key: 30 velocity: 127
40144 
Channel: 14 Note ON:  F#1 key: 30 velocity: 0
40200 
Channel: 14 Note ON:  F#1 key: 30 velocity: 127
40256 
Channel: 14 Note ON:  F#1 key: 30 velocity: 0
40320 
Channel: 14 Note ON:  F#1 key: 30 velocity: 127
40404 
Channel: 14 Note ON:  F#1 key: 30 velocity: 0
40440 
Channel: 14 Note ON:  F#2 key: 42 velocity: 127
40560 
Channel: 14 Note ON:  F#1 key: 30 velocity: 127
40572 
Channel: 14 Note ON:  F#2 key: 42 velocity: 0
40680 
Channel: 14 Note ON:  C#2 key: 37 velocity: 127
40737 
Channel: 14 Note ON:  F#1 key: 30 velocity: 0
40794 
Channel: 14 Note ON:  C#2 key: 37 velocity: 0
40800 
Channel: 14 Note ON:  F#2 key: 42 velocity: 127
40907 
Channel: 14 Note ON:  F#2 key: 42 velocity: 0
40920 
Channel: 14 Note ON:  C#2 key: 37 velocity: 127
41036 
Channel: 14 Note ON:  C#2 key: 37 velocity: 0
41040 
Channel: 14 Note ON:  F2 key: 41 velocity: 127
41160 
Channel: 14 Note ON:  C#2 key: 37 velocity: 127
41164 
Channel: 14 Note ON:  F2 key: 41 velocity: 0
41224 
Channel: 14 Note ON:  C#2 key: 37 velocity: 0
41280 
Channel: 14 Note ON:  C#1 key: 25 velocity: 127
41362 
Channel: 14 Note ON:  C#1 key: 25 velocity: 0
41400 
Channel: 14 Note ON:  C#1 key: 25 velocity: 127
41462 
Channel: 14 Note ON:  C#1 key: 25 velocity: 0
41520 
Channel: 14 Note ON:  C#1 key: 25 velocity: 127
41592 
Channel: 14 Note ON:  C#1 key: 25 velocity: 0
41640 
Channel: 14 Note ON:  C#1 key: 25 velocity: 127
41704 
Channel: 14 Note ON:  C#1 key: 25 velocity: 0
41760 
Channel: 14 Note ON:  C#1 key: 25 velocity: 127
41837 
Channel: 14 Note ON:  C#1 key: 25 velocity: 0
41880 
Channel: 14 Note ON:  C#1 key: 25 velocity: 127
41933 
Channel: 14 Note ON:  C#1 key: 25 velocity: 0
42000 
Channel: 14 Note ON:  C#1 key: 25 velocity: 127
42063 
Channel: 14 Note ON:  C#1 key: 25 velocity: 0
42120 
Channel: 14 Note ON:  C#1 key: 25 velocity: 127
42168 
Channel: 14 Note ON:  C#1 key: 25 velocity: 0
42240 
Channel: 14 Note ON:  C#1 key: 25 velocity: 127
42318 
Channel: 14 Note ON:  C#1 key: 25 velocity: 0
42360 
Channel: 14 Note ON:  C#2 key: 37 velocity: 127
42480 
Channel: 14 Note ON:  C2 key: 36 velocity: 127
42499 
Channel: 14 Note ON:  C#2 key: 37 velocity: 0
42600 
Channel: 14 Note ON:  G#1 key: 32 velocity: 127
42601 
Channel: 14 Note ON:  C2 key: 36 velocity: 0
42704 
Channel: 14 Note ON:  G#1 key: 32 velocity: 0
42720 
Channel: 14 Note ON:  C#2 key: 37 velocity: 127
42840 
Channel: 14 Note ON:  G#1 key: 32 velocity: 127
42849 
Channel: 14 Note ON:  C#2 key: 37 velocity: 0
42960 
Channel: 14 Note ON:  C2 key: 36 velocity: 127
42964 
Channel: 14 Note ON:  G#1 key: 32 velocity: 0
43079 
Channel: 14 Note ON:  C2 key: 36 velocity: 0
43080 
Channel: 14 Note ON:  C#2 key: 37 velocity: 127
43200 
Channel: 14 Note ON:  F#1 key: 30 velocity: 127
43211 
Channel: 14 Note ON:  C#2 key: 37 velocity: 0
43281 
Channel: 14 Note ON:  F#1 key: 30 velocity: 0
43320 
Channel: 14 Note ON:  F#1 key: 30 velocity: 127
43368 
Channel: 14 Note ON:  F#1 key: 30 velocity: 0
43440 
Channel: 14 Note ON:  F#1 key: 30 velocity: 127
43517 
Channel: 14 Note ON:  F#1 key: 30 velocity: 0
43560 
Channel: 14 Note ON:  F#1 key: 30 velocity: 127
43611 
Channel: 14 Note ON:  F#1 key: 30 velocity: 0
43680 
Channel: 14 Note ON:  F#1 key: 30 velocity: 127
43747 
Channel: 14 Note ON:  F#1 key: 30 velocity: 0
43800 
Channel: 14 Note ON:  F#1 key: 30 velocity: 127
43848 
Channel: 14 Note ON:  F#1 key: 30 velocity: 0
43920 
Channel: 14 Note ON:  F#1 key: 30 velocity: 127
43974 
Channel: 14 Note ON:  F#1 key: 30 velocity: 0
44040 
Channel: 14 Note ON:  F#1 key: 30 velocity: 127
44093 
Channel: 14 Note ON:  F#1 key: 30 velocity: 0
44160 
Channel: 14 Note ON:  F#1 key: 30 velocity: 127
44251 
Channel: 14 Note ON:  F#1 key: 30 velocity: 0
44280 
Channel: 14 Note ON:  F#2 key: 42 velocity: 127
44400 
Channel: 14 Note ON:  C#2 key: 37 velocity: 127
44431 
Channel: 14 Note ON:  F#2 key: 42 velocity: 0
44520 
Channel: 14 Note ON:  F#2 key: 42 velocity: 127
44521 
Channel: 14 Note ON:  C#2 key: 37 velocity: 0
44638 
Channel: 14 Note ON:  F#2 key: 42 velocity: 0
44640 
Channel: 14 Note ON:  C#2 key: 37 velocity: 127
44760 
Channel: 14 Note ON:  F2 key: 41 velocity: 127
44762 
Channel: 14 Note ON:  C#2 key: 37 velocity: 0
44880 
Channel: 14 Note ON:  C#2 key: 37 velocity: 127
44900 
Channel: 14 Note ON:  F2 key: 41 velocity: 0
45000 
Channel: 14 Note ON:  F#1 key: 30 velocity: 127
45030 
Channel: 14 Note ON:  C#2 key: 37 velocity: 0
45066 
Channel: 14 Note ON:  F#1 key: 30 velocity: 0
45120 
Channel: 14 Note ON:  C#1 key: 25 velocity: 127
45291 
Channel: 14 Note ON:  C#1 key: 25 velocity: 0
45360 
Channel: 14 Note ON:  C#1 key: 25 velocity: 127
45432 
Channel: 14 Note ON:  C#1 key: 25 velocity: 0
45480 
Channel: 14 Note ON:  C#1 key: 25 velocity: 127
45525 
Channel: 14 Note ON:  C#1 key: 25 velocity: 0
45600 
Channel: 14 Note ON:  C#1 key: 25 velocity: 127
45664 
Channel: 14 Note ON:  C#1 key: 25 velocity: 0
45720 
Channel: 14 Note ON:  C#1 key: 25 velocity: 127
45765 
Channel: 14 Note ON:  C#1 key: 25 velocity: 0
45840 
Channel: 14 Note ON:  C#1 key: 25 velocity: 127
45898 
Channel: 14 Note ON:  C#1 key: 25 velocity: 0
45960 
Channel: 14 Note ON:  C#1 key: 25 velocity: 127
46002 
Channel: 14 Note ON:  C#1 key: 25 velocity: 0
46080 
Channel: 14 Note ON:  C#1 key: 25 velocity: 127
46161 
Channel: 14 Note ON:  C#1 key: 25 velocity: 0
46200 
Channel: 14 Note ON:  C#2 key: 37 velocity: 127
46320 
Channel: 14 Note ON:  C2 key: 36 velocity: 127
46326 
Channel: 14 Note ON:  C#2 key: 37 velocity: 0
46430 
Channel: 14 Note ON:  C2 key: 36 velocity: 0
46440 
Channel: 14 Note ON:  G#1 key: 32 velocity: 127
46548 
Channel: 14 Note ON:  G#1 key: 32 velocity: 0
46560 
Channel: 14 Note ON:  C#2 key: 37 velocity: 127
46680 
Channel: 14 Note ON:  C#2 key: 37 velocity: 0
46680 
Channel: 14 Note ON:  G#1 key: 32 velocity: 127
46800 
Channel: 14 Note ON:  G#1 key: 32 velocity: 0
46800 
Channel: 14 Note ON:  C2 key: 36 velocity: 127
46920 
Channel: 14 Note ON:  C2 key: 36 velocity: 0
46920 
Channel: 14 Note ON:  C#2 key: 37 velocity: 127
47040 
Channel: 14 Note ON:  F#1 key: 30 velocity: 127
47047 
Channel: 14 Note ON:  C#2 key: 37 velocity: 0
47115 
Channel: 14 Note ON:  F#1 key: 30 velocity: 0
47160 
Channel: 14 Note ON:  F#1 key: 30 velocity: 127
47207 
Channel: 14 Note ON:  F#1 key: 30 velocity: 0
47280 
Channel: 14 Note ON:  F#1 key: 30 velocity: 127
47341 
Channel: 14 Note ON:  F#1 key: 30 velocity: 0
47400 
Channel: 14 Note ON:  F#1 key: 30 velocity: 127
47454 
Channel: 14 Note ON:  F#1 key: 30 velocity: 0
47520 
Channel: 14 Note ON:  F#1 key: 30 velocity: 127
47571 
Channel: 14 Note ON:  F#1 key: 30 velocity: 0
47640 
Channel: 14 Note ON:  F#1 key: 30 velocity: 127
47683 
Channel: 14 Note ON:  F#1 key: 30 velocity: 0
47760 
Channel: 14 Note ON:  F#1 key: 30 velocity: 127
47819 
Channel: 14 Note ON:  F#1 key: 30 velocity: 0
47880 
Channel: 14 Note ON:  F#1 key: 30 velocity: 127
47926 
Channel: 14 Note ON:  F#1 key: 30 velocity: 0
48000 
Channel: 14 Note ON:  F#1 key: 30 velocity: 127
48100 
Channel: 14 Note ON:  F#1 key: 30 velocity: 0
48120 
Channel: 14 Note ON:  F#2 key: 42 velocity: 127
48240 
Channel: 14 Note ON:  C#2 key: 37 velocity: 127
48275 
Channel: 14 Note ON:  F#2 key: 42 velocity: 0
48360 
Channel: 14 Note ON:  F#1 key: 30 velocity: 127
48374 
Channel: 14 Note ON:  C#2 key: 37 velocity: 0
48478 
Channel: 14 Note ON:  F#1 key: 30 velocity: 0
48480 
Channel: 14 Note ON:  F#2 key: 42 velocity: 127
48599 
Channel: 14 Note ON:  F#2 key: 42 velocity: 0
48600 
Channel: 14 Note ON:  F#1 key: 30 velocity: 127
48720 
Channel: 14 Note ON:  C#2 key: 37 velocity: 127
48732 
Channel: 14 Note ON:  F#1 key: 30 velocity: 0
48840 
Channel: 14 Note ON:  F#2 key: 42 velocity: 127
48853 
Channel: 14 Note ON:  C#2 key: 37 velocity: 0
48899 
Channel: 14 Note ON:  F#2 key: 42 velocity: 0
48960 
Channel: 14 Note ON:  C#1 key: 25 velocity: 127
49033 
Channel: 14 Note ON:  C#1 key: 25 velocity: 0
49080 
Channel: 14 Note ON:  C#1 key: 25 velocity: 127
49152 
Channel: 14 Note ON:  C#1 key: 25 velocity: 0
49200 
Channel: 14 Note ON:  C#1 key: 25 velocity: 127
49275 
Channel: 14 Note ON:  C#1 key: 25 velocity: 0
49320 
Channel: 14 Note ON:  C#1 key: 25 velocity: 127
49357 
Channel: 14 Note ON:  C#1 key: 25 velocity: 0
49440 
Channel: 14 Note ON:  C#1 key: 25 velocity: 127
49510 
Channel: 14 Note ON:  C#1 key: 25 velocity: 0
49560 
Channel: 14 Note ON:  C#1 key: 25 velocity: 127
49618 
Channel: 14 Note ON:  C#1 key: 25 velocity: 0
49680 
Channel: 14 Note ON:  C#1 key: 25 velocity: 127
49734 
Channel: 14 Note ON:  C#1 key: 25 velocity: 0
49800 
Channel: 14 Note ON:  C#1 key: 25 velocity: 127
49846 
Channel: 14 Note ON:  C#1 key: 25 velocity: 0
49920 
Channel: 14 Note ON:  C#1 key: 25 velocity: 127
50010 
Channel: 14 Note ON:  C#1 key: 25 velocity: 0
50040 
Channel: 14 Note ON:  C#2 key: 37 velocity: 127
50160 
Channel: 14 Note ON:  C2 key: 36 velocity: 127
50167 
Channel: 14 Note ON:  C#2 key: 37 velocity: 0
50280 
Channel: 14 Note ON:  C#2 key: 37 velocity: 127
50291 
Channel: 14 Note ON:  C2 key: 36 velocity: 0
50393 
Channel: 14 Note ON:  C#2 key: 37 velocity: 0
50400 
Channel: 14 Note ON:  G#1 key: 32 velocity: 127
50520 
Channel: 14 Note ON:  C2 key: 36 velocity: 127
50548 
Channel: 14 Note ON:  G#1 key: 32 velocity: 0
50631 
Channel: 14 Note ON:  C2 key: 36 velocity: 0
50640 
Channel: 14 Note ON:  C#2 key: 37 velocity: 127
50760 
Channel: 14 Note ON:  G#1 key: 32 velocity: 127
50789 
Channel: 14 Note ON:  C#2 key: 37 velocity: 0
50880 
Channel: 14 Note ON:  F#1 key: 30 velocity: 127
50913 
Channel: 14 Note ON:  G#1 key: 32 velocity: 0
50953 
Channel: 14 Note ON:  F#1 key: 30 velocity: 0
51000 
Channel: 14 Note ON:  F#1 key: 30 velocity: 127
51071 
Channel: 14 Note ON:  F#1 key: 30 velocity: 0
51120 
Channel: 14 Note ON:  F#1 key: 30 velocity: 127
51197 
Channel: 14 Note ON:  F#1 key: 30 velocity: 0
51240 
Channel: 14 Note ON:  F#1 key: 30 velocity: 127
51281 
Channel: 14 Note ON:  F#1 key: 30 velocity: 0
51360 
Channel: 14 Note ON:  F#1 key: 30 velocity: 127
51414 
Channel: 14 Note ON:  F#1 key: 30 velocity: 0
51480 
Channel: 14 Note ON:  F#1 key: 30 velocity: 127
51525 
Channel: 14 Note ON:  F#1 key: 30 velocity: 0
51600 
Channel: 14 Note ON:  F#1 key: 30 velocity: 127
51658 
Channel: 14 Note ON:  F#1 key: 30 velocity: 0
51720 
Channel: 14 Note ON:  F#1 key: 30 velocity: 127
51756 
Channel: 14 Note ON:  F#1 key: 30 velocity: 0
51840 
Channel: 14 Note ON:  F#1 key: 30 velocity: 127
51950 
Channel: 14 Note ON:  F#1 key: 30 velocity: 0
51960 
Channel: 14 Note ON:  F#2 key: 42 velocity: 127
52080 
Channel: 14 Note ON:  C#2 key: 37 velocity: 127
52114 
Channel: 14 Note ON:  F#2 key: 42 velocity: 0
52200 
Channel: 14 Note ON:  A#1 key: 34 velocity: 127
52208 
Channel: 14 Note ON:  C#2 key: 37 velocity: 0
52316 
Channel: 14 Note ON:  A#1 key: 34 velocity: 0
52320 
Channel: 14 Note ON:  F#2 key: 42 velocity: 127
52440 
Channel: 14 Note ON:  F#1 key: 30 velocity: 127
52447 
Channel: 14 Note ON:  F#2 key: 42 velocity: 0
52560 
Channel: 14 Note ON:  C#2 key: 37 velocity: 127
52571 
Channel: 14 Note ON:  F#1 key: 30 velocity: 0
52680 
Channel: 14 Note ON:  F#2 key: 42 velocity: 127
52701 
Channel: 14 Note ON:  C#2 key: 37 velocity: 0
52795 
Channel: 14 Note ON:  F#2 key: 42 velocity: 0
52800 
Channel: 14 Note ON:  G#1 key: 32 velocity: 127
53160 
Channel: 14 Note ON:  C#1 key: 25 velocity: 127
53166 
Channel: 14 Note ON:  G#1 key: 32 velocity: 0
53759 
Channel: 14 Note ON:  C#1 key: 25 velocity: 0
53760 
Channel: 14 Note ON:  G#1 key: 32 velocity: 127
53971 
Channel: 14 Note ON:  G#1 key: 32 velocity: 0
54000 
Channel: 14 Note ON:  C#1 key: 25 velocity: 127
54120 
Channel: 14 Note ON:  F#1 key: 30 velocity: 127
54149 
Channel: 14 Note ON:  C#1 key: 25 velocity: 0
54720 
Channel: 14 Note ON:  F#1 key: 30 velocity: 0
54720 
Channel: 14 Note ON:  C#1 key: 25 velocity: 127
55320 
Channel: 14 Note ON:  D#1 key: 27 velocity: 127
55323 
Channel: 14 Note ON:  C#1 key: 25 velocity: 0
55427 
Channel: 14 Note ON:  D#1 key: 27 velocity: 0
55440 
Channel: 14 Note ON:  F1 key: 29 velocity: 127
55560 
Channel: 14 Note ON:  G#1 key: 32 velocity: 127
55571 
Channel: 14 Note ON:  F1 key: 29 velocity: 0
56222 
Channel: 14 Note ON:  G#1 key: 32 velocity: 0
56280 
Channel: 14 Note ON:  A#1 key: 34 velocity: 127
56400 
Channel: 14 Note ON:  C2 key: 36 velocity: 127
56405 
Channel: 14 Note ON:  A#1 key: 34 velocity: 0
56520 
Channel: 14 Note ON:  A#1 key: 34 velocity: 127
56534 
Channel: 14 Note ON:  C2 key: 36 velocity: 0
57240 
Channel: 14 Note ON:  C2 key: 36 velocity: 127
57250 
Channel: 14 Note ON:  A#1 key: 34 velocity: 0
57357 
Channel: 14 Note ON:  C2 key: 36 velocity: 0
57360 
Channel: 14 Note ON:  C#2 key: 37 velocity: 127
57480 
Channel: 14 Note ON:  F#1 key: 30 velocity: 127
57482 
Channel: 14 Note ON:  C#2 key: 37 velocity: 0
58200 
Channel: 14 Note ON:  C2 key: 36 velocity: 127
58320 
Channel: 14 Note ON:  C#2 key: 37 velocity: 127
58326 
Channel: 14 Note ON:  C2 key: 36 velocity: 0
58326 
Channel: 14 Note ON:  F#1 key: 30 velocity: 0
58560 
Channel: 14 Note ON:  C#2 key: 37 velocity: 0
58560 
Channel: 14 Note ON:  C#1 key: 25 velocity: 127
59160 
Channel: 14 Note ON:  D#1 key: 27 velocity: 127
59163 
Channel: 14 Note ON:  C#1 key: 25 velocity: 0
59267 
Channel: 14 Note ON:  D#1 key: 27 velocity: 0
59280 
Channel: 14 Note ON:  F1 key: 29 velocity: 127
59400 
Channel: 14 Note ON:  G#1 key: 32 velocity: 127
59411 
Channel: 14 Note ON:  F1 key: 29 velocity: 0
60062 
Channel: 14 Note ON:  G#1 key: 32 velocity: 0
60120 
Channel: 14 Note ON:  A#1 key: 34 velocity: 127
60240 
Channel: 14 Note ON:  C2 key: 36 velocity: 127
60245 
Channel: 14 Note ON:  A#1 key: 34 velocity: 0
60360 
Channel: 14 Note ON:  A#1 key: 34 velocity: 127
60374 
Channel: 14 Note ON:  C2 key: 36 velocity: 0
61080 
Channel: 14 Note ON:  C2 key: 36 velocity: 127
61090 
Channel: 14 Note ON:  A#1 key: 34 velocity: 0
61197 
Channel: 14 Note ON:  C2 key: 36 velocity: 0
61200 
Channel: 14 Note ON:  C#2 key: 37 velocity: 127
61320 
Channel: 14 Note ON:  F#1 key: 30 velocity: 127
61322 
Channel: 14 Note ON:  C#2 key: 37 velocity: 0
62040 
Channel: 14 Note ON:  C2 key: 36 velocity: 127
62160 
Channel: 14 Note ON:  C#2 key: 37 velocity: 127
62166 
Channel: 14 Note ON:  C2 key: 36 velocity: 0
62166 
Channel: 14 Note ON:  F#1 key: 30 velocity: 0
62400 
Channel: 14 Note ON:  C#1 key: 25 velocity: 127
62409 
Channel: 14 Note ON:  C#2 key: 37 velocity: 0
62833 
Channel: 14 Note ON:  C#1 key: 25 velocity: 0
62880 
Channel: 14 Note ON:  C#1 key: 25 velocity: 127
62999 
Channel: 14 Note ON:  C#1 key: 25 velocity: 0
63000 
Channel: 14 Note ON:  D#1 key: 27 velocity: 127
63116 
Channel: 14 Note ON:  D#1 key: 27 velocity: 0
63120 
Channel: 14 Note ON:  F1 key: 29 velocity: 127
63239 
Channel: 14 Note ON:  F1 key: 29 velocity: 0
63240 
Channel: 14 Note ON:  G#1 key: 32 velocity: 127
63853 
Channel: 14 Note ON:  G#1 key: 32 velocity: 0
63960 
Channel: 14 Note ON:  A#1 key: 34 velocity: 127
64071 
Channel: 14 Note ON:  A#1 key: 34 velocity: 0
64080 
Channel: 14 Note ON:  C2 key: 36 velocity: 127
64195 
Channel: 14 Note ON:  C2 key: 36 velocity: 0
64200 
Channel: 14 Note ON:  F1 key: 29 velocity: 127
64738 
Channel: 14 Note ON:  F1 key: 29 velocity: 0
64800 
Channel: 14 Note ON:  F1 key: 29 velocity: 127
64908 
Channel: 14 Note ON:  F1 key: 29 velocity: 0
64920 
Channel: 14 Note ON:  C#2 key: 37 velocity: 127
65040 
Channel: 14 Note ON:  F1 key: 29 velocity: 127
65054 
Channel: 14 Note ON:  C#2 key: 37 velocity: 0
65144 
Channel: 14 Note ON:  F1 key: 29 velocity: 0
65160 
Channel: 14 Note ON:  F#1 key: 30 velocity: 127
65880 
Channel: 14 Note ON:  C2 key: 36 velocity: 127
65921 
Channel: 14 Note ON:  F#1 key: 30 velocity: 0
66000 
Channel: 14 Note ON:  C#2 key: 37 velocity: 127
66004 
Channel: 14 Note ON:  C2 key: 36 velocity: 0
66215 
Channel: 14 Note ON:  C#2 key: 37 velocity: 0
66240 
Channel: 14 Note ON:  C#1 key: 25 velocity: 127
66840 
Channel: 14 Note ON:  D#1 key: 27 velocity: 127
66843 
Channel: 14 Note ON:  C#1 key: 25 velocity: 0
66947 
Channel: 14 Note ON:  D#1 key: 27 velocity: 0
66960 
Channel: 14 Note ON:  F1 key: 29 velocity: 127
67080 
Channel: 14 Note ON:  G#1 key: 32 velocity: 127
67091 
Channel: 14 Note ON:  F1 key: 29 velocity: 0
67742 
Channel: 14 Note ON:  G#1 key: 32 velocity: 0
67800 
Channel: 14 Note ON:  A#1 key: 34 velocity: 127
67920 
Channel: 14 Note ON:  C2 key: 36 velocity: 127
67925 
Channel: 14 Note ON:  A#1 key: 34 velocity: 0
68040 
Channel: 14 Note ON:  A#1 key: 34 velocity: 127
68054 
Channel: 14 Note ON:  C2 key: 36 velocity: 0
68760 
Channel: 14 Note ON:  C2 key: 36 velocity: 127
68770 
Channel: 14 Note ON:  A#1 key: 34 velocity: 0
68877 
Channel: 14 Note ON:  C2 key: 36 velocity: 0
68880 
Channel: 14 Note ON:  C#2 key: 37 velocity: 127
69000 
Channel: 14 Note ON:  F#1 key: 30 velocity: 127
69002 
Channel: 14 Note ON:  C#2 key: 37 velocity: 0
69720 
Channel: 14 Note ON:  C2 key: 36 velocity: 127
69840 
Channel: 14 Note ON:  C#2 key: 37 velocity: 127
69846 
Channel: 14 Note ON:  C2 key: 36 velocity: 0
69846 
Channel: 14 Note ON:  F#1 key: 30 velocity: 0
70080 
Channel: 14 Note ON:  C#1 key: 25 velocity: 127
70089 
Channel: 14 Note ON:  C#2 key: 37 velocity: 0
70513 
Channel: 14 Note ON:  C#1 key: 25 velocity: 0
70560 
Channel: 14 Note ON:  C#1 key: 25 velocity: 127
70679 
Channel: 14 Note ON:  C#1 key: 25 velocity: 0
70680 
Channel: 14 Note ON:  D#1 key: 27 velocity: 127
70796 
Channel: 14 Note ON:  D#1 key: 27 velocity: 0
70800 
Channel: 14 Note ON:  F1 key: 29 velocity: 127
70919 
Channel: 14 Note ON:  F1 key: 29 velocity: 0
70920 
Channel: 14 Note ON:  G#1 key: 32 velocity: 127
71533 
Channel: 14 Note ON:  G#1 key: 32 velocity: 0
71640 
Channel: 14 Note ON:  A#1 key: 34 velocity: 127
71751 
Channel: 14 Note ON:  A#1 key: 34 velocity: 0
71760 
Channel: 14 Note ON:  C2 key: 36 velocity: 127
71875 
Channel: 14 Note ON:  C2 key: 36 velocity: 0
71880 
Channel: 14 Note ON:  F1 key: 29 velocity: 127
72418 
Channel: 14 Note ON:  F1 key: 29 velocity: 0
72480 
Channel: 14 Note ON:  F1 key: 29 velocity: 127
72588 
Channel: 14 Note ON:  F1 key: 29 velocity: 0
72600 
Channel: 14 Note ON:  C#2 key: 37 velocity: 127
72720 
Channel: 14 Note ON:  F1 key: 29 velocity: 127
72734 
Channel: 14 Note ON:  C#2 key: 37 velocity: 0
72824 
Channel: 14 Note ON:  F1 key: 29 velocity: 0
72840 
Channel: 14 Note ON:  F#1 key: 30 velocity: 127
73560 
Channel: 14 Note ON:  C2 key: 36 velocity: 127
73601 
Channel: 14 Note ON:  F#1 key: 30 velocity: 0
73680 
Channel: 14 Note ON:  C#2 key: 37 velocity: 127
73684 
Channel: 14 Note ON:  C2 key: 36 velocity: 0
73895 
Channel: 14 Note ON:  C#2 key: 37 velocity: 0
73920 
Channel: 14 Note ON:  F#1 key: 30 velocity: 127
73997 
Channel: 14 Note ON:  F#1 key: 30 velocity: 0
74040 
Channel: 14 Note ON:  F#1 key: 30 velocity: 127
74100 
Channel: 14 Note ON:  F#1 key: 30 velocity: 0
74160 
Channel: 14 Note ON:  F#1 key: 30 velocity: 127
74244 
Channel: 14 Note ON:  F#1 key: 30 velocity: 0
74280 
Channel: 14 Note ON:  F#1 key: 30 velocity: 127
74338 
Channel: 14 Note ON:  F#1 key: 30 velocity: 0
74400 
Channel: 14 Note ON:  F#1 key: 30 velocity: 127
74460 
Channel: 14 Note ON:  F#1 key: 30 velocity: 0
74520 
Channel: 14 Note ON:  F#1 key: 30 velocity: 127
74567 
Channel: 14 Note ON:  F#1 key: 30 velocity: 0
74640 
Channel: 14 Note ON:  F#1 key: 30 velocity: 127
74704 
Channel: 14 Note ON:  F#1 key: 30 velocity: 0
74760 
Channel: 14 Note ON:  F#1 key: 30 velocity: 127
74816 
Channel: 14 Note ON:  F#1 key: 30 velocity: 0
74880 
Channel: 14 Note ON:  F#1 key: 30 velocity: 127
74964 
Channel: 14 Note ON:  F#1 key: 30 velocity: 0
75000 
Channel: 14 Note ON:  F#2 key: 42 velocity: 127
75120 
Channel: 14 Note ON:  F#1 key: 30 velocity: 127
75132 
Channel: 14 Note ON:  F#2 key: 42 velocity: 0
75240 
Channel: 14 Note ON:  C#2 key: 37 velocity: 127
75297 
Channel: 14 Note ON:  F#1 key: 30 velocity: 0
75354 
Channel: 14 Note ON:  C#2 key: 37 velocity: 0
75360 
Channel: 14 Note ON:  F#2 key: 42 velocity: 127
75467 
Channel: 14 Note ON:  F#2 key: 42 velocity: 0
75480 
Channel: 14 Note ON:  C#2 key: 37 velocity: 127
75596 
Channel: 14 Note ON:  C#2 key: 37 velocity: 0
75600 
Channel: 14 Note ON:  F2 key: 41 velocity: 127
75720 
Channel: 14 Note ON:  C#2 key: 37 velocity: 127
75724 
Channel: 14 Note ON:  F2 key: 41 velocity: 0
75784 
Channel: 14 Note ON:  C#2 key: 37 velocity: 0
75840 
Channel: 14 Note ON:  C#1 key: 25 velocity: 127
75922 
Channel: 14 Note ON:  C#1 key: 25 velocity: 0
75960 
Channel: 14 Note ON:  C#1 key: 25 velocity: 127
76022 
Channel: 14 Note ON:  C#1 key: 25 velocity: 0
76080 
Channel: 14 Note ON:  C#1 key: 25 velocity: 127
76152 
Channel: 14 Note ON:  C#1 key: 25 velocity: 0
76200 
Channel: 14 Note ON:  C#1 key: 25 velocity: 127
76264 
Channel: 14 Note ON:  C#1 key: 25 velocity: 0
76320 
Channel: 14 Note ON:  C#1 key: 25 velocity: 127
76397 
Channel: 14 Note ON:  C#1 key: 25 velocity: 0
76440 
Channel: 14 Note ON:  C#1 key: 25 velocity: 127
76493 
Channel: 14 Note ON:  C#1 key: 25 velocity: 0
76560 
Channel: 14 Note ON:  C#1 key: 25 velocity: 127
76623 
Channel: 14 Note ON:  C#1 key: 25 velocity: 0
76680 
Channel: 14 Note ON:  C#1 key: 25 velocity: 127
76728 
Channel: 14 Note ON:  C#1 key: 25 velocity: 0
76800 
Channel: 14 Note ON:  C#1 key: 25 velocity: 127
76878 
Channel: 14 Note ON:  C#1 key: 25 velocity: 0
76920 
Channel: 14 Note ON:  C#2 key: 37 velocity: 127
77040 
Channel: 14 Note ON:  C2 key: 36 velocity: 127
77059 
Channel: 14 Note ON:  C#2 key: 37 velocity: 0
77160 
Channel: 14 Note ON:  G#1 key: 32 velocity: 127
77161 
Channel: 14 Note ON:  C2 key: 36 velocity: 0
77264 
Channel: 14 Note ON:  G#1 key: 32 velocity: 0
77280 
Channel: 14 Note ON:  C#2 key: 37 velocity: 127
77400 
Channel: 14 Note ON:  G#1 key: 32 velocity: 127
77409 
Channel: 14 Note ON:  C#2 key: 37 velocity: 0
77520 
Channel: 14 Note ON:  C2 key: 36 velocity: 127
77524 
Channel: 14 Note ON:  G#1 key: 32 velocity: 0
77639 
Channel: 14 Note ON:  C2 key: 36 velocity: 0
77640 
Channel: 14 Note ON:  C#2 key: 37 velocity: 127
77760 
Channel: 14 Note ON:  F#1 key: 30 velocity: 127
77771 
Channel: 14 Note ON:  C#2 key: 37 velocity: 0
77841 
Channel: 14 Note ON:  F#1 key: 30 velocity: 0
77880 
Channel: 14 Note ON:  F#1 key: 30 velocity: 127
77928 
Channel: 14 Note ON:  F#1 key: 30 velocity: 0
78000 
Channel: 14 Note ON:  F#1 key: 30 velocity: 127
78077 
Channel: 14 Note ON:  F#1 key: 30 velocity: 0
78120 
Channel: 14 Note ON:  F#1 key: 30 velocity: 127
78171 
Channel: 14 Note ON:  F#1 key: 30 velocity: 0
78240 
Channel: 14 Note ON:  F#1 key: 30 velocity: 127
78307 
Channel: 14 Note ON:  F#1 key: 30 velocity: 0
78360 
Channel: 14 Note ON:  F#1 key: 30 velocity: 127
78408 
Channel: 14 Note ON:  F#1 key: 30 velocity: 0
78480 
Channel: 14 Note ON:  F#1 key: 30 velocity: 127
78534 
Channel: 14 Note ON:  F#1 key: 30 velocity: 0
78600 
Channel: 14 Note ON:  F#1 key: 30 velocity: 127
78653 
Channel: 14 Note ON:  F#1 key: 30 velocity: 0
78720 
Channel: 14 Note ON:  F#1 key: 30 velocity: 127
78811 
Channel: 14 Note ON:  F#1 key: 30 velocity: 0
78840 
Channel: 14 Note ON:  F#2 key: 42 velocity: 127
78960 
Channel: 14 Note ON:  C#2 key: 37 velocity: 127
78991 
Channel: 14 Note ON:  F#2 key: 42 velocity: 0
79080 
Channel: 14 Note ON:  F#2 key: 42 velocity: 127
79081 
Channel: 14 Note ON:  C#2 key: 37 velocity: 0
79198 
Channel: 14 Note ON:  F#2 key: 42 velocity: 0
79200 
Channel: 14 Note ON:  C#2 key: 37 velocity: 127
79320 
Channel: 14 Note ON:  F2 key: 41 velocity: 127
79322 
Channel: 14 Note ON:  C#2 key: 37 velocity: 0
79440 
Channel: 14 Note ON:  C#2 key: 37 velocity: 127
79460 
Channel: 14 Note ON:  F2 key: 41 velocity: 0
79560 
Channel: 14 Note ON:  F#1 key: 30 velocity: 127
79590 
Channel: 14 Note ON:  C#2 key: 37 velocity: 0
79626 
Channel: 14 Note ON:  F#1 key: 30 velocity: 0
79680 
Channel: 14 Note ON:  C#1 key: 25 velocity: 127
79851 
Channel: 14 Note ON:  C#1 key: 25 velocity: 0
79920 
Channel: 14 Note ON:  C#1 key: 25 velocity: 127
79992 
Channel: 14 Note ON:  C#1 key: 25 velocity: 0
80040 
Channel: 14 Note ON:  C#1 key: 25 velocity: 127
80085 
Channel: 14 Note ON:  C#1 key: 25 velocity: 0
80160 
Channel: 14 Note ON:  C#1 key: 25 velocity: 127
80224 
Channel: 14 Note ON:  C#1 key: 25 velocity: 0
80280 
Channel: 14 Note ON:  C#1 key: 25 velocity: 127
80325 
Channel: 14 Note ON:  C#1 key: 25 velocity: 0
80400 
Channel: 14 Note ON:  C#1 key: 25 velocity: 127
80458 
Channel: 14 Note ON:  C#1 key: 25 velocity: 0
80520 
Channel: 14 Note ON:  C#1 key: 25 velocity: 127
80562 
Channel: 14 Note ON:  C#1 key: 25 velocity: 0
80640 
Channel: 14 Note ON:  C#1 key: 25 velocity: 127
80721 
Channel: 14 Note ON:  C#1 key: 25 velocity: 0
80760 
Channel: 14 Note ON:  C#2 key: 37 velocity: 127
80880 
Channel: 14 Note ON:  C2 key: 36 velocity: 127
80886 
Channel: 14 Note ON:  C#2 key: 37 velocity: 0
80990 
Channel: 14 Note ON:  C2 key: 36 velocity: 0
81000 
Channel: 14 Note ON:  G#1 key: 32 velocity: 127
81108 
Channel: 14 Note ON:  G#1 key: 32 velocity: 0
81120 
Channel: 14 Note ON:  C#2 key: 37 velocity: 127
81240 
Channel: 14 Note ON:  C#2 key: 37 velocity: 0
81240 
Channel: 14 Note ON:  G#1 key: 32 velocity: 127
81360 
Channel: 14 Note ON:  G#1 key: 32 velocity: 0
81360 
Channel: 14 Note ON:  C2 key: 36 velocity: 127
81480 
Channel: 14 Note ON:  C2 key: 36 velocity: 0
81480 
Channel: 14 Note ON:  C#2 key: 37 velocity: 127
81600 
Channel: 14 Note ON:  F#1 key: 30 velocity: 127
81607 
Channel: 14 Note ON:  C#2 key: 37 velocity: 0
81675 
Channel: 14 Note ON:  F#1 key: 30 velocity: 0
81720 
Channel: 14 Note ON:  F#1 key: 30 velocity: 127
81767 
Channel: 14 Note ON:  F#1 key: 30 velocity: 0
81840 
Channel: 14 Note ON:  F#1 key: 30 velocity: 127
81901 
Channel: 14 Note ON:  F#1 key: 30 velocity: 0
81960 
Channel: 14 Note ON:  F#1 key: 30 velocity: 127
82014 
Channel: 14 Note ON:  F#1 key: 30 velocity: 0
82080 
Channel: 14 Note ON:  F#1 key: 30 velocity: 127
82131 
Channel: 14 Note ON:  F#1 key: 30 velocity: 0
82200 
Channel: 14 Note ON:  F#1 key: 30 velocity: 127
82243 
Channel: 14 Note ON:  F#1 key: 30 velocity: 0
82320 
Channel: 14 Note ON:  F#1 key: 30 velocity: 127
82379 
Channel: 14 Note ON:  F#1 key: 30 velocity: 0
82440 
Channel: 14 Note ON:  F#1 key: 30 velocity: 127
82486 
Channel: 14 Note ON:  F#1 key: 30 velocity: 0
82560 
Channel: 14 Note ON:  F#1 key: 30 velocity: 127
82660 
Channel: 14 Note ON:  F#1 key: 30 velocity: 0
82680 
Channel: 14 Note ON:  F#2 key: 42 velocity: 127
82800 
Channel: 14 Note ON:  C#2 key: 37 velocity: 127
82835 
Channel: 14 Note ON:  F#2 key: 42 velocity: 0
82920 
Channel: 14 Note ON:  F#1 key: 30 velocity: 127
82934 
Channel: 14 Note ON:  C#2 key: 37 velocity: 0
83038 
Channel: 14 Note ON:  F#1 key: 30 velocity: 0
83040 
Channel: 14 Note ON:  F#2 key: 42 velocity: 124
83159 
Channel: 14 Note ON:  F#2 key: 42 velocity: 0
83160 
Channel: 14 Note ON:  F#1 key: 30 velocity: 127
83280 
Channel: 14 Note ON:  C#2 key: 37 velocity: 127
83292 
Channel: 14 Note ON:  F#1 key: 30 velocity: 0
83400 
Channel: 14 Note ON:  F#2 key: 42 velocity: 127
83413 
Channel: 14 Note ON:  C#2 key: 37 velocity: 0
83459 
Channel: 14 Note ON:  F#2 key: 42 velocity: 0
83520 
Channel: 14 Note ON:  C#1 key: 25 velocity: 127
83593 
Channel: 14 Note ON:  C#1 key: 25 velocity: 0
83640 
Channel: 14 Note ON:  C#1 key: 25 velocity: 127
83712 
Channel: 14 Note ON:  C#1 key: 25 velocity: 0
83760 
Channel: 14 Note ON:  C#1 key: 25 velocity: 127
83835 
Channel: 14 Note ON:  C#1 key: 25 velocity: 0
83880 
Channel: 14 Note ON:  C#1 key: 25 velocity: 127
83917 
Channel: 14 Note ON:  C#1 key: 25 velocity: 0
84000 
Channel: 14 Note ON:  C#1 key: 25 velocity: 127
84070 
Channel: 14 Note ON:  C#1 key: 25 velocity: 0
84120 
Channel: 14 Note ON:  C#1 key: 25 velocity: 127
84178 
Channel: 14 Note ON:  C#1 key: 25 velocity: 0
84240 
Channel: 14 Note ON:  C#1 key: 25 velocity: 127
84294 
Channel: 14 Note ON:  C#1 key: 25 velocity: 0
84360 
Channel: 14 Note ON:  C#1 key: 25 velocity: 127
84406 
Channel: 14 Note ON:  C#1 key: 25 velocity: 0
84480 
Channel: 14 Note ON:  C#1 key: 25 velocity: 127
84570 
Channel: 14 Note ON:  C#1 key: 25 velocity: 0
84600 
Channel: 14 Note ON:  C#2 key: 37 velocity: 127
84720 
Channel: 14 Note ON:  C2 key: 36 velocity: 127
84727 
Channel: 14 Note ON:  C#2 key: 37 velocity: 0
84840 
Channel: 14 Note ON:  C#2 key: 37 velocity: 127
84851 
Channel: 14 Note ON:  C2 key: 36 velocity: 0
84953 
Channel: 14 Note ON:  C#2 key: 37 velocity: 0
84960 
Channel: 14 Note ON:  G#1 key: 32 velocity: 127
85080 
Channel: 14 Note ON:  C2 key: 36 velocity: 127
85108 
Channel: 14 Note ON:  G#1 key: 32 velocity: 0
85191 
Channel: 14 Note ON:  C2 key: 36 velocity: 0
85200 
Channel: 14 Note ON:  C#2 key: 37 velocity: 127
85320 
Channel: 14 Note ON:  G#1 key: 32 velocity: 127
85349 
Channel: 14 Note ON:  C#2 key: 37 velocity: 0
85440 
Channel: 14 Note ON:  F#1 key: 30 velocity: 127
85473 
Channel: 14 Note ON:  G#1 key: 32 velocity: 0
85513 
Channel: 14 Note ON:  F#1 key: 30 velocity: 0
85560 
Channel: 14 Note ON:  F#1 key: 30 velocity: 127
85631 
Channel: 14 Note ON:  F#1 key: 30 velocity: 0
85680 
Channel: 14 Note ON:  F#1 key: 30 velocity: 127
85757 
Channel: 14 Note ON:  F#1 key: 30 velocity: 0
85800 
Channel: 14 Note ON:  F#1 key: 30 velocity: 127
85841 
Channel: 14 Note ON:  F#1 key: 30 velocity: 0
85920 
Channel: 14 Note ON:  F#1 key: 30 velocity: 127
85974 
Channel: 14 Note ON:  F#1 key: 30 velocity: 0
86040 
Channel: 14 Note ON:  F#1 key: 30 velocity: 127
86085 
Channel: 14 Note ON:  F#1 key: 30 velocity: 0
86160 
Channel: 14 Note ON:  F#1 key: 30 velocity: 127
86218 
Channel: 14 Note ON:  F#1 key: 30 velocity: 0
86280 
Channel: 14 Note ON:  F#1 key: 30 velocity: 127
86316 
Channel: 14 Note ON:  F#1 key: 30 velocity: 0
86400 
Channel: 14 Note ON:  F#1 key: 30 velocity: 127
86510 
Channel: 14 Note ON:  F#1 key: 30 velocity: 0
86520 
Channel: 14 Note ON:  F#2 key: 42 velocity: 127
86640 
Channel: 14 Note ON:  C#2 key: 37 velocity: 127
86674 
Channel: 14 Note ON:  F#2 key: 42 velocity: 0
86760 
Channel: 14 Note ON:  A#1 key: 34 velocity: 127
86768 
Channel: 14 Note ON:  C#2 key: 37 velocity: 0
86876 
Channel: 14 Note ON:  A#1 key: 34 velocity: 0
86880 
Channel: 14 Note ON:  F#2 key: 42 velocity: 127
87000 
Channel: 14 Note ON:  F#1 key: 30 velocity: 127
87007 
Channel: 14 Note ON:  F#2 key: 42 velocity: 0
87120 
Channel: 14 Note ON:  C#2 key: 37 velocity: 127
87131 
Channel: 14 Note ON:  F#1 key: 30 velocity: 0
87240 
Channel: 14 Note ON:  F#2 key: 42 velocity: 127
87261 
Channel: 14 Note ON:  C#2 key: 37 velocity: 0
87355 
Channel: 14 Note ON:  F#2 key: 42 velocity: 0
87360 
Channel: 14 Note ON:  G#1 key: 32 velocity: 127
87720 
Channel: 14 Note ON:  C#1 key: 25 velocity: 127
87726 
Channel: 14 Note ON:  G#1 key: 32 velocity: 0
88319 
Channel: 14 Note ON:  C#1 key: 25 velocity: 0
88320 
Channel: 14 Note ON:  G#1 key: 32 velocity: 127
88531 
Channel: 14 Note ON:  G#1 key: 32 velocity: 0
88560 
Channel: 14 Note ON:  C#1 key: 25 velocity: 127
88680 
Channel: 14 Note ON:  F#1 key: 30 velocity: 127
88709 
Channel: 14 Note ON:  C#1 key: 25 velocity: 0
89280 
Channel: 14 Note ON:  F#1 key: 30 velocity: 0
89280 
Channel: 14 Note ON:  C#1 key: 25 velocity: 127
89880 
Channel: 14 Note ON:  D#1 key: 27 velocity: 127
89883 
Channel: 14 Note ON:  C#1 key: 25 velocity: 0
89987 
Channel: 14 Note ON:  D#1 key: 27 velocity: 0
90000 
Channel: 14 Note ON:  F1 key: 29 velocity: 127
90120 
Channel: 14 Note ON:  G#1 key: 32 velocity: 127
90131 
Channel: 14 Note ON:  F1 key: 29 velocity: 0
90782 
Channel: 14 Note ON:  G#1 key: 32 velocity: 0
90840 
Channel: 14 Note ON:  A#1 key: 34 velocity: 127
90960 
Channel: 14 Note ON:  C2 key: 36 velocity: 127
90965 
Channel: 14 Note ON:  A#1 key: 34 velocity: 0
91080 
Channel: 14 Note ON:  A#1 key: 34 velocity: 127
91094 
Channel: 14 Note ON:  C2 key: 36 velocity: 0
91800 
Channel: 14 Note ON:  C2 key: 36 velocity: 127
91810 
Channel: 14 Note ON:  A#1 key: 34 velocity: 0
91917 
Channel: 14 Note ON:  C2 key: 36 velocity: 0
91920 
Channel: 14 Note ON:  C#2 key: 37 velocity: 127
92040 
Channel: 14 Note ON:  F#1 key: 30 velocity: 127
92042 
Channel: 14 Note ON:  C#2 key: 37 velocity: 0
92760 
Channel: 14 Note ON:  C2 key: 36 velocity: 127
92880 
Channel: 14 Note ON:  C#2 key: 37 velocity: 127
92886 
Channel: 14 Note ON:  C2 key: 36 velocity: 0
92886 
Channel: 14 Note ON:  F#1 key: 30 velocity: 0
93120 
Channel: 14 Note ON:  C#1 key: 25 velocity: 127
93129 
Channel: 14 Note ON:  C#2 key: 37 velocity: 0
93553 
Channel: 14 Note ON:  C#1 key: 25 velocity: 0
93600 
Channel: 14 Note ON:  C#1 key: 25 velocity: 127
93719 
Channel: 14 Note ON:  C#1 key: 25 velocity: 0
93720 
Channel: 14 Note ON:  D#1 key: 27 velocity: 127
93836 
Channel: 14 Note ON:  D#1 key: 27 velocity: 0
93840 
Channel: 14 Note ON:  F1 key: 29 velocity: 127
93959 
Channel: 14 Note ON:  F1 key: 29 velocity: 0
93960 
Channel: 14 Note ON:  G#1 key: 32 velocity: 127
94573 
Channel: 14 Note ON:  G#1 key: 32 velocity: 0
94680 
Channel: 14 Note ON:  A#1 key: 34 velocity: 127
94791 
Channel: 14 Note ON:  A#1 key: 34 velocity: 0
94800 
Channel: 14 Note ON:  C2 key: 36 velocity: 127
94915 
Channel: 14 Note ON:  C2 key: 36 velocity: 0
94920 
Channel: 14 Note ON:  F1 key: 29 velocity: 127
95458 
Channel: 14 Note ON:  F1 key: 29 velocity: 0
95520 
Channel: 14 Note ON:  F1 key: 29 velocity: 127
95628 
Channel: 14 Note ON:  F1 key: 29 velocity: 0
95640 
Channel: 14 Note ON:  C#2 key: 37 velocity: 127
95760 
Channel: 14 Note ON:  F1 key: 29 velocity: 127
95774 
Channel: 14 Note ON:  C#2 key: 37 velocity: 0
95864 
Channel: 14 Note ON:  F1 key: 29 velocity: 0
95880 
Channel: 14 Note ON:  F#1 key: 30 velocity: 127
96600 
Channel: 14 Note ON:  C2 key: 36 velocity: 127
96641 
Channel: 14 Note ON:  F#1 key: 30 velocity: 0
96720 
Channel: 14 Note ON:  C#2 key: 37 velocity: 127
96724 
Channel: 14 Note ON:  C2 key: 36 velocity: 0
96935 
Channel: 14 Note ON:  C#2 key: 37 velocity: 0
96960 
Channel: 14 Note ON:  C#1 key: 25 velocity: 127
97560 
Channel: 14 Note ON:  D#1 key: 27 velocity: 127
97563 
Channel: 14 Note ON:  C#1 key: 25 velocity: 0
97667 
Channel: 14 Note ON:  D#1 key: 27 velocity: 0
97680 
Channel: 14 Note ON:  F1 key: 29 velocity: 127
97800 
Channel: 14 Note ON:  G#1 key: 32 velocity: 127
97811 
Channel: 14 Note ON:  F1 key: 29 velocity: 0
98462 
Channel: 14 Note ON:  G#1 key: 32 velocity: 0
98520 
Channel: 14 Note ON:  A#1 key: 34 velocity: 127
98640 
Channel: 14 Note ON:  C2 key: 36 velocity: 127
98645 
Channel: 14 Note ON:  A#1 key: 34 velocity: 0
98760 
Channel: 14 Note ON:  A#1 key: 34 velocity: 127
98774 
Channel: 14 Note ON:  C2 key: 36 velocity: 0
99480 
Channel: 14 Note ON:  C2 key: 36 velocity: 127
99490 
Channel: 14 Note ON:  A#1 key: 34 velocity: 0
99597 
Channel: 14 Note ON:  C2 key: 36 velocity: 0
99600 
Channel: 14 Note ON:  C#2 key: 37 velocity: 127
99720 
Channel: 14 Note ON:  F#1 key: 30 velocity: 127
99722 
Channel: 14 Note ON:  C#2 key: 37 velocity: 0
100440 
Channel: 14 Note ON:  C2 key: 36 velocity: 127
100560 
Channel: 14 Note ON:  C#2 key: 37 velocity: 127
100566 
Channel: 14 Note ON:  C2 key: 36 velocity: 0
100566 
Channel: 14 Note ON:  F#1 key: 30 velocity: 0
100800 
Channel: 14 Note ON:  C#1 key: 25 velocity: 127
100809 
Channel: 14 Note ON:  C#2 key: 37 velocity: 0
101233 
Channel: 14 Note ON:  C#1 key: 25 velocity: 0
101280 
Channel: 14 Note ON:  C#1 key: 25 velocity: 127
101399 
Channel: 14 Note ON:  C#1 key: 25 velocity: 0
101400 
Channel: 14 Note ON:  D#1 key: 27 velocity: 127
101516 
Channel: 14 Note ON:  D#1 key: 27 velocity: 0
101520 
Channel: 14 Note ON:  F1 key: 29 velocity: 127
101639 
Channel: 14 Note ON:  F1 key: 29 velocity: 0
101640 
Channel: 14 Note ON:  G#1 key: 32 velocity: 127
102253 
Channel: 14 Note ON:  G#1 key: 32 velocity: 0
102360 
Channel: 14 Note ON:  A#1 key: 34 velocity: 127
102471 
Channel: 14 Note ON:  A#1 key: 34 velocity: 0
102480 
Channel: 14 Note ON:  C2 key: 36 velocity: 127
102595 
Channel: 14 Note ON:  C2 key: 36 velocity: 0
102600 
Channel: 14 Note ON:  F1 key: 29 velocity: 127
103138 
Channel: 14 Note ON:  F1 key: 29 velocity: 0
103200 
Channel: 14 Note ON:  F1 key: 29 velocity: 127
103308 
Channel: 14 Note ON:  F1 key: 29 velocity: 0
103320 
Channel: 14 Note ON:  C#2 key: 37 velocity: 127
103440 
Channel: 14 Note ON:  F1 key: 29 velocity: 127
103454 
Channel: 14 Note ON:  C#2 key: 37 velocity: 0
103544 
Channel: 14 Note ON:  F1 key: 29 velocity: 0
103560 
Channel: 14 Note ON:  F#1 key: 30 velocity: 127
104280 
Channel: 14 Note ON:  C2 key: 36 velocity: 127
104321 
Channel: 14 Note ON:  F#1 key: 30 velocity: 0
104400 
Channel: 14 Note ON:  C#2 key: 37 velocity: 127
104404 
Channel: 14 Note ON:  C2 key: 36 velocity: 0
104615 
Channel: 14 Note ON:  C#2 key: 37 velocity: 0
104640 
Channel: 14 Note ON:  C#1 key: 25 velocity: 127
105240 
Channel: 14 Note ON:  D#1 key: 27 velocity: 127
105243 
Channel: 14 Note ON:  C#1 key: 25 velocity: 0
105347 
Channel: 14 Note ON:  D#1 key: 27 velocity: 0
105360 
Channel: 14 Note ON:  F1 key: 29 velocity: 127
105480 
Channel: 14 Note ON:  G#1 key: 32 velocity: 127
105491 
Channel: 14 Note ON:  F1 key: 29 velocity: 0
106142 
Channel: 14 Note ON:  G#1 key: 32 velocity: 0
106200 
Channel: 14 Note ON:  A#1 key: 34 velocity: 127
106320 
Channel: 14 Note ON:  C2 key: 36 velocity: 127
106325 
Channel: 14 Note ON:  A#1 key: 34 velocity: 0
106440 
Channel: 14 Note ON:  A#1 key: 34 velocity: 127
106454 
Channel: 14 Note ON:  C2 key: 36 velocity: 0
107160 
Channel: 14 Note ON:  C2 key: 36 velocity: 127
107170 
Channel: 14 Note ON:  A#1 key: 34 velocity: 0
107277 
Channel: 14 Note ON:  C2 key: 36 velocity: 0
107280 
Channel: 14 Note ON:  C#2 key: 37 velocity: 127
107400 
Channel: 14 Note ON:  F#1 key: 30 velocity: 127
107402 
Channel: 14 Note ON:  C#2 key: 37 velocity: 0
108120 
Channel: 14 Note ON:  C2 key: 36 velocity: 127
108240 
Channel: 14 Note ON:  C#2 key: 37 velocity: 127
108246 
Channel: 14 Note ON:  C2 key: 36 velocity: 0
108246 
Channel: 14 Note ON:  F#1 key: 30 velocity: 0
108480 
Channel: 14 Note ON:  C#1 key: 25 velocity: 127
108489 
Channel: 14 Note ON:  C#2 key: 37 velocity: 0
108913 
Channel: 14 Note ON:  C#1 key: 25 velocity: 0
108960 
Channel: 14 Note ON:  C#1 key: 25 velocity: 127
109079 
Channel: 14 Note ON:  C#1 key: 25 velocity: 0
109080 
Channel: 14 Note ON:  D#1 key: 27 velocity: 127
109196 
Channel: 14 Note ON:  D#1 key: 27 velocity: 0
109200 
Channel: 14 Note ON:  F1 key: 29 velocity: 127
109319 
Channel: 14 Note ON:  F1 key: 29 velocity: 0
109320 
Channel: 14 Note ON:  G#1 key: 32 velocity: 127
109933 
Channel: 14 Note ON:  G#1 key: 32 velocity: 0
110040 
Channel: 14 Note ON:  A#1 key: 34 velocity: 127
110151 
Channel: 14 Note ON:  A#1 key: 34 velocity: 0
110160 
Channel: 14 Note ON:  C2 key: 36 velocity: 127
110275 
Channel: 14 Note ON:  C2 key: 36 velocity: 0
110280 
Channel: 14 Note ON:  F1 key: 29 velocity: 127
110818 
Channel: 14 Note ON:  F1 key: 29 velocity: 0
110880 
Channel: 14 Note ON:  F1 key: 29 velocity: 127
110988 
Channel: 14 Note ON:  F1 key: 29 velocity: 0
111000 
Channel: 14 Note ON:  C#2 key: 37 velocity: 127
111120 
Channel: 14 Note ON:  F1 key: 29 velocity: 127
111134 
Channel: 14 Note ON:  C#2 key: 37 velocity: 0
111224 
Channel: 14 Note ON:  F1 key: 29 velocity: 0
111240 
Channel: 14 Note ON:  F#1 key: 30 velocity: 127
111960 
Channel: 14 Note ON:  C2 key: 36 velocity: 127
112001 
Channel: 14 Note ON:  F#1 key: 30 velocity: 0
112080 
Channel: 14 Note ON:  C#2 key: 37 velocity: 127
112084 
Channel: 14 Note ON:  C2 key: 36 velocity: 0
112295 
Channel: 14 Note ON:  C#2 key: 37 velocity: 0
112320 
Channel: 14 Note ON:  C#1 key: 25 velocity: 127
112920 
Channel: 14 Note ON:  D#1 key: 27 velocity: 127
112923 
Channel: 14 Note ON:  C#1 key: 25 velocity: 0
113027 
Channel: 14 Note ON:  D#1 key: 27 velocity: 0
113040 
Channel: 14 Note ON:  F1 key: 29 velocity: 127
113160 
Channel: 14 Note ON:  G#1 key: 32 velocity: 127
113171 
Channel: 14 Note ON:  F1 key: 29 velocity: 0
113822 
Channel: 14 Note ON:  G#1 key: 32 velocity: 0
113880 
Channel: 14 Note ON:  A#1 key: 34 velocity: 127
114000 
Channel: 14 Note ON:  C2 key: 36 velocity: 127
114005 
Channel: 14 Note ON:  A#1 key: 34 velocity: 0
114120 
Channel: 14 Note ON:  A#1 key: 34 velocity: 127
114134 
Channel: 14 Note ON:  C2 key: 36 velocity: 0
114840 
Channel: 14 Note ON:  C2 key: 36 velocity: 127
114850 
Channel: 14 Note ON:  A#1 key: 34 velocity: 0
114957 
Channel: 14 Note ON:  C2 key: 36 velocity: 0
114960 
Channel: 14 Note ON:  C#2 key: 37 velocity: 127
115080 
Channel: 14 Note ON:  F#1 key: 30 velocity: 127
115082 
Channel: 14 Note ON:  C#2 key: 37 velocity: 0
115800 
Channel: 14 Note ON:  C2 key: 36 velocity: 127
115920 
Channel: 14 Note ON:  C#2 key: 37 velocity: 127
115926 
Channel: 14 Note ON:  C2 key: 36 velocity: 0
115926 
Channel: 14 Note ON:  F#1 key: 30 velocity: 0
116160 
Channel: 14 Note ON:  C#1 key: 25 velocity: 127
116169 
Channel: 14 Note ON:  C#2 key: 37 velocity: 0
116593 
Channel: 14 Note ON:  C#1 key: 25 velocity: 0
116640 
Channel: 14 Note ON:  C#1 key: 25 velocity: 127
116759 
Channel: 14 Note ON:  C#1 key: 25 velocity: 0
116760 
Channel: 14 Note ON:  D#1 key: 27 velocity: 127
116876 
Channel: 14 Note ON:  D#1 key: 27 velocity: 0
116880 
Channel: 14 Note ON:  F1 key: 29 velocity: 127
116999 
Channel: 14 Note ON:  F1 key: 29 velocity: 0
117000 
Channel: 14 Note ON:  G#1 key: 32 velocity: 127
117613 
Channel: 14 Note ON:  G#1 key: 32 velocity: 0
117720 
Channel: 14 Note ON:  A#1 key: 34 velocity: 127
117831 
Channel: 14 Note ON:  A#1 key: 34 velocity: 0
117840 
Channel: 14 Note ON:  C2 key: 36 velocity: 127
117955 
Channel: 14 Note ON:  C2 key: 36 velocity: 0
117960 
Channel: 14 Note ON:  F1 key: 29 velocity: 127
118498 
Channel: 14 Note ON:  F1 key: 29 velocity: 0
118560 
Channel: 14 Note ON:  F1 key: 29 velocity: 127
118668 
Channel: 14 Note ON:  F1 key: 29 velocity: 0
118680 
Channel: 14 Note ON:  C#2 key: 37 velocity: 127
118800 
Channel: 14 Note ON:  F1 key: 29 velocity: 127
118814 
Channel: 14 Note ON:  C#2 key: 37 velocity: 0
118904 
Channel: 14 Note ON:  F1 key: 29 velocity: 0
118920 
Channel: 14 Note ON:  F#1 key: 30 velocity: 127
119640 
Channel: 14 Note ON:  C2 key: 36 velocity: 127
119681 
Channel: 14 Note ON:  F#1 key: 30 velocity: 0
119760 
Channel: 14 Note ON:  C#2 key: 37 velocity: 127
119764 
Channel: 14 Note ON:  C2 key: 36 velocity: 0
119975 
Channel: 14 Note ON:  C#2 key: 37 velocity: 0
119975 
WTF is that class javax.sound.midi.Track$ImmutableEndOfTrack


Changing to track 6


0 
WTF is that class javax.sound.midi.MetaMessage
0 
WTF is that class javax.sound.midi.MetaMessage
0 
0 
0 
57720 
Channel: 15 Note ON:  G#3 key: 56 velocity: 127
57828 
Channel: 15 Note ON:  G#3 key: 56 velocity: 0
57960 
Channel: 15 Note ON:  G#4 key: 68 velocity: 127
58090 
Channel: 15 Note ON:  G#4 key: 68 velocity: 0
58200 
Channel: 15 Note ON:  F#4 key: 66 velocity: 127
58378 
Channel: 15 Note ON:  F#4 key: 66 velocity: 0
61560 
Channel: 15 Note ON:  G#3 key: 56 velocity: 127
61669 
Channel: 15 Note ON:  G#3 key: 56 velocity: 0
61800 
Channel: 15 Note ON:  G#4 key: 68 velocity: 127
61934 
Channel: 15 Note ON:  G#4 key: 68 velocity: 0
62040 
Channel: 15 Note ON:  F#4 key: 66 velocity: 127
62195 
Channel: 15 Note ON:  F#4 key: 66 velocity: 0
65400 
Channel: 15 Note ON:  G#3 key: 56 velocity: 127
65510 
Channel: 15 Note ON:  G#3 key: 56 velocity: 0
65640 
Channel: 15 Note ON:  G#4 key: 68 velocity: 127
65780 
Channel: 15 Note ON:  G#4 key: 68 velocity: 0
65880 
Channel: 15 Note ON:  F#4 key: 66 velocity: 127
66023 
Channel: 15 Note ON:  F#4 key: 66 velocity: 0
69240 
Channel: 15 Note ON:  G#3 key: 56 velocity: 127
69349 
Channel: 15 Note ON:  G#3 key: 56 velocity: 0
69480 
Channel: 15 Note ON:  G#4 key: 68 velocity: 127
69614 
Channel: 15 Note ON:  G#4 key: 68 velocity: 0
69720 
Channel: 15 Note ON:  F#4 key: 66 velocity: 127
69875 
Channel: 15 Note ON:  F#4 key: 66 velocity: 0
73080 
Channel: 15 Note ON:  G#3 key: 56 velocity: 115
73190 
Channel: 15 Note ON:  G#3 key: 56 velocity: 0
73320 
Channel: 15 Note ON:  G#4 key: 68 velocity: 127
73460 
Channel: 15 Note ON:  G#4 key: 68 velocity: 0
73560 
Channel: 15 Note ON:  F#4 key: 66 velocity: 127
73703 
Channel: 15 Note ON:  F#4 key: 66 velocity: 0
92280 
Channel: 15 Note ON:  G#3 key: 56 velocity: 127
92388 
Channel: 15 Note ON:  G#3 key: 56 velocity: 0
92520 
Channel: 15 Note ON:  G#4 key: 68 velocity: 127
92650 
Channel: 15 Note ON:  G#4 key: 68 velocity: 0
92760 
Channel: 15 Note ON:  F#4 key: 66 velocity: 127
92938 
Channel: 15 Note ON:  F#4 key: 66 velocity: 0
96120 
Channel: 15 Note ON:  G#3 key: 56 velocity: 127
96223 
Channel: 15 Note ON:  G#3 key: 56 velocity: 0
96360 
Channel: 15 Note ON:  G#4 key: 68 velocity: 127
96492 
Channel: 15 Note ON:  G#4 key: 68 velocity: 0
96600 
Channel: 15 Note ON:  F#4 key: 66 velocity: 127
96766 
Channel: 15 Note ON:  F#4 key: 66 velocity: 0
99960 
Channel: 15 Note ON:  G#3 key: 56 velocity: 127
100069 
Channel: 15 Note ON:  G#3 key: 56 velocity: 0
100200 
Channel: 15 Note ON:  G#4 key: 68 velocity: 127
100334 
Channel: 15 Note ON:  G#4 key: 68 velocity: 0
100440 
Channel: 15 Note ON:  F#4 key: 66 velocity: 127
100595 
Channel: 15 Note ON:  F#4 key: 66 velocity: 0
103800 
Channel: 15 Note ON:  G#3 key: 56 velocity: 127
103910 
Channel: 15 Note ON:  G#3 key: 56 velocity: 0
104040 
Channel: 15 Note ON:  G#4 key: 68 velocity: 127
104180 
Channel: 15 Note ON:  G#4 key: 68 velocity: 0
104280 
Channel: 15 Note ON:  F#4 key: 66 velocity: 127
104423 
Channel: 15 Note ON:  F#4 key: 66 velocity: 0
107640 
Channel: 15 Note ON:  G#3 key: 56 velocity: 127
107748 
Channel: 15 Note ON:  G#3 key: 56 velocity: 0
107880 
Channel: 15 Note ON:  G#4 key: 68 velocity: 127
108010 
Channel: 15 Note ON:  G#4 key: 68 velocity: 0
108120 
Channel: 15 Note ON:  F#4 key: 66 velocity: 127
108298 
Channel: 15 Note ON:  F#4 key: 66 velocity: 0
111480 
Channel: 15 Note ON:  G#3 key: 56 velocity: 127
111583 
Channel: 15 Note ON:  G#3 key: 56 velocity: 0
111720 
Channel: 15 Note ON:  G#4 key: 68 velocity: 127
111852 
Channel: 15 Note ON:  G#4 key: 68 velocity: 0
111960 
Channel: 15 Note ON:  F#4 key: 66 velocity: 127
112126 
Channel: 15 Note ON:  F#4 key: 66 velocity: 0
115320 
Channel: 15 Note ON:  G#3 key: 56 velocity: 127
115429 
Channel: 15 Note ON:  G#3 key: 56 velocity: 0
115560 
Channel: 15 Note ON:  G#4 key: 68 velocity: 127
115694 
Channel: 15 Note ON:  G#4 key: 68 velocity: 0
115800 
Channel: 15 Note ON:  F#4 key: 66 velocity: 127
115955 
Channel: 15 Note ON:  F#4 key: 66 velocity: 0
119160 
Channel: 15 Note ON:  G#3 key: 56 velocity: 127
119270 
Channel: 15 Note ON:  G#3 key: 56 velocity: 0
119400 
Channel: 15 Note ON:  G#4 key: 68 velocity: 127
119540 
Channel: 15 Note ON:  G#4 key: 68 velocity: 0
119640 
Channel: 15 Note ON:  F#4 key: 66 velocity: 127
119783 
Channel: 15 Note ON:  F#4 key: 66 velocity: 0
119783 
WTF is that class javax.sound.midi.Track$ImmutableEndOfTrack


Changing to track 7


0 
WTF is that class javax.sound.midi.MetaMessage
0 
WTF is that class javax.sound.midi.MetaMessage
0 
0 
0 
57720 
Channel: 13 Note ON:  G#3 key: 56 velocity: 127
57828 
Channel: 13 Note ON:  G#3 key: 56 velocity: 0
57960 
Channel: 13 Note ON:  G#4 key: 68 velocity: 127
58090 
Channel: 13 Note ON:  G#4 key: 68 velocity: 0
58200 
Channel: 13 Note ON:  F#4 key: 66 velocity: 127
58378 
Channel: 13 Note ON:  F#4 key: 66 velocity: 0
61560 
Channel: 13 Note ON:  G#3 key: 56 velocity: 127
61669 
Channel: 13 Note ON:  G#3 key: 56 velocity: 0
61800 
Channel: 13 Note ON:  G#4 key: 68 velocity: 127
61934 
Channel: 13 Note ON:  G#4 key: 68 velocity: 0
62040 
Channel: 13 Note ON:  F#4 key: 66 velocity: 127
62195 
Channel: 13 Note ON:  F#4 key: 66 velocity: 0
65400 
Channel: 13 Note ON:  G#3 key: 56 velocity: 127
65510 
Channel: 13 Note ON:  G#3 key: 56 velocity: 0
65640 
Channel: 13 Note ON:  G#4 key: 68 velocity: 127
65780 
Channel: 13 Note ON:  G#4 key: 68 velocity: 0
65880 
Channel: 13 Note ON:  F#4 key: 66 velocity: 127
66023 
Channel: 13 Note ON:  F#4 key: 66 velocity: 0
69240 
Channel: 13 Note ON:  G#3 key: 56 velocity: 127
69349 
Channel: 13 Note ON:  G#3 key: 56 velocity: 0
69480 
Channel: 13 Note ON:  G#4 key: 68 velocity: 127
69614 
Channel: 13 Note ON:  G#4 key: 68 velocity: 0
69720 
Channel: 13 Note ON:  F#4 key: 66 velocity: 127
69875 
Channel: 13 Note ON:  F#4 key: 66 velocity: 0
73080 
Channel: 13 Note ON:  G#3 key: 56 velocity: 127
73190 
Channel: 13 Note ON:  G#3 key: 56 velocity: 0
73320 
Channel: 13 Note ON:  G#4 key: 68 velocity: 127
73460 
Channel: 13 Note ON:  G#4 key: 68 velocity: 0
73560 
Channel: 13 Note ON:  F#4 key: 66 velocity: 127
73703 
Channel: 13 Note ON:  F#4 key: 66 velocity: 0
92280 
Channel: 13 Note ON:  G#3 key: 56 velocity: 127
92388 
Channel: 13 Note ON:  G#3 key: 56 velocity: 0
92520 
Channel: 13 Note ON:  G#4 key: 68 velocity: 127
92650 
Channel: 13 Note ON:  G#4 key: 68 velocity: 0
92760 
Channel: 13 Note ON:  F#4 key: 66 velocity: 127
92938 
Channel: 13 Note ON:  F#4 key: 66 velocity: 0
96120 
Channel: 13 Note ON:  G#3 key: 56 velocity: 127
96223 
Channel: 13 Note ON:  G#3 key: 56 velocity: 0
96360 
Channel: 13 Note ON:  G#4 key: 68 velocity: 127
96492 
Channel: 13 Note ON:  G#4 key: 68 velocity: 0
96600 
Channel: 13 Note ON:  F#4 key: 66 velocity: 127
96766 
Channel: 13 Note ON:  F#4 key: 66 velocity: 0
99960 
Channel: 13 Note ON:  G#3 key: 56 velocity: 127
100069 
Channel: 13 Note ON:  G#3 key: 56 velocity: 0
100200 
Channel: 13 Note ON:  G#4 key: 68 velocity: 127
100334 
Channel: 13 Note ON:  G#4 key: 68 velocity: 0
100440 
Channel: 13 Note ON:  F#4 key: 66 velocity: 127
100595 
Channel: 13 Note ON:  F#4 key: 66 velocity: 0
103800 
Channel: 13 Note ON:  G#3 key: 56 velocity: 127
103910 
Channel: 13 Note ON:  G#3 key: 56 velocity: 0
104040 
Channel: 13 Note ON:  G#4 key: 68 velocity: 127
104180 
Channel: 13 Note ON:  G#4 key: 68 velocity: 0
104280 
Channel: 13 Note ON:  F#4 key: 66 velocity: 127
104423 
Channel: 13 Note ON:  F#4 key: 66 velocity: 0
107640 
Channel: 13 Note ON:  G#3 key: 56 velocity: 127
107748 
Channel: 13 Note ON:  G#3 key: 56 velocity: 0
107880 
Channel: 13 Note ON:  G#4 key: 68 velocity: 127
108010 
Channel: 13 Note ON:  G#4 key: 68 velocity: 0
108120 
Channel: 13 Note ON:  F#4 key: 66 velocity: 127
108298 
Channel: 13 Note ON:  F#4 key: 66 velocity: 0
111480 
Channel: 13 Note ON:  G#3 key: 56 velocity: 127
111583 
Channel: 13 Note ON:  G#3 key: 56 velocity: 0
111720 
Channel: 13 Note ON:  G#4 key: 68 velocity: 127
111852 
Channel: 13 Note ON:  G#4 key: 68 velocity: 0
111960 
Channel: 13 Note ON:  F#4 key: 66 velocity: 127
112126 
Channel: 13 Note ON:  F#4 key: 66 velocity: 0
115320 
Channel: 13 Note ON:  G#3 key: 56 velocity: 127
115429 
Channel: 13 Note ON:  G#3 key: 56 velocity: 0
115560 
Channel: 13 Note ON:  G#4 key: 68 velocity: 127
115694 
Channel: 13 Note ON:  G#4 key: 68 velocity: 0
115800 
Channel: 13 Note ON:  F#4 key: 66 velocity: 127
115955 
Channel: 13 Note ON:  F#4 key: 66 velocity: 0
119160 
Channel: 13 Note ON:  G#3 key: 56 velocity: 127
119270 
Channel: 13 Note ON:  G#3 key: 56 velocity: 0
119400 
Channel: 13 Note ON:  G#4 key: 68 velocity: 127
119540 
Channel: 13 Note ON:  G#4 key: 68 velocity: 0
119640 
Channel: 13 Note ON:  F#4 key: 66 velocity: 127
119783 
Channel: 13 Note ON:  F#4 key: 66 velocity: 0
119783 
WTF is that class javax.sound.midi.Track$ImmutableEndOfTrack


Changing to track 8


0 
WTF is that class javax.sound.midi.MetaMessage
0 
WTF is that class javax.sound.midi.MetaMessage
0 
0 
54960 
Channel: 2 Note ON:  C#6 key: 85 velocity: 127
54960 
Channel: 2 Note ON:  G#5 key: 80 velocity: 127
54960 
Channel: 2 Note ON:  F6 key: 89 velocity: 127
55056 
Channel: 2 Note ON:  F6 key: 89 velocity: 0
55066 
Channel: 2 Note ON:  C#6 key: 85 velocity: 0
55080 
Channel: 2 Note ON:  F6 key: 89 velocity: 127
55080 
Channel: 2 Note ON:  C#6 key: 85 velocity: 127
55161 
Channel: 2 Note ON:  F6 key: 89 velocity: 0
55178 
Channel: 2 Note ON:  C#6 key: 85 velocity: 0
55192 
Channel: 2 Note ON:  G#5 key: 80 velocity: 0
55920 
Channel: 2 Note ON:  G#5 key: 80 velocity: 127
55920 
Channel: 2 Note ON:  D#6 key: 87 velocity: 127
55920 
Channel: 2 Note ON:  C6 key: 84 velocity: 127
56020 
Channel: 2 Note ON:  D#6 key: 87 velocity: 0
56028 
Channel: 2 Note ON:  C6 key: 84 velocity: 0
56040 
Channel: 2 Note ON:  D#6 key: 87 velocity: 127
56040 
Channel: 2 Note ON:  C6 key: 84 velocity: 127
56139 
Channel: 2 Note ON:  G#5 key: 80 velocity: 0
56141 
Channel: 2 Note ON:  C6 key: 84 velocity: 0
56141 
Channel: 2 Note ON:  D#6 key: 87 velocity: 0
56880 
Channel: 2 Note ON:  F5 key: 77 velocity: 127
56880 
Channel: 2 Note ON:  A#5 key: 82 velocity: 127
56880 
Channel: 2 Note ON:  C#6 key: 85 velocity: 127
56967 
Channel: 2 Note ON:  F5 key: 77 velocity: 0
56968 
Channel: 2 Note ON:  C#6 key: 85 velocity: 0
56983 
Channel: 2 Note ON:  A#5 key: 82 velocity: 0
57000 
Channel: 2 Note ON:  C#6 key: 85 velocity: 127
57000 
Channel: 2 Note ON:  F5 key: 77 velocity: 127
57000 
Channel: 2 Note ON:  A#5 key: 82 velocity: 127
57094 
Channel: 2 Note ON:  C#6 key: 85 velocity: 0
57106 
Channel: 2 Note ON:  F5 key: 77 velocity: 0
57107 
Channel: 2 Note ON:  A#5 key: 82 velocity: 0
57840 
Channel: 2 Note ON:  F#5 key: 78 velocity: 127
57840 
Channel: 2 Note ON:  C#6 key: 85 velocity: 127
57840 
Channel: 2 Note ON:  A#5 key: 82 velocity: 127
57931 
Channel: 2 Note ON:  C#6 key: 85 velocity: 0
57939 
Channel: 2 Note ON:  F#5 key: 78 velocity: 0
57941 
Channel: 2 Note ON:  A#5 key: 82 velocity: 0
57960 
Channel: 2 Note ON:  F#5 key: 78 velocity: 127
57960 
Channel: 2 Note ON:  C#6 key: 85 velocity: 127
57960 
Channel: 2 Note ON:  A#5 key: 82 velocity: 127
58049 
Channel: 2 Note ON:  F#5 key: 78 velocity: 0
58052 
Channel: 2 Note ON:  A#5 key: 82 velocity: 0
58065 
Channel: 2 Note ON:  C#6 key: 85 velocity: 0
58800 
Channel: 2 Note ON:  C#6 key: 85 velocity: 127
58800 
Channel: 2 Note ON:  F6 key: 89 velocity: 127
58800 
Channel: 2 Note ON:  G#5 key: 80 velocity: 127
58876 
Channel: 2 Note ON:  F6 key: 89 velocity: 0
58895 
Channel: 2 Note ON:  C#6 key: 85 velocity: 0
58906 
Channel: 2 Note ON:  G#5 key: 80 velocity: 0
58920 
Channel: 2 Note ON:  F6 key: 89 velocity: 127
58920 
Channel: 2 Note ON:  G#5 key: 80 velocity: 127
58920 
Channel: 2 Note ON:  C#6 key: 85 velocity: 127
59014 
Channel: 2 Note ON:  F6 key: 89 velocity: 0
59026 
Channel: 2 Note ON:  C#6 key: 85 velocity: 0
59030 
Channel: 2 Note ON:  G#5 key: 80 velocity: 0
59760 
Channel: 2 Note ON:  G#5 key: 80 velocity: 127
59760 
Channel: 2 Note ON:  D#6 key: 87 velocity: 127
59760 
Channel: 2 Note ON:  C6 key: 84 velocity: 127
59845 
Channel: 2 Note ON:  D#6 key: 87 velocity: 0
59851 
Channel: 2 Note ON:  G#5 key: 80 velocity: 0
59859 
Channel: 2 Note ON:  C6 key: 84 velocity: 0
59880 
Channel: 2 Note ON:  D#6 key: 87 velocity: 127
59880 
Channel: 2 Note ON:  G#5 key: 80 velocity: 127
59880 
Channel: 2 Note ON:  C6 key: 84 velocity: 127
59986 
Channel: 2 Note ON:  D#6 key: 87 velocity: 0
59989 
Channel: 2 Note ON:  C6 key: 84 velocity: 0
59993 
Channel: 2 Note ON:  G#5 key: 80 velocity: 0
60720 
Channel: 2 Note ON:  F5 key: 77 velocity: 127
60720 
Channel: 2 Note ON:  C#6 key: 85 velocity: 127
60720 
Channel: 2 Note ON:  A#5 key: 82 velocity: 127
60814 
Channel: 2 Note ON:  A#5 key: 82 velocity: 0
60814 
Channel: 2 Note ON:  F5 key: 77 velocity: 0
60818 
Channel: 2 Note ON:  C#6 key: 85 velocity: 0
60840 
Channel: 2 Note ON:  C#6 key: 85 velocity: 127
60840 
Channel: 2 Note ON:  A#5 key: 82 velocity: 127
60840 
Channel: 2 Note ON:  F5 key: 77 velocity: 127
60926 
Channel: 2 Note ON:  C#6 key: 85 velocity: 0
60940 
Channel: 2 Note ON:  F5 key: 77 velocity: 0
60942 
Channel: 2 Note ON:  A#5 key: 82 velocity: 0
61680 
Channel: 2 Note ON:  F#5 key: 78 velocity: 127
61680 
Channel: 2 Note ON:  C#6 key: 85 velocity: 127
61680 
Channel: 2 Note ON:  A#5 key: 82 velocity: 127
61769 
Channel: 2 Note ON:  C#6 key: 85 velocity: 0
61770 
Channel: 2 Note ON:  F#5 key: 78 velocity: 0
61779 
Channel: 2 Note ON:  A#5 key: 82 velocity: 0
61800 
Channel: 2 Note ON:  C#6 key: 85 velocity: 127
61800 
Channel: 2 Note ON:  F#5 key: 78 velocity: 127
61800 
Channel: 2 Note ON:  A#5 key: 82 velocity: 127
61892 
Channel: 2 Note ON:  F#5 key: 78 velocity: 0
61901 
Channel: 2 Note ON:  C#6 key: 85 velocity: 0
61909 
Channel: 2 Note ON:  A#5 key: 82 velocity: 0
62640 
Channel: 2 Note ON:  C#6 key: 85 velocity: 127
62640 
Channel: 2 Note ON:  F6 key: 89 velocity: 127
62640 
Channel: 2 Note ON:  G#5 key: 80 velocity: 127
62704 
Channel: 2 Note ON:  F6 key: 89 velocity: 0
62709 
Channel: 2 Note ON:  C#6 key: 85 velocity: 0
62737 
Channel: 2 Note ON:  G#5 key: 80 velocity: 0
62760 
Channel: 2 Note ON:  F6 key: 89 velocity: 127
62760 
Channel: 2 Note ON:  C#6 key: 85 velocity: 127
62760 
Channel: 2 Note ON:  G#5 key: 80 velocity: 127
62843 
Channel: 2 Note ON:  F6 key: 89 velocity: 0
62869 
Channel: 2 Note ON:  C#6 key: 85 velocity: 0
62873 
Channel: 2 Note ON:  G#5 key: 80 velocity: 0
63600 
Channel: 2 Note ON:  G#5 key: 80 velocity: 127
63600 
Channel: 2 Note ON:  D#6 key: 87 velocity: 127
63600 
Channel: 2 Note ON:  C6 key: 84 velocity: 127
63691 
Channel: 2 Note ON:  D#6 key: 87 velocity: 0
63702 
Channel: 2 Note ON:  C6 key: 84 velocity: 0
63709 
Channel: 2 Note ON:  G#5 key: 80 velocity: 0
63720 
Channel: 2 Note ON:  D#6 key: 87 velocity: 127
63720 
Channel: 2 Note ON:  G#5 key: 80 velocity: 127
63720 
Channel: 2 Note ON:  C6 key: 84 velocity: 127
63824 
Channel: 2 Note ON:  G#5 key: 80 velocity: 0
63825 
Channel: 2 Note ON:  D#6 key: 87 velocity: 0
63828 
Channel: 2 Note ON:  C6 key: 84 velocity: 0
64560 
Channel: 2 Note ON:  C6 key: 84 velocity: 127
64560 
Channel: 2 Note ON:  G#5 key: 80 velocity: 127
64560 
Channel: 2 Note ON:  F5 key: 77 velocity: 127
64636 
Channel: 2 Note ON:  F5 key: 77 velocity: 0
64637 
Channel: 2 Note ON:  C6 key: 84 velocity: 0
64638 
Channel: 2 Note ON:  G#5 key: 80 velocity: 0
64680 
Channel: 2 Note ON:  F5 key: 77 velocity: 127
64680 
Channel: 2 Note ON:  C6 key: 84 velocity: 127
64680 
Channel: 2 Note ON:  G#5 key: 80 velocity: 127
64770 
Channel: 2 Note ON:  F5 key: 77 velocity: 0
64777 
Channel: 2 Note ON:  C6 key: 84 velocity: 0
64788 
Channel: 2 Note ON:  G#5 key: 80 velocity: 0
65520 
Channel: 2 Note ON:  C#6 key: 85 velocity: 127
65520 
Channel: 2 Note ON:  F#5 key: 78 velocity: 127
65520 
Channel: 2 Note ON:  A#5 key: 82 velocity: 127
65594 
Channel: 2 Note ON:  C#6 key: 85 velocity: 0
65603 
Channel: 2 Note ON:  A#5 key: 82 velocity: 0
65607 
Channel: 2 Note ON:  F#5 key: 78 velocity: 0
65640 
Channel: 2 Note ON:  C#6 key: 85 velocity: 127
65640 
Channel: 2 Note ON:  A#5 key: 82 velocity: 127
65640 
Channel: 2 Note ON:  F#5 key: 78 velocity: 127
65739 
Channel: 2 Note ON:  F#5 key: 78 velocity: 0
65743 
Channel: 2 Note ON:  A#5 key: 82 velocity: 0
65762 
Channel: 2 Note ON:  C#6 key: 85 velocity: 0
66480 
Channel: 2 Note ON:  F6 key: 89 velocity: 127
66480 
Channel: 2 Note ON:  G#5 key: 80 velocity: 127
66480 
Channel: 2 Note ON:  C#6 key: 85 velocity: 127
66541 
Channel: 2 Note ON:  F6 key: 89 velocity: 0
66555 
Channel: 2 Note ON:  C#6 key: 85 velocity: 0
66572 
Channel: 2 Note ON:  G#5 key: 80 velocity: 0
66600 
Channel: 2 Note ON:  G#5 key: 80 velocity: 127
66600 
Channel: 2 Note ON:  F6 key: 89 velocity: 127
66600 
Channel: 2 Note ON:  C#6 key: 85 velocity: 127
66681 
Channel: 2 Note ON:  F6 key: 89 velocity: 0
66702 
Channel: 2 Note ON:  G#5 key: 80 velocity: 0
66708 
Channel: 2 Note ON:  C#6 key: 85 velocity: 0
67440 
Channel: 2 Note ON:  G#5 key: 80 velocity: 127
67440 
Channel: 2 Note ON:  D#6 key: 87 velocity: 127
67440 
Channel: 2 Note ON:  C6 key: 84 velocity: 127
67528 
Channel: 2 Note ON:  G#5 key: 80 velocity: 0
67533 
Channel: 2 Note ON:  D#6 key: 87 velocity: 0
67541 
Channel: 2 Note ON:  C6 key: 84 velocity: 0
67560 
Channel: 2 Note ON:  D#6 key: 87 velocity: 127
67560 
Channel: 2 Note ON:  G#5 key: 80 velocity: 127
67560 
Channel: 2 Note ON:  C6 key: 84 velocity: 127
67657 
Channel: 2 Note ON:  C6 key: 84 velocity: 0
67659 
Channel: 2 Note ON:  G#5 key: 80 velocity: 0
67660 
Channel: 2 Note ON:  D#6 key: 87 velocity: 0
68400 
Channel: 2 Note ON:  C#6 key: 85 velocity: 127
68400 
Channel: 2 Note ON:  F5 key: 77 velocity: 127
68400 
Channel: 2 Note ON:  A#5 key: 82 velocity: 127
68483 
Channel: 2 Note ON:  C#6 key: 85 velocity: 0
68495 
Channel: 2 Note ON:  A#5 key: 82 velocity: 0
68503 
Channel: 2 Note ON:  F5 key: 77 velocity: 0
68520 
Channel: 2 Note ON:  C#6 key: 85 velocity: 127
68520 
Channel: 2 Note ON:  F5 key: 77 velocity: 127
68520 
Channel: 2 Note ON:  A#5 key: 82 velocity: 127
68618 
Channel: 2 Note ON:  C#6 key: 85 velocity: 0
68633 
Channel: 2 Note ON:  F5 key: 77 velocity: 0
68634 
Channel: 2 Note ON:  A#5 key: 82 velocity: 0
69360 
Channel: 2 Note ON:  F#5 key: 78 velocity: 127
69360 
Channel: 2 Note ON:  A#5 key: 82 velocity: 127
69360 
Channel: 2 Note ON:  C#6 key: 85 velocity: 127
69455 
Channel: 2 Note ON:  A#5 key: 82 velocity: 0
69460 
Channel: 2 Note ON:  F#5 key: 78 velocity: 0
69480 
Channel: 2 Note ON:  A#5 key: 82 velocity: 127
69480 
Channel: 2 Note ON:  F#5 key: 78 velocity: 127
69586 
Channel: 2 Note ON:  F#5 key: 78 velocity: 0
69591 
Channel: 2 Note ON:  A#5 key: 82 velocity: 0
69596 
Channel: 2 Note ON:  C#6 key: 85 velocity: 0
70320 
Channel: 2 Note ON:  F6 key: 89 velocity: 127
70320 
Channel: 2 Note ON:  G#5 key: 80 velocity: 127
70320 
Channel: 2 Note ON:  C#6 key: 85 velocity: 127
70385 
Channel: 2 Note ON:  F6 key: 89 velocity: 0
70405 
Channel: 2 Note ON:  C#6 key: 85 velocity: 0
70440 
Channel: 2 Note ON:  F6 key: 89 velocity: 127
70440 
Channel: 2 Note ON:  C#6 key: 85 velocity: 127
70534 
Channel: 2 Note ON:  F6 key: 89 velocity: 0
70543 
Channel: 2 Note ON:  G#5 key: 80 velocity: 0
70547 
Channel: 2 Note ON:  C#6 key: 85 velocity: 0
71280 
Channel: 2 Note ON:  G#5 key: 80 velocity: 127
71280 
Channel: 2 Note ON:  D#6 key: 87 velocity: 127
71280 
Channel: 2 Note ON:  C6 key: 84 velocity: 127
71368 
Channel: 2 Note ON:  D#6 key: 87 velocity: 0
71369 
Channel: 2 Note ON:  G#5 key: 80 velocity: 0
71400 
Channel: 2 Note ON:  D#6 key: 87 velocity: 127
71400 
Channel: 2 Note ON:  G#5 key: 80 velocity: 127
71493 
Channel: 2 Note ON:  D#6 key: 87 velocity: 0
71499 
Channel: 2 Note ON:  C6 key: 84 velocity: 0
71505 
Channel: 2 Note ON:  G#5 key: 80 velocity: 0
72240 
Channel: 2 Note ON:  C6 key: 84 velocity: 127
72240 
Channel: 2 Note ON:  F5 key: 77 velocity: 127
72240 
Channel: 2 Note ON:  G#5 key: 80 velocity: 127
72314 
Channel: 2 Note ON:  F5 key: 77 velocity: 0
72315 
Channel: 2 Note ON:  G#5 key: 80 velocity: 0
72317 
Channel: 2 Note ON:  C6 key: 84 velocity: 0
72360 
Channel: 2 Note ON:  C6 key: 84 velocity: 127
72360 
Channel: 2 Note ON:  F5 key: 77 velocity: 127
72360 
Channel: 2 Note ON:  G#5 key: 80 velocity: 127
72458 
Channel: 2 Note ON:  F5 key: 77 velocity: 0
72460 
Channel: 2 Note ON:  C6 key: 84 velocity: 0
72464 
Channel: 2 Note ON:  G#5 key: 80 velocity: 0
73200 
Channel: 2 Note ON:  A#5 key: 82 velocity: 127
73200 
Channel: 2 Note ON:  C#6 key: 85 velocity: 127
73200 
Channel: 2 Note ON:  F#5 key: 78 velocity: 127
73278 
Channel: 2 Note ON:  C#6 key: 85 velocity: 0
73283 
Channel: 2 Note ON:  A#5 key: 82 velocity: 0
73320 
Channel: 2 Note ON:  C#6 key: 85 velocity: 127
73320 
Channel: 2 Note ON:  A#5 key: 82 velocity: 127
73424 
Channel: 2 Note ON:  C#6 key: 85 velocity: 0
73426 
Channel: 2 Note ON:  A#5 key: 82 velocity: 0
73436 
Channel: 2 Note ON:  F#5 key: 78 velocity: 0
89520 
Channel: 2 Note ON:  F6 key: 89 velocity: 127
89520 
Channel: 2 Note ON:  G#5 key: 80 velocity: 127
89520 
Channel: 2 Note ON:  C#6 key: 85 velocity: 127
89595 
Channel: 2 Note ON:  F6 key: 89 velocity: 0
89623 
Channel: 2 Note ON:  G#5 key: 80 velocity: 0
89640 
Channel: 2 Note ON:  F6 key: 89 velocity: 127
89640 
Channel: 2 Note ON:  G#5 key: 80 velocity: 127
89725 
Channel: 2 Note ON:  F6 key: 89 velocity: 0
89733 
Channel: 2 Note ON:  G#5 key: 80 velocity: 0
89739 
Channel: 2 Note ON:  C#6 key: 85 velocity: 0
90480 
Channel: 2 Note ON:  D#6 key: 87 velocity: 127
90480 
Channel: 2 Note ON:  G#5 key: 80 velocity: 127
90480 
Channel: 2 Note ON:  C6 key: 84 velocity: 127
90563 
Channel: 2 Note ON:  D#6 key: 87 velocity: 0
90600 
Channel: 2 Note ON:  D#6 key: 87 velocity: 127
90691 
Channel: 2 Note ON:  G#5 key: 80 velocity: 0
90693 
Channel: 2 Note ON:  C6 key: 84 velocity: 0
90705 
Channel: 2 Note ON:  D#6 key: 87 velocity: 0
91440 
Channel: 2 Note ON:  F5 key: 77 velocity: 127
91440 
Channel: 2 Note ON:  C#6 key: 85 velocity: 127
91440 
Channel: 2 Note ON:  A#5 key: 82 velocity: 127
91534 
Channel: 2 Note ON:  F5 key: 77 velocity: 0
91535 
Channel: 2 Note ON:  A#5 key: 82 velocity: 0
91544 
Channel: 2 Note ON:  C#6 key: 85 velocity: 0
91560 
Channel: 2 Note ON:  C#6 key: 85 velocity: 127
91560 
Channel: 2 Note ON:  F5 key: 77 velocity: 127
91560 
Channel: 2 Note ON:  A#5 key: 82 velocity: 127
91652 
Channel: 2 Note ON:  F5 key: 77 velocity: 0
91653 
Channel: 2 Note ON:  C#6 key: 85 velocity: 0
91664 
Channel: 2 Note ON:  A#5 key: 82 velocity: 0
92400 
Channel: 2 Note ON:  A#5 key: 82 velocity: 127
92400 
Channel: 2 Note ON:  C#6 key: 85 velocity: 127
92400 
Channel: 2 Note ON:  F#5 key: 78 velocity: 127
92481 
Channel: 2 Note ON:  A#5 key: 82 velocity: 0
92484 
Channel: 2 Note ON:  C#6 key: 85 velocity: 0
92490 
Channel: 2 Note ON:  F#5 key: 78 velocity: 0
92520 
Channel: 2 Note ON:  C#6 key: 85 velocity: 127
92520 
Channel: 2 Note ON:  F#5 key: 78 velocity: 127
92520 
Channel: 2 Note ON:  A#5 key: 82 velocity: 127
92613 
Channel: 2 Note ON:  C#6 key: 85 velocity: 0
92614 
Channel: 2 Note ON:  F#5 key: 78 velocity: 0
92623 
Channel: 2 Note ON:  A#5 key: 82 velocity: 0
93360 
Channel: 2 Note ON:  F6 key: 89 velocity: 127
93360 
Channel: 2 Note ON:  C#6 key: 85 velocity: 127
93360 
Channel: 2 Note ON:  G#5 key: 80 velocity: 127
93433 
Channel: 2 Note ON:  F6 key: 89 velocity: 0
93452 
Channel: 2 Note ON:  C#6 key: 85 velocity: 0
93480 
Channel: 2 Note ON:  F6 key: 89 velocity: 127
93480 
Channel: 2 Note ON:  C#6 key: 85 velocity: 127
93568 
Channel: 2 Note ON:  F6 key: 89 velocity: 0
93587 
Channel: 2 Note ON:  G#5 key: 80 velocity: 0
93588 
Channel: 2 Note ON:  C#6 key: 85 velocity: 0
94320 
Channel: 2 Note ON:  D#6 key: 87 velocity: 127
94320 
Channel: 2 Note ON:  G#5 key: 80 velocity: 127
94320 
Channel: 2 Note ON:  C6 key: 84 velocity: 127
94406 
Channel: 2 Note ON:  D#6 key: 87 velocity: 0
94423 
Channel: 2 Note ON:  C6 key: 84 velocity: 0
94424 
Channel: 2 Note ON:  G#5 key: 80 velocity: 0
94440 
Channel: 2 Note ON:  D#6 key: 87 velocity: 127
94440 
Channel: 2 Note ON:  G#5 key: 80 velocity: 127
94440 
Channel: 2 Note ON:  C6 key: 84 velocity: 127
94539 
Channel: 2 Note ON:  D#6 key: 87 velocity: 0
94541 
Channel: 2 Note ON:  C6 key: 84 velocity: 0
94544 
Channel: 2 Note ON:  G#5 key: 80 velocity: 0
95280 
Channel: 2 Note ON:  C6 key: 84 velocity: 127
95280 
Channel: 2 Note ON:  F5 key: 77 velocity: 127
95280 
Channel: 2 Note ON:  G#5 key: 80 velocity: 127
95371 
Channel: 2 Note ON:  C6 key: 84 velocity: 0
95382 
Channel: 2 Note ON:  G#5 key: 80 velocity: 0
95383 
Channel: 2 Note ON:  F5 key: 77 velocity: 0
95400 
Channel: 2 Note ON:  C6 key: 84 velocity: 127
95400 
Channel: 2 Note ON:  F5 key: 77 velocity: 127
95400 
Channel: 2 Note ON:  G#5 key: 80 velocity: 127
95499 
Channel: 2 Note ON:  C6 key: 84 velocity: 0
95501 
Channel: 2 Note ON:  F5 key: 77 velocity: 0
95503 
Channel: 2 Note ON:  G#5 key: 80 velocity: 0
96240 
Channel: 2 Note ON:  C#6 key: 85 velocity: 127
96240 
Channel: 2 Note ON:  A#5 key: 82 velocity: 127
96240 
Channel: 2 Note ON:  F#5 key: 78 velocity: 127
96315 
Channel: 2 Note ON:  C#6 key: 85 velocity: 0
96338 
Channel: 2 Note ON:  A#5 key: 82 velocity: 0
96360 
Channel: 2 Note ON:  A#5 key: 82 velocity: 127
96360 
Channel: 2 Note ON:  C#6 key: 85 velocity: 127
96440 
Channel: 2 Note ON:  F#5 key: 78 velocity: 0
96452 
Channel: 2 Note ON:  C#6 key: 85 velocity: 0
96458 
Channel: 2 Note ON:  A#5 key: 82 velocity: 0
97200 
Channel: 2 Note ON:  F6 key: 89 velocity: 127
97200 
Channel: 2 Note ON:  C#6 key: 85 velocity: 127
97200 
Channel: 2 Note ON:  G#5 key: 80 velocity: 127
97274 
Channel: 2 Note ON:  F6 key: 89 velocity: 0
97283 
Channel: 2 Note ON:  C#6 key: 85 velocity: 0
97320 
Channel: 2 Note ON:  F6 key: 89 velocity: 127
97320 
Channel: 2 Note ON:  C#6 key: 85 velocity: 127
97416 
Channel: 2 Note ON:  F6 key: 89 velocity: 0
97425 
Channel: 2 Note ON:  G#5 key: 80 velocity: 0
97427 
Channel: 2 Note ON:  C#6 key: 85 velocity: 0
98160 
Channel: 2 Note ON:  D#6 key: 87 velocity: 127
98160 
Channel: 2 Note ON:  G#5 key: 80 velocity: 127
98160 
Channel: 2 Note ON:  C6 key: 84 velocity: 127
98255 
Channel: 2 Note ON:  D#6 key: 87 velocity: 0
98270 
Channel: 2 Note ON:  C6 key: 84 velocity: 0
98280 
Channel: 2 Note ON:  D#6 key: 87 velocity: 127
98280 
Channel: 2 Note ON:  C6 key: 84 velocity: 127
98367 
Channel: 2 Note ON:  C6 key: 84 velocity: 0
98371 
Channel: 2 Note ON:  D#6 key: 87 velocity: 0
98382 
Channel: 2 Note ON:  G#5 key: 80 velocity: 0
99120 
Channel: 2 Note ON:  C#6 key: 85 velocity: 127
99120 
Channel: 2 Note ON:  F5 key: 77 velocity: 127
99120 
Channel: 2 Note ON:  A#5 key: 82 velocity: 127
99198 
Channel: 2 Note ON:  C#6 key: 85 velocity: 0
99203 
Channel: 2 Note ON:  A#5 key: 82 velocity: 0
99240 
Channel: 2 Note ON:  C#6 key: 85 velocity: 127
99240 
Channel: 2 Note ON:  A#5 key: 82 velocity: 127
99326 
Channel: 2 Note ON:  F5 key: 77 velocity: 0
99331 
Channel: 2 Note ON:  C#6 key: 85 velocity: 0
99347 
Channel: 2 Note ON:  A#5 key: 82 velocity: 0
100080 
Channel: 2 Note ON:  C#6 key: 85 velocity: 127
100080 
Channel: 2 Note ON:  A#5 key: 82 velocity: 127
100080 
Channel: 2 Note ON:  F#5 key: 78 velocity: 127
100159 
Channel: 2 Note ON:  A#5 key: 82 velocity: 0
100159 
Channel: 2 Note ON:  C#6 key: 85 velocity: 0
100166 
Channel: 2 Note ON:  F#5 key: 78 velocity: 0
100200 
Channel: 2 Note ON:  C#6 key: 85 velocity: 127
100200 
Channel: 2 Note ON:  F#5 key: 78 velocity: 127
100200 
Channel: 2 Note ON:  A#5 key: 82 velocity: 127
100306 
Channel: 2 Note ON:  F#5 key: 78 velocity: 0
100311 
Channel: 2 Note ON:  A#5 key: 82 velocity: 0
100314 
Channel: 2 Note ON:  C#6 key: 85 velocity: 0
101040 
Channel: 2 Note ON:  F6 key: 89 velocity: 127
101040 
Channel: 2 Note ON:  C#6 key: 85 velocity: 127
101040 
Channel: 2 Note ON:  G#5 key: 80 velocity: 127
101125 
Channel: 2 Note ON:  F6 key: 89 velocity: 0
101132 
Channel: 2 Note ON:  C#6 key: 85 velocity: 0
101160 
Channel: 2 Note ON:  F6 key: 89 velocity: 127
101160 
Channel: 2 Note ON:  C#6 key: 85 velocity: 127
101262 
Channel: 2 Note ON:  F6 key: 89 velocity: 0
101263 
Channel: 2 Note ON:  C#6 key: 85 velocity: 0
101277 
Channel: 2 Note ON:  G#5 key: 80 velocity: 0
102000 
Channel: 2 Note ON:  D#6 key: 87 velocity: 127
102000 
Channel: 2 Note ON:  G#5 key: 80 velocity: 127
102000 
Channel: 2 Note ON:  C6 key: 84 velocity: 127
102076 
Channel: 2 Note ON:  D#6 key: 87 velocity: 0
102095 
Channel: 2 Note ON:  G#5 key: 80 velocity: 0
102099 
Channel: 2 Note ON:  C6 key: 84 velocity: 0
102120 
Channel: 2 Note ON:  D#6 key: 87 velocity: 127
102120 
Channel: 2 Note ON:  G#5 key: 80 velocity: 127
102120 
Channel: 2 Note ON:  C6 key: 84 velocity: 127
102212 
Channel: 2 Note ON:  D#6 key: 87 velocity: 0
102217 
Channel: 2 Note ON:  C6 key: 84 velocity: 0
102217 
Channel: 2 Note ON:  G#5 key: 80 velocity: 0
102960 
Channel: 2 Note ON:  C6 key: 84 velocity: 127
102960 
Channel: 2 Note ON:  F5 key: 77 velocity: 127
102960 
Channel: 2 Note ON:  G#5 key: 80 velocity: 127
103045 
Channel: 2 Note ON:  C6 key: 84 velocity: 0
103050 
Channel: 2 Note ON:  G#5 key: 80 velocity: 0
103054 
Channel: 2 Note ON:  F5 key: 77 velocity: 0
103080 
Channel: 2 Note ON:  C6 key: 84 velocity: 127
103080 
Channel: 2 Note ON:  F5 key: 77 velocity: 127
103080 
Channel: 2 Note ON:  G#5 key: 80 velocity: 127
103174 
Channel: 2 Note ON:  F5 key: 77 velocity: 0
103181 
Channel: 2 Note ON:  G#5 key: 80 velocity: 0
103183 
Channel: 2 Note ON:  C6 key: 84 velocity: 0
103920 
Channel: 2 Note ON:  A#5 key: 82 velocity: 127
103920 
Channel: 2 Note ON:  F#5 key: 78 velocity: 127
103920 
Channel: 2 Note ON:  C#6 key: 85 velocity: 127
103994 
Channel: 2 Note ON:  C#6 key: 85 velocity: 0
104013 
Channel: 2 Note ON:  A#5 key: 82 velocity: 0
104040 
Channel: 2 Note ON:  C#6 key: 85 velocity: 127
104040 
Channel: 2 Note ON:  A#5 key: 82 velocity: 127
104122 
Channel: 2 Note ON:  F#5 key: 78 velocity: 0
104144 
Channel: 2 Note ON:  A#5 key: 82 velocity: 0
104151 
Channel: 2 Note ON:  C#6 key: 85 velocity: 0
104880 
Channel: 2 Note ON:  F6 key: 89 velocity: 127
104880 
Channel: 2 Note ON:  G#5 key: 80 velocity: 127
104880 
Channel: 2 Note ON:  C#6 key: 85 velocity: 127
104941 
Channel: 2 Note ON:  F6 key: 89 velocity: 0
104957 
Channel: 2 Note ON:  C#6 key: 85 velocity: 0
104972 
Channel: 2 Note ON:  G#5 key: 80 velocity: 0
105000 
Channel: 2 Note ON:  F6 key: 89 velocity: 127
105000 
Channel: 2 Note ON:  C#6 key: 85 velocity: 127
105000 
Channel: 2 Note ON:  G#5 key: 80 velocity: 127
105093 
Channel: 2 Note ON:  F6 key: 89 velocity: 0
105108 
Channel: 2 Note ON:  C#6 key: 85 velocity: 0
105115 
Channel: 2 Note ON:  G#5 key: 80 velocity: 0
105840 
Channel: 2 Note ON:  D#6 key: 87 velocity: 127
105840 
Channel: 2 Note ON:  G#5 key: 80 velocity: 127
105840 
Channel: 2 Note ON:  C6 key: 84 velocity: 127
105933 
Channel: 2 Note ON:  D#6 key: 87 velocity: 0
105943 
Channel: 2 Note ON:  C6 key: 84 velocity: 0
105950 
Channel: 2 Note ON:  G#5 key: 80 velocity: 0
105960 
Channel: 2 Note ON:  D#6 key: 87 velocity: 127
105960 
Channel: 2 Note ON:  G#5 key: 80 velocity: 127
105960 
Channel: 2 Note ON:  C6 key: 84 velocity: 127
106062 
Channel: 2 Note ON:  C6 key: 84 velocity: 0
106066 
Channel: 2 Note ON:  D#6 key: 87 velocity: 0
106070 
Channel: 2 Note ON:  G#5 key: 80 velocity: 0
106800 
Channel: 2 Note ON:  F5 key: 77 velocity: 127
106800 
Channel: 2 Note ON:  A#5 key: 82 velocity: 127
106800 
Channel: 2 Note ON:  C#6 key: 85 velocity: 127
106891 
Channel: 2 Note ON:  F5 key: 77 velocity: 0
106896 
Channel: 2 Note ON:  A#5 key: 82 velocity: 0
106901 
Channel: 2 Note ON:  C#6 key: 85 velocity: 0
106920 
Channel: 2 Note ON:  C#6 key: 85 velocity: 127
106920 
Channel: 2 Note ON:  F5 key: 77 velocity: 127
106920 
Channel: 2 Note ON:  A#5 key: 82 velocity: 127
107010 
Channel: 2 Note ON:  C#6 key: 85 velocity: 0
107013 
Channel: 2 Note ON:  F5 key: 77 velocity: 0
107023 
Channel: 2 Note ON:  A#5 key: 82 velocity: 0
107760 
Channel: 2 Note ON:  C#6 key: 85 velocity: 127
107760 
Channel: 2 Note ON:  F#5 key: 78 velocity: 127
107760 
Channel: 2 Note ON:  A#5 key: 82 velocity: 127
107849 
Channel: 2 Note ON:  C#6 key: 85 velocity: 0
107880 
Channel: 2 Note ON:  C#6 key: 85 velocity: 127
107959 
Channel: 2 Note ON:  F#5 key: 78 velocity: 0
107973 
Channel: 2 Note ON:  A#5 key: 82 velocity: 0
107980 
Channel: 2 Note ON:  C#6 key: 85 velocity: 0
108720 
Channel: 2 Note ON:  F6 key: 89 velocity: 123
108720 
Channel: 2 Note ON:  G#5 key: 80 velocity: 123
108720 
Channel: 2 Note ON:  C#6 key: 85 velocity: 123
108777 
Channel: 2 Note ON:  F6 key: 89 velocity: 0
108810 
Channel: 2 Note ON:  C#6 key: 85 velocity: 0
108815 
Channel: 2 Note ON:  G#5 key: 80 velocity: 0
108840 
Channel: 2 Note ON:  F6 key: 89 velocity: 127
108840 
Channel: 2 Note ON:  G#5 key: 80 velocity: 127
108840 
Channel: 2 Note ON:  C#6 key: 85 velocity: 127
108924 
Channel: 2 Note ON:  F6 key: 89 velocity: 0
108940 
Channel: 2 Note ON:  G#5 key: 80 velocity: 0
108943 
Channel: 2 Note ON:  C#6 key: 85 velocity: 0
109680 
Channel: 2 Note ON:  D#6 key: 87 velocity: 127
109680 
Channel: 2 Note ON:  G#5 key: 80 velocity: 127
109680 
Channel: 2 Note ON:  C6 key: 84 velocity: 127
109775 
Channel: 2 Note ON:  D#6 key: 87 velocity: 0
109800 
Channel: 2 Note ON:  D#6 key: 87 velocity: 127
109886 
Channel: 2 Note ON:  D#6 key: 87 velocity: 0
109893 
Channel: 2 Note ON:  C6 key: 84 velocity: 0
109896 
Channel: 2 Note ON:  G#5 key: 80 velocity: 0
110640 
Channel: 2 Note ON:  C6 key: 84 velocity: 127
110640 
Channel: 2 Note ON:  F5 key: 77 velocity: 127
110640 
Channel: 2 Note ON:  G#5 key: 80 velocity: 127
110720 
Channel: 2 Note ON:  C6 key: 84 velocity: 0
110721 
Channel: 2 Note ON:  F5 key: 77 velocity: 0
110733 
Channel: 2 Note ON:  G#5 key: 80 velocity: 0
110760 
Channel: 2 Note ON:  C6 key: 84 velocity: 127
110760 
Channel: 2 Note ON:  F5 key: 77 velocity: 127
110760 
Channel: 2 Note ON:  G#5 key: 80 velocity: 127
110857 
Channel: 2 Note ON:  F5 key: 77 velocity: 0
110868 
Channel: 2 Note ON:  C6 key: 84 velocity: 0
110873 
Channel: 2 Note ON:  G#5 key: 80 velocity: 0
111600 
Channel: 2 Note ON:  C#6 key: 85 velocity: 127
111600 
Channel: 2 Note ON:  F#5 key: 78 velocity: 127
111600 
Channel: 2 Note ON:  A#5 key: 82 velocity: 127
111679 
Channel: 2 Note ON:  C#6 key: 85 velocity: 0
111691 
Channel: 2 Note ON:  A#5 key: 82 velocity: 0
111720 
Channel: 2 Note ON:  C#6 key: 85 velocity: 127
111720 
Channel: 2 Note ON:  A#5 key: 82 velocity: 127
111797 
Channel: 2 Note ON:  C#6 key: 85 velocity: 0
111807 
Channel: 2 Note ON:  F#5 key: 78 velocity: 0
111820 
Channel: 2 Note ON:  A#5 key: 82 velocity: 0
112560 
Channel: 2 Note ON:  F6 key: 89 velocity: 127
112560 
Channel: 2 Note ON:  C#6 key: 85 velocity: 127
112560 
Channel: 2 Note ON:  G#5 key: 80 velocity: 127
112630 
Channel: 2 Note ON:  F6 key: 89 velocity: 0
112647 
Channel: 2 Note ON:  C#6 key: 85 velocity: 0
112680 
Channel: 2 Note ON:  F6 key: 89 velocity: 127
112680 
Channel: 2 Note ON:  C#6 key: 85 velocity: 127
112769 
Channel: 2 Note ON:  F6 key: 89 velocity: 0
112777 
Channel: 2 Note ON:  G#5 key: 80 velocity: 0
112787 
Channel: 2 Note ON:  C#6 key: 85 velocity: 0
113520 
Channel: 2 Note ON:  D#6 key: 87 velocity: 127
113520 
Channel: 2 Note ON:  C6 key: 84 velocity: 127
113520 
Channel: 2 Note ON:  G#5 key: 80 velocity: 127
113608 
Channel: 2 Note ON:  D#6 key: 87 velocity: 0
113640 
Channel: 2 Note ON:  D#6 key: 87 velocity: 127
113742 
Channel: 2 Note ON:  D#6 key: 87 velocity: 0
113742 
Channel: 2 Note ON:  C6 key: 84 velocity: 0
113748 
Channel: 2 Note ON:  G#5 key: 80 velocity: 0
114480 
Channel: 2 Note ON:  C#6 key: 85 velocity: 127
114480 
Channel: 2 Note ON:  F5 key: 77 velocity: 127
114480 
Channel: 2 Note ON:  A#5 key: 82 velocity: 127
114556 
Channel: 2 Note ON:  F5 key: 77 velocity: 0
114570 
Channel: 2 Note ON:  A#5 key: 82 velocity: 0
114570 
Channel: 2 Note ON:  C#6 key: 85 velocity: 0
114600 
Channel: 2 Note ON:  C#6 key: 85 velocity: 127
114600 
Channel: 2 Note ON:  F5 key: 77 velocity: 127
114600 
Channel: 2 Note ON:  A#5 key: 82 velocity: 127
114691 
Channel: 2 Note ON:  F5 key: 77 velocity: 0
114703 
Channel: 2 Note ON:  C#6 key: 85 velocity: 0
114707 
Channel: 2 Note ON:  A#5 key: 82 velocity: 0
115440 
Channel: 2 Note ON:  C#6 key: 85 velocity: 127
115440 
Channel: 2 Note ON:  F#5 key: 78 velocity: 127
115440 
Channel: 2 Note ON:  A#5 key: 82 velocity: 127
115542 
Channel: 2 Note ON:  C#6 key: 85 velocity: 0
115549 
Channel: 2 Note ON:  A#5 key: 82 velocity: 0
115560 
Channel: 2 Note ON:  C#6 key: 85 velocity: 127
115560 
Channel: 2 Note ON:  A#5 key: 82 velocity: 127
115661 
Channel: 2 Note ON:  F#5 key: 78 velocity: 0
115667 
Channel: 2 Note ON:  A#5 key: 82 velocity: 0
115687 
Channel: 2 Note ON:  C#6 key: 85 velocity: 0
116400 
Channel: 2 Note ON:  F6 key: 89 velocity: 127
116400 
Channel: 2 Note ON:  C#6 key: 85 velocity: 127
116400 
Channel: 2 Note ON:  G#5 key: 80 velocity: 127
116453 
Channel: 2 Note ON:  F6 key: 89 velocity: 0
116484 
Channel: 2 Note ON:  C#6 key: 85 velocity: 0
116520 
Channel: 2 Note ON:  F6 key: 89 velocity: 127
116520 
Channel: 2 Note ON:  C#6 key: 85 velocity: 127
116614 
Channel: 2 Note ON:  F6 key: 89 velocity: 0
116630 
Channel: 2 Note ON:  C#6 key: 85 velocity: 0
116639 
Channel: 2 Note ON:  G#5 key: 80 velocity: 0
117360 
Channel: 2 Note ON:  D#6 key: 87 velocity: 127
117360 
Channel: 2 Note ON:  C6 key: 84 velocity: 127
117360 
Channel: 2 Note ON:  G#5 key: 80 velocity: 127
117449 
Channel: 2 Note ON:  D#6 key: 87 velocity: 0
117480 
Channel: 2 Note ON:  D#6 key: 87 velocity: 127
117589 
Channel: 2 Note ON:  D#6 key: 87 velocity: 0
117595 
Channel: 2 Note ON:  C6 key: 84 velocity: 0
117604 
Channel: 2 Note ON:  G#5 key: 80 velocity: 0
118320 
Channel: 2 Note ON:  C6 key: 84 velocity: 127
118320 
Channel: 2 Note ON:  F5 key: 77 velocity: 127
118320 
Channel: 2 Note ON:  G#5 key: 80 velocity: 127
118397 
Channel: 2 Note ON:  C6 key: 84 velocity: 0
118398 
Channel: 2 Note ON:  F5 key: 77 velocity: 0
118402 
Channel: 2 Note ON:  G#5 key: 80 velocity: 0
118440 
Channel: 2 Note ON:  C6 key: 84 velocity: 127
118440 
Channel: 2 Note ON:  F5 key: 77 velocity: 127
118440 
Channel: 2 Note ON:  G#5 key: 80 velocity: 127
118534 
Channel: 2 Note ON:  F5 key: 77 velocity: 0
118538 
Channel: 2 Note ON:  G#5 key: 80 velocity: 0
118540 
Channel: 2 Note ON:  C6 key: 84 velocity: 0
119280 
Channel: 2 Note ON:  C#6 key: 85 velocity: 127
119280 
Channel: 2 Note ON:  A#5 key: 82 velocity: 127
119280 
Channel: 2 Note ON:  F#5 key: 78 velocity: 127
119365 
Channel: 2 Note ON:  C#6 key: 85 velocity: 0
119369 
Channel: 2 Note ON:  A#5 key: 82 velocity: 0
119400 
Channel: 2 Note ON:  C#6 key: 85 velocity: 127
119400 
Channel: 2 Note ON:  A#5 key: 82 velocity: 127
119481 
Channel: 2 Note ON:  C#6 key: 85 velocity: 0
119482 
Channel: 2 Note ON:  A#5 key: 82 velocity: 0
119486 
Channel: 2 Note ON:  F#5 key: 78 velocity: 0
119486 
WTF is that class javax.sound.midi.Track$ImmutableEndOfTrack


Changing to track 9


0 
WTF is that class javax.sound.midi.MetaMessage
0 
WTF is that class javax.sound.midi.MetaMessage
0 
0 
37440 
Channel: 9 Note ON:  G2 key: 43 velocity: 73
37504 
Channel: 9 Note ON:  G2 key: 43 velocity: 0
37560 
Channel: 9 Note ON:  G2 key: 43 velocity: 74
37620 
Channel: 9 Note ON:  G2 key: 43 velocity: 0
37680 
Channel: 9 Note ON:  G2 key: 43 velocity: 77
37740 
Channel: 9 Note ON:  G2 key: 43 velocity: 0
37800 
Channel: 9 Note ON:  G2 key: 43 velocity: 80
37850 
Channel: 9 Note ON:  G2 key: 43 velocity: 0
37920 
Channel: 9 Note ON:  G2 key: 43 velocity: 83
37970 
Channel: 9 Note ON:  G2 key: 43 velocity: 0
38040 
Channel: 9 Note ON:  G2 key: 43 velocity: 87
38088 
Channel: 9 Note ON:  G2 key: 43 velocity: 0
38160 
Channel: 9 Note ON:  G2 key: 43 velocity: 88
38207 
Channel: 9 Note ON:  G2 key: 43 velocity: 0
38280 
Channel: 9 Note ON:  G2 key: 43 velocity: 92
38323 
Channel: 9 Note ON:  G2 key: 43 velocity: 0
38400 
Channel: 9 Note ON:  G2 key: 43 velocity: 95
38440 
Channel: 9 Note ON:  G2 key: 43 velocity: 0
38520 
Channel: 9 Note ON:  G2 key: 43 velocity: 99
38551 
Channel: 9 Note ON:  G2 key: 43 velocity: 0
38640 
Channel: 9 Note ON:  G2 key: 43 velocity: 103
38678 
Channel: 9 Note ON:  G2 key: 43 velocity: 0
38760 
Channel: 9 Note ON:  G2 key: 43 velocity: 106
38787 
Channel: 9 Note ON:  G2 key: 43 velocity: 0
38880 
Channel: 9 Note ON:  G2 key: 43 velocity: 109
38916 
Channel: 9 Note ON:  G2 key: 43 velocity: 0
39000 
Channel: 9 Note ON:  G2 key: 43 velocity: 110
39037 
Channel: 9 Note ON:  G2 key: 43 velocity: 0
39120 
Channel: 9 Note ON:  G2 key: 43 velocity: 112
39158 
Channel: 9 Note ON:  G2 key: 43 velocity: 0
39240 
Channel: 9 Note ON:  G2 key: 43 velocity: 114
39277 
Channel: 9 Note ON:  G2 key: 43 velocity: 0
39480 
Channel: 9 Note ON:  A4 key: 69 velocity: 127
39482 
Channel: 9 Note ON:  A4 key: 69 velocity: 0
39720 
Channel: 9 Note ON:  A4 key: 69 velocity: 127
39723 
Channel: 9 Note ON:  A4 key: 69 velocity: 0
39960 
Channel: 9 Note ON:  A4 key: 69 velocity: 127
39966 
Channel: 9 Note ON:  A4 key: 69 velocity: 0
40080 
Channel: 9 Note ON:  G2 key: 43 velocity: 127
40080 
Channel: 9 Note ON:  B2 key: 47 velocity: 127
40083 
Channel: 9 Note ON:  B2 key: 47 velocity: 0
40083 
Channel: 9 Note ON:  G2 key: 43 velocity: 0
40200 
Channel: 9 Note ON:  A4 key: 69 velocity: 127
40202 
Channel: 9 Note ON:  A4 key: 69 velocity: 0
40440 
Channel: 9 Note ON:  A4 key: 69 velocity: 127
40443 
Channel: 9 Note ON:  A4 key: 69 velocity: 0
40680 
Channel: 9 Note ON:  A4 key: 69 velocity: 127
40682 
Channel: 9 Note ON:  A4 key: 69 velocity: 0
40920 
Channel: 9 Note ON:  C3 key: 48 velocity: 127
40920 
Channel: 9 Note ON:  C3 key: 48 velocity: 127
40920 
Channel: 9 Note ON:  B2 key: 47 velocity: 127
40920 
Channel: 9 Note ON:  A4 key: 69 velocity: 127
40926 
Channel: 9 Note ON:  A4 key: 69 velocity: 0
40926 
Channel: 9 Note ON:  B2 key: 47 velocity: 0
40927 
Channel: 9 Note ON:  C3 key: 48 velocity: 0
40927 
Channel: 9 Note ON:  C3 key: 48 velocity: 0
41160 
Channel: 9 Note ON:  A2 key: 45 velocity: 127
41160 
Channel: 9 Note ON:  A2 key: 45 velocity: 127
41160 
Channel: 9 Note ON:  G2 key: 43 velocity: 127
41160 
Channel: 9 Note ON:  A4 key: 69 velocity: 127
41166 
Channel: 9 Note ON:  A4 key: 69 velocity: 0
41166 
Channel: 9 Note ON:  G2 key: 43 velocity: 0
41166 
Channel: 9 Note ON:  A2 key: 45 velocity: 0
41167 
Channel: 9 Note ON:  A2 key: 45 velocity: 0
41400 
Channel: 9 Note ON:  A4 key: 69 velocity: 127
41402 
Channel: 9 Note ON:  A4 key: 69 velocity: 0
41640 
Channel: 9 Note ON:  A4 key: 69 velocity: 127
41642 
Channel: 9 Note ON:  A4 key: 69 velocity: 0
41880 
Channel: 9 Note ON:  A4 key: 69 velocity: 127
41885 
Channel: 9 Note ON:  A4 key: 69 velocity: 0
42000 
Channel: 9 Note ON:  G2 key: 43 velocity: 127
42000 
Channel: 9 Note ON:  B2 key: 47 velocity: 127
42004 
Channel: 9 Note ON:  B2 key: 47 velocity: 0
42004 
Channel: 9 Note ON:  G2 key: 43 velocity: 0
42120 
Channel: 9 Note ON:  A4 key: 69 velocity: 127
42122 
Channel: 9 Note ON:  A4 key: 69 velocity: 0
42360 
Channel: 9 Note ON:  A4 key: 69 velocity: 127
42363 
Channel: 9 Note ON:  A4 key: 69 velocity: 0
42600 
Channel: 9 Note ON:  A4 key: 69 velocity: 127
42602 
Channel: 9 Note ON:  A4 key: 69 velocity: 0
42840 
Channel: 9 Note ON:  C3 key: 48 velocity: 127
42840 
Channel: 9 Note ON:  C3 key: 48 velocity: 127
42840 
Channel: 9 Note ON:  B2 key: 47 velocity: 127
42840 
Channel: 9 Note ON:  A4 key: 69 velocity: 127
42846 
Channel: 9 Note ON:  A4 key: 69 velocity: 0
42846 
Channel: 9 Note ON:  B2 key: 47 velocity: 0
42847 
Channel: 9 Note ON:  C3 key: 48 velocity: 0
42848 
Channel: 9 Note ON:  C3 key: 48 velocity: 0
43080 
Channel: 9 Note ON:  A2 key: 45 velocity: 127
43080 
Channel: 9 Note ON:  A2 key: 45 velocity: 127
43080 
Channel: 9 Note ON:  G2 key: 43 velocity: 127
43080 
Channel: 9 Note ON:  A4 key: 69 velocity: 127
43085 
Channel: 9 Note ON:  A4 key: 69 velocity: 0
43086 
Channel: 9 Note ON:  G2 key: 43 velocity: 0
43086 
Channel: 9 Note ON:  A2 key: 45 velocity: 0
43087 
Channel: 9 Note ON:  A2 key: 45 velocity: 0
43320 
Channel: 9 Note ON:  A4 key: 69 velocity: 127
43323 
Channel: 9 Note ON:  A4 key: 69 velocity: 0
43560 
Channel: 9 Note ON:  A4 key: 69 velocity: 127
43563 
Channel: 9 Note ON:  A4 key: 69 velocity: 0
43800 
Channel: 9 Note ON:  A4 key: 69 velocity: 127
43805 
Channel: 9 Note ON:  A4 key: 69 velocity: 0
43920 
Channel: 9 Note ON:  G2 key: 43 velocity: 127
43920 
Channel: 9 Note ON:  B2 key: 47 velocity: 127
43923 
Channel: 9 Note ON:  B2 key: 47 velocity: 0
43924 
Channel: 9 Note ON:  G2 key: 43 velocity: 0
44040 
Channel: 9 Note ON:  A4 key: 69 velocity: 127
44042 
Channel: 9 Note ON:  A4 key: 69 velocity: 0
44280 
Channel: 9 Note ON:  A4 key: 69 velocity: 127
44283 
Channel: 9 Note ON:  A4 key: 69 velocity: 0
44520 
Channel: 9 Note ON:  A4 key: 69 velocity: 127
44522 
Channel: 9 Note ON:  A4 key: 69 velocity: 0
44760 
Channel: 9 Note ON:  C3 key: 48 velocity: 127
44760 
Channel: 9 Note ON:  C3 key: 48 velocity: 127
44760 
Channel: 9 Note ON:  B2 key: 47 velocity: 127
44760 
Channel: 9 Note ON:  A4 key: 69 velocity: 127
44765 
Channel: 9 Note ON:  A4 key: 69 velocity: 0
44765 
Channel: 9 Note ON:  B2 key: 47 velocity: 0
44766 
Channel: 9 Note ON:  C3 key: 48 velocity: 0
44767 
Channel: 9 Note ON:  C3 key: 48 velocity: 0
45000 
Channel: 9 Note ON:  A2 key: 45 velocity: 127
45000 
Channel: 9 Note ON:  A2 key: 45 velocity: 127
45000 
Channel: 9 Note ON:  G2 key: 43 velocity: 127
45000 
Channel: 9 Note ON:  A4 key: 69 velocity: 127
45005 
Channel: 9 Note ON:  A4 key: 69 velocity: 0
45005 
Channel: 9 Note ON:  A2 key: 45 velocity: 0
45006 
Channel: 9 Note ON:  G2 key: 43 velocity: 0
45007 
Channel: 9 Note ON:  A2 key: 45 velocity: 0
45240 
Channel: 9 Note ON:  A4 key: 69 velocity: 127
45242 
Channel: 9 Note ON:  A4 key: 69 velocity: 0
45480 
Channel: 9 Note ON:  A4 key: 69 velocity: 127
45483 
Channel: 9 Note ON:  A4 key: 69 velocity: 0
45720 
Channel: 9 Note ON:  A4 key: 69 velocity: 127
45725 
Channel: 9 Note ON:  A4 key: 69 velocity: 0
45840 
Channel: 9 Note ON:  G2 key: 43 velocity: 127
45840 
Channel: 9 Note ON:  B2 key: 47 velocity: 127
45843 
Channel: 9 Note ON:  B2 key: 47 velocity: 0
45844 
Channel: 9 Note ON:  G2 key: 43 velocity: 0
45960 
Channel: 9 Note ON:  A4 key: 69 velocity: 127
45962 
Channel: 9 Note ON:  A4 key: 69 velocity: 0
46200 
Channel: 9 Note ON:  A4 key: 69 velocity: 127
46202 
Channel: 9 Note ON:  A4 key: 69 velocity: 0
46440 
Channel: 9 Note ON:  A4 key: 69 velocity: 127
46443 
Channel: 9 Note ON:  A4 key: 69 velocity: 0
46680 
Channel: 9 Note ON:  C3 key: 48 velocity: 127
46680 
Channel: 9 Note ON:  C3 key: 48 velocity: 127
46680 
Channel: 9 Note ON:  B2 key: 47 velocity: 127
46680 
Channel: 9 Note ON:  A4 key: 69 velocity: 127
46685 
Channel: 9 Note ON:  A4 key: 69 velocity: 0
46686 
Channel: 9 Note ON:  B2 key: 47 velocity: 0
46686 
Channel: 9 Note ON:  C3 key: 48 velocity: 0
46687 
Channel: 9 Note ON:  C3 key: 48 velocity: 0
46920 
Channel: 9 Note ON:  A2 key: 45 velocity: 127
46920 
Channel: 9 Note ON:  A2 key: 45 velocity: 127
46920 
Channel: 9 Note ON:  G2 key: 43 velocity: 127
46920 
Channel: 9 Note ON:  A4 key: 69 velocity: 127
46925 
Channel: 9 Note ON:  A4 key: 69 velocity: 0
46926 
Channel: 9 Note ON:  G2 key: 43 velocity: 0
46926 
Channel: 9 Note ON:  A2 key: 45 velocity: 0
46927 
Channel: 9 Note ON:  A2 key: 45 velocity: 0
47160 
Channel: 9 Note ON:  A4 key: 69 velocity: 127
47162 
Channel: 9 Note ON:  A4 key: 69 velocity: 0
47400 
Channel: 9 Note ON:  A4 key: 69 velocity: 127
47403 
Channel: 9 Note ON:  A4 key: 69 velocity: 0
47640 
Channel: 9 Note ON:  A4 key: 69 velocity: 127
47646 
Channel: 9 Note ON:  A4 key: 69 velocity: 0
47760 
Channel: 9 Note ON:  G2 key: 43 velocity: 127
47760 
Channel: 9 Note ON:  B2 key: 47 velocity: 127
47763 
Channel: 9 Note ON:  B2 key: 47 velocity: 0
47763 
Channel: 9 Note ON:  G2 key: 43 velocity: 0
47880 
Channel: 9 Note ON:  A4 key: 69 velocity: 127
47882 
Channel: 9 Note ON:  A4 key: 69 velocity: 0
48120 
Channel: 9 Note ON:  A4 key: 69 velocity: 127
48123 
Channel: 9 Note ON:  A4 key: 69 velocity: 0
48360 
Channel: 9 Note ON:  A4 key: 69 velocity: 127
48362 
Channel: 9 Note ON:  A4 key: 69 velocity: 0
48600 
Channel: 9 Note ON:  C3 key: 48 velocity: 127
48600 
Channel: 9 Note ON:  C3 key: 48 velocity: 127
48600 
Channel: 9 Note ON:  B2 key: 47 velocity: 127
48600 
Channel: 9 Note ON:  A4 key: 69 velocity: 127
48606 
Channel: 9 Note ON:  A4 key: 69 velocity: 0
48606 
Channel: 9 Note ON:  B2 key: 47 velocity: 0
48607 
Channel: 9 Note ON:  C3 key: 48 velocity: 0
48607 
Channel: 9 Note ON:  C3 key: 48 velocity: 0
48840 
Channel: 9 Note ON:  A2 key: 45 velocity: 127
48840 
Channel: 9 Note ON:  A2 key: 45 velocity: 127
48840 
Channel: 9 Note ON:  G2 key: 43 velocity: 127
48840 
Channel: 9 Note ON:  A4 key: 69 velocity: 127
48846 
Channel: 9 Note ON:  A4 key: 69 velocity: 0
48846 
Channel: 9 Note ON:  G2 key: 43 velocity: 0
48846 
Channel: 9 Note ON:  A2 key: 45 velocity: 0
48847 
Channel: 9 Note ON:  A2 key: 45 velocity: 0
49080 
Channel: 9 Note ON:  A4 key: 69 velocity: 127
49082 
Channel: 9 Note ON:  A4 key: 69 velocity: 0
49320 
Channel: 9 Note ON:  A4 key: 69 velocity: 127
49322 
Channel: 9 Note ON:  A4 key: 69 velocity: 0
49560 
Channel: 9 Note ON:  A4 key: 69 velocity: 127
49565 
Channel: 9 Note ON:  A4 key: 69 velocity: 0
49680 
Channel: 9 Note ON:  G2 key: 43 velocity: 127
49680 
Channel: 9 Note ON:  B2 key: 47 velocity: 127
49684 
Channel: 9 Note ON:  B2 key: 47 velocity: 0
49684 
Channel: 9 Note ON:  G2 key: 43 velocity: 0
49800 
Channel: 9 Note ON:  A4 key: 69 velocity: 127
49802 
Channel: 9 Note ON:  A4 key: 69 velocity: 0
50040 
Channel: 9 Note ON:  A4 key: 69 velocity: 127
50043 
Channel: 9 Note ON:  A4 key: 69 velocity: 0
50280 
Channel: 9 Note ON:  A4 key: 69 velocity: 127
50282 
Channel: 9 Note ON:  A4 key: 69 velocity: 0
50520 
Channel: 9 Note ON:  C3 key: 48 velocity: 127
50520 
Channel: 9 Note ON:  C3 key: 48 velocity: 127
50520 
Channel: 9 Note ON:  B2 key: 47 velocity: 127
50520 
Channel: 9 Note ON:  A4 key: 69 velocity: 127
50526 
Channel: 9 Note ON:  A4 key: 69 velocity: 0
50526 
Channel: 9 Note ON:  B2 key: 47 velocity: 0
50527 
Channel: 9 Note ON:  C3 key: 48 velocity: 0
50528 
Channel: 9 Note ON:  C3 key: 48 velocity: 0
50760 
Channel: 9 Note ON:  A2 key: 45 velocity: 127
50760 
Channel: 9 Note ON:  A2 key: 45 velocity: 127
50760 
Channel: 9 Note ON:  G2 key: 43 velocity: 127
50760 
Channel: 9 Note ON:  A4 key: 69 velocity: 127
50765 
Channel: 9 Note ON:  A4 key: 69 velocity: 0
50766 
Channel: 9 Note ON:  G2 key: 43 velocity: 0
50766 
Channel: 9 Note ON:  A2 key: 45 velocity: 0
50767 
Channel: 9 Note ON:  A2 key: 45 velocity: 0
51000 
Channel: 9 Note ON:  A4 key: 69 velocity: 127
51003 
Channel: 9 Note ON:  A4 key: 69 velocity: 0
51240 
Channel: 9 Note ON:  A4 key: 69 velocity: 127
51243 
Channel: 9 Note ON:  A4 key: 69 velocity: 0
51480 
Channel: 9 Note ON:  A4 key: 69 velocity: 127
51485 
Channel: 9 Note ON:  A4 key: 69 velocity: 0
51600 
Channel: 9 Note ON:  G2 key: 43 velocity: 127
51600 
Channel: 9 Note ON:  B2 key: 47 velocity: 127
51603 
Channel: 9 Note ON:  B2 key: 47 velocity: 0
51604 
Channel: 9 Note ON:  G2 key: 43 velocity: 0
51720 
Channel: 9 Note ON:  A4 key: 69 velocity: 127
51722 
Channel: 9 Note ON:  A4 key: 69 velocity: 0
51960 
Channel: 9 Note ON:  A4 key: 69 velocity: 127
51963 
Channel: 9 Note ON:  A4 key: 69 velocity: 0
52200 
Channel: 9 Note ON:  A4 key: 69 velocity: 127
52202 
Channel: 9 Note ON:  A4 key: 69 velocity: 0
52440 
Channel: 9 Note ON:  C3 key: 48 velocity: 127
52440 
Channel: 9 Note ON:  C3 key: 48 velocity: 127
52440 
Channel: 9 Note ON:  B2 key: 47 velocity: 127
52440 
Channel: 9 Note ON:  A4 key: 69 velocity: 127
52445 
Channel: 9 Note ON:  A4 key: 69 velocity: 0
52445 
Channel: 9 Note ON:  B2 key: 47 velocity: 0
52446 
Channel: 9 Note ON:  C3 key: 48 velocity: 0
52447 
Channel: 9 Note ON:  C3 key: 48 velocity: 0
52680 
Channel: 9 Note ON:  A2 key: 45 velocity: 127
52680 
Channel: 9 Note ON:  A2 key: 45 velocity: 127
52680 
Channel: 9 Note ON:  G2 key: 43 velocity: 127
52680 
Channel: 9 Note ON:  A4 key: 69 velocity: 127
52685 
Channel: 9 Note ON:  A4 key: 69 velocity: 0
52685 
Channel: 9 Note ON:  A2 key: 45 velocity: 0
52686 
Channel: 9 Note ON:  G2 key: 43 velocity: 0
52687 
Channel: 9 Note ON:  A2 key: 45 velocity: 0
54840 
Channel: 9 Note ON:  A4 key: 69 velocity: 127
54842 
Channel: 9 Note ON:  A4 key: 69 velocity: 0
55080 
Channel: 9 Note ON:  A4 key: 69 velocity: 127
55083 
Channel: 9 Note ON:  A4 key: 69 velocity: 0
55320 
Channel: 9 Note ON:  A4 key: 69 velocity: 127
55325 
Channel: 9 Note ON:  A4 key: 69 velocity: 0
55440 
Channel: 9 Note ON:  G2 key: 43 velocity: 127
55440 
Channel: 9 Note ON:  B2 key: 47 velocity: 127
55443 
Channel: 9 Note ON:  B2 key: 47 velocity: 0
55444 
Channel: 9 Note ON:  G2 key: 43 velocity: 0
55560 
Channel: 9 Note ON:  A4 key: 69 velocity: 127
55562 
Channel: 9 Note ON:  A4 key: 69 velocity: 0
55800 
Channel: 9 Note ON:  A4 key: 69 velocity: 127
55802 
Channel: 9 Note ON:  A4 key: 69 velocity: 0
56040 
Channel: 9 Note ON:  A4 key: 69 velocity: 127
56043 
Channel: 9 Note ON:  A4 key: 69 velocity: 0
56280 
Channel: 9 Note ON:  C3 key: 48 velocity: 127
56280 
Channel: 9 Note ON:  C3 key: 48 velocity: 127
56280 
Channel: 9 Note ON:  B2 key: 47 velocity: 127
56280 
Channel: 9 Note ON:  A4 key: 69 velocity: 127
56285 
Channel: 9 Note ON:  A4 key: 69 velocity: 0
56286 
Channel: 9 Note ON:  B2 key: 47 velocity: 0
56286 
Channel: 9 Note ON:  C3 key: 48 velocity: 0
56287 
Channel: 9 Note ON:  C3 key: 48 velocity: 0
56520 
Channel: 9 Note ON:  A2 key: 45 velocity: 127
56520 
Channel: 9 Note ON:  A2 key: 45 velocity: 127
56520 
Channel: 9 Note ON:  G2 key: 43 velocity: 127
56520 
Channel: 9 Note ON:  A4 key: 69 velocity: 127
56525 
Channel: 9 Note ON:  A4 key: 69 velocity: 0
56526 
Channel: 9 Note ON:  G2 key: 43 velocity: 0
56526 
Channel: 9 Note ON:  A2 key: 45 velocity: 0
56527 
Channel: 9 Note ON:  A2 key: 45 velocity: 0
56760 
Channel: 9 Note ON:  A4 key: 69 velocity: 127
56762 
Channel: 9 Note ON:  A4 key: 69 velocity: 0
57000 
Channel: 9 Note ON:  A4 key: 69 velocity: 127
57003 
Channel: 9 Note ON:  A4 key: 69 velocity: 0
57240 
Channel: 9 Note ON:  A4 key: 69 velocity: 127
57246 
Channel: 9 Note ON:  A4 key: 69 velocity: 0
57360 
Channel: 9 Note ON:  G2 key: 43 velocity: 127
57360 
Channel: 9 Note ON:  B2 key: 47 velocity: 127
57363 
Channel: 9 Note ON:  B2 key: 47 velocity: 0
57363 
Channel: 9 Note ON:  G2 key: 43 velocity: 0
57480 
Channel: 9 Note ON:  A4 key: 69 velocity: 127
57482 
Channel: 9 Note ON:  A4 key: 69 velocity: 0
57720 
Channel: 9 Note ON:  A4 key: 69 velocity: 127
57723 
Channel: 9 Note ON:  A4 key: 69 velocity: 0
57960 
Channel: 9 Note ON:  A4 key: 69 velocity: 127
57962 
Channel: 9 Note ON:  A4 key: 69 velocity: 0
58200 
Channel: 9 Note ON:  C3 key: 48 velocity: 127
58200 
Channel: 9 Note ON:  C3 key: 48 velocity: 127
58200 
Channel: 9 Note ON:  B2 key: 47 velocity: 127
58200 
Channel: 9 Note ON:  A4 key: 69 velocity: 127
58206 
Channel: 9 Note ON:  A4 key: 69 velocity: 0
58206 
Channel: 9 Note ON:  B2 key: 47 velocity: 0
58207 
Channel: 9 Note ON:  C3 key: 48 velocity: 0
58207 
Channel: 9 Note ON:  C3 key: 48 velocity: 0
58440 
Channel: 9 Note ON:  A2 key: 45 velocity: 127
58440 
Channel: 9 Note ON:  A2 key: 45 velocity: 127
58440 
Channel: 9 Note ON:  G2 key: 43 velocity: 127
58440 
Channel: 9 Note ON:  A4 key: 69 velocity: 127
58446 
Channel: 9 Note ON:  A4 key: 69 velocity: 0
58446 
Channel: 9 Note ON:  G2 key: 43 velocity: 0
58446 
Channel: 9 Note ON:  A2 key: 45 velocity: 0
58447 
Channel: 9 Note ON:  A2 key: 45 velocity: 0
58680 
Channel: 9 Note ON:  A4 key: 69 velocity: 127
58682 
Channel: 9 Note ON:  A4 key: 69 velocity: 0
58920 
Channel: 9 Note ON:  A4 key: 69 velocity: 127
58923 
Channel: 9 Note ON:  A4 key: 69 velocity: 0
59160 
Channel: 9 Note ON:  A4 key: 69 velocity: 127
59165 
Channel: 9 Note ON:  A4 key: 69 velocity: 0
59280 
Channel: 9 Note ON:  G2 key: 43 velocity: 127
59280 
Channel: 9 Note ON:  B2 key: 47 velocity: 127
59283 
Channel: 9 Note ON:  B2 key: 47 velocity: 0
59284 
Channel: 9 Note ON:  G2 key: 43 velocity: 0
59400 
Channel: 9 Note ON:  A4 key: 69 velocity: 127
59402 
Channel: 9 Note ON:  A4 key: 69 velocity: 0
59640 
Channel: 9 Note ON:  A4 key: 69 velocity: 127
59642 
Channel: 9 Note ON:  A4 key: 69 velocity: 0
59880 
Channel: 9 Note ON:  A4 key: 69 velocity: 127
59883 
Channel: 9 Note ON:  A4 key: 69 velocity: 0
60120 
Channel: 9 Note ON:  C3 key: 48 velocity: 127
60120 
Channel: 9 Note ON:  C3 key: 48 velocity: 127
60120 
Channel: 9 Note ON:  B2 key: 47 velocity: 127
60120 
Channel: 9 Note ON:  A4 key: 69 velocity: 127
60125 
Channel: 9 Note ON:  A4 key: 69 velocity: 0
60126 
Channel: 9 Note ON:  B2 key: 47 velocity: 0
60126 
Channel: 9 Note ON:  C3 key: 48 velocity: 0
60127 
Channel: 9 Note ON:  C3 key: 48 velocity: 0
60360 
Channel: 9 Note ON:  A2 key: 45 velocity: 127
60360 
Channel: 9 Note ON:  A2 key: 45 velocity: 127
60360 
Channel: 9 Note ON:  G2 key: 43 velocity: 127
60360 
Channel: 9 Note ON:  A4 key: 69 velocity: 127
60365 
Channel: 9 Note ON:  A4 key: 69 velocity: 0
60366 
Channel: 9 Note ON:  G2 key: 43 velocity: 0
60366 
Channel: 9 Note ON:  A2 key: 45 velocity: 0
60367 
Channel: 9 Note ON:  A2 key: 45 velocity: 0
60600 
Channel: 9 Note ON:  A4 key: 69 velocity: 127
60602 
Channel: 9 Note ON:  A4 key: 69 velocity: 0
60840 
Channel: 9 Note ON:  A4 key: 69 velocity: 127
60843 
Channel: 9 Note ON:  A4 key: 69 velocity: 0
61080 
Channel: 9 Note ON:  A4 key: 69 velocity: 127
61086 
Channel: 9 Note ON:  A4 key: 69 velocity: 0
61200 
Channel: 9 Note ON:  G2 key: 43 velocity: 127
61200 
Channel: 9 Note ON:  B2 key: 47 velocity: 127
61203 
Channel: 9 Note ON:  B2 key: 47 velocity: 0
61203 
Channel: 9 Note ON:  G2 key: 43 velocity: 0
61320 
Channel: 9 Note ON:  A4 key: 69 velocity: 127
61322 
Channel: 9 Note ON:  A4 key: 69 velocity: 0
61560 
Channel: 9 Note ON:  A4 key: 69 velocity: 127
61563 
Channel: 9 Note ON:  A4 key: 69 velocity: 0
61800 
Channel: 9 Note ON:  A4 key: 69 velocity: 127
61802 
Channel: 9 Note ON:  A4 key: 69 velocity: 0
62040 
Channel: 9 Note ON:  C3 key: 48 velocity: 127
62040 
Channel: 9 Note ON:  C3 key: 48 velocity: 127
62040 
Channel: 9 Note ON:  B2 key: 47 velocity: 127
62040 
Channel: 9 Note ON:  A4 key: 69 velocity: 127
62046 
Channel: 9 Note ON:  A4 key: 69 velocity: 0
62046 
Channel: 9 Note ON:  B2 key: 47 velocity: 0
62047 
Channel: 9 Note ON:  C3 key: 48 velocity: 0
62047 
Channel: 9 Note ON:  C3 key: 48 velocity: 0
62280 
Channel: 9 Note ON:  A2 key: 45 velocity: 127
62280 
Channel: 9 Note ON:  A2 key: 45 velocity: 127
62280 
Channel: 9 Note ON:  G2 key: 43 velocity: 127
62280 
Channel: 9 Note ON:  A4 key: 69 velocity: 127
62286 
Channel: 9 Note ON:  A4 key: 69 velocity: 0
62286 
Channel: 9 Note ON:  G2 key: 43 velocity: 0
62286 
Channel: 9 Note ON:  A2 key: 45 velocity: 0
62287 
Channel: 9 Note ON:  A2 key: 45 velocity: 0
62520 
Channel: 9 Note ON:  A4 key: 69 velocity: 127
62522 
Channel: 9 Note ON:  A4 key: 69 velocity: 0
62760 
Channel: 9 Note ON:  A4 key: 69 velocity: 127
62762 
Channel: 9 Note ON:  A4 key: 69 velocity: 0
63000 
Channel: 9 Note ON:  A4 key: 69 velocity: 127
63005 
Channel: 9 Note ON:  A4 key: 69 velocity: 0
63120 
Channel: 9 Note ON:  G2 key: 43 velocity: 127
63120 
Channel: 9 Note ON:  B2 key: 47 velocity: 127
63124 
Channel: 9 Note ON:  B2 key: 47 velocity: 0
63124 
Channel: 9 Note ON:  G2 key: 43 velocity: 0
63240 
Channel: 9 Note ON:  A4 key: 69 velocity: 127
63242 
Channel: 9 Note ON:  A4 key: 69 velocity: 0
63480 
Channel: 9 Note ON:  A4 key: 69 velocity: 127
63483 
Channel: 9 Note ON:  A4 key: 69 velocity: 0
63720 
Channel: 9 Note ON:  A4 key: 69 velocity: 127
63722 
Channel: 9 Note ON:  A4 key: 69 velocity: 0
63960 
Channel: 9 Note ON:  C3 key: 48 velocity: 127
63960 
Channel: 9 Note ON:  C3 key: 48 velocity: 127
63960 
Channel: 9 Note ON:  B2 key: 47 velocity: 127
63960 
Channel: 9 Note ON:  A4 key: 69 velocity: 127
63966 
Channel: 9 Note ON:  A4 key: 69 velocity: 0
63966 
Channel: 9 Note ON:  B2 key: 47 velocity: 0
63967 
Channel: 9 Note ON:  C3 key: 48 velocity: 0
63968 
Channel: 9 Note ON:  C3 key: 48 velocity: 0
64200 
Channel: 9 Note ON:  A2 key: 45 velocity: 127
64200 
Channel: 9 Note ON:  A2 key: 45 velocity: 127
64200 
Channel: 9 Note ON:  G2 key: 43 velocity: 127
64200 
Channel: 9 Note ON:  A4 key: 69 velocity: 127
64205 
Channel: 9 Note ON:  A4 key: 69 velocity: 0
64206 
Channel: 9 Note ON:  G2 key: 43 velocity: 0
64206 
Channel: 9 Note ON:  A2 key: 45 velocity: 0
64207 
Channel: 9 Note ON:  A2 key: 45 velocity: 0
64440 
Channel: 9 Note ON:  A4 key: 69 velocity: 127
64443 
Channel: 9 Note ON:  A4 key: 69 velocity: 0
64680 
Channel: 9 Note ON:  A4 key: 69 velocity: 127
64683 
Channel: 9 Note ON:  A4 key: 69 velocity: 0
64920 
Channel: 9 Note ON:  A4 key: 69 velocity: 127
64925 
Channel: 9 Note ON:  A4 key: 69 velocity: 0
65040 
Channel: 9 Note ON:  G2 key: 43 velocity: 127
65040 
Channel: 9 Note ON:  B2 key: 47 velocity: 127
65043 
Channel: 9 Note ON:  B2 key: 47 velocity: 0
65044 
Channel: 9 Note ON:  G2 key: 43 velocity: 0
65160 
Channel: 9 Note ON:  A4 key: 69 velocity: 127
65162 
Channel: 9 Note ON:  A4 key: 69 velocity: 0
65400 
Channel: 9 Note ON:  A4 key: 69 velocity: 127
65403 
Channel: 9 Note ON:  A4 key: 69 velocity: 0
65640 
Channel: 9 Note ON:  A4 key: 69 velocity: 127
65642 
Channel: 9 Note ON:  A4 key: 69 velocity: 0
65880 
Channel: 9 Note ON:  C3 key: 48 velocity: 127
65880 
Channel: 9 Note ON:  C3 key: 48 velocity: 127
65880 
Channel: 9 Note ON:  B2 key: 47 velocity: 127
65880 
Channel: 9 Note ON:  A4 key: 69 velocity: 127
65885 
Channel: 9 Note ON:  A4 key: 69 velocity: 0
65885 
Channel: 9 Note ON:  B2 key: 47 velocity: 0
65886 
Channel: 9 Note ON:  C3 key: 48 velocity: 0
65887 
Channel: 9 Note ON:  C3 key: 48 velocity: 0
66120 
Channel: 9 Note ON:  A2 key: 45 velocity: 127
66120 
Channel: 9 Note ON:  A2 key: 45 velocity: 127
66120 
Channel: 9 Note ON:  G2 key: 43 velocity: 127
66120 
Channel: 9 Note ON:  A4 key: 69 velocity: 127
66125 
Channel: 9 Note ON:  A4 key: 69 velocity: 0
66125 
Channel: 9 Note ON:  A2 key: 45 velocity: 0
66126 
Channel: 9 Note ON:  G2 key: 43 velocity: 0
66127 
Channel: 9 Note ON:  A2 key: 45 velocity: 0
66360 
Channel: 9 Note ON:  A4 key: 69 velocity: 127
66362 
Channel: 9 Note ON:  A4 key: 69 velocity: 0
66600 
Channel: 9 Note ON:  A4 key: 69 velocity: 127
66603 
Channel: 9 Note ON:  A4 key: 69 velocity: 0
66840 
Channel: 9 Note ON:  A4 key: 69 velocity: 127
66845 
Channel: 9 Note ON:  A4 key: 69 velocity: 0
66960 
Channel: 9 Note ON:  G2 key: 43 velocity: 127
66960 
Channel: 9 Note ON:  B2 key: 47 velocity: 127
66963 
Channel: 9 Note ON:  B2 key: 47 velocity: 0
66964 
Channel: 9 Note ON:  G2 key: 43 velocity: 0
67080 
Channel: 9 Note ON:  A4 key: 69 velocity: 127
67082 
Channel: 9 Note ON:  A4 key: 69 velocity: 0
67320 
Channel: 9 Note ON:  A4 key: 69 velocity: 127
67322 
Channel: 9 Note ON:  A4 key: 69 velocity: 0
67560 
Channel: 9 Note ON:  A4 key: 69 velocity: 127
67563 
Channel: 9 Note ON:  A4 key: 69 velocity: 0
67800 
Channel: 9 Note ON:  C3 key: 48 velocity: 127
67800 
Channel: 9 Note ON:  C3 key: 48 velocity: 127
67800 
Channel: 9 Note ON:  B2 key: 47 velocity: 127
67800 
Channel: 9 Note ON:  A4 key: 69 velocity: 127
67805 
Channel: 9 Note ON:  A4 key: 69 velocity: 0
67806 
Channel: 9 Note ON:  B2 key: 47 velocity: 0
67806 
Channel: 9 Note ON:  C3 key: 48 velocity: 0
67807 
Channel: 9 Note ON:  C3 key: 48 velocity: 0
68040 
Channel: 9 Note ON:  A2 key: 45 velocity: 127
68040 
Channel: 9 Note ON:  A2 key: 45 velocity: 127
68040 
Channel: 9 Note ON:  G2 key: 43 velocity: 127
68040 
Channel: 9 Note ON:  A4 key: 69 velocity: 127
68045 
Channel: 9 Note ON:  A4 key: 69 velocity: 0
68046 
Channel: 9 Note ON:  G2 key: 43 velocity: 0
68046 
Channel: 9 Note ON:  A2 key: 45 velocity: 0
68047 
Channel: 9 Note ON:  A2 key: 45 velocity: 0
68280 
Channel: 9 Note ON:  A4 key: 69 velocity: 127
68282 
Channel: 9 Note ON:  A4 key: 69 velocity: 0
68520 
Channel: 9 Note ON:  A4 key: 69 velocity: 127
68523 
Channel: 9 Note ON:  A4 key: 69 velocity: 0
68760 
Channel: 9 Note ON:  A4 key: 69 velocity: 127
68766 
Channel: 9 Note ON:  A4 key: 69 velocity: 0
68880 
Channel: 9 Note ON:  G2 key: 43 velocity: 127
68880 
Channel: 9 Note ON:  B2 key: 47 velocity: 127
68883 
Channel: 9 Note ON:  B2 key: 47 velocity: 0
68883 
Channel: 9 Note ON:  G2 key: 43 velocity: 0
69000 
Channel: 9 Note ON:  A4 key: 69 velocity: 127
69002 
Channel: 9 Note ON:  A4 key: 69 velocity: 0
69240 
Channel: 9 Note ON:  A4 key: 69 velocity: 127
69243 
Channel: 9 Note ON:  A4 key: 69 velocity: 0
69480 
Channel: 9 Note ON:  A4 key: 69 velocity: 127
69482 
Channel: 9 Note ON:  A4 key: 69 velocity: 0
69720 
Channel: 9 Note ON:  C3 key: 48 velocity: 127
69720 
Channel: 9 Note ON:  C3 key: 48 velocity: 127
69720 
Channel: 9 Note ON:  B2 key: 47 velocity: 127
69720 
Channel: 9 Note ON:  A4 key: 69 velocity: 127
69726 
Channel: 9 Note ON:  A4 key: 69 velocity: 0
69726 
Channel: 9 Note ON:  B2 key: 47 velocity: 0
69727 
Channel: 9 Note ON:  C3 key: 48 velocity: 0
69727 
Channel: 9 Note ON:  C3 key: 48 velocity: 0
69960 
Channel: 9 Note ON:  A2 key: 45 velocity: 127
69960 
Channel: 9 Note ON:  A2 key: 45 velocity: 127
69960 
Channel: 9 Note ON:  G2 key: 43 velocity: 127
69960 
Channel: 9 Note ON:  A4 key: 69 velocity: 127
69966 
Channel: 9 Note ON:  A4 key: 69 velocity: 0
69966 
Channel: 9 Note ON:  G2 key: 43 velocity: 0
69966 
Channel: 9 Note ON:  A2 key: 45 velocity: 0
69967 
Channel: 9 Note ON:  A2 key: 45 velocity: 0
70200 
Channel: 9 Note ON:  A4 key: 69 velocity: 127
70202 
Channel: 9 Note ON:  A4 key: 69 velocity: 0
70440 
Channel: 9 Note ON:  A4 key: 69 velocity: 127
70442 
Channel: 9 Note ON:  A4 key: 69 velocity: 0
70680 
Channel: 9 Note ON:  A4 key: 69 velocity: 127
70685 
Channel: 9 Note ON:  A4 key: 69 velocity: 0
70800 
Channel: 9 Note ON:  G2 key: 43 velocity: 127
70800 
Channel: 9 Note ON:  B2 key: 47 velocity: 127
70804 
Channel: 9 Note ON:  B2 key: 47 velocity: 0
70804 
Channel: 9 Note ON:  G2 key: 43 velocity: 0
70920 
Channel: 9 Note ON:  A4 key: 69 velocity: 127
70922 
Channel: 9 Note ON:  A4 key: 69 velocity: 0
71160 
Channel: 9 Note ON:  A4 key: 69 velocity: 127
71163 
Channel: 9 Note ON:  A4 key: 69 velocity: 0
71400 
Channel: 9 Note ON:  A4 key: 69 velocity: 127
71402 
Channel: 9 Note ON:  A4 key: 69 velocity: 0
71640 
Channel: 9 Note ON:  C3 key: 48 velocity: 127
71640 
Channel: 9 Note ON:  C3 key: 48 velocity: 127
71640 
Channel: 9 Note ON:  B2 key: 47 velocity: 127
71640 
Channel: 9 Note ON:  A4 key: 69 velocity: 127
71646 
Channel: 9 Note ON:  A4 key: 69 velocity: 0
71646 
Channel: 9 Note ON:  B2 key: 47 velocity: 0
71647 
Channel: 9 Note ON:  C3 key: 48 velocity: 0
71648 
Channel: 9 Note ON:  C3 key: 48 velocity: 0
71880 
Channel: 9 Note ON:  A2 key: 45 velocity: 127
71880 
Channel: 9 Note ON:  A2 key: 45 velocity: 127
71880 
Channel: 9 Note ON:  G2 key: 43 velocity: 127
71880 
Channel: 9 Note ON:  A4 key: 69 velocity: 127
71885 
Channel: 9 Note ON:  A4 key: 69 velocity: 0
71886 
Channel: 9 Note ON:  G2 key: 43 velocity: 0
71886 
Channel: 9 Note ON:  A2 key: 45 velocity: 0
71887 
Channel: 9 Note ON:  A2 key: 45 velocity: 0
72120 
Channel: 9 Note ON:  A4 key: 69 velocity: 127
72123 
Channel: 9 Note ON:  A4 key: 69 velocity: 0
72360 
Channel: 9 Note ON:  A4 key: 69 velocity: 127
72363 
Channel: 9 Note ON:  A4 key: 69 velocity: 0
72600 
Channel: 9 Note ON:  A4 key: 69 velocity: 127
72605 
Channel: 9 Note ON:  A4 key: 69 velocity: 0
72720 
Channel: 9 Note ON:  G2 key: 43 velocity: 127
72720 
Channel: 9 Note ON:  B2 key: 47 velocity: 127
72723 
Channel: 9 Note ON:  B2 key: 47 velocity: 0
72724 
Channel: 9 Note ON:  G2 key: 43 velocity: 0
72840 
Channel: 9 Note ON:  A4 key: 69 velocity: 127
72842 
Channel: 9 Note ON:  A4 key: 69 velocity: 0
73080 
Channel: 9 Note ON:  A2 key: 45 velocity: 127
73080 
Channel: 9 Note ON:  A4 key: 69 velocity: 127
73083 
Channel: 9 Note ON:  A4 key: 69 velocity: 0
73099 
Channel: 9 Note ON:  A2 key: 45 velocity: 0
73200 
Channel: 9 Note ON:  A2 key: 45 velocity: 127
73225 
Channel: 9 Note ON:  A2 key: 45 velocity: 0
73320 
Channel: 9 Note ON:  A2 key: 45 velocity: 127
73320 
Channel: 9 Note ON:  A4 key: 69 velocity: 127
73322 
Channel: 9 Note ON:  A4 key: 69 velocity: 0
73351 
Channel: 9 Note ON:  A2 key: 45 velocity: 0
73440 
Channel: 9 Note ON:  A2 key: 45 velocity: 127
73469 
Channel: 9 Note ON:  A2 key: 45 velocity: 0
73560 
Channel: 9 Note ON:  A2 key: 45 velocity: 127
73560 
Channel: 9 Note ON:  C3 key: 48 velocity: 127
73560 
Channel: 9 Note ON:  C3 key: 48 velocity: 127
73560 
Channel: 9 Note ON:  B2 key: 47 velocity: 127
73560 
Channel: 9 Note ON:  A4 key: 69 velocity: 127
73565 
Channel: 9 Note ON:  A4 key: 69 velocity: 0
73565 
Channel: 9 Note ON:  B2 key: 47 velocity: 0
73566 
Channel: 9 Note ON:  C3 key: 48 velocity: 0
73567 
Channel: 9 Note ON:  C3 key: 48 velocity: 0
73592 
Channel: 9 Note ON:  A2 key: 45 velocity: 0
73680 
Channel: 9 Note ON:  A2 key: 45 velocity: 127
73704 
Channel: 9 Note ON:  A2 key: 45 velocity: 0
73800 
Channel: 9 Note ON:  A2 key: 45 velocity: 127
73800 
Channel: 9 Note ON:  A2 key: 45 velocity: 127
73800 
Channel: 9 Note ON:  A2 key: 45 velocity: 127
73800 
Channel: 9 Note ON:  G2 key: 43 velocity: 127
73800 
Channel: 9 Note ON:  A4 key: 69 velocity: 127
73805 
Channel: 9 Note ON:  A4 key: 69 velocity: 0
73805 
Channel: 9 Note ON:  A2 key: 45 velocity: 0
73806 
Channel: 9 Note ON:  G2 key: 43 velocity: 0
73807 
Channel: 9 Note ON:  A2 key: 45 velocity: 0
73832 
Channel: 9 Note ON:  A2 key: 45 velocity: 0
74040 
Channel: 9 Note ON:  A4 key: 69 velocity: 127
74042 
Channel: 9 Note ON:  A4 key: 69 velocity: 0
74280 
Channel: 9 Note ON:  A4 key: 69 velocity: 127
74283 
Channel: 9 Note ON:  A4 key: 69 velocity: 0
74520 
Channel: 9 Note ON:  A4 key: 69 velocity: 127
74526 
Channel: 9 Note ON:  A4 key: 69 velocity: 0
74640 
Channel: 9 Note ON:  G2 key: 43 velocity: 127
74640 
Channel: 9 Note ON:  B2 key: 47 velocity: 127
74643 
Channel: 9 Note ON:  B2 key: 47 velocity: 0
74643 
Channel: 9 Note ON:  G2 key: 43 velocity: 0
74760 
Channel: 9 Note ON:  A4 key: 69 velocity: 127
74762 
Channel: 9 Note ON:  A4 key: 69 velocity: 0
75000 
Channel: 9 Note ON:  A4 key: 69 velocity: 127
75003 
Channel: 9 Note ON:  A4 key: 69 velocity: 0
75240 
Channel: 9 Note ON:  A4 key: 69 velocity: 127
75242 
Channel: 9 Note ON:  A4 key: 69 velocity: 0
75480 
Channel: 9 Note ON:  C3 key: 48 velocity: 127
75480 
Channel: 9 Note ON:  C3 key: 48 velocity: 127
75480 
Channel: 9 Note ON:  B2 key: 47 velocity: 127
75480 
Channel: 9 Note ON:  A4 key: 69 velocity: 127
75486 
Channel: 9 Note ON:  A4 key: 69 velocity: 0
75486 
Channel: 9 Note ON:  B2 key: 47 velocity: 0
75487 
Channel: 9 Note ON:  C3 key: 48 velocity: 0
75487 
Channel: 9 Note ON:  C3 key: 48 velocity: 0
75720 
Channel: 9 Note ON:  A2 key: 45 velocity: 127
75720 
Channel: 9 Note ON:  A2 key: 45 velocity: 127
75720 
Channel: 9 Note ON:  G2 key: 43 velocity: 127
75720 
Channel: 9 Note ON:  A4 key: 69 velocity: 127
75726 
Channel: 9 Note ON:  A4 key: 69 velocity: 0
75726 
Channel: 9 Note ON:  G2 key: 43 velocity: 0
75726 
Channel: 9 Note ON:  A2 key: 45 velocity: 0
75727 
Channel: 9 Note ON:  A2 key: 45 velocity: 0
75960 
Channel: 9 Note ON:  A4 key: 69 velocity: 127
75962 
Channel: 9 Note ON:  A4 key: 69 velocity: 0
76200 
Channel: 9 Note ON:  A4 key: 69 velocity: 127
76202 
Channel: 9 Note ON:  A4 key: 69 velocity: 0
76440 
Channel: 9 Note ON:  A4 key: 69 velocity: 127
76445 
Channel: 9 Note ON:  A4 key: 69 velocity: 0
76560 
Channel: 9 Note ON:  G2 key: 43 velocity: 127
76560 
Channel: 9 Note ON:  B2 key: 47 velocity: 127
76564 
Channel: 9 Note ON:  B2 key: 47 velocity: 0
76564 
Channel: 9 Note ON:  G2 key: 43 velocity: 0
76680 
Channel: 9 Note ON:  A4 key: 69 velocity: 127
76682 
Channel: 9 Note ON:  A4 key: 69 velocity: 0
76920 
Channel: 9 Note ON:  A4 key: 69 velocity: 127
76923 
Channel: 9 Note ON:  A4 key: 69 velocity: 0
77160 
Channel: 9 Note ON:  A4 key: 69 velocity: 127
77162 
Channel: 9 Note ON:  A4 key: 69 velocity: 0
77400 
Channel: 9 Note ON:  C3 key: 48 velocity: 127
77400 
Channel: 9 Note ON:  C3 key: 48 velocity: 127
77400 
Channel: 9 Note ON:  B2 key: 47 velocity: 127
77400 
Channel: 9 Note ON:  A4 key: 69 velocity: 127
77406 
Channel: 9 Note ON:  A4 key: 69 velocity: 0
77406 
Channel: 9 Note ON:  B2 key: 47 velocity: 0
77407 
Channel: 9 Note ON:  C3 key: 48 velocity: 0
77408 
Channel: 9 Note ON:  C3 key: 48 velocity: 0
77640 
Channel: 9 Note ON:  A2 key: 45 velocity: 127
77640 
Channel: 9 Note ON:  A2 key: 45 velocity: 127
77640 
Channel: 9 Note ON:  G2 key: 43 velocity: 127
77640 
Channel: 9 Note ON:  A4 key: 69 velocity: 127
77645 
Channel: 9 Note ON:  A4 key: 69 velocity: 0
77646 
Channel: 9 Note ON:  G2 key: 43 velocity: 0
77646 
Channel: 9 Note ON:  A2 key: 45 velocity: 0
77647 
Channel: 9 Note ON:  A2 key: 45 velocity: 0
77880 
Channel: 9 Note ON:  A4 key: 69 velocity: 127
77883 
Channel: 9 Note ON:  A4 key: 69 velocity: 0
78120 
Channel: 9 Note ON:  A4 key: 69 velocity: 127
78123 
Channel: 9 Note ON:  A4 key: 69 velocity: 0
78360 
Channel: 9 Note ON:  A4 key: 69 velocity: 127
78365 
Channel: 9 Note ON:  A4 key: 69 velocity: 0
78480 
Channel: 9 Note ON:  G2 key: 43 velocity: 127
78480 
Channel: 9 Note ON:  B2 key: 47 velocity: 127
78483 
Channel: 9 Note ON:  B2 key: 47 velocity: 0
78484 
Channel: 9 Note ON:  G2 key: 43 velocity: 0
78600 
Channel: 9 Note ON:  A4 key: 69 velocity: 127
78602 
Channel: 9 Note ON:  A4 key: 69 velocity: 0
78840 
Channel: 9 Note ON:  A4 key: 69 velocity: 127
78843 
Channel: 9 Note ON:  A4 key: 69 velocity: 0
79080 
Channel: 9 Note ON:  A4 key: 69 velocity: 127
79082 
Channel: 9 Note ON:  A4 key: 69 velocity: 0
79320 
Channel: 9 Note ON:  C3 key: 48 velocity: 127
79320 
Channel: 9 Note ON:  C3 key: 48 velocity: 127
79320 
Channel: 9 Note ON:  B2 key: 47 velocity: 127
79320 
Channel: 9 Note ON:  A4 key: 69 velocity: 127
79325 
Channel: 9 Note ON:  A4 key: 69 velocity: 0
79325 
Channel: 9 Note ON:  B2 key: 47 velocity: 0
79326 
Channel: 9 Note ON:  C3 key: 48 velocity: 0
79327 
Channel: 9 Note ON:  C3 key: 48 velocity: 0
79560 
Channel: 9 Note ON:  A2 key: 45 velocity: 127
79560 
Channel: 9 Note ON:  A2 key: 45 velocity: 127
79560 
Channel: 9 Note ON:  G2 key: 43 velocity: 127
79560 
Channel: 9 Note ON:  A4 key: 69 velocity: 127
79565 
Channel: 9 Note ON:  A4 key: 69 velocity: 0
79565 
Channel: 9 Note ON:  A2 key: 45 velocity: 0
79566 
Channel: 9 Note ON:  G2 key: 43 velocity: 0
79567 
Channel: 9 Note ON:  A2 key: 45 velocity: 0
79800 
Channel: 9 Note ON:  A4 key: 69 velocity: 127
79802 
Channel: 9 Note ON:  A4 key: 69 velocity: 0
80040 
Channel: 9 Note ON:  A4 key: 69 velocity: 127
80043 
Channel: 9 Note ON:  A4 key: 69 velocity: 0
80280 
Channel: 9 Note ON:  A4 key: 69 velocity: 127
80285 
Channel: 9 Note ON:  A4 key: 69 velocity: 0
80400 
Channel: 9 Note ON:  G2 key: 43 velocity: 127
80400 
Channel: 9 Note ON:  B2 key: 47 velocity: 127
80403 
Channel: 9 Note ON:  B2 key: 47 velocity: 0
80404 
Channel: 9 Note ON:  G2 key: 43 velocity: 0
80520 
Channel: 9 Note ON:  A4 key: 69 velocity: 127
80522 
Channel: 9 Note ON:  A4 key: 69 velocity: 0
80760 
Channel: 9 Note ON:  A4 key: 69 velocity: 127
80762 
Channel: 9 Note ON:  A4 key: 69 velocity: 0
81000 
Channel: 9 Note ON:  A4 key: 69 velocity: 127
81003 
Channel: 9 Note ON:  A4 key: 69 velocity: 0
81240 
Channel: 9 Note ON:  C3 key: 48 velocity: 127
81240 
Channel: 9 Note ON:  C3 key: 48 velocity: 127
81240 
Channel: 9 Note ON:  B2 key: 47 velocity: 127
81240 
Channel: 9 Note ON:  A4 key: 69 velocity: 127
81245 
Channel: 9 Note ON:  A4 key: 69 velocity: 0
81246 
Channel: 9 Note ON:  B2 key: 47 velocity: 0
81246 
Channel: 9 Note ON:  C3 key: 48 velocity: 0
81247 
Channel: 9 Note ON:  C3 key: 48 velocity: 0
81480 
Channel: 9 Note ON:  A2 key: 45 velocity: 127
81480 
Channel: 9 Note ON:  A2 key: 45 velocity: 127
81480 
Channel: 9 Note ON:  G2 key: 43 velocity: 127
81480 
Channel: 9 Note ON:  A4 key: 69 velocity: 127
81485 
Channel: 9 Note ON:  A4 key: 69 velocity: 0
81486 
Channel: 9 Note ON:  G2 key: 43 velocity: 0
81486 
Channel: 9 Note ON:  A2 key: 45 velocity: 0
81487 
Channel: 9 Note ON:  A2 key: 45 velocity: 0
81720 
Channel: 9 Note ON:  A4 key: 69 velocity: 127
81722 
Channel: 9 Note ON:  A4 key: 69 velocity: 0
81960 
Channel: 9 Note ON:  A4 key: 69 velocity: 127
81963 
Channel: 9 Note ON:  A4 key: 69 velocity: 0
82200 
Channel: 9 Note ON:  A4 key: 69 velocity: 127
82206 
Channel: 9 Note ON:  A4 key: 69 velocity: 0
82320 
Channel: 9 Note ON:  G2 key: 43 velocity: 127
82320 
Channel: 9 Note ON:  B2 key: 47 velocity: 127
82323 
Channel: 9 Note ON:  B2 key: 47 velocity: 0
82323 
Channel: 9 Note ON:  G2 key: 43 velocity: 0
82440 
Channel: 9 Note ON:  A4 key: 69 velocity: 127
82442 
Channel: 9 Note ON:  A4 key: 69 velocity: 0
82680 
Channel: 9 Note ON:  A4 key: 69 velocity: 127
82683 
Channel: 9 Note ON:  A4 key: 69 velocity: 0
82920 
Channel: 9 Note ON:  A4 key: 69 velocity: 127
82922 
Channel: 9 Note ON:  A4 key: 69 velocity: 0
83160 
Channel: 9 Note ON:  C3 key: 48 velocity: 127
83160 
Channel: 9 Note ON:  C3 key: 48 velocity: 127
83160 
Channel: 9 Note ON:  B2 key: 47 velocity: 127
83160 
Channel: 9 Note ON:  A4 key: 69 velocity: 127
83166 
Channel: 9 Note ON:  A4 key: 69 velocity: 0
83166 
Channel: 9 Note ON:  B2 key: 47 velocity: 0
83167 
Channel: 9 Note ON:  C3 key: 48 velocity: 0
83167 
Channel: 9 Note ON:  C3 key: 48 velocity: 0
83400 
Channel: 9 Note ON:  A2 key: 45 velocity: 127
83400 
Channel: 9 Note ON:  A2 key: 45 velocity: 127
83400 
Channel: 9 Note ON:  G2 key: 43 velocity: 127
83400 
Channel: 9 Note ON:  A4 key: 69 velocity: 127
83406 
Channel: 9 Note ON:  A4 key: 69 velocity: 0
83406 
Channel: 9 Note ON:  G2 key: 43 velocity: 0
83406 
Channel: 9 Note ON:  A2 key: 45 velocity: 0
83407 
Channel: 9 Note ON:  A2 key: 45 velocity: 0
83640 
Channel: 9 Note ON:  A4 key: 69 velocity: 127
83642 
Channel: 9 Note ON:  A4 key: 69 velocity: 0
83880 
Channel: 9 Note ON:  A4 key: 69 velocity: 127
83882 
Channel: 9 Note ON:  A4 key: 69 velocity: 0
84120 
Channel: 9 Note ON:  A4 key: 69 velocity: 127
84125 
Channel: 9 Note ON:  A4 key: 69 velocity: 0
84240 
Channel: 9 Note ON:  G2 key: 43 velocity: 127
84240 
Channel: 9 Note ON:  B2 key: 47 velocity: 127
84244 
Channel: 9 Note ON:  B2 key: 47 velocity: 0
84244 
Channel: 9 Note ON:  G2 key: 43 velocity: 0
84360 
Channel: 9 Note ON:  A4 key: 69 velocity: 127
84362 
Channel: 9 Note ON:  A4 key: 69 velocity: 0
84600 
Channel: 9 Note ON:  A4 key: 69 velocity: 127
84603 
Channel: 9 Note ON:  A4 key: 69 velocity: 0
84840 
Channel: 9 Note ON:  A4 key: 69 velocity: 127
84842 
Channel: 9 Note ON:  A4 key: 69 velocity: 0
85080 
Channel: 9 Note ON:  C3 key: 48 velocity: 127
85080 
Channel: 9 Note ON:  C3 key: 48 velocity: 127
85080 
Channel: 9 Note ON:  B2 key: 47 velocity: 127
85080 
Channel: 9 Note ON:  A4 key: 69 velocity: 127
85086 
Channel: 9 Note ON:  A4 key: 69 velocity: 0
85086 
Channel: 9 Note ON:  B2 key: 47 velocity: 0
85087 
Channel: 9 Note ON:  C3 key: 48 velocity: 0
85088 
Channel: 9 Note ON:  C3 key: 48 velocity: 0
85320 
Channel: 9 Note ON:  A2 key: 45 velocity: 127
85320 
Channel: 9 Note ON:  A2 key: 45 velocity: 127
85320 
Channel: 9 Note ON:  G2 key: 43 velocity: 127
85320 
Channel: 9 Note ON:  A4 key: 69 velocity: 127
85325 
Channel: 9 Note ON:  A4 key: 69 velocity: 0
85326 
Channel: 9 Note ON:  G2 key: 43 velocity: 0
85326 
Channel: 9 Note ON:  A2 key: 45 velocity: 0
85327 
Channel: 9 Note ON:  A2 key: 45 velocity: 0
85560 
Channel: 9 Note ON:  A4 key: 69 velocity: 127
85563 
Channel: 9 Note ON:  A4 key: 69 velocity: 0
85800 
Channel: 9 Note ON:  A4 key: 69 velocity: 127
85803 
Channel: 9 Note ON:  A4 key: 69 velocity: 0
86040 
Channel: 9 Note ON:  A4 key: 69 velocity: 127
86045 
Channel: 9 Note ON:  A4 key: 69 velocity: 0
86160 
Channel: 9 Note ON:  G2 key: 43 velocity: 127
86160 
Channel: 9 Note ON:  B2 key: 47 velocity: 127
86163 
Channel: 9 Note ON:  B2 key: 47 velocity: 0
86164 
Channel: 9 Note ON:  G2 key: 43 velocity: 0
86280 
Channel: 9 Note ON:  A4 key: 69 velocity: 127
86282 
Channel: 9 Note ON:  A4 key: 69 velocity: 0
86520 
Channel: 9 Note ON:  A4 key: 69 velocity: 127
86523 
Channel: 9 Note ON:  A4 key: 69 velocity: 0
86760 
Channel: 9 Note ON:  A4 key: 69 velocity: 127
86762 
Channel: 9 Note ON:  A4 key: 69 velocity: 0
87000 
Channel: 9 Note ON:  C3 key: 48 velocity: 127
87000 
Channel: 9 Note ON:  C3 key: 48 velocity: 127
87000 
Channel: 9 Note ON:  B2 key: 47 velocity: 127
87000 
Channel: 9 Note ON:  A4 key: 69 velocity: 127
87005 
Channel: 9 Note ON:  A4 key: 69 velocity: 0
87005 
Channel: 9 Note ON:  B2 key: 47 velocity: 0
87006 
Channel: 9 Note ON:  C3 key: 48 velocity: 0
87007 
Channel: 9 Note ON:  C3 key: 48 velocity: 0
87240 
Channel: 9 Note ON:  A2 key: 45 velocity: 127
87240 
Channel: 9 Note ON:  A2 key: 45 velocity: 127
87240 
Channel: 9 Note ON:  G2 key: 43 velocity: 127
87240 
Channel: 9 Note ON:  A4 key: 69 velocity: 127
87245 
Channel: 9 Note ON:  A4 key: 69 velocity: 0
87245 
Channel: 9 Note ON:  A2 key: 45 velocity: 0
87246 
Channel: 9 Note ON:  G2 key: 43 velocity: 0
87247 
Channel: 9 Note ON:  A2 key: 45 velocity: 0
89400 
Channel: 9 Note ON:  A4 key: 69 velocity: 127
89402 
Channel: 9 Note ON:  A4 key: 69 velocity: 0
89640 
Channel: 9 Note ON:  A4 key: 69 velocity: 127
89643 
Channel: 9 Note ON:  A4 key: 69 velocity: 0
89880 
Channel: 9 Note ON:  A4 key: 69 velocity: 127
89885 
Channel: 9 Note ON:  A4 key: 69 velocity: 0
90000 
Channel: 9 Note ON:  G2 key: 43 velocity: 127
90000 
Channel: 9 Note ON:  B2 key: 47 velocity: 127
90003 
Channel: 9 Note ON:  B2 key: 47 velocity: 0
90004 
Channel: 9 Note ON:  G2 key: 43 velocity: 0
90120 
Channel: 9 Note ON:  A4 key: 69 velocity: 127
90122 
Channel: 9 Note ON:  A4 key: 69 velocity: 0
90360 
Channel: 9 Note ON:  A4 key: 69 velocity: 127
90362 
Channel: 9 Note ON:  A4 key: 69 velocity: 0
90600 
Channel: 9 Note ON:  A4 key: 69 velocity: 127
90603 
Channel: 9 Note ON:  A4 key: 69 velocity: 0
90840 
Channel: 9 Note ON:  C3 key: 48 velocity: 127
90840 
Channel: 9 Note ON:  C3 key: 48 velocity: 127
90840 
Channel: 9 Note ON:  B2 key: 47 velocity: 127
90840 
Channel: 9 Note ON:  A4 key: 69 velocity: 127
90845 
Channel: 9 Note ON:  A4 key: 69 velocity: 0
90846 
Channel: 9 Note ON:  B2 key: 47 velocity: 0
90846 
Channel: 9 Note ON:  C3 key: 48 velocity: 0
90847 
Channel: 9 Note ON:  C3 key: 48 velocity: 0
91080 
Channel: 9 Note ON:  A2 key: 45 velocity: 127
91080 
Channel: 9 Note ON:  A2 key: 45 velocity: 127
91080 
Channel: 9 Note ON:  G2 key: 43 velocity: 127
91080 
Channel: 9 Note ON:  A4 key: 69 velocity: 127
91085 
Channel: 9 Note ON:  A4 key: 69 velocity: 0
91086 
Channel: 9 Note ON:  G2 key: 43 velocity: 0
91086 
Channel: 9 Note ON:  A2 key: 45 velocity: 0
91087 
Channel: 9 Note ON:  A2 key: 45 velocity: 0
91320 
Channel: 9 Note ON:  A4 key: 69 velocity: 127
91322 
Channel: 9 Note ON:  A4 key: 69 velocity: 0
91560 
Channel: 9 Note ON:  A4 key: 69 velocity: 127
91563 
Channel: 9 Note ON:  A4 key: 69 velocity: 0
91800 
Channel: 9 Note ON:  A4 key: 69 velocity: 127
91806 
Channel: 9 Note ON:  A4 key: 69 velocity: 0
91920 
Channel: 9 Note ON:  G2 key: 43 velocity: 127
91920 
Channel: 9 Note ON:  B2 key: 47 velocity: 127
91923 
Channel: 9 Note ON:  B2 key: 47 velocity: 0
91923 
Channel: 9 Note ON:  G2 key: 43 velocity: 0
92040 
Channel: 9 Note ON:  A4 key: 69 velocity: 127
92042 
Channel: 9 Note ON:  A4 key: 69 velocity: 0
92280 
Channel: 9 Note ON:  A4 key: 69 velocity: 127
92283 
Channel: 9 Note ON:  A4 key: 69 velocity: 0
92520 
Channel: 9 Note ON:  A4 key: 69 velocity: 127
92522 
Channel: 9 Note ON:  A4 key: 69 velocity: 0
92760 
Channel: 9 Note ON:  C3 key: 48 velocity: 127
92760 
Channel: 9 Note ON:  C3 key: 48 velocity: 127
92760 
Channel: 9 Note ON:  B2 key: 47 velocity: 127
92760 
Channel: 9 Note ON:  A4 key: 69 velocity: 127
92766 
Channel: 9 Note ON:  A4 key: 69 velocity: 0
92766 
Channel: 9 Note ON:  B2 key: 47 velocity: 0
92767 
Channel: 9 Note ON:  C3 key: 48 velocity: 0
92767 
Channel: 9 Note ON:  C3 key: 48 velocity: 0
93000 
Channel: 9 Note ON:  A2 key: 45 velocity: 127
93000 
Channel: 9 Note ON:  A2 key: 45 velocity: 127
93000 
Channel: 9 Note ON:  G2 key: 43 velocity: 127
93000 
Channel: 9 Note ON:  A4 key: 69 velocity: 127
93006 
Channel: 9 Note ON:  A4 key: 69 velocity: 0
93006 
Channel: 9 Note ON:  G2 key: 43 velocity: 0
93006 
Channel: 9 Note ON:  A2 key: 45 velocity: 0
93007 
Channel: 9 Note ON:  A2 key: 45 velocity: 0
93240 
Channel: 9 Note ON:  A4 key: 69 velocity: 127
93242 
Channel: 9 Note ON:  A4 key: 69 velocity: 0
93480 
Channel: 9 Note ON:  A4 key: 69 velocity: 127
93482 
Channel: 9 Note ON:  A4 key: 69 velocity: 0
93720 
Channel: 9 Note ON:  A4 key: 69 velocity: 127
93725 
Channel: 9 Note ON:  A4 key: 69 velocity: 0
93840 
Channel: 9 Note ON:  G2 key: 43 velocity: 127
93840 
Channel: 9 Note ON:  B2 key: 47 velocity: 127
93844 
Channel: 9 Note ON:  B2 key: 47 velocity: 0
93844 
Channel: 9 Note ON:  G2 key: 43 velocity: 0
93960 
Channel: 9 Note ON:  A4 key: 69 velocity: 127
93962 
Channel: 9 Note ON:  A4 key: 69 velocity: 0
94200 
Channel: 9 Note ON:  A4 key: 69 velocity: 127
94203 
Channel: 9 Note ON:  A4 key: 69 velocity: 0
94440 
Channel: 9 Note ON:  A4 key: 69 velocity: 127
94442 
Channel: 9 Note ON:  A4 key: 69 velocity: 0
94680 
Channel: 9 Note ON:  C3 key: 48 velocity: 127
94680 
Channel: 9 Note ON:  C3 key: 48 velocity: 127
94680 
Channel: 9 Note ON:  B2 key: 47 velocity: 127
94680 
Channel: 9 Note ON:  A4 key: 69 velocity: 127
94686 
Channel: 9 Note ON:  A4 key: 69 velocity: 0
94686 
Channel: 9 Note ON:  B2 key: 47 velocity: 0
94687 
Channel: 9 Note ON:  C3 key: 48 velocity: 0
94688 
Channel: 9 Note ON:  C3 key: 48 velocity: 0
94920 
Channel: 9 Note ON:  A2 key: 45 velocity: 127
94920 
Channel: 9 Note ON:  A2 key: 45 velocity: 127
94920 
Channel: 9 Note ON:  G2 key: 43 velocity: 127
94920 
Channel: 9 Note ON:  A4 key: 69 velocity: 127
94925 
Channel: 9 Note ON:  A4 key: 69 velocity: 0
94926 
Channel: 9 Note ON:  G2 key: 43 velocity: 0
94926 
Channel: 9 Note ON:  A2 key: 45 velocity: 0
94927 
Channel: 9 Note ON:  A2 key: 45 velocity: 0
95160 
Channel: 9 Note ON:  A4 key: 69 velocity: 127
95163 
Channel: 9 Note ON:  A4 key: 69 velocity: 0
95400 
Channel: 9 Note ON:  A4 key: 69 velocity: 127
95403 
Channel: 9 Note ON:  A4 key: 69 velocity: 0
95640 
Channel: 9 Note ON:  A4 key: 69 velocity: 127
95645 
Channel: 9 Note ON:  A4 key: 69 velocity: 0
95760 
Channel: 9 Note ON:  G2 key: 43 velocity: 127
95760 
Channel: 9 Note ON:  B2 key: 47 velocity: 127
95763 
Channel: 9 Note ON:  B2 key: 47 velocity: 0
95764 
Channel: 9 Note ON:  G2 key: 43 velocity: 0
95880 
Channel: 9 Note ON:  A4 key: 69 velocity: 127
95882 
Channel: 9 Note ON:  A4 key: 69 velocity: 0
96120 
Channel: 9 Note ON:  A4 key: 69 velocity: 127
96123 
Channel: 9 Note ON:  A4 key: 69 velocity: 0
96360 
Channel: 9 Note ON:  A4 key: 69 velocity: 127
96362 
Channel: 9 Note ON:  A4 key: 69 velocity: 0
96600 
Channel: 9 Note ON:  C3 key: 48 velocity: 127
96600 
Channel: 9 Note ON:  C3 key: 48 velocity: 127
96600 
Channel: 9 Note ON:  B2 key: 47 velocity: 127
96600 
Channel: 9 Note ON:  A4 key: 69 velocity: 127
96605 
Channel: 9 Note ON:  A4 key: 69 velocity: 0
96605 
Channel: 9 Note ON:  B2 key: 47 velocity: 0
96606 
Channel: 9 Note ON:  C3 key: 48 velocity: 0
96607 
Channel: 9 Note ON:  C3 key: 48 velocity: 0
96840 
Channel: 9 Note ON:  A2 key: 45 velocity: 127
96840 
Channel: 9 Note ON:  A2 key: 45 velocity: 127
96840 
Channel: 9 Note ON:  G2 key: 43 velocity: 127
96840 
Channel: 9 Note ON:  A4 key: 69 velocity: 127
96845 
Channel: 9 Note ON:  A4 key: 69 velocity: 0
96845 
Channel: 9 Note ON:  A2 key: 45 velocity: 0
96846 
Channel: 9 Note ON:  G2 key: 43 velocity: 0
96847 
Channel: 9 Note ON:  A2 key: 45 velocity: 0
97080 
Channel: 9 Note ON:  A4 key: 69 velocity: 127
97082 
Channel: 9 Note ON:  A4 key: 69 velocity: 0
97320 
Channel: 9 Note ON:  A4 key: 69 velocity: 127
97323 
Channel: 9 Note ON:  A4 key: 69 velocity: 0
97560 
Channel: 9 Note ON:  A4 key: 69 velocity: 127
97565 
Channel: 9 Note ON:  A4 key: 69 velocity: 0
97680 
Channel: 9 Note ON:  G2 key: 43 velocity: 127
97680 
Channel: 9 Note ON:  B2 key: 47 velocity: 127
97683 
Channel: 9 Note ON:  B2 key: 47 velocity: 0
97684 
Channel: 9 Note ON:  G2 key: 43 velocity: 0
97800 
Channel: 9 Note ON:  A4 key: 69 velocity: 127
97802 
Channel: 9 Note ON:  A4 key: 69 velocity: 0
98040 
Channel: 9 Note ON:  A4 key: 69 velocity: 127
98042 
Channel: 9 Note ON:  A4 key: 69 velocity: 0
98280 
Channel: 9 Note ON:  A4 key: 69 velocity: 127
98283 
Channel: 9 Note ON:  A4 key: 69 velocity: 0
98520 
Channel: 9 Note ON:  C3 key: 48 velocity: 127
98520 
Channel: 9 Note ON:  C3 key: 48 velocity: 127
98520 
Channel: 9 Note ON:  B2 key: 47 velocity: 127
98520 
Channel: 9 Note ON:  A4 key: 69 velocity: 127
98525 
Channel: 9 Note ON:  A4 key: 69 velocity: 0
98526 
Channel: 9 Note ON:  B2 key: 47 velocity: 0
98526 
Channel: 9 Note ON:  C3 key: 48 velocity: 0
98527 
Channel: 9 Note ON:  C3 key: 48 velocity: 0
98760 
Channel: 9 Note ON:  A2 key: 45 velocity: 127
98760 
Channel: 9 Note ON:  A2 key: 45 velocity: 127
98760 
Channel: 9 Note ON:  G2 key: 43 velocity: 127
98760 
Channel: 9 Note ON:  A4 key: 69 velocity: 127
98765 
Channel: 9 Note ON:  A4 key: 69 velocity: 0
98766 
Channel: 9 Note ON:  G2 key: 43 velocity: 0
98766 
Channel: 9 Note ON:  A2 key: 45 velocity: 0
98767 
Channel: 9 Note ON:  A2 key: 45 velocity: 0
99000 
Channel: 9 Note ON:  A4 key: 69 velocity: 127
99002 
Channel: 9 Note ON:  A4 key: 69 velocity: 0
99240 
Channel: 9 Note ON:  A4 key: 69 velocity: 127
99243 
Channel: 9 Note ON:  A4 key: 69 velocity: 0
99480 
Channel: 9 Note ON:  A4 key: 69 velocity: 127
99486 
Channel: 9 Note ON:  A4 key: 69 velocity: 0
99600 
Channel: 9 Note ON:  G2 key: 43 velocity: 127
99600 
Channel: 9 Note ON:  B2 key: 47 velocity: 127
99603 
Channel: 9 Note ON:  B2 key: 47 velocity: 0
99603 
Channel: 9 Note ON:  G2 key: 43 velocity: 0
99720 
Channel: 9 Note ON:  A4 key: 69 velocity: 127
99722 
Channel: 9 Note ON:  A4 key: 69 velocity: 0
99960 
Channel: 9 Note ON:  A4 key: 69 velocity: 127
99963 
Channel: 9 Note ON:  A4 key: 69 velocity: 0
100200 
Channel: 9 Note ON:  A4 key: 69 velocity: 127
100202 
Channel: 9 Note ON:  A4 key: 69 velocity: 0
100440 
Channel: 9 Note ON:  C3 key: 48 velocity: 127
100440 
Channel: 9 Note ON:  C3 key: 48 velocity: 127
100440 
Channel: 9 Note ON:  B2 key: 47 velocity: 127
100440 
Channel: 9 Note ON:  A4 key: 69 velocity: 127
100446 
Channel: 9 Note ON:  A4 key: 69 velocity: 0
100446 
Channel: 9 Note ON:  B2 key: 47 velocity: 0
100447 
Channel: 9 Note ON:  C3 key: 48 velocity: 0
100447 
Channel: 9 Note ON:  C3 key: 48 velocity: 0
100680 
Channel: 9 Note ON:  A2 key: 45 velocity: 127
100680 
Channel: 9 Note ON:  A2 key: 45 velocity: 127
100680 
Channel: 9 Note ON:  G2 key: 43 velocity: 127
100680 
Channel: 9 Note ON:  A4 key: 69 velocity: 127
100686 
Channel: 9 Note ON:  A4 key: 69 velocity: 0
100686 
Channel: 9 Note ON:  G2 key: 43 velocity: 0
100686 
Channel: 9 Note ON:  A2 key: 45 velocity: 0
100687 
Channel: 9 Note ON:  A2 key: 45 velocity: 0
100920 
Channel: 9 Note ON:  A4 key: 69 velocity: 127
100922 
Channel: 9 Note ON:  A4 key: 69 velocity: 0
101160 
Channel: 9 Note ON:  A4 key: 69 velocity: 127
101162 
Channel: 9 Note ON:  A4 key: 69 velocity: 0
101400 
Channel: 9 Note ON:  A4 key: 69 velocity: 127
101405 
Channel: 9 Note ON:  A4 key: 69 velocity: 0
101520 
Channel: 9 Note ON:  G2 key: 43 velocity: 127
101520 
Channel: 9 Note ON:  B2 key: 47 velocity: 127
101524 
Channel: 9 Note ON:  B2 key: 47 velocity: 0
101524 
Channel: 9 Note ON:  G2 key: 43 velocity: 0
101640 
Channel: 9 Note ON:  A4 key: 69 velocity: 127
101642 
Channel: 9 Note ON:  A4 key: 69 velocity: 0
101880 
Channel: 9 Note ON:  A4 key: 69 velocity: 127
101883 
Channel: 9 Note ON:  A4 key: 69 velocity: 0
102120 
Channel: 9 Note ON:  A4 key: 69 velocity: 127
102122 
Channel: 9 Note ON:  A4 key: 69 velocity: 0
102360 
Channel: 9 Note ON:  C3 key: 48 velocity: 127
102360 
Channel: 9 Note ON:  C3 key: 48 velocity: 127
102360 
Channel: 9 Note ON:  B2 key: 47 velocity: 127
102360 
Channel: 9 Note ON:  A4 key: 69 velocity: 127
102366 
Channel: 9 Note ON:  A4 key: 69 velocity: 0
102366 
Channel: 9 Note ON:  B2 key: 47 velocity: 0
102367 
Channel: 9 Note ON:  C3 key: 48 velocity: 0
102368 
Channel: 9 Note ON:  C3 key: 48 velocity: 0
102600 
Channel: 9 Note ON:  A2 key: 45 velocity: 127
102600 
Channel: 9 Note ON:  A2 key: 45 velocity: 127
102600 
Channel: 9 Note ON:  G2 key: 43 velocity: 127
102600 
Channel: 9 Note ON:  A4 key: 69 velocity: 127
102605 
Channel: 9 Note ON:  A4 key: 69 velocity: 0
102606 
Channel: 9 Note ON:  G2 key: 43 velocity: 0
102606 
Channel: 9 Note ON:  A2 key: 45 velocity: 0
102607 
Channel: 9 Note ON:  A2 key: 45 velocity: 0
102840 
Channel: 9 Note ON:  A4 key: 69 velocity: 127
102843 
Channel: 9 Note ON:  A4 key: 69 velocity: 0
103080 
Channel: 9 Note ON:  A4 key: 69 velocity: 127
103083 
Channel: 9 Note ON:  A4 key: 69 velocity: 0
103320 
Channel: 9 Note ON:  A4 key: 69 velocity: 127
103325 
Channel: 9 Note ON:  A4 key: 69 velocity: 0
103440 
Channel: 9 Note ON:  G2 key: 43 velocity: 127
103440 
Channel: 9 Note ON:  B2 key: 47 velocity: 127
103443 
Channel: 9 Note ON:  B2 key: 47 velocity: 0
103444 
Channel: 9 Note ON:  G2 key: 43 velocity: 0
103560 
Channel: 9 Note ON:  A4 key: 69 velocity: 127
103562 
Channel: 9 Note ON:  A4 key: 69 velocity: 0
103800 
Channel: 9 Note ON:  A4 key: 69 velocity: 127
103803 
Channel: 9 Note ON:  A4 key: 69 velocity: 0
104040 
Channel: 9 Note ON:  A4 key: 69 velocity: 127
104042 
Channel: 9 Note ON:  A4 key: 69 velocity: 0
104280 
Channel: 9 Note ON:  C3 key: 48 velocity: 127
104280 
Channel: 9 Note ON:  C3 key: 48 velocity: 127
104280 
Channel: 9 Note ON:  B2 key: 47 velocity: 127
104280 
Channel: 9 Note ON:  A4 key: 69 velocity: 127
104285 
Channel: 9 Note ON:  A4 key: 69 velocity: 0
104285 
Channel: 9 Note ON:  B2 key: 47 velocity: 0
104286 
Channel: 9 Note ON:  C3 key: 48 velocity: 0
104287 
Channel: 9 Note ON:  C3 key: 48 velocity: 0
104520 
Channel: 9 Note ON:  A2 key: 45 velocity: 127
104520 
Channel: 9 Note ON:  A2 key: 45 velocity: 127
104520 
Channel: 9 Note ON:  G2 key: 43 velocity: 127
104520 
Channel: 9 Note ON:  A4 key: 69 velocity: 127
104525 
Channel: 9 Note ON:  A4 key: 69 velocity: 0
104525 
Channel: 9 Note ON:  A2 key: 45 velocity: 0
104526 
Channel: 9 Note ON:  G2 key: 43 velocity: 0
104527 
Channel: 9 Note ON:  A2 key: 45 velocity: 0
104760 
Channel: 9 Note ON:  A4 key: 69 velocity: 127
104762 
Channel: 9 Note ON:  A4 key: 69 velocity: 0
105000 
Channel: 9 Note ON:  A4 key: 69 velocity: 127
105003 
Channel: 9 Note ON:  A4 key: 69 velocity: 0
105240 
Channel: 9 Note ON:  A4 key: 69 velocity: 127
105245 
Channel: 9 Note ON:  A4 key: 69 velocity: 0
105360 
Channel: 9 Note ON:  G2 key: 43 velocity: 127
105360 
Channel: 9 Note ON:  B2 key: 47 velocity: 127
105363 
Channel: 9 Note ON:  B2 key: 47 velocity: 0
105364 
Channel: 9 Note ON:  G2 key: 43 velocity: 0
105480 
Channel: 9 Note ON:  A4 key: 69 velocity: 127
105482 
Channel: 9 Note ON:  A4 key: 69 velocity: 0
105720 
Channel: 9 Note ON:  A4 key: 69 velocity: 127
105722 
Channel: 9 Note ON:  A4 key: 69 velocity: 0
105960 
Channel: 9 Note ON:  A4 key: 69 velocity: 127
105963 
Channel: 9 Note ON:  A4 key: 69 velocity: 0
106200 
Channel: 9 Note ON:  C3 key: 48 velocity: 127
106200 
Channel: 9 Note ON:  C3 key: 48 velocity: 127
106200 
Channel: 9 Note ON:  B2 key: 47 velocity: 127
106200 
Channel: 9 Note ON:  A4 key: 69 velocity: 127
106205 
Channel: 9 Note ON:  A4 key: 69 velocity: 0
106206 
Channel: 9 Note ON:  B2 key: 47 velocity: 0
106206 
Channel: 9 Note ON:  C3 key: 48 velocity: 0
106207 
Channel: 9 Note ON:  C3 key: 48 velocity: 0
106440 
Channel: 9 Note ON:  A2 key: 45 velocity: 127
106440 
Channel: 9 Note ON:  A2 key: 45 velocity: 127
106440 
Channel: 9 Note ON:  G2 key: 43 velocity: 127
106440 
Channel: 9 Note ON:  A4 key: 69 velocity: 127
106445 
Channel: 9 Note ON:  A4 key: 69 velocity: 0
106446 
Channel: 9 Note ON:  G2 key: 43 velocity: 0
106446 
Channel: 9 Note ON:  A2 key: 45 velocity: 0
106447 
Channel: 9 Note ON:  A2 key: 45 velocity: 0
106680 
Channel: 9 Note ON:  A4 key: 69 velocity: 127
106682 
Channel: 9 Note ON:  A4 key: 69 velocity: 0
106920 
Channel: 9 Note ON:  A4 key: 69 velocity: 127
106923 
Channel: 9 Note ON:  A4 key: 69 velocity: 0
107160 
Channel: 9 Note ON:  A4 key: 69 velocity: 127
107166 
Channel: 9 Note ON:  A4 key: 69 velocity: 0
107280 
Channel: 9 Note ON:  G2 key: 43 velocity: 127
107280 
Channel: 9 Note ON:  B2 key: 47 velocity: 127
107283 
Channel: 9 Note ON:  B2 key: 47 velocity: 0
107283 
Channel: 9 Note ON:  G2 key: 43 velocity: 0
107400 
Channel: 9 Note ON:  A4 key: 69 velocity: 127
107402 
Channel: 9 Note ON:  A4 key: 69 velocity: 0
107640 
Channel: 9 Note ON:  A4 key: 69 velocity: 127
107643 
Channel: 9 Note ON:  A4 key: 69 velocity: 0
107880 
Channel: 9 Note ON:  A4 key: 69 velocity: 127
107882 
Channel: 9 Note ON:  A4 key: 69 velocity: 0
108120 
Channel: 9 Note ON:  C3 key: 48 velocity: 127
108120 
Channel: 9 Note ON:  C3 key: 48 velocity: 127
108120 
Channel: 9 Note ON:  B2 key: 47 velocity: 127
108120 
Channel: 9 Note ON:  A4 key: 69 velocity: 127
108126 
Channel: 9 Note ON:  A4 key: 69 velocity: 0
108126 
Channel: 9 Note ON:  B2 key: 47 velocity: 0
108127 
Channel: 9 Note ON:  C3 key: 48 velocity: 0
108127 
Channel: 9 Note ON:  C3 key: 48 velocity: 0
108360 
Channel: 9 Note ON:  A2 key: 45 velocity: 127
108360 
Channel: 9 Note ON:  A2 key: 45 velocity: 127
108360 
Channel: 9 Note ON:  G2 key: 43 velocity: 127
108360 
Channel: 9 Note ON:  A4 key: 69 velocity: 127
108366 
Channel: 9 Note ON:  A4 key: 69 velocity: 0
108366 
Channel: 9 Note ON:  G2 key: 43 velocity: 0
108366 
Channel: 9 Note ON:  A2 key: 45 velocity: 0
108367 
Channel: 9 Note ON:  A2 key: 45 velocity: 0
108600 
Channel: 9 Note ON:  A4 key: 69 velocity: 127
108602 
Channel: 9 Note ON:  A4 key: 69 velocity: 0
108840 
Channel: 9 Note ON:  A4 key: 69 velocity: 127
108842 
Channel: 9 Note ON:  A4 key: 69 velocity: 0
109080 
Channel: 9 Note ON:  A4 key: 69 velocity: 127
109085 
Channel: 9 Note ON:  A4 key: 69 velocity: 0
109200 
Channel: 9 Note ON:  G2 key: 43 velocity: 127
109200 
Channel: 9 Note ON:  B2 key: 47 velocity: 127
109204 
Channel: 9 Note ON:  B2 key: 47 velocity: 0
109204 
Channel: 9 Note ON:  G2 key: 43 velocity: 0
109320 
Channel: 9 Note ON:  A4 key: 69 velocity: 127
109322 
Channel: 9 Note ON:  A4 key: 69 velocity: 0
109560 
Channel: 9 Note ON:  A4 key: 69 velocity: 127
109563 
Channel: 9 Note ON:  A4 key: 69 velocity: 0
109800 
Channel: 9 Note ON:  A4 key: 69 velocity: 127
109802 
Channel: 9 Note ON:  A4 key: 69 velocity: 0
110040 
Channel: 9 Note ON:  C3 key: 48 velocity: 127
110040 
Channel: 9 Note ON:  C3 key: 48 velocity: 127
110040 
Channel: 9 Note ON:  B2 key: 47 velocity: 127
110040 
Channel: 9 Note ON:  A4 key: 69 velocity: 127
110046 
Channel: 9 Note ON:  A4 key: 69 velocity: 0
110046 
Channel: 9 Note ON:  B2 key: 47 velocity: 0
110047 
Channel: 9 Note ON:  C3 key: 48 velocity: 0
110048 
Channel: 9 Note ON:  C3 key: 48 velocity: 0
110280 
Channel: 9 Note ON:  A2 key: 45 velocity: 127
110280 
Channel: 9 Note ON:  A2 key: 45 velocity: 127
110280 
Channel: 9 Note ON:  G2 key: 43 velocity: 127
110280 
Channel: 9 Note ON:  A4 key: 69 velocity: 127
110285 
Channel: 9 Note ON:  A4 key: 69 velocity: 0
110286 
Channel: 9 Note ON:  G2 key: 43 velocity: 0
110286 
Channel: 9 Note ON:  A2 key: 45 velocity: 0
110287 
Channel: 9 Note ON:  A2 key: 45 velocity: 0
110520 
Channel: 9 Note ON:  A4 key: 69 velocity: 127
110523 
Channel: 9 Note ON:  A4 key: 69 velocity: 0
110760 
Channel: 9 Note ON:  A4 key: 69 velocity: 127
110763 
Channel: 9 Note ON:  A4 key: 69 velocity: 0
111000 
Channel: 9 Note ON:  A4 key: 69 velocity: 127
111005 
Channel: 9 Note ON:  A4 key: 69 velocity: 0
111120 
Channel: 9 Note ON:  G2 key: 43 velocity: 127
111120 
Channel: 9 Note ON:  B2 key: 47 velocity: 127
111123 
Channel: 9 Note ON:  B2 key: 47 velocity: 0
111124 
Channel: 9 Note ON:  G2 key: 43 velocity: 0
111240 
Channel: 9 Note ON:  A4 key: 69 velocity: 127
111242 
Channel: 9 Note ON:  A4 key: 69 velocity: 0
111480 
Channel: 9 Note ON:  A4 key: 69 velocity: 127
111483 
Channel: 9 Note ON:  A4 key: 69 velocity: 0
111720 
Channel: 9 Note ON:  A4 key: 69 velocity: 127
111722 
Channel: 9 Note ON:  A4 key: 69 velocity: 0
111960 
Channel: 9 Note ON:  C3 key: 48 velocity: 127
111960 
Channel: 9 Note ON:  C3 key: 48 velocity: 127
111960 
Channel: 9 Note ON:  B2 key: 47 velocity: 127
111960 
Channel: 9 Note ON:  A4 key: 69 velocity: 127
111965 
Channel: 9 Note ON:  A4 key: 69 velocity: 0
111965 
Channel: 9 Note ON:  B2 key: 47 velocity: 0
111966 
Channel: 9 Note ON:  C3 key: 48 velocity: 0
111967 
Channel: 9 Note ON:  C3 key: 48 velocity: 0
112200 
Channel: 9 Note ON:  A2 key: 45 velocity: 127
112200 
Channel: 9 Note ON:  A2 key: 45 velocity: 127
112200 
Channel: 9 Note ON:  G2 key: 43 velocity: 127
112200 
Channel: 9 Note ON:  A4 key: 69 velocity: 127
112205 
Channel: 9 Note ON:  A4 key: 69 velocity: 0
112205 
Channel: 9 Note ON:  A2 key: 45 velocity: 0
112206 
Channel: 9 Note ON:  G2 key: 43 velocity: 0
112207 
Channel: 9 Note ON:  A2 key: 45 velocity: 0
112440 
Channel: 9 Note ON:  A4 key: 69 velocity: 127
112442 
Channel: 9 Note ON:  A4 key: 69 velocity: 0
112680 
Channel: 9 Note ON:  A4 key: 69 velocity: 127
112683 
Channel: 9 Note ON:  A4 key: 69 velocity: 0
112920 
Channel: 9 Note ON:  A4 key: 69 velocity: 127
112925 
Channel: 9 Note ON:  A4 key: 69 velocity: 0
113040 
Channel: 9 Note ON:  G2 key: 43 velocity: 127
113040 
Channel: 9 Note ON:  B2 key: 47 velocity: 127
113043 
Channel: 9 Note ON:  B2 key: 47 velocity: 0
113044 
Channel: 9 Note ON:  G2 key: 43 velocity: 0
113160 
Channel: 9 Note ON:  A4 key: 69 velocity: 127
113162 
Channel: 9 Note ON:  A4 key: 69 velocity: 0
113400 
Channel: 9 Note ON:  A4 key: 69 velocity: 127
113402 
Channel: 9 Note ON:  A4 key: 69 velocity: 0
113640 
Channel: 9 Note ON:  A4 key: 69 velocity: 127
113643 
Channel: 9 Note ON:  A4 key: 69 velocity: 0
113880 
Channel: 9 Note ON:  C3 key: 48 velocity: 127
113880 
Channel: 9 Note ON:  C3 key: 48 velocity: 127
113880 
Channel: 9 Note ON:  B2 key: 47 velocity: 127
113880 
Channel: 9 Note ON:  A4 key: 69 velocity: 127
113885 
Channel: 9 Note ON:  A4 key: 69 velocity: 0
113886 
Channel: 9 Note ON:  B2 key: 47 velocity: 0
113886 
Channel: 9 Note ON:  C3 key: 48 velocity: 0
113887 
Channel: 9 Note ON:  C3 key: 48 velocity: 0
114120 
Channel: 9 Note ON:  A2 key: 45 velocity: 127
114120 
Channel: 9 Note ON:  A2 key: 45 velocity: 127
114120 
Channel: 9 Note ON:  G2 key: 43 velocity: 127
114120 
Channel: 9 Note ON:  A4 key: 69 velocity: 127
114125 
Channel: 9 Note ON:  A4 key: 69 velocity: 0
114126 
Channel: 9 Note ON:  G2 key: 43 velocity: 0
114126 
Channel: 9 Note ON:  A2 key: 45 velocity: 0
114127 
Channel: 9 Note ON:  A2 key: 45 velocity: 0
114360 
Channel: 9 Note ON:  A4 key: 69 velocity: 127
114362 
Channel: 9 Note ON:  A4 key: 69 velocity: 0
114600 
Channel: 9 Note ON:  A4 key: 69 velocity: 127
114603 
Channel: 9 Note ON:  A4 key: 69 velocity: 0
114840 
Channel: 9 Note ON:  A4 key: 69 velocity: 127
114846 
Channel: 9 Note ON:  A4 key: 69 velocity: 0
114960 
Channel: 9 Note ON:  G2 key: 43 velocity: 127
114960 
Channel: 9 Note ON:  B2 key: 47 velocity: 127
114963 
Channel: 9 Note ON:  B2 key: 47 velocity: 0
114963 
Channel: 9 Note ON:  G2 key: 43 velocity: 0
115080 
Channel: 9 Note ON:  A4 key: 69 velocity: 127
115082 
Channel: 9 Note ON:  A4 key: 69 velocity: 0
115320 
Channel: 9 Note ON:  A4 key: 69 velocity: 127
115323 
Channel: 9 Note ON:  A4 key: 69 velocity: 0
115560 
Channel: 9 Note ON:  A4 key: 69 velocity: 127
115562 
Channel: 9 Note ON:  A4 key: 69 velocity: 0
115800 
Channel: 9 Note ON:  C3 key: 48 velocity: 127
115800 
Channel: 9 Note ON:  C3 key: 48 velocity: 127
115800 
Channel: 9 Note ON:  B2 key: 47 velocity: 127
115800 
Channel: 9 Note ON:  A4 key: 69 velocity: 127
115806 
Channel: 9 Note ON:  A4 key: 69 velocity: 0
115806 
Channel: 9 Note ON:  B2 key: 47 velocity: 0
115807 
Channel: 9 Note ON:  C3 key: 48 velocity: 0
115807 
Channel: 9 Note ON:  C3 key: 48 velocity: 0
116040 
Channel: 9 Note ON:  A2 key: 45 velocity: 127
116040 
Channel: 9 Note ON:  A2 key: 45 velocity: 127
116040 
Channel: 9 Note ON:  G2 key: 43 velocity: 127
116040 
Channel: 9 Note ON:  A4 key: 69 velocity: 127
116046 
Channel: 9 Note ON:  A4 key: 69 velocity: 0
116046 
Channel: 9 Note ON:  G2 key: 43 velocity: 0
116046 
Channel: 9 Note ON:  A2 key: 45 velocity: 0
116047 
Channel: 9 Note ON:  A2 key: 45 velocity: 0
116280 
Channel: 9 Note ON:  A4 key: 69 velocity: 127
116282 
Channel: 9 Note ON:  A4 key: 69 velocity: 0
116520 
Channel: 9 Note ON:  A4 key: 69 velocity: 127
116522 
Channel: 9 Note ON:  A4 key: 69 velocity: 0
116760 
Channel: 9 Note ON:  A4 key: 69 velocity: 127
116765 
Channel: 9 Note ON:  A4 key: 69 velocity: 0
116880 
Channel: 9 Note ON:  G2 key: 43 velocity: 127
116880 
Channel: 9 Note ON:  B2 key: 47 velocity: 127
116884 
Channel: 9 Note ON:  B2 key: 47 velocity: 0
116884 
Channel: 9 Note ON:  G2 key: 43 velocity: 0
117000 
Channel: 9 Note ON:  A4 key: 69 velocity: 127
117002 
Channel: 9 Note ON:  A4 key: 69 velocity: 0
117240 
Channel: 9 Note ON:  A4 key: 69 velocity: 127
117243 
Channel: 9 Note ON:  A4 key: 69 velocity: 0
117480 
Channel: 9 Note ON:  A4 key: 69 velocity: 127
117482 
Channel: 9 Note ON:  A4 key: 69 velocity: 0
117720 
Channel: 9 Note ON:  C3 key: 48 velocity: 127
117720 
Channel: 9 Note ON:  C3 key: 48 velocity: 127
117720 
Channel: 9 Note ON:  B2 key: 47 velocity: 127
117720 
Channel: 9 Note ON:  A4 key: 69 velocity: 127
117726 
Channel: 9 Note ON:  A4 key: 69 velocity: 0
117726 
Channel: 9 Note ON:  B2 key: 47 velocity: 0
117727 
Channel: 9 Note ON:  C3 key: 48 velocity: 0
117728 
Channel: 9 Note ON:  C3 key: 48 velocity: 0
117960 
Channel: 9 Note ON:  A2 key: 45 velocity: 127
117960 
Channel: 9 Note ON:  A2 key: 45 velocity: 127
117960 
Channel: 9 Note ON:  G2 key: 43 velocity: 127
117960 
Channel: 9 Note ON:  A4 key: 69 velocity: 127
117965 
Channel: 9 Note ON:  A4 key: 69 velocity: 0
117966 
Channel: 9 Note ON:  G2 key: 43 velocity: 0
117966 
Channel: 9 Note ON:  A2 key: 45 velocity: 0
117967 
Channel: 9 Note ON:  A2 key: 45 velocity: 0
118200 
Channel: 9 Note ON:  A4 key: 69 velocity: 127
118203 
Channel: 9 Note ON:  A4 key: 69 velocity: 0
118440 
Channel: 9 Note ON:  A4 key: 69 velocity: 127
118443 
Channel: 9 Note ON:  A4 key: 69 velocity: 0
118680 
Channel: 9 Note ON:  A4 key: 69 velocity: 127
118685 
Channel: 9 Note ON:  A4 key: 69 velocity: 0
118800 
Channel: 9 Note ON:  G2 key: 43 velocity: 127
118800 
Channel: 9 Note ON:  B2 key: 47 velocity: 127
118803 
Channel: 9 Note ON:  B2 key: 47 velocity: 0
118804 
Channel: 9 Note ON:  G2 key: 43 velocity: 0
118920 
Channel: 9 Note ON:  A4 key: 69 velocity: 127
118922 
Channel: 9 Note ON:  A4 key: 69 velocity: 0
119160 
Channel: 9 Note ON:  A4 key: 69 velocity: 127
119163 
Channel: 9 Note ON:  A4 key: 69 velocity: 0
119400 
Channel: 9 Note ON:  A4 key: 69 velocity: 127
119402 
Channel: 9 Note ON:  A4 key: 69 velocity: 0
119640 
Channel: 9 Note ON:  C3 key: 48 velocity: 127
119640 
Channel: 9 Note ON:  C3 key: 48 velocity: 127
119640 
Channel: 9 Note ON:  B2 key: 47 velocity: 127
119640 
Channel: 9 Note ON:  A4 key: 69 velocity: 127
119645 
Channel: 9 Note ON:  A4 key: 69 velocity: 0
119645 
Channel: 9 Note ON:  B2 key: 47 velocity: 0
119646 
Channel: 9 Note ON:  C3 key: 48 velocity: 0
119647 
Channel: 9 Note ON:  C3 key: 48 velocity: 0
119880 
Channel: 9 Note ON:  A2 key: 45 velocity: 127
119880 
Channel: 9 Note ON:  A2 key: 45 velocity: 127
119880 
Channel: 9 Note ON:  G2 key: 43 velocity: 127
119880 
Channel: 9 Note ON:  A4 key: 69 velocity: 127
119885 
Channel: 9 Note ON:  A4 key: 69 velocity: 0
119885 
Channel: 9 Note ON:  A2 key: 45 velocity: 0
119886 
Channel: 9 Note ON:  G2 key: 43 velocity: 0
119887 
Channel: 9 Note ON:  A2 key: 45 velocity: 0
119887 
WTF is that class javax.sound.midi.Track$ImmutableEndOfTrack


Changing to track 10


0 
WTF is that class javax.sound.midi.MetaMessage
0 
WTF is that class javax.sound.midi.MetaMessage
0 
0 
31440 
Channel: 9 Note ON:  C2 key: 36 velocity: 127
31483 
Channel: 9 Note ON:  C2 key: 36 velocity: 0
31560 
Channel: 9 Note ON:  C2 key: 36 velocity: 127
31630 
Channel: 9 Note ON:  C2 key: 36 velocity: 0
37440 
Channel: 9 Note ON:  C2 key: 36 velocity: 73
37504 
Channel: 9 Note ON:  C2 key: 36 velocity: 0
37560 
Channel: 9 Note ON:  C2 key: 36 velocity: 74
37620 
Channel: 9 Note ON:  C2 key: 36 velocity: 0
37680 
Channel: 9 Note ON:  C2 key: 36 velocity: 77
37740 
Channel: 9 Note ON:  C2 key: 36 velocity: 0
37800 
Channel: 9 Note ON:  C2 key: 36 velocity: 80
37850 
Channel: 9 Note ON:  C2 key: 36 velocity: 0
37920 
Channel: 9 Note ON:  C2 key: 36 velocity: 83
37970 
Channel: 9 Note ON:  C2 key: 36 velocity: 0
38040 
Channel: 9 Note ON:  C2 key: 36 velocity: 87
38088 
Channel: 9 Note ON:  C2 key: 36 velocity: 0
38160 
Channel: 9 Note ON:  C2 key: 36 velocity: 88
38207 
Channel: 9 Note ON:  C2 key: 36 velocity: 0
38280 
Channel: 9 Note ON:  C2 key: 36 velocity: 92
38323 
Channel: 9 Note ON:  C2 key: 36 velocity: 0
38400 
Channel: 9 Note ON:  C2 key: 36 velocity: 95
38440 
Channel: 9 Note ON:  C2 key: 36 velocity: 0
38520 
Channel: 9 Note ON:  C2 key: 36 velocity: 99
38551 
Channel: 9 Note ON:  C2 key: 36 velocity: 0
38640 
Channel: 9 Note ON:  C2 key: 36 velocity: 103
38678 
Channel: 9 Note ON:  C2 key: 36 velocity: 0
38760 
Channel: 9 Note ON:  C2 key: 36 velocity: 106
38787 
Channel: 9 Note ON:  C2 key: 36 velocity: 0
38880 
Channel: 9 Note ON:  C2 key: 36 velocity: 109
38916 
Channel: 9 Note ON:  C2 key: 36 velocity: 0
39000 
Channel: 9 Note ON:  C2 key: 36 velocity: 110
39037 
Channel: 9 Note ON:  C2 key: 36 velocity: 0
39120 
Channel: 9 Note ON:  C2 key: 36 velocity: 112
39158 
Channel: 9 Note ON:  C2 key: 36 velocity: 0
39240 
Channel: 9 Note ON:  C2 key: 36 velocity: 114
39277 
Channel: 9 Note ON:  C2 key: 36 velocity: 0
39360 
Channel: 9 Note ON:  C2 key: 36 velocity: 117
39363 
Channel: 9 Note ON:  C2 key: 36 velocity: 0
39600 
Channel: 9 Note ON:  C2 key: 36 velocity: 127
39603 
Channel: 9 Note ON:  C2 key: 36 velocity: 0
39840 
Channel: 9 Note ON:  C2 key: 36 velocity: 127
39843 
Channel: 9 Note ON:  C2 key: 36 velocity: 0
40080 
Channel: 9 Note ON:  C2 key: 36 velocity: 127
40084 
Channel: 9 Note ON:  C2 key: 36 velocity: 0
40320 
Channel: 9 Note ON:  C2 key: 36 velocity: 127
40322 
Channel: 9 Note ON:  C2 key: 36 velocity: 0
40560 
Channel: 9 Note ON:  C2 key: 36 velocity: 127
40568 
Channel: 9 Note ON:  C2 key: 36 velocity: 0
40800 
Channel: 9 Note ON:  C2 key: 36 velocity: 127
40802 
Channel: 9 Note ON:  C2 key: 36 velocity: 0
41040 
Channel: 9 Note ON:  C2 key: 36 velocity: 127
41042 
Channel: 9 Note ON:  C2 key: 36 velocity: 0
41280 
Channel: 9 Note ON:  C2 key: 36 velocity: 127
41283 
Channel: 9 Note ON:  C2 key: 36 velocity: 0
41520 
Channel: 9 Note ON:  C2 key: 36 velocity: 127
41523 
Channel: 9 Note ON:  C2 key: 36 velocity: 0
41760 
Channel: 9 Note ON:  C2 key: 36 velocity: 127
41763 
Channel: 9 Note ON:  C2 key: 36 velocity: 0
42000 
Channel: 9 Note ON:  C2 key: 36 velocity: 127
42004 
Channel: 9 Note ON:  C2 key: 36 velocity: 0
42240 
Channel: 9 Note ON:  C2 key: 36 velocity: 127
42243 
Channel: 9 Note ON:  C2 key: 36 velocity: 0
42480 
Channel: 9 Note ON:  C2 key: 36 velocity: 127
42489 
Channel: 9 Note ON:  C2 key: 36 velocity: 0
42720 
Channel: 9 Note ON:  C2 key: 36 velocity: 127
42722 
Channel: 9 Note ON:  C2 key: 36 velocity: 0
42960 
Channel: 9 Note ON:  C2 key: 36 velocity: 127
42962 
Channel: 9 Note ON:  C2 key: 36 velocity: 0
43200 
Channel: 9 Note ON:  C2 key: 36 velocity: 127
43202 
Channel: 9 Note ON:  C2 key: 36 velocity: 0
43440 
Channel: 9 Note ON:  C2 key: 36 velocity: 127
43443 
Channel: 9 Note ON:  C2 key: 36 velocity: 0
43680 
Channel: 9 Note ON:  C2 key: 36 velocity: 127
43682 
Channel: 9 Note ON:  C2 key: 36 velocity: 0
43920 
Channel: 9 Note ON:  C2 key: 36 velocity: 127
43925 
Channel: 9 Note ON:  C2 key: 36 velocity: 0
44160 
Channel: 9 Note ON:  C2 key: 36 velocity: 127
44162 
Channel: 9 Note ON:  C2 key: 36 velocity: 0
44400 
Channel: 9 Note ON:  C2 key: 36 velocity: 127
44409 
Channel: 9 Note ON:  C2 key: 36 velocity: 0
44640 
Channel: 9 Note ON:  C2 key: 36 velocity: 127
44642 
Channel: 9 Note ON:  C2 key: 36 velocity: 0
44880 
Channel: 9 Note ON:  C2 key: 36 velocity: 127
44882 
Channel: 9 Note ON:  C2 key: 36 velocity: 0
45120 
Channel: 9 Note ON:  C2 key: 36 velocity: 127
45122 
Channel: 9 Note ON:  C2 key: 36 velocity: 0
45360 
Channel: 9 Note ON:  C2 key: 36 velocity: 127
45363 
Channel: 9 Note ON:  C2 key: 36 velocity: 0
45600 
Channel: 9 Note ON:  C2 key: 36 velocity: 127
45602 
Channel: 9 Note ON:  C2 key: 36 velocity: 0
45840 
Channel: 9 Note ON:  C2 key: 36 velocity: 127
45844 
Channel: 9 Note ON:  C2 key: 36 velocity: 0
46080 
Channel: 9 Note ON:  C2 key: 36 velocity: 127
46083 
Channel: 9 Note ON:  C2 key: 36 velocity: 0
46320 
Channel: 9 Note ON:  C2 key: 36 velocity: 127
46327 
Channel: 9 Note ON:  C2 key: 36 velocity: 0
46560 
Channel: 9 Note ON:  C2 key: 36 velocity: 127
46563 
Channel: 9 Note ON:  C2 key: 36 velocity: 0
46800 
Channel: 9 Note ON:  C2 key: 36 velocity: 127
46803 
Channel: 9 Note ON:  C2 key: 36 velocity: 0
47040 
Channel: 9 Note ON:  C2 key: 36 velocity: 127
47043 
Channel: 9 Note ON:  C2 key: 36 velocity: 0
47280 
Channel: 9 Note ON:  C2 key: 36 velocity: 127
47283 
Channel: 9 Note ON:  C2 key: 36 velocity: 0
47520 
Channel: 9 Note ON:  C2 key: 36 velocity: 127
47523 
Channel: 9 Note ON:  C2 key: 36 velocity: 0
47760 
Channel: 9 Note ON:  C2 key: 36 velocity: 127
47764 
Channel: 9 Note ON:  C2 key: 36 velocity: 0
48000 
Channel: 9 Note ON:  C2 key: 36 velocity: 127
48002 
Channel: 9 Note ON:  C2 key: 36 velocity: 0
48240 
Channel: 9 Note ON:  C2 key: 36 velocity: 127
48248 
Channel: 9 Note ON:  C2 key: 36 velocity: 0
48480 
Channel: 9 Note ON:  C2 key: 36 velocity: 127
48482 
Channel: 9 Note ON:  C2 key: 36 velocity: 0
48720 
Channel: 9 Note ON:  C2 key: 36 velocity: 127
48722 
Channel: 9 Note ON:  C2 key: 36 velocity: 0
48960 
Channel: 9 Note ON:  C2 key: 36 velocity: 127
48963 
Channel: 9 Note ON:  C2 key: 36 velocity: 0
49200 
Channel: 9 Note ON:  C2 key: 36 velocity: 127
49203 
Channel: 9 Note ON:  C2 key: 36 velocity: 0
49440 
Channel: 9 Note ON:  C2 key: 36 velocity: 127
49443 
Channel: 9 Note ON:  C2 key: 36 velocity: 0
49680 
Channel: 9 Note ON:  C2 key: 36 velocity: 127
49684 
Channel: 9 Note ON:  C2 key: 36 velocity: 0
49920 
Channel: 9 Note ON:  C2 key: 36 velocity: 127
49923 
Channel: 9 Note ON:  C2 key: 36 velocity: 0
50160 
Channel: 9 Note ON:  C2 key: 36 velocity: 127
50169 
Channel: 9 Note ON:  C2 key: 36 velocity: 0
50400 
Channel: 9 Note ON:  C2 key: 36 velocity: 127
50402 
Channel: 9 Note ON:  C2 key: 36 velocity: 0
50640 
Channel: 9 Note ON:  C2 key: 36 velocity: 127
50642 
Channel: 9 Note ON:  C2 key: 36 velocity: 0
50880 
Channel: 9 Note ON:  C2 key: 36 velocity: 127
50882 
Channel: 9 Note ON:  C2 key: 36 velocity: 0
51120 
Channel: 9 Note ON:  C2 key: 36 velocity: 127
51123 
Channel: 9 Note ON:  C2 key: 36 velocity: 0
51360 
Channel: 9 Note ON:  C2 key: 36 velocity: 127
51362 
Channel: 9 Note ON:  C2 key: 36 velocity: 0
51600 
Channel: 9 Note ON:  C2 key: 36 velocity: 127
51605 
Channel: 9 Note ON:  C2 key: 36 velocity: 0
51840 
Channel: 9 Note ON:  C2 key: 36 velocity: 127
51842 
Channel: 9 Note ON:  C2 key: 36 velocity: 0
52080 
Channel: 9 Note ON:  C2 key: 36 velocity: 127
52089 
Channel: 9 Note ON:  C2 key: 36 velocity: 0
52320 
Channel: 9 Note ON:  C2 key: 36 velocity: 127
52322 
Channel: 9 Note ON:  C2 key: 36 velocity: 0
52560 
Channel: 9 Note ON:  C2 key: 36 velocity: 127
52562 
Channel: 9 Note ON:  C2 key: 36 velocity: 0
52800 
Channel: 9 Note ON:  C2 key: 36 velocity: 127
52975 
Channel: 9 Note ON:  C2 key: 36 velocity: 0
53160 
Channel: 9 Note ON:  C2 key: 36 velocity: 127
53262 
Channel: 9 Note ON:  C2 key: 36 velocity: 0
53760 
Channel: 9 Note ON:  C2 key: 36 velocity: 127
53867 
Channel: 9 Note ON:  C2 key: 36 velocity: 0
54000 
Channel: 9 Note ON:  C2 key: 36 velocity: 127
54040 
Channel: 9 Note ON:  C2 key: 36 velocity: 0
54120 
Channel: 9 Note ON:  C2 key: 36 velocity: 127
54235 
Channel: 9 Note ON:  C2 key: 36 velocity: 0
54720 
Channel: 9 Note ON:  C2 key: 36 velocity: 127
54722 
Channel: 9 Note ON:  C2 key: 36 velocity: 0
54960 
Channel: 9 Note ON:  C2 key: 36 velocity: 127
54963 
Channel: 9 Note ON:  C2 key: 36 velocity: 0
55200 
Channel: 9 Note ON:  C2 key: 36 velocity: 127
55202 
Channel: 9 Note ON:  C2 key: 36 velocity: 0
55440 
Channel: 9 Note ON:  C2 key: 36 velocity: 127
55444 
Channel: 9 Note ON:  C2 key: 36 velocity: 0
55680 
Channel: 9 Note ON:  C2 key: 36 velocity: 127
55683 
Channel: 9 Note ON:  C2 key: 36 velocity: 0
55920 
Channel: 9 Note ON:  C2 key: 36 velocity: 127
55927 
Channel: 9 Note ON:  C2 key: 36 velocity: 0
56160 
Channel: 9 Note ON:  C2 key: 36 velocity: 127
56163 
Channel: 9 Note ON:  C2 key: 36 velocity: 0
56400 
Channel: 9 Note ON:  C2 key: 36 velocity: 127
56403 
Channel: 9 Note ON:  C2 key: 36 velocity: 0
56640 
Channel: 9 Note ON:  C2 key: 36 velocity: 127
56643 
Channel: 9 Note ON:  C2 key: 36 velocity: 0
56880 
Channel: 9 Note ON:  C2 key: 36 velocity: 127
56883 
Channel: 9 Note ON:  C2 key: 36 velocity: 0
57120 
Channel: 9 Note ON:  C2 key: 36 velocity: 127
57123 
Channel: 9 Note ON:  C2 key: 36 velocity: 0
57360 
Channel: 9 Note ON:  C2 key: 36 velocity: 127
57364 
Channel: 9 Note ON:  C2 key: 36 velocity: 0
57600 
Channel: 9 Note ON:  C2 key: 36 velocity: 127
57602 
Channel: 9 Note ON:  C2 key: 36 velocity: 0
57840 
Channel: 9 Note ON:  C2 key: 36 velocity: 127
57848 
Channel: 9 Note ON:  C2 key: 36 velocity: 0
58080 
Channel: 9 Note ON:  C2 key: 36 velocity: 127
58082 
Channel: 9 Note ON:  C2 key: 36 velocity: 0
58320 
Channel: 9 Note ON:  C2 key: 36 velocity: 127
58322 
Channel: 9 Note ON:  C2 key: 36 velocity: 0
58560 
Channel: 9 Note ON:  C2 key: 36 velocity: 127
58562 
Channel: 9 Note ON:  C2 key: 36 velocity: 0
58800 
Channel: 9 Note ON:  C2 key: 36 velocity: 127
58803 
Channel: 9 Note ON:  C2 key: 36 velocity: 0
59040 
Channel: 9 Note ON:  C2 key: 36 velocity: 127
59042 
Channel: 9 Note ON:  C2 key: 36 velocity: 0
59280 
Channel: 9 Note ON:  C2 key: 36 velocity: 127
59284 
Channel: 9 Note ON:  C2 key: 36 velocity: 0
59520 
Channel: 9 Note ON:  C2 key: 36 velocity: 127
59523 
Channel: 9 Note ON:  C2 key: 36 velocity: 0
59760 
Channel: 9 Note ON:  C2 key: 36 velocity: 127
59767 
Channel: 9 Note ON:  C2 key: 36 velocity: 0
60000 
Channel: 9 Note ON:  C2 key: 36 velocity: 127
60003 
Channel: 9 Note ON:  C2 key: 36 velocity: 0
60240 
Channel: 9 Note ON:  C2 key: 36 velocity: 127
60243 
Channel: 9 Note ON:  C2 key: 36 velocity: 0
60480 
Channel: 9 Note ON:  C2 key: 36 velocity: 127
60483 
Channel: 9 Note ON:  C2 key: 36 velocity: 0
60720 
Channel: 9 Note ON:  C2 key: 36 velocity: 127
60723 
Channel: 9 Note ON:  C2 key: 36 velocity: 0
60960 
Channel: 9 Note ON:  C2 key: 36 velocity: 127
60963 
Channel: 9 Note ON:  C2 key: 36 velocity: 0
61200 
Channel: 9 Note ON:  C2 key: 36 velocity: 127
61204 
Channel: 9 Note ON:  C2 key: 36 velocity: 0
61440 
Channel: 9 Note ON:  C2 key: 36 velocity: 127
61442 
Channel: 9 Note ON:  C2 key: 36 velocity: 0
61680 
Channel: 9 Note ON:  C2 key: 36 velocity: 127
61688 
Channel: 9 Note ON:  C2 key: 36 velocity: 0
61920 
Channel: 9 Note ON:  C2 key: 36 velocity: 127
61922 
Channel: 9 Note ON:  C2 key: 36 velocity: 0
62160 
Channel: 9 Note ON:  C2 key: 36 velocity: 127
62162 
Channel: 9 Note ON:  C2 key: 36 velocity: 0
62400 
Channel: 9 Note ON:  C2 key: 36 velocity: 127
62403 
Channel: 9 Note ON:  C2 key: 36 velocity: 0
62640 
Channel: 9 Note ON:  C2 key: 36 velocity: 127
62643 
Channel: 9 Note ON:  C2 key: 36 velocity: 0
62880 
Channel: 9 Note ON:  C2 key: 36 velocity: 127
62883 
Channel: 9 Note ON:  C2 key: 36 velocity: 0
63120 
Channel: 9 Note ON:  C2 key: 36 velocity: 127
63124 
Channel: 9 Note ON:  C2 key: 36 velocity: 0
63360 
Channel: 9 Note ON:  C2 key: 36 velocity: 127
63363 
Channel: 9 Note ON:  C2 key: 36 velocity: 0
63600 
Channel: 9 Note ON:  C2 key: 36 velocity: 127
63609 
Channel: 9 Note ON:  C2 key: 36 velocity: 0
63840 
Channel: 9 Note ON:  C2 key: 36 velocity: 127
63842 
Channel: 9 Note ON:  C2 key: 36 velocity: 0
64080 
Channel: 9 Note ON:  C2 key: 36 velocity: 127
64082 
Channel: 9 Note ON:  C2 key: 36 velocity: 0
64320 
Channel: 9 Note ON:  C2 key: 36 velocity: 127
64322 
Channel: 9 Note ON:  C2 key: 36 velocity: 0
64560 
Channel: 9 Note ON:  C2 key: 36 velocity: 127
64563 
Channel: 9 Note ON:  C2 key: 36 velocity: 0
64800 
Channel: 9 Note ON:  C2 key: 36 velocity: 127
64802 
Channel: 9 Note ON:  C2 key: 36 velocity: 0
65040 
Channel: 9 Note ON:  C2 key: 36 velocity: 127
65045 
Channel: 9 Note ON:  C2 key: 36 velocity: 0
65280 
Channel: 9 Note ON:  C2 key: 36 velocity: 127
65282 
Channel: 9 Note ON:  C2 key: 36 velocity: 0
65520 
Channel: 9 Note ON:  C2 key: 36 velocity: 127
65529 
Channel: 9 Note ON:  C2 key: 36 velocity: 0
65760 
Channel: 9 Note ON:  C2 key: 36 velocity: 127
65762 
Channel: 9 Note ON:  C2 key: 36 velocity: 0
66000 
Channel: 9 Note ON:  C2 key: 36 velocity: 127
66002 
Channel: 9 Note ON:  C2 key: 36 velocity: 0
66240 
Channel: 9 Note ON:  C2 key: 36 velocity: 127
66242 
Channel: 9 Note ON:  C2 key: 36 velocity: 0
66480 
Channel: 9 Note ON:  C2 key: 36 velocity: 127
66483 
Channel: 9 Note ON:  C2 key: 36 velocity: 0
66720 
Channel: 9 Note ON:  C2 key: 36 velocity: 127
66722 
Channel: 9 Note ON:  C2 key: 36 velocity: 0
66960 
Channel: 9 Note ON:  C2 key: 36 velocity: 127
66964 
Channel: 9 Note ON:  C2 key: 36 velocity: 0
67200 
Channel: 9 Note ON:  C2 key: 36 velocity: 127
67203 
Channel: 9 Note ON:  C2 key: 36 velocity: 0
67440 
Channel: 9 Note ON:  C2 key: 36 velocity: 127
67447 
Channel: 9 Note ON:  C2 key: 36 velocity: 0
67680 
Channel: 9 Note ON:  C2 key: 36 velocity: 127
67683 
Channel: 9 Note ON:  C2 key: 36 velocity: 0
67920 
Channel: 9 Note ON:  C2 key: 36 velocity: 127
67923 
Channel: 9 Note ON:  C2 key: 36 velocity: 0
68160 
Channel: 9 Note ON:  C2 key: 36 velocity: 127
68163 
Channel: 9 Note ON:  C2 key: 36 velocity: 0
68400 
Channel: 9 Note ON:  C2 key: 36 velocity: 127
68403 
Channel: 9 Note ON:  C2 key: 36 velocity: 0
68640 
Channel: 9 Note ON:  C2 key: 36 velocity: 127
68643 
Channel: 9 Note ON:  C2 key: 36 velocity: 0
68880 
Channel: 9 Note ON:  C2 key: 36 velocity: 127
68884 
Channel: 9 Note ON:  C2 key: 36 velocity: 0
69120 
Channel: 9 Note ON:  C2 key: 36 velocity: 127
69122 
Channel: 9 Note ON:  C2 key: 36 velocity: 0
69360 
Channel: 9 Note ON:  C2 key: 36 velocity: 127
69368 
Channel: 9 Note ON:  C2 key: 36 velocity: 0
69600 
Channel: 9 Note ON:  C2 key: 36 velocity: 127
69602 
Channel: 9 Note ON:  C2 key: 36 velocity: 0
69840 
Channel: 9 Note ON:  C2 key: 36 velocity: 127
69842 
Channel: 9 Note ON:  C2 key: 36 velocity: 0
70080 
Channel: 9 Note ON:  C2 key: 36 velocity: 127
70083 
Channel: 9 Note ON:  C2 key: 36 velocity: 0
70320 
Channel: 9 Note ON:  C2 key: 36 velocity: 127
70323 
Channel: 9 Note ON:  C2 key: 36 velocity: 0
70560 
Channel: 9 Note ON:  C2 key: 36 velocity: 127
70563 
Channel: 9 Note ON:  C2 key: 36 velocity: 0
70800 
Channel: 9 Note ON:  C2 key: 36 velocity: 127
70804 
Channel: 9 Note ON:  C2 key: 36 velocity: 0
71040 
Channel: 9 Note ON:  C2 key: 36 velocity: 127
71043 
Channel: 9 Note ON:  C2 key: 36 velocity: 0
71280 
Channel: 9 Note ON:  C2 key: 36 velocity: 127
71289 
Channel: 9 Note ON:  C2 key: 36 velocity: 0
71520 
Channel: 9 Note ON:  C2 key: 36 velocity: 127
71522 
Channel: 9 Note ON:  C2 key: 36 velocity: 0
71760 
Channel: 9 Note ON:  C2 key: 36 velocity: 127
71762 
Channel: 9 Note ON:  C2 key: 36 velocity: 0
72000 
Channel: 9 Note ON:  C2 key: 36 velocity: 127
72002 
Channel: 9 Note ON:  C2 key: 36 velocity: 0
72240 
Channel: 9 Note ON:  C2 key: 36 velocity: 127
72243 
Channel: 9 Note ON:  C2 key: 36 velocity: 0
72480 
Channel: 9 Note ON:  C2 key: 36 velocity: 127
72482 
Channel: 9 Note ON:  C2 key: 36 velocity: 0
72720 
Channel: 9 Note ON:  C2 key: 36 velocity: 127
72725 
Channel: 9 Note ON:  C2 key: 36 velocity: 0
72960 
Channel: 9 Note ON:  C2 key: 36 velocity: 127
72962 
Channel: 9 Note ON:  C2 key: 36 velocity: 0
73200 
Channel: 9 Note ON:  C2 key: 36 velocity: 127
73209 
Channel: 9 Note ON:  C2 key: 36 velocity: 0
73440 
Channel: 9 Note ON:  C2 key: 36 velocity: 127
73442 
Channel: 9 Note ON:  C2 key: 36 velocity: 0
73680 
Channel: 9 Note ON:  C2 key: 36 velocity: 127
73682 
Channel: 9 Note ON:  C2 key: 36 velocity: 0
73920 
Channel: 9 Note ON:  C2 key: 36 velocity: 127
73923 
Channel: 9 Note ON:  C2 key: 36 velocity: 0
74160 
Channel: 9 Note ON:  C2 key: 36 velocity: 127
74163 
Channel: 9 Note ON:  C2 key: 36 velocity: 0
74400 
Channel: 9 Note ON:  C2 key: 36 velocity: 127
74403 
Channel: 9 Note ON:  C2 key: 36 velocity: 0
74640 
Channel: 9 Note ON:  C2 key: 36 velocity: 127
74644 
Channel: 9 Note ON:  C2 key: 36 velocity: 0
74880 
Channel: 9 Note ON:  C2 key: 36 velocity: 127
74882 
Channel: 9 Note ON:  C2 key: 36 velocity: 0
75120 
Channel: 9 Note ON:  C2 key: 36 velocity: 127
75128 
Channel: 9 Note ON:  C2 key: 36 velocity: 0
75360 
Channel: 9 Note ON:  C2 key: 36 velocity: 127
75362 
Channel: 9 Note ON:  C2 key: 36 velocity: 0
75600 
Channel: 9 Note ON:  C2 key: 36 velocity: 127
75602 
Channel: 9 Note ON:  C2 key: 36 velocity: 0
75840 
Channel: 9 Note ON:  C2 key: 36 velocity: 127
75843 
Channel: 9 Note ON:  C2 key: 36 velocity: 0
76080 
Channel: 9 Note ON:  C2 key: 36 velocity: 127
76083 
Channel: 9 Note ON:  C2 key: 36 velocity: 0
76320 
Channel: 9 Note ON:  C2 key: 36 velocity: 127
76323 
Channel: 9 Note ON:  C2 key: 36 velocity: 0
76560 
Channel: 9 Note ON:  C2 key: 36 velocity: 127
76564 
Channel: 9 Note ON:  C2 key: 36 velocity: 0
76800 
Channel: 9 Note ON:  C2 key: 36 velocity: 127
76803 
Channel: 9 Note ON:  C2 key: 36 velocity: 0
77040 
Channel: 9 Note ON:  C2 key: 36 velocity: 127
77049 
Channel: 9 Note ON:  C2 key: 36 velocity: 0
77280 
Channel: 9 Note ON:  C2 key: 36 velocity: 127
77282 
Channel: 9 Note ON:  C2 key: 36 velocity: 0
77520 
Channel: 9 Note ON:  C2 key: 36 velocity: 127
77522 
Channel: 9 Note ON:  C2 key: 36 velocity: 0
77760 
Channel: 9 Note ON:  C2 key: 36 velocity: 127
77762 
Channel: 9 Note ON:  C2 key: 36 velocity: 0
78000 
Channel: 9 Note ON:  C2 key: 36 velocity: 127
78003 
Channel: 9 Note ON:  C2 key: 36 velocity: 0
78240 
Channel: 9 Note ON:  C2 key: 36 velocity: 127
78242 
Channel: 9 Note ON:  C2 key: 36 velocity: 0
78480 
Channel: 9 Note ON:  C2 key: 36 velocity: 127
78485 
Channel: 9 Note ON:  C2 key: 36 velocity: 0
78720 
Channel: 9 Note ON:  C2 key: 36 velocity: 127
78722 
Channel: 9 Note ON:  C2 key: 36 velocity: 0
78960 
Channel: 9 Note ON:  C2 key: 36 velocity: 127
78969 
Channel: 9 Note ON:  C2 key: 36 velocity: 0
79200 
Channel: 9 Note ON:  C2 key: 36 velocity: 127
79202 
Channel: 9 Note ON:  C2 key: 36 velocity: 0
79440 
Channel: 9 Note ON:  C2 key: 36 velocity: 127
79442 
Channel: 9 Note ON:  C2 key: 36 velocity: 0
79680 
Channel: 9 Note ON:  C2 key: 36 velocity: 127
79682 
Channel: 9 Note ON:  C2 key: 36 velocity: 0
79920 
Channel: 9 Note ON:  C2 key: 36 velocity: 127
79923 
Channel: 9 Note ON:  C2 key: 36 velocity: 0
80160 
Channel: 9 Note ON:  C2 key: 36 velocity: 127
80162 
Channel: 9 Note ON:  C2 key: 36 velocity: 0
80400 
Channel: 9 Note ON:  C2 key: 36 velocity: 127
80404 
Channel: 9 Note ON:  C2 key: 36 velocity: 0
80640 
Channel: 9 Note ON:  C2 key: 36 velocity: 127
80643 
Channel: 9 Note ON:  C2 key: 36 velocity: 0
80880 
Channel: 9 Note ON:  C2 key: 36 velocity: 127
80887 
Channel: 9 Note ON:  C2 key: 36 velocity: 0
81120 
Channel: 9 Note ON:  C2 key: 36 velocity: 127
81123 
Channel: 9 Note ON:  C2 key: 36 velocity: 0
81360 
Channel: 9 Note ON:  C2 key: 36 velocity: 127
81363 
Channel: 9 Note ON:  C2 key: 36 velocity: 0
81600 
Channel: 9 Note ON:  C2 key: 36 velocity: 127
81603 
Channel: 9 Note ON:  C2 key: 36 velocity: 0
81840 
Channel: 9 Note ON:  C2 key: 36 velocity: 127
81843 
Channel: 9 Note ON:  C2 key: 36 velocity: 0
82080 
Channel: 9 Note ON:  C2 key: 36 velocity: 127
82083 
Channel: 9 Note ON:  C2 key: 36 velocity: 0
82320 
Channel: 9 Note ON:  C2 key: 36 velocity: 127
82324 
Channel: 9 Note ON:  C2 key: 36 velocity: 0
82560 
Channel: 9 Note ON:  C2 key: 36 velocity: 127
82562 
Channel: 9 Note ON:  C2 key: 36 velocity: 0
82800 
Channel: 9 Note ON:  C2 key: 36 velocity: 127
82808 
Channel: 9 Note ON:  C2 key: 36 velocity: 0
83040 
Channel: 9 Note ON:  C2 key: 36 velocity: 127
83042 
Channel: 9 Note ON:  C2 key: 36 velocity: 0
83280 
Channel: 9 Note ON:  C2 key: 36 velocity: 127
83282 
Channel: 9 Note ON:  C2 key: 36 velocity: 0
83520 
Channel: 9 Note ON:  C2 key: 36 velocity: 127
83523 
Channel: 9 Note ON:  C2 key: 36 velocity: 0
83760 
Channel: 9 Note ON:  C2 key: 36 velocity: 127
83763 
Channel: 9 Note ON:  C2 key: 36 velocity: 0
84000 
Channel: 9 Note ON:  C2 key: 36 velocity: 127
84003 
Channel: 9 Note ON:  C2 key: 36 velocity: 0
84240 
Channel: 9 Note ON:  C2 key: 36 velocity: 127
84244 
Channel: 9 Note ON:  C2 key: 36 velocity: 0
84480 
Channel: 9 Note ON:  C2 key: 36 velocity: 127
84483 
Channel: 9 Note ON:  C2 key: 36 velocity: 0
84720 
Channel: 9 Note ON:  C2 key: 36 velocity: 127
84729 
Channel: 9 Note ON:  C2 key: 36 velocity: 0
84960 
Channel: 9 Note ON:  C2 key: 36 velocity: 127
84962 
Channel: 9 Note ON:  C2 key: 36 velocity: 0
85200 
Channel: 9 Note ON:  C2 key: 36 velocity: 127
85202 
Channel: 9 Note ON:  C2 key: 36 velocity: 0
85440 
Channel: 9 Note ON:  C2 key: 36 velocity: 127
85442 
Channel: 9 Note ON:  C2 key: 36 velocity: 0
85680 
Channel: 9 Note ON:  C2 key: 36 velocity: 127
85683 
Channel: 9 Note ON:  C2 key: 36 velocity: 0
85920 
Channel: 9 Note ON:  C2 key: 36 velocity: 127
85922 
Channel: 9 Note ON:  C2 key: 36 velocity: 0
86160 
Channel: 9 Note ON:  C2 key: 36 velocity: 127
86165 
Channel: 9 Note ON:  C2 key: 36 velocity: 0
86400 
Channel: 9 Note ON:  C2 key: 36 velocity: 127
86402 
Channel: 9 Note ON:  C2 key: 36 velocity: 0
86640 
Channel: 9 Note ON:  C2 key: 36 velocity: 127
86649 
Channel: 9 Note ON:  C2 key: 36 velocity: 0
86880 
Channel: 9 Note ON:  C2 key: 36 velocity: 127
86882 
Channel: 9 Note ON:  C2 key: 36 velocity: 0
87120 
Channel: 9 Note ON:  C2 key: 36 velocity: 127
87122 
Channel: 9 Note ON:  C2 key: 36 velocity: 0
87360 
Channel: 9 Note ON:  C2 key: 36 velocity: 127
87535 
Channel: 9 Note ON:  C2 key: 36 velocity: 0
87720 
Channel: 9 Note ON:  C2 key: 36 velocity: 127
87822 
Channel: 9 Note ON:  C2 key: 36 velocity: 0
88320 
Channel: 9 Note ON:  C2 key: 36 velocity: 127
88427 
Channel: 9 Note ON:  C2 key: 36 velocity: 0
88560 
Channel: 9 Note ON:  C2 key: 36 velocity: 127
88600 
Channel: 9 Note ON:  C2 key: 36 velocity: 0
88680 
Channel: 9 Note ON:  C2 key: 36 velocity: 127
88795 
Channel: 9 Note ON:  C2 key: 36 velocity: 0
89280 
Channel: 9 Note ON:  C2 key: 36 velocity: 127
89282 
Channel: 9 Note ON:  C2 key: 36 velocity: 0
89520 
Channel: 9 Note ON:  C2 key: 36 velocity: 127
89523 
Channel: 9 Note ON:  C2 key: 36 velocity: 0
89760 
Channel: 9 Note ON:  C2 key: 36 velocity: 127
89762 
Channel: 9 Note ON:  C2 key: 36 velocity: 0
90000 
Channel: 9 Note ON:  C2 key: 36 velocity: 127
90004 
Channel: 9 Note ON:  C2 key: 36 velocity: 0
90240 
Channel: 9 Note ON:  C2 key: 36 velocity: 127
90243 
Channel: 9 Note ON:  C2 key: 36 velocity: 0
90480 
Channel: 9 Note ON:  C2 key: 36 velocity: 127
90487 
Channel: 9 Note ON:  C2 key: 36 velocity: 0
90720 
Channel: 9 Note ON:  C2 key: 36 velocity: 127
90723 
Channel: 9 Note ON:  C2 key: 36 velocity: 0
90960 
Channel: 9 Note ON:  C2 key: 36 velocity: 127
90963 
Channel: 9 Note ON:  C2 key: 36 velocity: 0
91200 
Channel: 9 Note ON:  C2 key: 36 velocity: 127
91203 
Channel: 9 Note ON:  C2 key: 36 velocity: 0
91440 
Channel: 9 Note ON:  C2 key: 36 velocity: 127
91443 
Channel: 9 Note ON:  C2 key: 36 velocity: 0
91680 
Channel: 9 Note ON:  C2 key: 36 velocity: 127
91683 
Channel: 9 Note ON:  C2 key: 36 velocity: 0
91920 
Channel: 9 Note ON:  C2 key: 36 velocity: 127
91924 
Channel: 9 Note ON:  C2 key: 36 velocity: 0
92160 
Channel: 9 Note ON:  C2 key: 36 velocity: 127
92162 
Channel: 9 Note ON:  C2 key: 36 velocity: 0
92400 
Channel: 9 Note ON:  C2 key: 36 velocity: 127
92408 
Channel: 9 Note ON:  C2 key: 36 velocity: 0
92640 
Channel: 9 Note ON:  C2 key: 36 velocity: 127
92642 
Channel: 9 Note ON:  C2 key: 36 velocity: 0
92880 
Channel: 9 Note ON:  C2 key: 36 velocity: 127
92882 
Channel: 9 Note ON:  C2 key: 36 velocity: 0
93120 
Channel: 9 Note ON:  C2 key: 36 velocity: 127
93123 
Channel: 9 Note ON:  C2 key: 36 velocity: 0
93360 
Channel: 9 Note ON:  C2 key: 36 velocity: 127
93363 
Channel: 9 Note ON:  C2 key: 36 velocity: 0
93600 
Channel: 9 Note ON:  C2 key: 36 velocity: 127
93603 
Channel: 9 Note ON:  C2 key: 36 velocity: 0
93840 
Channel: 9 Note ON:  C2 key: 36 velocity: 127
93844 
Channel: 9 Note ON:  C2 key: 36 velocity: 0
94080 
Channel: 9 Note ON:  C2 key: 36 velocity: 127
94083 
Channel: 9 Note ON:  C2 key: 36 velocity: 0
94320 
Channel: 9 Note ON:  C2 key: 36 velocity: 127
94329 
Channel: 9 Note ON:  C2 key: 36 velocity: 0
94560 
Channel: 9 Note ON:  C2 key: 36 velocity: 127
94562 
Channel: 9 Note ON:  C2 key: 36 velocity: 0
94800 
Channel: 9 Note ON:  C2 key: 36 velocity: 127
94802 
Channel: 9 Note ON:  C2 key: 36 velocity: 0
95040 
Channel: 9 Note ON:  C2 key: 36 velocity: 127
95042 
Channel: 9 Note ON:  C2 key: 36 velocity: 0
95280 
Channel: 9 Note ON:  C2 key: 36 velocity: 127
95283 
Channel: 9 Note ON:  C2 key: 36 velocity: 0
95520 
Channel: 9 Note ON:  C2 key: 36 velocity: 127
95522 
Channel: 9 Note ON:  C2 key: 36 velocity: 0
95760 
Channel: 9 Note ON:  C2 key: 36 velocity: 127
95765 
Channel: 9 Note ON:  C2 key: 36 velocity: 0
96000 
Channel: 9 Note ON:  C2 key: 36 velocity: 127
96002 
Channel: 9 Note ON:  C2 key: 36 velocity: 0
96240 
Channel: 9 Note ON:  C2 key: 36 velocity: 127
96249 
Channel: 9 Note ON:  C2 key: 36 velocity: 0
96480 
Channel: 9 Note ON:  C2 key: 36 velocity: 127
96482 
Channel: 9 Note ON:  C2 key: 36 velocity: 0
96720 
Channel: 9 Note ON:  C2 key: 36 velocity: 127
96722 
Channel: 9 Note ON:  C2 key: 36 velocity: 0
96960 
Channel: 9 Note ON:  C2 key: 36 velocity: 127
96962 
Channel: 9 Note ON:  C2 key: 36 velocity: 0
97200 
Channel: 9 Note ON:  C2 key: 36 velocity: 127
97203 
Channel: 9 Note ON:  C2 key: 36 velocity: 0
97440 
Channel: 9 Note ON:  C2 key: 36 velocity: 127
97442 
Channel: 9 Note ON:  C2 key: 36 velocity: 0
97680 
Channel: 9 Note ON:  C2 key: 36 velocity: 127
97684 
Channel: 9 Note ON:  C2 key: 36 velocity: 0
97920 
Channel: 9 Note ON:  C2 key: 36 velocity: 127
97923 
Channel: 9 Note ON:  C2 key: 36 velocity: 0
98160 
Channel: 9 Note ON:  C2 key: 36 velocity: 127
98167 
Channel: 9 Note ON:  C2 key: 36 velocity: 0
98400 
Channel: 9 Note ON:  C2 key: 36 velocity: 127
98403 
Channel: 9 Note ON:  C2 key: 36 velocity: 0
98640 
Channel: 9 Note ON:  C2 key: 36 velocity: 127
98643 
Channel: 9 Note ON:  C2 key: 36 velocity: 0
98880 
Channel: 9 Note ON:  C2 key: 36 velocity: 127
98883 
Channel: 9 Note ON:  C2 key: 36 velocity: 0
99120 
Channel: 9 Note ON:  C2 key: 36 velocity: 127
99123 
Channel: 9 Note ON:  C2 key: 36 velocity: 0
99360 
Channel: 9 Note ON:  C2 key: 36 velocity: 127
99363 
Channel: 9 Note ON:  C2 key: 36 velocity: 0
99600 
Channel: 9 Note ON:  C2 key: 36 velocity: 127
99604 
Channel: 9 Note ON:  C2 key: 36 velocity: 0
99840 
Channel: 9 Note ON:  C2 key: 36 velocity: 127
99842 
Channel: 9 Note ON:  C2 key: 36 velocity: 0
100080 
Channel: 9 Note ON:  C2 key: 36 velocity: 127
100088 
Channel: 9 Note ON:  C2 key: 36 velocity: 0
100320 
Channel: 9 Note ON:  C2 key: 36 velocity: 127
100322 
Channel: 9 Note ON:  C2 key: 36 velocity: 0
100560 
Channel: 9 Note ON:  C2 key: 36 velocity: 127
100562 
Channel: 9 Note ON:  C2 key: 36 velocity: 0
100800 
Channel: 9 Note ON:  C2 key: 36 velocity: 127
100803 
Channel: 9 Note ON:  C2 key: 36 velocity: 0
101040 
Channel: 9 Note ON:  C2 key: 36 velocity: 127
101043 
Channel: 9 Note ON:  C2 key: 36 velocity: 0
101280 
Channel: 9 Note ON:  C2 key: 36 velocity: 127
101283 
Channel: 9 Note ON:  C2 key: 36 velocity: 0
101520 
Channel: 9 Note ON:  C2 key: 36 velocity: 127
101524 
Channel: 9 Note ON:  C2 key: 36 velocity: 0
101760 
Channel: 9 Note ON:  C2 key: 36 velocity: 127
101763 
Channel: 9 Note ON:  C2 key: 36 velocity: 0
102000 
Channel: 9 Note ON:  C2 key: 36 velocity: 127
102009 
Channel: 9 Note ON:  C2 key: 36 velocity: 0
102240 
Channel: 9 Note ON:  C2 key: 36 velocity: 127
102242 
Channel: 9 Note ON:  C2 key: 36 velocity: 0
102480 
Channel: 9 Note ON:  C2 key: 36 velocity: 127
102482 
Channel: 9 Note ON:  C2 key: 36 velocity: 0
102720 
Channel: 9 Note ON:  C2 key: 36 velocity: 127
102722 
Channel: 9 Note ON:  C2 key: 36 velocity: 0
102960 
Channel: 9 Note ON:  C2 key: 36 velocity: 127
102963 
Channel: 9 Note ON:  C2 key: 36 velocity: 0
103200 
Channel: 9 Note ON:  C2 key: 36 velocity: 127
103202 
Channel: 9 Note ON:  C2 key: 36 velocity: 0
103440 
Channel: 9 Note ON:  C2 key: 36 velocity: 127
103445 
Channel: 9 Note ON:  C2 key: 36 velocity: 0
103680 
Channel: 9 Note ON:  C2 key: 36 velocity: 127
103682 
Channel: 9 Note ON:  C2 key: 36 velocity: 0
103920 
Channel: 9 Note ON:  C2 key: 36 velocity: 127
103929 
Channel: 9 Note ON:  C2 key: 36 velocity: 0
104160 
Channel: 9 Note ON:  C2 key: 36 velocity: 127
104162 
Channel: 9 Note ON:  C2 key: 36 velocity: 0
104400 
Channel: 9 Note ON:  C2 key: 36 velocity: 127
104402 
Channel: 9 Note ON:  C2 key: 36 velocity: 0
104640 
Channel: 9 Note ON:  C2 key: 36 velocity: 127
104642 
Channel: 9 Note ON:  C2 key: 36 velocity: 0
104880 
Channel: 9 Note ON:  C2 key: 36 velocity: 127
104883 
Channel: 9 Note ON:  C2 key: 36 velocity: 0
105120 
Channel: 9 Note ON:  C2 key: 36 velocity: 127
105122 
Channel: 9 Note ON:  C2 key: 36 velocity: 0
105360 
Channel: 9 Note ON:  C2 key: 36 velocity: 127
105364 
Channel: 9 Note ON:  C2 key: 36 velocity: 0
105600 
Channel: 9 Note ON:  C2 key: 36 velocity: 127
105603 
Channel: 9 Note ON:  C2 key: 36 velocity: 0
105840 
Channel: 9 Note ON:  C2 key: 36 velocity: 127
105847 
Channel: 9 Note ON:  C2 key: 36 velocity: 0
106080 
Channel: 9 Note ON:  C2 key: 36 velocity: 127
106083 
Channel: 9 Note ON:  C2 key: 36 velocity: 0
106320 
Channel: 9 Note ON:  C2 key: 36 velocity: 127
106323 
Channel: 9 Note ON:  C2 key: 36 velocity: 0
106560 
Channel: 9 Note ON:  C2 key: 36 velocity: 127
106563 
Channel: 9 Note ON:  C2 key: 36 velocity: 0
106800 
Channel: 9 Note ON:  C2 key: 36 velocity: 127
106803 
Channel: 9 Note ON:  C2 key: 36 velocity: 0
107040 
Channel: 9 Note ON:  C2 key: 36 velocity: 127
107043 
Channel: 9 Note ON:  C2 key: 36 velocity: 0
107280 
Channel: 9 Note ON:  C2 key: 36 velocity: 127
107284 
Channel: 9 Note ON:  C2 key: 36 velocity: 0
107520 
Channel: 9 Note ON:  C2 key: 36 velocity: 127
107522 
Channel: 9 Note ON:  C2 key: 36 velocity: 0
107760 
Channel: 9 Note ON:  C2 key: 36 velocity: 127
107768 
Channel: 9 Note ON:  C2 key: 36 velocity: 0
108000 
Channel: 9 Note ON:  C2 key: 36 velocity: 127
108002 
Channel: 9 Note ON:  C2 key: 36 velocity: 0
108240 
Channel: 9 Note ON:  C2 key: 36 velocity: 127
108242 
Channel: 9 Note ON:  C2 key: 36 velocity: 0
108480 
Channel: 9 Note ON:  C2 key: 36 velocity: 127
108483 
Channel: 9 Note ON:  C2 key: 36 velocity: 0
108720 
Channel: 9 Note ON:  C2 key: 36 velocity: 127
108723 
Channel: 9 Note ON:  C2 key: 36 velocity: 0
108960 
Channel: 9 Note ON:  C2 key: 36 velocity: 127
108963 
Channel: 9 Note ON:  C2 key: 36 velocity: 0
109200 
Channel: 9 Note ON:  C2 key: 36 velocity: 127
109204 
Channel: 9 Note ON:  C2 key: 36 velocity: 0
109440 
Channel: 9 Note ON:  C2 key: 36 velocity: 127
109443 
Channel: 9 Note ON:  C2 key: 36 velocity: 0
109680 
Channel: 9 Note ON:  C2 key: 36 velocity: 127
109689 
Channel: 9 Note ON:  C2 key: 36 velocity: 0
109920 
Channel: 9 Note ON:  C2 key: 36 velocity: 127
109922 
Channel: 9 Note ON:  C2 key: 36 velocity: 0
110160 
Channel: 9 Note ON:  C2 key: 36 velocity: 127
110162 
Channel: 9 Note ON:  C2 key: 36 velocity: 0
110400 
Channel: 9 Note ON:  C2 key: 36 velocity: 127
110402 
Channel: 9 Note ON:  C2 key: 36 velocity: 0
110640 
Channel: 9 Note ON:  C2 key: 36 velocity: 127
110643 
Channel: 9 Note ON:  C2 key: 36 velocity: 0
110880 
Channel: 9 Note ON:  C2 key: 36 velocity: 127
110882 
Channel: 9 Note ON:  C2 key: 36 velocity: 0
111120 
Channel: 9 Note ON:  C2 key: 36 velocity: 127
111125 
Channel: 9 Note ON:  C2 key: 36 velocity: 0
111360 
Channel: 9 Note ON:  C2 key: 36 velocity: 127
111362 
Channel: 9 Note ON:  C2 key: 36 velocity: 0
111600 
Channel: 9 Note ON:  C2 key: 36 velocity: 127
111609 
Channel: 9 Note ON:  C2 key: 36 velocity: 0
111840 
Channel: 9 Note ON:  C2 key: 36 velocity: 127
111842 
Channel: 9 Note ON:  C2 key: 36 velocity: 0
112080 
Channel: 9 Note ON:  C2 key: 36 velocity: 127
112082 
Channel: 9 Note ON:  C2 key: 36 velocity: 0
112320 
Channel: 9 Note ON:  C2 key: 36 velocity: 127
112322 
Channel: 9 Note ON:  C2 key: 36 velocity: 0
112560 
Channel: 9 Note ON:  C2 key: 36 velocity: 127
112563 
Channel: 9 Note ON:  C2 key: 36 velocity: 0
112800 
Channel: 9 Note ON:  C2 key: 36 velocity: 127
112802 
Channel: 9 Note ON:  C2 key: 36 velocity: 0
113040 
Channel: 9 Note ON:  C2 key: 36 velocity: 127
113044 
Channel: 9 Note ON:  C2 key: 36 velocity: 0
113280 
Channel: 9 Note ON:  C2 key: 36 velocity: 127
113283 
Channel: 9 Note ON:  C2 key: 36 velocity: 0
113520 
Channel: 9 Note ON:  C2 key: 36 velocity: 127
113527 
Channel: 9 Note ON:  C2 key: 36 velocity: 0
113760 
Channel: 9 Note ON:  C2 key: 36 velocity: 127
113763 
Channel: 9 Note ON:  C2 key: 36 velocity: 0
114000 
Channel: 9 Note ON:  C2 key: 36 velocity: 127
114003 
Channel: 9 Note ON:  C2 key: 36 velocity: 0
114240 
Channel: 9 Note ON:  C2 key: 36 velocity: 127
114243 
Channel: 9 Note ON:  C2 key: 36 velocity: 0
114480 
Channel: 9 Note ON:  C2 key: 36 velocity: 127
114483 
Channel: 9 Note ON:  C2 key: 36 velocity: 0
114720 
Channel: 9 Note ON:  C2 key: 36 velocity: 127
114723 
Channel: 9 Note ON:  C2 key: 36 velocity: 0
114960 
Channel: 9 Note ON:  C2 key: 36 velocity: 127
114964 
Channel: 9 Note ON:  C2 key: 36 velocity: 0
115200 
Channel: 9 Note ON:  C2 key: 36 velocity: 127
115202 
Channel: 9 Note ON:  C2 key: 36 velocity: 0
115440 
Channel: 9 Note ON:  C2 key: 36 velocity: 127
115448 
Channel: 9 Note ON:  C2 key: 36 velocity: 0
115680 
Channel: 9 Note ON:  C2 key: 36 velocity: 127
115682 
Channel: 9 Note ON:  C2 key: 36 velocity: 0
115920 
Channel: 9 Note ON:  C2 key: 36 velocity: 127
115922 
Channel: 9 Note ON:  C2 key: 36 velocity: 0
116160 
Channel: 9 Note ON:  C2 key: 36 velocity: 127
116163 
Channel: 9 Note ON:  C2 key: 36 velocity: 0
116400 
Channel: 9 Note ON:  C2 key: 36 velocity: 127
116403 
Channel: 9 Note ON:  C2 key: 36 velocity: 0
116640 
Channel: 9 Note ON:  C2 key: 36 velocity: 127
116643 
Channel: 9 Note ON:  C2 key: 36 velocity: 0
116880 
Channel: 9 Note ON:  C2 key: 36 velocity: 127
116884 
Channel: 9 Note ON:  C2 key: 36 velocity: 0
117120 
Channel: 9 Note ON:  C2 key: 36 velocity: 127
117123 
Channel: 9 Note ON:  C2 key: 36 velocity: 0
117360 
Channel: 9 Note ON:  C2 key: 36 velocity: 127
117369 
Channel: 9 Note ON:  C2 key: 36 velocity: 0
117600 
Channel: 9 Note ON:  C2 key: 36 velocity: 127
117602 
Channel: 9 Note ON:  C2 key: 36 velocity: 0
117840 
Channel: 9 Note ON:  C2 key: 36 velocity: 127
117842 
Channel: 9 Note ON:  C2 key: 36 velocity: 0
118080 
Channel: 9 Note ON:  C2 key: 36 velocity: 127
118082 
Channel: 9 Note ON:  C2 key: 36 velocity: 0
118320 
Channel: 9 Note ON:  C2 key: 36 velocity: 127
118323 
Channel: 9 Note ON:  C2 key: 36 velocity: 0
118560 
Channel: 9 Note ON:  C2 key: 36 velocity: 127
118562 
Channel: 9 Note ON:  C2 key: 36 velocity: 0
118800 
Channel: 9 Note ON:  C2 key: 36 velocity: 127
118805 
Channel: 9 Note ON:  C2 key: 36 velocity: 0
119040 
Channel: 9 Note ON:  C2 key: 36 velocity: 127
119040 
Channel: 9 Note ON:  C2 key: 36 velocity: 127
119042 
Channel: 9 Note ON:  C2 key: 36 velocity: 0
119096 
Channel: 9 Note ON:  C2 key: 36 velocity: 0
119160 
Channel: 9 Note ON:  C2 key: 36 velocity: 127
119216 
Channel: 9 Note ON:  C2 key: 36 velocity: 0
119280 
Channel: 9 Note ON:  C2 key: 36 velocity: 127
119280 
Channel: 9 Note ON:  C2 key: 36 velocity: 127
119289 
Channel: 9 Note ON:  C2 key: 36 velocity: 0
119333 
Channel: 9 Note ON:  C2 key: 36 velocity: 0
119400 
Channel: 9 Note ON:  C2 key: 36 velocity: 127
119451 
Channel: 9 Note ON:  C2 key: 36 velocity: 0
119520 
Channel: 9 Note ON:  C2 key: 36 velocity: 127
119520 
Channel: 9 Note ON:  C2 key: 36 velocity: 127
119522 
Channel: 9 Note ON:  C2 key: 36 velocity: 0
119569 
Channel: 9 Note ON:  C2 key: 36 velocity: 0
119640 
Channel: 9 Note ON:  C2 key: 36 velocity: 127
119686 
Channel: 9 Note ON:  C2 key: 36 velocity: 0
119760 
Channel: 9 Note ON:  C2 key: 36 velocity: 127
119760 
Channel: 9 Note ON:  C2 key: 36 velocity: 127
119762 
Channel: 9 Note ON:  C2 key: 36 velocity: 0
119801 
Channel: 9 Note ON:  C2 key: 36 velocity: 0
119880 
Channel: 9 Note ON:  C2 key: 36 velocity: 127
119925 
Channel: 9 Note ON:  C2 key: 36 velocity: 0
120000 
Channel: 9 Note ON:  C2 key: 36 velocity: 127
120079 
Channel: 9 Note ON:  C2 key: 36 velocity: 0
120079 
WTF is that class javax.sound.midi.Track$ImmutableEndOfTrack


Changing to track 11


0 
WTF is that class javax.sound.midi.MetaMessage
0 
WTF is that class javax.sound.midi.MetaMessage
0 
0 
38520 
Channel: 9 Note ON:  D2 key: 38 velocity: 108
38553 
Channel: 9 Note ON:  D2 key: 38 velocity: 0
38640 
Channel: 9 Note ON:  D2 key: 38 velocity: 109
38674 
Channel: 9 Note ON:  D2 key: 38 velocity: 0
38760 
Channel: 9 Note ON:  D2 key: 38 velocity: 112
38785 
Channel: 9 Note ON:  D2 key: 38 velocity: 0
38880 
Channel: 9 Note ON:  D2 key: 38 velocity: 114
38916 
Channel: 9 Note ON:  D2 key: 38 velocity: 0
39000 
Channel: 9 Note ON:  D2 key: 38 velocity: 116
39035 
Channel: 9 Note ON:  D2 key: 38 velocity: 0
39120 
Channel: 9 Note ON:  D2 key: 38 velocity: 116
39158 
Channel: 9 Note ON:  D2 key: 38 velocity: 0
39240 
Channel: 9 Note ON:  D2 key: 38 velocity: 116
39282 
Channel: 9 Note ON:  D2 key: 38 velocity: 0
39600 
Channel: 9 Note ON:  D2 key: 38 velocity: 127
39603 
Channel: 9 Note ON:  D2 key: 38 velocity: 0
40560 
Channel: 9 Note ON:  D2 key: 38 velocity: 127
40568 
Channel: 9 Note ON:  D2 key: 38 velocity: 0
41520 
Channel: 9 Note ON:  D2 key: 38 velocity: 127
41523 
Channel: 9 Note ON:  D2 key: 38 velocity: 0
42480 
Channel: 9 Note ON:  D2 key: 38 velocity: 127
42489 
Channel: 9 Note ON:  D2 key: 38 velocity: 0
43440 
Channel: 9 Note ON:  D2 key: 38 velocity: 127
43443 
Channel: 9 Note ON:  D2 key: 38 velocity: 0
44400 
Channel: 9 Note ON:  D2 key: 38 velocity: 127
44408 
Channel: 9 Note ON:  D2 key: 38 velocity: 0
45360 
Channel: 9 Note ON:  D2 key: 38 velocity: 127
45363 
Channel: 9 Note ON:  D2 key: 38 velocity: 0
46320 
Channel: 9 Note ON:  D2 key: 38 velocity: 127
46328 
Channel: 9 Note ON:  D2 key: 38 velocity: 0
47280 
Channel: 9 Note ON:  D2 key: 38 velocity: 127
47283 
Channel: 9 Note ON:  D2 key: 38 velocity: 0
48240 
Channel: 9 Note ON:  D2 key: 38 velocity: 127
48248 
Channel: 9 Note ON:  D2 key: 38 velocity: 0
49200 
Channel: 9 Note ON:  D2 key: 38 velocity: 127
49203 
Channel: 9 Note ON:  D2 key: 38 velocity: 0
50160 
Channel: 9 Note ON:  D2 key: 38 velocity: 127
50169 
Channel: 9 Note ON:  D2 key: 38 velocity: 0
51120 
Channel: 9 Note ON:  D2 key: 38 velocity: 127
51123 
Channel: 9 Note ON:  D2 key: 38 velocity: 0
52080 
Channel: 9 Note ON:  D2 key: 38 velocity: 127
52088 
Channel: 9 Note ON:  D2 key: 38 velocity: 0
54480 
Channel: 9 Note ON:  D2 key: 38 velocity: 127
54502 
Channel: 9 Note ON:  D2 key: 38 velocity: 0
54540 
Channel: 9 Note ON:  D2 key: 38 velocity: 127
54557 
Channel: 9 Note ON:  D2 key: 38 velocity: 0
54600 
Channel: 9 Note ON:  D2 key: 38 velocity: 127
54632 
Channel: 9 Note ON:  D2 key: 38 velocity: 0
54660 
Channel: 9 Note ON:  D2 key: 38 velocity: 127
54720 
Channel: 9 Note ON:  D2 key: 38 velocity: 0
54960 
Channel: 9 Note ON:  D2 key: 38 velocity: 127
54963 
Channel: 9 Note ON:  D2 key: 38 velocity: 0
55920 
Channel: 9 Note ON:  D2 key: 38 velocity: 127
55928 
Channel: 9 Note ON:  D2 key: 38 velocity: 0
56880 
Channel: 9 Note ON:  D2 key: 38 velocity: 127
56883 
Channel: 9 Note ON:  D2 key: 38 velocity: 0
57840 
Channel: 9 Note ON:  D2 key: 38 velocity: 127
57848 
Channel: 9 Note ON:  D2 key: 38 velocity: 0
58800 
Channel: 9 Note ON:  D2 key: 38 velocity: 127
58803 
Channel: 9 Note ON:  D2 key: 38 velocity: 0
59760 
Channel: 9 Note ON:  D2 key: 38 velocity: 127
59768 
Channel: 9 Note ON:  D2 key: 38 velocity: 0
60720 
Channel: 9 Note ON:  D2 key: 38 velocity: 127
60723 
Channel: 9 Note ON:  D2 key: 38 velocity: 0
61680 
Channel: 9 Note ON:  D2 key: 38 velocity: 127
61688 
Channel: 9 Note ON:  D2 key: 38 velocity: 0
62640 
Channel: 9 Note ON:  D2 key: 38 velocity: 127
62643 
Channel: 9 Note ON:  D2 key: 38 velocity: 0
63600 
Channel: 9 Note ON:  D2 key: 38 velocity: 127
63609 
Channel: 9 Note ON:  D2 key: 38 velocity: 0
64560 
Channel: 9 Note ON:  D2 key: 38 velocity: 127
64563 
Channel: 9 Note ON:  D2 key: 38 velocity: 0
65520 
Channel: 9 Note ON:  D2 key: 38 velocity: 127
65528 
Channel: 9 Note ON:  D2 key: 38 velocity: 0
66480 
Channel: 9 Note ON:  D2 key: 38 velocity: 127
66483 
Channel: 9 Note ON:  D2 key: 38 velocity: 0
67440 
Channel: 9 Note ON:  D2 key: 38 velocity: 127
67448 
Channel: 9 Note ON:  D2 key: 38 velocity: 0
68400 
Channel: 9 Note ON:  D2 key: 38 velocity: 127
68403 
Channel: 9 Note ON:  D2 key: 38 velocity: 0
69360 
Channel: 9 Note ON:  D2 key: 38 velocity: 127
69368 
Channel: 9 Note ON:  D2 key: 38 velocity: 0
70320 
Channel: 9 Note ON:  D2 key: 38 velocity: 127
70323 
Channel: 9 Note ON:  D2 key: 38 velocity: 0
71280 
Channel: 9 Note ON:  D2 key: 38 velocity: 127
71289 
Channel: 9 Note ON:  D2 key: 38 velocity: 0
72240 
Channel: 9 Note ON:  D2 key: 38 velocity: 127
72243 
Channel: 9 Note ON:  D2 key: 38 velocity: 0
73200 
Channel: 9 Note ON:  D2 key: 38 velocity: 127
73208 
Channel: 9 Note ON:  D2 key: 38 velocity: 0
73320 
Channel: 9 Note ON:  D2 key: 38 velocity: 127
73350 
Channel: 9 Note ON:  D2 key: 38 velocity: 0
73440 
Channel: 9 Note ON:  D2 key: 38 velocity: 127
73475 
Channel: 9 Note ON:  D2 key: 38 velocity: 0
73560 
Channel: 9 Note ON:  D2 key: 38 velocity: 127
73593 
Channel: 9 Note ON:  D2 key: 38 velocity: 0
73680 
Channel: 9 Note ON:  D2 key: 38 velocity: 127
73706 
Channel: 9 Note ON:  D2 key: 38 velocity: 0
73800 
Channel: 9 Note ON:  D2 key: 38 velocity: 127
73833 
Channel: 9 Note ON:  D2 key: 38 velocity: 0
74160 
Channel: 9 Note ON:  D2 key: 38 velocity: 127
74163 
Channel: 9 Note ON:  D2 key: 38 velocity: 0
75120 
Channel: 9 Note ON:  D2 key: 38 velocity: 113
75128 
Channel: 9 Note ON:  D2 key: 38 velocity: 0
76080 
Channel: 9 Note ON:  D2 key: 38 velocity: 127
76083 
Channel: 9 Note ON:  D2 key: 38 velocity: 0
77040 
Channel: 9 Note ON:  D2 key: 38 velocity: 127
77049 
Channel: 9 Note ON:  D2 key: 38 velocity: 0
78000 
Channel: 9 Note ON:  D2 key: 38 velocity: 127
78003 
Channel: 9 Note ON:  D2 key: 38 velocity: 0
78960 
Channel: 9 Note ON:  D2 key: 38 velocity: 127
78968 
Channel: 9 Note ON:  D2 key: 38 velocity: 0
79920 
Channel: 9 Note ON:  D2 key: 38 velocity: 127
79923 
Channel: 9 Note ON:  D2 key: 38 velocity: 0
80880 
Channel: 9 Note ON:  D2 key: 38 velocity: 127
80888 
Channel: 9 Note ON:  D2 key: 38 velocity: 0
81840 
Channel: 9 Note ON:  D2 key: 38 velocity: 127
81843 
Channel: 9 Note ON:  D2 key: 38 velocity: 0
82800 
Channel: 9 Note ON:  D2 key: 38 velocity: 127
82808 
Channel: 9 Note ON:  D2 key: 38 velocity: 0
83760 
Channel: 9 Note ON:  D2 key: 38 velocity: 127
83763 
Channel: 9 Note ON:  D2 key: 38 velocity: 0
84720 
Channel: 9 Note ON:  D2 key: 38 velocity: 127
84729 
Channel: 9 Note ON:  D2 key: 38 velocity: 0
85680 
Channel: 9 Note ON:  D2 key: 38 velocity: 127
85683 
Channel: 9 Note ON:  D2 key: 38 velocity: 0
86640 
Channel: 9 Note ON:  D2 key: 38 velocity: 127
86648 
Channel: 9 Note ON:  D2 key: 38 velocity: 0
89520 
Channel: 9 Note ON:  D2 key: 38 velocity: 127
89523 
Channel: 9 Note ON:  D2 key: 38 velocity: 0
90480 
Channel: 9 Note ON:  D2 key: 38 velocity: 127
90488 
Channel: 9 Note ON:  D2 key: 38 velocity: 0
91440 
Channel: 9 Note ON:  D2 key: 38 velocity: 127
91443 
Channel: 9 Note ON:  D2 key: 38 velocity: 0
92400 
Channel: 9 Note ON:  D2 key: 38 velocity: 127
92408 
Channel: 9 Note ON:  D2 key: 38 velocity: 0
93360 
Channel: 9 Note ON:  D2 key: 38 velocity: 127
93363 
Channel: 9 Note ON:  D2 key: 38 velocity: 0
94320 
Channel: 9 Note ON:  D2 key: 38 velocity: 127
94329 
Channel: 9 Note ON:  D2 key: 38 velocity: 0
95280 
Channel: 9 Note ON:  D2 key: 38 velocity: 127
95283 
Channel: 9 Note ON:  D2 key: 38 velocity: 0
96240 
Channel: 9 Note ON:  D2 key: 38 velocity: 127
96248 
Channel: 9 Note ON:  D2 key: 38 velocity: 0
97200 
Channel: 9 Note ON:  D2 key: 38 velocity: 127
97203 
Channel: 9 Note ON:  D2 key: 38 velocity: 0
98160 
Channel: 9 Note ON:  D2 key: 38 velocity: 127
98168 
Channel: 9 Note ON:  D2 key: 38 velocity: 0
99120 
Channel: 9 Note ON:  D2 key: 38 velocity: 127
99123 
Channel: 9 Note ON:  D2 key: 38 velocity: 0
100080 
Channel: 9 Note ON:  D2 key: 38 velocity: 127
100088 
Channel: 9 Note ON:  D2 key: 38 velocity: 0
101040 
Channel: 9 Note ON:  D2 key: 38 velocity: 127
101043 
Channel: 9 Note ON:  D2 key: 38 velocity: 0
102000 
Channel: 9 Note ON:  D2 key: 38 velocity: 127
102009 
Channel: 9 Note ON:  D2 key: 38 velocity: 0
102960 
Channel: 9 Note ON:  D2 key: 38 velocity: 127
102963 
Channel: 9 Note ON:  D2 key: 38 velocity: 0
103920 
Channel: 9 Note ON:  D2 key: 38 velocity: 127
103928 
Channel: 9 Note ON:  D2 key: 38 velocity: 0
104880 
Channel: 9 Note ON:  D2 key: 38 velocity: 127
104883 
Channel: 9 Note ON:  D2 key: 38 velocity: 0
105840 
Channel: 9 Note ON:  D2 key: 38 velocity: 127
105848 
Channel: 9 Note ON:  D2 key: 38 velocity: 0
106800 
Channel: 9 Note ON:  D2 key: 38 velocity: 127
106803 
Channel: 9 Note ON:  D2 key: 38 velocity: 0
107760 
Channel: 9 Note ON:  D2 key: 38 velocity: 127
107768 
Channel: 9 Note ON:  D2 key: 38 velocity: 0
108720 
Channel: 9 Note ON:  D2 key: 38 velocity: 127
108723 
Channel: 9 Note ON:  D2 key: 38 velocity: 0
109680 
Channel: 9 Note ON:  D2 key: 38 velocity: 127
109689 
Channel: 9 Note ON:  D2 key: 38 velocity: 0
110640 
Channel: 9 Note ON:  D2 key: 38 velocity: 127
110643 
Channel: 9 Note ON:  D2 key: 38 velocity: 0
111600 
Channel: 9 Note ON:  D2 key: 38 velocity: 127
111608 
Channel: 9 Note ON:  D2 key: 38 velocity: 0
112560 
Channel: 9 Note ON:  D2 key: 38 velocity: 127
112563 
Channel: 9 Note ON:  D2 key: 38 velocity: 0
113520 
Channel: 9 Note ON:  D2 key: 38 velocity: 127
113528 
Channel: 9 Note ON:  D2 key: 38 velocity: 0
114480 
Channel: 9 Note ON:  D2 key: 38 velocity: 127
114483 
Channel: 9 Note ON:  D2 key: 38 velocity: 0
115440 
Channel: 9 Note ON:  D2 key: 38 velocity: 127
115448 
Channel: 9 Note ON:  D2 key: 38 velocity: 0
116400 
Channel: 9 Note ON:  D2 key: 38 velocity: 127
116403 
Channel: 9 Note ON:  D2 key: 38 velocity: 0
117360 
Channel: 9 Note ON:  D2 key: 38 velocity: 127
117369 
Channel: 9 Note ON:  D2 key: 38 velocity: 0
118320 
Channel: 9 Note ON:  D2 key: 38 velocity: 127
118323 
Channel: 9 Note ON:  D2 key: 38 velocity: 0
119040 
Channel: 9 Note ON:  D2 key: 38 velocity: 127
119090 
Channel: 9 Note ON:  D2 key: 38 velocity: 0
119160 
Channel: 9 Note ON:  D2 key: 38 velocity: 127
119208 
Channel: 9 Note ON:  D2 key: 38 velocity: 0
119280 
Channel: 9 Note ON:  D2 key: 38 velocity: 127
119280 
Channel: 9 Note ON:  D2 key: 38 velocity: 127
119288 
Channel: 9 Note ON:  D2 key: 38 velocity: 0
119326 
Channel: 9 Note ON:  D2 key: 38 velocity: 0
119400 
Channel: 9 Note ON:  D2 key: 38 velocity: 127
119445 
Channel: 9 Note ON:  D2 key: 38 velocity: 0
119520 
Channel: 9 Note ON:  D2 key: 38 velocity: 127
119565 
Channel: 9 Note ON:  D2 key: 38 velocity: 0
119640 
Channel: 9 Note ON:  D2 key: 38 velocity: 127
119685 
Channel: 9 Note ON:  D2 key: 38 velocity: 0
119760 
Channel: 9 Note ON:  D2 key: 38 velocity: 127
119802 
Channel: 9 Note ON:  D2 key: 38 velocity: 0
119880 
Channel: 9 Note ON:  D2 key: 38 velocity: 127
119927 
Channel: 9 Note ON:  D2 key: 38 velocity: 0
119927 
WTF is that class javax.sound.midi.Track$ImmutableEndOfTrack


Changing to track 12


0 
WTF is that class javax.sound.midi.MetaMessage
0 
WTF is that class javax.sound.midi.MetaMessage
0 
0 
39360 
Channel: 9 Note ON:  A#2 key: 46 velocity: 127
39362 
Channel: 9 Note ON:  A#2 key: 46 velocity: 0
39480 
Channel: 9 Note ON:  F#2 key: 42 velocity: 127
39482 
Channel: 9 Note ON:  F#2 key: 42 velocity: 0
39600 
Channel: 9 Note ON:  F#2 key: 42 velocity: 127
39601 
Channel: 9 Note ON:  F#2 key: 42 velocity: 0
39720 
Channel: 9 Note ON:  F#2 key: 42 velocity: 127
39721 
Channel: 9 Note ON:  F#2 key: 42 velocity: 0
39840 
Channel: 9 Note ON:  F#2 key: 42 velocity: 127
39841 
Channel: 9 Note ON:  F#2 key: 42 velocity: 0
39960 
Channel: 9 Note ON:  F#2 key: 42 velocity: 127
39965 
Channel: 9 Note ON:  F#2 key: 42 velocity: 0
40080 
Channel: 9 Note ON:  F#2 key: 42 velocity: 127
40084 
Channel: 9 Note ON:  F#2 key: 42 velocity: 0
40200 
Channel: 9 Note ON:  F#2 key: 42 velocity: 127
40202 
Channel: 9 Note ON:  F#2 key: 42 velocity: 0
40320 
Channel: 9 Note ON:  F#2 key: 42 velocity: 127
40322 
Channel: 9 Note ON:  F#2 key: 42 velocity: 0
40440 
Channel: 9 Note ON:  F#2 key: 42 velocity: 127
40441 
Channel: 9 Note ON:  F#2 key: 42 velocity: 0
40560 
Channel: 9 Note ON:  F#2 key: 42 velocity: 127
40567 
Channel: 9 Note ON:  F#2 key: 42 velocity: 0
40680 
Channel: 9 Note ON:  F#2 key: 42 velocity: 127
40682 
Channel: 9 Note ON:  F#2 key: 42 velocity: 0
40800 
Channel: 9 Note ON:  F#2 key: 42 velocity: 127
40802 
Channel: 9 Note ON:  F#2 key: 42 velocity: 0
40920 
Channel: 9 Note ON:  F#2 key: 42 velocity: 127
40925 
Channel: 9 Note ON:  F#2 key: 42 velocity: 0
41040 
Channel: 9 Note ON:  F#2 key: 42 velocity: 127
41042 
Channel: 9 Note ON:  F#2 key: 42 velocity: 0
41160 
Channel: 9 Note ON:  F#2 key: 42 velocity: 127
41165 
Channel: 9 Note ON:  F#2 key: 42 velocity: 0
41280 
Channel: 9 Note ON:  A#2 key: 46 velocity: 127
41281 
Channel: 9 Note ON:  A#2 key: 46 velocity: 0
41400 
Channel: 9 Note ON:  F#2 key: 42 velocity: 127
41402 
Channel: 9 Note ON:  F#2 key: 42 velocity: 0
41520 
Channel: 9 Note ON:  F#2 key: 42 velocity: 127
41522 
Channel: 9 Note ON:  F#2 key: 42 velocity: 0
41640 
Channel: 9 Note ON:  F#2 key: 42 velocity: 127
41642 
Channel: 9 Note ON:  F#2 key: 42 velocity: 0
41760 
Channel: 9 Note ON:  F#2 key: 42 velocity: 127
41761 
Channel: 9 Note ON:  F#2 key: 42 velocity: 0
41880 
Channel: 9 Note ON:  F#2 key: 42 velocity: 127
41885 
Channel: 9 Note ON:  F#2 key: 42 velocity: 0
42000 
Channel: 9 Note ON:  F#2 key: 42 velocity: 127
42004 
Channel: 9 Note ON:  F#2 key: 42 velocity: 0
42120 
Channel: 9 Note ON:  F#2 key: 42 velocity: 127
42121 
Channel: 9 Note ON:  F#2 key: 42 velocity: 0
42240 
Channel: 9 Note ON:  F#2 key: 42 velocity: 127
42241 
Channel: 9 Note ON:  F#2 key: 42 velocity: 0
42360 
Channel: 9 Note ON:  F#2 key: 42 velocity: 127
42361 
Channel: 9 Note ON:  F#2 key: 42 velocity: 0
42480 
Channel: 9 Note ON:  F#2 key: 42 velocity: 127
42488 
Channel: 9 Note ON:  F#2 key: 42 velocity: 0
42600 
Channel: 9 Note ON:  F#2 key: 42 velocity: 127
42601 
Channel: 9 Note ON:  F#2 key: 42 velocity: 0
42720 
Channel: 9 Note ON:  F#2 key: 42 velocity: 127
42722 
Channel: 9 Note ON:  F#2 key: 42 velocity: 0
42840 
Channel: 9 Note ON:  F#2 key: 42 velocity: 127
42845 
Channel: 9 Note ON:  F#2 key: 42 velocity: 0
42960 
Channel: 9 Note ON:  F#2 key: 42 velocity: 127
42962 
Channel: 9 Note ON:  F#2 key: 42 velocity: 0
43080 
Channel: 9 Note ON:  F#2 key: 42 velocity: 127
43085 
Channel: 9 Note ON:  F#2 key: 42 velocity: 0
43200 
Channel: 9 Note ON:  A#2 key: 46 velocity: 127
43202 
Channel: 9 Note ON:  A#2 key: 46 velocity: 0
43320 
Channel: 9 Note ON:  F#2 key: 42 velocity: 127
43323 
Channel: 9 Note ON:  F#2 key: 42 velocity: 0
43440 
Channel: 9 Note ON:  F#2 key: 42 velocity: 127
43441 
Channel: 9 Note ON:  F#2 key: 42 velocity: 0
43560 
Channel: 9 Note ON:  F#2 key: 42 velocity: 127
43562 
Channel: 9 Note ON:  F#2 key: 42 velocity: 0
43680 
Channel: 9 Note ON:  F#2 key: 42 velocity: 127
43682 
Channel: 9 Note ON:  F#2 key: 42 velocity: 0
43800 
Channel: 9 Note ON:  F#2 key: 42 velocity: 127
43804 
Channel: 9 Note ON:  F#2 key: 42 velocity: 0
43920 
Channel: 9 Note ON:  F#2 key: 42 velocity: 127
43924 
Channel: 9 Note ON:  F#2 key: 42 velocity: 0
44040 
Channel: 9 Note ON:  F#2 key: 42 velocity: 127
44041 
Channel: 9 Note ON:  F#2 key: 42 velocity: 0
44160 
Channel: 9 Note ON:  F#2 key: 42 velocity: 127
44162 
Channel: 9 Note ON:  F#2 key: 42 velocity: 0
44280 
Channel: 9 Note ON:  F#2 key: 42 velocity: 127
44283 
Channel: 9 Note ON:  F#2 key: 42 velocity: 0
44400 
Channel: 9 Note ON:  F#2 key: 42 velocity: 127
44407 
Channel: 9 Note ON:  F#2 key: 42 velocity: 0
44520 
Channel: 9 Note ON:  F#2 key: 42 velocity: 127
44522 
Channel: 9 Note ON:  F#2 key: 42 velocity: 0
44640 
Channel: 9 Note ON:  F#2 key: 42 velocity: 127
44643 
Channel: 9 Note ON:  F#2 key: 42 velocity: 0
44760 
Channel: 9 Note ON:  F#2 key: 42 velocity: 127
44764 
Channel: 9 Note ON:  F#2 key: 42 velocity: 0
44880 
Channel: 9 Note ON:  F#2 key: 42 velocity: 127
44882 
Channel: 9 Note ON:  F#2 key: 42 velocity: 0
45000 
Channel: 9 Note ON:  F#2 key: 42 velocity: 127
45005 
Channel: 9 Note ON:  F#2 key: 42 velocity: 0
45120 
Channel: 9 Note ON:  A#2 key: 46 velocity: 127
45122 
Channel: 9 Note ON:  A#2 key: 46 velocity: 0
45240 
Channel: 9 Note ON:  F#2 key: 42 velocity: 127
45242 
Channel: 9 Note ON:  F#2 key: 42 velocity: 0
45360 
Channel: 9 Note ON:  F#2 key: 42 velocity: 127
45361 
Channel: 9 Note ON:  F#2 key: 42 velocity: 0
45480 
Channel: 9 Note ON:  F#2 key: 42 velocity: 127
45482 
Channel: 9 Note ON:  F#2 key: 42 velocity: 0
45600 
Channel: 9 Note ON:  F#2 key: 42 velocity: 127
45602 
Channel: 9 Note ON:  F#2 key: 42 velocity: 0
45720 
Channel: 9 Note ON:  F#2 key: 42 velocity: 127
45725 
Channel: 9 Note ON:  F#2 key: 42 velocity: 0
45840 
Channel: 9 Note ON:  F#2 key: 42 velocity: 127
45844 
Channel: 9 Note ON:  F#2 key: 42 velocity: 0
45960 
Channel: 9 Note ON:  F#2 key: 42 velocity: 127
45961 
Channel: 9 Note ON:  F#2 key: 42 velocity: 0
46080 
Channel: 9 Note ON:  F#2 key: 42 velocity: 127
46081 
Channel: 9 Note ON:  F#2 key: 42 velocity: 0
46200 
Channel: 9 Note ON:  F#2 key: 42 velocity: 127
46202 
Channel: 9 Note ON:  F#2 key: 42 velocity: 0
46320 
Channel: 9 Note ON:  F#2 key: 42 velocity: 127
46327 
Channel: 9 Note ON:  F#2 key: 42 velocity: 0
46440 
Channel: 9 Note ON:  F#2 key: 42 velocity: 127
46442 
Channel: 9 Note ON:  F#2 key: 42 velocity: 0
46560 
Channel: 9 Note ON:  F#2 key: 42 velocity: 127
46561 
Channel: 9 Note ON:  F#2 key: 42 velocity: 0
46680 
Channel: 9 Note ON:  F#2 key: 42 velocity: 127
46685 
Channel: 9 Note ON:  F#2 key: 42 velocity: 0
46800 
Channel: 9 Note ON:  F#2 key: 42 velocity: 127
46801 
Channel: 9 Note ON:  F#2 key: 42 velocity: 0
46920 
Channel: 9 Note ON:  F#2 key: 42 velocity: 127
46925 
Channel: 9 Note ON:  F#2 key: 42 velocity: 0
47040 
Channel: 9 Note ON:  A#2 key: 46 velocity: 127
47042 
Channel: 9 Note ON:  A#2 key: 46 velocity: 0
47160 
Channel: 9 Note ON:  F#2 key: 42 velocity: 127
47162 
Channel: 9 Note ON:  F#2 key: 42 velocity: 0
47280 
Channel: 9 Note ON:  F#2 key: 42 velocity: 127
47281 
Channel: 9 Note ON:  F#2 key: 42 velocity: 0
47400 
Channel: 9 Note ON:  F#2 key: 42 velocity: 127
47401 
Channel: 9 Note ON:  F#2 key: 42 velocity: 0
47520 
Channel: 9 Note ON:  F#2 key: 42 velocity: 127
47521 
Channel: 9 Note ON:  F#2 key: 42 velocity: 0
47640 
Channel: 9 Note ON:  F#2 key: 42 velocity: 127
47645 
Channel: 9 Note ON:  F#2 key: 42 velocity: 0
47760 
Channel: 9 Note ON:  F#2 key: 42 velocity: 127
47764 
Channel: 9 Note ON:  F#2 key: 42 velocity: 0
47880 
Channel: 9 Note ON:  F#2 key: 42 velocity: 127
47882 
Channel: 9 Note ON:  F#2 key: 42 velocity: 0
48000 
Channel: 9 Note ON:  F#2 key: 42 velocity: 127
48002 
Channel: 9 Note ON:  F#2 key: 42 velocity: 0
48120 
Channel: 9 Note ON:  F#2 key: 42 velocity: 127
48121 
Channel: 9 Note ON:  F#2 key: 42 velocity: 0
48240 
Channel: 9 Note ON:  F#2 key: 42 velocity: 127
48247 
Channel: 9 Note ON:  F#2 key: 42 velocity: 0
48360 
Channel: 9 Note ON:  F#2 key: 42 velocity: 127
48362 
Channel: 9 Note ON:  F#2 key: 42 velocity: 0
48480 
Channel: 9 Note ON:  F#2 key: 42 velocity: 127
48482 
Channel: 9 Note ON:  F#2 key: 42 velocity: 0
48600 
Channel: 9 Note ON:  F#2 key: 42 velocity: 127
48605 
Channel: 9 Note ON:  F#2 key: 42 velocity: 0
48720 
Channel: 9 Note ON:  F#2 key: 42 velocity: 127
48722 
Channel: 9 Note ON:  F#2 key: 42 velocity: 0
48840 
Channel: 9 Note ON:  F#2 key: 42 velocity: 127
48845 
Channel: 9 Note ON:  F#2 key: 42 velocity: 0
48960 
Channel: 9 Note ON:  A#2 key: 46 velocity: 127
48961 
Channel: 9 Note ON:  A#2 key: 46 velocity: 0
49080 
Channel: 9 Note ON:  F#2 key: 42 velocity: 127
49082 
Channel: 9 Note ON:  F#2 key: 42 velocity: 0
49200 
Channel: 9 Note ON:  F#2 key: 42 velocity: 127
49202 
Channel: 9 Note ON:  F#2 key: 42 velocity: 0
49320 
Channel: 9 Note ON:  F#2 key: 42 velocity: 127
49322 
Channel: 9 Note ON:  F#2 key: 42 velocity: 0
49440 
Channel: 9 Note ON:  F#2 key: 42 velocity: 127
49441 
Channel: 9 Note ON:  F#2 key: 42 velocity: 0
49560 
Channel: 9 Note ON:  F#2 key: 42 velocity: 127
49565 
Channel: 9 Note ON:  F#2 key: 42 velocity: 0
49680 
Channel: 9 Note ON:  F#2 key: 42 velocity: 127
49684 
Channel: 9 Note ON:  F#2 key: 42 velocity: 0
49800 
Channel: 9 Note ON:  F#2 key: 42 velocity: 127
49801 
Channel: 9 Note ON:  F#2 key: 42 velocity: 0
49920 
Channel: 9 Note ON:  F#2 key: 42 velocity: 127
49921 
Channel: 9 Note ON:  F#2 key: 42 velocity: 0
50040 
Channel: 9 Note ON:  F#2 key: 42 velocity: 127
50041 
Channel: 9 Note ON:  F#2 key: 42 velocity: 0
50160 
Channel: 9 Note ON:  F#2 key: 42 velocity: 127
50168 
Channel: 9 Note ON:  F#2 key: 42 velocity: 0
50280 
Channel: 9 Note ON:  F#2 key: 42 velocity: 127
50281 
Channel: 9 Note ON:  F#2 key: 42 velocity: 0
50400 
Channel: 9 Note ON:  F#2 key: 42 velocity: 127
50402 
Channel: 9 Note ON:  F#2 key: 42 velocity: 0
50520 
Channel: 9 Note ON:  F#2 key: 42 velocity: 127
50525 
Channel: 9 Note ON:  F#2 key: 42 velocity: 0
50640 
Channel: 9 Note ON:  F#2 key: 42 velocity: 127
50642 
Channel: 9 Note ON:  F#2 key: 42 velocity: 0
50760 
Channel: 9 Note ON:  F#2 key: 42 velocity: 127
50765 
Channel: 9 Note ON:  F#2 key: 42 velocity: 0
50880 
Channel: 9 Note ON:  A#2 key: 46 velocity: 127
50882 
Channel: 9 Note ON:  A#2 key: 46 velocity: 0
51000 
Channel: 9 Note ON:  F#2 key: 42 velocity: 127
51003 
Channel: 9 Note ON:  F#2 key: 42 velocity: 0
51120 
Channel: 9 Note ON:  F#2 key: 42 velocity: 127
51121 
Channel: 9 Note ON:  F#2 key: 42 velocity: 0
51240 
Channel: 9 Note ON:  F#2 key: 42 velocity: 127
51242 
Channel: 9 Note ON:  F#2 key: 42 velocity: 0
51360 
Channel: 9 Note ON:  F#2 key: 42 velocity: 127
51362 
Channel: 9 Note ON:  F#2 key: 42 velocity: 0
51480 
Channel: 9 Note ON:  F#2 key: 42 velocity: 127
51484 
Channel: 9 Note ON:  F#2 key: 42 velocity: 0
51600 
Channel: 9 Note ON:  F#2 key: 42 velocity: 127
51604 
Channel: 9 Note ON:  F#2 key: 42 velocity: 0
51720 
Channel: 9 Note ON:  F#2 key: 42 velocity: 127
51721 
Channel: 9 Note ON:  F#2 key: 42 velocity: 0
51840 
Channel: 9 Note ON:  F#2 key: 42 velocity: 127
51842 
Channel: 9 Note ON:  F#2 key: 42 velocity: 0
51960 
Channel: 9 Note ON:  F#2 key: 42 velocity: 127
51963 
Channel: 9 Note ON:  F#2 key: 42 velocity: 0
52080 
Channel: 9 Note ON:  F#2 key: 42 velocity: 127
52087 
Channel: 9 Note ON:  F#2 key: 42 velocity: 0
52200 
Channel: 9 Note ON:  F#2 key: 42 velocity: 127
52202 
Channel: 9 Note ON:  F#2 key: 42 velocity: 0
52320 
Channel: 9 Note ON:  F#2 key: 42 velocity: 127
52323 
Channel: 9 Note ON:  F#2 key: 42 velocity: 0
52440 
Channel: 9 Note ON:  F#2 key: 42 velocity: 127
52444 
Channel: 9 Note ON:  F#2 key: 42 velocity: 0
52560 
Channel: 9 Note ON:  F#2 key: 42 velocity: 127
52562 
Channel: 9 Note ON:  F#2 key: 42 velocity: 0
52680 
Channel: 9 Note ON:  F#2 key: 42 velocity: 127
52685 
Channel: 9 Note ON:  F#2 key: 42 velocity: 0
54720 
Channel: 9 Note ON:  A#2 key: 46 velocity: 127
54722 
Channel: 9 Note ON:  A#2 key: 46 velocity: 0
54840 
Channel: 9 Note ON:  F#2 key: 42 velocity: 127
54842 
Channel: 9 Note ON:  F#2 key: 42 velocity: 0
54960 
Channel: 9 Note ON:  F#2 key: 42 velocity: 127
54961 
Channel: 9 Note ON:  F#2 key: 42 velocity: 0
55080 
Channel: 9 Note ON:  F#2 key: 42 velocity: 127
55082 
Channel: 9 Note ON:  F#2 key: 42 velocity: 0
55200 
Channel: 9 Note ON:  F#2 key: 42 velocity: 127
55202 
Channel: 9 Note ON:  F#2 key: 42 velocity: 0
55320 
Channel: 9 Note ON:  F#2 key: 42 velocity: 127
55325 
Channel: 9 Note ON:  F#2 key: 42 velocity: 0
55440 
Channel: 9 Note ON:  F#2 key: 42 velocity: 127
55444 
Channel: 9 Note ON:  F#2 key: 42 velocity: 0
55560 
Channel: 9 Note ON:  F#2 key: 42 velocity: 127
55561 
Channel: 9 Note ON:  F#2 key: 42 velocity: 0
55680 
Channel: 9 Note ON:  F#2 key: 42 velocity: 127
55681 
Channel: 9 Note ON:  F#2 key: 42 velocity: 0
55800 
Channel: 9 Note ON:  F#2 key: 42 velocity: 127
55802 
Channel: 9 Note ON:  F#2 key: 42 velocity: 0
55920 
Channel: 9 Note ON:  F#2 key: 42 velocity: 127
55927 
Channel: 9 Note ON:  F#2 key: 42 velocity: 0
56040 
Channel: 9 Note ON:  F#2 key: 42 velocity: 127
56042 
Channel: 9 Note ON:  F#2 key: 42 velocity: 0
56160 
Channel: 9 Note ON:  F#2 key: 42 velocity: 127
56161 
Channel: 9 Note ON:  F#2 key: 42 velocity: 0
56280 
Channel: 9 Note ON:  F#2 key: 42 velocity: 127
56285 
Channel: 9 Note ON:  F#2 key: 42 velocity: 0
56400 
Channel: 9 Note ON:  F#2 key: 42 velocity: 127
56401 
Channel: 9 Note ON:  F#2 key: 42 velocity: 0
56520 
Channel: 9 Note ON:  F#2 key: 42 velocity: 127
56525 
Channel: 9 Note ON:  F#2 key: 42 velocity: 0
56640 
Channel: 9 Note ON:  A#2 key: 46 velocity: 127
56642 
Channel: 9 Note ON:  A#2 key: 46 velocity: 0
56760 
Channel: 9 Note ON:  F#2 key: 42 velocity: 127
56762 
Channel: 9 Note ON:  F#2 key: 42 velocity: 0
56880 
Channel: 9 Note ON:  F#2 key: 42 velocity: 127
56881 
Channel: 9 Note ON:  F#2 key: 42 velocity: 0
57000 
Channel: 9 Note ON:  F#2 key: 42 velocity: 127
57001 
Channel: 9 Note ON:  F#2 key: 42 velocity: 0
57120 
Channel: 9 Note ON:  F#2 key: 42 velocity: 127
57121 
Channel: 9 Note ON:  F#2 key: 42 velocity: 0
57240 
Channel: 9 Note ON:  F#2 key: 42 velocity: 127
57245 
Channel: 9 Note ON:  F#2 key: 42 velocity: 0
57360 
Channel: 9 Note ON:  F#2 key: 42 velocity: 127
57364 
Channel: 9 Note ON:  F#2 key: 42 velocity: 0
57480 
Channel: 9 Note ON:  F#2 key: 42 velocity: 127
57482 
Channel: 9 Note ON:  F#2 key: 42 velocity: 0
57600 
Channel: 9 Note ON:  F#2 key: 42 velocity: 127
57602 
Channel: 9 Note ON:  F#2 key: 42 velocity: 0
57720 
Channel: 9 Note ON:  F#2 key: 42 velocity: 127
57721 
Channel: 9 Note ON:  F#2 key: 42 velocity: 0
57840 
Channel: 9 Note ON:  F#2 key: 42 velocity: 127
57847 
Channel: 9 Note ON:  F#2 key: 42 velocity: 0
57960 
Channel: 9 Note ON:  F#2 key: 42 velocity: 127
57962 
Channel: 9 Note ON:  F#2 key: 42 velocity: 0
58080 
Channel: 9 Note ON:  F#2 key: 42 velocity: 127
58082 
Channel: 9 Note ON:  F#2 key: 42 velocity: 0
58200 
Channel: 9 Note ON:  F#2 key: 42 velocity: 127
58205 
Channel: 9 Note ON:  F#2 key: 42 velocity: 0
58320 
Channel: 9 Note ON:  F#2 key: 42 velocity: 127
58322 
Channel: 9 Note ON:  F#2 key: 42 velocity: 0
58440 
Channel: 9 Note ON:  F#2 key: 42 velocity: 127
58445 
Channel: 9 Note ON:  F#2 key: 42 velocity: 0
58560 
Channel: 9 Note ON:  A#2 key: 46 velocity: 127
58562 
Channel: 9 Note ON:  A#2 key: 46 velocity: 0
58680 
Channel: 9 Note ON:  F#2 key: 42 velocity: 127
58682 
Channel: 9 Note ON:  F#2 key: 42 velocity: 0
58800 
Channel: 9 Note ON:  F#2 key: 42 velocity: 127
58801 
Channel: 9 Note ON:  F#2 key: 42 velocity: 0
58920 
Channel: 9 Note ON:  F#2 key: 42 velocity: 127
58922 
Channel: 9 Note ON:  F#2 key: 42 velocity: 0
59040 
Channel: 9 Note ON:  F#2 key: 42 velocity: 127
59042 
Channel: 9 Note ON:  F#2 key: 42 velocity: 0
59160 
Channel: 9 Note ON:  F#2 key: 42 velocity: 127
59165 
Channel: 9 Note ON:  F#2 key: 42 velocity: 0
59280 
Channel: 9 Note ON:  F#2 key: 42 velocity: 127
59284 
Channel: 9 Note ON:  F#2 key: 42 velocity: 0
59400 
Channel: 9 Note ON:  F#2 key: 42 velocity: 127
59401 
Channel: 9 Note ON:  F#2 key: 42 velocity: 0
59520 
Channel: 9 Note ON:  F#2 key: 42 velocity: 127
59521 
Channel: 9 Note ON:  F#2 key: 42 velocity: 0
59640 
Channel: 9 Note ON:  F#2 key: 42 velocity: 127
59642 
Channel: 9 Note ON:  F#2 key: 42 velocity: 0
59760 
Channel: 9 Note ON:  F#2 key: 42 velocity: 127
59767 
Channel: 9 Note ON:  F#2 key: 42 velocity: 0
59880 
Channel: 9 Note ON:  F#2 key: 42 velocity: 127
59882 
Channel: 9 Note ON:  F#2 key: 42 velocity: 0
60000 
Channel: 9 Note ON:  F#2 key: 42 velocity: 127
60001 
Channel: 9 Note ON:  F#2 key: 42 velocity: 0
60120 
Channel: 9 Note ON:  F#2 key: 42 velocity: 127
60125 
Channel: 9 Note ON:  F#2 key: 42 velocity: 0
60240 
Channel: 9 Note ON:  F#2 key: 42 velocity: 127
60241 
Channel: 9 Note ON:  F#2 key: 42 velocity: 0
60360 
Channel: 9 Note ON:  F#2 key: 42 velocity: 127
60365 
Channel: 9 Note ON:  F#2 key: 42 velocity: 0
60480 
Channel: 9 Note ON:  A#2 key: 46 velocity: 127
60482 
Channel: 9 Note ON:  A#2 key: 46 velocity: 0
60600 
Channel: 9 Note ON:  F#2 key: 42 velocity: 127
60602 
Channel: 9 Note ON:  F#2 key: 42 velocity: 0
60720 
Channel: 9 Note ON:  F#2 key: 42 velocity: 127
60721 
Channel: 9 Note ON:  F#2 key: 42 velocity: 0
60840 
Channel: 9 Note ON:  F#2 key: 42 velocity: 127
60841 
Channel: 9 Note ON:  F#2 key: 42 velocity: 0
60960 
Channel: 9 Note ON:  F#2 key: 42 velocity: 127
60961 
Channel: 9 Note ON:  F#2 key: 42 velocity: 0
61080 
Channel: 9 Note ON:  F#2 key: 42 velocity: 127
61085 
Channel: 9 Note ON:  F#2 key: 42 velocity: 0
61200 
Channel: 9 Note ON:  F#2 key: 42 velocity: 127
61204 
Channel: 9 Note ON:  F#2 key: 42 velocity: 0
61320 
Channel: 9 Note ON:  F#2 key: 42 velocity: 127
61322 
Channel: 9 Note ON:  F#2 key: 42 velocity: 0
61440 
Channel: 9 Note ON:  F#2 key: 42 velocity: 127
61442 
Channel: 9 Note ON:  F#2 key: 42 velocity: 0
61560 
Channel: 9 Note ON:  F#2 key: 42 velocity: 127
61561 
Channel: 9 Note ON:  F#2 key: 42 velocity: 0
61680 
Channel: 9 Note ON:  F#2 key: 42 velocity: 127
61687 
Channel: 9 Note ON:  F#2 key: 42 velocity: 0
61800 
Channel: 9 Note ON:  F#2 key: 42 velocity: 127
61802 
Channel: 9 Note ON:  F#2 key: 42 velocity: 0
61920 
Channel: 9 Note ON:  F#2 key: 42 velocity: 127
61922 
Channel: 9 Note ON:  F#2 key: 42 velocity: 0
62040 
Channel: 9 Note ON:  F#2 key: 42 velocity: 127
62045 
Channel: 9 Note ON:  F#2 key: 42 velocity: 0
62160 
Channel: 9 Note ON:  F#2 key: 42 velocity: 127
62162 
Channel: 9 Note ON:  F#2 key: 42 velocity: 0
62280 
Channel: 9 Note ON:  F#2 key: 42 velocity: 127
62285 
Channel: 9 Note ON:  F#2 key: 42 velocity: 0
62400 
Channel: 9 Note ON:  A#2 key: 46 velocity: 127
62401 
Channel: 9 Note ON:  A#2 key: 46 velocity: 0
62520 
Channel: 9 Note ON:  F#2 key: 42 velocity: 127
62522 
Channel: 9 Note ON:  F#2 key: 42 velocity: 0
62640 
Channel: 9 Note ON:  F#2 key: 42 velocity: 127
62642 
Channel: 9 Note ON:  F#2 key: 42 velocity: 0
62760 
Channel: 9 Note ON:  F#2 key: 42 velocity: 127
62762 
Channel: 9 Note ON:  F#2 key: 42 velocity: 0
62880 
Channel: 9 Note ON:  F#2 key: 42 velocity: 127
62881 
Channel: 9 Note ON:  F#2 key: 42 velocity: 0
63000 
Channel: 9 Note ON:  F#2 key: 42 velocity: 127
63005 
Channel: 9 Note ON:  F#2 key: 42 velocity: 0
63120 
Channel: 9 Note ON:  F#2 key: 42 velocity: 127
63124 
Channel: 9 Note ON:  F#2 key: 42 velocity: 0
63240 
Channel: 9 Note ON:  F#2 key: 42 velocity: 127
63241 
Channel: 9 Note ON:  F#2 key: 42 velocity: 0
63360 
Channel: 9 Note ON:  F#2 key: 42 velocity: 127
63361 
Channel: 9 Note ON:  F#2 key: 42 velocity: 0
63480 
Channel: 9 Note ON:  F#2 key: 42 velocity: 127
63481 
Channel: 9 Note ON:  F#2 key: 42 velocity: 0
63600 
Channel: 9 Note ON:  F#2 key: 42 velocity: 127
63608 
Channel: 9 Note ON:  F#2 key: 42 velocity: 0
63720 
Channel: 9 Note ON:  F#2 key: 42 velocity: 127
63721 
Channel: 9 Note ON:  F#2 key: 42 velocity: 0
63840 
Channel: 9 Note ON:  F#2 key: 42 velocity: 127
63842 
Channel: 9 Note ON:  F#2 key: 42 velocity: 0
63960 
Channel: 9 Note ON:  F#2 key: 42 velocity: 127
63965 
Channel: 9 Note ON:  F#2 key: 42 velocity: 0
64080 
Channel: 9 Note ON:  F#2 key: 42 velocity: 127
64082 
Channel: 9 Note ON:  F#2 key: 42 velocity: 0
64200 
Channel: 9 Note ON:  F#2 key: 42 velocity: 127
64205 
Channel: 9 Note ON:  F#2 key: 42 velocity: 0
64320 
Channel: 9 Note ON:  A#2 key: 46 velocity: 127
64322 
Channel: 9 Note ON:  A#2 key: 46 velocity: 0
64440 
Channel: 9 Note ON:  F#2 key: 42 velocity: 127
64443 
Channel: 9 Note ON:  F#2 key: 42 velocity: 0
64560 
Channel: 9 Note ON:  F#2 key: 42 velocity: 127
64561 
Channel: 9 Note ON:  F#2 key: 42 velocity: 0
64680 
Channel: 9 Note ON:  F#2 key: 42 velocity: 127
64682 
Channel: 9 Note ON:  F#2 key: 42 velocity: 0
64800 
Channel: 9 Note ON:  F#2 key: 42 velocity: 127
64802 
Channel: 9 Note ON:  F#2 key: 42 velocity: 0
64920 
Channel: 9 Note ON:  F#2 key: 42 velocity: 127
64924 
Channel: 9 Note ON:  F#2 key: 42 velocity: 0
65040 
Channel: 9 Note ON:  F#2 key: 42 velocity: 127
65044 
Channel: 9 Note ON:  F#2 key: 42 velocity: 0
65160 
Channel: 9 Note ON:  F#2 key: 42 velocity: 127
65161 
Channel: 9 Note ON:  F#2 key: 42 velocity: 0
65280 
Channel: 9 Note ON:  F#2 key: 42 velocity: 127
65282 
Channel: 9 Note ON:  F#2 key: 42 velocity: 0
65400 
Channel: 9 Note ON:  F#2 key: 42 velocity: 127
65403 
Channel: 9 Note ON:  F#2 key: 42 velocity: 0
65520 
Channel: 9 Note ON:  F#2 key: 42 velocity: 127
65527 
Channel: 9 Note ON:  F#2 key: 42 velocity: 0
65640 
Channel: 9 Note ON:  F#2 key: 42 velocity: 127
65642 
Channel: 9 Note ON:  F#2 key: 42 velocity: 0
65760 
Channel: 9 Note ON:  F#2 key: 42 velocity: 127
65763 
Channel: 9 Note ON:  F#2 key: 42 velocity: 0
65880 
Channel: 9 Note ON:  F#2 key: 42 velocity: 127
65884 
Channel: 9 Note ON:  F#2 key: 42 velocity: 0
66000 
Channel: 9 Note ON:  F#2 key: 42 velocity: 127
66002 
Channel: 9 Note ON:  F#2 key: 42 velocity: 0
66120 
Channel: 9 Note ON:  F#2 key: 42 velocity: 127
66125 
Channel: 9 Note ON:  F#2 key: 42 velocity: 0
66240 
Channel: 9 Note ON:  A#2 key: 46 velocity: 127
66242 
Channel: 9 Note ON:  A#2 key: 46 velocity: 0
66360 
Channel: 9 Note ON:  F#2 key: 42 velocity: 127
66362 
Channel: 9 Note ON:  F#2 key: 42 velocity: 0
66480 
Channel: 9 Note ON:  F#2 key: 42 velocity: 127
66481 
Channel: 9 Note ON:  F#2 key: 42 velocity: 0
66600 
Channel: 9 Note ON:  F#2 key: 42 velocity: 127
66602 
Channel: 9 Note ON:  F#2 key: 42 velocity: 0
66720 
Channel: 9 Note ON:  F#2 key: 42 velocity: 127
66722 
Channel: 9 Note ON:  F#2 key: 42 velocity: 0
66840 
Channel: 9 Note ON:  F#2 key: 42 velocity: 127
66845 
Channel: 9 Note ON:  F#2 key: 42 velocity: 0
66960 
Channel: 9 Note ON:  F#2 key: 42 velocity: 127
66964 
Channel: 9 Note ON:  F#2 key: 42 velocity: 0
67080 
Channel: 9 Note ON:  F#2 key: 42 velocity: 127
67081 
Channel: 9 Note ON:  F#2 key: 42 velocity: 0
67200 
Channel: 9 Note ON:  F#2 key: 42 velocity: 127
67201 
Channel: 9 Note ON:  F#2 key: 42 velocity: 0
67320 
Channel: 9 Note ON:  F#2 key: 42 velocity: 127
67322 
Channel: 9 Note ON:  F#2 key: 42 velocity: 0
67440 
Channel: 9 Note ON:  F#2 key: 42 velocity: 127
67447 
Channel: 9 Note ON:  F#2 key: 42 velocity: 0
67560 
Channel: 9 Note ON:  F#2 key: 42 velocity: 127
67562 
Channel: 9 Note ON:  F#2 key: 42 velocity: 0
67680 
Channel: 9 Note ON:  F#2 key: 42 velocity: 127
67681 
Channel: 9 Note ON:  F#2 key: 42 velocity: 0
67800 
Channel: 9 Note ON:  F#2 key: 42 velocity: 127
67805 
Channel: 9 Note ON:  F#2 key: 42 velocity: 0
67920 
Channel: 9 Note ON:  F#2 key: 42 velocity: 127
67921 
Channel: 9 Note ON:  F#2 key: 42 velocity: 0
68040 
Channel: 9 Note ON:  F#2 key: 42 velocity: 127
68045 
Channel: 9 Note ON:  F#2 key: 42 velocity: 0
68160 
Channel: 9 Note ON:  A#2 key: 46 velocity: 127
68162 
Channel: 9 Note ON:  A#2 key: 46 velocity: 0
68280 
Channel: 9 Note ON:  F#2 key: 42 velocity: 127
68282 
Channel: 9 Note ON:  F#2 key: 42 velocity: 0
68400 
Channel: 9 Note ON:  F#2 key: 42 velocity: 127
68401 
Channel: 9 Note ON:  F#2 key: 42 velocity: 0
68520 
Channel: 9 Note ON:  F#2 key: 42 velocity: 127
68521 
Channel: 9 Note ON:  F#2 key: 42 velocity: 0
68640 
Channel: 9 Note ON:  F#2 key: 42 velocity: 127
68641 
Channel: 9 Note ON:  F#2 key: 42 velocity: 0
68760 
Channel: 9 Note ON:  F#2 key: 42 velocity: 127
68765 
Channel: 9 Note ON:  F#2 key: 42 velocity: 0
68880 
Channel: 9 Note ON:  F#2 key: 42 velocity: 127
68884 
Channel: 9 Note ON:  F#2 key: 42 velocity: 0
69000 
Channel: 9 Note ON:  F#2 key: 42 velocity: 127
69002 
Channel: 9 Note ON:  F#2 key: 42 velocity: 0
69120 
Channel: 9 Note ON:  F#2 key: 42 velocity: 127
69122 
Channel: 9 Note ON:  F#2 key: 42 velocity: 0
69240 
Channel: 9 Note ON:  F#2 key: 42 velocity: 127
69241 
Channel: 9 Note ON:  F#2 key: 42 velocity: 0
69360 
Channel: 9 Note ON:  F#2 key: 42 velocity: 127
69367 
Channel: 9 Note ON:  F#2 key: 42 velocity: 0
69480 
Channel: 9 Note ON:  F#2 key: 42 velocity: 127
69482 
Channel: 9 Note ON:  F#2 key: 42 velocity: 0
69600 
Channel: 9 Note ON:  F#2 key: 42 velocity: 127
69602 
Channel: 9 Note ON:  F#2 key: 42 velocity: 0
69720 
Channel: 9 Note ON:  F#2 key: 42 velocity: 127
69725 
Channel: 9 Note ON:  F#2 key: 42 velocity: 0
69840 
Channel: 9 Note ON:  F#2 key: 42 velocity: 127
69842 
Channel: 9 Note ON:  F#2 key: 42 velocity: 0
69960 
Channel: 9 Note ON:  F#2 key: 42 velocity: 127
69965 
Channel: 9 Note ON:  F#2 key: 42 velocity: 0
70080 
Channel: 9 Note ON:  A#2 key: 46 velocity: 127
70081 
Channel: 9 Note ON:  A#2 key: 46 velocity: 0
70200 
Channel: 9 Note ON:  F#2 key: 42 velocity: 127
70202 
Channel: 9 Note ON:  F#2 key: 42 velocity: 0
70320 
Channel: 9 Note ON:  F#2 key: 42 velocity: 127
70322 
Channel: 9 Note ON:  F#2 key: 42 velocity: 0
70440 
Channel: 9 Note ON:  F#2 key: 42 velocity: 127
70442 
Channel: 9 Note ON:  F#2 key: 42 velocity: 0
70560 
Channel: 9 Note ON:  F#2 key: 42 velocity: 127
70561 
Channel: 9 Note ON:  F#2 key: 42 velocity: 0
70680 
Channel: 9 Note ON:  F#2 key: 42 velocity: 127
70685 
Channel: 9 Note ON:  F#2 key: 42 velocity: 0
70800 
Channel: 9 Note ON:  F#2 key: 42 velocity: 127
70804 
Channel: 9 Note ON:  F#2 key: 42 velocity: 0
70920 
Channel: 9 Note ON:  F#2 key: 42 velocity: 127
70921 
Channel: 9 Note ON:  F#2 key: 42 velocity: 0
71040 
Channel: 9 Note ON:  F#2 key: 42 velocity: 127
71041 
Channel: 9 Note ON:  F#2 key: 42 velocity: 0
71160 
Channel: 9 Note ON:  F#2 key: 42 velocity: 127
71161 
Channel: 9 Note ON:  F#2 key: 42 velocity: 0
71280 
Channel: 9 Note ON:  F#2 key: 42 velocity: 127
71288 
Channel: 9 Note ON:  F#2 key: 42 velocity: 0
71400 
Channel: 9 Note ON:  F#2 key: 42 velocity: 127
71401 
Channel: 9 Note ON:  F#2 key: 42 velocity: 0
71520 
Channel: 9 Note ON:  F#2 key: 42 velocity: 127
71522 
Channel: 9 Note ON:  F#2 key: 42 velocity: 0
71640 
Channel: 9 Note ON:  F#2 key: 42 velocity: 127
71645 
Channel: 9 Note ON:  F#2 key: 42 velocity: 0
71760 
Channel: 9 Note ON:  F#2 key: 42 velocity: 127
71762 
Channel: 9 Note ON:  F#2 key: 42 velocity: 0
71880 
Channel: 9 Note ON:  F#2 key: 42 velocity: 127
71885 
Channel: 9 Note ON:  F#2 key: 42 velocity: 0
72000 
Channel: 9 Note ON:  A#2 key: 46 velocity: 127
72002 
Channel: 9 Note ON:  A#2 key: 46 velocity: 0
72120 
Channel: 9 Note ON:  F#2 key: 42 velocity: 127
72123 
Channel: 9 Note ON:  F#2 key: 42 velocity: 0
72240 
Channel: 9 Note ON:  F#2 key: 42 velocity: 127
72241 
Channel: 9 Note ON:  F#2 key: 42 velocity: 0
72360 
Channel: 9 Note ON:  F#2 key: 42 velocity: 127
72362 
Channel: 9 Note ON:  F#2 key: 42 velocity: 0
72480 
Channel: 9 Note ON:  F#2 key: 42 velocity: 127
72482 
Channel: 9 Note ON:  F#2 key: 42 velocity: 0
72600 
Channel: 9 Note ON:  F#2 key: 42 velocity: 127
72604 
Channel: 9 Note ON:  F#2 key: 42 velocity: 0
72720 
Channel: 9 Note ON:  F#2 key: 42 velocity: 127
72724 
Channel: 9 Note ON:  F#2 key: 42 velocity: 0
72840 
Channel: 9 Note ON:  F#2 key: 42 velocity: 127
72841 
Channel: 9 Note ON:  F#2 key: 42 velocity: 0
72960 
Channel: 9 Note ON:  F#2 key: 42 velocity: 127
72962 
Channel: 9 Note ON:  F#2 key: 42 velocity: 0
73080 
Channel: 9 Note ON:  F#2 key: 42 velocity: 127
73083 
Channel: 9 Note ON:  F#2 key: 42 velocity: 0
73200 
Channel: 9 Note ON:  F#2 key: 42 velocity: 127
73207 
Channel: 9 Note ON:  F#2 key: 42 velocity: 0
73320 
Channel: 9 Note ON:  F#2 key: 42 velocity: 127
73322 
Channel: 9 Note ON:  F#2 key: 42 velocity: 0
73440 
Channel: 9 Note ON:  F#2 key: 42 velocity: 127
73443 
Channel: 9 Note ON:  F#2 key: 42 velocity: 0
73560 
Channel: 9 Note ON:  F#2 key: 42 velocity: 127
73564 
Channel: 9 Note ON:  F#2 key: 42 velocity: 0
73680 
Channel: 9 Note ON:  F#2 key: 42 velocity: 127
73682 
Channel: 9 Note ON:  F#2 key: 42 velocity: 0
73800 
Channel: 9 Note ON:  F#2 key: 42 velocity: 127
73805 
Channel: 9 Note ON:  F#2 key: 42 velocity: 0
73920 
Channel: 9 Note ON:  A#2 key: 46 velocity: 127
73922 
Channel: 9 Note ON:  A#2 key: 46 velocity: 0
74040 
Channel: 9 Note ON:  F#2 key: 42 velocity: 127
74042 
Channel: 9 Note ON:  F#2 key: 42 velocity: 0
74160 
Channel: 9 Note ON:  F#2 key: 42 velocity: 127
74161 
Channel: 9 Note ON:  F#2 key: 42 velocity: 0
74280 
Channel: 9 Note ON:  F#2 key: 42 velocity: 127
74281 
Channel: 9 Note ON:  F#2 key: 42 velocity: 0
74400 
Channel: 9 Note ON:  F#2 key: 42 velocity: 127
74401 
Channel: 9 Note ON:  F#2 key: 42 velocity: 0
74520 
Channel: 9 Note ON:  F#2 key: 42 velocity: 127
74525 
Channel: 9 Note ON:  F#2 key: 42 velocity: 0
74640 
Channel: 9 Note ON:  F#2 key: 42 velocity: 127
74644 
Channel: 9 Note ON:  F#2 key: 42 velocity: 0
74760 
Channel: 9 Note ON:  F#2 key: 42 velocity: 127
74762 
Channel: 9 Note ON:  F#2 key: 42 velocity: 0
74880 
Channel: 9 Note ON:  F#2 key: 42 velocity: 127
74882 
Channel: 9 Note ON:  F#2 key: 42 velocity: 0
75000 
Channel: 9 Note ON:  F#2 key: 42 velocity: 127
75001 
Channel: 9 Note ON:  F#2 key: 42 velocity: 0
75120 
Channel: 9 Note ON:  F#2 key: 42 velocity: 127
75127 
Channel: 9 Note ON:  F#2 key: 42 velocity: 0
75240 
Channel: 9 Note ON:  F#2 key: 42 velocity: 127
75242 
Channel: 9 Note ON:  F#2 key: 42 velocity: 0
75360 
Channel: 9 Note ON:  F#2 key: 42 velocity: 127
75362 
Channel: 9 Note ON:  F#2 key: 42 velocity: 0
75480 
Channel: 9 Note ON:  F#2 key: 42 velocity: 127
75485 
Channel: 9 Note ON:  F#2 key: 42 velocity: 0
75600 
Channel: 9 Note ON:  F#2 key: 42 velocity: 127
75602 
Channel: 9 Note ON:  F#2 key: 42 velocity: 0
75720 
Channel: 9 Note ON:  F#2 key: 42 velocity: 127
75725 
Channel: 9 Note ON:  F#2 key: 42 velocity: 0
75840 
Channel: 9 Note ON:  A#2 key: 46 velocity: 127
75841 
Channel: 9 Note ON:  A#2 key: 46 velocity: 0
75960 
Channel: 9 Note ON:  F#2 key: 42 velocity: 127
75962 
Channel: 9 Note ON:  F#2 key: 42 velocity: 0
76080 
Channel: 9 Note ON:  F#2 key: 42 velocity: 127
76082 
Channel: 9 Note ON:  F#2 key: 42 velocity: 0
76200 
Channel: 9 Note ON:  F#2 key: 42 velocity: 127
76202 
Channel: 9 Note ON:  F#2 key: 42 velocity: 0
76320 
Channel: 9 Note ON:  F#2 key: 42 velocity: 127
76321 
Channel: 9 Note ON:  F#2 key: 42 velocity: 0
76440 
Channel: 9 Note ON:  F#2 key: 42 velocity: 127
76445 
Channel: 9 Note ON:  F#2 key: 42 velocity: 0
76560 
Channel: 9 Note ON:  F#2 key: 42 velocity: 127
76564 
Channel: 9 Note ON:  F#2 key: 42 velocity: 0
76680 
Channel: 9 Note ON:  F#2 key: 42 velocity: 127
76681 
Channel: 9 Note ON:  F#2 key: 42 velocity: 0
76800 
Channel: 9 Note ON:  F#2 key: 42 velocity: 127
76801 
Channel: 9 Note ON:  F#2 key: 42 velocity: 0
76920 
Channel: 9 Note ON:  F#2 key: 42 velocity: 127
76921 
Channel: 9 Note ON:  F#2 key: 42 velocity: 0
77040 
Channel: 9 Note ON:  F#2 key: 42 velocity: 127
77048 
Channel: 9 Note ON:  F#2 key: 42 velocity: 0
77160 
Channel: 9 Note ON:  F#2 key: 42 velocity: 127
77161 
Channel: 9 Note ON:  F#2 key: 42 velocity: 0
77280 
Channel: 9 Note ON:  F#2 key: 42 velocity: 127
77282 
Channel: 9 Note ON:  F#2 key: 42 velocity: 0
77400 
Channel: 9 Note ON:  F#2 key: 42 velocity: 127
77405 
Channel: 9 Note ON:  F#2 key: 42 velocity: 0
77520 
Channel: 9 Note ON:  F#2 key: 42 velocity: 127
77522 
Channel: 9 Note ON:  F#2 key: 42 velocity: 0
77640 
Channel: 9 Note ON:  F#2 key: 42 velocity: 127
77645 
Channel: 9 Note ON:  F#2 key: 42 velocity: 0
77760 
Channel: 9 Note ON:  A#2 key: 46 velocity: 127
77762 
Channel: 9 Note ON:  A#2 key: 46 velocity: 0
77880 
Channel: 9 Note ON:  F#2 key: 42 velocity: 127
77883 
Channel: 9 Note ON:  F#2 key: 42 velocity: 0
78000 
Channel: 9 Note ON:  F#2 key: 42 velocity: 127
78001 
Channel: 9 Note ON:  F#2 key: 42 velocity: 0
78120 
Channel: 9 Note ON:  F#2 key: 42 velocity: 127
78122 
Channel: 9 Note ON:  F#2 key: 42 velocity: 0
78240 
Channel: 9 Note ON:  F#2 key: 42 velocity: 127
78242 
Channel: 9 Note ON:  F#2 key: 42 velocity: 0
78360 
Channel: 9 Note ON:  F#2 key: 42 velocity: 127
78364 
Channel: 9 Note ON:  F#2 key: 42 velocity: 0
78480 
Channel: 9 Note ON:  F#2 key: 42 velocity: 127
78484 
Channel: 9 Note ON:  F#2 key: 42 velocity: 0
78600 
Channel: 9 Note ON:  F#2 key: 42 velocity: 127
78601 
Channel: 9 Note ON:  F#2 key: 42 velocity: 0
78720 
Channel: 9 Note ON:  F#2 key: 42 velocity: 127
78722 
Channel: 9 Note ON:  F#2 key: 42 velocity: 0
78840 
Channel: 9 Note ON:  F#2 key: 42 velocity: 127
78843 
Channel: 9 Note ON:  F#2 key: 42 velocity: 0
78960 
Channel: 9 Note ON:  F#2 key: 42 velocity: 127
78967 
Channel: 9 Note ON:  F#2 key: 42 velocity: 0
79080 
Channel: 9 Note ON:  F#2 key: 42 velocity: 127
79082 
Channel: 9 Note ON:  F#2 key: 42 velocity: 0
79200 
Channel: 9 Note ON:  F#2 key: 42 velocity: 127
79203 
Channel: 9 Note ON:  F#2 key: 42 velocity: 0
79320 
Channel: 9 Note ON:  F#2 key: 42 velocity: 127
79324 
Channel: 9 Note ON:  F#2 key: 42 velocity: 0
79440 
Channel: 9 Note ON:  F#2 key: 42 velocity: 127
79442 
Channel: 9 Note ON:  F#2 key: 42 velocity: 0
79560 
Channel: 9 Note ON:  F#2 key: 42 velocity: 127
79565 
Channel: 9 Note ON:  F#2 key: 42 velocity: 0
79680 
Channel: 9 Note ON:  A#2 key: 46 velocity: 127
79682 
Channel: 9 Note ON:  A#2 key: 46 velocity: 0
79800 
Channel: 9 Note ON:  F#2 key: 42 velocity: 127
79802 
Channel: 9 Note ON:  F#2 key: 42 velocity: 0
79920 
Channel: 9 Note ON:  F#2 key: 42 velocity: 127
79921 
Channel: 9 Note ON:  F#2 key: 42 velocity: 0
80040 
Channel: 9 Note ON:  F#2 key: 42 velocity: 127
80042 
Channel: 9 Note ON:  F#2 key: 42 velocity: 0
80160 
Channel: 9 Note ON:  F#2 key: 42 velocity: 127
80162 
Channel: 9 Note ON:  F#2 key: 42 velocity: 0
80280 
Channel: 9 Note ON:  F#2 key: 42 velocity: 127
80285 
Channel: 9 Note ON:  F#2 key: 42 velocity: 0
80400 
Channel: 9 Note ON:  F#2 key: 42 velocity: 127
80404 
Channel: 9 Note ON:  F#2 key: 42 velocity: 0
80520 
Channel: 9 Note ON:  F#2 key: 42 velocity: 127
80521 
Channel: 9 Note ON:  F#2 key: 42 velocity: 0
80640 
Channel: 9 Note ON:  F#2 key: 42 velocity: 127
80641 
Channel: 9 Note ON:  F#2 key: 42 velocity: 0
80760 
Channel: 9 Note ON:  F#2 key: 42 velocity: 127
80762 
Channel: 9 Note ON:  F#2 key: 42 velocity: 0
80880 
Channel: 9 Note ON:  F#2 key: 42 velocity: 127
80887 
Channel: 9 Note ON:  F#2 key: 42 velocity: 0
81000 
Channel: 9 Note ON:  F#2 key: 42 velocity: 127
81002 
Channel: 9 Note ON:  F#2 key: 42 velocity: 0
81120 
Channel: 9 Note ON:  F#2 key: 42 velocity: 127
81121 
Channel: 9 Note ON:  F#2 key: 42 velocity: 0
81240 
Channel: 9 Note ON:  F#2 key: 42 velocity: 127
81245 
Channel: 9 Note ON:  F#2 key: 42 velocity: 0
81360 
Channel: 9 Note ON:  F#2 key: 42 velocity: 127
81361 
Channel: 9 Note ON:  F#2 key: 42 velocity: 0
81480 
Channel: 9 Note ON:  F#2 key: 42 velocity: 127
81485 
Channel: 9 Note ON:  F#2 key: 42 velocity: 0
81600 
Channel: 9 Note ON:  A#2 key: 46 velocity: 127
81602 
Channel: 9 Note ON:  A#2 key: 46 velocity: 0
81720 
Channel: 9 Note ON:  F#2 key: 42 velocity: 127
81722 
Channel: 9 Note ON:  F#2 key: 42 velocity: 0
81840 
Channel: 9 Note ON:  F#2 key: 42 velocity: 127
81841 
Channel: 9 Note ON:  F#2 key: 42 velocity: 0
81960 
Channel: 9 Note ON:  F#2 key: 42 velocity: 127
81961 
Channel: 9 Note ON:  F#2 key: 42 velocity: 0
82080 
Channel: 9 Note ON:  F#2 key: 42 velocity: 127
82081 
Channel: 9 Note ON:  F#2 key: 42 velocity: 0
82200 
Channel: 9 Note ON:  F#2 key: 42 velocity: 127
82205 
Channel: 9 Note ON:  F#2 key: 42 velocity: 0
82320 
Channel: 9 Note ON:  F#2 key: 42 velocity: 127
82324 
Channel: 9 Note ON:  F#2 key: 42 velocity: 0
82440 
Channel: 9 Note ON:  F#2 key: 42 velocity: 127
82442 
Channel: 9 Note ON:  F#2 key: 42 velocity: 0
82560 
Channel: 9 Note ON:  F#2 key: 42 velocity: 127
82562 
Channel: 9 Note ON:  F#2 key: 42 velocity: 0
82680 
Channel: 9 Note ON:  F#2 key: 42 velocity: 127
82681 
Channel: 9 Note ON:  F#2 key: 42 velocity: 0
82800 
Channel: 9 Note ON:  F#2 key: 42 velocity: 127
82807 
Channel: 9 Note ON:  F#2 key: 42 velocity: 0
82920 
Channel: 9 Note ON:  F#2 key: 42 velocity: 127
82922 
Channel: 9 Note ON:  F#2 key: 42 velocity: 0
83040 
Channel: 9 Note ON:  F#2 key: 42 velocity: 127
83042 
Channel: 9 Note ON:  F#2 key: 42 velocity: 0
83160 
Channel: 9 Note ON:  F#2 key: 42 velocity: 127
83165 
Channel: 9 Note ON:  F#2 key: 42 velocity: 0
83280 
Channel: 9 Note ON:  F#2 key: 42 velocity: 127
83282 
Channel: 9 Note ON:  F#2 key: 42 velocity: 0
83400 
Channel: 9 Note ON:  F#2 key: 42 velocity: 127
83405 
Channel: 9 Note ON:  F#2 key: 42 velocity: 0
83520 
Channel: 9 Note ON:  A#2 key: 46 velocity: 127
83521 
Channel: 9 Note ON:  A#2 key: 46 velocity: 0
83640 
Channel: 9 Note ON:  F#2 key: 42 velocity: 127
83642 
Channel: 9 Note ON:  F#2 key: 42 velocity: 0
83760 
Channel: 9 Note ON:  F#2 key: 42 velocity: 127
83762 
Channel: 9 Note ON:  F#2 key: 42 velocity: 0
83880 
Channel: 9 Note ON:  F#2 key: 42 velocity: 127
83882 
Channel: 9 Note ON:  F#2 key: 42 velocity: 0
84000 
Channel: 9 Note ON:  F#2 key: 42 velocity: 127
84001 
Channel: 9 Note ON:  F#2 key: 42 velocity: 0
84120 
Channel: 9 Note ON:  F#2 key: 42 velocity: 127
84125 
Channel: 9 Note ON:  F#2 key: 42 velocity: 0
84240 
Channel: 9 Note ON:  F#2 key: 42 velocity: 127
84244 
Channel: 9 Note ON:  F#2 key: 42 velocity: 0
84360 
Channel: 9 Note ON:  F#2 key: 42 velocity: 127
84361 
Channel: 9 Note ON:  F#2 key: 42 velocity: 0
84480 
Channel: 9 Note ON:  F#2 key: 42 velocity: 127
84481 
Channel: 9 Note ON:  F#2 key: 42 velocity: 0
84600 
Channel: 9 Note ON:  F#2 key: 42 velocity: 127
84601 
Channel: 9 Note ON:  F#2 key: 42 velocity: 0
84720 
Channel: 9 Note ON:  F#2 key: 42 velocity: 127
84728 
Channel: 9 Note ON:  F#2 key: 42 velocity: 0
84840 
Channel: 9 Note ON:  F#2 key: 42 velocity: 127
84841 
Channel: 9 Note ON:  F#2 key: 42 velocity: 0
84960 
Channel: 9 Note ON:  F#2 key: 42 velocity: 127
84962 
Channel: 9 Note ON:  F#2 key: 42 velocity: 0
85080 
Channel: 9 Note ON:  F#2 key: 42 velocity: 127
85085 
Channel: 9 Note ON:  F#2 key: 42 velocity: 0
85200 
Channel: 9 Note ON:  F#2 key: 42 velocity: 127
85202 
Channel: 9 Note ON:  F#2 key: 42 velocity: 0
85320 
Channel: 9 Note ON:  F#2 key: 42 velocity: 127
85325 
Channel: 9 Note ON:  F#2 key: 42 velocity: 0
85440 
Channel: 9 Note ON:  A#2 key: 46 velocity: 127
85442 
Channel: 9 Note ON:  A#2 key: 46 velocity: 0
85560 
Channel: 9 Note ON:  F#2 key: 42 velocity: 127
85563 
Channel: 9 Note ON:  F#2 key: 42 velocity: 0
85680 
Channel: 9 Note ON:  F#2 key: 42 velocity: 127
85681 
Channel: 9 Note ON:  F#2 key: 42 velocity: 0
85800 
Channel: 9 Note ON:  F#2 key: 42 velocity: 127
85802 
Channel: 9 Note ON:  F#2 key: 42 velocity: 0
85920 
Channel: 9 Note ON:  F#2 key: 42 velocity: 127
85922 
Channel: 9 Note ON:  F#2 key: 42 velocity: 0
86040 
Channel: 9 Note ON:  F#2 key: 42 velocity: 127
86044 
Channel: 9 Note ON:  F#2 key: 42 velocity: 0
86160 
Channel: 9 Note ON:  F#2 key: 42 velocity: 127
86164 
Channel: 9 Note ON:  F#2 key: 42 velocity: 0
86280 
Channel: 9 Note ON:  F#2 key: 42 velocity: 127
86281 
Channel: 9 Note ON:  F#2 key: 42 velocity: 0
86400 
Channel: 9 Note ON:  F#2 key: 42 velocity: 127
86402 
Channel: 9 Note ON:  F#2 key: 42 velocity: 0
86520 
Channel: 9 Note ON:  F#2 key: 42 velocity: 127
86523 
Channel: 9 Note ON:  F#2 key: 42 velocity: 0
86640 
Channel: 9 Note ON:  F#2 key: 42 velocity: 127
86647 
Channel: 9 Note ON:  F#2 key: 42 velocity: 0
86760 
Channel: 9 Note ON:  F#2 key: 42 velocity: 127
86762 
Channel: 9 Note ON:  F#2 key: 42 velocity: 0
86880 
Channel: 9 Note ON:  F#2 key: 42 velocity: 127
86883 
Channel: 9 Note ON:  F#2 key: 42 velocity: 0
87000 
Channel: 9 Note ON:  F#2 key: 42 velocity: 127
87004 
Channel: 9 Note ON:  F#2 key: 42 velocity: 0
87120 
Channel: 9 Note ON:  F#2 key: 42 velocity: 127
87122 
Channel: 9 Note ON:  F#2 key: 42 velocity: 0
87240 
Channel: 9 Note ON:  F#2 key: 42 velocity: 127
87245 
Channel: 9 Note ON:  F#2 key: 42 velocity: 0
89280 
Channel: 9 Note ON:  A#2 key: 46 velocity: 127
89282 
Channel: 9 Note ON:  A#2 key: 46 velocity: 0
89400 
Channel: 9 Note ON:  F#2 key: 42 velocity: 127
89402 
Channel: 9 Note ON:  F#2 key: 42 velocity: 0
89520 
Channel: 9 Note ON:  F#2 key: 42 velocity: 127
89521 
Channel: 9 Note ON:  F#2 key: 42 velocity: 0
89640 
Channel: 9 Note ON:  F#2 key: 42 velocity: 127
89642 
Channel: 9 Note ON:  F#2 key: 42 velocity: 0
89760 
Channel: 9 Note ON:  F#2 key: 42 velocity: 127
89762 
Channel: 9 Note ON:  F#2 key: 42 velocity: 0
89880 
Channel: 9 Note ON:  F#2 key: 42 velocity: 127
89885 
Channel: 9 Note ON:  F#2 key: 42 velocity: 0
90000 
Channel: 9 Note ON:  F#2 key: 42 velocity: 127
90004 
Channel: 9 Note ON:  F#2 key: 42 velocity: 0
90120 
Channel: 9 Note ON:  F#2 key: 42 velocity: 127
90121 
Channel: 9 Note ON:  F#2 key: 42 velocity: 0
90240 
Channel: 9 Note ON:  F#2 key: 42 velocity: 127
90241 
Channel: 9 Note ON:  F#2 key: 42 velocity: 0
90360 
Channel: 9 Note ON:  F#2 key: 42 velocity: 127
90362 
Channel: 9 Note ON:  F#2 key: 42 velocity: 0
90480 
Channel: 9 Note ON:  F#2 key: 42 velocity: 127
90487 
Channel: 9 Note ON:  F#2 key: 42 velocity: 0
90600 
Channel: 9 Note ON:  F#2 key: 42 velocity: 127
90602 
Channel: 9 Note ON:  F#2 key: 42 velocity: 0
90720 
Channel: 9 Note ON:  F#2 key: 42 velocity: 127
90721 
Channel: 9 Note ON:  F#2 key: 42 velocity: 0
90840 
Channel: 9 Note ON:  F#2 key: 42 velocity: 127
90845 
Channel: 9 Note ON:  F#2 key: 42 velocity: 0
90960 
Channel: 9 Note ON:  F#2 key: 42 velocity: 127
90961 
Channel: 9 Note ON:  F#2 key: 42 velocity: 0
91080 
Channel: 9 Note ON:  F#2 key: 42 velocity: 127
91085 
Channel: 9 Note ON:  F#2 key: 42 velocity: 0
91200 
Channel: 9 Note ON:  A#2 key: 46 velocity: 127
91202 
Channel: 9 Note ON:  A#2 key: 46 velocity: 0
91320 
Channel: 9 Note ON:  F#2 key: 42 velocity: 127
91322 
Channel: 9 Note ON:  F#2 key: 42 velocity: 0
91440 
Channel: 9 Note ON:  F#2 key: 42 velocity: 127
91441 
Channel: 9 Note ON:  F#2 key: 42 velocity: 0
91560 
Channel: 9 Note ON:  F#2 key: 42 velocity: 127
91561 
Channel: 9 Note ON:  F#2 key: 42 velocity: 0
91680 
Channel: 9 Note ON:  F#2 key: 42 velocity: 127
91681 
Channel: 9 Note ON:  F#2 key: 42 velocity: 0
91800 
Channel: 9 Note ON:  F#2 key: 42 velocity: 127
91805 
Channel: 9 Note ON:  F#2 key: 42 velocity: 0
91920 
Channel: 9 Note ON:  F#2 key: 42 velocity: 127
91924 
Channel: 9 Note ON:  F#2 key: 42 velocity: 0
92040 
Channel: 9 Note ON:  F#2 key: 42 velocity: 127
92042 
Channel: 9 Note ON:  F#2 key: 42 velocity: 0
92160 
Channel: 9 Note ON:  F#2 key: 42 velocity: 127
92162 
Channel: 9 Note ON:  F#2 key: 42 velocity: 0
92280 
Channel: 9 Note ON:  F#2 key: 42 velocity: 127
92281 
Channel: 9 Note ON:  F#2 key: 42 velocity: 0
92400 
Channel: 9 Note ON:  F#2 key: 42 velocity: 127
92407 
Channel: 9 Note ON:  F#2 key: 42 velocity: 0
92520 
Channel: 9 Note ON:  F#2 key: 42 velocity: 127
92522 
Channel: 9 Note ON:  F#2 key: 42 velocity: 0
92640 
Channel: 9 Note ON:  F#2 key: 42 velocity: 127
92642 
Channel: 9 Note ON:  F#2 key: 42 velocity: 0
92760 
Channel: 9 Note ON:  F#2 key: 42 velocity: 127
92765 
Channel: 9 Note ON:  F#2 key: 42 velocity: 0
92880 
Channel: 9 Note ON:  F#2 key: 42 velocity: 127
92882 
Channel: 9 Note ON:  F#2 key: 42 velocity: 0
93000 
Channel: 9 Note ON:  F#2 key: 42 velocity: 127
93005 
Channel: 9 Note ON:  F#2 key: 42 velocity: 0
93120 
Channel: 9 Note ON:  A#2 key: 46 velocity: 127
93121 
Channel: 9 Note ON:  A#2 key: 46 velocity: 0
93240 
Channel: 9 Note ON:  F#2 key: 42 velocity: 127
93242 
Channel: 9 Note ON:  F#2 key: 42 velocity: 0
93360 
Channel: 9 Note ON:  F#2 key: 42 velocity: 127
93362 
Channel: 9 Note ON:  F#2 key: 42 velocity: 0
93480 
Channel: 9 Note ON:  F#2 key: 42 velocity: 127
93482 
Channel: 9 Note ON:  F#2 key: 42 velocity: 0
93600 
Channel: 9 Note ON:  F#2 key: 42 velocity: 127
93601 
Channel: 9 Note ON:  F#2 key: 42 velocity: 0
93720 
Channel: 9 Note ON:  F#2 key: 42 velocity: 127
93725 
Channel: 9 Note ON:  F#2 key: 42 velocity: 0
93840 
Channel: 9 Note ON:  F#2 key: 42 velocity: 127
93844 
Channel: 9 Note ON:  F#2 key: 42 velocity: 0
93960 
Channel: 9 Note ON:  F#2 key: 42 velocity: 127
93961 
Channel: 9 Note ON:  F#2 key: 42 velocity: 0
94080 
Channel: 9 Note ON:  F#2 key: 42 velocity: 127
94081 
Channel: 9 Note ON:  F#2 key: 42 velocity: 0
94200 
Channel: 9 Note ON:  F#2 key: 42 velocity: 127
94201 
Channel: 9 Note ON:  F#2 key: 42 velocity: 0
94320 
Channel: 9 Note ON:  F#2 key: 42 velocity: 127
94328 
Channel: 9 Note ON:  F#2 key: 42 velocity: 0
94440 
Channel: 9 Note ON:  F#2 key: 42 velocity: 127
94441 
Channel: 9 Note ON:  F#2 key: 42 velocity: 0
94560 
Channel: 9 Note ON:  F#2 key: 42 velocity: 127
94562 
Channel: 9 Note ON:  F#2 key: 42 velocity: 0
94680 
Channel: 9 Note ON:  F#2 key: 42 velocity: 127
94685 
Channel: 9 Note ON:  F#2 key: 42 velocity: 0
94800 
Channel: 9 Note ON:  F#2 key: 42 velocity: 127
94802 
Channel: 9 Note ON:  F#2 key: 42 velocity: 0
94920 
Channel: 9 Note ON:  F#2 key: 42 velocity: 127
94925 
Channel: 9 Note ON:  F#2 key: 42 velocity: 0
95040 
Channel: 9 Note ON:  A#2 key: 46 velocity: 127
95042 
Channel: 9 Note ON:  A#2 key: 46 velocity: 0
95160 
Channel: 9 Note ON:  F#2 key: 42 velocity: 127
95163 
Channel: 9 Note ON:  F#2 key: 42 velocity: 0
95280 
Channel: 9 Note ON:  F#2 key: 42 velocity: 127
95281 
Channel: 9 Note ON:  F#2 key: 42 velocity: 0
95400 
Channel: 9 Note ON:  F#2 key: 42 velocity: 127
95402 
Channel: 9 Note ON:  F#2 key: 42 velocity: 0
95520 
Channel: 9 Note ON:  F#2 key: 42 velocity: 127
95522 
Channel: 9 Note ON:  F#2 key: 42 velocity: 0
95640 
Channel: 9 Note ON:  F#2 key: 42 velocity: 127
95644 
Channel: 9 Note ON:  F#2 key: 42 velocity: 0
95760 
Channel: 9 Note ON:  F#2 key: 42 velocity: 127
95764 
Channel: 9 Note ON:  F#2 key: 42 velocity: 0
95880 
Channel: 9 Note ON:  F#2 key: 42 velocity: 127
95881 
Channel: 9 Note ON:  F#2 key: 42 velocity: 0
96000 
Channel: 9 Note ON:  F#2 key: 42 velocity: 127
96002 
Channel: 9 Note ON:  F#2 key: 42 velocity: 0
96120 
Channel: 9 Note ON:  F#2 key: 42 velocity: 127
96123 
Channel: 9 Note ON:  F#2 key: 42 velocity: 0
96240 
Channel: 9 Note ON:  F#2 key: 42 velocity: 127
96247 
Channel: 9 Note ON:  F#2 key: 42 velocity: 0
96360 
Channel: 9 Note ON:  F#2 key: 42 velocity: 127
96362 
Channel: 9 Note ON:  F#2 key: 42 velocity: 0
96480 
Channel: 9 Note ON:  F#2 key: 42 velocity: 127
96483 
Channel: 9 Note ON:  F#2 key: 42 velocity: 0
96600 
Channel: 9 Note ON:  F#2 key: 42 velocity: 127
96604 
Channel: 9 Note ON:  F#2 key: 42 velocity: 0
96720 
Channel: 9 Note ON:  F#2 key: 42 velocity: 127
96722 
Channel: 9 Note ON:  F#2 key: 42 velocity: 0
96840 
Channel: 9 Note ON:  F#2 key: 42 velocity: 127
96845 
Channel: 9 Note ON:  F#2 key: 42 velocity: 0
96960 
Channel: 9 Note ON:  A#2 key: 46 velocity: 127
96962 
Channel: 9 Note ON:  A#2 key: 46 velocity: 0
97080 
Channel: 9 Note ON:  F#2 key: 42 velocity: 127
97082 
Channel: 9 Note ON:  F#2 key: 42 velocity: 0
97200 
Channel: 9 Note ON:  F#2 key: 42 velocity: 127
97201 
Channel: 9 Note ON:  F#2 key: 42 velocity: 0
97320 
Channel: 9 Note ON:  F#2 key: 42 velocity: 127
97322 
Channel: 9 Note ON:  F#2 key: 42 velocity: 0
97440 
Channel: 9 Note ON:  F#2 key: 42 velocity: 127
97442 
Channel: 9 Note ON:  F#2 key: 42 velocity: 0
97560 
Channel: 9 Note ON:  F#2 key: 42 velocity: 127
97565 
Channel: 9 Note ON:  F#2 key: 42 velocity: 0
97680 
Channel: 9 Note ON:  F#2 key: 42 velocity: 127
97684 
Channel: 9 Note ON:  F#2 key: 42 velocity: 0
97800 
Channel: 9 Note ON:  F#2 key: 42 velocity: 127
97801 
Channel: 9 Note ON:  F#2 key: 42 velocity: 0
97920 
Channel: 9 Note ON:  F#2 key: 42 velocity: 127
97921 
Channel: 9 Note ON:  F#2 key: 42 velocity: 0
98040 
Channel: 9 Note ON:  F#2 key: 42 velocity: 127
98042 
Channel: 9 Note ON:  F#2 key: 42 velocity: 0
98160 
Channel: 9 Note ON:  F#2 key: 42 velocity: 127
98167 
Channel: 9 Note ON:  F#2 key: 42 velocity: 0
98280 
Channel: 9 Note ON:  F#2 key: 42 velocity: 127
98282 
Channel: 9 Note ON:  F#2 key: 42 velocity: 0
98400 
Channel: 9 Note ON:  F#2 key: 42 velocity: 127
98401 
Channel: 9 Note ON:  F#2 key: 42 velocity: 0
98520 
Channel: 9 Note ON:  F#2 key: 42 velocity: 127
98525 
Channel: 9 Note ON:  F#2 key: 42 velocity: 0
98640 
Channel: 9 Note ON:  F#2 key: 42 velocity: 127
98641 
Channel: 9 Note ON:  F#2 key: 42 velocity: 0
98760 
Channel: 9 Note ON:  F#2 key: 42 velocity: 127
98765 
Channel: 9 Note ON:  F#2 key: 42 velocity: 0
98880 
Channel: 9 Note ON:  A#2 key: 46 velocity: 127
98882 
Channel: 9 Note ON:  A#2 key: 46 velocity: 0
99000 
Channel: 9 Note ON:  F#2 key: 42 velocity: 127
99002 
Channel: 9 Note ON:  F#2 key: 42 velocity: 0
99120 
Channel: 9 Note ON:  F#2 key: 42 velocity: 127
99121 
Channel: 9 Note ON:  F#2 key: 42 velocity: 0
99240 
Channel: 9 Note ON:  F#2 key: 42 velocity: 127
99241 
Channel: 9 Note ON:  F#2 key: 42 velocity: 0
99360 
Channel: 9 Note ON:  F#2 key: 42 velocity: 127
99361 
Channel: 9 Note ON:  F#2 key: 42 velocity: 0
99480 
Channel: 9 Note ON:  F#2 key: 42 velocity: 127
99485 
Channel: 9 Note ON:  F#2 key: 42 velocity: 0
99600 
Channel: 9 Note ON:  F#2 key: 42 velocity: 127
99604 
Channel: 9 Note ON:  F#2 key: 42 velocity: 0
99720 
Channel: 9 Note ON:  F#2 key: 42 velocity: 127
99722 
Channel: 9 Note ON:  F#2 key: 42 velocity: 0
99840 
Channel: 9 Note ON:  F#2 key: 42 velocity: 127
99842 
Channel: 9 Note ON:  F#2 key: 42 velocity: 0
99960 
Channel: 9 Note ON:  F#2 key: 42 velocity: 127
99961 
Channel: 9 Note ON:  F#2 key: 42 velocity: 0
100080 
Channel: 9 Note ON:  F#2 key: 42 velocity: 127
100087 
Channel: 9 Note ON:  F#2 key: 42 velocity: 0
100200 
Channel: 9 Note ON:  F#2 key: 42 velocity: 127
100202 
Channel: 9 Note ON:  F#2 key: 42 velocity: 0
100320 
Channel: 9 Note ON:  F#2 key: 42 velocity: 127
100322 
Channel: 9 Note ON:  F#2 key: 42 velocity: 0
100440 
Channel: 9 Note ON:  F#2 key: 42 velocity: 127
100445 
Channel: 9 Note ON:  F#2 key: 42 velocity: 0
100560 
Channel: 9 Note ON:  F#2 key: 42 velocity: 127
100562 
Channel: 9 Note ON:  F#2 key: 42 velocity: 0
100680 
Channel: 9 Note ON:  F#2 key: 42 velocity: 127
100685 
Channel: 9 Note ON:  F#2 key: 42 velocity: 0
100800 
Channel: 9 Note ON:  A#2 key: 46 velocity: 127
100801 
Channel: 9 Note ON:  A#2 key: 46 velocity: 0
100920 
Channel: 9 Note ON:  F#2 key: 42 velocity: 127
100922 
Channel: 9 Note ON:  F#2 key: 42 velocity: 0
101040 
Channel: 9 Note ON:  F#2 key: 42 velocity: 127
101042 
Channel: 9 Note ON:  F#2 key: 42 velocity: 0
101160 
Channel: 9 Note ON:  F#2 key: 42 velocity: 127
101162 
Channel: 9 Note ON:  F#2 key: 42 velocity: 0
101280 
Channel: 9 Note ON:  F#2 key: 42 velocity: 127
101281 
Channel: 9 Note ON:  F#2 key: 42 velocity: 0
101400 
Channel: 9 Note ON:  F#2 key: 42 velocity: 127
101405 
Channel: 9 Note ON:  F#2 key: 42 velocity: 0
101520 
Channel: 9 Note ON:  F#2 key: 42 velocity: 127
101524 
Channel: 9 Note ON:  F#2 key: 42 velocity: 0
101640 
Channel: 9 Note ON:  F#2 key: 42 velocity: 127
101641 
Channel: 9 Note ON:  F#2 key: 42 velocity: 0
101760 
Channel: 9 Note ON:  F#2 key: 42 velocity: 127
101761 
Channel: 9 Note ON:  F#2 key: 42 velocity: 0
101880 
Channel: 9 Note ON:  F#2 key: 42 velocity: 127
101881 
Channel: 9 Note ON:  F#2 key: 42 velocity: 0
102000 
Channel: 9 Note ON:  F#2 key: 42 velocity: 127
102008 
Channel: 9 Note ON:  F#2 key: 42 velocity: 0
102120 
Channel: 9 Note ON:  F#2 key: 42 velocity: 127
102121 
Channel: 9 Note ON:  F#2 key: 42 velocity: 0
102240 
Channel: 9 Note ON:  F#2 key: 42 velocity: 127
102242 
Channel: 9 Note ON:  F#2 key: 42 velocity: 0
102360 
Channel: 9 Note ON:  F#2 key: 42 velocity: 127
102365 
Channel: 9 Note ON:  F#2 key: 42 velocity: 0
102480 
Channel: 9 Note ON:  F#2 key: 42 velocity: 127
102482 
Channel: 9 Note ON:  F#2 key: 42 velocity: 0
102600 
Channel: 9 Note ON:  F#2 key: 42 velocity: 127
102605 
Channel: 9 Note ON:  F#2 key: 42 velocity: 0
102720 
Channel: 9 Note ON:  A#2 key: 46 velocity: 127
102722 
Channel: 9 Note ON:  A#2 key: 46 velocity: 0
102840 
Channel: 9 Note ON:  F#2 key: 42 velocity: 127
102843 
Channel: 9 Note ON:  F#2 key: 42 velocity: 0
102960 
Channel: 9 Note ON:  F#2 key: 42 velocity: 127
102961 
Channel: 9 Note ON:  F#2 key: 42 velocity: 0
103080 
Channel: 9 Note ON:  F#2 key: 42 velocity: 127
103082 
Channel: 9 Note ON:  F#2 key: 42 velocity: 0
103200 
Channel: 9 Note ON:  F#2 key: 42 velocity: 127
103202 
Channel: 9 Note ON:  F#2 key: 42 velocity: 0
103320 
Channel: 9 Note ON:  F#2 key: 42 velocity: 127
103324 
Channel: 9 Note ON:  F#2 key: 42 velocity: 0
103440 
Channel: 9 Note ON:  F#2 key: 42 velocity: 127
103444 
Channel: 9 Note ON:  F#2 key: 42 velocity: 0
103560 
Channel: 9 Note ON:  F#2 key: 42 velocity: 127
103561 
Channel: 9 Note ON:  F#2 key: 42 velocity: 0
103680 
Channel: 9 Note ON:  F#2 key: 42 velocity: 127
103682 
Channel: 9 Note ON:  F#2 key: 42 velocity: 0
103800 
Channel: 9 Note ON:  F#2 key: 42 velocity: 127
103803 
Channel: 9 Note ON:  F#2 key: 42 velocity: 0
103920 
Channel: 9 Note ON:  F#2 key: 42 velocity: 127
103927 
Channel: 9 Note ON:  F#2 key: 42 velocity: 0
104040 
Channel: 9 Note ON:  F#2 key: 42 velocity: 127
104042 
Channel: 9 Note ON:  F#2 key: 42 velocity: 0
104160 
Channel: 9 Note ON:  F#2 key: 42 velocity: 127
104163 
Channel: 9 Note ON:  F#2 key: 42 velocity: 0
104280 
Channel: 9 Note ON:  F#2 key: 42 velocity: 127
104284 
Channel: 9 Note ON:  F#2 key: 42 velocity: 0
104400 
Channel: 9 Note ON:  F#2 key: 42 velocity: 127
104402 
Channel: 9 Note ON:  F#2 key: 42 velocity: 0
104520 
Channel: 9 Note ON:  F#2 key: 42 velocity: 127
104525 
Channel: 9 Note ON:  F#2 key: 42 velocity: 0
104640 
Channel: 9 Note ON:  A#2 key: 46 velocity: 127
104642 
Channel: 9 Note ON:  A#2 key: 46 velocity: 0
104760 
Channel: 9 Note ON:  F#2 key: 42 velocity: 127
104762 
Channel: 9 Note ON:  F#2 key: 42 velocity: 0
104880 
Channel: 9 Note ON:  F#2 key: 42 velocity: 127
104881 
Channel: 9 Note ON:  F#2 key: 42 velocity: 0
105000 
Channel: 9 Note ON:  F#2 key: 42 velocity: 127
105002 
Channel: 9 Note ON:  F#2 key: 42 velocity: 0
105120 
Channel: 9 Note ON:  F#2 key: 42 velocity: 127
105122 
Channel: 9 Note ON:  F#2 key: 42 velocity: 0
105240 
Channel: 9 Note ON:  F#2 key: 42 velocity: 127
105245 
Channel: 9 Note ON:  F#2 key: 42 velocity: 0
105360 
Channel: 9 Note ON:  F#2 key: 42 velocity: 127
105364 
Channel: 9 Note ON:  F#2 key: 42 velocity: 0
105480 
Channel: 9 Note ON:  F#2 key: 42 velocity: 127
105481 
Channel: 9 Note ON:  F#2 key: 42 velocity: 0
105600 
Channel: 9 Note ON:  F#2 key: 42 velocity: 127
105601 
Channel: 9 Note ON:  F#2 key: 42 velocity: 0
105720 
Channel: 9 Note ON:  F#2 key: 42 velocity: 127
105722 
Channel: 9 Note ON:  F#2 key: 42 velocity: 0
105840 
Channel: 9 Note ON:  F#2 key: 42 velocity: 127
105847 
Channel: 9 Note ON:  F#2 key: 42 velocity: 0
105960 
Channel: 9 Note ON:  F#2 key: 42 velocity: 127
105962 
Channel: 9 Note ON:  F#2 key: 42 velocity: 0
106080 
Channel: 9 Note ON:  F#2 key: 42 velocity: 127
106081 
Channel: 9 Note ON:  F#2 key: 42 velocity: 0
106200 
Channel: 9 Note ON:  F#2 key: 42 velocity: 127
106205 
Channel: 9 Note ON:  F#2 key: 42 velocity: 0
106320 
Channel: 9 Note ON:  F#2 key: 42 velocity: 127
106321 
Channel: 9 Note ON:  F#2 key: 42 velocity: 0
106440 
Channel: 9 Note ON:  F#2 key: 42 velocity: 127
106445 
Channel: 9 Note ON:  F#2 key: 42 velocity: 0
106560 
Channel: 9 Note ON:  A#2 key: 46 velocity: 127
106562 
Channel: 9 Note ON:  A#2 key: 46 velocity: 0
106680 
Channel: 9 Note ON:  F#2 key: 42 velocity: 127
106682 
Channel: 9 Note ON:  F#2 key: 42 velocity: 0
106800 
Channel: 9 Note ON:  F#2 key: 42 velocity: 127
106801 
Channel: 9 Note ON:  F#2 key: 42 velocity: 0
106920 
Channel: 9 Note ON:  F#2 key: 42 velocity: 127
106921 
Channel: 9 Note ON:  F#2 key: 42 velocity: 0
107040 
Channel: 9 Note ON:  F#2 key: 42 velocity: 127
107041 
Channel: 9 Note ON:  F#2 key: 42 velocity: 0
107160 
Channel: 9 Note ON:  F#2 key: 42 velocity: 127
107165 
Channel: 9 Note ON:  F#2 key: 42 velocity: 0
107280 
Channel: 9 Note ON:  F#2 key: 42 velocity: 127
107284 
Channel: 9 Note ON:  F#2 key: 42 velocity: 0
107400 
Channel: 9 Note ON:  F#2 key: 42 velocity: 127
107402 
Channel: 9 Note ON:  F#2 key: 42 velocity: 0
107520 
Channel: 9 Note ON:  F#2 key: 42 velocity: 127
107522 
Channel: 9 Note ON:  F#2 key: 42 velocity: 0
107640 
Channel: 9 Note ON:  F#2 key: 42 velocity: 127
107641 
Channel: 9 Note ON:  F#2 key: 42 velocity: 0
107760 
Channel: 9 Note ON:  F#2 key: 42 velocity: 127
107767 
Channel: 9 Note ON:  F#2 key: 42 velocity: 0
107880 
Channel: 9 Note ON:  F#2 key: 42 velocity: 127
107882 
Channel: 9 Note ON:  F#2 key: 42 velocity: 0
108000 
Channel: 9 Note ON:  F#2 key: 42 velocity: 127
108002 
Channel: 9 Note ON:  F#2 key: 42 velocity: 0
108120 
Channel: 9 Note ON:  F#2 key: 42 velocity: 127
108125 
Channel: 9 Note ON:  F#2 key: 42 velocity: 0
108240 
Channel: 9 Note ON:  F#2 key: 42 velocity: 127
108242 
Channel: 9 Note ON:  F#2 key: 42 velocity: 0
108360 
Channel: 9 Note ON:  F#2 key: 42 velocity: 127
108365 
Channel: 9 Note ON:  F#2 key: 42 velocity: 0
108480 
Channel: 9 Note ON:  A#2 key: 46 velocity: 127
108481 
Channel: 9 Note ON:  A#2 key: 46 velocity: 0
108600 
Channel: 9 Note ON:  F#2 key: 42 velocity: 127
108602 
Channel: 9 Note ON:  F#2 key: 42 velocity: 0
108720 
Channel: 9 Note ON:  F#2 key: 42 velocity: 127
108722 
Channel: 9 Note ON:  F#2 key: 42 velocity: 0
108840 
Channel: 9 Note ON:  F#2 key: 42 velocity: 127
108842 
Channel: 9 Note ON:  F#2 key: 42 velocity: 0
108960 
Channel: 9 Note ON:  F#2 key: 42 velocity: 127
108961 
Channel: 9 Note ON:  F#2 key: 42 velocity: 0
109080 
Channel: 9 Note ON:  F#2 key: 42 velocity: 127
109085 
Channel: 9 Note ON:  F#2 key: 42 velocity: 0
109200 
Channel: 9 Note ON:  F#2 key: 42 velocity: 127
109204 
Channel: 9 Note ON:  F#2 key: 42 velocity: 0
109320 
Channel: 9 Note ON:  F#2 key: 42 velocity: 127
109321 
Channel: 9 Note ON:  F#2 key: 42 velocity: 0
109440 
Channel: 9 Note ON:  F#2 key: 42 velocity: 127
109441 
Channel: 9 Note ON:  F#2 key: 42 velocity: 0
109560 
Channel: 9 Note ON:  F#2 key: 42 velocity: 127
109561 
Channel: 9 Note ON:  F#2 key: 42 velocity: 0
109680 
Channel: 9 Note ON:  F#2 key: 42 velocity: 127
109688 
Channel: 9 Note ON:  F#2 key: 42 velocity: 0
109800 
Channel: 9 Note ON:  F#2 key: 42 velocity: 127
109801 
Channel: 9 Note ON:  F#2 key: 42 velocity: 0
109920 
Channel: 9 Note ON:  F#2 key: 42 velocity: 127
109922 
Channel: 9 Note ON:  F#2 key: 42 velocity: 0
110040 
Channel: 9 Note ON:  F#2 key: 42 velocity: 127
110045 
Channel: 9 Note ON:  F#2 key: 42 velocity: 0
110160 
Channel: 9 Note ON:  F#2 key: 42 velocity: 127
110162 
Channel: 9 Note ON:  F#2 key: 42 velocity: 0
110280 
Channel: 9 Note ON:  F#2 key: 42 velocity: 127
110285 
Channel: 9 Note ON:  F#2 key: 42 velocity: 0
110400 
Channel: 9 Note ON:  A#2 key: 46 velocity: 127
110402 
Channel: 9 Note ON:  A#2 key: 46 velocity: 0
110520 
Channel: 9 Note ON:  F#2 key: 42 velocity: 127
110523 
Channel: 9 Note ON:  F#2 key: 42 velocity: 0
110640 
Channel: 9 Note ON:  F#2 key: 42 velocity: 127
110641 
Channel: 9 Note ON:  F#2 key: 42 velocity: 0
110760 
Channel: 9 Note ON:  F#2 key: 42 velocity: 127
110762 
Channel: 9 Note ON:  F#2 key: 42 velocity: 0
110880 
Channel: 9 Note ON:  F#2 key: 42 velocity: 127
110882 
Channel: 9 Note ON:  F#2 key: 42 velocity: 0
111000 
Channel: 9 Note ON:  F#2 key: 42 velocity: 127
111004 
Channel: 9 Note ON:  F#2 key: 42 velocity: 0
111120 
Channel: 9 Note ON:  F#2 key: 42 velocity: 127
111124 
Channel: 9 Note ON:  F#2 key: 42 velocity: 0
111240 
Channel: 9 Note ON:  F#2 key: 42 velocity: 127
111241 
Channel: 9 Note ON:  F#2 key: 42 velocity: 0
111360 
Channel: 9 Note ON:  F#2 key: 42 velocity: 127
111362 
Channel: 9 Note ON:  F#2 key: 42 velocity: 0
111480 
Channel: 9 Note ON:  F#2 key: 42 velocity: 127
111483 
Channel: 9 Note ON:  F#2 key: 42 velocity: 0
111600 
Channel: 9 Note ON:  F#2 key: 42 velocity: 127
111607 
Channel: 9 Note ON:  F#2 key: 42 velocity: 0
111720 
Channel: 9 Note ON:  F#2 key: 42 velocity: 127
111722 
Channel: 9 Note ON:  F#2 key: 42 velocity: 0
111840 
Channel: 9 Note ON:  F#2 key: 42 velocity: 127
111843 
Channel: 9 Note ON:  F#2 key: 42 velocity: 0
111960 
Channel: 9 Note ON:  F#2 key: 42 velocity: 127
111964 
Channel: 9 Note ON:  F#2 key: 42 velocity: 0
112080 
Channel: 9 Note ON:  F#2 key: 42 velocity: 127
112082 
Channel: 9 Note ON:  F#2 key: 42 velocity: 0
112200 
Channel: 9 Note ON:  F#2 key: 42 velocity: 127
112205 
Channel: 9 Note ON:  F#2 key: 42 velocity: 0
112320 
Channel: 9 Note ON:  A#2 key: 46 velocity: 127
112322 
Channel: 9 Note ON:  A#2 key: 46 velocity: 0
112440 
Channel: 9 Note ON:  F#2 key: 42 velocity: 127
112442 
Channel: 9 Note ON:  F#2 key: 42 velocity: 0
112560 
Channel: 9 Note ON:  F#2 key: 42 velocity: 127
112561 
Channel: 9 Note ON:  F#2 key: 42 velocity: 0
112680 
Channel: 9 Note ON:  F#2 key: 42 velocity: 127
112682 
Channel: 9 Note ON:  F#2 key: 42 velocity: 0
112800 
Channel: 9 Note ON:  F#2 key: 42 velocity: 127
112802 
Channel: 9 Note ON:  F#2 key: 42 velocity: 0
112920 
Channel: 9 Note ON:  F#2 key: 42 velocity: 127
112925 
Channel: 9 Note ON:  F#2 key: 42 velocity: 0
113040 
Channel: 9 Note ON:  F#2 key: 42 velocity: 127
113044 
Channel: 9 Note ON:  F#2 key: 42 velocity: 0
113160 
Channel: 9 Note ON:  F#2 key: 42 velocity: 127
113161 
Channel: 9 Note ON:  F#2 key: 42 velocity: 0
113280 
Channel: 9 Note ON:  F#2 key: 42 velocity: 127
113281 
Channel: 9 Note ON:  F#2 key: 42 velocity: 0
113400 
Channel: 9 Note ON:  F#2 key: 42 velocity: 127
113402 
Channel: 9 Note ON:  F#2 key: 42 velocity: 0
113520 
Channel: 9 Note ON:  F#2 key: 42 velocity: 127
113527 
Channel: 9 Note ON:  F#2 key: 42 velocity: 0
113640 
Channel: 9 Note ON:  F#2 key: 42 velocity: 127
113642 
Channel: 9 Note ON:  F#2 key: 42 velocity: 0
113760 
Channel: 9 Note ON:  F#2 key: 42 velocity: 127
113761 
Channel: 9 Note ON:  F#2 key: 42 velocity: 0
113880 
Channel: 9 Note ON:  F#2 key: 42 velocity: 127
113885 
Channel: 9 Note ON:  F#2 key: 42 velocity: 0
114000 
Channel: 9 Note ON:  F#2 key: 42 velocity: 127
114001 
Channel: 9 Note ON:  F#2 key: 42 velocity: 0
114120 
Channel: 9 Note ON:  F#2 key: 42 velocity: 127
114125 
Channel: 9 Note ON:  F#2 key: 42 velocity: 0
114240 
Channel: 9 Note ON:  A#2 key: 46 velocity: 127
114242 
Channel: 9 Note ON:  A#2 key: 46 velocity: 0
114360 
Channel: 9 Note ON:  F#2 key: 42 velocity: 127
114362 
Channel: 9 Note ON:  F#2 key: 42 velocity: 0
114480 
Channel: 9 Note ON:  F#2 key: 42 velocity: 127
114481 
Channel: 9 Note ON:  F#2 key: 42 velocity: 0
114600 
Channel: 9 Note ON:  F#2 key: 42 velocity: 127
114601 
Channel: 9 Note ON:  F#2 key: 42 velocity: 0
114720 
Channel: 9 Note ON:  F#2 key: 42 velocity: 127
114721 
Channel: 9 Note ON:  F#2 key: 42 velocity: 0
114840 
Channel: 9 Note ON:  F#2 key: 42 velocity: 127
114845 
Channel: 9 Note ON:  F#2 key: 42 velocity: 0
114960 
Channel: 9 Note ON:  F#2 key: 42 velocity: 127
114964 
Channel: 9 Note ON:  F#2 key: 42 velocity: 0
115080 
Channel: 9 Note ON:  F#2 key: 42 velocity: 127
115082 
Channel: 9 Note ON:  F#2 key: 42 velocity: 0
115200 
Channel: 9 Note ON:  F#2 key: 42 velocity: 127
115202 
Channel: 9 Note ON:  F#2 key: 42 velocity: 0
115320 
Channel: 9 Note ON:  F#2 key: 42 velocity: 127
115321 
Channel: 9 Note ON:  F#2 key: 42 velocity: 0
115440 
Channel: 9 Note ON:  F#2 key: 42 velocity: 127
115447 
Channel: 9 Note ON:  F#2 key: 42 velocity: 0
115560 
Channel: 9 Note ON:  F#2 key: 42 velocity: 127
115562 
Channel: 9 Note ON:  F#2 key: 42 velocity: 0
115680 
Channel: 9 Note ON:  F#2 key: 42 velocity: 127
115682 
Channel: 9 Note ON:  F#2 key: 42 velocity: 0
115800 
Channel: 9 Note ON:  F#2 key: 42 velocity: 127
115805 
Channel: 9 Note ON:  F#2 key: 42 velocity: 0
115920 
Channel: 9 Note ON:  F#2 key: 42 velocity: 127
115922 
Channel: 9 Note ON:  F#2 key: 42 velocity: 0
116040 
Channel: 9 Note ON:  F#2 key: 42 velocity: 127
116045 
Channel: 9 Note ON:  F#2 key: 42 velocity: 0
116160 
Channel: 9 Note ON:  A#2 key: 46 velocity: 127
116161 
Channel: 9 Note ON:  A#2 key: 46 velocity: 0
116280 
Channel: 9 Note ON:  F#2 key: 42 velocity: 127
116282 
Channel: 9 Note ON:  F#2 key: 42 velocity: 0
116400 
Channel: 9 Note ON:  F#2 key: 42 velocity: 127
116402 
Channel: 9 Note ON:  F#2 key: 42 velocity: 0
116520 
Channel: 9 Note ON:  F#2 key: 42 velocity: 127
116522 
Channel: 9 Note ON:  F#2 key: 42 velocity: 0
116640 
Channel: 9 Note ON:  F#2 key: 42 velocity: 127
116641 
Channel: 9 Note ON:  F#2 key: 42 velocity: 0
116760 
Channel: 9 Note ON:  F#2 key: 42 velocity: 127
116765 
Channel: 9 Note ON:  F#2 key: 42 velocity: 0
116880 
Channel: 9 Note ON:  F#2 key: 42 velocity: 127
116884 
Channel: 9 Note ON:  F#2 key: 42 velocity: 0
117000 
Channel: 9 Note ON:  F#2 key: 42 velocity: 127
117001 
Channel: 9 Note ON:  F#2 key: 42 velocity: 0
117120 
Channel: 9 Note ON:  F#2 key: 42 velocity: 127
117121 
Channel: 9 Note ON:  F#2 key: 42 velocity: 0
117240 
Channel: 9 Note ON:  F#2 key: 42 velocity: 127
117241 
Channel: 9 Note ON:  F#2 key: 42 velocity: 0
117360 
Channel: 9 Note ON:  F#2 key: 42 velocity: 127
117368 
Channel: 9 Note ON:  F#2 key: 42 velocity: 0
117480 
Channel: 9 Note ON:  F#2 key: 42 velocity: 127
117481 
Channel: 9 Note ON:  F#2 key: 42 velocity: 0
117600 
Channel: 9 Note ON:  F#2 key: 42 velocity: 127
117602 
Channel: 9 Note ON:  F#2 key: 42 velocity: 0
117720 
Channel: 9 Note ON:  F#2 key: 42 velocity: 127
117725 
Channel: 9 Note ON:  F#2 key: 42 velocity: 0
117840 
Channel: 9 Note ON:  F#2 key: 42 velocity: 127
117842 
Channel: 9 Note ON:  F#2 key: 42 velocity: 0
117960 
Channel: 9 Note ON:  F#2 key: 42 velocity: 127
117965 
Channel: 9 Note ON:  F#2 key: 42 velocity: 0
118080 
Channel: 9 Note ON:  A#2 key: 46 velocity: 127
118082 
Channel: 9 Note ON:  A#2 key: 46 velocity: 0
118200 
Channel: 9 Note ON:  F#2 key: 42 velocity: 127
118203 
Channel: 9 Note ON:  F#2 key: 42 velocity: 0
118320 
Channel: 9 Note ON:  F#2 key: 42 velocity: 127
118321 
Channel: 9 Note ON:  F#2 key: 42 velocity: 0
118440 
Channel: 9 Note ON:  F#2 key: 42 velocity: 127
118442 
Channel: 9 Note ON:  F#2 key: 42 velocity: 0
118560 
Channel: 9 Note ON:  F#2 key: 42 velocity: 127
118562 
Channel: 9 Note ON:  F#2 key: 42 velocity: 0
118680 
Channel: 9 Note ON:  F#2 key: 42 velocity: 127
118684 
Channel: 9 Note ON:  F#2 key: 42 velocity: 0
118800 
Channel: 9 Note ON:  F#2 key: 42 velocity: 127
118804 
Channel: 9 Note ON:  F#2 key: 42 velocity: 0
118920 
Channel: 9 Note ON:  F#2 key: 42 velocity: 127
118921 
Channel: 9 Note ON:  F#2 key: 42 velocity: 0
119040 
Channel: 9 Note ON:  F#2 key: 42 velocity: 127
119042 
Channel: 9 Note ON:  F#2 key: 42 velocity: 0
119160 
Channel: 9 Note ON:  F#2 key: 42 velocity: 127
119163 
Channel: 9 Note ON:  F#2 key: 42 velocity: 0
119280 
Channel: 9 Note ON:  F#2 key: 42 velocity: 127
119287 
Channel: 9 Note ON:  F#2 key: 42 velocity: 0
119400 
Channel: 9 Note ON:  F#2 key: 42 velocity: 127
119402 
Channel: 9 Note ON:  F#2 key: 42 velocity: 0
119520 
Channel: 9 Note ON:  F#2 key: 42 velocity: 127
119523 
Channel: 9 Note ON:  F#2 key: 42 velocity: 0
119640 
Channel: 9 Note ON:  F#2 key: 42 velocity: 127
119644 
Channel: 9 Note ON:  F#2 key: 42 velocity: 0
119760 
Channel: 9 Note ON:  F#2 key: 42 velocity: 127
119762 
Channel: 9 Note ON:  F#2 key: 42 velocity: 0
119880 
Channel: 9 Note ON:  F#2 key: 42 velocity: 127
119885 
Channel: 9 Note ON:  F#2 key: 42 velocity: 0
119885 
WTF is that class javax.sound.midi.Track$ImmutableEndOfTrack


Changing to track 13


0 
WTF is that class javax.sound.midi.MetaMessage
0 
WTF is that class javax.sound.midi.MetaMessage
0 
0 
31440 
Channel: 9 Note ON:  E3 key: 52 velocity: 127
31510 
Channel: 9 Note ON:  E3 key: 52 velocity: 0
31560 
Channel: 9 Note ON:  E3 key: 52 velocity: 127
31630 
Channel: 9 Note ON:  E3 key: 52 velocity: 0
53160 
Channel: 9 Note ON:  C#3 key: 49 velocity: 127
53250 
Channel: 9 Note ON:  C#3 key: 49 velocity: 0
54000 
Channel: 9 Note ON:  C#3 key: 49 velocity: 127
54049 
Channel: 9 Note ON:  C#3 key: 49 velocity: 0
73920 
Channel: 9 Note ON:  C#3 key: 49 velocity: 45
73967 
Channel: 9 Note ON:  C#3 key: 49 velocity: 0
87720 
Channel: 9 Note ON:  C#3 key: 49 velocity: 127
87810 
Channel: 9 Note ON:  C#3 key: 49 velocity: 0
88560 
Channel: 9 Note ON:  C#3 key: 49 velocity: 127
88609 
Channel: 9 Note ON:  C#3 key: 49 velocity: 0
120000 
Channel: 9 Note ON:  C#3 key: 49 velocity: 45
120049 
Channel: 9 Note ON:  C#3 key: 49 velocity: 0
120049 
WTF is that class javax.sound.midi.Track$ImmutableEndOfTrack


Changing to track 14


0 
WTF is that class javax.sound.midi.MetaMessage
0 
WTF is that class javax.sound.midi.MetaMessage
0 
0 
39960 
Channel: 9 Note ON:  F3 key: 53 velocity: 127
39960 
Channel: 9 Note ON:  F3 key: 53 velocity: 127
39962 
Channel: 9 Note ON:  F3 key: 53 velocity: 0
39963 
Channel: 9 Note ON:  F3 key: 53 velocity: 0
41880 
Channel: 9 Note ON:  F3 key: 53 velocity: 127
41880 
Channel: 9 Note ON:  F3 key: 53 velocity: 127
41883 
Channel: 9 Note ON:  F3 key: 53 velocity: 0
41884 
Channel: 9 Note ON:  F3 key: 53 velocity: 0
43800 
Channel: 9 Note ON:  F3 key: 53 velocity: 127
43800 
Channel: 9 Note ON:  F3 key: 53 velocity: 127
43804 
Channel: 9 Note ON:  F3 key: 53 velocity: 0
43804 
Channel: 9 Note ON:  F3 key: 53 velocity: 0
45720 
Channel: 9 Note ON:  F3 key: 53 velocity: 127
45720 
Channel: 9 Note ON:  F3 key: 53 velocity: 127
45724 
Channel: 9 Note ON:  F3 key: 53 velocity: 0
45724 
Channel: 9 Note ON:  F3 key: 53 velocity: 0
47640 
Channel: 9 Note ON:  F3 key: 53 velocity: 127
47640 
Channel: 9 Note ON:  F3 key: 53 velocity: 127
47642 
Channel: 9 Note ON:  F3 key: 53 velocity: 0
47643 
Channel: 9 Note ON:  F3 key: 53 velocity: 0
49560 
Channel: 9 Note ON:  F3 key: 53 velocity: 127
49560 
Channel: 9 Note ON:  F3 key: 53 velocity: 127
49563 
Channel: 9 Note ON:  F3 key: 53 velocity: 0
49564 
Channel: 9 Note ON:  F3 key: 53 velocity: 0
51480 
Channel: 9 Note ON:  F3 key: 53 velocity: 127
51480 
Channel: 9 Note ON:  F3 key: 53 velocity: 127
51484 
Channel: 9 Note ON:  F3 key: 53 velocity: 0
51484 
Channel: 9 Note ON:  F3 key: 53 velocity: 0
55320 
Channel: 9 Note ON:  F3 key: 53 velocity: 127
55320 
Channel: 9 Note ON:  F3 key: 53 velocity: 127
55324 
Channel: 9 Note ON:  F3 key: 53 velocity: 0
55324 
Channel: 9 Note ON:  F3 key: 53 velocity: 0
57240 
Channel: 9 Note ON:  F3 key: 53 velocity: 127
57240 
Channel: 9 Note ON:  F3 key: 53 velocity: 127
57242 
Channel: 9 Note ON:  F3 key: 53 velocity: 0
57243 
Channel: 9 Note ON:  F3 key: 53 velocity: 0
59160 
Channel: 9 Note ON:  F3 key: 53 velocity: 127
59160 
Channel: 9 Note ON:  F3 key: 53 velocity: 127
59164 
Channel: 9 Note ON:  F3 key: 53 velocity: 0
59164 
Channel: 9 Note ON:  F3 key: 53 velocity: 0
61080 
Channel: 9 Note ON:  F3 key: 53 velocity: 127
61080 
Channel: 9 Note ON:  F3 key: 53 velocity: 127
61082 
Channel: 9 Note ON:  F3 key: 53 velocity: 0
61083 
Channel: 9 Note ON:  F3 key: 53 velocity: 0
63000 
Channel: 9 Note ON:  F3 key: 53 velocity: 127
63000 
Channel: 9 Note ON:  F3 key: 53 velocity: 127
63003 
Channel: 9 Note ON:  F3 key: 53 velocity: 0
63004 
Channel: 9 Note ON:  F3 key: 53 velocity: 0
64920 
Channel: 9 Note ON:  F3 key: 53 velocity: 127
64920 
Channel: 9 Note ON:  F3 key: 53 velocity: 127
64924 
Channel: 9 Note ON:  F3 key: 53 velocity: 0
64924 
Channel: 9 Note ON:  F3 key: 53 velocity: 0
66840 
Channel: 9 Note ON:  F3 key: 53 velocity: 127
66840 
Channel: 9 Note ON:  F3 key: 53 velocity: 127
66844 
Channel: 9 Note ON:  F3 key: 53 velocity: 0
66844 
Channel: 9 Note ON:  F3 key: 53 velocity: 0
68760 
Channel: 9 Note ON:  F3 key: 53 velocity: 127
68760 
Channel: 9 Note ON:  F3 key: 53 velocity: 127
68762 
Channel: 9 Note ON:  F3 key: 53 velocity: 0
68763 
Channel: 9 Note ON:  F3 key: 53 velocity: 0
70680 
Channel: 9 Note ON:  F3 key: 53 velocity: 127
70680 
Channel: 9 Note ON:  F3 key: 53 velocity: 127
70683 
Channel: 9 Note ON:  F3 key: 53 velocity: 0
70684 
Channel: 9 Note ON:  F3 key: 53 velocity: 0
72600 
Channel: 9 Note ON:  F3 key: 53 velocity: 127
72600 
Channel: 9 Note ON:  F3 key: 53 velocity: 127
72604 
Channel: 9 Note ON:  F3 key: 53 velocity: 0
72604 
Channel: 9 Note ON:  F3 key: 53 velocity: 0
74520 
Channel: 9 Note ON:  F3 key: 53 velocity: 127
74520 
Channel: 9 Note ON:  F3 key: 53 velocity: 127
74522 
Channel: 9 Note ON:  F3 key: 53 velocity: 0
74523 
Channel: 9 Note ON:  F3 key: 53 velocity: 0
76440 
Channel: 9 Note ON:  F3 key: 53 velocity: 127
76440 
Channel: 9 Note ON:  F3 key: 53 velocity: 127
76443 
Channel: 9 Note ON:  F3 key: 53 velocity: 0
76444 
Channel: 9 Note ON:  F3 key: 53 velocity: 0
78360 
Channel: 9 Note ON:  F3 key: 53 velocity: 127
78360 
Channel: 9 Note ON:  F3 key: 53 velocity: 127
78364 
Channel: 9 Note ON:  F3 key: 53 velocity: 0
78364 
Channel: 9 Note ON:  F3 key: 53 velocity: 0
80280 
Channel: 9 Note ON:  F3 key: 53 velocity: 127
80280 
Channel: 9 Note ON:  F3 key: 53 velocity: 127
80284 
Channel: 9 Note ON:  F3 key: 53 velocity: 0
80284 
Channel: 9 Note ON:  F3 key: 53 velocity: 0
82200 
Channel: 9 Note ON:  F3 key: 53 velocity: 127
82200 
Channel: 9 Note ON:  F3 key: 53 velocity: 127
82202 
Channel: 9 Note ON:  F3 key: 53 velocity: 0
82203 
Channel: 9 Note ON:  F3 key: 53 velocity: 0
84120 
Channel: 9 Note ON:  F3 key: 53 velocity: 127
84120 
Channel: 9 Note ON:  F3 key: 53 velocity: 127
84123 
Channel: 9 Note ON:  F3 key: 53 velocity: 0
84124 
Channel: 9 Note ON:  F3 key: 53 velocity: 0
86040 
Channel: 9 Note ON:  F3 key: 53 velocity: 127
86040 
Channel: 9 Note ON:  F3 key: 53 velocity: 127
86044 
Channel: 9 Note ON:  F3 key: 53 velocity: 0
86044 
Channel: 9 Note ON:  F3 key: 53 velocity: 0
89880 
Channel: 9 Note ON:  F3 key: 53 velocity: 127
89880 
Channel: 9 Note ON:  F3 key: 53 velocity: 127
89884 
Channel: 9 Note ON:  F3 key: 53 velocity: 0
89884 
Channel: 9 Note ON:  F3 key: 53 velocity: 0
91800 
Channel: 9 Note ON:  F3 key: 53 velocity: 127
91800 
Channel: 9 Note ON:  F3 key: 53 velocity: 127
91802 
Channel: 9 Note ON:  F3 key: 53 velocity: 0
91803 
Channel: 9 Note ON:  F3 key: 53 velocity: 0
93720 
Channel: 9 Note ON:  F3 key: 53 velocity: 127
93720 
Channel: 9 Note ON:  F3 key: 53 velocity: 127
93723 
Channel: 9 Note ON:  F3 key: 53 velocity: 0
93724 
Channel: 9 Note ON:  F3 key: 53 velocity: 0
95640 
Channel: 9 Note ON:  F3 key: 53 velocity: 127
95640 
Channel: 9 Note ON:  F3 key: 53 velocity: 127
95644 
Channel: 9 Note ON:  F3 key: 53 velocity: 0
95644 
Channel: 9 Note ON:  F3 key: 53 velocity: 0
97560 
Channel: 9 Note ON:  F3 key: 53 velocity: 127
97560 
Channel: 9 Note ON:  F3 key: 53 velocity: 127
97564 
Channel: 9 Note ON:  F3 key: 53 velocity: 0
97564 
Channel: 9 Note ON:  F3 key: 53 velocity: 0
99480 
Channel: 9 Note ON:  F3 key: 53 velocity: 127
99480 
Channel: 9 Note ON:  F3 key: 53 velocity: 127
99482 
Channel: 9 Note ON:  F3 key: 53 velocity: 0
99483 
Channel: 9 Note ON:  F3 key: 53 velocity: 0
101400 
Channel: 9 Note ON:  F3 key: 53 velocity: 127
101400 
Channel: 9 Note ON:  F3 key: 53 velocity: 127
101403 
Channel: 9 Note ON:  F3 key: 53 velocity: 0
101404 
Channel: 9 Note ON:  F3 key: 53 velocity: 0
103320 
Channel: 9 Note ON:  F3 key: 53 velocity: 127
103320 
Channel: 9 Note ON:  F3 key: 53 velocity: 127
103324 
Channel: 9 Note ON:  F3 key: 53 velocity: 0
103324 
Channel: 9 Note ON:  F3 key: 53 velocity: 0
105240 
Channel: 9 Note ON:  F3 key: 53 velocity: 127
105240 
Channel: 9 Note ON:  F3 key: 53 velocity: 127
105244 
Channel: 9 Note ON:  F3 key: 53 velocity: 0
105244 
Channel: 9 Note ON:  F3 key: 53 velocity: 0
107160 
Channel: 9 Note ON:  F3 key: 53 velocity: 127
107160 
Channel: 9 Note ON:  F3 key: 53 velocity: 127
107162 
Channel: 9 Note ON:  F3 key: 53 velocity: 0
107163 
Channel: 9 Note ON:  F3 key: 53 velocity: 0
109080 
Channel: 9 Note ON:  F3 key: 53 velocity: 127
109080 
Channel: 9 Note ON:  F3 key: 53 velocity: 127
109083 
Channel: 9 Note ON:  F3 key: 53 velocity: 0
109084 
Channel: 9 Note ON:  F3 key: 53 velocity: 0
111000 
Channel: 9 Note ON:  F3 key: 53 velocity: 127
111000 
Channel: 9 Note ON:  F3 key: 53 velocity: 127
111004 
Channel: 9 Note ON:  F3 key: 53 velocity: 0
111004 
Channel: 9 Note ON:  F3 key: 53 velocity: 0
112920 
Channel: 9 Note ON:  F3 key: 53 velocity: 127
112920 
Channel: 9 Note ON:  F3 key: 53 velocity: 127
112924 
Channel: 9 Note ON:  F3 key: 53 velocity: 0
112924 
Channel: 9 Note ON:  F3 key: 53 velocity: 0
114840 
Channel: 9 Note ON:  F3 key: 53 velocity: 127
114840 
Channel: 9 Note ON:  F3 key: 53 velocity: 127
114842 
Channel: 9 Note ON:  F3 key: 53 velocity: 0
114843 
Channel: 9 Note ON:  F3 key: 53 velocity: 0
116760 
Channel: 9 Note ON:  F3 key: 53 velocity: 127
116760 
Channel: 9 Note ON:  F3 key: 53 velocity: 127
116763 
Channel: 9 Note ON:  F3 key: 53 velocity: 0
116764 
Channel: 9 Note ON:  F3 key: 53 velocity: 0
118680 
Channel: 9 Note ON:  F3 key: 53 velocity: 127
118680 
Channel: 9 Note ON:  F3 key: 53 velocity: 127
118684 
Channel: 9 Note ON:  F3 key: 53 velocity: 0
118684 
Channel: 9 Note ON:  F3 key: 53 velocity: 0
118684 
WTF is that class javax.sound.midi.Track$ImmutableEndOfTrack


Changing to track 15


0 
WTF is that class javax.sound.midi.MetaMessage
0 
WTF is that class javax.sound.midi.MetaMessage
0 
0 
40560 
Channel: 9 Note ON:  F#3 key: 54 velocity: 127
40560 
Channel: 9 Note ON:  F#3 key: 54 velocity: 127
40560 
Channel: 9 Note ON:  F#3 key: 54 velocity: 127
40560 
Channel: 9 Note ON:  F#3 key: 54 velocity: 127
40567 
Channel: 9 Note ON:  F#3 key: 54 velocity: 0
40570 
Channel: 9 Note ON:  F#3 key: 54 velocity: 0
40570 
Channel: 9 Note ON:  F#3 key: 54 velocity: 0
40571 
Channel: 9 Note ON:  F#3 key: 54 velocity: 0
42480 
Channel: 9 Note ON:  F#3 key: 54 velocity: 127
42480 
Channel: 9 Note ON:  F#3 key: 54 velocity: 127
42480 
Channel: 9 Note ON:  F#3 key: 54 velocity: 127
42480 
Channel: 9 Note ON:  F#3 key: 54 velocity: 127
42488 
Channel: 9 Note ON:  F#3 key: 54 velocity: 0
42488 
Channel: 9 Note ON:  F#3 key: 54 velocity: 0
42488 
Channel: 9 Note ON:  F#3 key: 54 velocity: 0
42489 
Channel: 9 Note ON:  F#3 key: 54 velocity: 0
44400 
Channel: 9 Note ON:  F#3 key: 54 velocity: 127
44400 
Channel: 9 Note ON:  F#3 key: 54 velocity: 127
44400 
Channel: 9 Note ON:  F#3 key: 54 velocity: 127
44400 
Channel: 9 Note ON:  F#3 key: 54 velocity: 127
44407 
Channel: 9 Note ON:  F#3 key: 54 velocity: 0
44408 
Channel: 9 Note ON:  F#3 key: 54 velocity: 0
44408 
Channel: 9 Note ON:  F#3 key: 54 velocity: 0
44409 
Channel: 9 Note ON:  F#3 key: 54 velocity: 0
46320 
Channel: 9 Note ON:  F#3 key: 54 velocity: 127
46320 
Channel: 9 Note ON:  F#3 key: 54 velocity: 127
46320 
Channel: 9 Note ON:  F#3 key: 54 velocity: 127
46320 
Channel: 9 Note ON:  F#3 key: 54 velocity: 127
46325 
Channel: 9 Note ON:  F#3 key: 54 velocity: 0
46326 
Channel: 9 Note ON:  F#3 key: 54 velocity: 0
46327 
Channel: 9 Note ON:  F#3 key: 54 velocity: 0
46328 
Channel: 9 Note ON:  F#3 key: 54 velocity: 0
48240 
Channel: 9 Note ON:  F#3 key: 54 velocity: 127
48240 
Channel: 9 Note ON:  F#3 key: 54 velocity: 127
48240 
Channel: 9 Note ON:  F#3 key: 54 velocity: 127
48240 
Channel: 9 Note ON:  F#3 key: 54 velocity: 127
48247 
Channel: 9 Note ON:  F#3 key: 54 velocity: 0
48250 
Channel: 9 Note ON:  F#3 key: 54 velocity: 0
48250 
Channel: 9 Note ON:  F#3 key: 54 velocity: 0
48251 
Channel: 9 Note ON:  F#3 key: 54 velocity: 0
50160 
Channel: 9 Note ON:  F#3 key: 54 velocity: 127
50160 
Channel: 9 Note ON:  F#3 key: 54 velocity: 127
50160 
Channel: 9 Note ON:  F#3 key: 54 velocity: 127
50160 
Channel: 9 Note ON:  F#3 key: 54 velocity: 127
50168 
Channel: 9 Note ON:  F#3 key: 54 velocity: 0
50168 
Channel: 9 Note ON:  F#3 key: 54 velocity: 0
50168 
Channel: 9 Note ON:  F#3 key: 54 velocity: 0
50169 
Channel: 9 Note ON:  F#3 key: 54 velocity: 0
52080 
Channel: 9 Note ON:  F#3 key: 54 velocity: 127
52080 
Channel: 9 Note ON:  F#3 key: 54 velocity: 127
52080 
Channel: 9 Note ON:  F#3 key: 54 velocity: 127
52080 
Channel: 9 Note ON:  F#3 key: 54 velocity: 127
52087 
Channel: 9 Note ON:  F#3 key: 54 velocity: 0
52088 
Channel: 9 Note ON:  F#3 key: 54 velocity: 0
52088 
Channel: 9 Note ON:  F#3 key: 54 velocity: 0
52089 
Channel: 9 Note ON:  F#3 key: 54 velocity: 0
55920 
Channel: 9 Note ON:  F#3 key: 54 velocity: 127
55920 
Channel: 9 Note ON:  F#3 key: 54 velocity: 127
55920 
Channel: 9 Note ON:  F#3 key: 54 velocity: 127
55920 
Channel: 9 Note ON:  F#3 key: 54 velocity: 127
55925 
Channel: 9 Note ON:  F#3 key: 54 velocity: 0
55926 
Channel: 9 Note ON:  F#3 key: 54 velocity: 0
55927 
Channel: 9 Note ON:  F#3 key: 54 velocity: 0
55928 
Channel: 9 Note ON:  F#3 key: 54 velocity: 0
57840 
Channel: 9 Note ON:  F#3 key: 54 velocity: 127
57840 
Channel: 9 Note ON:  F#3 key: 54 velocity: 127
57840 
Channel: 9 Note ON:  F#3 key: 54 velocity: 127
57840 
Channel: 9 Note ON:  F#3 key: 54 velocity: 127
57847 
Channel: 9 Note ON:  F#3 key: 54 velocity: 0
57850 
Channel: 9 Note ON:  F#3 key: 54 velocity: 0
57850 
Channel: 9 Note ON:  F#3 key: 54 velocity: 0
57851 
Channel: 9 Note ON:  F#3 key: 54 velocity: 0
59760 
Channel: 9 Note ON:  F#3 key: 54 velocity: 127
59760 
Channel: 9 Note ON:  F#3 key: 54 velocity: 127
59760 
Channel: 9 Note ON:  F#3 key: 54 velocity: 127
59760 
Channel: 9 Note ON:  F#3 key: 54 velocity: 127
59765 
Channel: 9 Note ON:  F#3 key: 54 velocity: 0
59766 
Channel: 9 Note ON:  F#3 key: 54 velocity: 0
59767 
Channel: 9 Note ON:  F#3 key: 54 velocity: 0
59768 
Channel: 9 Note ON:  F#3 key: 54 velocity: 0
61680 
Channel: 9 Note ON:  F#3 key: 54 velocity: 127
61680 
Channel: 9 Note ON:  F#3 key: 54 velocity: 127
61680 
Channel: 9 Note ON:  F#3 key: 54 velocity: 127
61680 
Channel: 9 Note ON:  F#3 key: 54 velocity: 127
61687 
Channel: 9 Note ON:  F#3 key: 54 velocity: 0
61690 
Channel: 9 Note ON:  F#3 key: 54 velocity: 0
61690 
Channel: 9 Note ON:  F#3 key: 54 velocity: 0
61691 
Channel: 9 Note ON:  F#3 key: 54 velocity: 0
63600 
Channel: 9 Note ON:  F#3 key: 54 velocity: 127
63600 
Channel: 9 Note ON:  F#3 key: 54 velocity: 127
63600 
Channel: 9 Note ON:  F#3 key: 54 velocity: 127
63600 
Channel: 9 Note ON:  F#3 key: 54 velocity: 127
63608 
Channel: 9 Note ON:  F#3 key: 54 velocity: 0
63608 
Channel: 9 Note ON:  F#3 key: 54 velocity: 0
63608 
Channel: 9 Note ON:  F#3 key: 54 velocity: 0
63609 
Channel: 9 Note ON:  F#3 key: 54 velocity: 0
65520 
Channel: 9 Note ON:  F#3 key: 54 velocity: 127
65520 
Channel: 9 Note ON:  F#3 key: 54 velocity: 127
65520 
Channel: 9 Note ON:  F#3 key: 54 velocity: 127
65520 
Channel: 9 Note ON:  F#3 key: 54 velocity: 127
65527 
Channel: 9 Note ON:  F#3 key: 54 velocity: 0
65528 
Channel: 9 Note ON:  F#3 key: 54 velocity: 0
65528 
Channel: 9 Note ON:  F#3 key: 54 velocity: 0
65529 
Channel: 9 Note ON:  F#3 key: 54 velocity: 0
67440 
Channel: 9 Note ON:  F#3 key: 54 velocity: 127
67440 
Channel: 9 Note ON:  F#3 key: 54 velocity: 127
67440 
Channel: 9 Note ON:  F#3 key: 54 velocity: 127
67440 
Channel: 9 Note ON:  F#3 key: 54 velocity: 127
67445 
Channel: 9 Note ON:  F#3 key: 54 velocity: 0
67446 
Channel: 9 Note ON:  F#3 key: 54 velocity: 0
67447 
Channel: 9 Note ON:  F#3 key: 54 velocity: 0
67448 
Channel: 9 Note ON:  F#3 key: 54 velocity: 0
69360 
Channel: 9 Note ON:  F#3 key: 54 velocity: 127
69360 
Channel: 9 Note ON:  F#3 key: 54 velocity: 127
69360 
Channel: 9 Note ON:  F#3 key: 54 velocity: 127
69360 
Channel: 9 Note ON:  F#3 key: 54 velocity: 127
69367 
Channel: 9 Note ON:  F#3 key: 54 velocity: 0
69370 
Channel: 9 Note ON:  F#3 key: 54 velocity: 0
69370 
Channel: 9 Note ON:  F#3 key: 54 velocity: 0
69371 
Channel: 9 Note ON:  F#3 key: 54 velocity: 0
71280 
Channel: 9 Note ON:  F#3 key: 54 velocity: 127
71280 
Channel: 9 Note ON:  F#3 key: 54 velocity: 127
71280 
Channel: 9 Note ON:  F#3 key: 54 velocity: 127
71280 
Channel: 9 Note ON:  F#3 key: 54 velocity: 127
71288 
Channel: 9 Note ON:  F#3 key: 54 velocity: 0
71288 
Channel: 9 Note ON:  F#3 key: 54 velocity: 0
71288 
Channel: 9 Note ON:  F#3 key: 54 velocity: 0
71289 
Channel: 9 Note ON:  F#3 key: 54 velocity: 0
73200 
Channel: 9 Note ON:  F#3 key: 54 velocity: 127
73200 
Channel: 9 Note ON:  F#3 key: 54 velocity: 127
73200 
Channel: 9 Note ON:  F#3 key: 54 velocity: 127
73200 
Channel: 9 Note ON:  F#3 key: 54 velocity: 127
73207 
Channel: 9 Note ON:  F#3 key: 54 velocity: 0
73208 
Channel: 9 Note ON:  F#3 key: 54 velocity: 0
73208 
Channel: 9 Note ON:  F#3 key: 54 velocity: 0
73209 
Channel: 9 Note ON:  F#3 key: 54 velocity: 0
75120 
Channel: 9 Note ON:  F#3 key: 54 velocity: 127
75120 
Channel: 9 Note ON:  F#3 key: 54 velocity: 127
75120 
Channel: 9 Note ON:  F#3 key: 54 velocity: 127
75120 
Channel: 9 Note ON:  F#3 key: 54 velocity: 127
75127 
Channel: 9 Note ON:  F#3 key: 54 velocity: 0
75130 
Channel: 9 Note ON:  F#3 key: 54 velocity: 0
75130 
Channel: 9 Note ON:  F#3 key: 54 velocity: 0
75131 
Channel: 9 Note ON:  F#3 key: 54 velocity: 0
77040 
Channel: 9 Note ON:  F#3 key: 54 velocity: 127
77040 
Channel: 9 Note ON:  F#3 key: 54 velocity: 127
77040 
Channel: 9 Note ON:  F#3 key: 54 velocity: 127
77040 
Channel: 9 Note ON:  F#3 key: 54 velocity: 127
77048 
Channel: 9 Note ON:  F#3 key: 54 velocity: 0
77048 
Channel: 9 Note ON:  F#3 key: 54 velocity: 0
77048 
Channel: 9 Note ON:  F#3 key: 54 velocity: 0
77049 
Channel: 9 Note ON:  F#3 key: 54 velocity: 0
78960 
Channel: 9 Note ON:  F#3 key: 54 velocity: 127
78960 
Channel: 9 Note ON:  F#3 key: 54 velocity: 127
78960 
Channel: 9 Note ON:  F#3 key: 54 velocity: 127
78960 
Channel: 9 Note ON:  F#3 key: 54 velocity: 127
78967 
Channel: 9 Note ON:  F#3 key: 54 velocity: 0
78968 
Channel: 9 Note ON:  F#3 key: 54 velocity: 0
78968 
Channel: 9 Note ON:  F#3 key: 54 velocity: 0
78969 
Channel: 9 Note ON:  F#3 key: 54 velocity: 0
80880 
Channel: 9 Note ON:  F#3 key: 54 velocity: 127
80880 
Channel: 9 Note ON:  F#3 key: 54 velocity: 127
80880 
Channel: 9 Note ON:  F#3 key: 54 velocity: 127
80880 
Channel: 9 Note ON:  F#3 key: 54 velocity: 127
80885 
Channel: 9 Note ON:  F#3 key: 54 velocity: 0
80886 
Channel: 9 Note ON:  F#3 key: 54 velocity: 0
80887 
Channel: 9 Note ON:  F#3 key: 54 velocity: 0
80888 
Channel: 9 Note ON:  F#3 key: 54 velocity: 0
82800 
Channel: 9 Note ON:  F#3 key: 54 velocity: 127
82800 
Channel: 9 Note ON:  F#3 key: 54 velocity: 127
82800 
Channel: 9 Note ON:  F#3 key: 54 velocity: 127
82800 
Channel: 9 Note ON:  F#3 key: 54 velocity: 127
82807 
Channel: 9 Note ON:  F#3 key: 54 velocity: 0
82810 
Channel: 9 Note ON:  F#3 key: 54 velocity: 0
82810 
Channel: 9 Note ON:  F#3 key: 54 velocity: 0
82811 
Channel: 9 Note ON:  F#3 key: 54 velocity: 0
84720 
Channel: 9 Note ON:  F#3 key: 54 velocity: 127
84720 
Channel: 9 Note ON:  F#3 key: 54 velocity: 127
84720 
Channel: 9 Note ON:  F#3 key: 54 velocity: 127
84720 
Channel: 9 Note ON:  F#3 key: 54 velocity: 127
84728 
Channel: 9 Note ON:  F#3 key: 54 velocity: 0
84728 
Channel: 9 Note ON:  F#3 key: 54 velocity: 0
84728 
Channel: 9 Note ON:  F#3 key: 54 velocity: 0
84729 
Channel: 9 Note ON:  F#3 key: 54 velocity: 0
86640 
Channel: 9 Note ON:  F#3 key: 54 velocity: 127
86640 
Channel: 9 Note ON:  F#3 key: 54 velocity: 127
86640 
Channel: 9 Note ON:  F#3 key: 54 velocity: 127
86640 
Channel: 9 Note ON:  F#3 key: 54 velocity: 127
86647 
Channel: 9 Note ON:  F#3 key: 54 velocity: 0
86648 
Channel: 9 Note ON:  F#3 key: 54 velocity: 0
86648 
Channel: 9 Note ON:  F#3 key: 54 velocity: 0
86649 
Channel: 9 Note ON:  F#3 key: 54 velocity: 0
90480 
Channel: 9 Note ON:  F#3 key: 54 velocity: 127
90480 
Channel: 9 Note ON:  F#3 key: 54 velocity: 127
90480 
Channel: 9 Note ON:  F#3 key: 54 velocity: 127
90480 
Channel: 9 Note ON:  F#3 key: 54 velocity: 127
90485 
Channel: 9 Note ON:  F#3 key: 54 velocity: 0
90486 
Channel: 9 Note ON:  F#3 key: 54 velocity: 0
90487 
Channel: 9 Note ON:  F#3 key: 54 velocity: 0
90488 
Channel: 9 Note ON:  F#3 key: 54 velocity: 0
92400 
Channel: 9 Note ON:  F#3 key: 54 velocity: 127
92400 
Channel: 9 Note ON:  F#3 key: 54 velocity: 127
92400 
Channel: 9 Note ON:  F#3 key: 54 velocity: 127
92400 
Channel: 9 Note ON:  F#3 key: 54 velocity: 127
92407 
Channel: 9 Note ON:  F#3 key: 54 velocity: 0
92410 
Channel: 9 Note ON:  F#3 key: 54 velocity: 0
92410 
Channel: 9 Note ON:  F#3 key: 54 velocity: 0
92411 
Channel: 9 Note ON:  F#3 key: 54 velocity: 0
94320 
Channel: 9 Note ON:  F#3 key: 54 velocity: 127
94320 
Channel: 9 Note ON:  F#3 key: 54 velocity: 127
94320 
Channel: 9 Note ON:  F#3 key: 54 velocity: 127
94320 
Channel: 9 Note ON:  F#3 key: 54 velocity: 127
94328 
Channel: 9 Note ON:  F#3 key: 54 velocity: 0
94328 
Channel: 9 Note ON:  F#3 key: 54 velocity: 0
94328 
Channel: 9 Note ON:  F#3 key: 54 velocity: 0
94329 
Channel: 9 Note ON:  F#3 key: 54 velocity: 0
96240 
Channel: 9 Note ON:  F#3 key: 54 velocity: 127
96240 
Channel: 9 Note ON:  F#3 key: 54 velocity: 127
96240 
Channel: 9 Note ON:  F#3 key: 54 velocity: 127
96240 
Channel: 9 Note ON:  F#3 key: 54 velocity: 127
96247 
Channel: 9 Note ON:  F#3 key: 54 velocity: 0
96248 
Channel: 9 Note ON:  F#3 key: 54 velocity: 0
96248 
Channel: 9 Note ON:  F#3 key: 54 velocity: 0
96249 
Channel: 9 Note ON:  F#3 key: 54 velocity: 0
98160 
Channel: 9 Note ON:  F#3 key: 54 velocity: 127
98160 
Channel: 9 Note ON:  F#3 key: 54 velocity: 127
98160 
Channel: 9 Note ON:  F#3 key: 54 velocity: 127
98160 
Channel: 9 Note ON:  F#3 key: 54 velocity: 127
98165 
Channel: 9 Note ON:  F#3 key: 54 velocity: 0
98166 
Channel: 9 Note ON:  F#3 key: 54 velocity: 0
98167 
Channel: 9 Note ON:  F#3 key: 54 velocity: 0
98168 
Channel: 9 Note ON:  F#3 key: 54 velocity: 0
100080 
Channel: 9 Note ON:  F#3 key: 54 velocity: 127
100080 
Channel: 9 Note ON:  F#3 key: 54 velocity: 127
100080 
Channel: 9 Note ON:  F#3 key: 54 velocity: 127
100080 
Channel: 9 Note ON:  F#3 key: 54 velocity: 127
100087 
Channel: 9 Note ON:  F#3 key: 54 velocity: 0
100090 
Channel: 9 Note ON:  F#3 key: 54 velocity: 0
100090 
Channel: 9 Note ON:  F#3 key: 54 velocity: 0
100091 
Channel: 9 Note ON:  F#3 key: 54 velocity: 0
102000 
Channel: 9 Note ON:  F#3 key: 54 velocity: 127
102000 
Channel: 9 Note ON:  F#3 key: 54 velocity: 127
102000 
Channel: 9 Note ON:  F#3 key: 54 velocity: 127
102000 
Channel: 9 Note ON:  F#3 key: 54 velocity: 127
102008 
Channel: 9 Note ON:  F#3 key: 54 velocity: 0
102008 
Channel: 9 Note ON:  F#3 key: 54 velocity: 0
102008 
Channel: 9 Note ON:  F#3 key: 54 velocity: 0
102009 
Channel: 9 Note ON:  F#3 key: 54 velocity: 0
103920 
Channel: 9 Note ON:  F#3 key: 54 velocity: 127
103920 
Channel: 9 Note ON:  F#3 key: 54 velocity: 127
103920 
Channel: 9 Note ON:  F#3 key: 54 velocity: 127
103920 
Channel: 9 Note ON:  F#3 key: 54 velocity: 127
103927 
Channel: 9 Note ON:  F#3 key: 54 velocity: 0
103928 
Channel: 9 Note ON:  F#3 key: 54 velocity: 0
103928 
Channel: 9 Note ON:  F#3 key: 54 velocity: 0
103929 
Channel: 9 Note ON:  F#3 key: 54 velocity: 0
105840 
Channel: 9 Note ON:  F#3 key: 54 velocity: 127
105840 
Channel: 9 Note ON:  F#3 key: 54 velocity: 127
105840 
Channel: 9 Note ON:  F#3 key: 54 velocity: 127
105840 
Channel: 9 Note ON:  F#3 key: 54 velocity: 127
105845 
Channel: 9 Note ON:  F#3 key: 54 velocity: 0
105846 
Channel: 9 Note ON:  F#3 key: 54 velocity: 0
105847 
Channel: 9 Note ON:  F#3 key: 54 velocity: 0
105848 
Channel: 9 Note ON:  F#3 key: 54 velocity: 0
107760 
Channel: 9 Note ON:  F#3 key: 54 velocity: 127
107760 
Channel: 9 Note ON:  F#3 key: 54 velocity: 127
107760 
Channel: 9 Note ON:  F#3 key: 54 velocity: 127
107760 
Channel: 9 Note ON:  F#3 key: 54 velocity: 127
107767 
Channel: 9 Note ON:  F#3 key: 54 velocity: 0
107770 
Channel: 9 Note ON:  F#3 key: 54 velocity: 0
107770 
Channel: 9 Note ON:  F#3 key: 54 velocity: 0
107771 
Channel: 9 Note ON:  F#3 key: 54 velocity: 0
109680 
Channel: 9 Note ON:  F#3 key: 54 velocity: 127
109680 
Channel: 9 Note ON:  F#3 key: 54 velocity: 127
109680 
Channel: 9 Note ON:  F#3 key: 54 velocity: 127
109680 
Channel: 9 Note ON:  F#3 key: 54 velocity: 127
109688 
Channel: 9 Note ON:  F#3 key: 54 velocity: 0
109688 
Channel: 9 Note ON:  F#3 key: 54 velocity: 0
109688 
Channel: 9 Note ON:  F#3 key: 54 velocity: 0
109689 
Channel: 9 Note ON:  F#3 key: 54 velocity: 0
111600 
Channel: 9 Note ON:  F#3 key: 54 velocity: 127
111600 
Channel: 9 Note ON:  F#3 key: 54 velocity: 127
111600 
Channel: 9 Note ON:  F#3 key: 54 velocity: 127
111600 
Channel: 9 Note ON:  F#3 key: 54 velocity: 127
111607 
Channel: 9 Note ON:  F#3 key: 54 velocity: 0
111608 
Channel: 9 Note ON:  F#3 key: 54 velocity: 0
111608 
Channel: 9 Note ON:  F#3 key: 54 velocity: 0
111609 
Channel: 9 Note ON:  F#3 key: 54 velocity: 0
113520 
Channel: 9 Note ON:  F#3 key: 54 velocity: 127
113520 
Channel: 9 Note ON:  F#3 key: 54 velocity: 127
113520 
Channel: 9 Note ON:  F#3 key: 54 velocity: 127
113520 
Channel: 9 Note ON:  F#3 key: 54 velocity: 127
113525 
Channel: 9 Note ON:  F#3 key: 54 velocity: 0
113526 
Channel: 9 Note ON:  F#3 key: 54 velocity: 0
113527 
Channel: 9 Note ON:  F#3 key: 54 velocity: 0
113528 
Channel: 9 Note ON:  F#3 key: 54 velocity: 0
115440 
Channel: 9 Note ON:  F#3 key: 54 velocity: 127
115440 
Channel: 9 Note ON:  F#3 key: 54 velocity: 127
115440 
Channel: 9 Note ON:  F#3 key: 54 velocity: 127
115440 
Channel: 9 Note ON:  F#3 key: 54 velocity: 127
115447 
Channel: 9 Note ON:  F#3 key: 54 velocity: 0
115450 
Channel: 9 Note ON:  F#3 key: 54 velocity: 0
115450 
Channel: 9 Note ON:  F#3 key: 54 velocity: 0
115451 
Channel: 9 Note ON:  F#3 key: 54 velocity: 0
117360 
Channel: 9 Note ON:  F#3 key: 54 velocity: 127
117360 
Channel: 9 Note ON:  F#3 key: 54 velocity: 127
117360 
Channel: 9 Note ON:  F#3 key: 54 velocity: 127
117360 
Channel: 9 Note ON:  F#3 key: 54 velocity: 127
117368 
Channel: 9 Note ON:  F#3 key: 54 velocity: 0
117368 
Channel: 9 Note ON:  F#3 key: 54 velocity: 0
117368 
Channel: 9 Note ON:  F#3 key: 54 velocity: 0
117369 
Channel: 9 Note ON:  F#3 key: 54 velocity: 0
119280 
Channel: 9 Note ON:  F#3 key: 54 velocity: 127
119280 
Channel: 9 Note ON:  F#3 key: 54 velocity: 127
119280 
Channel: 9 Note ON:  F#3 key: 54 velocity: 127
119280 
Channel: 9 Note ON:  F#3 key: 54 velocity: 127
119287 
Channel: 9 Note ON:  F#3 key: 54 velocity: 0
119288 
Channel: 9 Note ON:  F#3 key: 54 velocity: 0
119288 
Channel: 9 Note ON:  F#3 key: 54 velocity: 0
119289 
Channel: 9 Note ON:  F#3 key: 54 velocity: 0
119289 
WTF is that class javax.sound.midi.Track$ImmutableEndOfTrack


Changing to track 16


0 
WTF is that class javax.sound.midi.MetaMessage
0 
WTF is that class javax.sound.midi.MetaMessage
0 
0 
52800 
Channel: 9 Note ON:  E3 key: 52 velocity: 127
52955 
Channel: 9 Note ON:  E3 key: 52 velocity: 0
53760 
Channel: 9 Note ON:  E3 key: 52 velocity: 127
53836 
Channel: 9 Note ON:  E3 key: 52 velocity: 0
54120 
Channel: 9 Note ON:  E3 key: 52 velocity: 127
54179 
Channel: 9 Note ON:  E3 key: 52 velocity: 0
87360 
Channel: 9 Note ON:  E3 key: 52 velocity: 127
87515 
Channel: 9 Note ON:  E3 key: 52 velocity: 0
88320 
Channel: 9 Note ON:  E3 key: 52 velocity: 127
88396 
Channel: 9 Note ON:  E3 key: 52 velocity: 0
88680 
Channel: 9 Note ON:  E3 key: 52 velocity: 127
88739 
Channel: 9 Note ON:  E3 key: 52 velocity: 0
88739 
WTF is that class javax.sound.midi.Track$ImmutableEndOfTrack
